<svg width="109" height="37" viewBox="0 0 109 37" fill="none" xmlns="http://www.w3.org/2000/svg">
<rect width="109" height="37" rx="18.5" fill="#A5E4D0"/>
<path d="M53.16 19.6203C53.6 20.3203 54 21.2603 54.14 21.8603L55.34 21.4403C55.22 20.8403 54.78 19.9403 54.32 19.2603L53.16 19.6203ZM49.82 18.1003C50.54 18.6403 51.4 19.4403 51.78 20.0203L52.58 18.9603C52.18 18.4203 51.32 17.6803 50.6 17.1803L49.82 18.1003ZM52.04 15.9003C51.76 16.4603 51.22 17.3203 50.8 17.8803L51.84 18.3403C52.3 17.8603 52.88 17.1403 53.44 16.4403L52.04 15.9003ZM53.4 17.3603C52.72 18.3203 51.5 19.7403 50.54 20.6003L51.46 21.0603C52.42 20.2803 53.66 19.0003 54.64 17.9203L53.4 17.3603ZM55.5 21.8203V27.4203H57.12V21.8203H55.5ZM49.66 20.4403L49.8 21.7403C51.16 21.6403 52.74 21.5003 54.4 21.3403L54.38 20.1203C52.58 20.2603 50.9 20.3603 49.66 20.4403ZM58.22 19.5003C58.7 20.2803 59.16 21.3003 59.3 21.9803L60.56 21.5603C60.4 20.8803 59.92 19.8803 59.42 19.1603L58.22 19.5003ZM54.58 18.0003C55.36 18.6003 56.28 19.5003 56.68 20.1003L57.58 19.1003C57.16 18.5203 56.22 17.6803 55.44 17.1203L54.58 18.0003ZM56.9 15.8803C56.58 16.5003 55.96 17.4403 55.5 18.0203L56.56 18.5003C57.08 17.9803 57.72 17.2003 58.34 16.4403L56.9 15.8803ZM58.32 17.3803C57.6 18.3803 56.3 19.8403 55.28 20.7003L56.22 21.2003C57.26 20.3803 58.56 19.0803 59.6 17.9603L58.32 17.3803ZM54.98 20.4403L55.26 21.7403C56.56 21.6203 58.08 21.5203 59.62 21.3603L59.6 20.1603C57.84 20.2803 56.22 20.3803 54.98 20.4403ZM50.26 22.1403V25.2003H53.9V23.8803H51.74V22.1403H50.26ZM58.38 22.1403V23.8803H56.78V25.2003H59.86V22.1403H58.38ZM52.94 21.8203V23.7003C52.94 24.7603 52.66 25.7803 50.58 26.4003C50.92 26.7003 51.42 27.3203 51.62 27.7003C54.16 26.8203 54.54 25.3203 54.54 23.7603V21.8203H52.94ZM47.86 12.3403V13.7803H52.88V12.3403H47.86ZM57.06 12.3403V13.7803H62.14V12.3403H57.06ZM61.32 9.78027V25.0403C61.32 25.3003 61.24 25.4003 60.98 25.4003C60.72 25.4003 59.92 25.4003 59.18 25.3603C59.48 25.9803 59.78 27.0603 59.86 27.7003C61.18 27.7003 62.1 27.6603 62.78 27.2603C63.46 26.8603 63.64 26.2003 63.64 25.0603V9.78027H61.32ZM48.08 9.78027V11.4003H52.16V14.7003H48.08V16.3203H54.42V9.78027H48.08ZM62.52 9.78027H55.72V16.3203H62.52V14.7003H58V11.4003H62.52V9.78027ZM46.66 9.78027V27.8003H48.94V9.78027H46.66Z" fill="black"/>
<path d="M70.98 18.9803V20.9203H80.86V18.9803H70.98ZM76.1 17.4403V25.1403C76.1 25.3603 76.02 25.4203 75.78 25.4403C75.54 25.4403 74.76 25.4403 74.04 25.4203C74.32 25.9403 74.64 26.8003 74.74 27.3803C75.92 27.3803 76.78 27.3603 77.42 27.0403C78.08 26.7003 78.24 26.1603 78.24 25.2003V17.4403H76.1ZM75.62 20.1603C74.48 21.8403 72.28 23.5403 70.28 24.4003C70.76 24.8003 71.42 25.6003 71.78 26.1203C73.84 25.0003 76.06 22.9403 77.32 20.8403L75.62 20.1603ZM68.66 12.5603V14.1803H73.68V12.5603H68.66ZM77.94 12.5603V14.1803H83V12.5603H77.94ZM82.02 9.78027V24.9003C82.02 25.2603 81.88 25.4003 81.5 25.4003C81.1 25.4003 79.74 25.4203 78.56 25.3603C78.92 25.9803 79.3 27.1203 79.4 27.8003C81.24 27.8003 82.48 27.7603 83.34 27.3603C84.16 26.9603 84.44 26.2803 84.44 24.9203V9.78027H82.02ZM68.86 9.78027V11.5203H72.94V15.3203H68.86V17.0403H75.18V9.78027H68.86ZM83.3 9.78027H76.54V17.1003H83.3V15.3803H78.82V11.5203H83.3V9.78027ZM67.48 9.78027V27.8003H69.86V9.78027H67.48Z" fill="black"/>
<line x1="35.3536" y1="12.3536" x2="21.3536" y2="26.3536" stroke="black"/>
<line x1="34.6464" y1="26.3536" x2="20.6464" y2="12.3536" stroke="black"/>
</svg>
