<svg width="62" height="34" viewBox="0 0 62 34" fill="none" xmlns="http://www.w3.org/2000/svg">
<rect opacity="0.7" width="62" height="34" rx="6" fill="white"/>
<path d="M21.1 26.9L4.09995 9.9C3.91662 9.71667 3.82495 9.48333 3.82495 9.2C3.82495 8.91667 3.91662 8.68333 4.09995 8.5C4.28328 8.31667 4.51662 8.225 4.79995 8.225C5.08328 8.225 5.31662 8.31667 5.49995 8.5L22.5 25.5C22.6833 25.6833 22.775 25.9167 22.775 26.2C22.775 26.4833 22.6833 26.7167 22.5 26.9C22.3166 27.0833 22.0833 27.175 21.7999 27.175C21.5166 27.175 21.2833 27.0833 21.1 26.9ZM16 16.15L14 14.15V10C14 9.45 14.196 8.979 14.588 8.587C14.9793 8.19567 15.45 8 16 8H18C18.55 8 19.021 8.19567 19.413 8.587C19.8043 8.979 20 9.45 20 10C20 10.55 19.8043 11.0207 19.413 11.412C19.021 11.804 18.55 12 18 12H16V16.15ZM12 26C10.9 26 9.95828 25.6083 9.17495 24.825C8.39162 24.0417 7.99995 23.1 7.99995 22C7.99995 20.9 8.39162 19.9583 9.17495 19.175C9.95828 18.3917 10.9 18 12 18C12.3833 18 12.7373 18.0457 13.062 18.137C13.3873 18.229 13.7 18.3667 14 18.55V17L16 19V22C16 23.1 15.6083 24.0417 14.825 24.825C14.0416 25.6083 13.1 26 12 26Z" fill="#42BAA7"/>
<path d="M36.776 23.192V10.984H25.656V23.192H36.776ZM33.528 21.56H28.872V12.6H33.528V21.56ZM47.5175 12.616V10.984H38.0935V23.192H41.2775V17.8H47.1655V16.136H41.2775V12.616H47.5175ZM57.9238 12.616V10.984H48.4998V23.192H51.6838V17.8H57.5718V16.136H51.6838V12.616H57.9238Z" fill="#42BAA7"/>
</svg>
