<svg width="62" height="34" viewBox="0 0 62 34" fill="none" xmlns="http://www.w3.org/2000/svg">
<rect opacity="0.7" width="62" height="34" rx="6" fill="white"/>
<path d="M12 26C10.9 26 9.95833 25.6083 9.175 24.825C8.39167 24.0417 8 23.1 8 22C8 20.9 8.39167 19.9583 9.175 19.175C9.95833 18.3917 10.9 18 12 18C12.3833 18 12.7373 18.0457 13.062 18.137C13.3873 18.229 13.7 18.3667 14 18.55V10C14 9.45 14.196 8.979 14.588 8.587C14.9793 8.19567 15.45 8 16 8H18C18.55 8 19.021 8.19567 19.413 8.587C19.8043 8.979 20 9.45 20 10C20 10.55 19.8043 11.0207 19.413 11.412C19.021 11.804 18.55 12 18 12H16V22C16 23.1 15.6083 24.0417 14.825 24.825C14.0417 25.6083 13.1 26 12 26Z" fill="#42BAA7"/>
<path d="M39.776 23.192V10.984H28.656V23.192H39.776ZM36.528 21.56H31.872V12.6H36.528V21.56ZM52.2455 23.192V10.984H49.0775V18.68L44.7255 10.984H41.1095V23.192H44.3095V15.672L48.6935 23.192H52.2455Z" fill="#42BAA7"/>
</svg>
