<svg width="273" height="147" viewBox="0 0 273 147" fill="none" xmlns="http://www.w3.org/2000/svg">
<rect x="45" y="64" width="228" height="60" rx="30" fill="white"/>
<g clip-path="url(#clip0_1204_40454)">
<path d="M69.0293 73.1544L53.8045 70.7217H53.8001H53.7956L36.8792 73.1544C36.8792 73.1544 23.6786 94.9583 25.8691 111.558C28.0596 128.158 38.4644 132.474 53.7956 132.476H53.8023C69.1357 132.476 79.5383 128.158 81.7288 111.558C83.9193 94.956 69.0271 73.1544 69.0271 73.1544H69.0293Z" fill="white"/>
<path d="M53.8045 133.75C45.0337 133.75 38.8081 132.337 34.2032 129.305C28.84 125.774 25.7006 120.023 24.6054 111.724C23.6675 104.621 25.2705 95.8485 29.3699 85.655C32.4007 78.1199 35.6509 72.7187 35.7884 72.4929C35.9857 72.1653 36.3205 71.9462 36.6996 71.8909L53.5651 69.4648C53.6981 69.4404 53.8356 69.436 53.973 69.4559C53.993 69.4581 54.0129 69.4625 54.0329 69.4648L69.2311 71.8931C69.5769 71.9484 69.8851 72.1432 70.0847 72.4332C70.2399 72.659 73.9092 78.0601 77.3634 85.5974C82.0437 95.8065 83.9393 104.597 82.997 111.722C81.9018 120.021 78.7624 125.772 73.3992 129.302C68.7943 132.335 62.5687 133.747 53.8045 133.747V133.75ZM37.6729 74.328C35.7374 77.6927 25.2128 96.8137 27.1351 111.392C28.993 125.462 36.7174 131.2 53.7979 131.202C70.885 131.202 78.6094 125.462 80.4673 111.392C81.5604 103.118 78.1194 93.3759 75.0421 86.6621C72.2352 80.5371 69.22 75.7691 68.2755 74.3258L53.7934 72.0104L37.6751 74.328H37.6729Z" fill="black"/>
<path d="M50.7847 124.805C50.7847 124.805 50.4765 130.965 49.9511 136.444C49.4545 141.628 44.6101 144.838 38.522 145.599C34.008 146.163 27.7491 144.893 26.9509 139.633C25.8801 132.588 31.9749 130.071 31.9749 130.071L30.2633 122.341" fill="white"/>
<path d="M36.5155 147C34.4891 147 32.507 146.651 30.8641 145.984C27.9088 144.785 26.1196 142.657 25.6894 139.828C24.8425 134.257 28.0706 130.823 30.5138 129.385L29.0173 122.618C28.8643 121.931 29.2989 121.25 29.9884 121.099C30.6757 120.949 31.3586 121.383 31.5093 122.069L33.2209 129.799C33.3539 130.403 33.0347 131.014 32.4627 131.251C32.2565 131.337 27.3101 133.509 28.2147 139.445C28.5074 141.362 29.7223 142.768 31.8264 143.622C33.6621 144.368 36.0455 144.627 38.3646 144.337C43.036 143.753 48.2018 141.34 48.6807 136.324C49.1973 130.936 49.5077 124.803 49.5099 124.743C49.5454 124.041 50.1484 123.499 50.849 123.534C51.5541 123.57 52.0951 124.167 52.0596 124.871C52.0574 124.933 51.7448 131.122 51.2215 136.57C50.7005 142.018 45.8938 145.964 38.6816 146.868C37.9633 146.958 37.2361 147.003 36.5133 147.003L36.5155 147Z" fill="black"/>
<path d="M56.7555 124.804C56.7555 124.804 57.0637 130.964 57.5891 136.443C58.0857 141.627 62.9301 144.837 69.0182 145.598C73.5323 146.162 79.7911 144.892 80.5893 139.632C81.6601 132.587 75.5676 130.07 75.5676 130.07L77.2792 122.34" fill="white"/>
<path d="M71.0269 147C70.3064 147 69.5792 146.955 68.8586 146.865C61.6464 145.961 56.8397 142.015 56.3187 136.565C55.7977 131.119 55.4851 124.928 55.4806 124.868C55.4452 124.166 55.9884 123.567 56.6912 123.531C57.394 123.494 57.9948 124.038 58.0303 124.74C58.0325 124.802 58.3429 130.936 58.8595 136.321C59.3406 141.337 64.5042 143.748 69.1757 144.334C71.497 144.624 73.8803 144.365 75.7139 143.62C77.8179 142.765 79.0351 141.359 79.3255 139.442C80.2279 133.506 75.2815 131.336 75.0709 131.246C74.5055 131.006 74.1863 130.396 74.3171 129.796L76.0287 122.066C76.1817 121.38 76.8601 120.946 77.5496 121.096C78.2369 121.249 78.6715 121.929 78.5207 122.615L77.0242 129.382C79.4696 130.821 82.6955 134.254 81.8486 139.825C81.4185 142.652 79.6293 144.782 76.6739 145.981C75.031 146.648 73.0489 146.997 71.0225 146.997L71.0269 147Z" fill="black"/>
<path d="M67.9495 124.289C67.9495 128.669 61.7549 132.22 54.1148 132.22C46.4747 132.22 40.2802 128.669 40.2802 124.289C40.2802 119.908 46.4747 116.357 54.1148 116.357C61.7549 116.357 67.9495 119.908 67.9495 124.289Z" fill="white"/>
<path d="M46.0491 130.48C46.0491 130.48 48.5234 132.039 53.9198 132.039C58.7974 132.039 61.52 130.48 61.52 130.48" fill="white"/>
<path d="M53.9198 133.313C48.2218 133.313 45.4815 131.631 45.3684 131.56C44.772 131.184 44.5924 130.398 44.9694 129.803C45.344 129.209 46.1267 129.03 46.7209 129.398C46.7807 129.433 49.0798 130.763 53.9198 130.763C58.3473 130.763 60.8659 129.384 60.8925 129.371C61.5045 129.03 62.2827 129.243 62.6285 129.854C62.9744 130.465 62.7638 131.237 62.1541 131.585C62.0299 131.655 59.0767 133.311 53.9198 133.311V133.313Z" fill="black"/>
<path d="M49.4524 112.654C49.3038 121.504 55.964 128.791 64.3247 128.931C72.6853 129.07 79.5827 122.009 79.729 113.156C79.8776 104.307 73.2197 97.0194 64.8568 96.88C56.4961 96.7405 49.5987 103.804 49.4502 112.654H49.4524Z" fill="white"/>
<path d="M58.2232 112.654C58.3718 121.504 51.7138 128.791 43.3509 128.931C34.9903 129.07 28.0929 122.009 27.9443 113.156C27.7958 104.307 34.4559 97.0194 42.8166 96.88C51.1773 96.7405 58.0747 103.804 58.221 112.654H58.2232Z" fill="white"/>
<path d="M36.7927 78.5781C22.3838 88.4441 18.0937 102.255 17.5927 108.276C17.1493 113.588 19.1313 118.989 24.4989 118.784C29.3034 118.6 31.2611 113.721 31.6491 111.297C32.2144 107.747 33.2254 104.411 34.0546 102.049" fill="white"/>
<path d="M24.2129 120.063C22.1444 120.063 20.3419 119.319 18.985 117.904C16.9519 115.782 15.9809 112.233 16.3201 108.169C16.8832 101.424 21.6766 87.3813 36.07 77.5264C36.6508 77.128 37.4468 77.2763 37.8436 77.8562C38.2427 78.4362 38.0942 79.2309 37.5133 79.6271C23.907 88.9441 19.3885 102.084 18.8631 108.382C18.5882 111.669 19.3242 114.571 20.8296 116.145C21.752 117.108 22.9714 117.568 24.4502 117.513C28.3633 117.364 30.0439 113.252 30.3875 111.1C30.9795 107.379 32.0526 103.897 32.8485 101.63C33.0813 100.966 33.8107 100.616 34.4759 100.849C35.141 101.081 35.4913 101.809 35.2585 102.474C34.498 104.641 33.4737 107.965 32.9106 111.501C32.4539 114.369 30.1193 119.848 24.5499 120.061C24.4369 120.065 24.326 120.067 24.2152 120.067L24.2129 120.063Z" fill="black"/>
<path d="M82.3163 27.3584C81.1235 24.3413 79.791 21.5389 78.2989 18.9733C76.3412 15.6087 74.1175 12.6823 71.5922 10.1965C64.0807 2.81193 53.9441 -0.413272 40.4486 1.91985L40.2735 1.95084C26.7802 4.28175 18.322 10.7211 13.7349 20.1975C12.194 23.385 11.0854 26.9024 10.376 30.7275C9.83276 33.6428 9.51794 36.7219 9.41373 39.9648C9.11221 49.3438 10.8438 65.4653 14.1539 71.7298C17.8077 78.645 25.2904 83.2338 40.1183 81.7197C40.1183 81.7197 46.7053 81.0999 53.6027 79.8802C60.9745 78.5742 67.679 77.0225 67.679 77.0225C82.1434 73.421 87.4378 66.6408 88.5508 58.8998C89.5573 51.8916 85.755 36.0866 82.3141 27.3584" fill="white"/>
<path d="M85.0101 29.8168C76.8157 5.42971 57.3163 -0.445155 41.6348 1.83041L40.2668 2.0562L39.0497 2.27756C23.5167 5.40093 7.20329 17.4628 7.6977 43.1825C5.03718 44.701 -0.372531 49.4779 1.9532 63.2575C4.28559 77.0681 14.9254 77.9845 18.8009 77.8473C19.1933 77.8362 19.9915 77.6768 20.497 76.9928C20.395 76.8932 20.3063 76.7847 20.2066 76.6807C20.0713 76.539 19.9361 76.3996 19.8075 76.2491C19.6523 76.0675 19.5015 75.8772 19.3485 75.689C19.2399 75.5518 19.1313 75.4167 19.0248 75.2751C18.8586 75.0515 18.7056 74.8191 18.5526 74.5866C18.475 74.4693 18.393 74.3564 18.3176 74.2347C18.0959 73.8761 17.883 73.5131 17.6835 73.1345C14.6572 67.4102 13.0609 52.6079 13.338 44.0303C13.4355 41.0663 13.6861 38.2351 14.216 35.5766C15.3666 29.8257 18.8785 13.1485 41.5151 9.23487C64.9254 5.18621 73.224 19.8247 76.2437 24.8562C77.6382 27.1804 78.9751 29.7349 80.0615 32.4975C83.212 40.4797 86.6928 54.9543 85.7705 61.3627C85.7107 61.7855 85.6331 62.2038 85.5422 62.6133C85.5156 62.7528 85.4734 62.8856 85.438 63.0229C85.3714 63.2929 85.3049 63.563 85.2273 63.8308C85.1741 63.9968 85.1143 64.1651 85.0566 64.3289C84.9812 64.5569 84.9014 64.7849 84.8127 65.0107C84.744 65.1922 84.6598 65.3693 84.5799 65.5508C84.5223 65.6792 84.4691 65.812 84.4092 65.9426C85.1121 66.4185 85.9102 66.299 86.2827 66.1817C89.9808 65.0107 99.6739 60.5768 97.2196 46.7884C94.7675 33.0287 88.0297 30.3569 85.0123 29.8168" fill="black"/>
<path d="M70.0823 76.3686C80.5957 72.9884 84.7772 67.7312 85.6929 61.3494C86.6129 54.9432 83.1365 40.4907 79.9905 32.5107" fill="white"/>
<path d="M70.0823 77.6439C69.5435 77.6439 69.0424 77.3008 68.8673 76.7607C68.6522 76.0899 69.0203 75.3727 69.6898 75.158C78.7954 72.2294 83.478 67.7846 84.4291 61.1704C85.1208 56.3558 82.8616 43.2757 78.8021 32.9803C78.5449 32.3251 78.8664 31.5857 79.5227 31.3268C80.1789 31.07 80.9194 31.3909 81.1788 32.0462C82.8217 36.2099 84.4801 41.8966 85.6175 47.258C86.5398 51.6077 87.5219 57.6153 86.9588 61.5312C85.868 69.1149 80.4782 74.3656 70.4747 77.5819C70.3439 77.624 70.2131 77.6439 70.0823 77.6439V77.6439Z" fill="black"/>
<path d="M13.338 44.0371C13.0609 52.6126 14.6461 67.3551 17.6724 73.0816C20.7298 78.8701 26.5696 82.4473 37.9478 81.9448" fill="white"/>
<path d="M35.9102 83.2662C26.2924 83.2662 19.9449 80.1185 16.5417 73.677C13.2404 67.428 11.7971 52.1609 12.0609 43.9972C12.0831 43.2932 12.6728 42.7443 13.3779 42.7642C14.0829 42.7863 14.635 43.3751 14.6128 44.0791C14.2558 55.1249 16.5284 68.1895 18.8009 72.4883C21.9802 78.507 28.0462 81.108 37.8923 80.6741C38.5929 80.6453 39.1915 81.1877 39.2248 81.8916C39.2558 82.5955 38.7104 83.1887 38.0054 83.222C37.2915 83.2529 36.5931 83.2684 35.9124 83.2684L35.9102 83.2662Z" fill="black"/>
<path d="M18.1999 79.2398C13.9719 79.2398 3.00612 77.8142 0.585051 63.4879C-0.470287 57.2323 -0.100032 52.0414 1.68916 48.057C2.9906 45.1572 4.8064 43.4284 6.30072 42.4212C6.22534 30.5984 9.59755 20.8143 16.3331 13.3324C21.929 7.11444 29.8995 2.70718 38.7767 0.920816C38.7856 0.920816 38.7945 0.916389 38.8034 0.916389L40.0205 0.69503C40.0205 0.69503 40.0361 0.692816 40.0427 0.690603L41.4107 0.464817C41.4107 0.464817 41.4284 0.462603 41.4373 0.46039C50.4054 -0.841201 59.409 0.633049 66.7898 4.60644C75.6781 9.39222 82.1609 17.474 86.0696 28.6305C87.8189 29.0777 90.118 30.0959 92.3263 32.3848C95.3659 35.5369 97.4722 40.3006 98.5829 46.5451C99.7159 52.9069 98.5474 58.1465 95.1065 62.1199C92.2864 65.3761 88.6304 66.888 86.7015 67.4989C86.3069 67.6229 84.9234 67.9593 83.633 67.0872C83.0677 66.7042 82.8659 65.9693 83.1564 65.3517C83.1852 65.2898 83.2118 65.2278 83.2384 65.1636C83.265 65.1038 83.2894 65.044 83.316 64.9865L83.3692 64.867C83.4224 64.7496 83.4756 64.6323 83.52 64.515C83.6042 64.2981 83.6796 64.0789 83.7439 63.8908L83.7905 63.758C83.8281 63.6473 83.8681 63.5366 83.9035 63.4259C83.9723 63.1891 84.0343 62.9367 84.092 62.6999C84.1097 62.6335 84.1252 62.5737 84.1408 62.5161C84.1563 62.4608 84.1718 62.4077 84.1829 62.3501C84.1829 62.339 84.1873 62.3302 84.1895 62.3191C84.276 61.9295 84.3447 61.5422 84.3979 61.1703C85.0897 56.3579 82.8305 43.2933 78.7709 33.0068C77.8109 30.5674 76.596 28.1369 75.0529 25.5713L74.8866 25.2924C73.379 22.7756 70.5743 18.0894 65.4529 14.5853C59.194 10.3042 51.2191 8.965 41.7499 10.6031C19.8671 14.3861 16.6346 30.5431 15.5726 35.8535C15.1026 38.2021 14.8232 40.8938 14.719 44.0814C14.3621 55.1338 16.6346 68.1984 18.9049 72.495C19.0734 72.8137 19.2597 73.1369 19.4924 73.511C19.5257 73.5642 19.5634 73.6195 19.6011 73.6748C19.6366 73.7257 19.672 73.7789 19.7053 73.8298L19.7652 73.9183C19.8915 74.1087 20.0112 74.288 20.1354 74.454C20.1953 74.5359 20.264 74.6178 20.3305 74.7019L20.5323 74.9543C20.6387 75.0871 20.7451 75.2199 20.856 75.3483C20.9557 75.4634 21.0644 75.5763 21.173 75.6892L21.2085 75.7268C21.2573 75.78 21.306 75.8309 21.3526 75.884C21.3903 75.9261 21.4258 75.9659 21.4657 76.0057C21.9579 76.4883 22.0199 77.2586 21.612 77.812C20.6764 79.0848 19.2508 79.2199 18.8362 79.2309C18.6455 79.2376 18.4327 79.242 18.1999 79.242V79.2398ZM39.3111 3.63468C31.0191 5.30594 23.5919 9.4055 18.395 15.1808C11.9964 22.2908 8.86369 31.703 9.08318 43.1561C9.09205 43.6608 8.826 44.1323 8.38479 44.3824C7.15209 45.0863 5.42941 46.4898 4.21887 49.1859C2.65804 52.6634 2.35429 57.3186 3.31873 63.0253C4.01046 67.116 6.81953 76.475 18.0114 76.475C18.0757 76.475 18.1378 76.475 18.2021 76.475L18.1578 76.4197C18.0735 76.3156 17.9915 76.2116 17.9094 76.1031C17.7432 75.8774 17.5968 75.6604 17.4572 75.4501L17.3951 75.355C17.364 75.3085 17.3374 75.2686 17.3108 75.231C17.251 75.1447 17.1933 75.0583 17.1379 74.9676C16.8718 74.5381 16.6479 74.1485 16.4528 73.7789C13.136 67.5033 11.6838 52.1809 11.9499 43.9884C12.0585 40.6481 12.3556 37.8081 12.8545 35.3089C13.4176 32.4888 14.5927 26.6184 18.6788 20.9139C23.634 13.9965 31.2364 9.60915 41.2776 7.8737C51.4829 6.10947 60.1451 7.597 67.0203 12.3009C72.6429 16.1459 75.6515 21.1707 77.2678 23.8713L77.4318 24.1458C79.0525 26.8442 80.334 29.4097 81.3516 31.9907C84.3602 39.6143 88.1537 54.5317 87.1427 61.5599C87.0806 61.9937 86.9986 62.4431 86.901 62.8969C86.8766 63.0142 86.8478 63.1271 86.8168 63.2422C86.8057 63.2798 86.7968 63.3175 86.7857 63.3573C86.7215 63.6251 86.6483 63.9195 86.5596 64.2206C86.5574 64.2294 86.553 64.2405 86.5507 64.2494C86.5064 64.3888 86.4576 64.5261 86.4111 64.6655L86.4044 64.681C90.3597 63.2843 97.9887 58.9921 95.8581 47.0299C93.6366 34.5652 87.9586 31.7473 84.7704 31.1761C84.2716 31.0876 83.8614 30.7334 83.7018 30.2553C80.0546 19.3999 73.9222 11.5903 65.4772 7.04139C58.6198 3.34912 50.2303 1.98334 41.8519 3.19638L40.5083 3.41774L39.3155 3.63468H39.3111Z" fill="black"/>
<path d="M97.1953 46.5897C96.4215 42.3374 95.2353 39.1498 93.8807 36.7636C93.8829 36.8455 93.8896 36.9251 93.9007 37.0203C93.9716 37.6866 94.0847 38.3883 94.1977 39.0679C94.2909 39.6523 94.3906 40.2588 94.4616 40.8388C94.6146 42.0673 94.7299 43.1985 94.8185 44.2632C94.4017 43.2206 93.9516 42.1536 93.475 41.069C93.4107 40.9229 93.3442 40.7724 93.2777 40.6218C92.8254 39.5925 92.3576 38.5278 91.8011 37.5383C91.5328 37.0602 91.0162 36.5112 90.4531 36.5444C90.105 36.5643 89.7569 36.6684 89.3822 36.8654C88.9188 37.1133 88.6971 37.8172 88.8213 38.6584C88.8834 39.0635 88.9587 39.4708 89.0363 39.867C89.0763 40.0861 89.1184 40.3031 89.1583 40.5222C89.9121 44.7878 90.2668 48.9272 90.4908 52.055C90.544 52.8386 90.9364 54.1092 91.77 54.1801C91.8565 54.1867 91.9363 54.1845 92.0117 54.1646C92.178 54.1225 92.3243 54.0229 92.444 53.8657C92.7566 53.4562 92.8276 52.7324 92.7899 52.2343C92.5881 49.3943 92.3509 46.3816 91.9252 43.3711C92.6946 45.2128 93.4151 47.0988 94.0758 49.0003C94.1977 49.3522 94.3219 49.713 94.4372 50.065C94.5902 50.5099 94.7431 50.9681 94.9028 51.4197C94.9493 51.5525 94.9915 51.6654 95.0314 51.7673C95.2664 52.3738 95.7741 53.0047 96.3262 52.9582C96.3683 52.9515 96.4148 52.9471 96.4636 52.9338C96.4636 52.9338 96.488 52.9294 96.4991 52.9272C96.5434 52.9117 96.59 52.894 96.6366 52.8718C97.1465 52.6128 97.3394 51.8669 97.3505 51.2537C97.3726 49.8857 97.3194 48.3406 97.1975 46.5875" fill="#59595C"/>
<path d="M7.37625 54.9087C7.34743 54.6873 7.31861 54.4682 7.292 54.2468C7.24323 53.8484 7.19224 53.4366 7.12351 53.0315C6.98383 52.1926 6.56036 51.5905 6.04378 51.4953C5.62697 51.4223 5.26114 51.4267 4.92636 51.5152C4.37874 51.6591 4.05504 52.3365 3.94641 52.8722C3.71805 53.9856 3.59611 55.1411 3.48082 56.259C3.46308 56.4228 3.44756 56.5821 3.43204 56.7437C3.30567 57.9236 3.20811 59.0791 3.1283 60.1969C2.88663 59.1588 2.65162 58.0453 2.42104 56.8301C2.31241 56.2567 2.21929 55.6502 2.1306 55.0636C2.0264 54.384 1.9222 53.6801 1.78917 53.0205C1.77144 52.9297 1.74926 52.8522 1.72488 52.7726C1.25707 55.4997 1.22603 58.9352 1.95545 63.2583C2.31241 65.3634 2.86225 67.1653 3.54955 68.7148C3.69587 68.8366 3.85772 68.9229 4.03509 68.9517C4.0883 68.9583 4.13708 68.9605 4.18364 68.9605C4.19694 68.9605 4.20802 68.9605 4.21911 68.9561C4.2701 68.9495 4.31444 68.945 4.35435 68.9318C4.89754 68.81 5.18798 68.0552 5.22567 67.4066C5.23232 67.2959 5.23676 67.1764 5.24341 67.0369C5.25449 66.5566 5.26114 66.0718 5.2678 65.6047C5.27445 65.2351 5.27888 64.8543 5.28553 64.4802C5.33431 62.4703 5.44295 60.4559 5.61145 58.4637C6.13025 61.4653 6.83085 64.405 7.50485 67.172C7.62013 67.6545 7.90836 68.3208 8.33182 68.613C8.49589 68.7259 8.66439 68.779 8.83732 68.7657C8.91714 68.7613 8.99473 68.7414 9.07455 68.7104C9.8461 68.3894 9.83501 67.0568 9.64434 66.2932C8.8994 63.2428 7.97044 59.192 7.38291 54.9042" fill="#59595C"/>
<path d="M39.1428 53.7772C39.5419 56.0882 37.9921 58.2818 35.6797 58.6803C33.3672 59.0787 31.1701 57.5314 30.7688 55.2204C30.3697 52.9117 31.9195 50.7158 34.2319 50.3173C36.5443 49.9189 38.7415 51.4684 39.1428 53.7772V53.7772Z" fill="black"/>
<path d="M67.2467 48.9315C67.6458 51.2425 66.0916 53.4361 63.7814 53.8346C61.4667 54.233 59.2696 52.6857 58.8705 50.3747C58.4714 48.066 60.0212 45.8701 62.3358 45.4716C64.646 45.0732 66.8476 46.6227 67.2467 48.9315Z" fill="black"/>
<path d="M56.3896 40.0702C56.1967 40.0702 56.0016 40.0259 55.8198 39.9308C55.2101 39.6164 54.9707 38.866 55.2855 38.2573C55.3498 38.1311 56.9195 35.1782 60.6154 34.5407C64.1029 33.9408 66.4597 36.2518 66.5572 36.3514C67.0428 36.8362 67.0406 37.6242 66.555 38.109C66.0673 38.5938 65.2802 38.5915 64.7946 38.1068C64.737 38.0514 63.2272 36.6148 61.0389 36.9911C58.5868 37.4139 57.507 39.3818 57.496 39.4017C57.2742 39.8289 56.8397 40.0746 56.3896 40.0746V40.0702Z" fill="black"/>
<path d="M28.3367 45.0307C28.1549 45.0307 27.9731 44.9909 27.8001 44.9068C27.1838 44.6102 26.9222 43.8775 27.2148 43.2599C27.2747 43.1337 28.7202 40.1675 32.2055 39.5654C35.9014 38.9279 38.3735 41.1857 38.4755 41.2831C38.9765 41.7524 39.0053 42.5382 38.5353 43.0385C38.0675 43.5388 37.2849 43.5653 36.7838 43.1027C36.7018 43.0297 35.0678 41.593 32.629 42.0136C30.4407 42.3899 29.5007 44.2516 29.4607 44.3312C29.2435 44.7717 28.8 45.0285 28.3389 45.0285L28.3367 45.0307Z" fill="black"/>
<path d="M47.7761 69.1209C46.3217 69.1209 45.14 68.4037 44.5414 67.0911C44.2909 66.5399 44.5347 65.8913 45.0846 65.6412C45.6366 65.391 46.2862 65.6345 46.5368 66.1835C46.7585 66.6705 47.295 67.1752 48.5854 66.8077C49.827 66.4514 50.195 65.0723 50.0088 63.9434L49.7228 62.1946C49.6252 61.597 50.0309 61.0347 50.6273 60.9373C51.2259 60.8399 51.7891 61.245 51.8866 61.8404L52.1726 63.5892C52.5806 66.0618 51.3257 68.3019 49.1884 68.9129C48.6985 69.0523 48.224 69.1209 47.7761 69.1209V69.1209Z" fill="black"/>
<path d="M54.1747 68.0695C52.0817 68.0695 50.4189 66.4359 50.0087 63.9434L49.7227 62.1946C49.6252 61.597 50.0309 61.0347 50.6273 60.9373C51.2259 60.8399 51.7891 61.245 51.8866 61.8404L52.1726 63.5892C52.3611 64.7336 53.0085 65.94 54.2633 65.8802C54.6646 65.8625 55.9794 65.7164 56.0924 64.6207C56.1545 64.0186 56.6911 63.5803 57.2963 63.6445C57.8994 63.7065 58.3361 64.2444 58.2741 64.8465C58.0834 66.7037 56.547 67.9699 54.3631 68.0695C54.2988 68.0717 54.2367 68.0739 54.1747 68.0739V68.0695Z" fill="black"/>
<path d="M49.9001 57.5948C48.0399 57.898 46.2086 58.6019 46.4791 60.24C46.7451 61.878 49.0864 63.3811 50.8024 63.0977C52.5185 62.8166 54.23 60.4768 53.9906 59.0137C53.7489 57.5505 51.7624 57.2915 49.9001 57.5948Z" fill="black"/>
<path d="M92.6348 84.8557C92.7501 90.4848 87.6087 94.0044 82.5603 93.2297C77.3812 92.435 73.0712 88.6653 73.0712 83.0339C73.0712 77.4025 76.3081 72.3135 81.5471 72.3135C86.7861 72.3135 92.4796 77.3826 92.6326 84.8579L92.6348 84.8557Z" fill="white"/>
<path d="M83.9393 94.6086C83.4139 94.6086 82.8884 94.5688 82.3652 94.4891C79.4785 94.0464 76.8513 92.7492 74.9645 90.8389C72.8915 88.7404 71.7941 86.0398 71.7941 83.0316C71.7941 76.1938 75.9866 71.0361 81.5471 71.0361C87.3803 71.0361 93.7389 76.579 93.9096 84.8268C93.9672 87.6757 92.841 90.2612 90.7325 92.1051C88.8879 93.7188 86.4313 94.6064 83.9393 94.6064V94.6086ZM81.5471 73.5862C76.869 73.5862 74.3459 78.4539 74.3459 83.0338C74.3459 88.3154 78.5673 91.3281 82.7532 91.97C85.0235 92.3176 87.3758 91.6535 89.0497 90.1903C90.5795 88.8511 91.3998 86.9673 91.3555 84.8821C91.2158 78.1263 86.1719 73.5862 81.5471 73.5862V73.5862Z" fill="black"/>
<path d="M93.1181 58.7378C93.1181 55.2603 90.2957 52.4424 86.8127 52.4424C84.9858 52.4424 83.3407 53.2194 82.19 54.459C81.0371 53.2194 79.3943 52.4424 77.5674 52.4424C74.0843 52.4424 71.262 55.2603 71.262 58.7378C71.262 59.4152 71.3706 60.066 71.5679 60.6747C73.417 66.6027 82.19 70.855 82.19 70.855C82.19 70.855 90.9631 66.6027 92.8121 60.6747C93.0095 60.0638 93.1181 59.413 93.1181 58.7378V58.7378Z" fill="#FF0000"/>
<path d="M82.19 72.1277C81.9993 72.1277 81.8086 72.0857 81.6335 71.9993C81.2544 71.8156 72.3416 67.4327 70.3485 61.0531C70.109 60.3116 69.9849 59.528 69.9849 58.7355C69.9849 54.5607 73.3859 51.165 77.5673 51.165C79.2435 51.165 80.873 51.7273 82.19 52.7367C83.5069 51.7273 85.1365 51.165 86.8126 51.165C90.9941 51.165 94.3951 54.5607 94.3951 58.7355C94.3951 59.528 94.2709 60.3116 94.0271 61.0642C92.0405 67.4327 83.1256 71.8156 82.7465 71.9993C82.5713 72.0857 82.3806 72.1277 82.19 72.1277V72.1277ZM77.5673 53.7151C74.7937 53.7151 72.5367 55.9685 72.5367 58.7355C72.5367 59.2601 72.6188 59.7803 72.7806 60.2828C74.1907 64.803 80.301 68.3978 82.19 69.4161C84.0789 68.3978 90.187 64.803 91.5949 60.2939C91.7612 59.7803 91.8432 59.2601 91.8432 58.7355C91.8432 55.9663 89.5862 53.7151 86.8126 53.7151C85.3981 53.7151 84.09 54.2862 83.1256 55.3222C82.8839 55.5811 82.5447 55.7295 82.19 55.7295C81.8352 55.7295 81.496 55.5811 81.2544 55.3222C80.2899 54.284 78.9818 53.7129 77.5673 53.7129V53.7151Z" fill="black"/>
<path d="M82.6733 69.8409C82.6733 69.8409 85.3538 66.401 88.0343 67.0363C90.6748 67.6627 90.5174 70.3877 89.5242 71.7092C88.5309 73.0285 85.8438 76.143 85.1432 77.9493" fill="white"/>
<path d="M85.141 79.2245C84.988 79.2245 84.8306 79.1958 84.6799 79.1382C84.0236 78.8837 83.6977 78.1443 83.9527 77.4891C84.5712 75.8975 86.3604 73.6529 87.6663 72.0105C88.0033 71.5855 88.2959 71.2202 88.5021 70.9435C88.8258 70.5141 89.0475 69.7238 88.8214 69.104C88.6684 68.6834 88.3137 68.4134 87.7372 68.2761C86.2008 67.9109 84.2453 69.8987 83.68 70.6225C83.2476 71.1782 82.445 71.2778 81.8885 70.8461C81.3321 70.4145 81.2323 69.6131 81.6646 69.0575C81.9905 68.6392 84.9459 64.9934 88.327 65.7969C89.7459 66.1334 90.7747 67.0011 91.2225 68.2407C91.7834 69.7947 91.2846 71.4881 90.5419 72.4753C90.3135 72.7786 90.012 73.1571 89.6617 73.5976C88.5953 74.9368 86.8083 77.1814 86.3294 78.4099C86.1343 78.9146 85.651 79.2245 85.1388 79.2245H85.141Z" fill="black"/>
<path d="M86.5887 84.7367C88.1872 80.9515 86.9723 77.361 86.3869 75.3378C85.387 71.8758 82.6312 64.0662 78.0374 65.432C74.9933 66.3374 75.5653 69.3722 76.0375 71.7673C71.5213 70.9859 70.8761 75.7318 70.8761 75.7318C70.8761 75.7318 68.3464 76.4291 67.7389 79.0345C66.8344 82.9304 69.7986 89.8346 75.8114 89.6066" fill="white"/>
<path d="M75.5321 90.886C72.9758 90.886 70.6345 89.7482 68.9074 87.6608C66.8477 85.1683 65.8545 81.5026 66.4952 78.7467C67.0384 76.4136 68.7589 75.278 69.7743 74.7999C70.027 73.8856 70.6301 72.3738 72.0091 71.3666C72.743 70.8309 73.5788 70.5188 74.5078 70.4302C74.1952 68.1259 74.3304 65.204 77.6716 64.2101C78.973 63.8227 80.2456 63.9621 81.4539 64.6218C84.5579 66.3152 86.5156 71.1917 87.6108 74.9836L87.7128 75.3333C88.3624 77.5425 89.4488 81.2414 87.7616 85.2303C87.4867 85.8789 86.7395 86.1821 86.0899 85.9099C85.4403 85.6354 85.1365 84.8894 85.4092 84.2408C86.7417 81.0865 85.8527 78.056 85.2629 76.0505L85.1565 75.6897C83.8174 71.0545 82.0215 67.8359 80.2279 66.8575C79.6204 66.5277 79.0395 66.4613 78.3966 66.6516C76.7094 67.1541 76.6872 68.4978 77.2836 71.5193C77.3656 71.931 77.237 72.3561 76.9444 72.6571C76.6517 72.9582 76.2283 73.0932 75.8137 73.0223C74.8647 72.8585 74.1154 72.9869 73.5212 73.4142C72.3927 74.2288 72.1355 75.8934 72.1333 75.9089C72.0601 76.4091 71.6965 76.8253 71.2087 76.9581C71.1444 76.9758 69.3974 77.5115 68.9761 79.32C68.577 81.0377 69.1003 83.8955 70.8695 86.036C71.7763 87.134 73.3638 88.4201 75.756 88.3315C76.4633 88.3094 77.053 88.8539 77.0796 89.5579C77.1062 90.2618 76.5564 90.8528 75.8513 90.8794C75.7427 90.8838 75.6318 90.886 75.5254 90.886H75.5321Z" fill="black"/>
<path d="M76.9488 75.1695C76.9488 75.1695 75.9179 71.8248 75.6962 69.7285Z" fill="white"/>
<path d="M76.9489 76.4423C76.4035 76.4423 75.898 76.0904 75.7295 75.5436C75.6851 75.4019 74.6586 72.0572 74.428 69.8613C74.3549 69.1618 74.8626 68.5354 75.5632 68.4601C76.2638 68.3871 76.8912 68.894 76.9666 69.5935C77.1728 71.5392 78.1594 74.76 78.1705 74.791C78.3789 75.4639 77.9998 76.1767 77.3258 76.3848C77.2016 76.4224 77.073 76.4423 76.9489 76.4423Z" fill="black"/>
<path d="M71.6544 73.6221C71.6544 73.6221 70.6611 74.9569 71.3817 78.3879Z" fill="white"/>
<path d="M71.3817 79.6634C70.7897 79.6634 70.2599 79.2517 70.1335 78.6496C69.3353 74.8511 70.4062 73.1621 70.6301 72.8633L72.6787 74.3818C72.6787 74.3818 72.692 74.3685 72.7098 74.3375C72.7031 74.3486 72.0646 75.431 72.6299 78.1272C72.774 78.8156 72.3329 79.4908 71.6433 79.6346C71.5547 79.6524 71.466 79.6612 71.3795 79.6612L71.3817 79.6634Z" fill="black"/>
</g>
<path d="M138.788 76.216V78.104H152.356V76.216H138.788ZM138.26 85.896V87.816H152.836V85.896H138.26ZM144.5 73.416V77.272H146.516V73.416H144.5ZM148.116 78.664C147.748 81.032 146.964 84.136 146.212 86.088L148.084 86.504C148.836 84.616 149.7 81.688 150.324 79.048L148.116 78.664ZM140.852 79.192C141.54 81.144 142.116 83.736 142.228 85.4L144.196 84.872C144.036 83.176 143.444 80.696 142.676 78.712L140.852 79.192Z" fill="black"/>
<path d="M156.612 77.304V79H160.836V77.304H156.612ZM155.748 74.2V86.408L157.572 86.088V74.2H155.748ZM154.644 85.704L155.204 87.688C156.852 87.24 159.012 86.648 160.996 86.072L160.772 84.264C158.548 84.824 156.18 85.4 154.644 85.704ZM158.596 83.144C159.556 84.552 160.564 86.44 160.916 87.672L162.596 86.808C162.212 85.576 161.14 83.768 160.148 82.392L158.596 83.144ZM156.596 74.2V75.976H160.212V80.296H156.596V82.072H161.988V74.2H156.596ZM167.108 74.168V83.832C167.108 84.04 167.044 84.104 166.836 84.104C166.612 84.104 165.94 84.12 165.316 84.072C165.62 84.632 165.924 85.592 165.972 86.184C167.028 86.184 167.78 86.136 168.356 85.768C168.948 85.416 169.092 84.808 169.092 83.88V74.168H167.108ZM162.868 74.168V88.424H164.836V76.104H168.132V74.168H162.868Z" fill="black"/>
<path d="M180.404 73.416V76.248H182.34V73.416H180.404ZM176.964 75.48V78.888H178.756V77.16H184.308V78.888H186.18V75.48H176.964ZM179.956 77.496C179.3 79.8 178.26 82.808 177.476 84.648L179.204 85.208C180.004 83.24 181.092 80.232 181.86 77.784L179.956 77.496ZM176.852 79.768V81.496H186.356V79.768H176.852ZM182.996 80.872C182.58 84.696 180.516 86.2 176.244 86.808C176.564 87.208 177.028 88.008 177.156 88.456C181.924 87.528 184.244 85.656 185.044 80.936L182.996 80.872ZM178.484 84.456C180.884 85.4 183.796 87.064 185.156 88.392L186.372 86.792C184.916 85.464 181.924 83.912 179.588 83.064L178.484 84.456ZM171.14 81.608L171.62 83.448C173.14 83.048 175.076 82.52 176.9 82.008L176.676 80.28C174.676 80.776 172.564 81.304 171.14 81.608ZM171.38 76.44V78.216H176.708V76.44H171.38ZM173.316 73.416V86.424C173.316 86.648 173.236 86.728 173.012 86.728C172.804 86.728 172.148 86.728 171.524 86.712C171.764 87.192 172.004 87.96 172.052 88.44C173.172 88.44 173.94 88.392 174.468 88.104C174.996 87.816 175.172 87.336 175.172 86.44V73.416H173.316Z" fill="black"/>
<path d="M192.948 78.168V80.008H196.036V78.168H192.948ZM192.212 73.416V86.392L194.196 86.168V73.416H192.212ZM189.172 76.744V86.84L191.044 86.584V76.744H189.172ZM187.988 86.328L188.308 88.36C190.42 87.944 193.364 87.432 196.084 86.904L195.94 85.016C193.124 85.512 190.036 86.04 187.988 86.328ZM201.22 76.872C200.228 77.768 198.676 78.856 197.22 79.592C197.476 79.992 197.812 80.664 197.94 81.096C199.524 80.376 201.332 79.448 202.756 78.456L201.22 76.872ZM196.612 73.416V85.192C196.612 87.448 197.108 88.104 198.868 88.104C199.22 88.104 200.468 88.104 200.836 88.104C202.452 88.104 202.948 87.08 203.14 84.424C202.596 84.296 201.812 83.944 201.332 83.592C201.252 85.688 201.172 86.232 200.644 86.232C200.404 86.232 199.428 86.232 199.188 86.232C198.676 86.232 198.612 86.104 198.612 85.224V73.416H196.612Z" fill="black"/>
<path d="M101.98 101.36V103.7H112.8V101.36H101.98ZM112.02 101.36V101.8C111.84 107.36 111.62 109.6 111.14 110.12C110.92 110.34 110.7 110.4 110.34 110.4C109.84 110.4 108.8 110.38 107.68 110.28C108.12 110.96 108.44 112 108.48 112.7C109.66 112.74 110.82 112.76 111.52 112.66C112.28 112.54 112.84 112.36 113.34 111.68C114.04 110.86 114.28 108.48 114.5 102.4C114.52 102.1 114.54 101.36 114.54 101.36H112.02ZM104.24 94.28C103.04 97.32 100.82 100.12 98.3 101.78C98.88 102.24 99.92 103.2 100.38 103.72C102.9 101.74 105.34 98.52 106.84 95.04L104.24 94.28ZM111.86 94.24L109.5 95.18C111.08 98.24 113.54 101.48 115.8 103.56C116.26 102.88 117.18 101.9 117.84 101.38C115.64 99.7 113.12 96.78 111.86 94.24ZM105.56 102.04C105.24 105.6 104.76 108.98 99.4 110.74C99.96 111.26 100.66 112.28 100.96 112.94C106.92 110.72 107.78 106.54 108.16 102.04H105.56Z" fill="black"/>
<path d="M119.86 107.14V109.18H137.94V107.14H119.86ZM127.54 94.02V96.72H130.08V94.02H127.54ZM121.82 103.66V105.52H133.8V103.66H121.82ZM127.58 106.3V110.52C127.58 110.82 127.44 110.9 127.06 110.92C126.72 110.92 125.14 110.92 123.98 110.88C124.3 111.42 124.66 112.24 124.8 112.84C126.56 112.84 127.88 112.84 128.82 112.58C129.78 112.3 130.12 111.8 130.12 110.62V106.3H127.58ZM133.28 103.66V104.1C132.22 104.88 130 105.94 128.06 106.5C128.36 106.8 128.92 107.4 129.18 107.78C131.66 107.1 134.08 106 135.96 104.86L134.46 103.56L133.92 103.66H133.28ZM124.86 100.08H132.92V101.2H124.86V100.08ZM122.46 98.44V102.84H135.46V98.44H122.46ZM120.14 95.5V97.52H137.6V95.5H120.14Z" fill="black"/>
<path d="M150.26 94.08C150.32 102.88 151.94 112.84 156.06 112.84C157.92 112.84 158.74 111.94 159.12 108.16C158.44 107.9 157.58 107.32 157.04 106.74C156.94 109.26 156.72 110.32 156.28 110.32C154.58 110.32 152.7 101.98 152.82 94.08H150.26ZM153.7 95.44C154.76 96 156.08 96.86 156.7 97.48L158.2 95.86C157.54 95.24 156.18 94.44 155.12 93.98L153.7 95.44ZM155.66 100.3C154.26 105.08 151.62 108.92 147.86 111.12C148.4 111.54 149.36 112.48 149.74 112.96C153.56 110.38 156.42 106.16 158.08 100.86L155.66 100.3ZM140.76 96.96V99.32H158.66V96.96H140.76ZM140.68 109.24L141.12 111.72C143.56 111.2 146.84 110.5 149.84 109.82L149.64 107.52C146.42 108.2 142.94 108.86 140.68 109.24ZM143.9 102.6H146.88V104.92H143.9V102.6ZM141.72 100.58V106.92H149.22V100.58H141.72Z" fill="black"/>
<path d="M166.62 94.74V96.54H171.14V94.74H166.62ZM172.08 96.24V98.14H176.82V96.24H172.08ZM171.72 99.9V101.82H179.92V99.9H171.72ZM165.88 97.44V99.24H171.76V97.44H165.88ZM166.5 100.12V101.92H171.26V100.12H166.5ZM166.5 102.86V104.68H171.26V102.86H166.5ZM166.32 105.66V112.58H168.18V105.66H166.32ZM167.44 105.66V107.48H169.72V109.7H167.44V111.52H171.62V105.66H167.44ZM173.38 94.04V101.34H175.44V94.04H173.38ZM177.86 94.4C176.62 98.88 174.22 102.52 170.8 104.64C171.24 105.02 172 105.8 172.28 106.2C175.8 103.74 178.36 99.78 179.84 94.84L177.86 94.4ZM173.1 103.8V112.76H175.14V105.76H177.04V112.68H179.16V103.8H173.1ZM174.04 107.1V108.84H178.12V107.1H174.04ZM174.04 110.2V112.14H178.12V110.2H174.04ZM176.34 102.52C176.92 102.96 177.58 103.64 177.86 104.08L179.24 103.08C178.92 102.62 178.24 102 177.66 101.6L176.34 102.52ZM164.3 94.08C163.52 96.84 162.2 99.56 160.72 101.36C161.06 101.98 161.62 103.38 161.78 103.94C163.68 101.64 165.4 98.04 166.44 94.72L164.3 94.08ZM162.94 99.8V112.78H165.04V97.76L165 97.74L162.94 99.8Z" fill="black"/>
<path d="M188.26 105.52V107.74H200.52V105.52H188.26ZM189.82 100.48V102.64H197.46V100.48H189.82ZM193.36 103.86V110.2C193.36 110.46 193.26 110.52 192.94 110.54C192.62 110.54 191.44 110.54 190.42 110.5C190.72 111.16 191 112.1 191.1 112.8C192.7 112.8 193.88 112.78 194.72 112.44C195.58 112.08 195.78 111.46 195.78 110.26V103.86H193.36ZM196.86 100.48V100.92C196.28 101.84 194.92 103.3 193.78 104.12C194.14 104.44 194.76 105.1 195.06 105.52C196.58 104.5 198.24 102.92 199.46 101.54L197.96 100.34L197.46 100.48H196.86ZM182.4 96.62V98.92H200.24V96.62H182.4ZM188.66 94C187.62 98.06 185.34 102.56 181.7 104.94C182.08 105.54 182.64 106.64 182.9 107.3C187.2 104.36 189.72 99.48 191.2 94.62L188.66 94ZM184.66 102.36V112.78H187.1V102.36H184.66Z" fill="black"/>
<path d="M209.94 98.5H214.06V99.3H209.94V98.5ZM208.04 97.3V100.5H216.08V97.3H208.04ZM209.18 104.3H214.84V108.14H209.18V104.3ZM207.36 103V109.46H216.78V103H207.36ZM211.28 105.88H212.7V106.56H211.28V105.88ZM210 104.88V107.56H214.08V104.88H210ZM206.42 101.1V102.4H217.8V101.1H206.42ZM210.98 99.72V101.68H213V99.72H210.98ZM203.52 94.7V112.8H205.76V96.66H218.4V112.8H220.74V94.7H203.52ZM204.94 110.12V112.1H219.58V110.12H204.94Z" fill="black"/>
<path d="M232.1 94.02C231.34 95.52 229.98 97.28 228.08 98.62C228.64 98.9 229.42 99.5 229.82 99.98C231.82 98.34 233.26 96.4 234.34 94.44L232.1 94.02ZM232.72 95.24L231.34 96.98H237.18V95.24H232.72ZM231.7 99.68H239.28V101.2H231.7V99.68ZM229.54 98.04V102.8H241.58V98.04H229.54ZM234.3 98.76V101.94H236.44V98.76H234.3ZM234.66 101.36C233.28 102.68 230.76 103.82 228.48 104.48C228.88 104.84 229.5 105.64 229.78 106.04C232.1 105.18 234.82 103.72 236.46 102.08L234.66 101.36ZM232.22 104.06C235.38 106.26 235.44 109.68 234.58 110.46C234.32 110.78 234 110.84 233.58 110.84C233.18 110.84 232.66 110.82 232.08 110.74C232.44 111.34 232.6 112.22 232.62 112.78C233.12 112.82 233.64 112.82 234.04 112.82C234.92 112.78 235.54 112.62 236.16 112C237.8 110.6 237.76 105.78 233.8 103.1L232.22 104.06ZM234.28 104.4C233.04 105.5 230.52 106.76 228.6 107.3C229 107.7 229.44 108.36 229.68 108.82C231.66 108.02 234.2 106.56 235.6 105.3L234.28 104.4ZM235.26 106.44C233.78 107.98 230.72 109.66 228.28 110.42C228.74 110.84 229.24 111.58 229.52 112.1C232 111.1 235.08 109.2 236.76 107.5L235.26 106.44ZM240.68 103.2C239.96 104 238.72 105.08 237.84 105.68L239.2 106.98C240.1 106.42 241.32 105.5 242.28 104.64L240.68 103.2ZM237.86 101.76L235.92 102.1C236.74 106.48 238.2 110.1 241 112.02C241.34 111.42 242.04 110.56 242.54 110.14C239.98 108.62 238.54 105.38 237.86 101.76ZM236.46 95.24V95.62C236.14 96.38 235.44 97.52 234.82 98.2C235.2 98.52 235.82 99.2 236.12 99.62C237.02 98.74 238.08 97.34 238.8 96.12L237.4 95.1L236.96 95.24H236.46ZM227.08 94.06C226.22 96.98 224.74 99.92 223.12 101.8C223.5 102.44 224.08 103.8 224.28 104.4C226.32 102 228.16 98.2 229.3 94.7L227.08 94.06ZM225.5 99.54V112.78H227.78V97.38L227.72 97.34L225.5 99.54Z" fill="black"/>
<defs>
<clipPath id="clip0_1204_40454">
<rect width="99" height="147" fill="white"/>
</clipPath>
</defs>
</svg>
