<svg width="76" height="76" viewBox="0 0 76 76" fill="none" xmlns="http://www.w3.org/2000/svg">
<path opacity="0.5" fill-rule="evenodd" clip-rule="evenodd" d="M38 68C54.5685 68 68 54.5685 68 38C68 21.4315 54.5685 8 38 8C21.4315 8 8 21.4315 8 38C8 54.5685 21.4315 68 38 68ZM38 76C58.9868 76 76 58.9868 76 38C76 17.0132 58.9868 0 38 0C17.0132 0 0 17.0132 0 38C0 58.9868 17.0132 76 38 76Z" fill="white"/>
<path d="M72 38C74.2091 38 76.0221 36.2035 75.7927 34.0063C73.9339 16.2088 59.7909 2.06612 41.9937 0.207352C39.7965 -0.0221255 38 1.79086 38 4V4C38 6.20914 39.8006 7.97202 41.9905 8.26307C55.3671 10.041 65.959 20.6331 67.7369 34.0095C68.028 36.1994 69.7909 38 72 38V38Z" fill="white"/>
</svg>
