<svg width="460" height="347" viewBox="0 0 460 347" fill="none" xmlns="http://www.w3.org/2000/svg">
<g clip-path="url(#clip0_1144_27463)">
<path fill-rule="evenodd" clip-rule="evenodd" d="M49.1577 92H0V146H98V145.99C70.8473 145.458 49 123.28 49 96C49 94.6536 49.0532 93.3196 49.1577 92Z" fill="#A5E4D0"/>
<rect x="-21" y="146" width="587" height="209" fill="#A5E4D0"/>
<path d="M650 165H102C63.3401 165 32 133.66 32 95V95" stroke="#42BAA7" stroke-width="5" stroke-miterlimit="1.10814" stroke-linecap="round" stroke-dasharray="2 4 6 8"/>
<path opacity="0.45" d="M466 165H102C63.3401 165 32 133.66 32 95V95" stroke="#42BAA7" stroke-width="5" stroke-miterlimit="1.10814" stroke-linecap="round"/>
<g clip-path="url(#clip1_1144_27463)">
<path d="M193.58 351.741H63.5366C60.9304 351.741 66.4095 351.851 66.4095 349.252L60.9971 349.312C60.9971 299.171 79.8685 241.048 137.694 258.693H144.646C152.37 258.693 158.633 264.94 158.633 272.646L193.586 351.741H193.58Z" fill="white"/>
<path d="M77.1348 275.429C77.1348 275.429 96.6675 263.898 115.383 263.56C162.134 262.712 179.983 339.872 193.581 351.746" fill="white"/>
<path d="M193.581 354.995C192.82 354.995 192.053 354.729 191.436 354.191C186.985 350.305 182.634 341.263 177.127 329.816C170.82 316.717 162.973 300.413 152.798 287.757C141.262 273.416 129.026 266.554 115.45 266.809C97.8457 267.13 78.9909 278.117 78.802 278.228C77.2516 279.143 75.2511 278.627 74.3342 277.081C73.4173 275.534 73.9285 273.538 75.4789 272.624C76.3069 272.136 95.9785 260.65 115.328 260.3C150.603 259.641 170.103 300.18 183.006 326.994C187.985 337.344 192.286 346.28 195.731 349.29C197.087 350.471 197.226 352.528 196.037 353.88C195.392 354.618 194.487 354.989 193.581 354.989V354.995Z" fill="black"/>
<path d="M77.1353 275.428C77.1353 275.428 53.3348 311.04 63.5374 351.74Z" fill="white"/>
<path d="M63.5318 355C62.0703 355 60.7422 354.013 60.3699 352.533C57.358 340.509 55.4409 321.168 63.4151 297.297C68.1719 283.056 74.1678 274.004 74.4179 273.627C75.4181 272.13 77.4409 271.725 78.9412 272.723C80.4416 273.721 80.8473 275.739 79.847 277.236C79.6192 277.579 56.9802 312.193 66.6937 350.959C67.1327 352.705 66.0658 354.468 64.3209 354.906C64.0542 354.972 63.7874 355.005 63.5263 355.005L63.5318 355Z" fill="black"/>
<path d="M176.149 191.145C184.345 184.476 195.526 181.222 208.485 181.771C220.293 182.237 232.396 188.767 241.26 201.173C254.068 219.079 250.595 255.128 233.647 268.56C225.094 275.323 211.641 279.681 201.461 279.254C199.338 279.159 197.293 279.171 195.32 279.015C183.762 278.073 174.837 274.386 168.764 268.017C161.128 260.045 157.916 247.827 159.228 231.729C159.272 231.236 159.383 229.733 159.411 229.251C160.634 212.016 166.263 199.2 176.154 191.145H176.149Z" fill="black"/>
<path d="M147.447 90.0868C179.25 93.8897 209.746 111.54 224.111 145.932C230.496 161.216 235.597 187.248 233.364 206.046C233.225 207.26 156.083 182.519 156.083 182.519C153.966 182.148 152.471 180.435 151.015 180.696L139.195 106.346C140.701 102.798 133.305 88.3684 147.447 90.0868V90.0868Z" fill="black"/>
<path d="M156.66 289.681C175.354 292.647 201.521 288.284 213.641 268.676C228.867 244.052 227.133 187.386 216.064 152.312C206.584 122.272 176.821 102.404 142.734 97.0547C101.53 90.5799 73.2781 102.437 53.0286 132.849C33.5626 162.08 28.2057 200.264 28.7891 216.224C29.9061 246.935 57.2185 269.685 83.175 278.688C87.3705 280.14 92.055 281.51 97.0674 282.751" fill="white"/>
<path d="M167.652 293.733C163.712 293.733 159.85 293.428 156.154 292.841C154.404 292.563 153.215 290.923 153.493 289.176C153.77 287.43 155.415 286.244 157.166 286.521C183.383 290.679 203.055 279.714 210.918 266.997C217.659 256.093 221.421 237.417 221.51 214.4C221.593 193.257 218.414 170.407 213.008 153.277C204.416 126.053 177.299 105.725 142.24 100.215C122.168 97.0603 105.486 98.3242 91.2325 104.084C77.2456 109.733 65.626 119.722 55.7069 134.618C37.2745 162.296 31.3841 199.288 32.0009 216.102C32.7622 236.995 49.2053 263.51 84.2307 275.661C88.2873 277.069 92.8662 278.411 97.8453 279.647C99.5624 280.074 100.613 281.809 100.185 283.522C99.7569 285.235 98.012 286.277 96.3004 285.856C91.138 284.575 86.3702 283.178 82.1302 281.709C54.8289 272.241 26.7607 248.354 25.5938 216.34C24.9436 198.728 31.1007 160.012 50.3667 131.081C61.0193 115.077 73.6003 104.306 88.8263 98.1579C104.186 91.9547 121.985 90.5577 143.24 93.9005C180.722 99.7877 209.801 121.801 219.126 151.359C230.445 187.231 232.101 244.922 216.375 270.362C206.106 286.97 186.117 293.739 167.652 293.739V293.733Z" fill="black"/>
<path d="M6.48373 201.567C8.8121 183.584 17.1197 171.277 23.5825 166.205C31.2844 160.146 39.8088 157.69 48.661 159.12C59.3915 160.839 67.9325 166.072 73.3728 174.226C79.8355 183.911 83.5031 201.19 79.641 220.515C76.4736 236.336 67.7325 248.493 55.3682 252.861C39.9588 258.31 26.1053 249.701 18.2589 241.879C9.57895 233.22 4.32763 218.297 6.48373 201.567Z" fill="black"/>
<path d="M50.3284 129.729C60.8922 113.597 84.7982 88.0634 134.761 89.028C158 89.4881 182.906 99.8434 193.131 107.87C220.605 129.451 228.262 160.162 228.495 161.243C228.912 163.051 222.116 194.954 222.116 194.954C222.116 194.954 219.026 165.933 208.429 148.521C193.337 123.719 168.052 118.076 154.393 116.485C128.47 113.469 101.247 120.038 84.6426 143.914C71.4226 162.918 66.2157 187.021 66.2157 187.021L29.3564 177.83C29.3564 177.83 34.8523 153.377 50.3284 129.729V129.729Z" fill="black"/>
<path d="M12.1467 221.551C12.4134 219.899 12.7024 218.23 12.9747 216.64C14.2528 209.555 15.9032 202.437 17.8759 195.458L18.3093 193.906C19.493 189.698 20.7155 185.357 22.377 181.255C23.1661 179.348 24.8054 177.369 27.1004 177.458C28.6008 177.53 29.9234 177.835 31.0737 178.367C32.2128 178.894 33.6021 180.18 33.7966 183.262C33.9188 185.357 33.891 187.558 33.8688 189.659C33.8466 191.5 33.8355 193.379 33.9188 195.197C34.0689 199.017 34.3078 202.542 34.6246 205.857C35.6526 202.631 36.8029 199.288 38.0587 195.901C38.2366 195.447 38.4033 194.975 38.57 194.515C39.7592 191.289 40.9873 187.991 42.6321 184.886C43.4157 183.395 45.1605 181.688 47.4667 181.793C48.8893 181.848 50.3674 182.187 52.0178 182.796C54.0461 183.567 55.3742 185.779 55.4076 188.406C55.4187 189.659 55.3575 190.94 55.302 192.159C55.2686 192.847 55.2408 193.523 55.2186 194.21C54.8407 207.537 55.9966 220.453 57.0746 230.216C57.3469 232.666 56.5412 236.629 53.207 236.862C52.868 236.873 52.5346 236.862 52.2123 236.796C51.5233 236.668 50.862 236.352 50.2785 235.859C48.7614 234.584 48.0224 232.322 47.8445 230.775C46.8888 221.917 45.9441 212.51 45.7662 203.108C43.8102 208.862 42.082 214.744 40.6094 220.67C40.326 221.778 40.0704 222.898 39.8092 224.001C39.4702 225.398 39.1424 226.817 38.7756 228.225C38.6811 228.636 38.5755 228.985 38.4811 229.312C37.8976 231.202 36.2472 233.17 33.9744 233.015C33.8021 233.015 33.6132 232.982 33.4131 232.949C33.3631 232.949 33.3187 232.932 33.2687 232.926C33.0797 232.876 32.8741 232.832 32.6685 232.755C30.4346 231.94 29.1954 229.622 28.7564 227.704C27.6228 222.599 26.7559 216.728 26.078 209.827C25.8057 206.85 25.5889 203.889 25.4389 200.979C23.7552 207.836 22.3881 214.511 21.399 220.936C21.2156 222.189 21.0211 223.486 20.8266 224.838C20.6488 226.33 19.7875 228.148 18.3149 228.874C17.3869 229.345 16.3088 229.29 15.2919 228.796C12.669 227.488 11.7299 224.151 12.1467 221.546V221.551Z" fill="#59595C"/>
<path d="M160.372 217.183C159.644 220.614 163.412 226.335 167.446 227.178C171.475 228.043 177.171 224.761 177.988 220.919C178.804 217.089 174.553 215.215 170.202 214.289C165.835 213.375 161.106 213.752 160.378 217.183H160.372Z" fill="black"/>
<path d="M119.435 177.114C118.829 177.114 118.218 176.92 117.701 176.521C116.462 175.562 116.24 173.788 117.195 172.558C117.407 172.286 122.513 165.867 130.999 166.482C132.56 166.598 133.733 167.951 133.616 169.509C133.499 171.066 132.149 172.236 130.582 172.12C125.17 171.726 121.708 175.978 121.669 176.017C121.113 176.737 120.274 177.114 119.429 177.114H119.435Z" fill="black"/>
<path d="M210.585 193.374C209.535 193.374 208.523 192.786 208.034 191.783C207.984 191.677 205.684 187.204 201.316 186.888C199.754 186.771 198.582 185.419 198.698 183.861C198.815 182.303 200.177 181.139 201.733 181.25C209.434 181.815 212.991 189.016 213.141 189.321C213.819 190.729 213.224 192.415 211.813 193.091C211.418 193.279 211.002 193.368 210.585 193.368V193.374Z" fill="black"/>
<path d="M143.163 207.626C142.963 207.626 142.763 207.604 142.563 207.559C141.14 207.232 140.257 205.813 140.584 204.394C141.057 202.371 140.707 200.281 139.601 198.518C138.495 196.755 136.767 195.519 134.727 195.048C130.882 194.161 126.97 196.273 125.625 199.97C125.13 201.34 123.613 202.049 122.241 201.55C120.868 201.051 120.157 199.544 120.657 198.174C122.908 191.977 129.476 188.423 135.922 189.914C139.334 190.702 142.235 192.769 144.085 195.73C145.936 198.69 146.519 202.193 145.73 205.592C145.447 206.811 144.358 207.632 143.157 207.632L143.163 207.626Z" fill="#231F20"/>
<path d="M205.084 218.458C205.034 218.458 204.989 218.458 204.939 218.458C203.483 218.38 202.366 217.139 202.444 215.681C202.65 211.85 200.549 208.502 197.554 207.892C195.943 207.565 194.275 207.914 192.864 208.873C191.297 209.938 190.236 211.639 189.88 213.668C189.624 215.104 188.252 216.063 186.818 215.808C185.379 215.553 184.417 214.189 184.673 212.754C185.279 209.317 187.129 206.39 189.885 204.516C192.486 202.748 195.581 202.11 198.604 202.72C204.239 203.862 208.073 209.433 207.718 215.963C207.64 217.371 206.473 218.458 205.078 218.458H205.084Z" fill="#231F20"/>
<path d="M158.9 241.79C158.783 241.79 158.667 241.79 158.55 241.785C154.638 241.657 151.204 239.612 149.136 236.169C148.414 234.966 148.803 233.403 150.009 232.677C151.215 231.956 152.782 232.344 153.51 233.547C154.193 234.684 155.777 236.602 158.717 236.696C162.462 236.801 163.812 233.281 164.224 231.751L165.707 225.914C166.052 224.55 167.441 223.73 168.808 224.073C170.175 224.417 170.997 225.803 170.653 227.167L169.158 233.037C167.697 238.475 163.785 241.785 158.906 241.785L158.9 241.79Z" fill="black"/>
<path d="M173.065 244.878C171.842 244.878 170.464 244.612 168.942 243.925C164.824 242.084 163.185 237.134 164.552 230.687L165.463 226.396C165.758 225.021 167.113 224.146 168.486 224.434C169.864 224.728 170.742 226.075 170.453 227.449L169.542 231.74C168.897 234.772 168.953 238.348 171.031 239.279C173.082 240.2 174.21 239.678 174.96 239.124C176.093 238.293 177.688 238.531 178.527 239.662C179.361 240.793 179.122 242.384 177.988 243.221C176.827 244.074 175.177 244.873 173.07 244.873L173.065 244.878Z" fill="black"/>
<path opacity="0.64" d="M125.297 222.56C124.408 231.452 115.5 237.844 105.392 236.84C95.2892 235.837 87.8096 227.815 88.6987 218.929C89.5822 210.037 98.4956 203.646 108.604 204.649C118.706 205.652 126.18 213.674 125.297 222.56Z" fill="url(#paint0_radial_1144_27463)"/>
<path opacity="0.64" d="M218.432 243.653C217.654 251.453 210.352 257.113 202.122 256.292C193.892 255.477 187.852 248.493 188.63 240.693C189.408 232.893 196.71 227.233 204.94 228.054C213.169 228.869 219.21 235.853 218.432 243.653Z" fill="url(#paint1_radial_1144_27463)"/>
<path d="M184.568 293.877C193.298 309.665 192.487 326.8 182.756 332.155C173.026 337.51 158.061 329.051 149.331 313.269C140.601 297.481 144.174 287.979 153.905 282.624C163.635 277.269 175.838 278.095 184.568 293.877V293.877Z" fill="white"/>
<path d="M176.204 336.989C165.941 336.989 154.132 328.58 146.519 314.815C135.383 294.67 143.541 284.664 152.354 279.819C158.394 276.493 164.663 275.601 170.486 277.241C177.21 279.137 182.895 284.215 187.385 292.331C191.892 300.48 194.17 309.266 193.798 317.083C193.403 325.464 190.03 331.817 184.312 334.966C181.811 336.341 179.072 336.995 176.21 336.995L176.204 336.989ZM164.696 282.846C161.04 282.846 157.783 284.138 155.455 285.424C143.185 292.176 147.692 303.662 152.143 311.717C158.433 323.092 168.425 330.559 176.249 330.559C178.038 330.559 179.711 330.171 181.206 329.35C184.896 327.316 187.091 322.853 187.379 316.778C187.696 310.131 185.696 302.548 181.756 295.424C178.127 288.861 173.743 284.814 168.736 283.406C167.352 283.018 165.996 282.851 164.696 282.851V282.846Z" fill="black"/>
<path d="M86.4877 298.323C86.4877 298.323 85.6375 326.307 116.24 328.003C137.728 329.195 162.49 315.758 174.888 298.323C181.15 289.515 185.552 274.713 178.289 266.947C170.803 258.948 161.684 262.107 149.22 270.206C138.873 276.931 126.364 289.426 112.839 295.773" fill="white"/>
<path d="M118.857 331.329C117.912 331.329 116.978 331.301 116.056 331.252C98.6848 330.287 90.6495 321.329 86.9708 313.983C83.0364 306.134 83.2198 298.545 83.2254 298.229C83.2809 296.433 84.7591 295.019 86.5818 295.075C88.3822 295.13 89.7937 296.627 89.7437 298.423C89.7159 299.509 89.4936 323.263 116.411 324.76C135.989 325.841 159.972 313.673 172.22 296.449C178.283 287.923 181.411 275.074 175.893 269.181C171.314 264.291 165.774 263.338 150.987 272.945C147.303 275.34 143.263 278.549 138.978 281.947C131.538 287.857 123.102 294.559 114.211 298.728C112.583 299.493 110.638 298.794 109.871 297.17C109.104 295.546 109.804 293.605 111.432 292.84C119.629 288.993 127.748 282.546 134.911 276.853C139.317 273.355 143.479 270.051 147.419 267.484C158.983 259.967 171.02 254.429 180.655 264.729C188.813 273.449 185.134 289.514 177.532 300.208C171.125 309.216 161.512 317.326 150.459 323.036C140.029 328.424 128.92 331.329 118.845 331.329H118.857Z" fill="black"/>
<path d="M161.223 265.522C165.702 272.668 160.028 279.786 151.442 285.141C142.857 290.496 134.61 292.065 130.131 284.919C125.653 277.773 130.143 269.192 138.728 263.837C147.314 258.482 156.738 258.377 161.217 265.528L161.223 265.522Z" fill="white"/>
<path d="M138.667 292.99C133.877 292.99 129.982 290.806 127.37 286.649C124.68 282.358 124.386 277.297 126.547 272.396C128.431 268.128 132.143 264.109 137 261.076C141.846 258.05 147.064 256.514 151.676 256.741C156.922 257.002 161.295 259.508 163.985 263.798C166.73 268.178 166.757 272.962 164.057 277.629C161.967 281.244 158.305 284.697 153.171 287.901C148.075 291.078 143.44 292.785 139.395 292.968C139.145 292.979 138.9 292.985 138.661 292.985L138.667 292.99ZM150.753 263.227C147.597 263.227 143.968 264.408 140.467 266.598C136.705 268.943 133.888 271.936 132.527 275.018C131.226 277.967 131.354 280.717 132.904 283.195C134.383 285.556 136.35 286.599 139.106 286.471C141.973 286.344 145.647 284.93 149.72 282.386C153.882 279.791 156.888 277.019 158.411 274.381C159.889 271.82 159.906 269.558 158.461 267.252C156.894 264.746 154.504 263.399 151.359 263.244C151.159 263.233 150.959 263.227 150.753 263.227V263.227Z" fill="black"/>
</g>
</g>
<defs>
<radialGradient id="paint0_radial_1144_27463" cx="0" cy="0" r="1" gradientUnits="userSpaceOnUse" gradientTransform="translate(106.748 219.408) rotate(5.66635) scale(18.4086 16.1254)">
<stop offset="0.28" stop-color="#F7A9BD"/>
<stop offset="0.42" stop-color="#F8B4C5"/>
<stop offset="0.69" stop-color="#FAD2DD"/>
<stop offset="1" stop-color="white"/>
</radialGradient>
<radialGradient id="paint1_radial_1144_27463" cx="0" cy="0" r="1" gradientUnits="userSpaceOnUse" gradientTransform="translate(200.514 239.196) rotate(5.66635) scale(15.0412 14.1097)">
<stop offset="0.28" stop-color="#F7A9BD"/>
<stop offset="0.42" stop-color="#F8B4C5"/>
<stop offset="0.69" stop-color="#FAD2DD"/>
<stop offset="1" stop-color="white"/>
</radialGradient>
<clipPath id="clip0_1144_27463">
<rect width="460" height="347" fill="white"/>
</clipPath>
<clipPath id="clip1_1144_27463">
<rect width="243" height="266" fill="white" transform="translate(6 89)"/>
</clipPath>
</defs>
</svg>
