<svg width="480" height="250" viewBox="0 0 480 250" fill="none" xmlns="http://www.w3.org/2000/svg">
<g clip-path="url(#clip0_1152_27534)">
<path d="M59.0872 120.511C59.0872 120.511 34.8463 159.087 36.1124 181.595C36.9528 196.694 45.1386 220.563 88.2723 219.703C125.152 218.973 136.132 189.112 127.389 167.508C121.998 154.185 107.034 138.824 107.034 122.09" fill="white"/>
<path d="M86.0235 221.925C42.7043 221.925 34.7586 196.846 33.9182 181.714C32.6412 158.782 56.2272 120.946 57.2313 119.345C57.8753 118.31 59.2396 118.005 60.2765 118.647C61.3133 119.29 61.6189 120.652 60.975 121.687C60.7349 122.068 37.127 159.937 38.3276 181.475C39.2663 198.35 48.7072 218.286 88.2391 217.513C107.896 217.12 117.686 208.481 122.434 201.291C128.655 191.889 129.779 179.263 125.359 168.347C123.569 163.935 120.644 159.207 117.555 154.217C111.596 144.598 104.84 133.703 104.84 122.112C104.84 120.892 105.822 119.911 107.045 119.911C108.267 119.911 109.249 120.892 109.249 122.112C109.249 132.45 115.372 142.342 121.299 151.908C124.497 157.071 127.52 161.941 129.441 166.702C134.396 178.947 133.119 193.131 126.112 203.721C118.57 215.116 105.156 221.576 88.3265 221.914C87.5516 221.925 86.7875 221.936 86.0345 221.936L86.0235 221.925Z" fill="#010101"/>
<path d="M48.9695 56.3866C43.6978 51.92 36.3633 49.5886 27.7955 49.6649C19.9808 49.7194 11.8496 53.674 5.72658 61.4851C-3.11408 72.7607 -1.57514 96.0743 9.35017 105.084C14.8619 109.627 23.659 112.71 30.4041 112.655C31.812 112.644 33.1654 112.688 34.4642 112.634C42.1261 112.274 48.0963 110.084 52.2438 106.108C57.4609 101.129 59.8293 93.3181 59.3054 82.9141C59.2836 82.5982 59.2508 81.6286 59.2399 81.3127C58.7924 70.1787 55.3435 61.7902 48.9695 56.3975V56.3866Z" fill="#010101"/>
<path d="M55.791 132.036C39.3539 128.932 21.6071 119.868 17.0012 103.297C14.2617 93.46 12.9738 68.218 21.1705 47.0614C29.6838 25.0442 48.4674 11.7423 75.939 9.47633C98.6627 7.60252 117.938 14.8363 128.044 32.376C141.229 55.2539 154.403 83.2848 147.123 104.376C142.56 117.602 128.284 124.628 112.819 128.812C107.787 130.174 102.166 131.219 96.4144 131.971" fill="white"/>
<path d="M55.8017 134.237C55.6708 134.237 55.5289 134.226 55.387 134.193C34.1912 130.195 19.053 118.865 14.8837 103.886C11.8276 92.9369 11.0636 67.0631 19.1184 46.266C28.0901 23.0722 47.6814 9.59603 75.7642 7.28645C100.616 5.23834 119.869 13.7576 129.965 31.2865C142.986 53.892 156.945 82.7181 149.218 105.095C145.081 117.089 133.359 125.543 113.408 130.936C108.475 132.265 102.865 133.355 96.7198 134.161C95.5083 134.313 94.4059 133.474 94.2422 132.265C94.0785 131.056 94.9299 129.956 96.1414 129.792C102.09 129.019 107.514 127.973 112.251 126.687C130.696 121.709 141.414 114.17 145.049 103.657C152.274 82.7181 137.714 53.5761 126.134 33.4762C116.933 17.5161 99.1755 9.77034 76.1243 11.6659C49.8425 13.8339 31.5499 26.3405 23.2332 47.8457C15.5385 67.7059 16.2371 92.3269 19.1294 102.698C20.5155 107.688 27.3042 124.399 56.2056 129.857C57.4061 130.086 58.192 131.23 57.9628 132.429C57.7663 133.485 56.8386 134.226 55.8017 134.226V134.237Z" fill="#010101"/>
<path d="M144.568 83.894C143.804 72.3243 139.275 64.0882 135.597 60.5476C131.22 56.3207 126.221 54.3488 120.906 54.839C114.456 55.4273 109.195 58.347 105.68 63.2821C101.5 69.1432 98.728 79.9829 100.376 92.4786C101.719 102.719 106.51 110.879 113.713 114.245C122.696 118.45 131.242 113.624 136.175 109.016C141.643 103.918 145.278 94.6575 144.558 83.894H144.568Z" fill="#010101"/>
<path d="M140.366 91.0514C140.181 90.1471 139.984 89.232 139.799 88.3605C138.936 84.4712 137.834 80.582 136.524 76.7799L136.23 75.9411C135.444 73.6424 134.636 71.2783 133.556 69.0559C133.043 68.021 131.984 66.9751 130.543 67.1058C129.594 67.193 128.764 67.4 128.044 67.7377C127.334 68.0645 126.461 68.8162 126.374 70.5375C126.319 71.7032 126.352 72.9234 126.374 74.089C126.407 75.1131 126.429 76.1481 126.396 77.1612C126.33 79.2856 126.21 81.2465 126.047 83.0877C125.37 81.3337 124.617 79.5144 123.787 77.6841C123.667 77.4336 123.569 77.183 123.449 76.9324C122.674 75.1894 121.866 73.3918 120.797 71.725C120.284 70.9188 119.171 70.0364 117.719 70.1671C116.813 70.2434 115.885 70.4722 114.848 70.8643C113.571 71.3546 112.753 72.6183 112.753 74.0781C112.753 74.7754 112.807 75.4835 112.851 76.1589C112.873 76.5402 112.906 76.9106 112.917 77.2919C113.266 84.6564 112.644 91.8575 112.054 97.2938C111.902 98.6555 112.447 100.834 114.554 100.856C114.761 100.856 114.979 100.834 115.187 100.791C115.623 100.704 116.038 100.508 116.398 100.213C117.348 99.4617 117.795 98.1871 117.894 97.3156C118.417 92.3805 118.93 87.1403 118.963 81.922C120.251 85.0486 121.397 88.2515 122.379 91.4871C122.565 92.0972 122.74 92.7073 122.914 93.3065C123.143 94.0691 123.362 94.8426 123.602 95.616C123.667 95.8448 123.733 96.03 123.798 96.2043C124.18 97.2393 125.239 98.2742 126.68 98.1108C126.789 98.1108 126.909 98.0781 127.029 98.0564C127.062 98.0564 127.083 98.0455 127.116 98.0455C127.236 98.0128 127.367 97.9801 127.498 97.9365C128.906 97.4136 129.659 96.0954 129.921 95.0169C130.587 92.1517 131.089 88.8725 131.449 85.0269C131.591 83.3709 131.711 81.7259 131.777 80.1027C132.901 83.8503 133.818 87.5107 134.505 91.0296C134.636 91.7159 134.767 92.4349 134.898 93.1757C135.029 93.9928 135.575 94.9733 136.513 95.3328C137.103 95.5616 137.79 95.4962 138.424 95.1912C140.061 94.385 140.628 92.5112 140.344 91.0732L140.366 91.0514Z" fill="#5A5A5C"/>
<path d="M19.3372 60.243C19.3372 60.243 27.523 26.4273 49.6246 20.697C69.6416 15.5113 99.1432 21.0456 107.002 66.8559L132.978 59.2844C132.978 59.2844 128.405 5.75009 85.1728 0.956622C47.2889 -3.24855 19.5009 11.4587 13.8909 53.5649C12.7776 61.8881 19.3372 60.2322 19.3372 60.2322V60.243Z" fill="#010101"/>
<path d="M67.3058 191.398C61.2701 190.32 60.9427 185.352 57.5156 183.827C53.63 182.095 49.7554 184.764 50.0829 189.241C50.5631 195.604 58.0395 206.008 68.812 206.008" fill="white"/>
<path d="M68.8115 208.22C56.893 208.22 48.4562 197.075 47.8777 189.416C47.6594 186.529 48.8164 183.904 50.9774 182.389C53.0948 180.908 55.8671 180.69 58.4101 181.823C60.2874 182.662 61.4334 184.165 62.4484 185.494C63.7691 187.237 64.9151 188.741 67.6983 189.242C68.8989 189.46 69.6956 190.604 69.4773 191.791C69.259 192.978 68.113 193.785 66.9233 193.567C62.4375 192.771 60.4184 190.102 58.934 188.152C58.1154 187.074 57.4606 186.224 56.6201 185.843C55.496 185.342 54.3718 185.396 53.5314 185.984C52.6473 186.605 52.1998 187.738 52.2981 189.078C52.691 194.275 59.2614 203.807 68.8334 203.807C70.0558 203.807 71.0381 204.788 71.0381 206.008C71.0381 207.228 70.0558 208.209 68.8334 208.209L68.8115 208.22Z" fill="#010101"/>
<path d="M94.6465 219.31C111.858 216.238 117.894 214.549 127.313 213.569C137.082 212.556 146.304 210.126 147.014 192.815C148.018 168.75 135.597 163.684 127.663 166.233" fill="white"/>
<path d="M94.6464 221.511C93.5987 221.511 92.6709 220.759 92.4745 219.691C92.2562 218.493 93.053 217.349 94.2535 217.142C100.595 216.009 105.506 215.05 109.457 214.277C116.432 212.915 121.048 212.011 127.073 211.379C136.394 210.41 144.154 208.34 144.798 192.728C145.246 181.823 142.801 173.761 137.889 170.036C135.117 167.933 131.548 167.29 128.328 168.336C127.171 168.706 125.927 168.075 125.556 166.92C125.185 165.765 125.818 164.523 126.975 164.153C131.57 162.671 136.645 163.564 140.563 166.538C144.875 169.807 149.862 177.041 149.208 192.913C148.411 212 137.606 214.713 127.532 215.759C121.692 216.369 117.163 217.251 110.309 218.591C106.347 219.365 101.413 220.334 95.0284 221.467C94.8975 221.489 94.7665 221.5 94.6355 221.5L94.6464 221.511Z" fill="#010101"/>
<path d="M125.883 164.207C132.115 175.853 129.419 191.41 129.419 191.41Z" fill="white"/>
<path d="M129.419 193.436C129.31 193.436 129.19 193.436 129.07 193.404C127.967 193.218 127.225 192.162 127.411 191.061C127.433 190.909 129.91 176.038 124.093 165.166C123.569 164.174 123.94 162.943 124.933 162.42C125.916 161.887 127.16 162.268 127.684 163.259C134.167 175.374 131.536 191.094 131.427 191.759C131.253 192.75 130.401 193.447 129.43 193.447L129.419 193.436Z" fill="#010101"/>
<path d="M107.187 153.803C117.85 153.803 128.208 152.071 137.911 147.615C151.379 141.427 155.614 132.418 151.728 124.269C148.923 118.386 141.152 116.164 134.647 118.811C127.826 121.589 116.748 130.37 100.616 131.437" fill="white"/>
<path d="M107.187 156.004C105.964 156.004 104.982 155.023 104.982 153.803C104.982 152.583 105.964 151.602 107.187 151.602C118.472 151.602 128.23 149.641 136.994 145.611C144.023 142.386 148.607 138.279 150.255 133.758C151.281 130.947 151.106 128.06 149.742 125.206C147.504 120.51 141.109 118.549 135.488 120.848C133.84 121.523 131.842 122.613 129.539 123.877C122.641 127.646 113.201 132.81 100.769 133.638C99.5575 133.703 98.4988 132.799 98.4224 131.59C98.346 130.38 99.2628 129.324 100.474 129.247C111.934 128.485 120.884 123.593 127.422 120.02C129.845 118.691 131.941 117.547 133.818 116.784C141.567 113.625 150.495 116.567 153.726 123.332C155.592 127.232 155.821 131.361 154.402 135.272C152.35 140.926 146.97 145.883 138.838 149.62C129.485 153.923 119.127 156.004 107.187 156.004Z" fill="#010101"/>
<path d="M227.955 123.675C227.955 123.675 203.343 162.382 202.47 182.732C201.782 198.54 208.08 220.481 248.834 219.62C283.684 218.89 294.052 189.029 285.79 167.426C280.693 154.102 266.559 138.741 266.559 122.008" fill="white"/>
<path d="M246.564 221.854C229.68 221.854 217.183 217.834 209.401 209.892C202.939 203.301 199.774 193.878 200.265 182.646C201.16 161.947 225.074 124.1 226.1 122.498C226.755 121.474 228.119 121.169 229.145 121.823C230.171 122.477 230.476 123.838 229.822 124.863C229.581 125.244 205.515 163.308 204.675 182.831C204.238 192.962 206.89 201.035 212.555 206.809C219.802 214.206 231.972 217.769 248.78 217.42C266.636 217.05 275.793 208.933 280.344 202.201C286.795 192.646 288.083 179.617 283.728 168.211C282.036 163.788 279.275 159.07 276.35 154.07C270.729 144.461 264.355 133.567 264.355 122.008C264.355 120.788 265.337 119.808 266.559 119.808C267.782 119.808 268.764 120.788 268.764 122.008C268.764 132.38 274.56 142.282 280.159 151.848C283.182 157.011 286.031 161.881 287.853 166.642C292.721 179.366 291.248 193.932 284.012 204.663C278.882 212.267 268.633 221.407 248.878 221.821C248.103 221.832 247.328 221.843 246.564 221.843V221.854Z" fill="#010101"/>
<path d="M227.343 192.309C221.307 191.23 220.98 186.262 217.553 184.737C213.667 183.005 209.793 185.674 210.12 190.152C210.6 196.514 218.077 206.918 228.849 206.918" fill="white"/>
<path d="M228.86 209.13C216.942 209.13 208.505 197.985 207.927 190.326C207.708 187.439 208.865 184.814 211.026 183.299C213.144 181.818 215.916 181.6 218.459 182.733C220.336 183.572 221.482 185.075 222.497 186.404C223.818 188.147 224.964 189.651 227.747 190.152C228.948 190.37 229.744 191.514 229.526 192.701C229.308 193.9 228.162 194.695 226.972 194.477C222.486 193.682 220.467 191.013 218.983 189.062C218.164 187.984 217.509 187.134 216.669 186.753C215.545 186.252 214.421 186.306 213.58 186.895C212.696 187.515 212.249 188.649 212.347 189.988C212.74 195.185 219.31 204.717 228.882 204.717C230.105 204.717 231.087 205.698 231.087 206.918C231.087 208.138 230.105 209.119 228.882 209.119L228.86 209.13Z" fill="#010101"/>
<path d="M251.901 219.479C269.113 216.407 279.515 217.377 288.934 216.407C298.702 215.394 307.925 212.965 308.634 195.654C309.704 169.987 295.493 165.934 287.755 169.682" fill="white"/>
<path d="M251.901 221.68C250.854 221.68 249.926 220.928 249.729 219.861C249.511 218.662 250.308 217.518 251.508 217.311C263.001 215.263 271.667 214.98 278.631 214.762C282.353 214.642 285.561 214.544 288.694 214.217C298.015 213.248 305.775 211.178 306.419 195.567C306.899 184.138 304.214 175.913 298.855 172.416C295.177 170.02 291.204 170.455 288.705 171.665C287.602 172.198 286.293 171.741 285.758 170.651C285.223 169.562 285.681 168.244 286.773 167.71C291.346 165.488 296.901 165.88 301.267 168.734C306.004 171.828 311.516 179.04 310.817 195.752C310.02 214.838 299.215 217.551 289.141 218.597C285.845 218.935 282.407 219.055 278.762 219.163C271.58 219.392 263.449 219.654 252.272 221.647C252.141 221.669 252.01 221.68 251.879 221.68H251.901Z" fill="#010101"/>
<path d="M283.946 163.101C291.117 176.555 287.035 190.783 287.035 190.783Z" fill="white"/>
<path d="M287.046 192.995C286.849 192.995 286.642 192.962 286.434 192.907C285.267 192.57 284.59 191.35 284.917 190.184C284.95 190.053 288.639 176.599 281.992 164.136C281.425 163.057 281.829 161.728 282.898 161.162C283.979 160.595 285.31 160.998 285.878 162.066C293.376 176.141 289.327 190.772 289.141 191.393C288.868 192.363 287.984 192.995 287.024 192.995H287.046Z" fill="#010101"/>
<path d="M304.825 96.091C305.066 98.7492 307.772 102.192 309.77 102.018C311.778 101.832 313.852 98.2917 313.579 95.3067C313.306 92.3216 311.036 91.8096 308.864 92.0057C306.692 92.2018 304.585 93.4328 304.825 96.091Z" fill="#010101"/>
<path d="M222.268 139.123C198.65 139.635 188.052 128.185 183.173 116.79C178.753 106.462 178.48 84.9459 180.182 70.1733C180.761 65.0639 181.667 60.2487 182.9 55.7167C184.515 49.7575 186.742 44.5283 189.591 39.6913C198.06 25.3109 212.282 16.3885 233.903 14.4384L234.187 14.4166C255.808 12.4775 271.394 18.7308 282.308 31.3681C285.976 35.6168 289.108 40.4757 291.771 46.0535C293.79 50.3023 295.537 54.8561 297.032 59.7694C301.343 74.0081 305.294 99.4026 302.795 110.34C300.033 122.433 289.774 131.17 266.428 134.885" fill="white"/>
<path d="M220.795 141.346C201.466 141.346 187.779 133.175 181.143 117.662C176.668 107.203 176.166 85.7415 177.989 69.9339C178.589 64.7156 179.517 59.7369 180.772 55.1504C182.409 49.1259 184.668 43.7115 187.692 38.5803C196.86 23.0342 212.336 14.1772 233.707 12.2598L233.991 12.2381C255.361 10.3207 272.18 16.2798 283.979 29.9521C287.799 34.386 290.997 39.3429 293.758 45.1277C295.81 49.431 297.611 54.1482 299.128 59.1595C303.232 72.7119 307.652 98.9235 304.923 110.853C301.714 124.928 289.228 133.513 266.756 137.075C265.555 137.26 264.42 136.443 264.234 135.245C264.049 134.046 264.867 132.913 266.068 132.728C286.838 129.427 297.818 122.172 300.623 109.872C302.904 99.9148 299.477 75.5553 294.904 60.4341C293.43 55.5753 291.75 51.1849 289.763 47.0233C287.176 41.598 284.186 36.9571 280.628 32.8282C269.659 20.1146 254.532 14.82 234.373 16.6284L234.089 16.6502C213.941 18.4587 200.003 26.3679 191.479 40.8245C188.663 45.6071 186.546 50.6729 185.018 56.3161C183.828 60.6956 182.933 65.4455 182.366 70.4459C180.663 85.3057 181.067 106.299 185.192 115.951C191.326 130.277 203.78 137.326 222.214 136.944C223.447 136.955 224.441 137.881 224.462 139.101C224.484 140.322 223.524 141.324 222.301 141.346C221.788 141.346 221.286 141.367 220.784 141.367L220.795 141.346Z" fill="#010101"/>
<path d="M299.717 70.5332C299.717 70.5332 300.361 74.0194 300.852 77.1787C301.66 82.3208 301.834 88.3126 305.098 92.2236C312.269 100.83 311.144 113.718 303.417 122.673C298.353 128.545 287.908 135.441 262.63 135.899" fill="white"/>
<path d="M262.641 136.083V135.724C282.396 135.364 296.072 130.93 303.286 122.564C311.199 113.391 311.908 100.677 304.956 92.3429C302.249 89.0965 301.649 84.4991 301.07 80.0543C300.95 79.1065 300.819 78.1369 300.677 77.2109C300.186 74.0951 299.553 70.6089 299.542 70.5654L299.892 70.5C299.892 70.5 300.536 74.0297 301.027 77.1455C301.169 78.0715 301.3 79.052 301.42 79.9998C301.998 84.3902 302.587 88.9439 305.229 92.1142C312.279 100.579 311.581 113.489 303.548 122.792C296.159 131.366 282.778 135.713 262.63 136.083H262.641Z" fill="#010101"/>
<path d="M299.717 70.5332C299.717 70.5332 300.361 74.0194 300.852 77.1787C301.66 82.3208 303.078 86.929 305.654 90.8619C311.886 100.362 311.133 113.729 303.417 122.684C298.352 128.556 287.558 133.317 262.335 135.299" fill="white"/>
<path d="M262.335 137.5C261.2 137.5 260.228 136.628 260.141 135.473C260.043 134.264 260.949 133.196 262.171 133.109C283.662 131.421 296.235 127.651 301.758 121.246C308.743 113.151 309.605 100.884 303.831 92.0708C301.299 88.2142 299.618 83.4534 298.691 77.527C298.211 74.433 297.577 70.9686 297.567 70.9359C297.348 69.7376 298.145 68.5937 299.335 68.3758C300.524 68.1579 301.681 68.9532 301.9 70.1407C301.9 70.1733 302.554 73.6922 303.046 76.8406C303.886 82.2115 305.305 86.2859 307.52 89.6522C314.353 100.067 313.338 114.567 305.108 124.111C298.691 131.551 285.561 135.68 262.52 137.489C262.466 137.489 262.4 137.489 262.346 137.489L262.335 137.5Z" fill="#010101"/>
<path d="M297.393 84.3691C297.742 88.193 294.904 91.5702 291.073 91.9188C287.242 92.2674 283.859 89.4458 283.51 85.6111C283.16 81.7763 285.998 78.3991 289.829 78.0613C293.66 77.7127 297.043 80.5343 297.393 84.3691" fill="#010101"/>
<path d="M284.033 67.4171C283.902 67.4171 283.782 67.4062 283.651 67.3735C282.679 67.1666 282.068 66.2079 282.286 65.2383C283.029 61.8611 285.91 59.1702 289.468 58.5274C293.277 57.8302 296.999 59.6495 299.411 63.3645C299.946 64.1924 299.706 65.3036 298.876 65.8375C298.047 66.3713 296.934 66.1425 296.399 65.3036C294.772 62.798 292.48 61.6105 290.112 62.0463C287.973 62.4385 286.237 64.0181 285.801 66.0009C285.615 66.8397 284.873 67.4062 284.055 67.4062L284.033 67.4171Z" fill="#020202"/>
<path d="M304.553 112.018C302.042 112.018 300.001 110.678 299.139 108.358C298.779 107.377 299.281 106.288 300.263 105.928C301.246 105.569 302.337 106.07 302.697 107.05C303.188 108.379 304.574 108.314 305.349 108.14C307.096 107.78 307.74 105.906 307.598 104.316L307.347 101.473C307.248 100.427 308.023 99.5116 309.06 99.4244C310.108 99.3264 311.025 100.1 311.112 101.135L311.363 103.978C311.712 107.824 309.508 111.136 306.113 111.844C305.568 111.953 305.044 112.007 304.542 112.007L304.553 112.018Z" fill="#010101"/>
<path d="M201.608 89.7393C202.885 65.4887 217.608 60.3248 232.998 61.2181C248.387 62.1006 262.466 69.1165 260.928 93.3453L260.829 95.0883C259.552 119.339 244.84 124.318 229.45 123.424C214.061 122.531 199.971 115.809 201.499 91.5695C201.52 91.2318 201.586 90.077 201.608 89.7393V89.7393Z" fill="#010101"/>
<path d="M232.714 126.104C231.601 126.104 230.466 126.071 229.298 126.006C218.722 125.396 210.787 122.171 205.69 116.43C200.528 110.613 198.246 102.191 198.934 91.4169L199.043 89.6084C199.611 78.7905 202.852 70.6634 208.681 65.4559C214.4 60.3356 222.64 58.0479 233.151 58.6579C243.618 59.2571 251.531 62.5036 256.66 68.2884C261.888 74.1822 264.191 82.6688 263.504 93.5195L263.405 95.2408C262.838 106.004 259.629 114.077 253.855 119.241C248.715 123.838 241.773 126.093 232.736 126.093L232.714 126.104ZM229.898 63.702C222.225 63.702 216.255 65.5758 212.097 69.2798C207.327 73.5394 204.664 80.4682 204.173 89.8808C204.173 89.8808 204.173 89.8808 204.173 89.8917L204.064 91.7219C203.474 101.102 205.308 108.259 209.532 113.009C213.745 117.759 220.304 120.319 229.582 120.864C238.881 121.398 245.68 119.611 250.385 115.417C255.1 111.201 257.741 104.316 258.232 94.9575L258.33 93.2035C258.93 83.7474 257.064 76.5136 252.775 71.6874C248.584 66.9593 241.871 64.3011 232.823 63.7782C231.819 63.7237 230.837 63.6911 229.876 63.6911L229.898 63.702Z" fill="#010101"/>
<path d="M239.437 11.4863C233.608 2.45495 226.088 1.56162 222.869 1.18032L222.694 1.15853C217.902 0.58114 208.614 0.733659 200.308 8.19621C195.943 12.1181 195.211 25.0387 195.113 27.5879C195.07 28.7318 195.79 29.7777 196.881 30.1263C197.973 30.4858 199.173 30.0718 199.817 29.124C202.033 25.8449 205.034 22.6311 206.202 22.2607C209.04 22.6529 211.332 24.0146 213.198 26.4332C221.177 36.7936 217.892 61.3056 217.859 61.5562C217.662 62.9506 218.634 64.2361 220.02 64.454L243.257 67.9729C243.388 67.9947 243.519 68.0056 243.639 68.0056C244.217 68.0056 244.774 67.8095 245.232 67.4608C245.789 67.0251 246.138 66.3714 246.204 65.6633C248.441 40.1599 246.16 21.9338 239.426 11.4972L239.437 11.4863Z" fill="#010101"/>
<path d="M210.274 102.977C210.874 100.547 216.091 79.336 216.539 78.1595C216.834 77.3642 217.336 76.6996 218.001 76.2312C218.634 75.7845 219.409 75.5231 220.228 75.4904C221.527 75.4468 222.815 75.534 223.961 75.7518C224.692 75.8935 225.38 76.2312 225.936 76.7105C226.471 77.179 226.886 77.7891 227.137 78.4645C227.421 79.238 229.32 87.7573 230.52 93.2153C232.157 88.7813 235.486 79.8263 235.89 79.0637C236.229 78.4318 236.72 77.8871 237.32 77.4949C237.942 77.0809 238.673 76.8522 239.416 76.8086C240.572 76.7432 241.871 76.8413 243.137 77.0592C243.945 77.2008 244.676 77.5603 245.244 78.0941C245.833 78.6388 246.237 79.3687 246.423 80.1967C246.706 81.4386 248.977 103.151 249.238 105.635C249.348 106.615 249.064 107.574 248.442 108.347C247.82 109.121 246.936 109.6 245.953 109.709C245.735 109.731 245.528 109.742 245.309 109.72C243.552 109.611 242.068 108.249 241.871 106.441C241.86 106.288 240.616 95.0455 239.972 89.2171C233.969 105.362 233.849 105.602 233.5 106.332V106.234C232.856 107.541 231.393 108.413 229.92 108.402C229.8 108.402 229.658 108.533 229.494 108.533L229.462 108.598L229.429 108.631C229.254 108.609 229.134 108.609 229.014 108.587C227.562 108.358 226.231 107.225 225.794 105.831V105.798C225.543 105.036 225.445 104.752 221.712 87.9752C220.261 93.7055 217.478 104.774 217.478 104.774C217.03 106.528 215.393 107.672 213.636 107.552C213.417 107.53 213.199 107.509 212.981 107.454C212.02 107.214 211.213 106.615 210.711 105.776C210.209 104.927 210.056 103.935 210.296 102.977" fill="#5A5A5C"/>
<path d="M261.135 158.656C271.613 159.266 281.294 157.599 292.59 152.261C305.993 145.931 310.294 137.063 306.408 128.915C303.603 123.032 295.832 120.809 289.327 123.457C282.505 126.235 271.427 135.015 255.296 136.083" fill="white"/>
<path d="M265.152 160.977C263.787 160.977 262.412 160.933 261.015 160.857C259.804 160.781 258.876 159.746 258.941 158.525C259.018 157.316 260.055 156.39 261.277 156.456C271.908 157.087 281.272 155.17 291.663 150.268C298.757 146.923 303.352 142.772 304.956 138.262C305.939 135.495 305.764 132.673 304.422 129.863C302.184 125.167 295.788 123.206 290.167 125.505C288.519 126.18 286.522 127.27 284.219 128.534C277.321 132.303 267.88 137.467 255.449 138.295C254.237 138.36 253.179 137.456 253.102 136.247C253.026 135.037 253.943 133.981 255.154 133.904C266.614 133.142 275.564 128.25 282.102 124.677C284.525 123.348 286.62 122.204 288.498 121.441C296.247 118.282 305.175 121.213 308.405 127.989C310.239 131.835 310.479 135.909 309.115 139.755C307.107 145.387 301.726 150.409 293.551 154.266C283.826 158.863 274.909 160.988 265.163 160.988L265.152 160.977Z" fill="#010101"/>
<g clip-path="url(#clip1_1152_27534)">
<path d="M366.448 133.935C366.448 133.935 343.039 164.039 344.931 187.903C346.781 211.199 366.552 215.362 388.516 214.845C408.235 214.38 442.059 203.668 434.107 170.712C427.974 145.299 416.665 133.284 416.665 133.284" fill="white"/>
<path d="M385.159 216.974C373.485 216.974 364.879 215.434 358.247 212.18C348.923 207.604 343.736 199.494 342.832 188.068C340.898 163.688 363.808 133.915 364.785 132.665C365.492 131.755 366.812 131.58 367.727 132.293C368.641 132.995 368.818 134.307 368.101 135.216C367.872 135.516 345.212 164.969 347.01 187.748C348.455 205.94 360.835 213.42 388.443 212.769C408.515 212.294 422.143 203.719 427.725 196.508C432.995 189.701 434.45 181.188 432.049 171.209C426.134 146.725 415.22 134.834 415.106 134.71C414.316 133.863 414.368 132.551 415.21 131.766C416.062 130.981 417.382 131.022 418.172 131.869C418.65 132.375 429.939 144.586 436.124 170.237C438.837 181.498 437.132 191.198 431.051 199.06C421.228 211.757 402.008 216.622 388.537 216.943C387.373 216.974 386.24 216.984 385.138 216.984L385.159 216.974Z" fill="#010101"/>
<path d="M429.69 88.1703C433.972 83.1392 440.532 79.8024 448.639 78.542C456.03 77.3747 464.335 79.823 471.352 86.2178C481.476 95.4431 483.68 117.613 474.782 127.799C470.291 132.933 462.464 137.21 456.082 138.202C454.751 138.409 453.483 138.667 452.236 138.812C444.939 139.659 438.951 138.533 434.409 135.444C428.702 131.57 425.22 124.607 424.087 114.731C424.056 114.431 423.942 113.512 423.9 113.212C422.569 102.664 424.513 94.2448 429.69 88.1703V88.1703Z" fill="#010101"/>
<path d="M397.071 29.7087C417.278 28.0765 438.639 35.9795 451.685 54.7814C457.485 63.139 463.961 77.5814 464.824 89.1001C464.886 89.844 413.349 86.0629 413.349 86.0629C411.987 86.1042 410.854 85.2571 410.636 84.0691L394.379 41.0622C394.233 40.2874 388.08 30.4319 397.071 29.719V29.7087Z" fill="#010101"/>
<path d="M340.171 71.1867C348.799 50.3702 367.062 38.0767 393.413 36.4754C415.21 35.1531 433.744 44.5954 444.825 60.4324C458.068 79.3583 467.548 111.435 461.196 128.099C456.436 140.578 440.958 148.926 426.052 152.583C411.718 156.095 390.575 157.386 377.488 156.054C355.431 153.812 340.525 142.252 335.878 124.09C333.467 114.658 331.876 91.187 340.171 71.1867V71.1867Z" fill="white"/>
<path d="M389.13 158.677C384.878 158.677 380.845 158.502 377.269 158.14C354.526 155.836 338.695 143.615 333.84 124.617C331.169 114.183 329.994 90.2362 338.227 70.4011C347.312 48.4793 366.355 36.0308 393.288 34.3985C415.158 33.0762 434.575 42.1259 446.55 59.2543C453.296 68.8929 459.065 81.7753 462.391 94.6061C465.998 108.522 466.269 120.681 463.16 128.852C458.732 140.454 445.053 150.082 426.561 154.628C416.104 157.19 401.655 158.688 389.14 158.688L389.13 158.677ZM397.466 38.4482C396.167 38.4482 394.857 38.4895 393.537 38.5721C368.32 40.1011 350.534 51.6612 342.104 71.9921C334.267 90.8973 335.368 113.677 337.905 123.594C342.364 141.053 356.49 151.849 377.685 153.997C391.136 155.361 412.143 153.853 425.532 150.578C438.775 147.324 454.574 139.524 459.21 127.375C464.19 114.307 458.795 84.0997 443.088 61.651C432.694 46.7748 416.218 38.4585 397.456 38.4585L397.466 38.4482Z" fill="#010101"/>
<path d="M320.005 114.824C319.839 103.77 323.789 95.6188 327.261 91.9927C331.398 87.6641 336.346 85.443 341.834 85.536C348.487 85.6393 354.12 88.0567 358.133 92.4989C362.893 97.7779 366.636 107.892 365.991 119.886C365.461 129.71 361.23 137.81 354.12 141.518C345.264 146.146 336.117 142.159 330.68 138.119C324.662 133.657 320.171 125.103 320.005 114.813V114.824Z" fill="#010101"/>
<path d="M340.109 66.6719C344.734 55.7213 356.938 36.1032 388.091 30.5349C402.581 27.9522 419.181 30.8758 426.488 34.4193C446.145 43.9442 454.97 63.6346 455.24 64.2545C455.718 65.2772 454.606 82.3539 454.606 82.3539C454.606 82.3539 451.716 71.0211 440.355 60.3494C427.299 48.0765 409.94 48.2521 401.292 49.2129C385.939 50.9175 370.607 56.7957 363.143 73.1079C357.208 86.0936 356.865 101.156 356.865 101.156L332.874 100.195C332.874 100.195 333.331 82.7258 340.109 66.6719V66.6719Z" fill="#010101"/>
<path d="M324.007 123.026C322.614 116.001 323.051 105.99 323.893 102.075C324.142 100.928 324.839 98.5007 327.801 98.4903C328.986 98.4903 330.181 99.1412 330.67 100.701C330.992 101.755 331.928 108.398 333.684 112.282C333.861 107.519 334.88 102.096 335.545 99.9676C335.992 98.573 336.907 97.3849 337.905 96.9924C338.695 96.6824 339.557 96.5688 340.69 96.8374C341.855 97.1267 343.216 98.325 343.622 100.68C344.183 103.966 347.083 114.462 349.817 120.35C350.399 121.611 350.638 123.997 348.881 124.844C348.362 125.092 347.582 125.102 347.135 124.968C345.867 124.565 345.025 123.439 344.651 122.644C342.53 118.139 340.919 113.904 339.724 109.017C339.349 112.426 339.09 115.34 339.329 118.883C339.37 119.544 339.724 123.894 339.734 124.08C339.786 125.226 339.214 126.652 338.029 127.096C337.853 127.158 337.406 127.241 337.281 127.251C335.93 127.313 334.849 126.352 334.267 125.412C332.707 122.923 331.065 119.875 329.579 116.301C328.934 114.751 328.497 113.439 328.03 111.941C328.009 115.939 328.404 119.73 329.215 123.429C329.371 124.152 330.296 126.652 329.568 127.695C329.215 128.202 328.144 128.832 327.042 128.367C325.13 127.561 324.173 123.945 323.997 123.016L324.007 123.026Z" fill="#5A5A5C"/>
<path d="M389.929 100.381C390.272 103.883 393.391 106.445 396.915 106.105C400.428 105.764 403.006 102.664 402.673 99.1623C402.33 95.6705 399.212 93.1085 395.688 93.4494C392.164 93.7903 389.597 96.8895 389.929 100.381Z" fill="#010101"/>
<path d="M431.892 97.6544C432.215 100.909 435.042 103.316 438.223 103.016C441.404 102.716 443.722 99.8238 443.41 96.549C443.098 93.2948 440.26 90.8877 437.079 91.1873C433.899 91.4972 431.581 94.3898 431.892 97.6544Z" fill="#010101"/>
<path d="M414.845 109.855C415.043 112.262 418.681 115.289 421.518 115.052C424.356 114.824 427.474 111.539 427.246 108.843C427.027 106.157 423.836 105.764 420.77 106.012C417.704 106.271 414.648 107.459 414.845 109.855Z" fill="#010101"/>
<path d="M417.652 123.46C417.028 123.46 416.435 123.088 416.196 122.478C415.874 121.683 416.269 120.763 417.07 120.443C420.042 119.255 420.282 115.681 420.261 114.327C420.219 113.914 420.23 113.646 420.23 113.604C420.24 112.778 420.895 112.106 421.726 112.065C422.579 112.044 423.275 112.633 423.358 113.46C423.358 113.511 423.39 113.77 423.4 114.183C423.514 115.34 424.086 118.108 426.705 119.741C427.443 120.195 427.662 121.166 427.204 121.89C426.747 122.623 425.77 122.84 425.042 122.385C423.816 121.621 422.901 120.701 422.215 119.741C421.456 121.197 420.219 122.551 418.234 123.346C418.047 123.418 417.839 123.46 417.652 123.46V123.46Z" fill="#010101"/>
<path d="M386.447 83.3566C386.021 83.3566 385.595 83.2326 385.211 82.9847C384.213 82.3132 383.932 80.9599 384.608 79.9578C384.732 79.7718 387.768 75.3296 393.547 75.185C399.659 75.0094 403.121 79.245 403.256 79.4206C404.014 80.371 403.859 81.745 402.913 82.4992C401.967 83.2533 400.584 83.0983 399.815 82.1686C399.701 82.0343 397.539 79.4929 393.661 79.5652C390.221 79.6479 388.35 82.2822 388.277 82.3959C387.851 83.0157 387.154 83.3463 386.447 83.3463V83.3566Z" fill="#010101"/>
<path d="M428.983 82.1995C428.588 82.1995 428.183 82.0962 427.819 81.8689C426.79 81.2284 426.467 79.8957 427.112 78.873C427.226 78.6767 430.074 74.1828 435.563 74.0485C441.332 73.9039 444.606 78.1808 444.741 78.3668C445.469 79.3378 445.261 80.7118 444.284 81.435C443.307 82.1581 441.935 81.9515 441.207 80.9908C441.103 80.8565 439.107 78.3771 435.677 78.4391C432.621 78.5217 430.937 81.0837 430.864 81.1974C430.438 81.8585 429.721 82.2201 428.993 82.2201L428.983 82.1995Z" fill="#010101"/>
<path d="M456.092 155.517C456.092 155.517 473.597 161.333 471.414 181.106C470.78 186.891 466.331 191.788 459.844 192.18C453.358 192.563 451.529 193.585 446.03 190.713C439.076 187.087 438.878 169.876 450.219 168.905C456.134 168.399 459.19 171.033 459.19 171.033" fill="white"/>
<path d="M452.963 194.887C450.593 194.887 448.358 194.422 445.001 192.676C439.783 189.959 438.172 182.531 439.305 176.921C440.5 170.992 444.512 167.169 450.032 166.694C456.809 166.105 460.499 169.225 460.655 169.349C461.58 170.155 461.684 171.549 460.873 172.469C460.063 173.388 458.66 173.492 457.734 172.686C457.662 172.624 455.219 170.692 450.416 171.095C445.635 171.508 444.138 175.465 443.67 177.789C442.756 182.293 444.315 187.314 447.069 188.75C450.874 190.734 452.443 190.589 456.237 190.238C457.256 190.145 458.389 190.042 459.709 189.959C464.74 189.659 468.638 185.92 469.2 180.857C471.154 163.161 456.019 157.83 455.375 157.603C454.211 157.21 453.587 155.95 453.982 154.803C454.377 153.646 455.624 153.026 456.799 153.409C456.986 153.471 475.977 160.031 473.628 181.343C472.827 188.585 467.214 193.947 459.98 194.38C458.711 194.453 457.62 194.556 456.643 194.649C455.292 194.773 454.107 194.887 452.953 194.887H452.963Z" fill="#010101"/>
<path d="M433.193 184.462L438.848 151.362C438.848 151.362 437.268 141.083 428.858 137.86C422.798 135.546 415.771 137.168 415.771 137.168C414.077 137.292 412.393 138.955 412.019 140.876L406.136 170.805C405.761 172.736 406.842 174.203 408.537 174.079L422.414 173.098C429.69 172.581 433.183 184.452 433.183 184.452L433.193 184.462Z" fill="white"/>
<path d="M433.193 186.012C432.507 186.012 431.894 185.557 431.696 184.896C430.823 181.931 427.466 174.286 422.538 174.648L408.662 175.629C407.425 175.712 406.323 175.289 405.543 174.41C404.67 173.429 404.327 172.014 404.618 170.516L410.502 140.577C411 138.015 413.194 135.866 415.543 135.629C416.541 135.412 423.36 134.09 429.43 136.404C438.577 139.906 440.334 150.66 440.397 151.115C440.417 151.28 440.417 151.445 440.397 151.61L434.742 184.71C434.617 185.423 434.025 185.96 433.297 186.002C433.266 186.002 433.235 186.002 433.203 186.002L433.193 186.012ZM422.892 171.538C427.518 171.538 430.667 175.495 432.549 178.966L437.268 151.373C436.977 149.927 435.095 141.91 428.308 139.307C422.788 137.199 416.198 138.666 416.125 138.676C416.042 138.697 415.959 138.707 415.886 138.718C415.002 138.78 413.817 139.844 413.558 141.176L407.674 171.115C407.57 171.642 407.643 172.117 407.872 172.365C407.924 172.417 408.069 172.582 408.433 172.551L422.31 171.569C422.507 171.559 422.705 171.549 422.892 171.549V171.538Z" fill="#010101"/>
<path d="M433.256 184.463L438.91 151.363C438.91 151.363 443.047 136.776 452.34 134.989C456.373 134.214 458.837 134.369 458.837 134.369C460.531 134.245 461.612 135.712 461.238 137.644L455.355 167.572C454.98 169.504 453.307 171.167 451.602 171.281L448.089 171.529C440.812 172.045 433.245 184.463 433.245 184.463H433.256Z" fill="white"/>
<path d="M433.255 186.012C433.079 186.012 432.891 185.981 432.715 185.919C432.018 185.661 431.592 184.938 431.717 184.204L437.372 151.104C437.372 151.053 437.392 151.001 437.413 150.939C437.59 150.309 441.935 135.412 452.049 133.459C455.812 132.736 458.296 132.778 458.837 132.809C460.001 132.747 461.092 133.181 461.851 134.038C462.724 135.019 463.067 136.435 462.776 137.933L456.893 167.871C456.394 170.485 454.117 172.665 451.727 172.83L448.213 173.078C442.912 173.45 436.582 182.004 434.586 185.268C434.295 185.743 433.785 186.012 433.255 186.012V186.012ZM440.428 151.704L435.906 178.171C438.972 174.504 443.442 170.299 447.985 169.979L451.498 169.731C452.382 169.669 453.567 168.605 453.826 167.272L459.71 137.334C459.814 136.807 459.741 136.331 459.512 136.083C459.46 136.032 459.315 135.867 458.951 135.898C458.878 135.898 458.816 135.898 458.743 135.898C458.722 135.898 456.394 135.774 452.641 136.497C444.721 138.015 440.76 150.619 440.438 151.704H440.428Z" fill="#010101"/>
<path d="M431.966 189.122L438.743 153.336C438.743 153.336 437.173 145.495 428.036 142.324C421.457 140.04 412.725 142.293 412.725 142.293C410.896 142.427 409.118 144.09 408.754 146.022L403.079 175.94C402.715 177.872 403.911 179.328 405.74 179.204L420.698 178.151C428.546 177.593 431.966 189.132 431.966 189.132V189.122Z" fill="white"/>
<path d="M431.966 190.671C431.28 190.671 430.666 190.227 430.469 189.566C430.438 189.462 427.278 179.204 420.802 179.69L405.844 180.743C404.534 180.847 403.308 180.361 402.486 179.452C401.613 178.481 401.27 177.097 401.54 175.65L407.216 145.732C407.694 143.17 409.981 141.011 412.455 140.763C413.64 140.474 421.956 138.584 428.535 140.867C438.4 144.286 440.188 152.685 440.261 153.036C440.302 153.233 440.302 153.429 440.261 153.625L433.483 189.411C433.348 190.113 432.745 190.63 432.028 190.671C431.997 190.671 431.976 190.671 431.945 190.671H431.966ZM421.259 176.57C426.207 176.57 429.471 180.495 431.373 183.874L437.153 153.367C436.799 152.055 434.855 146.321 427.527 143.78C421.477 141.683 413.203 143.77 413.12 143.78C413.027 143.801 412.933 143.821 412.839 143.821C411.717 143.904 410.521 145.051 410.293 146.29L404.617 176.208C404.524 176.694 404.607 177.128 404.825 177.375C405.043 177.623 405.387 177.644 405.636 177.634L420.594 176.58C420.822 176.559 421.051 176.559 421.269 176.559L421.259 176.57Z" fill="#010101"/>
<path d="M432.038 189.111L438.815 153.325C438.815 153.325 442.464 141.714 452.453 139.875C456.788 139.079 459.449 139.214 459.449 139.214C461.278 139.079 462.474 140.546 462.11 142.478L456.434 172.396C456.071 174.328 454.293 175.991 452.464 176.125L448.68 176.394C440.832 176.952 432.038 189.111 432.038 189.111V189.111Z" fill="white"/>
<path d="M432.039 190.661C431.831 190.661 431.623 190.62 431.426 190.537C430.75 190.248 430.376 189.545 430.511 188.822L437.288 153.036C437.299 152.974 437.319 152.923 437.33 152.861C437.486 152.354 441.384 140.34 452.173 138.356C456.238 137.613 458.899 137.654 459.439 137.675C460.707 137.613 461.903 138.077 462.693 138.966C463.566 139.937 463.909 141.321 463.639 142.768L457.963 172.685C457.475 175.299 455.105 177.489 452.568 177.675L448.785 177.944C442.943 178.357 435.625 186.808 433.297 190.02C432.995 190.434 432.517 190.661 432.028 190.661H432.039ZM440.334 153.708L434.689 183.533C438.161 179.824 443.452 175.206 448.577 174.845L452.36 174.576C453.483 174.493 454.678 173.347 454.907 172.107L460.583 142.189C460.676 141.703 460.593 141.27 460.375 141.022C460.156 140.774 459.813 140.743 459.574 140.763C459.512 140.763 459.45 140.763 459.377 140.763C459.356 140.763 456.809 140.65 452.745 141.394C444.221 142.964 440.666 152.737 440.334 153.708V153.708Z" fill="#010101"/>
<path d="M431.518 189.205L438.223 152.789C438.223 152.789 434.72 147.458 425.957 147.551C414.596 147.665 409.294 149.535 409.294 149.535C407.371 149.669 405.521 151.342 405.168 153.274L400.469 182.603C400.116 184.535 401.384 185.981 403.307 185.847C403.307 185.847 407.018 185.888 415.697 185.485C424.377 185.083 431.508 189.205 431.508 189.205H431.518Z" fill="#54C1AC"/>
<path d="M431.519 191.291C431.155 191.291 430.791 191.198 430.469 191.012C430.334 190.94 423.713 187.241 415.813 187.572C407.746 187.944 403.963 187.934 403.381 187.934C401.874 188.006 400.46 187.469 399.514 186.415C398.537 185.32 398.131 183.791 398.422 182.221L403.11 152.943C403.63 150.144 406.125 147.809 408.869 147.478C410.117 147.086 415.636 145.557 425.948 145.464C426.02 145.464 426.103 145.464 426.176 145.464C435.812 145.464 439.824 151.394 439.991 151.652C440.282 152.096 440.396 152.644 440.303 153.171L433.598 189.586C433.473 190.258 433.037 190.826 432.413 191.105C432.132 191.229 431.831 191.291 431.529 191.291H431.519ZM416.904 183.378C422.403 183.378 427.153 184.958 429.949 186.136L435.989 153.357C434.877 152.169 431.758 149.617 425.979 149.637C415.21 149.741 410.044 151.487 409.992 151.507C409.815 151.569 409.628 151.611 409.441 151.621C408.474 151.693 407.414 152.654 407.237 153.656L402.549 182.944C402.487 183.285 402.518 183.533 402.632 183.646C402.726 183.75 402.923 183.791 403.162 183.781C403.214 183.781 403.277 183.781 403.329 183.781C403.36 183.781 407.102 183.812 415.605 183.419C416.041 183.398 416.468 183.388 416.904 183.388V183.378Z" fill="#010101"/>
<path d="M431.602 189.194L438.223 153.419C438.223 153.419 439.138 147.716 450.26 146.869C456.143 146.425 459.345 146.228 459.345 146.228C461.268 146.094 462.536 147.551 462.183 149.472L456.653 179.38C456.299 181.312 454.449 182.985 452.526 183.119L445.322 183.626C437.08 184.204 431.612 189.194 431.612 189.194H431.602Z" fill="#54C1AC"/>
<path d="M431.602 191.281C431.259 191.281 430.906 191.198 430.584 191.022C429.794 190.589 429.367 189.7 429.534 188.822L436.155 153.047C436.197 152.799 437.475 145.764 450.094 144.792C455.926 144.348 459.179 144.152 459.21 144.152C460.749 144.059 462.194 144.596 463.15 145.671C464.138 146.766 464.533 148.295 464.242 149.865L458.701 179.772C458.181 182.624 455.52 185.02 452.662 185.217L445.458 185.723C438.036 186.25 433.068 190.702 433.026 190.744C432.631 191.105 432.122 191.291 431.602 191.291V191.281ZM459.585 148.305C459.585 148.305 459.522 148.305 459.491 148.305C459.439 148.305 456.206 148.501 450.417 148.945C441.342 149.638 440.323 153.636 440.282 153.801L434.575 184.669C437.174 183.274 440.801 181.849 445.167 181.539L452.371 181.033C453.348 180.96 454.398 180 454.574 178.998L460.115 149.09C460.167 148.801 460.136 148.553 460.032 148.439C459.948 148.346 459.793 148.305 459.595 148.305H459.585Z" fill="#010101"/>
<path d="M347.956 136.869L346.896 133.626C345.981 130.816 347.53 127.789 350.357 126.88L390.314 113.977L403.359 115.764C403.952 115.857 404.43 116.26 404.628 116.818C404.773 117.365 404.607 117.975 404.191 118.388L394.701 127.396L354.744 140.299C351.916 141.208 348.871 139.669 347.956 136.859V136.869Z" fill="#FAED24"/>
<path d="M353.071 142.293C351.969 142.293 350.867 142.035 349.849 141.518C348.154 140.661 346.907 139.204 346.314 137.407L345.254 134.163C344.038 130.454 346.096 126.466 349.817 125.258L389.775 112.355C390.024 112.272 390.284 112.251 390.544 112.282L403.589 114.069C404.816 114.255 405.824 115.092 406.25 116.239C406.271 116.291 406.281 116.342 406.302 116.394C406.603 117.541 406.26 118.77 405.408 119.607L395.897 128.636C395.71 128.811 395.481 128.946 395.242 129.028L355.285 141.931C354.557 142.169 353.819 142.283 353.081 142.283L353.071 142.293ZM390.471 115.743L350.888 128.522C348.965 129.142 347.915 131.198 348.539 133.109L349.599 136.353C349.901 137.283 350.545 138.026 351.418 138.471C352.291 138.915 353.279 138.987 354.214 138.688L393.797 125.908L402.737 117.427L390.481 115.743H390.471Z" fill="#010101"/>
<path d="M359.928 138.589L355.552 125.196L352.082 126.316L356.457 139.709L359.928 138.589Z" fill="#010101"/>
<path d="M365.833 136.689L361.457 123.297L357.987 124.417L362.363 137.809L365.833 136.689Z" fill="#010101"/>
<path d="M385.554 164.504C387.03 157.49 380.928 142.035 383.142 130.289C384.826 121.353 378.6 116.549 371.989 116.064C363.631 115.454 357.041 122.004 355.981 131.777C355.16 139.37 358.268 156.498 358.268 156.498" fill="white"/>
<path d="M385.554 166.591C385.409 166.591 385.263 166.581 385.118 166.55C383.985 166.313 383.257 165.207 383.496 164.081C384.068 161.364 383.236 156.643 382.363 151.633C381.147 144.69 379.765 136.829 381.074 129.907C381.677 126.694 381.168 124.008 379.546 121.921C377.873 119.752 375.056 118.378 371.833 118.151C364.661 117.624 359.006 123.326 358.071 132.004C357.291 139.215 360.316 155.961 360.337 156.137C360.545 157.273 359.786 158.358 358.642 158.564C357.499 158.761 356.408 158.017 356.2 156.881C356.075 156.168 353.05 139.37 353.882 131.57C355.046 120.702 362.717 113.316 372.124 113.998C376.542 114.318 380.461 116.281 382.862 119.39C385.211 122.417 386.012 126.322 385.19 130.692C384.026 136.86 385.336 144.339 386.49 150.93C387.477 156.581 388.33 161.457 387.592 164.949C387.384 165.93 386.511 166.612 385.533 166.612L385.554 166.591Z" fill="#010101"/>
<path d="M412.809 203.73C422.122 209.557 423.817 218.896 424.17 223.07C424.804 230.601 431.124 237.956 439.471 240.715C449.367 243.989 462.391 241.582 462.828 231.045C463.181 222.46 454.793 212.605 454.793 212.605C454.793 212.605 458.826 197.15 449.159 187.656C443.182 181.788 432.382 183.575 426.748 186.396" fill="white"/>
<path d="M447.911 244.175C444.928 244.175 441.81 243.69 438.806 242.687C429.669 239.661 422.787 231.654 422.081 223.235C421.706 218.803 419.867 210.6 411.696 205.497C410.719 204.887 410.418 203.596 411.041 202.615C411.655 201.643 412.954 201.344 413.942 201.964C423.65 208.038 425.833 217.677 426.27 222.894C426.831 229.598 432.662 236.262 440.136 238.741C446.3 240.787 453.119 240.322 457.1 237.594C459.387 236.024 460.614 233.793 460.728 230.962C461.05 223.286 453.265 214.051 453.192 213.958C452.755 213.441 452.589 212.739 452.766 212.088C452.797 211.943 456.352 197.666 447.693 189.154C442.631 184.174 432.953 185.641 427.704 188.265C426.675 188.782 425.407 188.368 424.887 187.335C424.367 186.302 424.783 185.052 425.823 184.536C431.758 181.56 443.743 179.381 450.655 186.178C459.657 195.021 457.838 208.255 457.079 212.077C459.158 214.732 465.27 223.235 464.948 231.127C464.771 235.28 462.89 238.71 459.512 241.024C456.466 243.111 452.35 244.185 447.932 244.185L447.911 244.175Z" fill="#010101"/>
<path d="M383.402 214.319C390.2 215.29 388.818 226.189 388.828 229.381C388.849 238.782 395.658 243.596 402.872 246.127C409.493 248.452 428.557 249.247 431.686 239.164C434.804 229.102 423.536 217.243 423.536 217.243C423.536 217.243 428.255 201.974 421.177 191.571C415.096 182.635 404.815 178.781 391.531 184.866" fill="white"/>
<path d="M413.495 249.681C409.025 249.681 404.836 249.03 402.175 248.1C392.092 244.567 386.76 238.09 386.739 229.392C386.739 228.978 386.76 228.441 386.78 227.821C386.988 222.46 386.718 216.902 383.111 216.395C381.957 216.23 381.167 215.176 381.334 214.03C381.5 212.883 382.571 212.098 383.714 212.263C391.551 213.379 391.156 223.617 390.98 227.987C390.959 228.544 390.938 229.02 390.938 229.381C390.959 236.261 395.21 241.231 403.578 244.164C407.788 245.642 418.609 246.613 425.22 243.307C427.559 242.14 429.066 240.538 429.679 238.555C432.392 229.784 422.112 218.792 422.008 218.679C421.488 218.131 421.311 217.346 421.53 216.633C421.571 216.488 425.854 202.18 419.43 192.748C413.287 183.719 403.682 181.602 392.404 186.777C391.354 187.263 390.107 186.808 389.618 185.754C389.13 184.711 389.587 183.471 390.647 182.986C403.817 176.942 415.584 179.649 422.912 190.414C429.388 199.928 426.852 212.8 425.864 216.716C428.525 219.805 436.644 230.27 433.692 239.795C432.725 242.904 430.511 245.342 427.112 247.047C423.286 248.958 418.235 249.691 413.495 249.691V249.681Z" fill="#010101"/>
<path d="M467.755 188.564C465.613 190.682 461.092 192.81 458.472 193.13C454.647 193.605 450.042 193.987 444.782 190.754C437.392 186.219 437.631 172.169 449.98 169.71C455.624 168.584 459.21 171.022 459.21 171.022" fill="white"/>
<path d="M454.335 195.538C451.31 195.538 447.61 194.949 443.66 192.531C439.242 189.825 436.945 184.298 437.943 178.791C438.982 173.068 443.317 168.915 449.543 167.676C455.978 166.395 460.198 169.194 460.374 169.318C461.331 169.969 461.58 171.271 460.915 172.221C460.26 173.172 458.95 173.419 457.994 172.758C457.89 172.686 455 170.847 450.364 171.767C445.822 172.676 442.807 175.496 442.069 179.535C441.383 183.316 442.943 187.201 445.853 188.988C450.375 191.767 454.262 191.55 458.181 191.075C460.26 190.816 464.397 188.926 466.247 187.097C467.069 186.281 468.399 186.292 469.22 187.097C470.042 187.914 470.031 189.236 469.22 190.052C466.84 192.397 461.934 194.814 458.711 195.207C457.516 195.352 456.03 195.538 454.325 195.538H454.335Z" fill="#010101"/>
</g>
</g>
<defs>
<clipPath id="clip0_1152_27534">
<rect width="480" height="250" fill="white"/>
</clipPath>
<clipPath id="clip1_1152_27534">
<rect width="160" height="250" fill="white" transform="translate(320)"/>
</clipPath>
</defs>
</svg>
