<svg width="74" height="28" viewBox="0 0 74 28" fill="none" xmlns="http://www.w3.org/2000/svg">
<rect width="74" height="28" rx="14" fill="#328B7D"/>
<path d="M21.8159 7.58402V9.52002H36.1839V7.58402H21.8159ZM27.6239 9.32802V21.408H29.6879V9.32802H27.6239ZM28.7119 13.2C30.5199 14.176 32.9519 15.68 34.0879 16.688L35.5119 14.928C34.2799 13.936 31.7679 12.544 30.0239 11.68L28.7119 13.2Z" fill="white"/>
<path d="M48.6479 7.40802C49.3519 8.09602 50.2159 9.07202 50.5839 9.71202L52.0719 8.68802C51.6559 8.04802 50.7599 7.13602 50.0399 6.48002L48.6479 7.40802ZM37.7199 9.82402V11.392H52.2959V9.82402H37.7199ZM38.4559 7.50402V8.96002H45.4319V7.50402H38.4559ZM38.1679 12.096V13.44H45.7199V12.096H38.1679ZM37.9439 18.64V20.032H45.7039V18.64H37.9439ZM41.0479 6.41602V11.28H42.8719V6.41602H41.0479ZM39.7999 16.48H44.0879V17.088H39.7999V16.48ZM39.7999 14.992H44.0879V15.584H39.7999V14.992ZM38.4559 14.048V18.016H45.4959V14.048H38.4559ZM41.2399 14.64V17.68H41.0959V21.456H42.7759V17.68H42.6319V14.64H41.2399ZM41.0799 11.28V14.4H42.8079V11.28H41.0799ZM46.1839 6.43202C46.1999 14.08 46.9359 21.44 50.2799 21.44C51.6879 21.44 52.2799 20.736 52.5519 17.952C52.0719 17.776 51.4319 17.36 51.0319 16.944C50.9359 18.8 50.7919 19.568 50.4399 19.568C48.9359 19.568 47.9439 13.28 48.1199 6.43202H46.1839ZM50.1039 12.08C49.0319 15.632 47.0319 18.416 44.2479 20.016C44.7119 20.4 45.2719 21.008 45.5439 21.472C48.5039 19.504 50.5679 16.512 51.7999 12.608L50.1039 12.08Z" fill="white"/>
</svg>
