<svg width="46" height="46" viewBox="0 0 46 46" fill="none" xmlns="http://www.w3.org/2000/svg">
<g clip-path="url(#clip0_1107_25619)">
<ellipse cx="23" cy="23.0003" rx="17.5882" ry="17.5882" fill="black"/>
<path d="M23 46C29.1 46 34.9501 43.5768 39.2635 39.2635C43.5768 34.9501 46 29.1 46 23C46 16.9 43.5768 11.0499 39.2635 6.73655C34.9501 2.42321 29.1 2.33725e-06 23 1.80397e-06C16.9 1.2707e-06 11.0499 2.42321 6.73654 6.73654C2.42321 11.0499 -1.2707e-06 16.9 -1.80397e-06 23C-2.33725e-06 29.1 2.4232 34.9501 6.73654 39.2635C11.0499 43.5768 16.9 46 23 46V46ZM12.9375 24.4375C12.5563 24.4375 12.1906 24.286 11.921 24.0165C11.6514 23.7469 11.5 23.3812 11.5 23C11.5 22.6188 11.6514 22.2531 11.921 21.9835C12.1906 21.7139 12.5563 21.5625 12.9375 21.5625L29.5924 21.5625L23.4198 15.3928C23.2861 15.2591 23.1801 15.1004 23.1077 14.9258C23.0354 14.7512 22.9982 14.564 22.9982 14.375C22.9982 14.186 23.0354 13.9988 23.1077 13.8242C23.1801 13.6496 23.2861 13.4909 23.4198 13.3573C23.5534 13.2236 23.7121 13.1176 23.8867 13.0452C24.0613 12.9729 24.2485 12.9357 24.4375 12.9357C24.6265 12.9357 24.8137 12.9729 24.9883 13.0452C25.1629 13.1176 25.3216 13.2236 25.4553 13.3573L34.0803 21.9823C34.2141 22.1158 34.3203 22.2744 34.3928 22.4491C34.4653 22.6237 34.5026 22.8109 34.5026 23C34.5026 23.1891 34.4653 23.3763 34.3928 23.5509C34.3203 23.7256 34.2141 23.8842 34.0803 24.0178L25.4552 32.6427C25.1853 32.9127 24.8192 33.0643 24.4375 33.0643C24.0558 33.0643 23.6897 32.9127 23.4197 32.6427C23.1498 32.3728 22.9982 32.0067 22.9982 31.625C22.9982 31.2433 23.1498 30.8772 23.4197 30.6072L29.5924 24.4375L12.9375 24.4375Z" fill="white"/>
</g>
<defs>
<clipPath id="clip0_1107_25619">
<rect width="46" height="46" fill="white" transform="translate(46 46) rotate(-180)"/>
</clipPath>
</defs>
</svg>
