<?xml version="1.0" encoding="UTF-8"?><svg id="Layer_2" xmlns="http://www.w3.org/2000/svg" xmlns:xlink="http://www.w3.org/1999/xlink" viewBox="0 0 1201.22 230"><defs><style>.cls-1,.cls-2{fill:#010101;}.cls-3{fill:#020202;}.cls-4,.cls-5{fill:#fff;}.cls-6{fill:#faed24;}.cls-7{fill:#54c1ac;}.cls-8{fill:#5a5a5c;}.cls-9{clip-path:url(#clippath-9);}.cls-5{opacity:0;}.cls-2{clip-path:url(#clippath-8);}</style><clipPath id="clippath-8"><path class="cls-6" d="m59.37,117.95l-1.02-3.14c-.88-2.72.61-5.65,3.33-6.53l38.44-12.49,12.55,1.73c.57.09,1.03.48,1.22,1.02.14.53-.02,1.12-.42,1.52l-9.13,8.72-38.44,12.49c-2.72.88-5.65-.61-6.53-3.33Z"/></clipPath><clipPath id="clippath-9"><path class="cls-2" d="m64.29,123.19c-1.06,0-2.12-.25-3.1-.75-1.63-.83-2.83-2.24-3.4-3.98l-1.02-3.14c-1.17-3.59.81-7.45,4.39-8.62l38.44-12.49c.24-.08.49-.1.74-.07l12.55,1.73c1.18.18,2.15.99,2.56,2.1.02.05.03.1.05.15.29,1.11-.04,2.3-.86,3.11l-9.15,8.74c-.18.17-.4.3-.63.38l-38.44,12.49c-.7.23-1.41.34-2.12.34Zm35.98-25.7l-38.08,12.37c-1.85.6-2.86,2.59-2.26,4.44l1.02,3.14h0c.29.9.91,1.62,1.75,2.05.84.43,1.79.5,2.69.21l38.08-12.37,8.6-8.21-11.79-1.63Z"/></clipPath></defs><g id="Layer_1-2"><g><g><g><path class="cls-4" d="m698.37,113.46s-22.21,35.41-21.05,56.07c.77,13.86,8.27,35.77,47.79,34.98,33.79-.67,43.85-28.08,35.84-47.91-4.94-12.23-18.65-26.33-18.65-41.69"/><path class="cls-1" d="m723.04,206.55c-39.69,0-46.97-23.02-47.74-36.91-1.17-21.05,20.44-55.78,21.36-57.25.59-.95,1.84-1.23,2.79-.64.95.59,1.23,1.84.64,2.79-.22.35-21.85,35.11-20.75,54.88.86,15.49,9.51,33.79,45.73,33.08,18.01-.36,26.98-8.29,31.33-14.89,5.7-8.63,6.73-20.22,2.68-30.24-1.64-4.05-4.32-8.39-7.15-12.97-5.46-8.83-11.65-18.83-11.65-29.47,0-1.12.9-2.02,2.02-2.02s2.02.9,2.02,2.02c0,9.49,5.61,18.57,11.04,27.35,2.93,4.74,5.7,9.21,7.46,13.58,4.54,11.24,3.37,24.26-3.05,33.98-6.91,10.46-19.2,16.39-34.62,16.7-.71.01-1.41.02-2.1.02Z"/></g><path class="cls-1" d="m689.09,54.61c-4.83-4.1-11.55-6.24-19.4-6.17-7.16.05-14.61,3.68-20.22,10.85-8.1,10.35-6.69,31.75,3.32,40.02,5.05,4.17,13.11,7,19.29,6.95,1.29-.01,2.53.03,3.72-.02,7.02-.33,12.49-2.34,16.29-5.99,4.78-4.57,6.95-11.74,6.47-21.29-.02-.29-.05-1.18-.06-1.47-.41-10.22-3.57-17.92-9.41-22.87Z"/><g><path class="cls-4" d="m695.35,124.04c-15.06-2.85-31.32-11.17-35.54-26.38-2.51-9.03-3.69-32.2,3.82-51.62,7.8-20.21,25.01-32.42,50.18-34.5,20.82-1.72,38.48,4.92,47.74,21.02,12.08,21,24.15,46.73,17.48,66.09-4.18,12.14-17.26,18.59-31.43,22.43-4.61,1.25-9.76,2.21-15.03,2.9"/><path class="cls-1" d="m695.35,126.06c-.12,0-.25-.01-.38-.04-19.42-3.67-33.29-14.07-37.11-27.82-2.8-10.05-3.5-33.8,3.88-52.89,8.22-21.29,26.17-33.66,51.9-35.78,22.77-1.88,40.41,5.94,49.66,22.03,11.93,20.75,24.72,47.21,17.64,67.75-3.79,11.01-14.53,18.77-32.81,23.72-4.52,1.22-9.66,2.22-15.29,2.96-1.11.14-2.12-.63-2.27-1.74s.63-2.12,1.74-2.27c5.45-.71,10.42-1.67,14.76-2.85,16.9-4.57,26.72-11.49,30.05-21.14,6.62-19.22-6.72-45.97-17.33-64.42-8.43-14.65-24.7-21.76-45.82-20.02-24.08,1.99-40.84,13.47-48.46,33.21-7.05,18.23-6.41,40.83-3.76,50.35,1.27,4.58,7.49,19.92,33.97,24.93,1.1.21,1.82,1.26,1.61,2.36-.18.97-1.03,1.65-1.98,1.65Z"/></g><g><path class="cls-1" d="m776.68,79.86c-.7-10.62-4.85-18.18-8.22-21.43-4.01-3.88-8.59-5.69-13.46-5.24-5.91.54-10.73,3.22-13.95,7.75-3.83,5.38-6.37,15.33-4.86,26.8,1.23,9.4,5.62,16.89,12.22,19.98,8.23,3.86,16.06-.57,20.58-4.8,5.01-4.68,8.34-13.18,7.68-23.06Z"/><path class="cls-8" d="m772.83,86.42c-.17-.83-.35-1.67-.52-2.47-.79-3.57-1.8-7.14-3-10.63l-.27-.77c-.72-2.11-1.46-4.28-2.45-6.32-.47-.95-1.44-1.91-2.76-1.79-.87.08-1.63.27-2.29.58-.65.3-1.45.99-1.53,2.57-.05,1.07-.02,2.19,0,3.26.03.94.05,1.89.02,2.82-.06,1.95-.17,3.75-.32,5.44-.62-1.61-1.31-3.28-2.07-4.96-.11-.23-.2-.46-.31-.69-.71-1.6-1.45-3.25-2.43-4.78-.47-.74-1.49-1.55-2.82-1.43-.83.07-1.68.28-2.63.64-1.17.45-1.92,1.61-1.92,2.95,0,.64.05,1.29.09,1.91.02.35.05.69.06,1.04.32,6.76-.25,13.37-.79,18.36-.14,1.25.36,3.25,2.29,3.27.19,0,.39-.02.58-.06.4-.08.78-.26,1.11-.53.87-.69,1.28-1.86,1.37-2.66.48-4.53.95-9.34.98-14.13,1.18,2.87,2.23,5.81,3.13,8.78.17.56.33,1.12.49,1.67.21.7.41,1.41.63,2.12.06.21.12.38.18.54.35.95,1.32,1.9,2.64,1.75.1,0,.21-.03.32-.05.03,0,.05-.01.08-.01.11-.03.23-.06.35-.1,1.29-.48,1.98-1.69,2.22-2.68.61-2.63,1.07-5.64,1.4-9.17.13-1.52.24-3.03.3-4.52,1.03,3.44,1.87,6.8,2.5,10.03.12.63.24,1.29.36,1.97.12.75.62,1.65,1.48,1.98.54.21,1.17.15,1.75-.13,1.5-.74,2.02-2.46,1.76-3.78Z"/></g><path class="cls-1" d="m661.94,58.15s7.5-31.04,27.75-36.3c18.34-4.76,45.37.32,52.57,42.37l23.8-6.95s-4.19-49.14-43.8-53.54c-34.71-3.86-60.17,9.64-65.31,48.29-1.02,7.64,4.99,6.12,4.99,6.12Z"/><g><path class="cls-4" d="m705.89,178.54c-5.53-.99-5.83-5.55-8.97-6.95-3.56-1.59-7.11.86-6.81,4.97.44,5.84,7.29,15.39,17.16,15.39"/><path class="cls-1" d="m707.27,193.98c-10.92,0-18.65-10.23-19.18-17.26-.2-2.65.86-5.06,2.84-6.45,1.94-1.36,4.48-1.56,6.81-.52,1.72.77,2.77,2.15,3.7,3.37,1.21,1.6,2.26,2.98,4.81,3.44,1.1.2,1.83,1.25,1.63,2.34s-1.25,1.83-2.34,1.63c-4.11-.73-5.96-3.18-7.32-4.97-.75-.99-1.35-1.77-2.12-2.12-1.03-.46-2.06-.41-2.83.13-.81.57-1.22,1.61-1.13,2.84.36,4.77,6.38,13.52,15.15,13.52,1.12,0,2.02.9,2.02,2.02s-.9,2.02-2.02,2.02Z"/></g><g><path class="cls-4" d="m730.95,204.16c15.77-2.82,21.3-4.37,29.93-5.27,8.95-.93,17.4-3.16,18.05-19.05.92-22.09-10.46-26.74-17.73-24.4"/><path class="cls-1" d="m730.94,206.18c-.96,0-1.81-.69-1.99-1.67-.2-1.1.53-2.15,1.63-2.34,5.81-1.04,10.31-1.92,13.93-2.63,6.39-1.25,10.62-2.08,16.14-2.66,8.54-.89,15.65-2.79,16.24-17.12.41-10.01-1.83-17.41-6.33-20.83-2.54-1.93-5.81-2.52-8.76-1.56-1.06.34-2.2-.24-2.54-1.3-.34-1.06.24-2.2,1.3-2.54,4.21-1.36,8.86-.54,12.45,2.19,3.95,3,8.52,9.64,7.92,24.21-.73,17.52-10.63,20.01-19.86,20.97-5.35.56-9.5,1.37-15.78,2.6-3.63.71-8.15,1.6-14,2.64-.12.02-.24.03-.36.03Z"/></g><g><path class="cls-4" d="m759.56,153.58c5.71,10.69,3.24,24.97,3.24,24.97"/><path class="cls-1" d="m762.8,180.41c-.1,0-.21,0-.32-.03-1.01-.17-1.69-1.14-1.52-2.15.02-.14,2.29-13.79-3.04-23.77-.48-.91-.14-2.04.77-2.52.9-.49,2.04-.14,2.52.77,5.94,11.12,3.53,25.55,3.43,26.16-.16.91-.94,1.55-1.83,1.55Z"/></g><g><path class="cls-4" d="m742.43,144.02c9.77,0,19.26-1.59,28.15-5.68,12.34-5.68,16.22-13.95,12.66-21.43-2.57-5.4-9.69-7.44-15.65-5.01-6.25,2.55-16.4,10.61-31.18,11.59"/><path class="cls-1" d="m742.43,146.05c-1.12,0-2.02-.9-2.02-2.02s.9-2.02,2.02-2.02c10.34,0,19.28-1.8,27.31-5.5,6.44-2.96,10.64-6.73,12.15-10.88.94-2.58.78-5.23-.47-7.85-2.05-4.31-7.91-6.11-13.06-4-1.51.62-3.34,1.62-5.45,2.78-6.32,3.46-14.97,8.2-26.36,8.96-1.11.06-2.08-.77-2.15-1.88s.77-2.08,1.88-2.15c10.5-.7,18.7-5.19,24.69-8.47,2.22-1.22,4.14-2.27,5.86-2.97,7.1-2.9,15.28-.2,18.24,6.01,1.71,3.58,1.92,7.37.62,10.96-1.88,5.19-6.81,9.74-14.26,13.17-8.57,3.95-18.06,5.86-29,5.86Z"/></g></g><g><g><path class="cls-4" d="m899.67,114.06s-21.18,35.89-20.97,57.4c.13,13.88,6.28,32.7,45.79,31.88,28.26-.58,45.82-26.31,37.81-46.14-4.94-12.23-18.65-26.33-18.65-41.69"/><path class="cls-1" d="m922.08,205.38c-16.79,0-29.09-3.69-36.6-10.97-5.75-5.57-8.71-13.29-8.8-22.94-.21-21.82,20.38-56.96,21.25-58.45.57-.96,1.8-1.28,2.77-.71.96.57,1.28,1.81.71,2.77-.21.35-20.89,35.66-20.69,56.35.08,8.65,2.56,15.21,7.57,20.07,7.07,6.86,19.24,10.15,36.16,9.8,13.41-.28,25.54-6.71,32.46-17.19,5.55-8.42,6.83-17.95,3.52-26.17-1.64-4.05-4.32-8.39-7.15-12.97-5.46-8.83-11.64-18.83-11.64-29.47,0-1.12.9-2.02,2.02-2.02s2.02.9,2.02,2.02c0,9.49,5.61,18.57,11.04,27.35,2.93,4.74,5.7,9.21,7.46,13.58,3.82,9.46,2.4,20.37-3.89,29.91-7.65,11.6-21.02,18.7-35.75,19.01-.83.02-1.65.03-2.46.03Z"/></g><path class="cls-1" d="m890.46,55.21c-4.83-4.1-11.55-6.24-19.4-6.17-7.16.05-14.61,3.68-20.22,10.85-8.1,10.35-6.69,31.75,3.32,40.02,5.05,4.17,13.11,7,19.29,6.95,1.29-.01,2.53.03,3.72-.02,7.02-.33,12.49-2.34,16.29-5.99,4.78-4.57,6.95-11.74,6.47-21.29-.02-.29-.05-1.18-.06-1.47-.41-10.22-3.57-17.92-9.41-22.87Z"/><g><path class="cls-4" d="m896.71,124.64c-15.06-2.85-31.32-11.17-35.54-26.38-2.51-9.03-3.69-32.2,3.82-51.62,7.8-20.21,25.01-32.42,50.18-34.5,20.82-1.72,38.48,4.92,47.74,21.02,12.08,21,24.15,46.73,17.48,66.09-4.18,12.14-17.26,18.59-31.43,22.43-4.61,1.25-9.76,2.21-15.03,2.9"/><path class="cls-1" d="m896.71,126.66c-.12,0-.25-.01-.38-.04-19.42-3.67-33.29-14.07-37.11-27.82-2.8-10.04-3.5-33.8,3.88-52.89,8.22-21.29,26.17-33.66,51.9-35.78,22.76-1.88,40.41,5.94,49.66,22.03,11.93,20.75,24.72,47.21,17.64,67.75-3.79,11.01-14.53,18.77-32.81,23.72-4.52,1.22-9.66,2.22-15.29,2.96-1.1.15-2.12-.63-2.27-1.74-.15-1.11.63-2.12,1.74-2.27,5.45-.71,10.42-1.67,14.76-2.85,16.9-4.57,26.72-11.49,30.05-21.14,6.62-19.22-6.72-45.97-17.32-64.42-8.43-14.65-24.69-21.76-45.82-20.02-24.08,1.99-40.84,13.47-48.46,33.21-7.05,18.24-6.41,40.83-3.76,50.35,1.27,4.58,7.48,19.92,33.97,24.93,1.1.21,1.82,1.26,1.61,2.36-.18.97-1.03,1.65-1.98,1.65Z"/></g><g><path class="cls-1" d="m978.05,80.45c-.7-10.62-4.85-18.18-8.22-21.43-4.01-3.88-8.59-5.69-13.46-5.24-5.91.54-10.73,3.22-13.95,7.75-3.83,5.38-6.37,15.33-4.86,26.8,1.23,9.4,5.62,16.89,12.22,19.98,8.23,3.86,16.06-.57,20.58-4.8,5.01-4.68,8.34-13.18,7.68-23.06Z"/><path class="cls-8" d="m974.2,87.02c-.17-.83-.35-1.67-.52-2.47-.79-3.57-1.8-7.14-3-10.63l-.27-.77c-.72-2.11-1.46-4.28-2.45-6.32-.47-.95-1.44-1.91-2.76-1.79-.87.08-1.63.27-2.29.58-.65.3-1.45.99-1.53,2.57-.05,1.07-.02,2.19,0,3.26.03.94.05,1.89.02,2.82-.06,1.95-.17,3.75-.32,5.44-.62-1.61-1.31-3.28-2.07-4.96-.11-.23-.2-.46-.31-.69-.71-1.6-1.45-3.25-2.43-4.78-.47-.74-1.49-1.55-2.82-1.43-.83.07-1.68.28-2.63.64-1.17.45-1.92,1.61-1.92,2.95,0,.64.05,1.29.09,1.91.02.35.05.69.06,1.04.32,6.76-.25,13.37-.79,18.36-.14,1.25.36,3.25,2.29,3.27.19,0,.39-.02.58-.06.4-.08.78-.26,1.11-.53.87-.69,1.28-1.86,1.37-2.66.48-4.53.95-9.34.98-14.13,1.18,2.87,2.23,5.81,3.13,8.78.17.56.33,1.12.49,1.67.21.7.41,1.41.63,2.12.06.21.12.38.18.54.35.95,1.32,1.9,2.64,1.75.1,0,.21-.03.32-.05.03,0,.05-.01.08-.01.11-.03.23-.06.35-.1,1.29-.48,1.98-1.69,2.22-2.68.61-2.63,1.07-5.64,1.4-9.17.13-1.52.24-3.03.3-4.52,1.03,3.44,1.87,6.8,2.5,10.03.12.63.24,1.29.36,1.97.12.75.62,1.65,1.48,1.98.54.21,1.17.15,1.75-.13,1.5-.74,2.02-2.46,1.76-3.78Z"/></g><path class="cls-1" d="m863.31,58.75s7.5-31.04,27.75-36.3c18.34-4.76,45.37.32,52.57,42.37l23.8-6.95s-4.19-49.14-43.8-53.54c-34.71-3.86-60.17,9.64-65.31,48.29-1.02,7.64,4.99,6.12,4.99,6.12Z"/><g><path class="cls-4" d="m906.74,179.21c-5.53-.99-5.83-5.55-8.97-6.95-3.56-1.59-7.11.86-6.81,4.97.44,5.84,7.29,15.39,17.16,15.39"/><path class="cls-1" d="m908.12,194.65c-10.92,0-18.65-10.23-19.18-17.26-.2-2.65.86-5.06,2.84-6.45,1.94-1.36,4.48-1.56,6.8-.52,1.72.77,2.77,2.15,3.7,3.37,1.21,1.6,2.26,2.98,4.81,3.44,1.1.2,1.83,1.25,1.63,2.34-.2,1.1-1.24,1.83-2.34,1.63-4.11-.73-5.96-3.18-7.32-4.97-.75-.99-1.35-1.78-2.12-2.12-1.03-.46-2.06-.41-2.83.13-.81.57-1.22,1.61-1.13,2.84.36,4.77,6.38,13.52,15.15,13.52,1.12,0,2.02.9,2.02,2.02s-.9,2.02-2.02,2.02Z"/></g><g><path class="cls-4" d="m952.84,191.8c.61,8.62,7.44,11.08,12.26,11.8,5.99.9,18.83-1.37,21.98-8.02,4.48-9.45-6.83-15.99-6.83-15.99,0,0,1.74-13.65-4.83-22.35-3.34-4.42-8.58-6.24-15.33-4.52"/><path class="cls-1" d="m967.93,205.81c-1.16,0-2.22-.07-3.13-.21-8.48-1.27-13.44-6.12-13.97-13.66-.08-1.11.76-2.08,1.87-2.16,1.1-.09,2.08.76,2.16,1.87.39,5.61,3.94,8.96,10.54,9.95,5.32.8,17.19-1.26,19.85-6.89,3.62-7.64-5.62-13.15-6.02-13.38-.7-.41-1.09-1.2-.99-2,.02-.13,1.55-12.95-4.44-20.88-2.96-3.92-7.54-5.23-13.22-3.78-1.09.28-2.18-.38-2.46-1.46-.28-1.08.38-2.18,1.46-2.46,7.28-1.86,13.48.01,17.45,5.26,5.84,7.73,5.62,18.76,5.34,22.52,4.45,3.04,10.37,9.8,6.53,17.9-3.18,6.72-13.92,9.36-20.98,9.36Z"/></g><circle class="cls-4" cx="947.71" cy="182.67" r="8.97"/><g><path class="cls-4" d="m945.97,197.25s10.68-6.92,16.69-16.54"/><path class="cls-1" d="m945.97,199.12c-.61,0-1.21-.3-1.57-.85-.56-.86-.31-2.02.55-2.58.1-.07,10.41-6.82,16.13-15.96.55-.87,1.69-1.14,2.57-.59.87.54,1.14,1.7.59,2.57-6.17,9.86-16.81,16.82-17.26,17.12-.31.2-.66.3-1.01.3Z"/></g><g><path class="cls-4" d="m952.19,140.8c7.05,7.44,8.77,15.83,8.77,15.83"/><path class="cls-1" d="m960.96,158.65c-.94,0-1.78-.66-1.98-1.62-.02-.08-1.72-7.95-8.26-14.85-.77-.81-.73-2.09.08-2.86.81-.77,2.09-.73,2.86.08,7.36,7.77,9.21,16.45,9.28,16.82.22,1.09-.48,2.16-1.57,2.39-.14.03-.27.04-.41.04Z"/></g><g><path class="cls-4" d="m934.92,143.38c5.8,7.15,13.33,10.73,24.3,14.01,13.02,3.89,21.39.47,23.74-7.47,1.7-5.73-2.23-12.01-8.29-14.19-6.36-2.28-19.29-3.08-30.94-12.23"/><path class="cls-1" d="m969.07,161.02c-3.16,0-6.66-.56-10.43-1.69-10.6-3.17-18.96-6.88-25.29-14.68-.7-.87-.57-2.14.3-2.84.87-.7,2.14-.57,2.84.3,5.69,7.02,13.14,10.31,23.31,13.35,6.88,2.06,12.57,2.04,16.43-.05,2.37-1.28,3.98-3.32,4.79-6.06,1.36-4.58-1.8-9.83-7.03-11.71-1.54-.55-3.56-1.03-5.91-1.58-7.01-1.65-16.62-3.91-25.59-10.97-.88-.69-1.03-1.96-.34-2.84.69-.88,1.96-1.03,2.84-.34,8.28,6.51,17.38,8.65,24.02,10.21,2.46.58,4.59,1.08,6.35,1.71,7.22,2.59,11.5,10.06,9.54,16.66-1.11,3.75-3.44,6.68-6.74,8.46-2.53,1.37-5.6,2.06-9.08,2.06Z"/></g></g><g><g><path class="cls-4" d="m1103.13,115.7s-22.55,35.53-23.35,54.21c-.63,14.51,5.14,34.65,42.48,33.86,31.93-.67,41.43-28.08,33.86-47.91-4.67-12.23-17.62-26.33-17.62-41.69"/><path class="cls-1" d="m1120.18,205.82c-15.47,0-26.92-3.69-34.05-10.98-5.92-6.05-8.82-14.7-8.37-25.01.82-19,22.73-53.74,23.67-55.21.6-.94,1.85-1.22,2.79-.62.94.6,1.22,1.85.62,2.79-.22.35-22.27,35.29-23.04,53.21-.4,9.3,2.03,16.71,7.22,22.01,6.64,6.79,17.79,10.06,33.19,9.74,16.36-.34,24.75-7.79,28.92-13.97,5.91-8.77,7.09-20.73,3.1-31.2-1.55-4.06-4.08-8.39-6.76-12.98-5.15-8.82-10.99-18.82-10.99-29.43,0-1.12.9-2.02,2.02-2.02s2.02.9,2.02,2.02c0,9.52,5.31,18.61,10.44,27.39,2.77,4.74,5.38,9.21,7.05,13.58,4.46,11.68,3.11,25.05-3.52,34.9-4.7,6.98-14.09,15.37-32.19,15.75-.71.01-1.42.02-2.12.02Z"/></g><g><path class="cls-4" d="m1102.58,178.7c-5.53-.99-5.83-5.55-8.97-6.95-3.56-1.59-7.11.86-6.81,4.97.44,5.84,7.29,15.39,17.16,15.39"/><path class="cls-1" d="m1103.96,194.14c-10.92,0-18.65-10.23-19.18-17.26-.2-2.65.86-5.06,2.84-6.45,1.94-1.36,4.48-1.56,6.81-.52,1.72.77,2.77,2.15,3.7,3.37,1.21,1.6,2.26,2.98,4.81,3.44,1.1.2,1.83,1.25,1.63,2.34-.2,1.1-1.25,1.83-2.34,1.63-4.11-.73-5.96-3.18-7.32-4.97-.75-.99-1.35-1.77-2.12-2.12-1.03-.46-2.06-.41-2.83.13-.81.57-1.22,1.61-1.13,2.84.36,4.77,6.38,13.52,15.15,13.52,1.12,0,2.02.9,2.02,2.02s-.9,2.02-2.02,2.02Z"/></g><g><path class="cls-4" d="m1125.08,203.63c15.77-2.82,25.3-1.93,33.93-2.82,8.95-.93,17.4-3.16,18.05-19.05.98-23.56-12.04-27.28-19.13-23.84"/><path class="cls-1" d="m1125.08,205.66c-.96,0-1.81-.69-1.99-1.67-.2-1.1.53-2.15,1.63-2.34,10.53-1.88,18.47-2.14,24.85-2.34,3.41-.11,6.35-.2,9.22-.5,8.54-.89,15.65-2.79,16.24-17.12.44-10.49-2.02-18.04-6.93-21.25-3.37-2.2-7.01-1.8-9.3-.69-1.01.49-2.21.07-2.7-.93-.49-1-.07-2.21.93-2.7,4.19-2.04,9.28-1.68,13.28.94,4.34,2.84,9.39,9.46,8.75,24.8-.73,17.52-10.63,20.01-19.86,20.97-3.02.31-6.17.42-9.51.52-6.58.21-14.03.45-24.27,2.28-.12.02-.24.03-.36.03Z"/></g><g><path class="cls-4" d="m1154.44,151.89c6.57,12.35,2.83,25.41,2.83,25.41"/><path class="cls-1" d="m1157.27,179.32c-.18,0-.37-.03-.56-.08-1.07-.31-1.69-1.43-1.39-2.5.03-.12,3.41-12.47-2.68-23.91-.52-.99-.15-2.21.83-2.73.99-.52,2.21-.15,2.73.83,6.87,12.92,3.16,26.35,2.99,26.92-.25.89-1.06,1.47-1.94,1.47Z"/></g><path class="cls-1" d="m1173.56,90.37c.22,2.44,2.7,5.6,4.53,5.44,1.84-.17,3.74-3.42,3.49-6.16-.25-2.74-2.33-3.21-4.32-3.03-1.99.18-3.92,1.31-3.7,3.75"/><g><path class="cls-4" d="m1097.92,129.88c-21.64.47-31.35-10.04-35.82-20.5-4.05-9.48-4.3-29.23-2.74-42.79.53-4.69,1.36-9.11,2.49-13.27,1.48-5.47,3.52-10.27,6.13-14.71,7.76-13.2,20.79-21.39,40.6-23.18l.26-.02c19.81-1.78,34.09,3.96,44.09,15.56,3.36,3.9,6.23,8.36,8.67,13.48,1.85,3.9,3.45,8.08,4.82,12.59,3.95,13.07,7.57,36.38,5.28,46.42-2.53,11.1-11.93,19.12-33.32,22.53"/><path class="cls-1" d="m1096.58,131.91c-17.71,0-30.25-7.5-36.33-21.74-4.1-9.6-4.56-29.3-2.89-43.81.55-4.79,1.4-9.36,2.55-13.57,1.5-5.53,3.57-10.5,6.34-15.21,8.4-14.27,22.58-22.4,42.16-24.16l.26-.02c19.58-1.76,34.99,3.71,45.8,16.26,3.5,4.07,6.43,8.62,8.96,13.93,1.88,3.95,3.53,8.28,4.92,12.88,3.76,12.44,7.81,36.5,5.31,47.45-2.94,12.92-14.38,20.8-34.97,24.07-1.1.17-2.14-.58-2.31-1.68s.58-2.14,1.68-2.31c19.03-3.03,29.09-9.69,31.66-20.98,2.09-9.14-1.05-31.5-5.24-45.38-1.35-4.46-2.89-8.49-4.71-12.31-2.37-4.98-5.11-9.24-8.37-13.03-10.05-11.67-23.91-16.53-42.38-14.87l-.26.02c-18.46,1.66-31.23,8.92-39.04,22.19-2.58,4.39-4.52,9.04-5.92,14.22-1.09,4.02-1.91,8.38-2.43,12.97-1.56,13.64-1.19,32.91,2.59,41.77,5.62,13.15,17.03,19.62,33.92,19.27,1.13.01,2.04.86,2.06,1.98.02,1.12-.86,2.04-1.98,2.06-.47,0-.93.02-1.39.02Z"/></g><g><path class="cls-4" d="m1168.89,66.91s.59,3.2,1.04,6.1c.74,4.72.9,10.22,3.89,13.81,6.57,7.9,5.54,19.73-1.54,27.95-4.64,5.39-14.21,11.72-37.37,12.14"/><path class="cls-1" d="m1134.91,127.08v-.33c18.1-.33,30.63-4.4,37.24-12.08,7.25-8.42,7.9-20.09,1.53-27.74-2.48-2.98-3.03-7.2-3.56-11.28-.11-.87-.23-1.76-.36-2.61-.45-2.86-1.03-6.06-1.04-6.1l.32-.06s.59,3.24,1.04,6.1c.13.85.25,1.75.36,2.62.53,4.03,1.07,8.21,3.49,11.12,6.46,7.77,5.82,19.62-1.54,28.16-6.77,7.87-19.03,11.86-37.49,12.2Z"/></g><g><path class="cls-4" d="m1168.89,66.91s.59,3.2,1.04,6.1c.74,4.72,2.04,8.95,4.4,12.56,5.71,8.72,5.02,20.99-2.05,29.21-4.64,5.39-14.53,9.76-37.64,11.58"/><path class="cls-1" d="m1134.63,128.38c-1.04,0-1.93-.8-2.01-1.86-.09-1.11.74-2.09,1.86-2.17,19.69-1.55,31.21-5.01,36.27-10.89,6.4-7.43,7.19-18.69,1.9-26.78-2.32-3.54-3.86-7.91-4.71-13.35-.44-2.84-1.02-6.02-1.03-6.05-.2-1.1.53-2.15,1.62-2.35,1.09-.2,2.15.53,2.35,1.62,0,.03.6,3.26,1.05,6.15.77,4.93,2.07,8.67,4.1,11.76,6.26,9.56,5.33,22.87-2.21,31.63-5.88,6.83-17.91,10.62-39.02,12.28-.05,0-.11,0-.16,0Z"/></g><path class="cls-1" d="m1166.75,79.62c.32,3.51-2.28,6.61-5.79,6.93-3.51.32-6.61-2.27-6.93-5.79s2.28-6.62,5.79-6.93c3.51-.32,6.61,2.27,6.93,5.79"/><path class="cls-3" d="m1154.51,64.06c-.12,0-.23-.01-.35-.04-.89-.19-1.45-1.07-1.25-1.96.68-3.1,3.32-5.57,6.58-6.16,3.49-.64,6.9,1.03,9.11,4.44.49.76.27,1.78-.49,2.27-.76.49-1.78.28-2.27-.49-1.49-2.3-3.59-3.39-5.76-2.99-1.96.36-3.55,1.81-3.95,3.63-.17.77-.85,1.29-1.6,1.29Z"/><path class="cls-1" d="m1173.32,105c-2.3,0-4.17-1.23-4.96-3.36-.33-.9.13-1.9,1.03-2.23.9-.33,1.9.13,2.23,1.03.45,1.22,1.72,1.16,2.43,1,1.6-.33,2.19-2.05,2.06-3.51l-.23-2.61c-.09-.96.62-1.8,1.57-1.88.96-.09,1.8.62,1.88,1.57l.23,2.61c.32,3.53-1.7,6.57-4.81,7.22-.5.1-.98.15-1.44.15Z"/><g><path class="cls-1" d="m1078.99,84.55c1.17-22.26,14.66-27,28.76-26.18,14.1.81,27,7.25,25.59,29.49l-.09,1.6c-1.17,22.26-14.65,26.83-28.75,26.01s-27.01-6.99-25.61-29.24c.02-.31.08-1.37.1-1.68Z"/><path class="cls-1" d="m1107.5,117.92c-1.02,0-2.06-.03-3.13-.09-9.69-.56-16.96-3.52-21.63-8.79-4.73-5.34-6.82-13.07-6.19-22.96l.1-1.66c.52-9.93,3.49-17.39,8.83-22.17,5.24-4.7,12.79-6.8,22.42-6.24,9.59.55,16.84,3.53,21.54,8.84,4.79,5.41,6.9,13.2,6.27,23.16l-.09,1.58c-.52,9.88-3.46,17.29-8.75,22.03-4.71,4.22-11.07,6.29-19.35,6.29Zm-2.58-57.28c-7.03,0-12.5,1.72-16.31,5.12-4.37,3.91-6.81,10.27-7.26,18.91,0,0,0,0,0,.01l-.1,1.68c-.54,8.61,1.14,15.18,5.01,19.54,3.86,4.36,9.87,6.71,18.37,7.21,8.52.49,14.75-1.15,19.06-5,4.32-3.87,6.74-10.19,7.19-18.78l.09-1.61c.55-8.68-1.16-15.32-5.09-19.75-3.84-4.34-9.99-6.78-18.28-7.26-.92-.05-1.82-.08-2.7-.08Zm-25.92,23.91h0,0Z"/></g><path class="cls-1" d="m1113.66,12.72c-5.34-8.29-12.23-9.11-15.18-9.46l-.16-.02c-4.39-.53-12.9-.39-20.51,6.46-4,3.6-4.67,15.46-4.76,17.8-.04,1.05.62,2.01,1.62,2.33,1,.33,2.1-.05,2.69-.92,2.03-3.01,4.78-5.96,5.85-6.3,2.6.36,4.7,1.61,6.41,3.83,7.31,9.51,4.3,32.01,4.27,32.24-.18,1.28.71,2.46,1.98,2.66l21.29,3.23c.12.02.24.03.35.03.53,0,1.04-.18,1.46-.5.51-.4.83-1,.89-1.65,2.05-23.41-.04-40.14-6.21-49.72Z"/><path class="cls-8" d="m1086.93,96.7c.55-2.23,5.33-21.7,5.74-22.78.27-.73.73-1.34,1.34-1.77.58-.41,1.29-.65,2.04-.68,1.19-.04,2.37.04,3.42.24.67.13,1.3.44,1.81.88.49.43.87.99,1.1,1.61.26.71,2,8.53,3.1,13.54,1.5-4.07,4.55-12.29,4.92-12.99.31-.58.76-1.08,1.31-1.44.57-.38,1.24-.59,1.92-.63,1.06-.06,2.25.03,3.41.23.74.13,1.41.46,1.93.95.54.5.91,1.17,1.08,1.93.26,1.14,2.34,21.07,2.58,23.35.1.9-.16,1.78-.73,2.49-.57.71-1.38,1.15-2.28,1.25-.2.02-.39.03-.59.01-1.61-.1-2.97-1.35-3.15-3.01-.01-.14-1.15-10.46-1.74-15.81-5.5,14.82-5.61,15.04-5.93,15.71v-.09c-.59,1.2-1.93,2-3.28,1.99h0c-.11,0-.24.12-.39.12l-.03.06-.03.03c-.16-.02-.27-.02-.38-.04h0c-1.33-.21-2.55-1.25-2.95-2.53v-.03c-.23-.7-.32-.96-3.74-16.36-1.33,5.26-3.88,15.42-3.88,15.42-.41,1.61-1.91,2.66-3.52,2.55-.2-.02-.4-.04-.6-.09-.88-.22-1.62-.77-2.08-1.54-.46-.78-.6-1.69-.38-2.57"/><g><path class="cls-4" d="m1133.54,147.8c9.6.56,18.47-.97,28.82-5.87,12.28-5.81,16.22-13.95,12.66-21.43-2.57-5.4-9.69-7.44-15.65-5.01-6.25,2.55-16.4,10.61-31.18,11.59"/><path class="cls-1" d="m1137.21,149.94c-1.25,0-2.51-.04-3.79-.11-1.11-.07-1.96-1.02-1.9-2.14.07-1.11,1.02-1.96,2.14-1.9,9.74.58,18.32-1.18,27.84-5.68,6.5-3.07,10.71-6.88,12.18-11.02.9-2.54.74-5.13-.49-7.71-2.05-4.31-7.91-6.11-13.06-4-1.51.62-3.34,1.62-5.45,2.78-6.32,3.46-14.97,8.2-26.36,8.96-1.11.06-2.08-.77-2.15-1.88s.77-2.08,1.88-2.15c10.5-.7,18.7-5.19,24.69-8.47,2.22-1.22,4.14-2.27,5.86-2.97,7.1-2.9,15.28-.21,18.24,6.01,1.68,3.53,1.9,7.27.65,10.8-1.84,5.17-6.77,9.78-14.26,13.32-8.91,4.22-17.08,6.17-26.01,6.17Z"/></g></g><g><g><path class="cls-4" d="m257.79,181.6c5.54,6.4,7.7,14.25,3.75,19.42-4.43,5.79-20.45,6.47-32.37-8.18-12.47-15.32-.68-27.94,9.54-29.31s14.65,12.95,19.08,18.06Z"/><path class="cls-1" d="m251.57,206.89c-4.33,0-14.67-1.34-23.97-12.77-5.56-6.83-7.2-14.14-4.64-20.61,2.48-6.26,8.71-11.08,15.48-11.98,8.86-1.19,13.83,7.31,17.47,13.51,1.21,2.07,2.36,4.02,3.41,5.23h0c6.66,7.68,8.16,16.31,3.83,21.97-2.19,2.87-6.3,4.56-11.26,4.63-.1,0-.2,0-.31,0Zm-11.55-41.42c-.34,0-.69.02-1.04.07-5.29.71-10.33,4.6-12.26,9.46-2.03,5.11-.64,10.84,4.02,16.56,8.22,10.09,17.12,11.28,20.83,11.28.09,0,.17,0,.26,0,3.61-.05,6.72-1.22,8.11-3.05,3.55-4.64.71-11.82-3.67-16.87h0c-1.29-1.49-2.53-3.6-3.84-5.83-3.21-5.46-6.82-11.62-12.4-11.62Z"/></g><g><path class="cls-4" d="m335.49,140.03c3.18-4.54,12.25-16.35,19.99-18.63,7.72-2.27,16.58.23,20.67,7.27,4.09,7.04-4.09,13.63-8.63,12.49l-10.68,12.72"/><path class="cls-1" d="m356.84,155.91c-.46,0-.92-.16-1.3-.47-.86-.72-.97-1.99-.25-2.85l10.68-12.72c.5-.59,1.29-.85,2.04-.66,1.49.37,4.23-.76,5.94-3.03,1.09-1.45,2.05-3.75.46-6.49-3.38-5.81-11.1-8.48-18.36-6.35-5.96,1.75-13.91,10.71-18.91,17.85-.64.91-1.9,1.14-2.81.5-.91-.64-1.14-1.9-.5-2.81,2.73-3.9,12.32-16.83,21.08-19.41,9.17-2.7,18.62.67,22.99,8.19,2.08,3.58,1.81,7.57-.72,10.95-2.21,2.94-5.83,4.82-8.81,4.7l-9.97,11.88c-.4.48-.97.72-1.55.72Z"/></g><g><path class="cls-4" d="m280.58,187.99c-17.04,0-42.21-8.1-39.15-14.57,15.15-31.98,59.29-40.21,83.83-41.91,26.81-1.86,37.14,12.95,37.14,12.95,1.7-9.54,4.94-14.65,9.88-17.21,12-6.21,21.88-.63,23.51,5.28,2.22,8.01-3.75,11.76-3.75,11.76,0,0-1.19,7.16-2.9,17.38-2.59,15.52-12.61,21.81-22.15,25.56-8.66,3.4-31.35,11.59-41.91,19.76-7.71,5.97-21.98,15.16-36.29,6.3-9.97-6.17-10.27-16.65-8.22-25.3Z"/><path class="cls-1" d="m301.29,218.96c-4.77,0-9.29-1.32-13.55-3.95-8.33-5.15-11.63-13.78-9.63-25.05-14.49-.59-33.99-6.17-38.07-12.61-1-1.57-1.15-3.28-.43-4.79,16.41-34.65,65.27-41.66,85.52-43.07,20.12-1.41,31.34,6.22,36.13,10.71,1.93-7.48,5.19-12.21,10.1-14.75,8.79-4.54,15.53-2.85,18.77-1.43,3.85,1.68,6.7,4.66,7.62,7.97,1.87,6.74-1.35,11.43-3.84,13.44l-2.76,16.56c-2.83,16.99-14,23.41-23.4,27.11-1.01.4-2.22.86-3.57,1.38-10.05,3.86-28.75,11.06-37.85,18.1-8.93,6.92-17.31,10.38-25.04,10.38Zm28.49-85.6c-1.41,0-2.86.05-4.38.16-19.53,1.36-66.64,8.04-82.14,40.76-.06.12-.16.34.19.9,2.92,4.61,21.81,10.78,37.13,10.78.62,0,1.2.28,1.58.77.38.48.52,1.12.38,1.72-2.54,10.76-.08,18.53,7.32,23.12,9.72,6.02,20.84,4,33.99-6.18,9.57-7.41,28.63-14.74,38.87-18.68,1.34-.52,2.54-.98,3.54-1.37,8.42-3.31,18.4-9.02,20.9-24.01l2.9-17.38c.09-.57.43-1.07.92-1.38.18-.12,4.64-3.12,2.88-9.51-.58-2.11-2.63-4.16-5.34-5.35-2.58-1.13-8-2.46-15.3,1.32-4.58,2.37-7.3,7.23-8.82,15.77-.14.8-.76,1.44-1.56,1.62-.8.18-1.62-.15-2.09-.82-.09-.12-8.96-12.24-30.97-12.24Z"/></g><g><path class="cls-4" d="m356.84,139.34s11.13,8.18,11.36,18.86"/><path class="cls-1" d="m368.2,160.22c-1.1,0-2-.88-2.02-1.98-.2-9.53-10.43-17.2-10.54-17.27-.9-.66-1.09-1.93-.43-2.83.66-.9,1.92-1.09,2.82-.43.49.36,11.94,8.9,12.18,20.44.02,1.12-.86,2.04-1.98,2.06h-.04Z"/></g><g><path class="cls-4" d="m355.73,139.88c2.13-2.07,3.24-6.08,5.29-7.99,2.32-2.17,5,.15,5.61,2.26,1.35,4.62-.95,11.79-6,14.97"/><path class="cls-1" d="m360.63,151.14c-.67,0-1.33-.33-1.71-.95-.59-.94-.31-2.19.64-2.79,4.27-2.69,6.24-8.92,5.14-12.69-.21-.72-.9-1.49-1.48-1.65-.13-.03-.38-.1-.81.3-.78.73-1.5,2.09-2.21,3.41-.87,1.62-1.76,3.3-3.05,4.55-.8.78-2.08.76-2.86-.04s-.76-2.08.04-2.86c.84-.81,1.58-2.21,2.3-3.56.86-1.61,1.75-3.28,3.02-4.46,1.34-1.25,2.99-1.69,4.64-1.24,2.25.62,3.78,2.66,4.29,4.41,1.54,5.28-.86,13.46-6.87,17.24-.33.21-.71.31-1.07.31Z"/></g><g><path class="cls-1" d="m249.28,122.09c-4.67-4.53-11.41-7.18-19.46-7.64-7.34-.44-15.22,2.77-21.46,9.74-9.01,10.05-9.01,32.07.68,41.23,4.89,4.61,12.96,8.07,19.29,8.43,1.32.07,2.59.21,3.82.23,7.21.13,12.96-1.55,17.1-5.03,5.21-4.36,7.93-11.55,8.08-21.37,0-.3.03-1.22.04-1.51.28-10.5-2.44-18.6-8.08-24.08Z"/><path class="cls-1" d="m274.81,64.8c-19.92.34-40.03,10.18-50.97,29.93-4.86,8.78-9.79,23.61-9.52,35.02.01.74,50.04-7.95,50.04-7.95,1.33-.09,2.36-1.03,2.46-2.22l11.72-43.88c.06-.78,5.13-11.07-3.73-10.9Z"/><g><path class="cls-4" d="m303.23,186.14c16.81-3.86,38.35-17,40.86-35.36,1.31-9.54.25-32.77-10.07-51.5-10.73-19.48-29.93-29.53-55.83-28.17-21.42,1.13-38.84,13.31-47.89,30.1-10.82,20.06-14.73,51.72-6.76,67.42,6.34,12.5,22.91,17.12,35.4,18.61,7.71.92,29.21,2.34,44.28-1.12Z"/><path class="cls-1" d="m279.04,190.38c-8.26,0-15.8-.56-20.33-1.11-10.72-1.29-29.78-5.55-36.96-19.71-7.9-15.57-4.73-47.95,6.78-69.29,9.91-18.4,28.44-30.05,49.56-31.16,26.46-1.4,46.41,8.7,57.7,29.21,10.23,18.56,11.75,42.2,10.3,52.75-1.21,8.88-6.69,17.33-15.83,24.43-7.56,5.87-17.25,10.47-26.58,12.62-7.41,1.7-16.38,2.26-24.64,2.26Zm3.75-117.35c-1.48,0-2.97.04-4.5.12-19.7,1.04-36.98,11.89-46.22,29.05-10.98,20.35-14.12,50.98-6.73,65.55,6.33,12.48,23.92,16.33,33.84,17.52,8.83,1.06,29.32,2.2,43.59-1.08h0c17.37-3.99,37.05-17.14,39.31-33.66,1.38-10.03-.08-32.54-9.84-50.25-9.85-17.88-26.9-27.24-49.46-27.24Z"/></g><path class="cls-1" d="m356.81,143.55c-.33-10.93-4.57-18.8-8.14-22.22-4.25-4.09-9.21-6.07-14.59-5.73-6.52.4-11.94,3.03-15.68,7.6-4.44,5.43-7.66,15.58-6.49,27.4.96,9.68,5.47,17.49,12.61,20.84,8.9,4.18,17.7-.17,22.86-4.4,5.71-4.68,9.74-13.32,9.44-23.49Z"/><path class="cls-1" d="m334.08,95.67c-5.59-10.33-19.41-28.45-50.41-30.93-14.42-1.15-30.36,3.33-37.16,7.52-18.29,11.26-25.02,31.49-25.22,32.12-.37,1.06,2.37,21.22,2.37,21.22,0,0,4.01-16.39,11.6-26.19,10.82-13.96,26.81-15.79,35.36-15.91,16.23-.22,32.7,5.38,41.57,20.72,7.06,12.21,8.86,26.99,8.86,26.99l23.37-3.26s-2.13-17.15-10.32-32.28Z"/><path class="cls-8" d="m352.58,156.46c.54-6.68-1.12-19.03-3.29-24.27-.8-1.93-1.74-2.9-3.07-2.98-.87-.04-1.37-.02-2.06.23-.69.25-1.56.94-1.85,2.78-.19,1.25-.3,2.57-.41,3.83-.09,1.11-.19,2.23-.34,3.32-.3,2.28-.64,4.38-1.02,6.36-.41-2-.88-4.07-1.41-6.18-.08-.28-.14-.58-.21-.86-.5-2-1.02-4.06-1.79-6.01-.37-.94-1.27-2.07-2.6-2.14-.82-.05-1.69.06-2.68.33-1.21.34-2.1,1.59-2.27,3.16-.08.75-.12,1.52-.16,2.26-.02.42-.04.82-.07,1.23-.54,8.02-1.95,15.7-3.13,21.49-.3,1.46-.06,3.88,1.85,4.21.19.03.39.04.58.02.4-.04.8-.19,1.17-.45.95-.68,1.56-2.2,1.84-3.1,1.19-3.75,2.3-9.8,2.63-16.29.8,3.57,1.46,7.2,1.96,10.84.1.68.18,1.37.27,2.05.12.86.22,1.73.35,2.6.03.25.07.47.11.67.23,1.17,1.06,2.45,2.38,2.49.1,0,.21,0,.33,0,.03,0,.05,0,.08,0,.11-.02.23-.03.35-.07,1.33-.36,2.18-1.68,2.54-2.8.94-3,1.78-6.47,2.56-10.57.33-1.77.62-3.53.88-5.27.58,4.21.98,8.3,1.18,12.21.03.76.07,1.55.11,2.38.02.9.41,2.05,1.22,2.57.51.34,1.13.37,1.74.13,1.58-.63,2.1-2.58,2.23-4.17Z"/><path class="cls-1" d="m290.49,148.74c-.17,3.47-3.11,6.15-6.58,5.98-3.47-.17-6.15-3.11-5.98-6.58.17-3.47,3.11-6.14,6.58-5.97,3.47.17,6.14,3.11,5.98,6.58Z"/><path class="cls-1" d="m250.71,147.13c-.16,3.28-2.94,5.81-6.21,5.65-3.27-.16-5.8-2.94-5.65-6.22.16-3.27,2.94-5.8,6.22-5.64,3.28.16,5.8,2.94,5.65,6.21Z"/><path class="cls-1" d="m266.61,158.41c-.08,2.39-3.51,5.55-6.3,5.44-2.8-.09-6.01-3.19-5.92-5.86.09-2.66,3.2-3.2,6.22-3.1,3.03.11,6.08,1.14,6,3.52Z"/><path class="cls-1" d="m292.1,131.32c-.69,0-1.36-.33-1.77-.95-.07-.09-1.87-2.64-5.17-2.73-.07,0-.14,0-.21,0-3.59,0-5.63,2.42-5.72,2.52-.74.9-2.08,1.04-2.98.3-.9-.74-1.05-2.05-.33-2.97.14-.17,3.34-4.11,9.03-4.11.1,0,.21,0,.32,0,5.56.14,8.48,4.44,8.6,4.62.65.98.39,2.29-.59,2.95-.36.24-.77.36-1.18.36Z"/><path class="cls-1" d="m251.18,130.2c-.71,0-1.41-.36-1.81-1.01-.06-.09-1.68-2.58-4.62-2.65-.06,0-.11,0-.17,0-3.22,0-5.07,2.37-5.15,2.47-.71.92-2.04,1.12-2.97.41-.93-.7-1.13-2.01-.43-2.95.13-.18,3.3-4.35,8.83-4.18,5.27.13,8.01,4.48,8.13,4.67.62,1,.3,2.31-.7,2.92-.35.21-.73.32-1.11.32Z"/><g><path class="cls-1" d="m265.96,172.61c-.47,0-.95-.05-1.43-.14-3.57-.71-5.98-3.86-5.86-7.68l-.02-2.43c0-1.03.82-1.87,1.85-1.88,0,0,.01,0,.02,0,1.02,0,1.86.83,1.87,1.85l.02,2.5c-.06,2.03,1.11,3.63,2.85,3.97,1.6.32,2.67-.43,3.02-1.3.38-.96,1.47-1.42,2.43-1.04.96.38,1.42,1.47,1.04,2.43-.92,2.31-3.19,3.72-5.78,3.72Z"/><path class="cls-1" d="m256.79,172.11c-2.31,0-4.82-1.37-5.32-4.15-.18-1.01.49-1.99,1.51-2.17,1.02-.19,1.99.49,2.17,1.51.22,1.21,1.83,1.08,1.85,1.07.88-.09,1.56-1.62,1.63-3.64l.08-2.72c.03-1.03.89-1.8,1.92-1.81,1.03.03,1.84.89,1.81,1.92l-.08,2.73c-.13,4.16-2.04,6.93-4.98,7.23-.19.02-.38.03-.58.03Z"/></g></g><g><path class="cls-4" d="m279.83,193.19s2.29-23.33,16.81-28.17c12.27-4.09,20.31,8.27,15.68,16.13-4.32,7.32-5.23,13.86-5.23,13.86"/><path class="cls-1" d="m307.09,197.02c-.09,0-.19,0-.28-.02-1.1-.16-1.87-1.17-1.72-2.28.04-.28,1.01-7.03,5.49-14.61,1.76-2.98,1.27-7.04-1.21-10.11-2.83-3.5-7.35-4.65-12.08-3.08-13.12,4.38-15.42,26.23-15.44,26.45-.11,1.11-1.1,1.91-2.21,1.81-1.11-.11-1.92-1.1-1.81-2.21.1-1.01,2.6-24.7,18.18-29.89,6.4-2.13,12.57-.5,16.5,4.37,3.54,4.37,4.16,10.28,1.55,14.7-4.04,6.85-4.96,13.05-4.97,13.11-.14,1.01-1.01,1.74-2,1.74Z"/></g></g><g><g><path class="cls-4" d="m77.16,115.11s-22.52,29.14-20.7,52.24c1.78,22.55,20.8,26.58,41.93,26.08,18.97-.45,51.51-10.82,43.86-42.72-5.9-24.6-16.78-36.23-16.78-36.23"/><path class="cls-1" d="m95.15,195.49c-11.23,0-19.51-1.49-25.89-4.64-8.97-4.43-13.96-12.28-14.83-23.34-1.86-23.6,20.18-52.42,21.12-53.63.68-.88,1.95-1.05,2.83-.36.88.68,1.05,1.95.36,2.83-.22.29-22.02,28.8-20.29,50.85,1.39,17.61,13.3,24.85,39.86,24.22,19.31-.46,32.42-8.76,37.79-15.74,5.07-6.59,6.47-14.83,4.16-24.49-5.69-23.7-16.19-35.21-16.3-35.33-.76-.82-.71-2.09.1-2.85.82-.76,2.09-.72,2.85.1.46.49,11.32,12.31,17.27,37.14,2.61,10.9.97,20.29-4.88,27.9-9.45,12.29-27.94,17-40.9,17.31-1.12.03-2.21.04-3.27.04Z"/></g><g><path class="cls-1" d="m138,70.8c4.12-4.87,10.43-8.1,18.23-9.32,7.11-1.13,15.1,1.24,21.85,7.43,9.74,8.93,11.86,30.39,3.3,40.25-4.32,4.97-11.85,9.11-17.99,10.07-1.28.2-2.5.45-3.7.59-7.02.82-12.78-.27-17.15-3.26-5.49-3.75-8.84-10.49-9.93-20.05-.03-.29-.14-1.18-.18-1.47-1.28-10.21.59-18.36,5.57-24.24Z"/><path class="cls-1" d="m106.62,14.22c19.44-1.58,39.99,6.07,52.54,24.27,5.58,8.09,11.81,22.07,12.64,33.22.06.72-49.52-2.94-49.52-2.94-1.31.04-2.4-.78-2.61-1.93l-15.64-41.63c-.14-.75-6.06-10.29,2.59-10.98Z"/><g><path class="cls-4" d="m51.88,54.37c8.3-20.15,25.87-32.05,51.22-33.6,20.97-1.28,38.8,7.86,49.46,23.19,12.74,18.32,21.86,49.37,15.75,65.5-4.58,12.08-19.47,20.16-33.81,23.7-13.79,3.4-34.13,4.65-46.72,3.36-21.22-2.17-35.56-13.36-40.03-30.94-2.32-9.13-3.85-31.85,4.13-51.21Z"/><path class="cls-1" d="m98.98,139.05c-4.09,0-7.97-.17-11.41-.52-21.88-2.23-37.11-14.06-41.78-32.45-2.57-10.1-3.7-33.28,4.22-52.48h0c8.74-21.22,27.06-33.27,52.97-34.85,21.04-1.28,39.72,7.48,51.24,24.06,6.49,9.33,12.04,21.8,15.24,34.22,3.47,13.47,3.73,25.24.74,33.15-4.26,11.23-17.42,20.55-35.21,24.95-10.06,2.48-23.96,3.93-36,3.93Zm8.02-116.38c-1.25,0-2.51.04-3.78.12-24.26,1.48-41.37,12.67-49.48,32.35h0c-7.54,18.3-6.48,40.35-4.04,49.95,4.29,16.9,17.88,27.35,38.27,29.43,12.94,1.32,33.15-.14,46.03-3.31,12.74-3.15,27.94-10.7,32.4-22.46,4.79-12.65-.4-41.89-15.51-63.62-10-14.4-25.85-22.45-43.9-22.45Zm-55.12,31.7h0,0Z"/></g><path class="cls-1" d="m32.48,96.61c-.16-10.7,3.64-18.59,6.98-22.1,3.98-4.19,8.74-6.34,14.02-6.25,6.4.1,11.82,2.44,15.68,6.74,4.58,5.11,8.18,14.9,7.56,26.51-.51,9.51-4.58,17.35-11.42,20.94-8.52,4.48-17.32.62-22.55-3.29-5.79-4.32-10.11-12.6-10.27-22.56Z"/><path class="cls-1" d="m51.82,50c4.45-10.6,16.19-29.59,46.16-34.98,13.94-2.5,29.91.33,36.94,3.76,18.91,9.22,27.4,28.28,27.66,28.88.46.99-.61,17.52-.61,17.52,0,0-2.78-10.97-13.71-21.3-12.56-11.88-29.26-11.71-37.58-10.78-14.77,1.65-29.52,7.34-36.7,23.13-5.71,12.57-6.04,27.15-6.04,27.15l-23.08-.93s.44-16.91,6.96-32.45Z"/><path class="cls-8" d="m36.33,104.54c-1.34-6.8-.92-16.49-.11-20.28.24-1.11.91-3.46,3.76-3.47,1.14,0,2.29.63,2.76,2.14.31,1.02,1.21,7.45,2.9,11.21.17-4.61,1.15-9.86,1.79-11.92.43-1.35,1.31-2.5,2.27-2.88.76-.3,1.59-.41,2.68-.15,1.12.28,2.43,1.44,2.82,3.72.54,3.18,3.33,13.34,5.96,19.04.56,1.22.79,3.53-.9,4.35-.5.24-1.25.25-1.68.12-1.22-.39-2.03-1.48-2.39-2.25-2.04-4.36-3.59-8.46-4.74-13.19-.36,3.3-.61,6.12-.38,9.55.04.64.38,4.85.39,5.03.05,1.11-.5,2.49-1.64,2.92-.17.06-.6.14-.72.15-1.3.06-2.34-.87-2.9-1.78-1.5-2.41-3.08-5.36-4.51-8.82-.62-1.5-1.04-2.77-1.49-4.22-.02,3.87.36,7.54,1.14,11.12.15.7,1.04,3.12.34,4.13-.34.49-1.37,1.1-2.43.65-1.84-.78-2.76-4.28-2.93-5.18Z"/><g><path class="cls-1" d="m99.75,82.63c.33,3.39,3.33,5.87,6.72,5.54,3.38-.33,5.86-3.33,5.54-6.72-.33-3.38-3.33-5.86-6.72-5.53-3.39.33-5.86,3.33-5.54,6.71Z"/><path class="cls-1" d="m140.12,79.99c.31,3.15,3.03,5.48,6.09,5.19,3.06-.29,5.29-3.09,4.99-6.26-.3-3.15-3.03-5.48-6.09-5.19-3.06.3-5.29,3.1-4.99,6.26Z"/><path class="cls-1" d="m123.71,91.8c.19,2.33,3.69,5.26,6.42,5.03,2.73-.22,5.73-3.4,5.51-6.01-.21-2.6-3.28-2.98-6.23-2.74-2.95.25-5.89,1.4-5.7,3.72Z"/><path class="cls-1" d="m126.42,104.97c-.6,0-1.17-.36-1.4-.95-.31-.77.07-1.66.84-1.97,2.86-1.15,3.09-4.61,3.07-5.92-.04-.4-.03-.66-.03-.7.01-.8.64-1.45,1.44-1.49.82-.02,1.49.55,1.57,1.35,0,.05.03.3.04.7.11,1.12.66,3.8,3.18,5.38.71.44.92,1.38.48,2.08-.44.71-1.38.92-2.08.48-1.18-.74-2.06-1.63-2.72-2.56-.73,1.41-1.92,2.72-3.83,3.49-.18.07-.38.11-.56.11Z"/><path class="cls-1" d="m96.4,66.15c-.41,0-.82-.12-1.19-.36-.96-.65-1.23-1.96-.58-2.93.12-.18,3.04-4.48,8.6-4.62,5.88-.17,9.21,3.93,9.34,4.1.73.92.58,2.25-.33,2.98-.91.73-2.24.58-2.98-.32-.11-.13-2.19-2.59-5.92-2.52-3.31.08-5.11,2.63-5.18,2.74-.41.6-1.08.92-1.76.92Z"/><path class="cls-1" d="m137.32,65.03c-.38,0-.77-.1-1.12-.32-.99-.62-1.3-1.91-.68-2.9.11-.19,2.85-4.54,8.13-4.67,5.55-.14,8.7,4,8.83,4.18.7.94.5,2.27-.44,2.97-.94.7-2.26.5-2.96-.43-.1-.13-2.02-2.53-5.32-2.47-2.94.08-4.56,2.56-4.63,2.67-.41.64-1.1.99-1.8.99Z"/></g></g><g><path class="cls-4" d="m163.4,136s16.84,5.63,14.74,24.77c-.61,5.6-4.89,10.34-11.13,10.72-6.24.37-8,1.36-13.29-1.42-6.69-3.51-6.88-20.17,4.03-21.11,5.69-.49,8.63,2.06,8.63,2.06"/><path class="cls-1" d="m160.38,174.11c-2.28,0-4.43-.45-7.66-2.14-5.02-2.63-6.57-9.82-5.48-15.25,1.15-5.74,5.01-9.44,10.32-9.9,6.52-.57,10.07,2.45,10.22,2.57.89.78.99,2.13.21,3.02s-2.13.99-3.02.21c-.07-.06-2.42-1.93-7.04-1.54-4.6.4-6.04,4.23-6.49,6.48-.88,4.36.62,9.22,3.27,10.61,3.66,1.92,5.17,1.78,8.82,1.44.98-.09,2.07-.19,3.34-.27,4.84-.29,8.59-3.91,9.13-8.81,1.88-17.13-12.68-22.29-13.3-22.51-1.12-.38-1.72-1.6-1.34-2.71.38-1.12,1.58-1.72,2.71-1.35.18.06,18.45,6.41,16.19,27.04-.77,7.01-6.17,12.2-13.13,12.62-1.22.07-2.27.17-3.21.26-1.3.12-2.44.23-3.55.23Z"/></g><g><g><g><path class="cls-4" d="m141.37,164.02l5.44-32.04s-1.52-9.95-9.61-13.07c-5.83-2.24-12.59-.67-12.59-.67-1.63.12-3.25,1.73-3.61,3.59l-5.66,28.97c-.36,1.87.68,3.29,2.31,3.17l13.35-.95c7-.5,10.36,10.99,10.36,10.99Z"/><path class="cls-1" d="m141.37,165.52c-.66,0-1.25-.44-1.44-1.08-.84-2.87-4.07-10.27-8.81-9.92l-13.35.95c-1.19.08-2.25-.33-3-1.18-.84-.95-1.17-2.32-.89-3.77l5.66-28.98c.48-2.48,2.59-4.56,4.85-4.79.96-.21,7.52-1.49,13.36.75,8.8,3.39,10.49,13.8,10.55,14.24.02.16.02.32,0,.48l-5.44,32.04c-.12.69-.69,1.21-1.39,1.25-.03,0-.06,0-.09,0Zm-9.91-14.01c4.45,0,7.48,3.83,9.29,7.19l4.54-26.71c-.28-1.4-2.09-9.16-8.62-11.68-5.31-2.04-11.65-.62-11.72-.61-.08.02-.16.03-.23.04-.85.06-1.99,1.09-2.24,2.38l-5.66,28.98c-.1.51-.03.97.19,1.21.05.05.19.21.54.18l13.35-.95c.19-.01.38-.02.56-.02Z"/></g><g><path class="cls-4" d="m141.43,164.02l5.44-32.04s3.98-14.12,12.92-15.85c3.88-.75,6.25-.6,6.25-.6,1.63-.12,2.67,1.3,2.31,3.17l-5.66,28.97c-.36,1.87-1.97,3.48-3.61,3.59l-3.38.24c-7,.5-14.28,12.52-14.28,12.52Z"/><path class="cls-1" d="m141.43,165.52c-.17,0-.35-.03-.52-.09-.67-.25-1.08-.95-.96-1.66l5.44-32.04c0-.05.02-.1.04-.16.17-.61,4.35-15.03,14.08-16.92,3.62-.7,6.01-.66,6.53-.63,1.12-.06,2.17.36,2.9,1.19.84.95,1.17,2.32.89,3.77l-5.66,28.98c-.48,2.53-2.67,4.64-4.97,4.8l-3.38.24c-5.1.36-11.19,8.64-13.11,11.8-.28.46-.77.72-1.28.72Zm6.9-33.21l-4.35,25.62c2.95-3.55,7.25-7.62,11.62-7.93l3.38-.24c.85-.06,1.99-1.09,2.24-2.38l5.66-28.98c.1-.51.03-.97-.19-1.21-.05-.05-.19-.21-.54-.18-.07,0-.13,0-.2,0-.02,0-2.26-.12-5.87.58-7.62,1.47-11.43,13.67-11.74,14.72Z"/></g></g><g><g><path class="cls-4" d="m140.19,168.53l6.52-34.64s-1.51-7.59-10.3-10.66c-6.33-2.21-14.73-.03-14.73-.03-1.76.13-3.47,1.74-3.82,3.61l-5.46,28.96c-.35,1.87.8,3.28,2.56,3.16l14.39-1.02c7.55-.54,10.84,10.63,10.84,10.63Z"/><path class="cls-1" d="m140.19,170.02c-.66,0-1.25-.43-1.44-1.07-.03-.1-3.07-10.03-9.3-9.56l-14.39,1.02c-1.26.1-2.44-.37-3.23-1.25-.84-.94-1.17-2.28-.91-3.68l5.46-28.96c.46-2.48,2.66-4.57,5.04-4.81,1.14-.28,9.14-2.11,15.47.1,9.49,3.31,11.21,11.44,11.28,11.78.04.19.04.38,0,.57l-6.52,34.64c-.13.68-.71,1.18-1.4,1.22-.03,0-.05,0-.08,0Zm-10.3-13.65c4.76,0,7.9,3.8,9.73,7.07l5.56-29.53c-.34-1.27-2.21-6.82-9.26-9.28-5.82-2.03-13.78-.01-13.86,0-.09.02-.18.04-.27.04-1.08.08-2.23,1.19-2.45,2.39l-5.46,28.96c-.09.47-.01.89.2,1.13.21.24.54.26.78.25l14.39-1.02c.22-.02.44-.02.65-.02Z"/></g><g><path class="cls-4" d="m140.26,168.52l6.52-34.64s3.51-11.24,13.12-13.02c4.17-.77,6.73-.64,6.73-.64,1.76-.13,2.91,1.29,2.56,3.16l-5.46,28.96c-.35,1.87-2.06,3.48-3.82,3.61l-3.64.26c-7.55.54-16.01,12.31-16.01,12.31Z"/><path class="cls-1" d="m140.26,170.02c-.2,0-.4-.04-.59-.12-.65-.28-1.01-.96-.88-1.66l6.52-34.64c.01-.06.03-.11.04-.17.15-.49,3.9-12.12,14.28-14.04,3.91-.72,6.47-.68,6.99-.66,1.22-.06,2.37.39,3.13,1.25.84.94,1.17,2.28.91,3.68l-5.46,28.96c-.47,2.53-2.75,4.65-5.19,4.83l-3.64.26c-5.62.4-12.66,8.58-14.9,11.69-.29.4-.75.62-1.22.62Zm7.98-35.77l-5.43,28.87c3.34-3.59,8.43-8.06,13.36-8.41l3.64-.26c1.08-.08,2.23-1.19,2.45-2.39l5.46-28.96c.09-.47.01-.89-.2-1.13-.21-.24-.54-.27-.77-.25-.06,0-.12,0-.19,0-.02,0-2.47-.11-6.38.61-8.2,1.52-11.62,10.98-11.94,11.92Z"/></g></g><g><path class="cls-7" d="m139.76,168.6l6.45-35.25s-3.37-5.16-11.8-5.07c-10.93.11-16.03,1.92-16.03,1.92-1.85.13-3.63,1.75-3.97,3.62l-4.52,28.39c-.34,1.87.88,3.27,2.73,3.14,0,0,3.57.04,11.92-.35,8.35-.39,15.21,3.6,15.21,3.6Z"/><path class="cls-1" d="m139.76,170.62c-.35,0-.7-.09-1.01-.27-.13-.07-6.5-3.65-14.1-3.33-7.76.36-11.4.35-11.96.35-1.45.07-2.81-.45-3.72-1.47-.94-1.06-1.33-2.54-1.05-4.06l4.51-28.34c.5-2.71,2.9-4.97,5.54-5.29,1.2-.38,6.51-1.86,16.43-1.95.07,0,.15,0,.22,0,9.27,0,13.13,5.74,13.29,5.99.28.43.39.96.3,1.47l-6.45,35.25c-.12.65-.54,1.2-1.14,1.47-.27.12-.56.18-.85.18Zm-14.06-7.66c5.29,0,9.86,1.53,12.55,2.67l5.81-31.73c-1.07-1.15-4.07-3.62-9.63-3.6-10.36.1-15.33,1.79-15.38,1.81-.17.06-.35.1-.53.11-.93.07-1.95,1-2.12,1.97l-4.51,28.35c-.06.33-.03.57.08.68.09.1.28.14.51.13.05,0,.11,0,.16,0,.03,0,3.63.03,11.81-.35.42-.02.83-.03,1.25-.03Z"/></g><g><path class="cls-7" d="m139.84,168.6l6.37-34.63s.88-5.52,11.58-6.34c5.66-.43,8.74-.62,8.74-.62,1.85-.13,3.07,1.28,2.73,3.14l-5.32,28.95c-.34,1.87-2.12,3.49-3.97,3.62l-6.93.49c-7.93.56-13.19,5.39-13.19,5.39Z"/><path class="cls-1" d="m139.84,170.62c-.33,0-.67-.08-.98-.25-.76-.42-1.17-1.28-1.01-2.13l6.37-34.63c.04-.24,1.27-7.05,13.41-7.99,5.61-.43,8.74-.62,8.77-.62,1.48-.09,2.87.43,3.79,1.47.95,1.06,1.33,2.54,1.05,4.06l-5.33,28.95c-.5,2.76-3.06,5.08-5.81,5.27l-6.93.49c-7.14.51-11.92,4.82-11.96,4.86-.38.35-.87.53-1.37.53Zm26.92-41.6s-.06,0-.09,0c-.05,0-3.16.19-8.73.62-8.73.67-9.71,4.54-9.75,4.7l-5.49,29.88c2.5-1.35,5.99-2.73,10.19-3.03l6.93-.49c.94-.07,1.95-1,2.12-1.97l5.33-28.95c.05-.28.02-.52-.08-.63-.08-.09-.23-.13-.42-.13Z"/></g></g><g><path class="cls-6" d="m59.37,117.95l-1.02-3.14c-.88-2.72.61-5.65,3.33-6.53l38.44-12.49,12.55,1.73c.57.09,1.03.48,1.22,1.02.14.53-.02,1.12-.42,1.52l-9.13,8.72-38.44,12.49c-2.72.88-5.65-.61-6.53-3.33Z"/><path class="cls-1" d="m64.29,123.19c-1.06,0-2.12-.25-3.1-.75-1.63-.83-2.83-2.24-3.4-3.98l-1.02-3.14c-1.17-3.59.81-7.45,4.39-8.62l38.44-12.49c.24-.08.49-.1.74-.07l12.55,1.73c1.18.18,2.15.99,2.56,2.1.02.05.03.1.05.15.29,1.11-.04,2.3-.86,3.11l-9.15,8.74c-.18.17-.4.3-.63.38l-38.44,12.49c-.7.23-1.41.34-2.12.34Zm35.98-25.7l-38.08,12.37c-1.85.6-2.86,2.59-2.26,4.44l1.02,3.14h0c.29.9.91,1.62,1.75,2.05.84.43,1.79.5,2.69.21l38.08-12.37,8.6-8.21-11.79-1.63Z"/><g class="cls-9"><rect class="cls-1" x="100.38" y="91.31" width="19.4" height="16.88" transform="translate(170.94 -35.76) rotate(72.01)"/><rect class="cls-1" x="60.38" y="111.9" width="13.63" height="3.51" transform="translate(154.54 14.64) rotate(72.01)"/><rect class="cls-1" x="66.05" y="110.06" width="13.63" height="3.51" transform="translate(156.71 7.97) rotate(72.01)"/></g></g><g><path class="cls-4" d="m95.53,144.69c1.42-6.79-4.45-21.75-2.32-33.12,1.62-8.65-4.37-13.3-10.73-13.77-8.04-.59-14.38,5.75-15.4,15.21-.79,7.35,2.2,23.93,2.2,23.93"/><path class="cls-1" d="m95.54,146.72c-.14,0-.28-.01-.42-.04-1.09-.23-1.79-1.3-1.56-2.39.55-2.63-.25-7.2-1.09-12.05-1.17-6.72-2.5-14.33-1.24-21.03.58-3.11.09-5.71-1.47-7.73-1.61-2.1-4.32-3.43-7.42-3.65-6.9-.51-12.34,5.01-13.24,13.41-.75,6.98,2.16,23.19,2.18,23.36.2,1.1-.53,2.15-1.63,2.35-1.1.19-2.15-.53-2.35-1.63-.12-.69-3.03-16.95-2.23-24.5,1.12-10.52,8.5-17.67,17.55-17.01,4.25.31,8.02,2.21,10.33,5.22,2.26,2.93,3.03,6.71,2.24,10.94-1.12,5.97.14,13.21,1.25,19.59.95,5.47,1.77,10.19,1.06,13.57-.2.95-1.04,1.61-1.98,1.61Z"/></g><g><path class="cls-4" d="m121.76,182.67c8.96,5.64,10.59,14.68,10.93,18.72.61,7.29,6.69,14.41,14.72,17.08,9.52,3.17,22.05.84,22.47-9.36.34-8.31-7.73-17.85-7.73-17.85,0,0,3.88-14.96-5.42-24.15-5.75-5.68-16.14-3.95-21.56-1.22"/><path class="cls-1" d="m155.53,221.82c-2.87,0-5.87-.47-8.76-1.44-8.79-2.93-15.41-10.68-16.09-18.83-.36-4.29-2.13-12.23-9.99-17.17-.94-.59-1.23-1.84-.63-2.79.59-.94,1.84-1.23,2.79-.63,9.34,5.88,11.44,15.21,11.86,20.26.54,6.49,6.15,12.94,13.34,15.34,5.93,1.98,12.49,1.53,16.32-1.11,2.2-1.52,3.38-3.68,3.49-6.42.31-7.43-7.18-16.37-7.25-16.46-.42-.5-.58-1.18-.41-1.81.03-.14,3.45-13.96-4.88-22.2-4.87-4.82-14.18-3.4-19.23-.86-.99.5-2.21.1-2.71-.9-.5-1-.1-2.21.9-2.71,5.71-2.88,17.24-4.99,23.89,1.59,8.66,8.56,6.91,21.37,6.18,25.07,2,2.57,7.88,10.8,7.57,18.44-.17,4.02-1.98,7.34-5.23,9.58-2.93,2.02-6.89,3.06-11.14,3.06Z"/></g><g><path class="cls-4" d="m93.47,192.92c6.54.94,5.21,11.49,5.22,14.58.02,9.1,6.57,13.76,13.51,16.21,6.37,2.25,24.71,3.02,27.72-6.74,3-9.74-7.84-21.22-7.84-21.22,0,0,4.54-14.78-2.27-24.85-5.85-8.65-15.74-12.38-28.52-6.49"/><path class="cls-1" d="m122.42,227.15c-4.3,0-8.33-.63-10.89-1.53-9.7-3.42-14.83-9.69-14.85-18.11,0-.4.02-.92.04-1.52.2-5.19-.06-10.57-3.53-11.06-1.11-.16-1.87-1.18-1.71-2.29.16-1.11,1.19-1.87,2.29-1.71,7.54,1.08,7.16,10.99,6.99,15.22-.02.54-.04,1-.04,1.35.02,6.66,4.11,11.47,12.16,14.31,4.05,1.43,14.46,2.37,20.82-.83,2.25-1.13,3.7-2.68,4.29-4.6,2.61-8.49-7.28-19.13-7.38-19.24-.5-.53-.67-1.29-.46-1.98.04-.14,4.16-13.99-2.02-23.12-5.91-8.74-15.15-10.79-26-5.78-1.01.47-2.21.03-2.68-.99-.47-1.01-.03-2.21.99-2.68,12.67-5.85,23.99-3.23,31.04,7.19,6.23,9.21,3.79,21.67,2.84,25.46,2.56,2.99,10.37,13.12,7.53,22.34-.93,3.01-3.06,5.37-6.33,7.02-3.68,1.85-8.54,2.56-13.1,2.56Z"/></g><g><path class="cls-4" d="m174.61,167.99c-2.06,2.05-6.41,4.11-8.93,4.42-3.68.46-8.11.83-13.17-2.3-7.11-4.39-6.88-17.99,5-20.37,5.43-1.09,8.88,1.27,8.88,1.27"/><path class="cls-1" d="m161.71,174.73c-2.91,0-6.47-.57-10.27-2.91-4.25-2.62-6.46-7.97-5.5-13.3,1-5.54,5.17-9.56,11.16-10.76,6.19-1.24,10.25,1.47,10.42,1.59.92.63,1.16,1.89.52,2.81-.63.92-1.89,1.16-2.81.52-.1-.07-2.88-1.85-7.34-.96-4.37.88-7.27,3.61-7.98,7.52-.66,3.66.84,7.42,3.64,9.15,4.35,2.69,8.09,2.48,11.86,2.02,2-.25,5.98-2.08,7.76-3.85.79-.79,2.07-.78,2.86,0,.79.79.78,2.07,0,2.86-2.29,2.27-7.01,4.61-10.11,4.99-1.15.14-2.58.32-4.22.32Z"/></g></g><g><g><path class="cls-4" d="m476.8,109.2s-22.95,37.12-18.32,61.14c3.84,19.93,21.13,28.98,42.02,27.28,34.59-2.8,53.14-22.31,47.52-44.45-4.89-19.28-20.7-38.15-20.7-38.15"/><path class="cls-1" d="m495.57,199.79c-20.75,0-35.5-10.83-39.02-29.08-4.72-24.49,17.62-61,18.58-62.54.57-.92,1.78-1.21,2.7-.64.92.57,1.21,1.78.64,2.7-.22.36-22.49,36.75-18.06,59.73,3.39,17.57,18.67,27.41,39.93,25.7,18.88-1.53,34.02-8.43,41.53-18.93,4.88-6.82,6.34-14.8,4.24-23.08-4.72-18.61-20.14-37.19-20.3-37.37-.7-.83-.59-2.07.25-2.77.83-.7,2.07-.59,2.77.24.66.79,16.15,19.44,21.1,38.93,2.39,9.44.71,18.54-4.86,26.33-8.31,11.61-24.08,18.92-44.41,20.56-1.73.14-3.43.21-5.09.21Z"/></g><circle class="cls-4" cx="537.2" cy="140.56" r="11.02"/><g><path class="cls-4" d="m517.93,171.93c9.17,5.77,10.84,15.02,11.18,19.15.62,7.46,6.84,14.74,15.06,17.48,9.74,3.25,22.56.85,23-9.58.35-8.5-7.91-18.26-7.91-18.26,0,0,2.95-16.27-7.73-24.31-3.59-2.71-7.92-3-13.32-1.44"/><path class="cls-1" d="m552.48,212.01c-2.94,0-6-.48-8.97-1.47-9-3-15.78-10.93-16.47-19.28-.37-4.39-2.18-12.51-10.21-17.56-.97-.61-1.26-1.89-.65-2.87.61-.97,1.9-1.26,2.87-.65,9.56,6.02,11.71,15.58,12.14,20.74.55,6.63,6.29,13.23,13.65,15.68,6.07,2.02,12.77,1.57,16.69-1.13,2.25-1.55,3.45-3.76,3.57-6.56.31-7.58-7.34-16.74-7.42-16.83-.4-.47-.57-1.1-.46-1.71.03-.15,2.58-15.12-6.93-22.28-2.94-2.21-6.48-2.55-11.49-1.1-1.1.32-2.25-.32-2.58-1.42-.32-1.1.32-2.26,1.42-2.58,6.22-1.8,11.17-1.22,15.15,1.78,10.14,7.63,9.16,21.56,8.67,25.38,1.99,2.55,8.12,11.06,7.8,18.94-.17,4.12-2.03,7.51-5.36,9.81-3,2.07-7.05,3.13-11.4,3.13Z"/></g><g><path class="cls-4" d="m498.89,186.84c3.56,5.33,4.37,12.93,4.38,16.09.02,9.31,6.72,14.08,13.82,16.59,6.52,2.3,25.29,3.09,28.36-6.9,3.07-9.96-8.02-21.71-8.02-21.71,0,0,4.65-15.12-2.33-25.43-5.99-8.85-16.43-10.63-29.51-4.6-4.98,2.3-17.25,11.88-17.25,11.88"/><path class="cls-1" d="m527.54,223.04c-4.4,0-8.53-.64-11.15-1.57-9.93-3.5-15.19-9.92-15.21-18.55,0-3.09-.86-10.2-4.03-14.93-.64-.95-.38-2.25.57-2.88.95-.64,2.25-.38,2.88.57,3.71,5.55,4.72,13.45,4.73,17.24.02,6.8,4.2,11.73,12.43,14.63,4.14,1.46,14.8,2.42,21.3-.85,2.3-1.16,3.78-2.74,4.38-4.7,2.67-8.68-7.44-19.57-7.55-19.67-.51-.54-.69-1.32-.47-2.04.04-.14,4.26-14.31-2.06-23.65-5.42-8.01-14.98-9.38-26.92-3.88-4.71,2.17-16.72,11.54-16.84,11.63-.9.71-2.21.55-2.92-.36-.71-.91-.55-2.21.36-2.92.51-.4,12.51-9.76,17.65-12.13,13.8-6.37,25.5-4.43,32.1,5.32,6.38,9.42,3.88,22.17,2.91,26.05,2.63,3.07,10.61,13.42,7.71,22.86-.95,3.08-3.13,5.5-6.49,7.19-3.77,1.9-8.74,2.62-13.41,2.62Z"/></g><g><path class="cls-4" d="m546.02,132.37s21.73,6.61,20.82,25.3c-.28,5.75-4.59,8.01-9.8,8.4-5.21.38-11.23,2.8-16.08.8-10.37-4.27-5.96-19.7,4.43-20.96,6.4-.78,8.5.63,8.5.63"/><path class="cls-1" d="m545.35,169.53c-1.74,0-3.45-.25-5.11-.93-5.04-2.07-7.7-6.8-6.95-12.34.74-5.44,5.05-11.39,11.87-12.21,6.75-.82,9.32.63,9.77.93.86.58,1.09,1.74.52,2.6s-1.74,1.09-2.6.52c0,0,0,0,0,0-.01,0-1.94-.97-7.23-.33-4.93.6-8.06,4.97-8.6,8.99-.25,1.84-.29,6.33,4.66,8.37,2.83,1.17,6.48.49,10.01-.16,1.72-.32,3.5-.65,5.22-.78,7.77-.57,7.99-5.12,8.06-6.61.34-7.06-2.76-13.11-9.24-18-5-3.77-10.21-5.4-10.26-5.41-.99-.3-1.55-1.35-1.25-2.34.3-.99,1.35-1.55,2.34-1.25.23.07,5.81,1.8,11.33,5.94,7.48,5.61,11.22,12.96,10.82,21.25-.29,6.04-4.39,9.65-11.54,10.18-1.51.11-3.11.41-4.81.72-2.32.43-4.69.87-7.02.87Z"/></g><g><g><path class="cls-1" d="m537.24,73.17c4.61-4.59,11.31-7.34,19.35-7.91,7.34-.54,15.26,2.56,21.59,9.44,9.15,9.92,9.46,31.95-.1,41.24-4.83,4.68-12.85,8.25-19.17,8.7-1.32.09-2.58.24-3.81.28-7.21.24-12.98-1.37-17.17-4.79-5.27-4.29-8.09-11.44-8.38-21.26,0-.3-.04-1.22-.06-1.51-.42-10.5,2.18-18.63,7.75-24.19Z"/><path class="cls-1" d="m509.93,14.13c19.91-.63,40.48,8.22,52.36,27.43,5.28,8.53,10.92,23.11,11.21,34.52.02.74-50.36-5.51-50.36-5.51-1.34-.03-2.41-.92-2.57-2.1l-13.84-43.26c-.1-.77-5.66-10.8,3.19-11.07Z"/><g><path class="cls-4" d="m478.79,131.19c-12.52-5.06-24.2-14.36-26.7-28.06-1.73-9.47-1.84-32.72,7.19-51.91,9.39-19.96,27.4-30.89,52.41-30.73,20.69.13,39.18,11.28,48.71,27.64,11.4,19.54,15.39,51.37,8.39,67.39-5.24,11.99-18.59,17.46-32.9,20.09-4.79.88-10.17,1.33-15.67,1.45"/><path class="cls-1" d="m520.22,139.11c-1.11,0-2.03-.89-2.05-2.01-.02-1.13.88-2.07,2.01-2.1,5.74-.12,10.9-.6,15.34-1.41,16.92-3.1,27.19-9.28,31.39-18.89,6.71-15.36,2.77-46.6-8.28-65.53-9.5-16.3-27.49-26.5-46.95-26.62-.18,0-.36,0-.53,0-23.62,0-40.91,10.21-50.01,29.55-8.54,18.14-8.84,40.7-7.03,50.66,2.03,11.14,11.3,20.8,25.45,26.52,1.05.42,1.56,1.62,1.13,2.67-.42,1.05-1.62,1.56-2.67,1.13-15.48-6.26-25.66-17.05-27.95-29.6-1.91-10.46-1.6-34.14,7.35-53.15,9.83-20.88,28.39-31.91,53.72-31.91.19,0,.38,0,.57,0,20.9.13,40.24,11.11,50.47,28.66,11.8,20.23,15.77,52.59,8.5,69.24-4.79,10.96-16.04,17.92-34.41,21.29-4.66.85-10.04,1.35-16,1.48-.01,0-.03,0-.04,0Z"/></g><path class="cls-1" d="m432.58,97.07c-.21-10.93,3.65-19,7.05-22.59,4.05-4.29,8.9-6.5,14.3-6.43,6.54.08,12.08,2.45,16.03,6.83,4.7,5.21,8.4,15.19,7.81,27.05-.49,9.72-4.62,17.73-11.58,21.43-8.69,4.61-17.69.69-23.04-3.28-5.93-4.4-10.37-12.83-10.56-23Z"/><path class="cls-1" d="m454.98,47.84c5.08-10.58,17.99-29.53,48.86-33.34,16.74-2.07,31.76,2.96,39.14,7.53,18.26,11.32,25.02,30.88,25.25,31.5.42,1.04-1.47,15.24-1.47,15.24,0,0-3.67-12.28-13.09-22.29-12.11-12.86-29.25-13.43-37.79-12.91-15.15.94-30.49,5.99-38.6,21.74-6.46,12.53-7.54,27.38-7.54,27.38l-23.5-2.12s1.3-17.23,8.74-32.74Z"/><path class="cls-8" d="m438.14,105.7c.11-.93.23-1.87.34-2.77.54-4,1.3-8.03,2.25-11.98l.21-.88c.57-2.39,1.16-4.85,2-7.18.4-1.09,1.3-2.24,2.63-2.24.87,0,1.64.14,2.32.41.67.26,1.51.95,1.7,2.67.13,1.17.17,2.4.22,3.58.04,1.03.08,2.08.18,3.1.19,2.13.43,4.1.7,5.95.5-1.83,1.08-3.73,1.71-5.66.09-.26.17-.53.26-.79.6-1.83,1.22-3.71,2.09-5.49.41-.86,1.37-1.85,2.71-1.85.83,0,1.69.15,2.66.45,1.2.38,2.02,1.58,2.11,3.06.04.7.04,1.42.04,2.1,0,.39,0,.76,0,1.15.15,7.47,1.17,14.67,2.06,20.11.22,1.37-.13,3.61-2.05,3.82-.19.02-.39.01-.58-.01-.4-.05-.79-.21-1.14-.47-.91-.68-1.4-1.92-1.55-2.79-.79-4.94-1.59-10.18-1.95-15.44-.98,3.27-1.81,6.61-2.5,9.96-.13.63-.25,1.26-.37,1.88-.16.79-.31,1.59-.48,2.39-.05.23-.1.43-.14.61-.29,1.08-1.19,2.21-2.5,2.19-.1,0-.21,0-.33-.02-.03,0-.06,0-.08,0-.11-.02-.23-.05-.35-.08-1.31-.4-2.09-1.67-2.4-2.73-.79-2.83-1.46-6.09-2.03-9.95-.24-1.66-.45-3.31-.61-4.94-.79,3.88-1.39,7.65-1.79,11.28-.07.71-.15,1.44-.22,2.2-.06.84-.51,1.88-1.34,2.32-.52.29-1.15.28-1.75.03-1.55-.67-2.18-2.51-2.01-3.98Z"/></g><g><path class="cls-1" d="m509.27,98.51c.17,3.44,3.08,6.09,6.51,5.92,3.43-.16,6.09-3.08,5.92-6.52-.16-3.43-3.08-6.08-6.52-5.92-3.44.17-6.08,3.08-5.92,6.51Z"/><path class="cls-1" d="m547.54,96.97c.16,3.25,2.91,5.75,6.15,5.59,3.24-.16,5.75-2.91,5.6-6.16-.15-3.24-2.91-5.74-6.16-5.59-3.25.16-5.75,2.91-5.59,6.15Z"/><path class="cls-1" d="m531.93,108.25c.08,2.36,3.47,5.49,6.24,5.39,2.77-.09,5.95-3.16,5.86-5.8-.09-2.64-3.17-3.17-6.16-3.07-3,.11-6.02,1.13-5.94,3.49Z"/><path class="cls-1" d="m505.18,81.73c-.39,0-.78-.11-1.13-.34-.94-.63-1.19-1.9-.57-2.84.12-.18,3-4.41,8.47-4.55.1,0,.21,0,.31,0,5.6,0,8.76,3.88,8.89,4.05.7.88.56,2.17-.32,2.87-.88.7-2.16.56-2.87-.31-.11-.13-2.21-2.61-5.91-2.51-3.32.08-5.16,2.7-5.17,2.73-.39.59-1.04.91-1.7.91Z"/><path class="cls-1" d="m545.7,81.18c-.37,0-.74-.1-1.08-.31-.95-.6-1.25-1.84-.66-2.8.11-.18,2.81-4.46,8-4.6,5.51-.16,8.57,3.94,8.7,4.11.67.91.48,2.19-.43,2.86-.9.67-2.18.48-2.85-.42-.1-.13-2.01-2.58-5.31-2.47-2.94.07-4.56,2.56-4.63,2.67-.39.61-1.06.95-1.74.95Z"/><g><path class="cls-1" d="m532.58,122.26c-2.54,0-4.76-1.38-5.67-3.65-.37-.92.08-1.97,1-2.34.92-.37,1.97.08,2.34,1,.35.89,1.43,1.64,3.04,1.32,1.75-.35,2.92-1.96,2.86-3.91l.02-2.55c0-.99.81-1.78,1.8-1.78h.02c.99,0,1.79.82,1.78,1.81l-.02,2.48c.12,3.68-2.25,6.78-5.76,7.48-.48.09-.95.14-1.41.14Z"/><path class="cls-1" d="m541.66,121.77c-.19,0-.38,0-.57-.03-2.88-.29-4.76-3.02-4.88-7.11l-.08-2.7c-.03-.99.75-1.82,1.74-1.85,1.02-.06,1.82.75,1.85,1.74l.08,2.7c.07,2.06.75,3.56,1.66,3.65.02,0,1.66.14,1.89-1.1.17-.98,1.1-1.63,2.09-1.45.98.17,1.63,1.11,1.45,2.09-.49,2.73-2.95,4.07-5.22,4.07Z"/></g></g></g><g><path class="cls-4" d="m487.92,161.53c7.29,5.62,20.59,10.54,32.02,11.21,13.57.8,20.92-4.46,21.39-12.72.34-5.97-4.93-11.18-11.33-11.9-6.71-.76-19.48,1.44-32.92-4.8"/><path class="cls-1" d="m522.56,174.84c-.89,0-1.8-.03-2.73-.08-11.33-.67-25.27-5.55-33.14-11.63-.88-.68-1.05-1.95-.37-2.83.68-.89,1.95-1.05,2.83-.37,7.3,5.63,20.29,10.17,30.91,10.79,7.18.42,12.7-.9,15.98-3.82,2.01-1.79,3.11-4.15,3.27-7,.27-4.77-4.01-9.16-9.54-9.78-1.63-.18-3.7-.18-6.12-.18-7.22,0-17.07.01-27.43-4.79-1.01-.47-1.45-1.67-.98-2.68.47-1.01,1.67-1.45,2.68-.98,9.55,4.43,18.91,4.42,25.72,4.42,2.53,0,4.72,0,6.57.21,7.62.86,13.5,7.15,13.12,14.02-.22,3.91-1.82,7.29-4.62,9.79-3.64,3.24-9.19,4.92-16.17,4.92Z"/></g></g><rect class="cls-5" width="1201.22" height="230"/></g></g></svg>