<svg width="438" height="480" viewBox="0 0 438 480" fill="none" xmlns="http://www.w3.org/2000/svg">
<g clip-path="url(#clip0_1106_25583)">
<path d="M337.56 473.96H103.54C98.85 473.96 108.71 474.16 108.71 469.47L98.97 469.58C98.97 379.13 132.93 274.28 236.99 306.11H249.5C263.4 306.11 274.67 317.38 274.67 331.28L337.57 473.96H337.56Z" fill="white"/>
<path d="M128.01 336.299C128.01 336.299 163.16 315.499 196.84 314.889C280.97 313.359 313.09 452.549 337.56 473.969" fill="white"/>
<path d="M337.56 479.829C336.19 479.829 334.81 479.349 333.7 478.379C325.69 471.369 317.86 455.059 307.95 434.409C296.6 410.779 282.48 381.369 264.17 358.539C243.41 332.669 221.39 320.289 196.96 320.749C165.28 321.329 131.35 341.149 131.01 341.349C128.22 342.999 124.62 342.069 122.97 339.279C121.32 336.489 122.24 332.889 125.03 331.239C126.52 330.359 161.92 309.639 196.74 309.009C260.22 307.819 295.31 380.949 318.53 429.319C327.49 447.989 335.23 464.109 341.43 469.539C343.87 471.669 344.12 475.379 341.98 477.819C340.82 479.149 339.19 479.819 337.56 479.819V479.829Z" fill="black"/>
<path d="M128.01 336.3C128.01 336.3 85.18 400.54 103.54 473.96Z" fill="white"/>
<path d="M103.53 479.84C100.9 479.84 98.5101 478.06 97.8401 475.39C92.4201 453.7 88.9701 418.81 103.32 375.75C111.88 350.06 122.67 333.73 123.12 333.05C124.92 330.35 128.56 329.62 131.26 331.42C133.96 333.22 134.69 336.86 132.89 339.56C132.48 340.18 91.7401 402.62 109.22 472.55C110.01 475.7 108.09 478.88 104.95 479.67C104.47 479.79 103.99 479.85 103.52 479.85L103.53 479.84Z" fill="black"/>
<path d="M306.19 184.26C320.94 172.23 341.06 166.36 364.38 167.35C385.63 168.19 407.41 179.97 423.36 202.35C446.41 234.65 440.16 299.68 409.66 323.91C394.27 336.11 370.06 343.97 351.74 343.2C347.92 343.03 344.24 343.05 340.69 342.77C319.89 341.07 303.83 334.42 292.9 322.93C279.16 308.55 273.38 286.51 275.74 257.47C275.82 256.58 276.02 253.87 276.07 253C278.27 221.91 288.4 198.79 306.2 184.26H306.19Z" fill="black"/>
<path d="M254.54 1.95941C311.77 8.81941 366.65 40.6594 392.5 102.699C403.99 130.269 413.17 177.229 409.15 211.139C408.9 213.329 270.08 168.699 270.08 168.699C266.27 168.029 263.58 164.939 260.96 165.409L239.69 31.2894C242.4 24.8894 229.09 -1.14059 254.54 1.95941V1.95941Z" fill="black"/>
<path d="M271.12 362.009C304.76 367.359 351.85 359.489 373.66 324.119C401.06 279.699 397.94 177.479 378.02 114.209C360.96 60.0192 307.4 24.1792 246.06 14.5292C171.91 2.84925 121.07 24.2392 84.63 79.0992C49.6 131.829 39.96 200.709 41.01 229.499C43.02 284.899 92.17 325.939 138.88 342.179C146.43 344.799 154.86 347.269 163.88 349.509" fill="white"/>
<path d="M290.9 369.32C283.81 369.32 276.86 368.77 270.21 367.71C267.06 367.21 264.92 364.25 265.42 361.1C265.92 357.95 268.88 355.81 272.03 356.31C319.21 363.81 354.61 344.03 368.76 321.09C380.89 301.42 387.66 267.73 387.82 226.21C387.97 188.07 382.25 146.85 372.52 115.95C357.06 66.8396 308.26 30.1696 245.17 20.2296C209.05 14.5396 179.03 16.8196 153.38 27.2096C128.21 37.3996 107.3 55.4196 89.4501 82.2896C56.2801 132.22 45.6801 198.95 46.7901 229.28C48.1601 266.97 77.7501 314.8 140.78 336.72C148.08 339.26 156.32 341.68 165.28 343.91C168.37 344.68 170.26 347.81 169.49 350.9C168.72 353.99 165.58 355.87 162.5 355.11C153.21 352.8 144.63 350.28 137 347.63C87.8701 330.55 37.3601 287.46 35.2601 229.71C34.0901 197.94 45.1701 128.1 79.8401 75.9096C99.0101 47.0396 121.65 27.6096 149.05 16.5196C176.69 5.32958 208.72 2.80958 246.97 8.83958C314.42 19.4596 366.75 59.1696 383.53 112.49C403.9 177.2 406.88 281.27 378.58 327.16C360.1 357.12 324.13 369.33 290.9 369.33V369.32Z" fill="black"/>
<path d="M0.87001 203.06C5.06001 170.62 20.01 148.42 31.64 139.27C45.5 128.34 60.84 123.91 76.77 126.49C96.08 129.59 111.45 139.03 121.24 153.74C132.87 171.21 139.47 202.38 132.52 237.24C126.82 265.78 111.09 287.71 88.84 295.59C61.11 305.42 36.18 289.89 22.06 275.78C6.44001 260.16 -3.00999 233.24 0.87001 203.06Z" fill="black"/>
<path d="M79.77 73.4699C98.78 44.3699 141.8 -1.69014 231.71 0.0498552C273.53 0.879855 318.35 19.5599 336.75 34.0399C386.19 72.9699 399.97 128.37 400.39 130.32C401.14 133.58 388.91 191.13 388.91 191.13C388.91 191.13 383.35 138.78 364.28 107.37C337.12 62.6299 291.62 52.4499 267.04 49.5799C220.39 44.1399 171.4 55.9899 141.52 99.0599C117.73 133.34 108.36 176.82 108.36 176.82L42.03 160.24C42.03 160.24 51.92 116.13 79.77 73.4699V73.4699Z" fill="black"/>
<path d="M11.06 239.11C11.54 236.13 12.06 233.12 12.55 230.25C14.85 217.47 17.82 204.63 21.37 192.04L22.15 189.24C24.28 181.65 26.48 173.82 29.47 166.42C30.89 162.98 33.84 159.41 37.97 159.57C40.67 159.7 43.05 160.25 45.12 161.21C47.17 162.16 49.67 164.48 50.02 170.04C50.24 173.82 50.19 177.79 50.15 181.58C50.11 184.9 50.09 188.29 50.24 191.57C50.51 198.46 50.94 204.82 51.51 210.8C53.36 204.98 55.43 198.95 57.69 192.84C58.01 192.02 58.31 191.17 58.61 190.34C60.75 184.52 62.96 178.57 65.92 172.97C67.33 170.28 70.47 167.2 74.62 167.39C77.18 167.49 79.84 168.1 82.81 169.2C86.46 170.59 88.85 174.58 88.91 179.32C88.93 181.58 88.82 183.89 88.72 186.09C88.66 187.33 88.61 188.55 88.57 189.79C87.89 213.83 89.97 237.13 91.91 254.74C92.4 259.16 90.95 266.31 84.95 266.73C84.34 266.75 83.74 266.73 83.16 266.61C81.92 266.38 80.73 265.81 79.68 264.92C76.95 262.62 75.62 258.54 75.3 255.75C73.58 239.77 71.88 222.8 71.56 205.84C68.04 216.22 64.93 226.83 62.28 237.52C61.77 239.52 61.31 241.54 60.84 243.53C60.23 246.05 59.64 248.61 58.98 251.15C58.81 251.89 58.62 252.52 58.45 253.11C57.4 256.52 54.43 260.07 50.34 259.79C50.03 259.79 49.69 259.73 49.33 259.67C49.24 259.67 49.16 259.64 49.07 259.63C48.73 259.54 48.36 259.46 47.99 259.32C43.97 257.85 41.74 253.67 40.95 250.21C38.91 241 37.35 230.41 36.13 217.96C35.64 212.59 35.25 207.25 34.98 202C31.95 214.37 29.49 226.41 27.71 238C27.38 240.26 27.03 242.6 26.68 245.04C26.36 247.73 24.81 251.01 22.16 252.32C20.49 253.17 18.55 253.07 16.72 252.18C12 249.82 10.31 243.8 11.06 239.1V239.11Z" fill="#59595C"/>
<path d="M277.8 231.23C276.49 237.42 283.27 247.74 290.53 249.26C297.78 250.82 308.03 244.9 309.5 237.97C310.97 231.06 303.32 227.68 295.49 226.01C287.63 224.36 279.12 225.04 277.81 231.23H277.8Z" fill="black"/>
<path d="M204.13 158.95C203.04 158.95 201.94 158.6 201.01 157.88C198.78 156.15 198.38 152.95 200.1 150.73C200.48 150.24 209.67 138.66 224.94 139.77C227.75 139.98 229.86 142.42 229.65 145.23C229.44 148.04 227.01 150.15 224.19 149.94C214.45 149.23 208.22 156.9 208.15 156.97C207.15 158.27 205.64 158.95 204.12 158.95H204.13Z" fill="black"/>
<path d="M368.16 188.28C366.27 188.28 364.45 187.22 363.57 185.41C363.48 185.22 359.34 177.15 351.48 176.58C348.67 176.37 346.56 173.93 346.77 171.12C346.98 168.31 349.43 166.21 352.23 166.41C366.09 167.43 372.49 180.42 372.76 180.97C373.98 183.51 372.91 186.55 370.37 187.77C369.66 188.11 368.91 188.27 368.16 188.27V188.28Z" fill="black"/>
<path d="M246.83 213.99C246.47 213.99 246.11 213.95 245.75 213.87C243.19 213.28 241.6 210.72 242.19 208.16C243.04 204.51 242.41 200.74 240.42 197.56C238.43 194.38 235.32 192.15 231.65 191.3C224.73 189.7 217.69 193.51 215.27 200.18C214.38 202.65 211.65 203.93 209.18 203.03C206.71 202.13 205.43 199.41 206.33 196.94C210.38 185.76 222.2 179.35 233.8 182.04C239.94 183.46 245.16 187.19 248.49 192.53C251.82 197.87 252.87 204.19 251.45 210.32C250.94 212.52 248.98 214 246.82 214L246.83 213.99Z" fill="#231F20"/>
<path d="M358.26 233.53C358.17 233.53 358.09 233.53 358 233.53C355.38 233.39 353.37 231.15 353.51 228.52C353.88 221.61 350.1 215.57 344.71 214.47C341.81 213.88 338.81 214.51 336.27 216.24C333.45 218.16 331.54 221.23 330.9 224.89C330.44 227.48 327.97 229.21 325.39 228.75C322.8 228.29 321.07 225.83 321.53 223.24C322.62 217.04 325.95 211.76 330.91 208.38C335.59 205.19 341.16 204.04 346.6 205.14C356.74 207.2 363.64 217.25 363 229.03C362.86 231.57 360.76 233.53 358.25 233.53H358.26Z" fill="#231F20"/>
<path d="M275.15 275.62C274.94 275.62 274.73 275.62 274.52 275.61C267.48 275.38 261.3 271.69 257.58 265.48C256.28 263.31 256.98 260.49 259.15 259.18C261.32 257.88 264.14 258.58 265.45 260.75C266.68 262.8 269.53 266.26 274.82 266.43C281.56 266.62 283.99 260.27 284.73 257.51L287.4 246.98C288.02 244.52 290.52 243.04 292.98 243.66C295.44 244.28 296.92 246.78 296.3 249.24L293.61 259.83C290.98 269.64 283.94 275.61 275.16 275.61L275.15 275.62Z" fill="black"/>
<path d="M300.64 281.19C298.44 281.19 295.96 280.71 293.22 279.47C285.81 276.15 282.86 267.22 285.32 255.59L286.96 247.85C287.49 245.37 289.93 243.79 292.4 244.31C294.88 244.84 296.46 247.27 295.94 249.75L294.3 257.49C293.14 262.96 293.24 269.41 296.98 271.09C300.67 272.75 302.7 271.81 304.05 270.81C306.09 269.31 308.96 269.74 310.47 271.78C311.97 273.82 311.54 276.69 309.5 278.2C307.41 279.74 304.44 281.18 300.65 281.18L300.64 281.19Z" fill="black"/>
<path opacity="0.64" d="M214.68 240.93C213.08 256.97 197.05 268.5 178.86 266.69C160.68 264.88 147.22 250.41 148.82 234.38C150.41 218.34 166.45 206.81 184.64 208.62C202.82 210.43 216.27 224.9 214.68 240.93Z" fill="url(#paint0_radial_1106_25583)"/>
<path opacity="0.64" d="M382.28 278.98C380.88 293.05 367.74 303.26 352.93 301.78C338.12 300.31 327.25 287.71 328.65 273.64C330.05 259.57 343.19 249.36 358 250.84C372.81 252.31 383.68 264.91 382.28 278.98Z" fill="url(#paint1_radial_1106_25583)"/>
<path d="M321.34 369.58C337.05 398.06 335.59 428.97 318.08 438.63C300.57 448.29 273.64 433.03 257.93 404.56C242.22 376.08 248.65 358.94 266.16 349.28C283.67 339.62 305.63 341.11 321.34 369.58V369.58Z" fill="white"/>
<path d="M306.29 447.35C287.82 447.35 266.57 432.18 252.87 407.35C232.83 371.01 247.51 352.96 263.37 344.22C274.24 338.22 285.52 336.61 296 339.57C308.1 342.99 318.33 352.15 326.41 366.79C334.52 381.49 338.62 397.34 337.95 411.44C337.24 426.56 331.17 438.02 320.88 443.7C316.38 446.18 311.45 447.36 306.3 447.36L306.29 447.35ZM285.58 349.68C279 349.68 273.14 352.01 268.95 354.33C246.87 366.51 254.98 387.23 262.99 401.76C274.31 422.28 292.29 435.75 306.37 435.75C309.59 435.75 312.6 435.05 315.29 433.57C321.93 429.9 325.88 421.85 326.4 410.89C326.97 398.9 323.37 385.22 316.28 372.37C309.75 360.53 301.86 353.23 292.85 350.69C290.36 349.99 287.92 349.69 285.58 349.69V349.68Z" fill="black"/>
<path d="M144.84 377.6C144.84 377.6 143.31 428.08 198.38 431.14C237.05 433.29 281.61 409.05 303.92 377.6C315.19 361.71 323.11 335.01 310.04 321C296.57 306.57 280.16 312.27 257.73 326.88C239.11 339.01 216.6 361.55 192.26 373" fill="white"/>
<path d="M203.09 437.14C201.39 437.14 199.71 437.09 198.05 437C166.79 435.26 152.33 419.1 145.71 405.85C138.63 391.69 138.96 378 138.97 377.43C139.07 374.19 141.73 371.64 145.01 371.74C148.25 371.84 150.79 374.54 150.7 377.78C150.65 379.74 150.25 422.59 198.69 425.29C233.92 427.24 277.08 405.29 299.12 374.22C310.03 358.84 315.66 335.66 305.73 325.03C297.49 316.21 287.52 314.49 260.91 331.82C254.28 336.14 247.01 341.93 239.3 348.06C225.91 358.72 210.73 370.81 194.73 378.33C191.8 379.71 188.3 378.45 186.92 375.52C185.54 372.59 186.8 369.09 189.73 367.71C204.48 360.77 219.09 349.14 231.98 338.87C239.91 332.56 247.4 326.6 254.49 321.97C275.3 308.41 296.96 298.42 314.3 317C328.98 332.73 322.36 361.71 308.68 381C297.15 397.25 279.85 411.88 259.96 422.18C241.19 431.9 221.2 437.14 203.07 437.14H203.09Z" fill="black"/>
<path d="M279.33 318.43C287.39 331.32 277.18 344.16 261.73 353.82C246.28 363.48 231.44 366.31 223.38 353.42C215.32 340.53 223.4 325.05 238.85 315.39C254.3 305.73 271.26 305.54 279.32 318.44L279.33 318.43Z" fill="white"/>
<path d="M238.74 367.98C230.12 367.98 223.11 364.04 218.41 356.54C213.57 348.8 213.04 339.67 216.93 330.83C220.32 323.13 227 315.88 235.74 310.41C244.46 304.95 253.85 302.18 262.15 302.59C271.59 303.06 279.46 307.58 284.3 315.32C289.24 323.22 289.29 331.85 284.43 340.27C280.67 346.79 274.08 353.02 264.84 358.8C255.67 364.53 247.33 367.61 240.05 367.94C239.6 367.96 239.16 367.97 238.73 367.97L238.74 367.98ZM260.49 314.29C254.81 314.29 248.28 316.42 241.98 320.37C235.21 324.6 230.14 330 227.69 335.56C225.35 340.88 225.58 345.84 228.37 350.31C231.03 354.57 234.57 356.45 239.53 356.22C244.69 355.99 251.3 353.44 258.63 348.85C266.12 344.17 271.53 339.17 274.27 334.41C276.93 329.79 276.96 325.71 274.36 321.55C271.54 317.03 267.24 314.6 261.58 314.32C261.22 314.3 260.86 314.29 260.49 314.29V314.29Z" fill="black"/>
</g>
<defs>
<radialGradient id="paint0_radial_1106_25583" cx="0" cy="0" r="1" gradientUnits="userSpaceOnUse" gradientTransform="translate(181.301 235.243) rotate(5.68) scale(33.128 29.088)">
<stop offset="0.28" stop-color="#F7A9BD"/>
<stop offset="0.42" stop-color="#F8B4C5"/>
<stop offset="0.69" stop-color="#FAD2DD"/>
<stop offset="1" stop-color="white"/>
</radialGradient>
<radialGradient id="paint1_radial_1106_25583" cx="0" cy="0" r="1" gradientUnits="userSpaceOnUse" gradientTransform="translate(350.036 270.939) rotate(5.68) scale(27.068 25.452)">
<stop offset="0.28" stop-color="#F7A9BD"/>
<stop offset="0.42" stop-color="#F8B4C5"/>
<stop offset="0.69" stop-color="#FAD2DD"/>
<stop offset="1" stop-color="white"/>
</radialGradient>
<clipPath id="clip0_1106_25583">
<rect width="437.29" height="479.84" fill="white"/>
</clipPath>
</defs>
</svg>
