<svg width="733" height="147" viewBox="0 0 733 147" fill="none" xmlns="http://www.w3.org/2000/svg">
<g clip-path="url(#clip0_3_1546)">
<path d="M295.296 91.6605C302.042 69.2379 308.6 47.3439 315.222 25.4645C317.751 17.1067 320.935 14.6298 329.823 14.0432C333.575 13.7969 337.364 13.8549 341.065 14.6081C346.275 15.6655 349.269 18.997 350.224 24.1391C353.342 40.9633 356.468 57.7803 359.528 74.619C362.151 89.0822 364.664 103.56 367.273 118.023C368.052 122.354 368.147 126.54 364.526 129.749C361.604 132.334 358.165 133.116 354.355 131.82C350.238 130.415 348.147 127.395 347.404 123.296C345.437 112.512 343.484 101.72 341.539 90.929C338.719 75.2781 335.914 59.6271 333.116 43.9762C332.861 42.5567 332.687 41.1299 332.432 39.3917C327.113 57.2661 321.911 74.8508 316.65 92.4282C313.503 102.937 310.501 113.489 307.004 123.882C304.111 132.479 294.436 135.159 287.551 129.691C285.023 127.684 284.046 124.831 283.172 121.941C277.613 103.596 272.068 85.2509 266.56 66.8986C263.894 58.0266 261.307 49.1401 258.517 39.6959C256.455 51.0738 254.488 61.923 252.528 72.7794C249.489 89.6109 246.51 106.457 243.399 123.274C242.247 129.502 237.388 133.196 231.865 132.356C226.007 131.465 222.466 127.076 223.406 120.522C225.082 108.84 227.238 97.2227 229.322 85.6058C232.878 65.8122 236.528 46.0331 240.156 26.2467C241.701 17.831 244.491 15.2164 253.038 14.2025C257.285 13.6955 261.548 13.8186 265.722 14.6443C270.575 15.6075 273.54 18.7797 274.946 23.4294C280.564 41.999 286.188 60.5759 291.777 79.1528C292.971 83.1651 294.042 87.2064 295.296 91.6605Z" fill="white"/>
<path d="M490.818 73.1269C491.11 86.3734 488.837 98.4973 482.374 109.513C471.919 127.329 455.373 134.572 435.402 134.514C403.549 134.427 384.656 114.778 380.802 84.9684C379.141 72.142 380.001 59.4894 384.27 47.17C391.418 26.5507 408.255 13.7606 430.222 12.4352C442.95 11.6675 455.198 13.4057 466.17 20.3802C480.589 29.5491 487.307 43.4184 490.002 59.6632C490.782 64.3201 490.913 69.0132 490.818 73.1269ZM470.345 73.4239C470.345 71.0121 470.52 68.5859 470.309 66.1887C469.886 61.3724 468.859 56.6649 467.016 52.1601C460.436 36.0891 446.076 30.7296 429.136 32.9313C415.119 34.7492 406.47 43.0635 402.652 56.4186C400.095 65.363 399.935 74.4668 401.122 83.6575C403.702 103.647 417.217 115.104 437.435 114.308C454.025 113.656 464.925 104.805 468.881 88.8286C470.134 83.7661 470.695 78.6384 470.345 73.4239Z" fill="white"/>
<path d="M621.186 72.4173C621.267 85.9172 619.095 97.6355 613.15 108.514C607.023 119.725 597.886 127.416 585.719 131.429C572.903 135.651 559.934 135.724 547.067 131.82C532.372 127.359 521.88 117.842 516.175 103.77C508.037 83.701 507.84 63.2411 516.153 43.2012C524.27 23.6394 539.985 14.0866 560.801 12.4715C573.275 11.5083 585.304 13.4637 596.094 20.163C610.993 29.4189 617.74 43.6792 620.356 60.3369C621.048 64.7548 621.274 69.2089 621.186 72.4173ZM600.779 73.127C600.961 69.5203 600.713 65.6818 599.992 61.8795C597.456 48.4448 591.3 37.936 577.092 33.9164C571.883 32.439 566.557 32.1855 561.238 32.6852C548.78 33.8657 539.577 39.7973 534.623 51.5301C530.667 60.8873 529.909 70.7515 531.002 80.6375C533.042 99.084 541.508 112.323 561.639 114.127C577.202 115.517 590.921 110.237 597.267 94.6081C600.028 87.8147 601.063 80.7026 600.779 73.127Z" fill="white"/>
<path d="M680.316 106.131C686.961 88.7996 693.365 72.0623 699.791 55.3323C704.243 43.7371 708.658 32.1202 713.226 20.5685C715.164 15.6654 719.339 13.2609 724.053 13.8475C728.694 14.4341 732.097 17.8598 732.891 22.6398C733.248 24.7691 732.629 26.7029 731.893 28.6221C719.704 60.5034 707.522 92.3846 695.281 124.237C693.46 128.973 689.722 131.378 684.68 131.784C683.354 131.892 682.014 131.885 680.681 131.892C670.254 131.914 667.668 130.212 663.93 120.471C652.266 90.0815 640.776 59.6198 628.922 29.2956C625.6 20.8003 630.517 14.3907 637.002 13.8113C641.607 13.3985 645.665 15.9768 647.457 20.612C655.413 41.195 663.326 61.7925 671.245 82.39C674.211 90.125 677.161 97.8672 680.316 106.131Z" fill="white"/>
<path d="M159.688 99.8101C159.593 76.8877 158.114 59.7593 150.231 43.8984C141.174 25.6619 126.027 16.2033 105.845 14.5882C95.6013 13.7698 85.4885 14.6244 75.8275 18.5136C58.5381 25.4664 49.1758 39.0677 44.1486 56.1598C38.9683 73.7807 38.8372 91.8144 40.1122 109.935C40.615 117.033 41.8244 124.043 42.757 131.09C44.1923 141.99 37.0012 148.602 26.0214 146.69C13.905 144.583 3.95985 134.552 1.2568 121.255C-2.40798 103.257 1.80324 87.5631 15.7192 74.954C17.3002 73.52 18.2328 71.9556 18.8594 69.8843C23.9595 52.8718 30.9175 36.7791 43.4273 23.7064C61.0226 5.31063 82.8729 -2.05494 108.002 0.494401C139.775 3.72453 160.103 22.2 172.977 50.0762C175.957 56.522 178.492 63.1633 180.292 70.0436C180.802 72.0063 181.771 73.4403 183.265 74.7874C198.936 88.9609 203.789 110.782 195.053 129.185C190.062 139.709 181.953 146.538 169.706 146.835C160.657 147.053 155.199 141.28 156.3 132.387C157.866 119.698 159.862 107.074 159.688 99.8101Z" fill="white"/>
<path d="M99.8315 84.7068C103.831 84.7575 107.875 84.7213 111.649 86.2712C117.616 88.7191 118.95 94.303 114.585 99.0469C111.977 101.886 109.143 104.566 106.119 106.963C104.196 108.484 103.635 109.925 104.465 112.141C105.099 113.821 105.361 115.647 106.097 117.276C108.473 122.534 112.057 124.381 117.784 123.497C121.383 122.94 123.598 124.099 123.802 126.843C124.035 130.059 121.922 131.341 119.132 131.703C111.955 132.637 105.558 131.218 101.041 125.084C99.7586 123.345 99.2049 123.541 98.01 125.149C93.3544 131.413 86.819 132.717 79.5259 131.609C76.8228 131.196 74.9503 129.769 75.4021 126.728C75.8538 123.664 78.0031 123.005 80.7644 123.345C89.1286 124.388 95.5401 118.319 95.1394 109.882C95.0738 108.52 94.134 108.028 93.3544 107.361C90.2215 104.696 87.0084 102.118 84.3855 98.9237C80.1597 93.7816 81.6752 88.3425 87.9774 86.0901C91.8098 84.7213 95.8316 84.7285 99.8315 84.7068Z" fill="white"/>
</g>
<defs>
<clipPath id="clip0_3_1546">
<rect width="733" height="147" fill="white"/>
</clipPath>
</defs>
</svg>
