<svg width="367" height="413" viewBox="0 0 367 413" fill="none" xmlns="http://www.w3.org/2000/svg">
<path d="M358.716 412.203C358.716 412.203 354.403 332.83 268.757 284.448C183.111 236.066 258.143 97.9799 104.09 20.7746C-49.9623 -56.4344 78.5495 172.309 38.3792 221.124C8.20429 257.793 -13.3212 272.732 9.60313 337.253C23.1315 375.327 25.0657 412.207 25.0657 412.207H358.712L358.716 412.203Z" fill="#328B7D"/>
<path d="M174.865 412.128C175.51 412.128 176.076 411.661 176.181 411.006C176.442 409.417 182.267 371.75 163.837 350.14C155.663 340.559 143.944 335.698 129.013 335.698C121.781 335.698 117.359 334.226 115.496 331.196C111.567 324.814 118.667 310.805 126.887 294.579C143.872 261.05 167.136 215.126 129.959 178.005C65.828 113.969 44.2346 92.408 44.2346 11.5773C44.2346 10.8393 43.6352 10.2407 42.8961 10.2407C42.1571 10.2407 41.5576 10.8393 41.5576 11.5773C41.5576 93.5111 63.3508 115.272 128.04 179.869C163.875 215.65 141.112 260.575 124.496 293.374C115.56 311.013 108.502 324.942 113.215 332.592C115.605 336.482 120.775 338.368 129.009 338.368C143.118 338.368 154.147 342.908 161.79 351.865C179.42 372.526 173.599 410.204 173.538 410.581C173.421 411.307 173.915 411.993 174.647 412.109C174.718 412.121 174.79 412.128 174.862 412.128H174.865Z" fill="#30675E"/>
<path d="M154.611 412.128C155.199 412.128 155.734 411.744 155.896 411.149C156.179 410.129 162.679 385.936 148.314 367.067C137.613 353.013 118.312 345.89 90.9428 345.89C77.109 345.89 69.1195 343.45 66.5178 338.439C61.9368 329.607 73.825 312.804 87.5871 293.348C106.609 266.459 130.28 232.994 118.075 206.55C111.48 192.255 101.281 181.397 90.4866 169.903C64.5648 142.311 35.1892 111.032 35.1892 17.981C35.1892 17.2431 34.5897 16.6445 33.8507 16.6445C33.1117 16.6445 32.5122 17.2431 32.5122 17.981C32.5122 112.09 63.5731 145.157 88.5335 171.729C99.1774 183.061 109.229 193.764 115.643 207.664C127.199 232.712 104.022 265.477 85.4002 291.804C71.1329 311.972 58.8111 329.392 64.1387 339.667C67.2418 345.649 76.0081 348.559 90.9353 348.559C117.411 348.559 135.992 355.324 146.161 368.667C159.731 386.467 153.378 410.2 153.313 410.438C153.114 411.149 153.532 411.883 154.241 412.079C154.362 412.113 154.482 412.128 154.599 412.128H154.611Z" fill="#30675E"/>
<path d="M285.642 299.375C286.381 299.375 286.98 298.776 286.98 298.039C286.98 297.301 286.381 296.702 285.642 296.702C250.905 296.702 225.914 286.319 211.372 265.834C180.805 222.787 206.297 148.692 206.557 147.946C206.802 147.254 206.432 146.489 205.739 146.245C205.037 145.996 204.279 146.369 204.034 147.062C203.767 147.822 177.822 223.194 209.185 267.37C224.259 288.604 249.985 299.368 285.642 299.368V299.375Z" fill="#30675E"/>
<path d="M199.143 293.795C199.143 305.687 189.487 315.334 177.571 315.334C165.656 315.334 156 305.693 156 293.795C156 284.8 168.329 259.635 174.348 247.89C175.694 245.261 179.448 245.261 180.795 247.89C186.809 259.635 199.143 284.805 199.143 293.795V293.795Z" fill="#4DA99B"/>
<path d="M176.678 330.115C177.678 330.115 178.489 329.305 178.489 328.307V289.771C178.489 288.773 177.678 287.963 176.678 287.963C175.679 287.963 174.868 288.773 174.868 289.771V328.307C174.868 329.305 175.679 330.115 176.678 330.115Z" fill="#30675E"/>
<path d="M142.566 329.368H139.531C129.304 329.368 121 321.076 121 310.864V280.422C121 270.21 129.304 261.919 139.531 261.919H142.566C152.793 261.919 161.098 270.21 161.098 280.422V310.864C161.098 321.076 152.793 329.368 142.566 329.368Z" fill="#52B9A9"/>
<path d="M141.051 349.435C142.051 349.435 142.862 348.625 142.862 347.627V303.524C142.862 302.526 142.051 301.716 141.051 301.716C140.051 301.716 139.24 302.526 139.24 303.524V347.627C139.24 348.625 140.051 349.435 141.051 349.435Z" fill="#30675E"/>
</svg>
