<?xml version="1.0" encoding="UTF-8"?><svg id="Layer_2" xmlns="http://www.w3.org/2000/svg" xmlns:xlink="http://www.w3.org/1999/xlink" viewBox="0 0 3024.59 1441.03"><defs><style>.cls-1{fill:none;}.cls-2{clip-path:url(#clippath);}.cls-3{fill:#fff;}.cls-4{fill:#939598;}.cls-5{fill:#bcbec0;}.cls-6{fill:#a7a9ac;}.cls-7{fill:#d9ebcb;}.cls-8{fill:#165463;}.cls-9{fill:#0b5463;}.cls-10{fill:#41c0c3;}.cls-11{fill:#3ec0c4;}.cls-12{fill:#6ccbd8;}.cls-13{clip-path:url(#clippath-1);}.cls-14{clip-path:url(#clippath-2);}</style><clipPath id="clippath"><rect class="cls-5" x="1061.19" y="244.39" width="144.23" height="295.58"/></clipPath><clipPath id="clippath-1"><rect class="cls-5" x="1301.57" y="244.39" width="144.23" height="295.58"/></clipPath><clipPath id="clippath-2"><path class="cls-1" d="m906.63,9.11v42.39c22.66,51.27,57.51,97.06,101.62,132.64,30.7,24.77,64.99,44.06,101.92,57.34,38.21,13.74,78.39,20.71,119.42,20.71s81.21-6.97,119.42-20.71c36.93-13.28,71.22-32.58,101.92-57.34,44.1-35.58,78.96-81.37,101.62-132.64V9.11h-645.91Z"/></clipPath></defs><g id="_ÎÓÈ_1"><g><g><g><rect class="cls-9" x="1029.14" y="244.39" width="144.23" height="295.58"/><rect class="cls-9" x="1269.52" y="244.39" width="144.23" height="295.58"/></g><g><rect class="cls-5" x="1061.19" y="244.39" width="144.23" height="295.58"/><g class="cls-2"><polygon class="cls-4" points="1232.13 351.92 1014.89 428.88 1014.89 204.52 1232.13 127.56 1232.13 351.92"/></g></g><g><rect class="cls-5" x="1301.57" y="244.39" width="144.23" height="295.58"/><g class="cls-13"><polygon class="cls-4" points="1474.29 351.92 1257.05 428.88 1257.05 204.52 1474.29 127.56 1474.29 351.92"/></g></g><g><path class="cls-9" d="m779.02,0c41.13,179.66,201.96,313.7,394.1,313.7S1526.08,179.66,1567.21,0h-788.2Z"/><path class="cls-6" d="m835.49,0c41.13,179.66,201.96,313.7,394.1,313.7S1582.55,179.66,1623.68,0h-788.2Z"/><g class="cls-14"><g><g><rect class="cls-11" x="1210.84" y="196.31" width="43.35" height="30.25"/><rect class="cls-3" x="1210.84" y="161.03" width="43.35" height="30.25"/><rect class="cls-11" x="1210.84" y="125.76" width="43.35" height="30.25"/><rect class="cls-11" x="1210.84" y="90.48" width="43.35" height="30.25"/><rect class="cls-3" x="1210.84" y="55.2" width="43.35" height="30.25"/><rect class="cls-11" x="1210.84" y="19.93" width="43.35" height="30.25"/><rect class="cls-3" x="1210.84" y="231.58" width="43.35" height="30.25"/></g><g><rect class="cls-3" x="1262.6" y="196.31" width="43.35" height="30.25"/><rect class="cls-3" x="1262.6" y="161.03" width="43.35" height="30.25"/><rect class="cls-11" x="1262.6" y="125.76" width="43.35" height="30.25"/><rect class="cls-11" x="1262.6" y="90.48" width="43.35" height="30.25"/><rect class="cls-9" x="1262.6" y="55.2" width="43.35" height="30.25"/><rect class="cls-11" x="1262.6" y="19.93" width="43.35" height="30.25"/><rect class="cls-3" x="1262.6" y="231.58" width="43.35" height="30.25"/></g><g><rect class="cls-3" x="1314.37" y="196.31" width="43.35" height="30.25"/><rect class="cls-3" x="1314.37" y="161.03" width="43.35" height="30.25"/><rect class="cls-3" x="1314.37" y="125.76" width="43.35" height="30.25"/><rect class="cls-3" x="1314.37" y="90.48" width="43.35" height="30.25"/><rect class="cls-3" x="1314.37" y="55.2" width="43.35" height="30.25"/><rect class="cls-11" x="1314.37" y="19.93" width="43.35" height="30.25"/><rect class="cls-3" x="1314.37" y="231.58" width="43.35" height="30.25"/></g><g><rect class="cls-3" x="1366.14" y="196.31" width="43.35" height="30.25"/><rect class="cls-3" x="1366.14" y="161.03" width="43.35" height="30.25"/><rect class="cls-9" x="1366.14" y="125.76" width="43.35" height="30.25"/><rect class="cls-3" x="1366.14" y="90.48" width="43.35" height="30.25"/><rect class="cls-3" x="1366.14" y="55.2" width="43.35" height="30.25"/><rect class="cls-3" x="1366.14" y="19.93" width="43.35" height="30.25"/><rect class="cls-3" x="1366.14" y="231.58" width="43.35" height="30.25"/></g><g><rect class="cls-3" x="1417.9" y="196.31" width="43.35" height="30.25"/><rect class="cls-3" x="1417.9" y="161.03" width="43.35" height="30.25"/><rect class="cls-3" x="1417.9" y="125.76" width="43.35" height="30.25"/><rect class="cls-3" x="1417.9" y="90.48" width="43.35" height="30.25"/><rect class="cls-3" x="1417.9" y="55.2" width="43.35" height="30.25"/><rect class="cls-3" x="1417.9" y="19.93" width="43.35" height="30.25"/><rect class="cls-3" x="1417.9" y="231.58" width="43.35" height="30.25"/></g><g><rect class="cls-3" x="1469.67" y="196.31" width="43.35" height="30.25"/><rect class="cls-3" x="1469.67" y="161.03" width="43.35" height="30.25"/><rect class="cls-3" x="1469.67" y="125.76" width="43.35" height="30.25"/><rect class="cls-3" x="1469.67" y="90.48" width="43.35" height="30.25"/><rect class="cls-9" x="1469.67" y="55.2" width="43.35" height="30.25"/><rect class="cls-3" x="1469.67" y="19.93" width="43.35" height="30.25"/><rect class="cls-3" x="1469.67" y="231.58" width="43.35" height="30.25"/></g><g><rect class="cls-3" x="952.01" y="196.31" width="43.35" height="30.25"/><rect class="cls-3" x="952.01" y="161.03" width="43.35" height="30.25"/><rect class="cls-11" x="952.01" y="125.76" width="43.35" height="30.25"/><rect class="cls-11" x="952.01" y="90.48" width="43.35" height="30.25"/><rect class="cls-3" x="952.01" y="55.2" width="43.35" height="30.25"/><rect class="cls-3" x="952.01" y="19.93" width="43.35" height="30.25"/><rect class="cls-3" x="952.01" y="231.58" width="43.35" height="30.25"/></g><g><rect class="cls-3" x="1003.77" y="196.31" width="43.35" height="30.25"/><rect class="cls-3" x="1003.77" y="161.03" width="43.35" height="30.25"/><rect class="cls-11" x="1003.77" y="125.76" width="43.35" height="30.25"/><rect class="cls-3" x="1003.77" y="90.48" width="43.35" height="30.25"/><rect class="cls-3" x="1003.77" y="55.2" width="43.35" height="30.25"/><rect class="cls-3" x="1003.77" y="19.93" width="43.35" height="30.25"/><rect class="cls-3" x="1003.77" y="231.58" width="43.35" height="30.25"/></g><g><rect class="cls-3" x="1055.54" y="196.31" width="43.35" height="30.25"/><rect class="cls-9" x="1055.54" y="161.03" width="43.35" height="30.25"/><rect class="cls-11" x="1055.54" y="125.76" width="43.35" height="30.25"/><rect class="cls-11" x="1055.54" y="90.48" width="43.35" height="30.25"/><rect class="cls-11" x="1055.54" y="55.2" width="43.35" height="30.25"/><rect class="cls-1" x="1055.54" y="19.93" width="43.35" height="30.25"/><rect class="cls-3" x="1055.54" y="231.58" width="43.35" height="30.25"/></g><g><rect class="cls-3" x="1107.31" y="196.31" width="43.35" height="30.25"/><rect class="cls-3" x="1107.31" y="161.03" width="43.35" height="30.25"/><rect class="cls-3" x="1107.31" y="125.76" width="43.35" height="30.25"/><rect class="cls-9" x="1107.31" y="90.48" width="43.35" height="30.25"/><rect class="cls-3" x="1107.31" y="55.2" width="43.35" height="30.25"/><rect class="cls-11" x="1107.31" y="19.93" width="43.35" height="30.25"/><rect class="cls-3" x="1107.31" y="231.58" width="43.35" height="30.25"/></g><g><rect class="cls-3" x="1159.07" y="196.31" width="43.35" height="30.25"/><rect class="cls-3" x="1159.07" y="161.03" width="43.35" height="30.25"/><rect class="cls-3" x="1159.07" y="125.76" width="43.35" height="30.25"/><rect class="cls-1" x="1159.07" y="90.48" width="43.35" height="30.25"/><rect class="cls-3" x="1159.07" y="55.2" width="43.35" height="30.25"/><rect class="cls-11" x="1159.07" y="19.93" width="43.35" height="30.25"/><rect class="cls-3" x="1159.07" y="231.58" width="43.35" height="30.25"/></g></g></g></g></g><path class="cls-7" d="m3024.59,313.6c-33.36-.37-64.95-15.15-86.6-40.59-19.37-22.76-43.45-51.05-62.82-73.8-21.93-25.76-54.04-40.6-87.88-40.6-125.21,0-436.03,0-549.73,0-27.45,0-54,9.78-74.89,27.59-27.48,23.43-66.72,56.89-94.2,80.32-20.89,17.81-47.43,27.59-74.88,27.59-76.26,0-235.71,0-314.98,0-30.03,0-58.87,11.71-80.41,32.63l-113.59,110.34c-21.54,20.93-50.38,32.63-80.42,32.63-76.25,0-229.03,0-331.69,0-27.39,0-53.88-9.74-74.75-27.49l-35.14-29.88c-20.87-17.74-47.37-27.49-74.76-27.49h-381.8c-36.11,0-70.13-16.9-91.96-45.66l-19.61-25.84c-21.82-28.77-55.85-45.66-91.96-45.66H0v1057.9c0,63.75,51.68,115.42,115.42,115.42h2909.17V313.6Z"/><g><path class="cls-12" d="m799.95,208.33h-35.49c-17.96,0-32.53-14.53-32.53-32.45s14.56-32.45,32.53-32.45c13.39,0,24.25-10.83,24.25-24.19s-10.86-24.19-24.25-24.19h-134.84c-13.39,0-24.25,10.83-24.25,24.19s10.86,24.19,24.25,24.19h-94.63c-17.96,0-32.53,14.53-32.53,32.45s14.56,32.45,32.53,32.45h35.49c-19.6,0-35.49,15.85-35.49,35.4s15.89,35.4,35.49,35.4h229.47c19.6,0,35.48-15.85,35.48-35.4s-15.89-35.4-35.48-35.4Z"/><ellipse class="cls-12" cx="888.66" cy="279.12" rx="23.66" ry="23.6"/><path class="cls-12" d="m1814.75,167.42h-21.76c-11.02,0-19.95-8.91-19.95-19.9s8.93-19.9,19.95-19.9c8.21,0,14.87-6.64,14.87-14.83s-6.66-14.83-14.87-14.83h-82.69c-8.21,0-14.87,6.64-14.87,14.83s6.66,14.83,14.87,14.83h-58.03c-11.02,0-19.95,8.91-19.95,19.9s8.93,19.9,19.95,19.9h21.76c-12.02,0-21.76,9.72-21.76,21.71s9.74,21.71,21.76,21.71h140.72c12.02,0,21.76-9.72,21.76-21.71s-9.74-21.71-21.76-21.71Z"/><ellipse class="cls-12" cx="1869.15" cy="210.83" rx="14.51" ry="14.47"/></g><g><rect x="2285.98" y="128.72" width="446.28" height="54.36" rx="27.18" ry="27.18"/><g><g><g><ellipse class="cls-10" cx="2358.73" cy="158.61" rx="48.18" ry="48.9"/><ellipse class="cls-8" cx="2358.73" cy="158.61" rx="43.81" ry="44.47"/></g><g><ellipse class="cls-10" cx="2458.72" cy="158.61" rx="48.18" ry="48.9"/><ellipse class="cls-8" cx="2458.72" cy="158.61" rx="43.81" ry="44.47"/></g><g><ellipse class="cls-10" cx="2560.33" cy="158.61" rx="48.18" ry="48.9"/><ellipse class="cls-8" cx="2560.33" cy="158.61" rx="43.81" ry="44.47"/></g><g><ellipse class="cls-10" cx="2659.5" cy="158.61" rx="48.18" ry="48.9"/><ellipse class="cls-8" cx="2659.5" cy="158.61" rx="43.81" ry="44.47"/></g></g><path class="cls-3" d="m2460.81,183.08c-13.58,0-22.02-9.5-22.02-24.78s8.44-24.78,22.02-24.78,22.02,9.49,22.02,24.78-8.44,24.78-22.02,24.78Zm0-41.46c-12.2,0-14.03,10.45-14.03,16.68s1.83,16.67,14.03,16.67,14.03-10.44,14.03-16.67-1.82-16.68-14.03-16.68Z"/><path class="cls-3" d="m2560.33,183.08c-13.58,0-22.02-9.5-22.02-24.78s8.44-24.78,22.02-24.78,22.02,9.49,22.02,24.78-8.44,24.78-22.02,24.78Zm0-41.46c-12.21,0-14.03,10.45-14.03,16.68s1.82,16.67,14.03,16.67,14.03-10.44,14.03-16.67-1.82-16.68-14.03-16.68Z"/><path class="cls-3" d="m2390.91,177.44s-6.5-37.85-7.05-39.73c-.57-1.95-2.08-3.13-3.93-3.34-1.87-.21-3.77-.21-5.42,0-1.75.22-3.15,1.36-3.83,2.89-.56,1.27-5.97,19.99-7.83,26.46-.63,2.18-.63,5.65-.63,5.65,0,0,0-3.47-.63-5.65-1.86-6.47-7.27-25.19-7.83-26.46-.67-1.53-2.07-2.67-3.82-2.89-1.66-.21-3.56-.21-5.42,0-1.86.2-3.36,1.38-3.94,3.34-.55,1.88-7.04,39.73-7.04,39.73-.39,2.21,1.05,4.32,3.22,4.71,2.17.39,4.25-1.07,4.64-3.27,0,0,5.34-30.09,5.72-32.27.39-2.18.26-4.51.26-4.51,0,0,.14,2.27.77,4.45,9.2,31.65,9.21,31.56,9.69,32.77.58,1.51,2.18,2.72,3.82,2.89.17.02.35.02.55.03.2,0,.39-.01.55-.03,1.64-.17,3.24-1.38,3.83-2.89.47-1.22.48-1.12,9.69-32.77.63-2.18.78-4.45.78-4.45,0,0-.13,2.32.25,4.51.39,2.18,5.72,32.27,5.72,32.27.39,2.2,2.48,3.66,4.64,3.27,2.18-.39,3.62-2.5,3.23-4.71Z"/><path class="cls-3" d="m2680.23,134.38c-2.06-.81-4.37.25-5.16,2.35,0,0-10.43,27.67-12.7,33.81-.47,1.28-.45,2.6-.47,2.65-.02-.06,0-1.37-.47-2.66-2.27-6.16-12.7-33.81-12.7-33.81-.79-2.1-3.1-3.15-5.16-2.35-2.07.79-3.1,3.14-2.31,5.23,0,0,14.23,38.29,14.92,39.73.7,1.48,2.21,2.43,3.73,2.61.36.04,1.36.12,1.99.12s1.63-.08,1.99-.12c1.52-.18,3.03-1.14,3.73-2.61.68-1.44,14.92-39.73,14.92-39.73.78-2.1-.25-4.44-2.31-5.23Z"/></g></g></g></g></svg>