<?xml version="1.0" encoding="UTF-8"?><svg id="Layer_2" xmlns="http://www.w3.org/2000/svg" viewBox="0 0 3575.65 1786.13"><defs><style>.cls-1{fill:#053342;}.cls-2{fill:#687a96;}.cls-3{fill:#eaf3ff;}.cls-4{fill:#ffd686;}.cls-5{fill:#69c3ee;}.cls-6{fill:#9ed5e9;}.cls-7{fill:#84a2d4;}.cls-8{fill:#8fcff1;}.cls-9{fill:#dbe3ee;}.cls-10{fill:#105661;}.cls-11{fill:#0b5463;}.cls-12{fill:#2d83aa;}.cls-13{fill:#56aecc;}</style></defs><g id="_ÎÓÈ_1"><g><g><path class="cls-8" d="m3258.87,98.28h-30.79c-15.59,0-28.22-12.6-28.22-28.15s12.64-28.15,28.22-28.15c11.62,0,21.04-9.4,21.04-20.99s-9.42-20.99-21.04-20.99h-117c-11.62,0-21.04,9.4-21.04,20.99s9.42,20.99,21.04,20.99h-82.1c-15.59,0-28.22,12.6-28.22,28.15s12.64,28.15,28.22,28.15h30.79c-17,0-30.79,13.75-30.79,30.71s13.78,30.71,30.79,30.71h199.1c17,0,30.79-13.75,30.79-30.71s-13.78-30.71-30.79-30.71Z"/><ellipse class="cls-8" cx="3335.85" cy="159.7" rx="20.53" ry="20.47"/></g><g><rect class="cls-13" x="428.75" y="330.01" width="149.61" height="429.96" rx="74.81" ry="74.81"/><rect class="cls-13" x="551.38" y="300.22" width="149.61" height="429.96" rx="74.81" ry="74.81"/><rect class="cls-13" x="674" y="344.83" width="149.61" height="429.96" rx="74.81" ry="74.81"/><rect class="cls-13" x="796.63" y="380.28" width="149.61" height="429.96" rx="74.81" ry="74.81"/></g><g><rect class="cls-10" x="3242.93" y="388.55" width="149.61" height="519.23" rx="74.81" ry="74.81"/><rect class="cls-10" x="3364.19" y="336.51" width="149.61" height="519.23" rx="74.81" ry="74.81"/></g><path class="cls-6" d="m3145.45,538.22h-656.27c-37.03,0-72.6,14.5-99.08,40.38l-258.74,252.94c-26.48,25.89-62.04,40.38-99.08,40.38h-437.96c-53.6,0-102.61-30.23-126.66-78.13l-90.54-180.3c-24.05-47.9-73.06-78.13-126.66-78.13H471.96c-68.2,0-126.74,48.58-139.31,115.62l-29.34,156.52c-26.89,30.17-65.39,47.43-105.81,47.43h-55.77C63.46,854.93,0,918.38,0,996.66v353.4c0,78.28,63.46,141.73,141.73,141.73h3220.96c78.28,0,141.73-63.46,141.73-141.73v-537.35c0-49.37-25.7-95.19-67.83-120.94l-217.23-132.75c-22.25-13.6-47.83-20.79-73.91-20.79Z"/><g><rect class="cls-12" x="2004.77" y="677.22" width="684.13" height="45.93"/><rect class="cls-7" x="2187.5" y="650.37" width="501.4" height="45.93"/><rect class="cls-13" x="2004.77" y="650.37" width="184.9" height="45.93"/><rect class="cls-7" x="2187.5" y="721.3" width="501.4" height="45.93"/><rect class="cls-6" x="2004.77" y="721.3" width="184.9" height="45.93"/><rect class="cls-13" x="1519.08" y="110.62" width="1151.42" height="67.25"/><polygon class="cls-7" points="2389.49 652.85 2007.24 652.85 1518.81 176.11 2670.5 176.11 2389.49 652.85"/><rect class="cls-7" x="1909.14" y="110.62" width="1194.55" height="67.25"/><polygon class="cls-13" points="2687.05 652.85 2189.88 652.85 1908.87 176.11 3103.69 176.11 2687.05 652.85"/><g><rect class="cls-1" x="1995.9" y="617.49" width="15.59" height="149.74"/><polygon class="cls-4" points="2025.86 644.47 1981.52 644.47 1976.37 607.55 2031.01 607.55 2025.86 644.47"/><path class="cls-1" d="m1989.97,589.68h27.43c8.57,0,15.53,6.96,15.53,15.53v1.62c0,1.63-1.32,2.95-2.95,2.95h-52.6c-1.63,0-2.95-1.32-2.95-2.95v-1.62c0-8.57,6.96-15.53,15.53-15.53Z"/><path class="cls-1" d="m1981.51,644.27c3.37,8.98,12.03,15.37,22.18,15.37s18.82-6.39,22.18-15.37h-44.37Z"/></g><g><rect class="cls-1" x="2179.91" y="617.49" width="15.59" height="149.74"/><polygon class="cls-4" points="2209.88 644.47 2165.53 644.47 2160.38 607.55 2215.03 607.55 2209.88 644.47"/><path class="cls-1" d="m2173.99,589.68h27.43c8.57,0,15.53,6.96,15.53,15.53v1.62c0,1.63-1.32,2.95-2.95,2.95h-52.6c-1.63,0-2.95-1.32-2.95-2.95v-1.62c0-8.57,6.96-15.53,15.53-15.53Z"/><path class="cls-1" d="m2165.52,644.27c3.37,8.98,12.03,15.37,22.18,15.37s18.82-6.39,22.18-15.37h-44.37Z"/></g><g><rect class="cls-1" x="2427.36" y="617.49" width="15.59" height="149.74"/><polygon class="cls-4" points="2457.32 644.47 2412.98 644.47 2407.83 607.55 2462.47 607.55 2457.32 644.47"/><path class="cls-1" d="m2421.43,589.68h27.43c8.57,0,15.53,6.96,15.53,15.53v1.62c0,1.63-1.32,2.95-2.95,2.95h-52.6c-1.63,0-2.95-1.32-2.95-2.95v-1.62c0-8.57,6.96-15.53,15.53-15.53Z"/><path class="cls-1" d="m2412.97,644.27c3.37,8.98,12.03,15.37,22.18,15.37s18.82-6.39,22.18-15.37h-44.37Z"/></g><g><rect class="cls-1" x="2674.8" y="617.49" width="15.59" height="149.74"/><polygon class="cls-4" points="2704.77 644.47 2660.42 644.47 2655.27 607.55 2709.92 607.55 2704.77 644.47"/><path class="cls-1" d="m2668.88,589.68h27.43c8.57,0,15.53,6.96,15.53,15.53v1.62c0,1.63-1.32,2.95-2.95,2.95h-52.6c-1.63,0-2.95-1.32-2.95-2.95v-1.62c0-8.57,6.96-15.53,15.53-15.53Z"/><path class="cls-1" d="m2660.41,644.27c3.37,8.98,12.03,15.37,22.18,15.37s18.82-6.39,22.18-15.37h-44.37Z"/></g></g><polygon class="cls-10" points="2837.05 537.86 2791.14 537.86 2814.1 450.2 2837.05 537.86"/><polygon class="cls-10" points="2920.2 537.86 2860.14 537.86 2890.17 423.18 2920.2 537.86"/><g><rect class="cls-4" x="3003.89" y="404.43" width="14.26" height="132.17"/><rect class="cls-4" x="2945.82" y="404.43" width="14.26" height="132.17"/><path class="cls-4" d="m3073.66,381.2l8.05-12.93s8.05,13.51.86,16.67c-7.18,3.16-10.06.86-10.06.86l1.15-4.6Z"/><path class="cls-12" d="m2891.64,381.2l-8.05-12.93s-8.05,13.51-.86,16.67c7.18,3.16,10.06.86,10.06.86l-1.15-4.6Z"/><rect class="cls-3" x="2913.23" y="409.84" width="140.72" height="27.47"/><rect class="cls-2" x="2913.23" y="406.46" width="140.72" height="8.9"/><rect class="cls-12" x="2910.95" y="404.43" width="19.55" height="132.17"/><rect class="cls-12" x="3036.68" y="404.43" width="19.55" height="132.17"/><rect class="cls-3" x="2902.5" y="501.73" width="162.18" height="37.51"/><path class="cls-4" d="m2983.23,295.38s64.83,76.16,96.86,85.14l-16.79,14.06-60.15-35.54-18.75-49.99-1.17-13.67Z"/><path class="cls-12" d="m2981.67,295.38s-64.83,76.16-96.86,85.14l16.79,14.06,60.15-35.54,18.75-49.99,1.17-13.67Z"/><path class="cls-11" d="m3077.67,388.45c-44.61-18.14-89.65-70.29-93.32-97.54h-1.98c-4.27,27.47-58.3,81.63-95.58,98.36,63.31.23,126.63.47,189.94.7.27-.53.58-1.05.94-1.52Z"/><path class="cls-12" d="m2908.53,389.35c.81,0,1.61,0,2.42,0v-14.34c-.81.57-1.61,1.14-2.42,1.7v12.64Z"/><path class="cls-12" d="m3045.59,389.85c.81,0,1.61,0,2.42,0v-18.2c-.8-.57-1.62-1.12-2.42-1.71v19.9Z"/><path class="cls-12" d="m2925.81,389.41c.81,0,1.61,0,2.42,0v-27.87c-.8.68-1.61,1.35-2.42,2.02v25.84Z"/><path class="cls-12" d="m2942.75,348.31v41.17c.81,0,1.61,0,2.42,0v-43.57c-.8.8-1.6,1.6-2.42,2.4Z"/><path class="cls-12" d="m3025.37,389.78c.81,0,1.61,0,2.42,0v-34.62c-.82-.76-1.62-1.53-2.42-2.29v36.9Z"/><path class="cls-12" d="m2962.46,389.55c.81,0,1.61,0,2.42,0v-65.82c-.79,1.02-1.59,2.04-2.42,3.06v62.75Z"/><path class="cls-12" d="m3007.4,389.71c.81,0,1.61,0,2.42,0v-53.24c-.84-.99-1.61-1.97-2.42-2.96v56.2Z"/><path class="cls-12" d="m2983.2,290.91v98.71c.81,0,1.61,0,2.42,0v-93.05c-.58-1.98-1.02-3.89-1.26-5.67h-1.16Z"/><path class="cls-9" d="m2872.01,389.95l10.26,15.18c.69,1.02,1.77,1.7,2.98,1.87l23.55,3.44c.21.03.42.05.63.05h145.56c.1,0,.2,0,.3-.01l25.32-1.72c1.39-.09,2.65-.85,3.39-2.03l10.85-17.24c2-3.18-.69-7.23-4.4-6.62l-35.91,5.91c-.23.04-.47.06-.71.06h-147.18c-.27,0-.54-.03-.81-.07l-29.43-5.53c-3.8-.72-6.58,3.52-4.42,6.72Z"/><path class="cls-11" d="m2993.49,288.17c0,5.7-4.62,10.33-10.33,10.33s-10.33-4.62-10.33-10.33,4.62-10.33,10.33-10.33,10.33,4.62,10.33,10.33Z"/></g><g><rect class="cls-10" x="3087.68" y="358.28" width="97.06" height="137.54" rx="48.53" ry="48.53"/><rect class="cls-10" x="3130.77" y="435.26" width="10.89" height="104.72"/></g><g><rect class="cls-12" x="3043.65" y="399.38" width="75.11" height="106.43" rx="37.56" ry="37.56"/><rect class="cls-12" x="3077" y="458.94" width="8.43" height="81.03"/></g><g><path class="cls-8" d="m2487.36,267.95h-35.49c-17.96,0-32.53-14.53-32.53-32.45s14.56-32.45,32.53-32.45c13.39,0,24.25-10.83,24.25-24.19s-10.86-24.19-24.25-24.19h-134.84c-13.39,0-24.25,10.83-24.25,24.19s10.86,24.19,24.25,24.19h-94.63c-17.96,0-32.53,14.53-32.53,32.45s14.56,32.45,32.53,32.45h35.49c-19.6,0-35.49,15.85-35.49,35.4s15.89,35.4,35.49,35.4h229.47c19.6,0,35.48-15.85,35.48-35.4s-15.89-35.4-35.48-35.4Z"/><ellipse class="cls-8" cx="2570.03" cy="344.79" rx="23.66" ry="23.6"/></g><path class="cls-8" d="m908.8,120.08c0-15.87,12.89-28.73,28.8-28.73h74.09c-17.35,0-31.42-14.03-31.42-31.34s14.07-31.34,31.42-31.34h203.16c17.35,0,31.42,14.03,31.42,31.34s-14.07,31.34-31.42,31.34h-74.09c-15.9,0-28.8,12.86-28.8,28.73s12.89,28.73,28.8,28.73h-1.83c11.86,0,21.47,9.59,21.47,21.41s-9.61,21.41-21.47,21.41h-119.38c-11.86,0-21.47-9.59-21.47-21.41s9.61-21.41,21.47-21.41h-81.95c-15.9,0-28.8-12.86-28.8-28.73Z"/><path class="cls-8" d="m1186.58,164.56c0-8.7,7.07-15.75,15.79-15.75h87.8c8.72,0,15.79,7.05,15.79,15.75s-7.07,15.75-15.79,15.75h-87.8c-8.72,0-15.79-7.05-15.79-15.75Z"/><path class="cls-8" d="m1183.44,191.63c8.72,0,15.79,7.05,15.79,15.75s-7.07,15.75-15.79,15.75-15.79-7.05-15.79-15.75,7.07-15.75,15.79-15.75Z"/><path class="cls-5" d="m3575.65,454.05h-4.72c-37.59,0-73.64,14.93-100.22,41.51l-106.36,106.36c-26.58,26.58-62.63,41.51-100.22,41.51h-150.92c-37.59,0-73.64,14.93-100.22,41.51l-40.35,40.35c-26.58,26.58-62.63,41.51-100.22,41.51h-430.08c-35.68,0-70.04-13.46-96.24-37.68l-43.46-40.2c-26.19-24.22-60.56-37.68-96.24-37.68h-256.24c-37.59,0-73.64-14.93-100.22-41.51l-47.7-47.7c-26.58-26.58-62.63-41.51-100.22-41.51h-384.9c-37.59,0-73.64-14.93-100.22-41.51l-35.45-35.45c-26.58-26.58-62.63-41.51-100.22-41.51h-209.6c-78.28,0-141.73,63.46-141.73,141.73v1100.61c0,78.28,63.46,141.73,141.73,141.73h2704.03V454.05Z"/><path class="cls-10" d="m2472.47,829.5l-145.32-145.32c-21.65-21.65-51-33.81-81.62-33.81h-375.04c-30.61,0-59.97,12.16-81.62,33.81l-182.76,182.76c-21.65,21.65-51,33.81-81.62,33.81h-177.07c-30.61,0-59.97,12.16-81.62,33.81l-216.89,216.89c-72.71,72.71-21.21,197.04,81.62,197.04h1260.31c63.75,0,115.42-51.68,115.42-115.42v-321.94c0-30.61-12.16-59.97-33.81-81.62Z"/><g><polygon class="cls-13" points="1053.35 458.97 961.58 458.97 1007.46 283.76 1053.35 458.97"/><rect class="cls-13" x="1002.22" y="439.6" width="10.48" height="83.4"/></g><g><polygon class="cls-10" points="1098.37 472.29 1023 472.29 1060.68 328.39 1098.37 472.29"/><rect class="cls-10" x="1055.44" y="439.6" width="10.48" height="83.4"/></g></g></g></svg>