<?xml version="1.0" encoding="UTF-8"?><svg id="Layer_2" xmlns="http://www.w3.org/2000/svg" xmlns:xlink="http://www.w3.org/1999/xlink" viewBox="0 0 3243.58 1513.54"><defs><style>.cls-1{fill:none;}.cls-2{clip-path:url(#clippath);}.cls-3{fill:#f4a17f;}.cls-4{fill:#f8f3d4;}.cls-5{fill:#f2703d;}.cls-6{fill:#f2ccc7;}.cls-7{fill:#ac2f2b;}.cls-8{fill:#deaeaa;}.cls-9{fill:#d35050;}.cls-10{fill:#d98d83;}.cls-11{fill:#e1c69f;}.cls-12{fill:#5dbda8;}.cls-13{fill:#ce6195;}.cls-13,.cls-14{fill-rule:evenodd;}.cls-14{fill:#8c428e;}</style><clipPath id="clippath"><path class="cls-3" d="m2560.82,836.51h-2.51v-245.77c0-69.3-56.18-125.48-125.48-125.48h-150.39c-69.3,0-125.48,56.18-125.48,125.48v245.77h-2.51c-34.63,0-62.71,28.08-62.71,62.71h0c0,34.63,28.08,62.71,62.71,62.71h406.37c34.63,0,62.71-28.08,62.71-62.71h0c0-34.63-28.08-62.71-62.71-62.71Z"/></clipPath></defs><g id="_ÎÓÈ_1"><g><g><path class="cls-6" d="m1072.62,341.34h-28.27c-14.31,0-25.92-11.57-25.92-25.85s11.6-25.85,25.92-25.85c10.67,0,19.32-8.63,19.32-19.27s-8.65-19.27-19.32-19.27h-107.43c-10.67,0-19.32,8.63-19.32,19.27s8.65,19.27,19.32,19.27h-75.39c-14.31,0-25.92,11.57-25.92,25.85s11.6,25.85,25.92,25.85h28.27c-15.61,0-28.27,12.63-28.27,28.2s12.66,28.2,28.27,28.2h182.83c15.61,0,28.27-12.63,28.27-28.2s-12.66-28.2-28.27-28.2Z"/><ellipse class="cls-6" cx="1143.3" cy="397.75" rx="18.85" ry="18.8"/><path class="cls-6" d="m2924.28,203.81h-12.49c-6.32,0-11.45-5.11-11.45-11.42s5.13-11.42,11.45-11.42c4.71,0,8.54-3.81,8.54-8.52s-3.82-8.52-8.54-8.52h-47.47c-4.71,0-8.54,3.81-8.54,8.52s3.82,8.52,8.54,8.52h-33.32c-6.32,0-11.45,5.11-11.45,11.42s5.13,11.42,11.45,11.42h12.49c-6.9,0-12.49,5.58-12.49,12.46s5.59,12.46,12.49,12.46h80.79c6.9,0,12.49-5.58,12.49-12.46s-5.59-12.46-12.49-12.46Z"/><ellipse class="cls-6" cx="2955.52" cy="228.73" rx="8.33" ry="8.31"/><g><path class="cls-6" d="m1649.96,223.95c0-12.85-11.6-23.26-25.92-23.26h-66.67c15.61,0,28.27-11.36,28.27-25.37s-12.66-25.37-28.27-25.37h-182.83c-15.61,0-28.27,11.36-28.27,25.37s12.66,25.37,28.27,25.37h66.67c14.31,0,25.92,10.41,25.92,23.26s-11.6,23.26-25.92,23.26h1.65c-10.67,0-19.32,7.76-19.32,17.34s8.65,17.34,19.32,17.34h107.43c10.67,0,19.32-7.76,19.32-17.34s-8.65-17.34-19.32-17.34h73.74c14.31,0,25.92-10.41,25.92-23.26Z"/><path class="cls-6" d="m1399.99,259.96c0-7.04-6.36-12.75-14.21-12.75h-79.02c-7.85,0-14.21,5.71-14.21,12.75s6.36,12.75,14.21,12.75h79.02c7.85,0,14.21-5.71,14.21-12.75Z"/><path class="cls-6" d="m1402.82,281.89c-7.85,0-14.21,5.71-14.21,12.75s6.36,12.75,14.21,12.75,14.21-5.71,14.21-12.75-6.36-12.75-14.21-12.75Z"/></g><g><path class="cls-6" d="m1826.68,447.65c-10.41,0-18.85,8.42-18.85,18.8s8.44,18.8,18.85,18.8,18.85-8.42,18.85-18.8-8.44-18.8-18.85-18.8Z"/><path class="cls-6" d="m2086.78,399.71h-110.73c-10.67,0-19.32-8.63-19.32-19.27s8.65-19.27,19.32-19.27h106.02c10.67,0,19.32-8.63,19.32-19.27s-8.65-19.27-19.32-19.27h-154.55c-10.67,0-19.32,8.63-19.32,19.27s8.65,19.27,19.32,19.27h-58.9c-10.67,0-19.32,8.63-19.32,19.27s8.65,19.27,19.32,19.27h35.34c-15.61,0-28.27,12.63-28.27,28.2s12.66,28.2,28.27,28.2h182.83c15.61,0,28.27-12.63,28.27-28.2s-12.66-28.2-28.27-28.2Z"/><ellipse class="cls-6" cx="1882.82" cy="485.25" rx="14.21" ry="14.17"/></g></g><path class="cls-13" d="m0,1443.44l3243.58,69.01V300.48c-224.72,159.63-470.69,347-751.59,387.65-407.14,58.92-421.58-118.57-878.98-323.28-105.93-47.41-262.13-53.74-417.26,36.55-103.32,60.14-279.16,171.36-376.39,244.06-105.64,79-190.79,145.82-328.5,162.76-125.1,15.39-134.32,42.22-308.06,42.22-42.99,0-109.76-8.76-182.81-22.14v615.15Z"/><path class="cls-14" d="m0,0c229.1,4.18,446.81,28.83,667.5,163.01,260.26,158.24,455.72,279.75,739.71,402.64,126.48,54.73,290.23,42.89,409.87-1.04,164.64-60.46,191.91-62.63,336.1-173.87,115.7-89.26,286.36-185.26,437.14-163.6,179.54-10.92,543.63,317.3,651.79,431.8.4.42.9.94,1.45,1.5v853.11H0V0Z"/><g><g><path class="cls-10" d="m2215.53,238.28h0c-6.93,0-12.54,5.88-12.54,13.12v10.5c0,6.35,4.31,11.65,10.03,12.86v16.28c-5.72,1.22-10.03,6.51-10.03,12.86v52.5c0,7.25,5.62,13.12,12.54,13.12h0c6.93,0,12.54-5.88,12.54-13.12v-52.5h0v-52.5c0-7.25-5.62-13.12-12.54-13.12Z"/><path class="cls-10" d="m2498.98,261.91v-10.5c0-7.25-5.62-13.12-12.54-13.12h0c-6.93,0-12.54,5.88-12.54,13.12v52.5h0v52.5c0,7.25,5.62,13.12,12.54,13.12h0c6.93,0,12.54-5.88,12.54-13.12v-52.5c0-6.35-4.31-11.65-10.03-12.86v-16.28c5.72-1.22,10.03-6.51,10.03-12.86Z"/></g><g><path class="cls-3" d="m2560.82,836.51h-2.51v-245.77c0-69.3-56.18-125.48-125.48-125.48h-150.39c-69.3,0-125.48,56.18-125.48,125.48v245.77h-2.51c-34.63,0-62.71,28.08-62.71,62.71h0c0,34.63,28.08,62.71,62.71,62.71h406.37c34.63,0,62.71-28.08,62.71-62.71h0c0-34.63-28.08-62.71-62.71-62.71Z"/><g class="cls-2"><path class="cls-9" d="m2470.95,448.89s-85.58,174.16-331.12,274.36v141.79h435.6v-360.09l-104.48-56.07Z"/><rect class="cls-9" x="2054.64" y="834.19" width="605.98" height="157.46"/><path class="cls-9" d="m2350.98,508.75c-31.96,0-62.06-6.56-84.76-18.48-23.38-12.28-36.25-28.84-36.25-46.65s12.87-34.37,36.25-46.65c22.69-11.92,52.8-18.48,84.76-18.48s62.06,6.56,84.76,18.48c23.38,12.28,36.25,28.84,36.25,46.65s-12.87,34.37-36.25,46.65c-22.69,11.92-52.8,18.48-84.76,18.48Zm0-123.57c-30.9,0-59.89,6.29-81.65,17.71-21.07,11.06-32.67,25.53-32.67,40.73s11.6,29.66,32.67,40.73c21.75,11.42,50.75,17.71,81.65,17.71s59.89-6.29,81.65-17.71c21.07-11.06,32.67-25.53,32.67-40.73s-11.6-29.66-32.67-40.73c-21.75-11.42-50.75-17.71-81.65-17.71Z"/><path class="cls-9" d="m2350.98,495.48c-31.96,0-62.06-6.56-84.76-18.48-23.38-12.28-36.25-28.84-36.25-46.65s12.87-34.37,36.25-46.65c22.69-11.92,52.8-18.48,84.76-18.48s62.06,6.56,84.76,18.48c23.38,12.28,36.25,28.84,36.25,46.65s-12.87,34.37-36.25,46.65c-22.69,11.92-52.8,18.48-84.76,18.48Zm0-123.57c-30.9,0-59.89,6.29-81.65,17.71-21.07,11.06-32.67,25.53-32.67,40.73s11.6,29.66,32.67,40.73c21.75,11.42,50.75,17.71,81.65,17.71s59.89-6.29,81.65-17.71c21.07-11.06,32.67-25.53,32.67-40.73s-11.6-29.66-32.67-40.73c-21.75-11.42-50.75-17.71-81.65-17.71Z"/></g></g><circle class="cls-3" cx="2581.56" cy="830.68" r="55.19"/><g><g><path class="cls-10" d="m2277.94,573.6c-1.49-1.25-3.59-1.87-5.85-1.76-4.34.21-8.69,1.97-11.85,5.39v-37.31c0-5.99-5.52-10.86-12.31-10.86-2.84,0-5.46.85-7.55,2.28v-.07c0-5.99-5.52-10.86-12.31-10.86s-12.31,4.87-12.31,10.86v.07c-2.09-1.43-4.71-2.28-7.55-2.28-6.79,0-12.31,4.87-12.31,10.86v12.44c-2.09-1.43-4.71-2.28-7.55-2.28-6.79,0-12.31,4.87-12.31,10.86v66.34c0,25.3,23.33,45.89,52.02,45.89s52.01-20.58,52.01-45.89v-49.11c0-1.78-.76-3.4-2.15-4.56Z"/><rect class="cls-10" x="2255.35" y="563.08" width="24.74" height="62.5" rx="11.62" ry="11.62"/></g><path class="cls-7" d="m2191.3,660.19h73.56v119.08c0,19.07-15.48,34.55-34.55,34.55h-4.47c-19.07,0-34.55-15.48-34.55-34.55v-119.08h0Z"/></g><path class="cls-7" d="m2490.2,216.82h0c-1.4-.3-2.8-.32-4.13-.1,0-.06-.02-.12-.03-.18,4.32-.81,7.94-4.13,8.91-8.69,1.29-6.06-2.58-12.02-8.64-13.31h0c-1.97-.42-3.92-.29-5.71.28-.02-.06-.04-.12-.06-.18,3.16-1.41,5.62-4.26,6.39-7.9,1.29-6.06-2.58-12.02-8.64-13.31h0c-2.36-.5-4.7-.22-6.76.66-.01-.02-.03-.05-.04-.07,2.69-1.53,4.75-4.16,5.44-7.42,1.29-6.06-2.58-12.02-8.64-13.31h0c-3.29-.7-6.55.12-9.05,1.99-.05-.07-.1-.13-.15-.2,1.75-1.54,3.03-3.63,3.55-6.08h0c1.29-6.06-2.58-12.02-8.64-13.31h0c-3.78-.81-7.52.4-10.12,2.89-.05-.04-.09-.08-.14-.13,1-1.29,1.73-2.82,2.1-4.53h0c1.29-6.06-2.58-12.02-8.64-13.31h0c-4.33-.92-8.61.79-11.17,4.06-.02-.01-.04-.03-.06-.04.54-1.31.84-2.75.84-4.26,0-6.2-5.02-11.22-11.22-11.22h0c-3.83,0-7.21,1.92-9.24,4.86-.1-.04-.2-.09-.3-.13.22-.87.33-1.78.33-2.72,0-6.2-5.02-11.22-11.22-11.22h0c-4.59,0-8.54,2.76-10.27,6.71-.09-.02-.18-.04-.28-.07.01-.22.02-.43.02-.65,0-6.2-5.02-11.22-11.22-11.22h0c-5.17,0-9.53,3.5-10.82,8.27-.14-.01-.27-.03-.41-.04,0-.14.01-.27.01-.41,0-6.2-5.02-11.22-11.22-11.22h0c-6.2,0-11.22,5.02-11.22,11.22,0,.14,0,.28.01.41-.14.01-.27.03-.41.04-1.3-4.76-5.65-8.27-10.82-8.27h0c-6.2,0-11.22,5.02-11.22,11.22,0,.22,0,.44.02.65-.09.02-.18.04-.28.07-1.74-3.95-5.68-6.71-10.27-6.71-6.2,0-11.22,5.02-11.22,11.22,0,.94.12,1.85.33,2.72-.1.04-.2.09-.3.13-2.02-2.93-5.41-4.86-9.24-4.86h0c-6.2,0-11.22,5.02-11.22,11.22,0,1.51.3,2.95.84,4.26-.02.01-.04.03-.06.04-2.56-3.27-6.84-4.98-11.17-4.06-6.06,1.29-9.93,7.25-8.64,13.31.36,1.71,1.1,3.24,2.1,4.53-.05.04-.09.08-.14.13-2.59-2.49-6.34-3.7-10.12-2.89h0c-6.06,1.29-9.93,7.25-8.64,13.31h0c.52,2.45,1.81,4.54,3.55,6.08-.05.07-.1.13-.15.2-2.5-1.87-5.76-2.69-9.05-1.99h0c-6.06,1.29-9.93,7.25-8.64,13.31.7,3.27,2.75,5.89,5.44,7.42-.01.02-.03.05-.04.07-2.06-.89-4.4-1.17-6.76-.66h0c-6.06,1.29-9.93,7.25-8.64,13.31.78,3.64,3.24,6.49,6.39,7.9-.02.06-.04.12-.06.18-1.79-.57-3.75-.69-5.71-.28h0c-6.06,1.29-9.93,7.25-8.64,13.31.97,4.56,4.59,7.88,8.91,8.69,0,.06-.02.12-.03.18-1.33-.22-2.73-.2-4.13.1-6.06,1.29-9.93,7.25-8.64,13.31,1.12,5.28,5.79,8.89,10.97,8.88v7.1c0,7.44,6.03,13.46,13.46,13.46s13.46-6.03,13.46-13.46h.07c.86-12.18,11-21.79,23.4-21.79h172.98c12.4,0,22.54,9.62,23.4,21.79h.07c0,7.44,6.03,13.46,13.46,13.46s13.46-6.03,13.46-13.46v-7.1c5.19,0,9.85-3.61,10.97-8.88,1.29-6.06-2.58-12.02-8.64-13.31Z"/><path class="cls-7" d="m2086.06,1051.55h543.15c0-46.42-20.59-89.21-55.27-123.51.46-1.88.71-3.84.71-5.85v-49.3c0-13.8-11.51-24.99-25.7-24.99h0c-14.2,0-25.7,11.19-25.7,24.99v16.78c-3.99-2.31-8.06-4.54-12.22-6.68v-28.76c0-13.8-11.51-24.99-25.7-24.99h0c-14.2,0-25.7,11.19-25.7,24.99v7.97c-4.03-1.23-8.1-2.39-12.22-3.47v-26.14c0-13.8-11.51-24.99-25.7-24.99h0c-14.2,0-25.7,11.19-25.7,24.99v16.74c-4.05-.43-8.12-.79-12.22-1.09v-34.32c0-13.8-11.51-24.99-25.7-24.99h0c-14.2,0-25.7,11.19-25.7,24.99v34.26c-4.1.28-8.18.64-12.22,1.06v-16.66c0-13.8-11.51-24.99-25.7-24.99h0c-14.2,0-25.7,11.19-25.7,24.99v25.92c-4.12,1.07-8.2,2.22-12.22,3.44v-7.72c0-13.8-11.51-24.99-25.7-24.99h0c-14.2,0-25.7,11.19-25.7,24.99v28.32c-4.16,2.13-8.23,4.34-12.22,6.63v-16.29c0-13.8-11.51-24.99-25.7-24.99h0c-14.2,0-25.7,11.19-25.7,24.99v49.3c0,1.77.19,3.5.55,5.17-35.1,34.41-55.96,77.47-55.96,124.19Z"/><g><rect class="cls-10" x="2304.27" y="875.77" width="114.05" height="15.08"/><rect class="cls-10" x="2304.27" y="902.56" width="114.05" height="15.08"/><rect class="cls-10" x="2304.27" y="929.34" width="114.05" height="15.08"/><rect class="cls-10" x="2304.27" y="956.12" width="114.05" height="15.08"/><rect class="cls-10" x="2304.27" y="982.9" width="114.05" height="15.08"/><rect class="cls-10" x="2304.27" y="1009.68" width="114.05" height="15.08"/><rect class="cls-10" x="2304.27" y="1036.47" width="114.05" height="15.08"/></g><path class="cls-3" d="m2269.72,214.43h162.53c22.99,0,41.65,18.66,41.65,41.65v115.82c0,59.84-48.59,108.43-108.43,108.43h-28.97c-59.84,0-108.43-48.59-108.43-108.43v-115.82c0-22.99,18.66-41.65,41.65-41.65Z"/><g><path class="cls-9" d="m2358.81,390.3h-24.54v-102.45c0-1.85,1.5-3.34,3.34-3.34s3.34,1.5,3.34,3.34v95.76h17.85c1.85,0,3.34,1.5,3.34,3.34s-1.5,3.34-3.34,3.34Z"/><path class="cls-9" d="m2337.61,293.22c-1.85,0-3.34-1.5-3.34-3.34,0-17.97-14.62-32.59-32.59-32.59s-32.59,14.62-32.59,32.59c0,1.85-1.5,3.34-3.34,3.34s-3.34-1.5-3.34-3.34c0-21.66,17.62-39.28,39.28-39.28s39.28,17.62,39.28,39.28c0,1.85-1.5,3.34-3.34,3.34Z"/><path class="cls-9" d="m2444.83,293.22c-1.85,0-3.34-1.5-3.34-3.34,0-17.97-14.62-32.59-32.59-32.59s-32.59,14.62-32.59,32.59c0,1.85-1.5,3.34-3.34,3.34s-3.34-1.5-3.34-3.34c0-21.66,17.62-39.28,39.28-39.28s39.28,17.62,39.28,39.28c0,1.85-1.5,3.34-3.34,3.34Z"/></g><rect class="cls-10" x="1841.34" y="1006.84" width="677.18" height="208.13" rx="104.07" ry="104.07"/><rect class="cls-8" x="2260.68" y="1044.65" width="582.47" height="208.13" rx="96.51" ry="96.51"/><g><g><path class="cls-9" d="m2315.84,311.49c-1.85,0-3.34-1.5-3.34-3.34,0-7.05-7.28-12.78-16.22-12.78s-16.22,5.73-16.22,12.78c0,1.85-1.5,3.34-3.34,3.34s-3.34-1.5-3.34-3.34c0-10.74,10.28-19.47,22.91-19.47s22.91,8.73,22.91,19.47c0,1.85-1.5,3.34-3.34,3.34Z"/><path class="cls-9" d="m2296.28,330.27c-10.09,0-17.5-1.54-17.81-1.6-3.42-.72-5.6-4.07-4.89-7.49.72-3.41,4.07-5.6,7.48-4.89.13.03,6.57,1.33,15.22,1.33,9.75,0,14.9-1.26,14.95-1.27,3.38-.84,6.81,1.2,7.67,4.57.86,3.37-1.15,6.8-4.52,7.68-.66.17-6.74,1.67-18.11,1.67Z"/></g><g><path class="cls-9" d="m2425.25,311.49c-1.85,0-3.34-1.5-3.34-3.34,0-7.05-7.28-12.78-16.22-12.78s-16.22,5.73-16.22,12.78c0,1.85-1.5,3.34-3.34,3.34s-3.34-1.5-3.34-3.34c0-10.74,10.28-19.47,22.91-19.47s22.91,8.73,22.91,19.47c0,1.85-1.5,3.34-3.34,3.34Z"/><path class="cls-9" d="m2405.69,330.27c-10.09,0-17.5-1.54-17.81-1.6-3.42-.72-5.6-4.07-4.89-7.49.72-3.41,4.07-5.6,7.48-4.89.13.03,6.57,1.33,15.22,1.33,9.75,0,14.9-1.26,14.95-1.27,3.38-.84,6.81,1.2,7.67,4.57.86,3.37-1.15,6.8-4.52,7.68-.66.17-6.74,1.67-18.11,1.67Z"/></g></g><path class="cls-9" d="m2349.69,420.18c-29.01,0-43.92-9.12-44.54-9.5-1.44-.9-1.88-2.81-.98-4.25.9-1.44,2.8-1.88,4.25-.98.24.15,14.31,8.57,41.28,8.57s42.59-8.54,42.74-8.63c1.48-.84,3.36-.32,4.2,1.16.84,1.48.33,3.36-1.15,4.2-.67.39-16.85,9.44-45.79,9.44Z"/></g><path class="cls-1" d="m3156.33,14.34H211.28v1490h2945.06V14.34Z"/><g><g><rect class="cls-3" x="2597.12" y="163.84" width="110.82" height="379.72" rx="8.32" ry="8.32"/><rect class="cls-7" x="2609.2" y="176.25" width="86.65" height="354.9" rx="6.5" ry="6.5"/><path class="cls-12" d="m2726.96,232.51h-19.02c-.99,0-1.8-.8-1.8-1.79s.8-1.79,1.8-1.79h19.02c.99,0,1.8.8,1.8,1.79s-.8,1.79-1.8,1.79Z"/><path class="cls-12" d="m2726.96,314.12h-19.02c-.99,0-1.8-.8-1.8-1.79s.8-1.79,1.8-1.79h19.02c.99,0,1.8.8,1.8,1.79s-.8,1.79-1.8,1.79Z"/><path class="cls-12" d="m2726.96,397.63h-19.02c-.99,0-1.8-.8-1.8-1.79s.8-1.79,1.8-1.79h19.02c.99,0,1.8.8,1.8,1.79s-.8,1.79-1.8,1.79Z"/><path class="cls-12" d="m2726.96,479.24h-19.02c-.99,0-1.8-.8-1.8-1.79s.8-1.79,1.8-1.79h19.02c.99,0,1.8.8,1.8,1.79s-.8,1.79-1.8,1.79Z"/><g><rect class="cls-5" x="2726.96" y="194.56" width="71.24" height="72.31"/><polygon class="cls-11" points="2726.96 194.56 2739.05 182.09 2810.7 182.09 2798.2 194.56 2726.96 194.56"/><polygon class="cls-11" points="2798.2 194.56 2798.2 266.87 2810.7 254.18 2810.7 182.09 2798.2 194.56"/></g><g><rect class="cls-5" x="2726.96" y="282.47" width="71.24" height="72.31"/><polygon class="cls-11" points="2726.96 282.47 2739.05 270 2810.7 270 2798.2 282.47 2726.96 282.47"/><polygon class="cls-11" points="2798.2 282.47 2798.2 354.78 2810.7 342.09 2810.7 270 2798.2 282.47"/></g><g><rect class="cls-5" x="2726.96" y="370.38" width="71.24" height="72.31"/><polygon class="cls-11" points="2726.96 370.38 2739.05 357.9 2810.7 357.9 2798.2 370.38 2726.96 370.38"/><polygon class="cls-11" points="2798.2 370.38 2798.2 442.69 2810.7 430 2810.7 357.9 2798.2 370.38"/></g><g><rect class="cls-5" x="2726.96" y="458.29" width="71.24" height="72.31"/><polygon class="cls-11" points="2726.96 458.29 2739.05 445.81 2810.7 445.81 2798.2 458.29 2726.96 458.29"/><polygon class="cls-11" points="2798.2 458.29 2798.2 530.59 2810.7 517.91 2810.7 445.81 2798.2 458.29"/></g></g><g><g><path class="cls-4" d="m2621.29,332.62c0-17.38,11.97-28.17,31.23-28.17s31.24,10.79,31.24,28.17-11.97,28.17-31.24,28.17-31.23-10.79-31.23-28.17Zm52.25,0c0-15.62-13.17-17.95-21.02-17.95s-21.02,2.33-21.02,17.95,13.17,17.94,21.02,17.94,21.02-2.33,21.02-17.94Z"/><path class="cls-4" d="m2621.29,397.86c0-17.38,11.97-28.17,31.23-28.17s31.24,10.79,31.24,28.17-11.97,28.17-31.24,28.17-31.23-10.8-31.23-28.17Zm52.25,0c0-15.62-13.17-17.95-21.02-17.95s-21.02,2.33-21.02,17.95,13.17,17.95,21.02,17.95,21.02-2.33,21.02-17.95Z"/></g><path class="cls-4" d="m2628.39,297.96s47.71-8.31,50.08-9.01c2.46-.73,3.95-2.66,4.2-5.03.26-2.39.26-4.82,0-6.94-.27-2.24-1.72-4.04-3.64-4.9-1.6-.72-25.2-7.64-33.35-10.02-2.75-.8-7.13-.8-7.13-.8,0,0,4.38,0,7.13-.8,8.16-2.38,31.75-9.31,33.35-10.02,1.92-.86,3.37-2.65,3.64-4.9.26-2.12.26-4.54,0-6.93-.25-2.38-1.74-4.3-4.2-5.03-2.37-.71-50.08-9.01-50.08-9.01-2.78-.5-5.44,1.35-5.93,4.12-.49,2.77,1.35,5.43,4.13,5.93,0,0,37.93,6.82,40.67,7.32,2.75.49,5.68.33,5.68.33,0,0-2.86.18-5.61.99-39.88,11.77-39.77,11.79-41.31,12.4-1.9.75-3.44,2.79-3.64,4.89-.02.21-.03.45-.04.7,0,.25.02.49.04.7.21,2.1,1.74,4.15,3.64,4.9,1.53.61,1.42.63,41.31,12.4,2.75.81,5.61.99,5.61.99,0,0-2.93-.17-5.68.33-2.75.49-40.67,7.32-40.67,7.32-2.78.5-4.62,3.16-4.13,5.94.5,2.78,3.16,4.62,5.93,4.12Z"/><path class="cls-4" d="m2682.67,479.62c1.01-2.64-.32-5.59-2.96-6.59,0,0-34.87-13.35-42.62-16.25-1.62-.61-3.28-.58-3.34-.61.06-.02,1.73,0,3.35-.61,7.76-2.9,42.61-16.24,42.61-16.24,2.64-1,3.97-3.95,2.96-6.6-1.01-2.64-3.96-3.96-6.6-2.95,0,0-48.26,18.2-50.08,19.08-1.86.9-3.06,2.83-3.29,4.78-.06.46-.15,1.74-.15,2.54s.09,2.08.15,2.54c.23,1.95,1.43,3.88,3.29,4.77,1.82.88,50.08,19.09,50.08,19.09,2.64,1,5.59-.32,6.6-2.96Z"/></g><g><g><path class="cls-5" d="m2784.78,224.88c-.39-1.89-.88-3.66-1.49-5.32-.8-2.17-1.8-4.11-3.02-5.82-3.63-5.09-9.22-8.01-17.34-8.03h-.11c-8.12-.02-13.72,2.88-17.37,7.96-1.23,1.71-2.23,3.65-3.04,5.82-.62,1.65-1.12,3.42-1.51,5.31-1.14,5.46-1.78,15.07-.49,19.07,1.43,4.42,5.33,7.87,14.14,8.5,0,0,3.91.31,8.06.3,4.44,0,8.52-.23,8.52-.23,8.82-.63,12.61-4.05,14.05-8.47,1.31-4,.71-13.63-.41-19.09"/><path class="cls-11" d="m2786.1,226.73c-2.29-15.11-13.07-20.54-22.47-20.81h-.82s-.73,0-.73,0c-9.39.24-20.16,5.63-22.51,20.72-1.71.62-5.36,2.86-5.41,11.16-.05,8.32,6.07,9.94,8.35,10.26.23.03.71.02,1.08-.33-.05-.07-.09-.14-.14-.21-.06-.1-.13-.19-.19-.29-.07-.12-.14-.25-.21-.37-.05-.09-.1-.18-.15-.28-.07-.15-.14-.3-.21-.45-.03-.08-.07-.15-.1-.23-.09-.23-.18-.47-.26-.71-1.18-3.66-.6-12.48.45-17.47.36-1.72.8-3.36,1.38-4.86,1.26-3.25,5.02-12.64,18.65-12.62,14.09.03,17.44,9.44,18.68,12.69.58,1.5,1.09,3.13,1.45,4.86,1.02,4.99,1.57,13.82.38,17.47-.08.24-.17.48-.26.71-.03.08-.07.15-.1.23-.07.15-.13.3-.21.45-.05.09-.1.18-.15.27-.07.13-.14.25-.21.37-.06.1-.13.19-.19.29-.05.07-.09.14-.14.21.36.35.84.36,1.07.33,2.28-.31,8.4-1.91,8.38-10.23-.02-8.3-3.68-10.55-5.39-11.18"/><g><path class="cls-11" d="m2763.42,253.48h-.2c-5.16,0-9.95-.32-10-.32-6.4-.83-10.18-3.38-11.61-7.78-1.29-3.99-.57-13.07.43-17.82.08-.41.49-.67.9-.59.41.09.67.49.59.9-1.11,5.3-1.54,13.72-.47,17.05,1.24,3.85,4.52,5.99,10.31,6.74h0s4.76.31,9.86.31c3.34.02,7.19-.11,9.33-.29,7.25-.59,9.41-4.86,10-6.67,1.09-3.33.69-11.76-.4-17.07-.08-.41.18-.81.59-.89.41-.09.81.18.89.59.97,4.76,1.66,13.85.35,17.84-.68,2.09-3.16,7.04-11.32,7.71-2.13.17-5.91.29-9.25.29Z"/><path class="cls-11" d="m2782.94,248.96c-.37,0-.97-.09-1.47-.57-.29-.28-.33-.74-.1-1.07l.07-.1s.06-.09.06-.09c.09-.13.13-.19.17-.26.07-.12.13-.23.2-.34l.14-.26c.06-.12.12-.26.18-.4,0,0,.04-.09.04-.1l.04-.1c.09-.23.17-.44.25-.67,1.09-3.33.69-11.75-.4-17.05-.31-1.53-.77-3.07-1.41-4.73l-.07-.18c-1.25-3.27-4.57-11.96-17.85-11.99h-.06c-13.12,0-16.66,9.1-17.82,12.09-.51,1.33-.95,2.87-1.34,4.73-1.11,5.3-1.54,13.72-.47,17.05.07.22.15.44.24.66l.09.21c.08.18.13.29.18.4l.33.6c.05.08.1.16.15.24l.14.21c.24.33.19.79-.1,1.07-.68.65-1.52.58-1.77.54-2.13-.29-9.1-1.97-9.05-11.08.05-7.96,3.28-10.76,5.5-11.74,2.55-15.07,13.63-20.71,23.22-20.96h.75s.84,0,.84,0c9.63.28,20.71,5.97,23.2,21.05,2.22,1,5.45,3.81,5.47,11.76.02,9.11-6.95,10.75-9.09,11.04-.06,0-.16.02-.28.02Zm-20.21-39.55h.06c14.4.03,18.02,9.48,19.38,13.04l.07.18c.67,1.75,1.16,3.38,1.48,4.99.98,4.77,1.66,13.88.35,17.89-.08.26-.18.52-.28.76-.02.05-.05.12-.08.19-.1.22-.17.38-.25.54l-.13.25s0,0,0,0c2.45-.41,7.35-2.14,7.33-9.36-.02-7.52-3.05-9.75-4.85-10.41-.28-.1-.48-.35-.53-.65-2.75-18.16-17.29-19.99-21.68-20.11h-.81s-.72,0-.72,0c-4.37.11-18.88,1.88-21.7,20.03-.05.3-.25.54-.53.65-1.8.65-4.82,2.86-4.87,10.39-.05,7.23,4.86,8.97,7.31,9.39l-.13-.25c-.07-.13-.13-.27-.19-.41,0,0-.04-.09-.04-.09l-.11-.24c-.1-.25-.2-.51-.28-.77-1.29-4.01-.57-13.12.42-17.89.41-1.94.87-3.57,1.42-4.99,1.26-3.25,5.11-13.14,19.35-13.14Z"/></g></g><g><path class="cls-5" d="m2791.5,237.79c-.02-2.57-.38-4.55-.93-6.09,0,.05-.01.1-.01.15-.03.4-.03.82-.04,1.23,0,.35,0,.72-.03,1.06-.04.73-.08,1.41-.14,2.04-.14-.65-.29-1.32-.46-2.01-.02-.09-.05-.19-.07-.28-.16-.65-.32-1.32-.55-1.95-.11-.31-.35-.68-.69-.72-.2-.02-.42,0-.66.08-.3.1-.5.49-.51.99,0,.24,0,.49,0,.73,0,.13,0,.26,0,.4,0,2.57-.21,5.03-.4,6.88-.05.46.05,1.25.53,1.37.05.01.1.02.14.02.1,0,.2-.05.28-.13.22-.21.34-.62.37-.92.17-1.68.34-3.47.4-5.27.26,1.16.49,2.33.68,3.51.04.22.07.44.1.66.04.28.09.56.13.84.01.08.03.15.04.22.08.38.31.8.63.83.03,0,.05,0,.08,0,0,0,.01,0,.02,0,.03,0,.06-.01.09-.02.32-.1.51-.52.58-.87.15-.8.28-1.71.39-2.75"/><path class="cls-5" d="m2738.18,233.46c0-.13.01-.26.02-.4.01-.24.03-.48.03-.73,0-.5-.18-.9-.47-1.01-.24-.09-.45-.12-.66-.1-.33.03-.59.39-.71.69-.25.63-.44,1.29-.62,1.93-.03.09-.05.19-.08.28-.19.68-.37,1.34-.53,1.99-.03-.63-.06-1.31-.07-2.04,0-.35,0-.71.01-1.06,0-.41.02-.83,0-1.23,0-.06,0-.1-.01-.15-.55,1.55-.92,3.55-.94,6.16,0,1.27.13,2.38.37,3.36.07.09.16.15.26.19.03,0,.06.02.09.02,0,0,.01,0,.02,0,.03,0,.06,0,.08,0,.33-.02.58-.43.67-.8.02-.06.03-.13.05-.21.06-.28.11-.56.16-.84.04-.22.08-.44.13-.66.23-1.17.5-2.34.81-3.49,0,1.81.1,3.6.21,5.29.02.29.12.71.34.93.08.08.18.13.28.14.05,0,.09,0,.14,0,.48-.11.61-.89.58-1.36-.12-1.86-.25-4.33-.15-6.89"/></g><g><g><path class="cls-11" d="m2756.87,236.05c0,1.39-1.13,2.52-2.53,2.51-1.39,0-2.52-1.13-2.51-2.53,0-1.39,1.13-2.52,2.53-2.51,1.39,0,2.52,1.14,2.51,2.53Z"/><path class="cls-11" d="m2774.06,232.58c-.23,0-.46-.11-.6-.32-.03-.04-.76-1.03-2.08-1.04h0c-1.47,0-2.3,1.04-2.31,1.05-.25.32-.71.39-1.03.14-.32-.25-.39-.71-.14-1.03.05-.07,1.27-1.63,3.48-1.63h.01c2.1,0,3.24,1.6,3.29,1.67.23.33.15.79-.18,1.03-.13.09-.28.13-.42.13Z"/><path class="cls-11" d="m2757.17,232.62c-.22,0-.44-.1-.59-.29-.04-.05-.85-1.06-2.31-1.06h0c-1.31,0-2.05.99-2.08,1.03-.24.33-.7.4-1.03.17-.33-.24-.41-.69-.17-1.02.05-.07,1.19-1.65,3.28-1.65h.01c2.22,0,3.44,1.58,3.49,1.65.25.33.18.79-.15,1.03-.13.1-.29.15-.44.15Z"/><path class="cls-11" d="m2769.18,236.95c-.3,0-.59-.16-.73-.45-.21-.4-.05-.9.36-1.1,1.84-.94,4.69-.23,5.01-.14.44.12.7.56.58,1s-.57.7-1,.58c-.7-.18-2.75-.54-3.84.02-.12.06-.25.09-.37.09Z"/></g><g><path class="cls-11" d="m2760.78,245.98c-1.08,0-1.89-.57-2.16-1.53-.09-.35.11-.7.46-.8.35-.09.7.11.8.46.15.56.7.61,1.14.56.76-.09,1.11-.86,1.11-1.54v-1.05c0-.36.29-.65.65-.65h0c.36,0,.65.29.65.65v1.05c0,1.49-.95,2.68-2.25,2.84-.13.02-.26.02-.39.02Z"/><path class="cls-11" d="m2764.66,245.97c-.13,0-.25,0-.39-.02-1.29-.15-2.15-1.29-2.16-2.83v-1.05c0-.36.29-.65.65-.65h0c.36,0,.65.29.65.65v1.05c0,.69.27,1.46,1.01,1.54.23.03,1.02.07,1.19-.56.09-.35.45-.55.8-.46.35.09.55.45.46.8-.26.96-1.11,1.54-2.21,1.54Z"/></g><path class="cls-11" d="m2762.76,239.39c-1.12-.01-2.26.21-2.27,1.2-.01.99,1.2,2.1,2.23,2.11,1.03.01,2.27-1.18,2.28-2.06,0-.88-1.13-1.24-2.24-1.25Z"/></g></g><g><g><path class="cls-5" d="m2784.78,402.19c-.39-1.89-.88-3.66-1.49-5.32-.8-2.17-1.8-4.11-3.02-5.82-3.63-5.09-9.22-8.01-17.34-8.03h-.11c-8.12-.02-13.72,2.88-17.37,7.96-1.23,1.71-2.23,3.65-3.04,5.82-.62,1.65-1.12,3.42-1.51,5.31-1.14,5.46-1.78,15.07-.49,19.07,1.43,4.42,5.33,7.87,14.14,8.5,0,0,3.91.31,8.06.3,4.44,0,8.52-.23,8.52-.23,8.82-.63,12.61-4.05,14.05-8.47,1.31-4,.71-13.63-.41-19.09"/><path class="cls-11" d="m2786.1,404.04c-2.29-15.11-13.07-20.54-22.47-20.81h-.82s-.73,0-.73,0c-9.39.24-20.16,5.63-22.51,20.72-1.71.62-5.36,2.86-5.41,11.16-.05,8.32,6.07,9.94,8.35,10.26.23.03.71.02,1.08-.33-.05-.07-.09-.14-.14-.21-.06-.1-.13-.19-.19-.29-.07-.12-.14-.25-.21-.37-.05-.09-.1-.18-.15-.28-.07-.15-.14-.3-.21-.45-.03-.08-.07-.15-.1-.23-.09-.23-.18-.47-.26-.71-1.18-3.66-.6-12.48.45-17.47.36-1.72.8-3.36,1.38-4.86,1.26-3.25,5.02-12.64,18.65-12.62,14.09.03,17.44,9.44,18.68,12.69.58,1.5,1.09,3.13,1.45,4.86,1.02,4.99,1.57,13.82.38,17.47-.08.24-.17.48-.26.71-.03.08-.07.15-.1.23-.07.15-.13.3-.21.45-.05.09-.1.18-.15.27-.07.13-.14.25-.21.37-.06.1-.13.19-.19.29-.05.07-.09.14-.14.21.36.35.84.36,1.07.33,2.28-.31,8.4-1.91,8.38-10.23-.02-8.3-3.68-10.55-5.39-11.18"/><g><path class="cls-11" d="m2763.45,430.79h-.24c-5.16,0-9.95-.32-10-.32-6.4-.83-10.18-3.38-11.61-7.78-1.29-3.99-.57-13.07.43-17.82.08-.41.49-.67.9-.59.41.09.67.49.59.9-1.11,5.3-1.54,13.72-.47,17.05,1.24,3.85,4.52,5.99,10.31,6.74h0s4.76.31,9.86.31c3.35,0,7.18-.11,9.33-.29,7.25-.59,9.41-4.86,10-6.67,1.09-3.33.69-11.76-.4-17.07-.08-.41.18-.81.59-.89.41-.08.81.18.89.59.97,4.76,1.66,13.85.35,17.84-.68,2.09-3.16,7.04-11.32,7.71-2.13.18-5.89.29-9.21.29Z"/><path class="cls-11" d="m2782.94,426.27c-.37,0-.97-.09-1.47-.57-.29-.28-.33-.74-.1-1.07l.07-.1s.06-.09.06-.09c.09-.13.13-.19.17-.26.07-.12.13-.23.2-.34l.14-.26c.06-.12.12-.26.18-.4,0,0,.04-.09.04-.1l.04-.1c.09-.23.17-.44.25-.67,1.09-3.33.69-11.75-.4-17.05-.31-1.53-.77-3.07-1.41-4.73l-.07-.18c-1.25-3.27-4.57-11.96-17.85-11.99h-.06c-13.12,0-16.66,9.1-17.82,12.09-.51,1.33-.95,2.87-1.34,4.73-1.11,5.3-1.54,13.72-.47,17.05.07.22.15.44.24.66l.09.21c.07.17.13.29.18.4l.33.6c.05.08.1.16.15.24l.14.21c.24.33.19.79-.1,1.07-.68.65-1.52.58-1.77.54-2.13-.29-9.1-1.97-9.05-11.08.05-7.96,3.28-10.76,5.5-11.74,2.55-15.07,13.63-20.71,23.22-20.96h.75s.84,0,.84,0c9.63.28,20.71,5.97,23.2,21.05,2.22,1,5.45,3.81,5.47,11.76.02,9.11-6.95,10.75-9.09,11.04-.06,0-.16.02-.28.02Zm-20.21-39.55h.06c14.4.03,18.02,9.48,19.38,13.04l.07.18c.67,1.74,1.16,3.38,1.48,4.99.98,4.77,1.66,13.88.35,17.89-.08.26-.18.52-.28.76-.02.05-.05.12-.08.19-.1.22-.17.38-.25.54l-.13.25s0,0,0,0c2.45-.41,7.35-2.14,7.33-9.36-.02-7.52-3.05-9.75-4.85-10.41-.28-.1-.48-.35-.53-.65-2.75-18.16-17.29-19.99-21.68-20.11h-.81s-.72,0-.72,0c-4.37.11-18.88,1.88-21.7,20.03-.05.3-.25.54-.53.65-1.8.65-4.82,2.86-4.87,10.39-.05,7.23,4.86,8.97,7.31,9.39l-.13-.25c-.07-.14-.14-.29-.2-.43l.68-.49-.75.34-.07-.16c-.1-.25-.2-.51-.28-.77-1.29-4.01-.57-13.12.42-17.89.41-1.94.87-3.57,1.42-4.99,1.26-3.25,5.11-13.14,19.35-13.14Z"/></g></g><g><path class="cls-5" d="m2791.5,415.1c-.02-2.57-.38-4.55-.93-6.09,0,.05-.01.1-.01.15-.03.4-.03.82-.04,1.23,0,.35,0,.72-.03,1.06-.04.73-.08,1.41-.14,2.04-.14-.65-.29-1.32-.46-2.01-.02-.09-.05-.19-.07-.28-.16-.65-.32-1.32-.55-1.95-.11-.31-.35-.68-.69-.72-.2-.02-.42,0-.66.08-.3.1-.5.49-.51.99,0,.24,0,.49,0,.73,0,.13,0,.26,0,.4,0,2.57-.21,5.03-.4,6.88-.05.46.05,1.25.53,1.37.05.01.1.02.14.02.1,0,.2-.05.28-.13.22-.21.34-.62.37-.92.17-1.68.34-3.47.4-5.27.26,1.16.49,2.33.68,3.51.04.22.07.44.1.66.04.28.09.56.13.84.01.08.03.15.04.22.08.38.31.8.63.83.03,0,.05,0,.08,0,0,0,.01,0,.02,0,.03,0,.06-.01.09-.02.32-.1.51-.52.58-.87.15-.8.28-1.71.39-2.75"/><path class="cls-5" d="m2738.18,410.77c0-.13.01-.26.02-.4.01-.24.03-.48.03-.73,0-.5-.18-.9-.47-1.01-.24-.09-.45-.12-.66-.1-.33.03-.59.39-.71.69-.25.63-.44,1.29-.62,1.93-.03.09-.05.19-.08.28-.19.68-.37,1.34-.53,1.99-.03-.63-.06-1.31-.07-2.04,0-.35,0-.71.01-1.06,0-.41.02-.83,0-1.23,0-.05,0-.1-.01-.15-.55,1.55-.92,3.55-.94,6.16,0,1.27.13,2.38.37,3.36.07.09.16.15.26.19.03,0,.06.02.09.02,0,0,.01,0,.02,0,.03,0,.06,0,.08,0,.33-.02.58-.43.67-.8.02-.06.03-.13.05-.21.06-.28.11-.56.16-.84.04-.22.08-.44.13-.66.23-1.17.5-2.34.81-3.49,0,1.81.1,3.6.21,5.29.02.29.12.71.34.93.08.08.18.13.28.14.05,0,.09,0,.14,0,.48-.11.61-.89.58-1.36-.12-1.86-.25-4.33-.15-6.89"/></g><g><g><path class="cls-11" d="m2760.85,423.29c-1.08,0-1.89-.57-2.16-1.53-.09-.35.11-.7.46-.8.35-.1.7.11.8.46.15.56.71.61,1.14.56.76-.09,1.11-.86,1.11-1.54v-1.05c0-.36.29-.65.65-.65h0c.36,0,.65.29.65.65v1.05c0,1.49-.94,2.68-2.25,2.84-.13.02-.26.02-.39.02Z"/><path class="cls-11" d="m2764.74,423.28c-.13,0-.25,0-.39-.02-1.29-.15-2.15-1.29-2.16-2.83v-1.05c0-.36.29-.65.65-.65h0c.36,0,.65.29.65.65v1.05c0,.69.27,1.46,1.01,1.54.23.03,1.02.07,1.19-.56.09-.35.45-.55.8-.46.35.09.55.45.46.8-.26.96-1.11,1.54-2.21,1.54Z"/></g><path class="cls-11" d="m2762.84,416.7c-1.12-.01-2.26.21-2.27,1.2-.01.99,1.2,2.1,2.23,2.11,1.03.01,2.27-1.18,2.28-2.06,0-.88-1.13-1.24-2.24-1.25Z"/></g><g><path class="cls-11" d="m2750.74,405.14c-.1,0-.21-.02-.31-.07-.37-.17-.53-.6-.36-.97.04-.08.95-2.04,3.62-2.07h0c.4,0,.73.32.74.73,0,.41-.32.74-.73.75-1.71.02-2.27,1.16-2.3,1.21-.13.26-.39.42-.67.42Z"/><path class="cls-11" d="m2774.9,405.14c-.28,0-.55-.16-.67-.44-.02-.04-.59-1.18-2.29-1.2-.41,0-.73-.34-.73-.75,0-.4.33-.73.74-.73h0c2.67.03,3.58,1.99,3.62,2.07.17.37,0,.81-.37.98-.1.04-.2.07-.3.07Z"/></g><g><path class="cls-11" d="m2752.09,414.96c-.41,0-.75-.33-.76-.75-.02-1.6,1.15-2.97,2.74-3.19,1.73-.24,3.33.98,3.57,2.71.06.42-.23.8-.65.85-.41.06-.8-.23-.85-.65-.12-.9-.96-1.54-1.86-1.41-.83.11-1.44.83-1.43,1.66,0,.42-.33.76-.75.77h-.01Z"/><path class="cls-11" d="m2773.55,414.96h-.01c-.42,0-.75-.35-.75-.77.01-.83-.6-1.55-1.43-1.66-.44-.06-.87.05-1.23.32-.35.27-.58.65-.64,1.09-.06.41-.44.7-.85.65-.41-.06-.71-.44-.65-.85.11-.84.55-1.58,1.22-2.09.67-.51,1.51-.73,2.35-.62,1.59.22,2.77,1.59,2.74,3.19,0,.41-.34.75-.76.75Z"/></g></g><g><g><path class="cls-5" d="m2782.53,496.62c-.39-1.89-.88-3.66-1.49-5.32-.8-2.17-1.8-4.11-3.02-5.82-3.63-5.09-9.22-8.01-17.34-8.03h-.11c-8.12-.02-13.72,2.88-17.37,7.96-1.23,1.71-2.23,3.65-3.04,5.82-.62,1.65-1.12,3.42-1.51,5.31-1.14,5.46-1.78,15.07-.49,19.07,1.43,4.42,5.33,7.87,14.14,8.5,0,0,3.91.31,8.07.3,4.44,0,8.52-.23,8.52-.23,8.82-.63,12.61-4.05,14.05-8.47,1.31-4,.71-13.63-.41-19.09"/><path class="cls-11" d="m2783.85,498.47c-2.29-15.11-13.07-20.54-22.47-20.81h-.82s-.73,0-.73,0c-9.39.24-20.16,5.63-22.51,20.72-1.71.62-5.36,2.86-5.41,11.16-.05,8.32,6.07,9.94,8.35,10.26.23.03.71.02,1.08-.33-.05-.07-.09-.14-.14-.21-.06-.1-.13-.19-.19-.29-.07-.12-.14-.25-.21-.37-.05-.09-.1-.18-.15-.28-.07-.15-.14-.3-.21-.45-.03-.08-.07-.15-.1-.23-.09-.23-.18-.47-.26-.71-1.18-3.66-.6-12.48.45-17.47.36-1.72.8-3.36,1.38-4.86,1.26-3.25,5.02-12.64,18.65-12.62,14.09.03,17.44,9.44,18.68,12.69.58,1.5,1.09,3.13,1.45,4.86,1.02,4.99,1.57,13.82.38,17.47-.08.24-.17.48-.26.71-.03.08-.07.15-.1.23-.07.15-.13.3-.21.45-.05.09-.1.18-.15.27-.07.13-.14.25-.21.37-.06.1-.13.19-.19.29-.05.07-.09.14-.14.21.36.35.84.36,1.07.33,2.28-.31,8.4-1.91,8.38-10.23-.02-8.3-3.68-10.55-5.39-11.18"/><g><path class="cls-11" d="m2761.17,525.22h-.2c-5.16,0-9.95-.32-10-.32-6.4-.83-10.18-3.38-11.61-7.78-1.29-3.99-.57-13.07.42-17.82.08-.41.49-.67.9-.59.41.09.67.49.59.9-1.11,5.3-1.54,13.72-.47,17.05,1.24,3.85,4.52,5.99,10.31,6.74h0s4.76.31,9.85.31c3.34,0,7.19-.11,9.33-.29,7.25-.6,9.41-4.86,10-6.67,1.09-3.33.69-11.76-.4-17.07-.08-.41.18-.81.59-.89.41-.09.81.18.89.59.97,4.76,1.66,13.85.35,17.84-.68,2.09-3.16,7.04-11.32,7.71-2.13.17-5.91.29-9.25.29Z"/><path class="cls-11" d="m2780.7,520.7c-.37,0-.97-.09-1.47-.57-.29-.28-.33-.74-.1-1.07l.07-.1s.06-.08.06-.09c.09-.13.13-.19.17-.26.07-.12.13-.23.2-.34l.15-.27c.06-.12.12-.26.18-.39,0,0,.05-.1.05-.11l.04-.09c.09-.23.17-.44.25-.67,1.09-3.33.69-11.75-.4-17.05-.31-1.53-.77-3.07-1.41-4.73l-.07-.18c-1.25-3.27-4.57-11.96-17.85-11.99h-.06c-13.13,0-16.66,9.1-17.82,12.09-.52,1.33-.95,2.87-1.34,4.73-1.11,5.3-1.54,13.72-.47,17.05.07.23.15.44.24.66l.09.21c.08.18.13.29.19.41l.09.17s.05.09.05.09c.09.16.14.25.19.34.05.08.1.16.15.24l.13.21c.24.33.2.79-.1,1.07-.68.65-1.52.58-1.77.54-2.13-.29-9.1-1.97-9.05-11.08.05-7.96,3.28-10.76,5.5-11.74,2.55-15.07,13.63-20.71,23.22-20.96h.75s.84,0,.84,0c9.63.28,20.71,5.97,23.2,21.05,2.22,1,5.45,3.81,5.47,11.76.02,9.11-6.95,10.75-9.09,11.04-.06,0-.16.02-.28.02Zm-.81-1.3l.02.02h0s-.03-.02-.03-.02Zm-19.39-38.25h.06c14.4.03,18.02,9.48,19.38,13.04l.07.18c.67,1.75,1.16,3.38,1.48,4.99.98,4.77,1.66,13.88.35,17.89-.08.26-.18.51-.28.76-.02.05-.05.12-.08.18-.1.23-.17.39-.25.55l-.14.25s0,0,0,0c2.45-.41,7.35-2.14,7.33-9.36-.02-7.52-3.05-9.75-4.85-10.41-.28-.1-.48-.35-.53-.65-2.75-18.16-17.29-19.99-21.68-20.11h-.81s-.72,0-.72,0c-4.37.11-18.88,1.88-21.7,20.03-.05.3-.25.54-.53.65-1.8.65-4.82,2.86-4.87,10.39-.05,7.23,4.86,8.97,7.32,9.39-.01-.02-.02-.03-.02-.04l-.11-.21c-.07-.14-.13-.28-.2-.42l.68-.49-.75.34-.07-.17c-.1-.25-.2-.51-.28-.77-1.29-4.01-.57-13.12.42-17.89.41-1.94.87-3.57,1.42-4.99,1.26-3.25,5.11-13.14,19.35-13.14Z"/></g></g><g><path class="cls-5" d="m2789.25,509.53c-.02-2.57-.38-4.55-.93-6.09,0,.05-.01.1-.01.15-.03.4-.03.82-.04,1.23,0,.35,0,.72-.03,1.06-.04.73-.08,1.41-.14,2.04-.14-.65-.29-1.32-.46-2.01-.02-.09-.05-.19-.07-.28-.16-.65-.32-1.32-.55-1.95-.11-.31-.35-.68-.69-.72-.2-.02-.42,0-.66.08-.3.1-.5.49-.51.99,0,.24,0,.49,0,.73,0,.13,0,.26,0,.4,0,2.57-.21,5.03-.4,6.88-.05.46.05,1.25.53,1.37.05.01.1.02.14.02.1,0,.2-.05.28-.13.22-.21.34-.62.37-.92.17-1.68.34-3.47.4-5.27.26,1.16.49,2.33.68,3.51.04.22.07.44.1.66.04.28.09.56.13.84.01.08.03.15.04.22.08.38.31.8.63.83.03,0,.05,0,.08,0,0,0,.01,0,.02,0,.03,0,.06-.01.09-.02.32-.1.51-.52.58-.87.15-.8.28-1.71.39-2.75"/><path class="cls-5" d="m2735.93,505.2c0-.13.01-.26.02-.4.01-.24.03-.48.03-.73,0-.5-.18-.9-.47-1.01-.24-.09-.45-.12-.66-.1-.33.03-.59.39-.71.69-.25.63-.44,1.29-.62,1.93-.03.09-.05.19-.08.28-.19.68-.37,1.34-.53,1.99-.03-.63-.06-1.31-.07-2.04,0-.35,0-.71.01-1.06,0-.41.02-.83,0-1.23,0-.05,0-.1-.01-.15-.55,1.55-.92,3.55-.94,6.16,0,1.27.13,2.38.37,3.36.07.09.16.15.26.19.03,0,.06.02.09.02,0,0,.01,0,.02,0,.03,0,.06,0,.08,0,.33-.02.58-.43.67-.8.02-.06.03-.13.05-.21.06-.28.11-.56.16-.84.04-.22.08-.44.13-.66.23-1.17.5-2.34.81-3.49,0,1.81.1,3.6.21,5.29.02.29.12.71.34.93.08.08.18.13.28.14.05,0,.09,0,.14,0,.48-.11.61-.89.58-1.36-.12-1.86-.25-4.33-.15-6.89"/></g><g><g><path class="cls-11" d="m2771.82,504.32c-.23,0-.46-.11-.6-.32-.03-.04-.76-1.03-2.08-1.04-1.48,0-2.29,1.01-2.32,1.05-.25.32-.71.38-1.03.13-.32-.25-.38-.71-.14-1.03.05-.07,1.27-1.63,3.48-1.63h0c2.1,0,3.24,1.6,3.29,1.67.23.33.15.79-.18,1.03-.13.09-.28.13-.42.13Z"/><path class="cls-11" d="m2754.92,504.36c-.22,0-.44-.1-.59-.29-.04-.05-.85-1.06-2.31-1.06-1.35,0-2.06.99-2.09,1.03-.24.33-.7.4-1.03.17-.33-.24-.41-.69-.17-1.02.05-.07,1.19-1.65,3.28-1.65h.01c2.22,0,3.44,1.58,3.49,1.65.25.33.18.79-.15,1.03-.13.1-.29.15-.44.15Z"/><path class="cls-11" d="m2766.94,508.69c-.3,0-.59-.16-.73-.45-.21-.4-.05-.9.36-1.1,1.84-.94,4.69-.23,5.01-.14.44.12.7.56.58,1-.12.44-.57.7-1,.58-.7-.18-2.75-.54-3.84.02-.12.06-.25.09-.37.09Z"/><path class="cls-11" d="m2754.19,508.69c-.13,0-.25-.03-.37-.09-1.09-.56-3.14-.2-3.84-.02-.44.11-.89-.15-1-.58-.12-.44.14-.89.58-1,.32-.08,3.16-.8,5.01.14.4.21.56.7.36,1.1-.15.28-.43.45-.73.45Z"/></g><path class="cls-11" d="m2760.51,511.13c-1.12-.01-2.26.21-2.27,1.2-.01.99,1.2,2.1,2.23,2.11,1.03.01,2.27-1.18,2.28-2.06,0-.88-1.13-1.24-2.24-1.25Z"/><g><path class="cls-5" d="m2760.58,514.07s-1.1-.98-2.06-.5c-.58.29-.79.92-.6,1.55.17.54.75.91.75.91,0,0-1.35.71-.81,1.95.41.94,1.81,1.09,2.32.78"/><path class="cls-11" d="m2759.53,519.29c-.26,0-.54-.04-.8-.13-.58-.19-1.01-.55-1.22-1.03-.41-.94.04-1.69.53-2.13-.19-.19-.39-.46-.49-.78-.26-.83.06-1.64.8-2.01,1.17-.59,2.43.51,2.48.56.16.14.17.38.03.54-.14.16-.38.18-.54.03,0,0-.92-.8-1.63-.45-.39.19-.55.62-.41,1.09.1.33.46.62.59.7.12.07.18.2.18.34,0,.14-.08.26-.2.33-.11.06-1.02.58-.64,1.46.16.37.54.54.75.6.41.13.85.1,1.03,0,.18-.11.42-.05.53.13.11.18.05.42-.13.53-.22.13-.52.2-.86.2Z"/></g></g></g><g><g><path class="cls-5" d="m2784.78,314.28c-.39-1.89-.88-3.66-1.49-5.32-.8-2.17-1.8-4.11-3.02-5.82-3.63-5.09-9.22-8.01-17.34-8.03h-.11c-8.12-.02-13.72,2.88-17.37,7.96-1.23,1.71-2.23,3.65-3.04,5.82-.62,1.65-1.12,3.42-1.51,5.31-1.14,5.46-1.78,15.07-.49,19.07,1.43,4.42,5.33,7.87,14.14,8.5,0,0,3.91.31,8.06.3,4.44,0,8.52-.23,8.52-.23,8.82-.63,12.61-4.05,14.05-8.47,1.31-4,.71-13.63-.41-19.09"/><path class="cls-11" d="m2786.1,316.13c-2.29-15.11-13.07-20.54-22.47-20.81h-.82s-.73,0-.73,0c-9.39.24-20.16,5.63-22.51,20.72-1.71.62-5.36,2.86-5.41,11.16-.05,8.32,6.07,9.94,8.35,10.26.23.03.71.02,1.08-.33-.05-.07-.09-.14-.14-.21-.06-.1-.13-.19-.19-.29-.07-.12-.14-.25-.21-.37-.05-.09-.1-.18-.15-.28-.07-.15-.14-.3-.21-.45-.03-.08-.07-.15-.1-.23-.09-.23-.18-.47-.26-.71-1.18-3.66-.6-12.48.45-17.47.36-1.72.8-3.36,1.38-4.86,1.26-3.25,5.02-12.64,18.65-12.62,14.09.03,17.44,9.44,18.68,12.69.58,1.5,1.09,3.13,1.45,4.86,1.02,4.99,1.57,13.82.38,17.47-.08.24-.17.48-.26.71-.03.08-.07.15-.1.23-.07.15-.13.3-.21.45-.05.09-.1.18-.15.27-.07.13-.14.25-.21.37-.06.1-.13.19-.19.29-.05.07-.09.14-.14.21.36.35.84.36,1.07.33,2.28-.31,8.4-1.91,8.38-10.23-.02-8.3-3.68-10.55-5.39-11.18"/><g><path class="cls-11" d="m2763.42,342.89h-.2c-5.16,0-9.95-.32-10-.32-6.4-.83-10.18-3.38-11.61-7.78-1.29-3.99-.57-13.07.43-17.82.08-.41.49-.67.9-.59.41.09.67.49.59.9-1.11,5.3-1.54,13.72-.47,17.05,1.24,3.85,4.52,5.99,10.31,6.74h0s4.76.3,9.86.31c3.34.03,7.19-.11,9.33-.29,7.25-.6,9.41-4.86,10-6.67,1.09-3.33.69-11.76-.4-17.07-.08-.41.18-.81.59-.89.41-.09.81.18.89.59.97,4.76,1.66,13.85.35,17.84-.68,2.09-3.16,7.04-11.32,7.71-2.13.17-5.91.29-9.25.29Z"/><path class="cls-11" d="m2782.94,338.37c-.37,0-.97-.09-1.47-.57-.29-.28-.33-.73-.1-1.06l.13-.2c.08-.11.12-.18.17-.25.07-.12.13-.23.19-.34l.14-.26c.06-.12.12-.26.18-.4,0,0,.04-.09.05-.1l.04-.1c.09-.23.18-.45.25-.67,1.09-3.33.69-11.75-.4-17.05-.31-1.53-.77-3.07-1.41-4.73l-.07-.18c-1.25-3.27-4.57-11.96-17.85-11.99h-.06c-13.12,0-16.66,9.1-17.82,12.09-.51,1.33-.95,2.87-1.34,4.72-1.11,5.3-1.54,13.72-.47,17.05.07.22.15.44.24.66l.09.21c.08.18.13.29.19.41l.33.6c.05.08.11.17.16.25,0,0,.06.1.07.11l.05.08c.24.33.19.79-.1,1.07-.68.65-1.52.58-1.77.55-2.13-.3-9.1-1.97-9.05-11.08.05-7.96,3.28-10.76,5.5-11.74,2.55-15.07,13.63-20.71,23.22-20.96h.75s.83,0,.83,0c9.63.28,20.71,5.97,23.2,21.05,2.22,1,5.45,3.81,5.47,11.76.02,9.11-6.95,10.75-9.09,11.04-.06,0-.16.02-.28.02Zm-20.21-39.55h.06c14.41.03,18.02,9.48,19.38,13.04l.07.18c.67,1.74,1.16,3.38,1.48,4.99.98,4.77,1.66,13.88.35,17.89-.08.26-.18.51-.28.76-.02.05-.05.12-.08.19-.1.22-.17.38-.25.54l-.14.25c2.45-.41,7.35-2.14,7.33-9.36-.02-7.52-3.05-9.75-4.85-10.41-.28-.1-.48-.35-.53-.65-2.75-18.16-17.29-19.99-21.68-20.11h-.81s-.72,0-.72,0c-4.36.11-18.88,1.89-21.7,20.03-.05.3-.25.54-.53.65-1.45.52-4.82,2.58-4.87,10.39-.05,7.23,4.86,8.97,7.31,9.39l-.13-.25c-.07-.14-.13-.28-.19-.42l.68-.49-.75.34-.07-.17c-.1-.25-.2-.51-.28-.77-1.29-4.01-.57-13.12.42-17.89.41-1.94.87-3.57,1.42-4.98,1.26-3.25,5.11-13.14,19.35-13.14Z"/></g></g><g><path class="cls-5" d="m2791.5,327.19c-.02-2.57-.38-4.55-.93-6.09,0,.05-.01.1-.01.15-.03.4-.03.82-.04,1.23,0,.35,0,.72-.03,1.06-.04.73-.08,1.41-.14,2.04-.14-.65-.29-1.32-.46-2.01-.02-.09-.05-.19-.07-.28-.16-.65-.32-1.32-.55-1.95-.11-.31-.35-.68-.69-.72-.2-.02-.42,0-.66.08-.3.1-.5.49-.51.99,0,.24,0,.49,0,.73,0,.13,0,.26,0,.4,0,2.57-.21,5.03-.4,6.88-.05.46.05,1.25.53,1.37.05.01.1.02.14.02.1,0,.2-.05.28-.13.22-.21.34-.62.37-.92.17-1.68.34-3.47.4-5.27.26,1.16.49,2.33.68,3.51.04.22.07.44.1.66.04.28.09.56.13.84.01.08.03.15.04.22.08.38.31.8.63.83.03,0,.05,0,.08,0,0,0,.01,0,.02,0,.03,0,.06-.01.09-.02.32-.1.51-.52.58-.87.15-.8.28-1.71.39-2.75"/><path class="cls-5" d="m2738.18,322.86c0-.13.01-.26.02-.4.01-.24.03-.48.03-.73,0-.5-.18-.9-.47-1.01-.24-.09-.45-.12-.66-.1-.33.03-.59.39-.71.69-.25.63-.44,1.29-.62,1.93-.03.09-.05.19-.08.28-.19.68-.37,1.34-.53,1.99-.03-.63-.06-1.31-.07-2.04,0-.35,0-.71.01-1.06,0-.41.02-.83,0-1.23,0-.05,0-.1-.01-.15-.55,1.55-.92,3.55-.94,6.16,0,1.27.13,2.38.37,3.36.07.09.16.15.26.19.03,0,.06.02.09.02,0,0,.01,0,.02,0,.03,0,.06,0,.08,0,.33-.02.58-.43.67-.8.02-.06.03-.13.05-.21.06-.28.11-.56.16-.84.04-.22.08-.44.13-.66.23-1.17.5-2.34.81-3.49,0,1.81.1,3.6.21,5.29.02.29.12.71.34.93.08.08.18.13.28.14.05,0,.09,0,.14,0,.48-.11.61-.89.58-1.36-.12-1.86-.25-4.33-.15-6.89"/></g><g><g><path class="cls-11" d="m2758.48,325.45c0,1.39-1.13,2.52-2.53,2.51-1.39,0-2.52-1.13-2.51-2.53,0-1.39,1.13-2.52,2.53-2.51,1.39,0,2.52,1.14,2.51,2.53Z"/><path class="cls-11" d="m2775.32,325.5c0,1.39-1.14,2.52-2.53,2.51-1.39,0-2.52-1.13-2.51-2.53,0-1.39,1.13-2.52,2.53-2.51,1.39,0,2.52,1.14,2.51,2.53Z"/><path class="cls-11" d="m2774.06,314.56c-.23,0-.46-.11-.6-.32-.03-.04-.76-1.03-2.08-1.04h0c-1.47,0-2.28,1.01-2.31,1.05-.25.32-.71.38-1.03.13-.32-.25-.38-.71-.14-1.03.05-.07,1.27-1.63,3.48-1.63h.01c2.1,0,3.24,1.6,3.29,1.67.23.33.15.79-.18,1.03-.13.09-.28.13-.42.13Z"/><path class="cls-11" d="m2757.17,320.27c-.22,0-.44-.1-.59-.29-.04-.05-.85-1.06-2.32-1.06h0c-1.31,0-2.05.99-2.08,1.03-.24.33-.7.4-1.03.17-.33-.24-.41-.69-.17-1.02.05-.07,1.19-1.65,3.28-1.65h0c2.22,0,3.44,1.58,3.49,1.65.25.33.18.79-.14,1.03-.13.1-.29.15-.44.15Z"/></g><g><path class="cls-11" d="m2760.78,335.38c-1.08,0-1.9-.57-2.16-1.53-.09-.35.11-.7.46-.8.35-.09.7.11.8.46.15.56.71.61,1.14.56.76-.09,1.11-.86,1.11-1.54v-1.05c0-.36.29-.65.65-.65h0c.36,0,.65.29.65.65v1.05c0,1.49-.94,2.68-2.25,2.84-.13.02-.26.02-.39.02Z"/><path class="cls-11" d="m2764.66,335.38c-.13,0-.25,0-.39-.02-1.29-.15-2.15-1.29-2.16-2.83v-1.05c0-.36.29-.65.65-.65h0c.36,0,.65.29.65.65v1.05c0,.69.27,1.46,1.01,1.54.23.03,1.02.07,1.19-.57.09-.35.45-.55.8-.46.35.09.55.45.46.8-.26.96-1.11,1.54-2.21,1.54Z"/></g><path class="cls-11" d="m2762.76,328.79c-1.12-.01-2.26.21-2.27,1.2-.01.99,1.2,2.1,2.23,2.11,1.03.01,2.27-1.18,2.28-2.06,0-.88-1.13-1.24-2.24-1.25Z"/><rect class="cls-5" x="2767.29" y="321.52" width="8.28" height="3.81"/><path class="cls-11" d="m2774.58,326.12h-7.32c-.41,0-.74-.33-.74-.74s.33-.74.74-.74h7.32c.41,0,.74.33.74.74s-.33.74-.74.74Z"/><rect class="cls-5" x="2750.45" y="321.52" width="8.44" height="3.81"/><path class="cls-11" d="m2757.74,326.12h-7.32c-.41,0-.74-.33-.74-.74s.33-.74.74-.74h7.32c.41,0,.74.33.74.74s-.33.74-.74.74Z"/></g></g></g></g></g></svg>