<?xml version="1.0" encoding="UTF-8"?><svg id="Layer_2" xmlns="http://www.w3.org/2000/svg" viewBox="0 0 6480.37 925.81"><defs><style>.cls-1{fill:#f4a17f;}.cls-2{fill:#e63636;}.cls-3{fill:#a82626;}.cls-4{fill:#ac2f2b;}.cls-5,.cls-6{fill:#d35050;}.cls-7{fill:#ce6195;}.cls-7,.cls-8{fill-rule:evenodd;}.cls-8{fill:#8c428e;}.cls-6{opacity:.25;}</style></defs><g id="_ÎÓÈ_1"><g><rect class="cls-1" x="2030.75" y="710.72" width="4449.61" height="215.09"/><rect class="cls-1" y="710.72" width="4449.61" height="215.09"/><g><g><g><rect class="cls-4" x="2975.42" y="760.11" width="68.36" height="165.7"/><rect class="cls-4" x="2979.46" y="344.56" width="60.27" height="189.94"/><rect class="cls-4" x="2985.12" y="187.75" width="48.95" height="149.82"/><rect class="cls-4" x="2990.89" y="30.96" width="37.4" height="149.83"/><rect class="cls-4" x="2987.75" y="26.65" width="43.68" height="4.31"/><rect class="cls-4" x="2987.75" y="35.35" width="43.68" height="4.31"/><rect class="cls-4" x="2993.03" y="18.92" width="33.13" height="7.74"/><polygon class="cls-4" points="3023.33 16 2995.86 16 2993.03 18.92 3026.16 18.92 3023.33 16"/><rect class="cls-4" x="3005.4" y="5.33" width="8.38" height="10.66"/><polygon class="cls-4" points="3011.2 0 3007.99 0 3007.1 5.33 3012.09 5.33 3011.2 0"/><rect class="cls-4" x="3003.59" y="12.23" width="12.02" height="3.77"/><polygon class="cls-4" points="3001.94 337.63 3001.94 474.62 3001.94 617.36 3001.94 760.11 3017.24 760.11 3017.24 617.36 3017.24 474.62 3017.24 337.63 3001.94 337.63"/><polygon class="cls-4" points="3043.77 760.11 2975.42 760.11 2959.08 760.11 2959.08 802.32 2975.42 802.32 3043.77 802.32 3060.11 802.32 3060.11 760.11 3043.77 760.11"/><g><polygon class="cls-4" points="2962.4 827.2 2968.88 827.2 2968.88 846.55 2975.36 846.55 2975.36 827.2 2975.36 804.33 2975.36 802.32 2962.4 802.32 2962.4 827.2"/><polygon class="cls-4" points="3056.67 802.32 3043.72 802.32 3043.72 804.33 3043.72 827.2 3043.72 846.55 3050.2 846.55 3050.2 827.2 3056.67 827.2 3056.67 802.32"/></g></g><g><polygon class="cls-4" points="2979.46 534.49 2975.42 541.47 3043.77 541.47 3039.73 534.49 2979.46 534.49"/><rect class="cls-4" x="2975.42" y="541.47" width="68.36" height="218.64"/><polygon class="cls-4" points="2985.12 337.58 2979.46 344.56 3017.26 344.56 3039.73 344.56 3034.07 337.58 2985.12 337.58"/><polygon class="cls-4" points="3028.3 180.79 2999.32 180.79 2990.89 180.79 2985.12 187.75 2993.32 187.75 3012.38 187.75 3022.92 187.75 3034.07 187.75 3028.3 180.79"/></g></g><g><g><rect class="cls-4" x="4375.02" y="760.11" width="68.36" height="165.7"/><rect class="cls-4" x="4379.07" y="344.56" width="60.27" height="189.94"/><rect class="cls-4" x="4384.72" y="187.75" width="48.95" height="149.82"/><rect class="cls-4" x="4390.5" y="30.96" width="37.4" height="149.83"/><rect class="cls-4" x="4387.36" y="26.65" width="43.68" height="4.31"/><rect class="cls-4" x="4392.64" y="18.92" width="33.13" height="7.74"/><polygon class="cls-4" points="4422.93 16 4395.46 16 4392.64 18.92 4425.77 18.92 4422.93 16"/><rect class="cls-4" x="4405.01" y="5.33" width="8.38" height="10.66"/><polygon class="cls-4" points="4410.81 0 4407.59 0 4406.7 5.33 4411.69 5.33 4410.81 0"/><rect class="cls-4" x="4403.19" y="12.23" width="12.02" height="3.77"/><polygon class="cls-4" points="4401.55 337.63 4401.55 474.62 4401.55 617.36 4401.55 760.11 4416.85 760.11 4416.85 617.36 4416.85 474.62 4416.85 337.63 4401.55 337.63"/><polygon class="cls-4" points="4443.38 760.11 4375.02 760.11 4358.68 760.11 4358.68 802.32 4375.02 802.32 4443.38 802.32 4459.72 802.32 4459.72 760.11 4443.38 760.11"/><g><polygon class="cls-4" points="4362.01 827.2 4368.48 827.2 4368.48 846.55 4374.97 846.55 4374.97 827.2 4374.97 804.33 4374.97 802.32 4362.01 802.32 4362.01 827.2"/><polygon class="cls-4" points="4456.28 802.32 4443.33 802.32 4443.33 804.33 4443.33 827.2 4443.33 846.55 4449.81 846.55 4449.81 827.2 4456.28 827.2 4456.28 802.32"/></g></g><g><polygon class="cls-4" points="4379.07 534.49 4375.02 541.47 4443.38 541.47 4439.34 534.49 4379.07 534.49"/><rect class="cls-4" x="4375.02" y="541.47" width="68.36" height="218.64"/><polygon class="cls-4" points="4384.72 337.58 4379.07 344.56 4416.87 344.56 4439.34 344.56 4433.68 337.58 4384.72 337.58"/><polygon class="cls-4" points="4427.9 180.79 4398.92 180.79 4390.5 180.79 4384.72 187.75 4392.93 187.75 4411.99 187.75 4422.52 187.75 4433.68 187.75 4427.9 180.79"/></g></g><g><rect class="cls-4" x="4409.6" y="542.03" width="144.27" height="53.34"/><rect class="cls-4" x="4409.6" y="345.12" width="144.27" height="53.33"/><rect class="cls-4" x="4409.6" y="188.33" width="144.27" height="47.62"/><rect class="cls-4" x="4409.6" y="42.38" width="144.27" height="45.81"/></g><rect class="cls-3" x="3009.84" y="541.47" width="144.27" height="53.34"/><rect class="cls-3" x="3009.84" y="344.56" width="144.27" height="53.33"/><rect class="cls-3" x="3009.84" y="187.75" width="144.27" height="47.62"/><rect class="cls-3" x="3009.84" y="41.81" width="144.27" height="45.81"/><g><path class="cls-5" d="m2337.78,760.11h3.01v-46.57c-1,.04-2.01.09-3.01.13v46.44Z"/><path class="cls-5" d="m2396.42,760.11h3.02v-51.76c-1,.13-2.01.27-3.02.4v51.36Z"/></g><rect class="cls-2" x="2953.32" y="760.11" width="113.05" height="6.01"/><rect class="cls-5" x="2337.78" y="751.02" width="2743.81" height="3"/><rect class="cls-4" x="2340.28" y="766.11" width="2887.8" height="30.2"/><path class="cls-5" d="m3175.68,760.11h-37.19v42.22h68.36v-42.22h-31.17Zm22.44,6.01l-22.44,27.73v-27.73h22.44Zm-28.45,0v27.73l-22.44-27.73h22.44Zm-25.16,6.19l19.44,24.01h-19.44v-24.01Zm36.89,24.01l19.44-24.01v24.01h-19.44Z"/><path class="cls-5" d="m3244.04,760.11h-37.18v42.22h68.35v-42.22h-31.17Zm22.44,6.01l-22.44,27.73v-27.73h22.44Zm-28.45,0v27.73l-22.44-27.73h22.44Zm-25.16,6.19l19.44,24.01h-19.44v-24.01Zm36.9,24.01l19.44-24.01v24.01h-19.44Z"/><path class="cls-5" d="m3312.39,760.11h-37.18v42.22h68.35v-42.22h-31.17Zm22.44,6.01l-22.44,27.73v-27.73h22.44Zm-28.45,0v27.73l-22.44-27.73h22.44Zm-25.16,6.19l19.44,24.01h-19.44v-24.01Zm36.9,24.01l19.44-24.01v24.01h-19.44Z"/><path class="cls-5" d="m3380.74,760.11h-37.18v42.22h68.35v-42.22h-31.17Zm22.45,6.01l-22.44,27.73v-27.73s22.44,0,22.44,0Zm-28.46,0v27.73s-22.44-27.73-22.44-27.73h22.44Zm-25.16,6.19l19.44,24.01h-19.44v-24.01Zm36.9,24.01l19.44-24.01v24.01h-19.44Z"/><path class="cls-5" d="m3449.1,760.11h-37.19v42.22h68.35v-42.22h-31.17Zm22.44,6.01l-22.44,27.73v-27.73h22.44Zm-28.46,0v27.73s-22.43-27.73-22.43-27.73h22.43Zm-25.16,6.19l19.44,24.01h-19.44v-24.01Zm36.9,24.01l19.44-24.01v24.01h-19.44Z"/><path class="cls-5" d="m2865.79,760.11h-38.07v42.22h69.99v-42.22h-31.92Zm22.98,6.01l-22.98,27.73v-27.73s22.98,0,22.98,0Zm-29.13,0v27.73l-22.98-27.73h22.98Zm-25.77,6.19l19.9,24.01h-19.9v-24.01Zm37.78,24.01l19.9-24.01v24.01h-19.9Z"/><path class="cls-5" d="m2935.79,760.11h-38.07v42.22h69.99v-42.22h-31.92Zm22.98,6.01l-22.98,27.73v-27.73h22.98Zm-29.13,0v27.73l-22.98-27.73h22.98Zm-25.77,6.19l19.9,24.01h-19.9v-24.01Zm37.78,24.01l19.9-24.01v24.01h-19.9Z"/><path class="cls-5" d="m3005.27,760.11h-37.56v42.22h69.06v-42.22h-31.5Zm22.68,6.01l-22.67,27.73v-27.73s22.67,0,22.67,0Zm-28.74,0v27.73l-22.67-27.73h22.67Zm-25.43,6.19l19.64,24.01h-19.64v-24.01Zm37.28,24.01l19.64-24.01v24.01h-19.64Z"/><path class="cls-5" d="m3074.33,760.11h-37.57v42.22h69.07v-42.22h-31.5Zm22.68,6.01l-22.68,27.73v-27.73h22.68Zm-28.75,0v27.73l-22.67-27.73h22.67Zm-25.42,6.19l19.64,24.01h-19.64v-24.01Zm37.28,24.01l19.64-24.01v24.01h-19.64Z"/><path class="cls-5" d="m2585.83,760.11h-38.07v42.22h69.99v-42.22h-31.92Zm22.98,6.01l-22.98,27.73v-27.73h22.98Zm-29.13,0v27.73l-22.98-27.73h22.98Zm-25.76,6.19l19.9,24.01h-19.9v-24.01Zm37.78,24.01l19.9-24.01v24.01h-19.9Z"/><path class="cls-5" d="m2515.83,760.11h-38.07v42.22h69.99v-42.22h-31.92Zm22.98,6.01l-22.98,27.73v-27.73h22.98Zm-29.13,0v27.73l-22.98-27.73h22.98Zm-25.76,6.19l19.9,24.01h-19.9v-24.01Zm37.78,24.01l19.9-24.01v24.01h-19.9Z"/><path class="cls-5" d="m2445.84,760.11h-38.07v42.22h69.99v-42.22h-31.92Zm22.98,6.01l-22.98,27.73v-27.73h22.98Zm-29.13,0v27.73l-22.98-27.73h22.98Zm-25.76,6.19l19.9,24.01h-19.9v-24.01Zm37.78,24.01l19.9-24.01v24.01h-19.9Z"/><path class="cls-5" d="m2375.85,760.11h-38.07v42.22h69.99v-42.22h-31.92Zm22.98,6.01l-22.98,27.73v-27.73h22.98Zm-29.13,0v27.73l-22.98-27.73h22.98Zm-25.77,6.19l19.9,24.01h-19.9v-24.01Zm37.79,24.01l19.9-24.01v24.01h-19.9Z"/><path class="cls-5" d="m2655.82,760.11h-38.07v42.22h69.99v-42.22h-31.92Zm22.98,6.01l-22.98,27.73v-27.73h22.98Zm-29.14,0v27.73l-22.98-27.73h22.98Zm-25.77,6.19l19.9,24.01h-19.9v-24.01Zm37.79,24.01l19.9-24.01v24.01h-19.9Z"/><path class="cls-5" d="m2725.81,760.11h-38.07v42.22h69.99v-42.22h-31.92Zm22.99,6.01l-22.99,27.73v-27.73h22.99Zm-29.13,0v27.73l-22.98-27.73h22.98Zm-25.77,6.19l19.9,24.01h-19.9v-24.01Zm37.79,24.01l19.9-24.01v24.01h-19.9Z"/><path class="cls-5" d="m2795.8,760.11h-38.07v42.22h70v-42.22h-31.92Zm22.98,6.01l-22.98,27.73v-27.73s22.98,0,22.98,0Zm-29.14,0v27.73s-22.98-27.73-22.98-27.73h22.98Zm-25.76,6.19l19.9,24.01h-19.9v-24.01Zm37.79,24.01l19.9-24.01v24.01h-19.9Z"/><path class="cls-5" d="m3517.45,760.11h-37.19v42.22h68.36v-42.22h-31.17Zm22.44,6.01l-22.44,27.73v-27.73h22.44Zm-28.45,0v27.73l-22.44-27.73h22.44Zm-25.16,6.19l19.44,24.01h-19.44v-24.01Zm36.9,24.01l19.44-24.01v24.01h-19.44Z"/><path class="cls-5" d="m3585.8,760.11h-37.18v42.22h68.35v-42.22h-31.17Zm22.44,6.01l-22.44,27.73v-27.73h22.44Zm-28.45,0v27.73l-22.44-27.73h22.44Zm-25.16,6.19l19.44,24.01h-19.44v-24.01Zm36.9,24.01l19.44-24.01v24.01h-19.44Z"/><path class="cls-5" d="m3654.16,760.11h-37.18v42.22h68.35v-42.22h-31.17Zm22.45,6.01l-22.45,27.73v-27.73h22.45Zm-28.46,0v27.73s-22.44-27.73-22.44-27.73h22.44Zm-25.16,6.19l19.44,24.01h-19.44v-24.01Zm36.89,24.01l19.44-24.01v24.01h-19.44Z"/><path class="cls-5" d="m3722.51,760.11h-37.18v42.22h68.35v-42.22h-31.17Zm22.45,6.01l-22.45,27.73v-27.73h22.45Zm-28.46,0v27.73s-22.43-27.73-22.43-27.73h22.43Zm-25.16,6.19l19.44,24.01h-19.44v-24.01Zm36.89,24.01l19.44-24.01v24.01h-19.44Z"/><path class="cls-5" d="m3790.87,760.11h-37.19v42.22h68.36v-42.22h-31.17Zm22.44,6.01l-22.44,27.73v-27.73h22.44Zm-28.45,0v27.73l-22.45-27.73h22.45Zm-25.17,6.19l19.44,24.01h-19.44v-24.01Zm36.89,24.01l19.44-24.01v24.01h-19.44Z"/><path class="cls-5" d="m3859.22,760.11h-37.18v42.22h68.35v-42.22h-31.17Zm22.44,6.01l-22.44,27.73v-27.73h22.44Zm-28.45,0v27.73l-22.44-27.73h22.44Zm-25.16,6.19l19.44,24.01h-19.44v-24.01Zm36.9,24.01l19.44-24.01v24.01h-19.44Z"/><path class="cls-5" d="m3927.57,760.11h-37.18v42.22h68.35v-42.22h-31.17Zm22.44,6.01l-22.44,27.73v-27.73h22.44Zm-28.46,0v27.73l-22.44-27.73h22.44Zm-25.16,6.19l19.44,24.01h-19.44v-24.01Zm36.9,24.01l19.44-24.01v24.01h-19.44Z"/><path class="cls-5" d="m3995.93,760.11h-37.18v42.22h68.35v-42.22h-31.17Zm22.44,6.01l-22.44,27.73v-27.73h22.44Zm-28.45,0v27.73l-22.44-27.73h22.44Zm-25.16,6.19l19.44,24.01h-19.44v-24.01Zm36.89,24.01l19.44-24.01v24.01h-19.44Z"/><path class="cls-5" d="m4064.28,760.11h-37.18v42.22h68.35v-42.22h-31.16Zm22.44,6.01l-22.44,27.73v-27.73h22.44Zm-28.46,0v27.73s-22.44-27.73-22.44-27.73h22.44Zm-25.16,6.19l19.44,24.01h-19.44v-24.01Zm36.89,24.01l19.45-24.01v24.01h-19.45Z"/><path class="cls-5" d="m4132.64,760.11h-37.19v42.22h68.35v-42.22h-31.16Zm22.44,6.01l-22.44,27.73v-27.73h22.44Zm-28.45,0v27.73l-22.44-27.73h22.44Zm-25.16,6.19l19.44,24.01h-19.44v-24.01Zm36.9,24.01l19.44-24.01v24.01h-19.44Z"/><path class="cls-5" d="m4201,760.11h-37.19v42.22h68.36v-42.22h-31.17Zm22.44,6.01l-22.44,27.73v-27.73h22.44Zm-28.46,0v27.73l-22.44-27.73h22.44Zm-25.16,6.19l19.44,24.01h-19.44v-24.01Zm36.9,24.01l19.44-24.01v24.01h-19.44Z"/><path class="cls-5" d="m4269.35,760.11h-37.18v42.22h68.35v-42.22h-31.17Zm22.44,6.01l-22.44,27.73v-27.73h22.44Zm-28.45,0v27.73l-22.45-27.73h22.45Zm-25.16,6.19l19.44,24.01h-19.44v-24.01Zm36.89,24.01l19.44-24.01v24.01h-19.44Z"/><path class="cls-5" d="m4337.7,760.11h-37.18v42.22h68.35v-42.22h-31.17Zm22.44,6.01l-22.44,27.73v-27.73h22.44Zm-28.44,0v27.73l-22.45-27.73h22.45Zm-25.16,6.19l19.44,24.01h-19.44v-24.01Zm36.89,24.01l19.44-24.01v24.01h-19.44Z"/><path class="cls-5" d="m4406.05,760.11h-37.18v42.22h68.35v-42.22h-31.17Zm22.44,6.01l-22.44,27.73v-27.73h22.44Zm-28.45,0v27.73l-22.43-27.73h22.43Zm-25.16,6.19l19.43,24.01h-19.43v-24.01Zm36.89,24.01l19.44-24.01v24.01h-19.44Z"/><path class="cls-5" d="m4474.41,760.11h-37.18v42.22h68.35v-42.22h-31.17Zm22.45,6.01l-22.45,27.73v-27.73h22.45Zm-28.46,0v27.73l-22.44-27.73h22.44Zm-25.17,6.19l19.45,24.01h-19.45v-24.01Zm36.91,24.01l19.43-24.01v24.01h-19.43Z"/><path class="cls-5" d="m4542.76,760.11h-37.18v42.22h68.35v-42.22h-31.17Zm22.45,6.01l-22.45,27.73v-27.73h22.45Zm-28.46,0v27.73l-22.44-27.73h22.44Zm-25.16,6.19l19.44,24.01h-19.44v-24.01Zm36.9,24.01l19.43-24.01v24.01h-19.43Z"/><path class="cls-5" d="m4644.15,760.11h-37.54v42.22h69.02v-42.22h-31.48Zm22.66,6.01l-22.65,27.73v-27.73s22.65,0,22.65,0Zm-28.72,0v27.73l-22.66-27.73h22.66Zm-25.41,6.19l19.62,24.01h-19.62v-24.01Zm37.25,24.01l19.63-24.01v24.01h-19.63Z"/><path class="cls-5" d="m4713.16,760.11h-37.54v42.22h69.01v-42.22h-31.47Zm22.66,6.01l-22.66,27.73v-27.73h22.66Zm-28.72,0v27.73l-22.66-27.73h22.66Zm-25.41,6.19l19.62,24.01h-19.62v-24.01Zm37.25,24.01l19.63-24.01v24.01h-19.63Z"/><path class="cls-5" d="m4782.17,760.11h-37.53v42.22h69.02v-42.22h-31.48Zm22.67,6.01l-22.67,27.73v-27.73h22.67Zm-28.74,0v27.73l-22.65-27.73h22.65Zm-25.39,6.19l19.62,24.01h-19.62v-24.01Zm37.25,24.01l19.63-24.01v24.01h-19.63Z"/><path class="cls-5" d="m4851.19,760.11h-37.53v42.22h69.02v-42.22h-31.48Zm22.67,6.01l-22.67,27.73v-27.73h22.67Zm-28.74,0v27.73l-22.66-27.73h22.66Zm-25.4,6.19l19.61,24.01h-19.61v-24.01Zm37.25,24.01l19.63-24.01v24.01h-19.63Z"/><path class="cls-5" d="m4920.21,760.11h-37.54v42.22h69.01v-42.22h-31.47Zm22.66,6.01l-22.66,27.73v-27.73h22.66Zm-28.72,0v27.73l-22.66-27.73h22.66Zm-25.41,6.19l19.62,24.01h-19.62v-24.01Zm37.26,24.01l19.62-24.01v24.01h-19.62Z"/><path class="cls-5" d="m4989.22,760.11h-37.55v42.22h69.02v-42.22h-31.47Zm22.66,6.01l-22.66,27.73v-27.73h22.66Zm-28.72,0v27.73l-22.67-27.73h22.67Zm-25.42,6.19l19.63,24.01h-19.63v-24.01Zm37.27,24.01l19.61-24.01v24.01h-19.61Z"/><path class="cls-5" d="m5058.24,760.11h-37.55v42.22h69.02v-42.22h-31.47Zm22.65,6.01l-22.65,27.73v-27.73h22.65Zm-28.71,0v27.73l-22.67-27.73h22.67Zm-25.42,6.19l19.63,24.01h-19.63v-24.01Zm37.26,24.01l19.62-24.01v24.01h-19.62Z"/><path class="cls-5" d="m5127.25,760.11h-37.54v42.22h69.01v-42.22h-31.47Zm22.66,6.01l-22.66,27.73v-27.73h22.66Zm-28.72,0v27.73l-22.66-27.73h22.66Zm-25.41,6.19l19.63,24.01h-19.63v-24.01Zm37.26,24.01l19.62-24.01v24.01h-19.62Z"/><path class="cls-5" d="m5196.46,760.11h-37.73v42.22h69.36v-42.22h-31.63Zm22.77,6.01l-22.77,27.73v-27.73h22.77Zm-28.86,0v27.73l-22.77-27.73h22.77Zm-25.54,6.19l19.73,24.01h-19.73v-24.01Zm37.45,24.01l19.73-24.01v24.01h-19.73Z"/><path class="cls-5" d="m2484.28,760.11h3.02v-51.92c-1,.05-2.01.11-3.02.15v51.77Z"/><rect class="cls-6" x="3099.82" y="766.11" width="113.04" height="6.01"/><rect class="cls-5" x="2484.28" y="751.02" width="2743.81" height="3"/><rect class="cls-2" x="4499.57" y="760.11" width="113.05" height="6.01"/><rect class="cls-5" x="4532.88" y="35.28" width="46.42" height="2.77"/><rect class="cls-5" x="2425.68" y="711.98" width="3.13" height="48.12"/><rect class="cls-5" x="2367.1" y="714.56" width="3.02" height="45.54"/><g><path class="cls-5" d="m5163.33,715.92c-216.26,0-389.76-60.13-516.47-179.15-211.73-198.88-217.28-496.92-217.31-499.9l3.01-.03c.03,2.98,5.59,299.78,216.39,497.76,138.38,129.98,333.02,189.43,578.46,176.6l.16,3.02c-21.8,1.14-43.24,1.7-64.24,1.7Z"/><rect class="cls-5" x="5134.19" y="712.76" width="3.02" height="47.34"/><rect class="cls-5" x="5192.83" y="714.56" width="3.01" height="45.54"/><path class="cls-5" d="m4492.13,309.45v450.65h3.03v-444.21c-1-2.14-1.98-4.29-2.96-6.45h-.07Z"/><path class="cls-5" d="m4609.43,760.11h3.02v-261.44c-1.02-1.09-2.02-2.17-3.02-3.26v264.7Z"/><path class="cls-5" d="m4668.07,760.11h3.02v-205.56c-1.01-.85-2.02-1.72-3.02-2.58v208.14Z"/><path class="cls-5" d="m4726.71,760.11h3.02v-161.15c-1.01-.68-2.01-1.37-3.02-2.06v163.21Z"/><path class="cls-5" d="m4785.34,760.11h3.03v-125.77c-1.01-.54-2.02-1.07-3.03-1.62v127.39Z"/><path class="cls-5" d="m4843.99,659.11v101h3.02v-99.7c-.68-.29-1.37-.58-2.04-.86-.33-.14-.65-.29-.98-.43Z"/><path class="cls-5" d="m4902.64,760.11h3.02v-80.47c-1-.33-2.01-.66-3.02-1v81.47Z"/><path class="cls-5" d="m4961.28,760.11h3.02v-64.05c-1.01-.23-2.01-.48-3.02-.71v64.76Z"/><path class="cls-5" d="m5019.92,760.11h3.01v-54.09c-1.01-.14-2.01-.28-3.01-.42v54.51Z"/><path class="cls-5" d="m5078.57,760.11h3.02v-48.9c-1.01-.04-2.02-.09-3.02-.14v49.04Z"/><path class="cls-5" d="m3709.72,714.82c-374.7,0-679.54-304.84-679.54-679.54h3.02c0,373.04,303.49,676.52,676.53,676.52s676.53-303.49,676.53-676.52h3.01c0,374.7-304.84,679.54-679.54,679.54Z"/><g><path class="cls-5" d="m3092.45,319.83v440.28h3.02v-433.98c-.99-2.1-1.97-4.2-2.94-6.3h-.07Z"/><path class="cls-5" d="m3151.09,760.11h3.01v-333.49c-1.01-1.44-2.02-2.87-3.01-4.31v337.8Z"/><path class="cls-5" d="m3209.74,760.11h3.02v-261.44c-1.01-1.09-2.01-2.17-3.02-3.26v264.7Z"/><path class="cls-5" d="m3268.38,760.11h3.02v-205.56c-1.01-.85-2.02-1.72-3.02-2.58v208.14Z"/><path class="cls-5" d="m3327.02,760.11h3.02v-161.15c-1.01-.68-2.01-1.37-3.02-2.06v163.21Z"/><path class="cls-5" d="m3385.67,760.11h3.02v-125.77c-1.01-.54-2.01-1.07-3.02-1.62v127.39Z"/><path class="cls-5" d="m3444.31,661v99.11h3.02v-97.84c-.69-.29-1.37-.57-2.05-.85-.32-.13-.64-.28-.97-.41Z"/><path class="cls-5" d="m3502.96,760.11h3.01v-76.37c-1.01-.32-2.01-.63-3.01-.96v77.33Z"/><path class="cls-5" d="m3561.6,760.11h3.01v-60.79c-1-.22-2.01-.44-3.01-.67v61.47Z"/><path class="cls-5" d="m3620.24,760.11h3.01v-50.72c-1-.13-2.01-.27-3.01-.39v51.11Z"/><path class="cls-5" d="m3678.89,760.11h3.01v-45.85c-1.01-.04-2.01-.08-3.01-.13v45.98Z"/><path class="cls-5" d="m3737.53,760.11h3.01v-45.98c-1,.05-2.01.09-3.01.13v45.85Z"/><path class="cls-5" d="m3796.17,760.11h3.02v-51.09c-1,.13-2.01.26-3.02.39v50.7Z"/><path class="cls-5" d="m3854.82,760.11h3.02v-61.43c-1.01.23-2.01.45-3.02.67v60.76Z"/><path class="cls-5" d="m3913.46,760.11h3.02v-77.28c-1,.32-2.01.63-3.02.96v76.32Z"/><path class="cls-5" d="m3972.1,662.32v97.78h3.02v-99.04c-.27.12-.55.24-.82.35-.73.31-1.47.61-2.2.91Z"/><path class="cls-5" d="m4030.75,760.11h3.02v-127.3c-1.01.54-2.01,1.07-3.02,1.61v125.69Z"/><path class="cls-5" d="m4089.39,760.11h3.02v-163.1c-1.01.69-2.01,1.39-3.02,2.06v161.04Z"/><path class="cls-5" d="m4148.04,760.11h3.02v-208.01c-1.01.87-2.01,1.73-3.02,2.58v205.42Z"/><path class="cls-5" d="m4206.68,760.11h3.02v-264.53c-1.01,1.09-2.01,2.18-3.02,3.26v261.27Z"/><path class="cls-5" d="m4265.32,760.11h3.02v-337.57c-1,1.43-2.01,2.87-3.02,4.3v333.27Z"/><path class="cls-5" d="m4323.97,760.11h3.01v-440.1c-.99,2.16-2,4.3-3.01,6.45v433.65Z"/></g><path class="cls-5" d="m2337.33,714.28l-.12-3.02c364.08-14.43,649.28-311.35,649.28-675.99h3.01c0,176.75-67.51,344.16-190.11,471.41-122.26,126.9-286.36,200.63-462.07,207.59Z"/><path class="cls-5" d="m2455.07,760.11h3.01v-61.43c-1,.23-2.01.45-3.01.67v60.76Z"/><path class="cls-5" d="m2513.71,760.11h3.02v-77.28c-1.01.32-2.01.63-3.02.96v76.32Z"/><path class="cls-5" d="m2572.35,662.32v97.78h3.02v-99.04c-.27.12-.54.24-.81.35-.73.31-1.47.61-2.2.91Z"/><path class="cls-5" d="m2630.99,760.11h3.02v-127.3c-1,.54-2.01,1.07-3.02,1.61v125.69Z"/><path class="cls-5" d="m2689.64,760.11h3.02v-163.1c-1,.69-2.01,1.39-3.02,2.06v161.04Z"/><path class="cls-5" d="m2748.28,760.11h3.01v-208.01c-1,.87-2.01,1.73-3.01,2.58v205.42Z"/><path class="cls-5" d="m2806.92,760.11h3.02v-264.53c-1,1.09-2.01,2.18-3.02,3.26v261.27Z"/><path class="cls-5" d="m2865.57,760.11h3.02v-337.57c-1,1.43-2.01,2.87-3.02,4.3v333.27Z"/><path class="cls-5" d="m2924.21,760.11h3.01v-440.1c-.99,2.16-2,4.3-3.01,6.45v433.65Z"/><path class="cls-5" d="m3856.21,714.82c-374.7,0-679.53-304.84-679.53-679.54h3.01c0,373.04,303.49,676.52,676.52,676.52s676.53-303.49,676.53-676.52h3.02c0,374.7-304.84,679.54-679.54,679.54Z"/><path class="cls-5" d="m5228.38,714.27c-175.65-7.02-339.7-80.76-461.91-207.66-122.55-127.24-190.04-294.63-190.04-471.34h3.02c0,364.51,285.1,661.44,649.06,675.98l-.12,3.02Z"/><g><path class="cls-5" d="m3238.95,319.83v440.28h3.01v-433.98c-.99-2.1-1.97-4.2-2.94-6.3h-.07Z"/><path class="cls-5" d="m3297.59,760.11h3.02v-333.49c-1.01-1.44-2.02-2.87-3.02-4.31v337.8Z"/><path class="cls-5" d="m3356.24,760.11h3.02v-261.44c-1.01-1.09-2.01-2.17-3.02-3.26v264.7Z"/><path class="cls-5" d="m3414.88,760.11h3.02v-205.56c-1.01-.85-2.01-1.72-3.02-2.58v208.14Z"/><path class="cls-5" d="m3473.52,760.11h3.01v-161.15c-1.01-.68-2.01-1.37-3.01-2.06v163.21Z"/><path class="cls-5" d="m3532.17,760.11h3.01v-125.77c-1-.54-2.01-1.07-3.01-1.62v127.39Z"/><path class="cls-5" d="m3590.82,661v99.11h3.01v-97.84c-.68-.29-1.36-.57-2.04-.85-.32-.13-.65-.28-.97-.41Z"/><path class="cls-5" d="m3649.46,760.11h3.01v-76.37c-1-.32-2.01-.63-3.01-.96v77.33Z"/><path class="cls-5" d="m3708.1,760.11h3.02v-60.79c-1.01-.22-2.01-.44-3.02-.67v61.47Z"/><path class="cls-5" d="m3766.74,760.11h3.02v-50.72c-1-.13-2.01-.27-3.02-.39v51.11Z"/><path class="cls-5" d="m3825.39,760.11h3.02v-45.85c-1.01-.04-2.01-.08-3.02-.13v45.98Z"/><path class="cls-5" d="m3884.03,760.11h3.02v-45.98c-1,.05-2.01.09-3.02.13v45.85Z"/><path class="cls-5" d="m3942.67,760.11h3.02v-51.09c-1.01.13-2.01.26-3.02.39v50.7Z"/><path class="cls-5" d="m4001.32,760.11h3.01v-61.43c-1,.23-2.01.45-3.01.67v60.76Z"/><path class="cls-5" d="m4059.96,760.11h3.01v-77.28c-1.01.32-2.01.63-3.01.96v76.32Z"/><path class="cls-5" d="m4118.6,662.32v97.78h3.02v-99.04c-.27.12-.54.24-.82.35-.73.31-1.46.61-2.2.91Z"/><path class="cls-5" d="m4177.25,760.11h3.02v-127.3c-1,.54-2.01,1.07-3.02,1.61v125.69Z"/><path class="cls-5" d="m4235.89,760.11h3.02v-163.1c-1.01.69-2.01,1.39-3.02,2.06v161.04Z"/><path class="cls-5" d="m4294.53,760.11h3.01v-208.01c-1,.87-2.01,1.73-3.01,2.58v205.42Z"/><path class="cls-5" d="m4353.17,760.11h3.01v-264.53c-1,1.09-1.99,2.18-3.01,3.26v261.27Z"/><path class="cls-5" d="m4411.82,760.11h3.02v-337.57c-1,1.43-2,2.87-3.02,4.3v333.27Z"/><path class="cls-5" d="m4470.46,760.11h3.03v-440.1c-1,2.16-2.01,4.3-3.03,6.45v433.65Z"/></g><g><path class="cls-5" d="m4638.64,319.83v440.28h3.02v-433.98c-.99-2.1-1.97-4.2-2.95-6.3h-.07Z"/><path class="cls-5" d="m4697.28,760.11h3.02v-333.49c-1.01-1.44-2.02-2.87-3.02-4.31v337.8Z"/><path class="cls-5" d="m4755.92,760.11h3.01v-261.44c-1.01-1.09-2.01-2.17-3.01-3.26v264.7Z"/><path class="cls-5" d="m4814.56,760.11h3.01v-205.56c-1.01-.85-2-1.72-3.01-2.58v208.14Z"/><path class="cls-5" d="m4873.2,760.11h3.02v-161.15c-1.01-.68-2.01-1.37-3.02-2.06v163.21Z"/><path class="cls-5" d="m4931.85,760.11h3.03v-125.77c-1.01-.54-2.02-1.07-3.03-1.62v127.39Z"/><path class="cls-5" d="m4990.49,661v99.11h3.01v-97.84c-.68-.29-1.37-.57-2.03-.85-.33-.13-.65-.28-.98-.41Z"/><path class="cls-5" d="m5049.14,760.11h3.01v-76.37c-1.01-.32-2.02-.63-3.01-.96v77.33Z"/><path class="cls-5" d="m5107.78,760.11h3.01v-60.79c-1.01-.22-2-.44-3.01-.67v61.47Z"/><path class="cls-5" d="m5166.43,760.11h3.02v-50.72c-1.01-.13-2.02-.27-3.02-.39v51.11Z"/><path class="cls-5" d="m5225.07,760.11h3.01v-45.85c-1.01-.04-2.01-.08-3.01-.13v45.98Z"/></g><path class="cls-5" d="m2542.92,760.11h3.02v-59.64c-1,.15-2.01.3-3.02.45v59.18Z"/><path class="cls-5" d="m2601.56,760.11h3.02v-70.73c-1.01.26-2.01.52-3.02.77v69.96Z"/><path class="cls-5" d="m2660.21,760.11h3.01v-85.66c-1,.36-2.01.71-3.01,1.06v84.59Z"/><path class="cls-5" d="m2718.85,654.63v105.48h3.02v-106.84c-.27.13-.55.26-.82.38-.73.33-1.47.65-2.2.98Z"/><path class="cls-5" d="m2777.49,760.11h3.02v-132.41c-1.01.56-2.02,1.12-3.02,1.68v130.73Z"/><path class="cls-5" d="m2836.14,760.11h3.02v-165.36c-1.01.7-2.01,1.4-3.02,2.1v163.27Z"/><path class="cls-5" d="m2894.78,760.11h3.01v-208.01c-1,.87-2.01,1.73-3.01,2.58v205.42Z"/><path class="cls-5" d="m2953.43,760.11h3.01v-264.53c-1,1.09-2,2.18-3.01,3.26v261.27Z"/><path class="cls-5" d="m3012.07,760.11h3.02v-337.57c-1,1.43-2,2.87-3.02,4.3v333.27Z"/><path class="cls-5" d="m3070.71,760.11h3.01v-448.78c-.99,2.2-2,4.38-3.01,6.57v442.21Z"/><path class="cls-5" d="m2369.44,714.73c-10.51,0-21.07-.12-31.77-.37l.07-3.02c10.65.25,21.25.37,31.7.37,244.89.01,436.19-66.99,569.03-199.34,197.56-196.84,194.53-473.04,194.48-475.81l3.02-.06c.05,2.78,3.09,280.26-195.37,478-133.41,132.93-325.48,200.22-571.16,200.23Z"/></g><g><g><rect class="cls-5" x="4521.92" y="760.11" width="68.36" height="165.7"/><rect class="cls-5" x="4525.96" y="344.56" width="60.27" height="189.94"/><rect class="cls-5" x="4531.62" y="187.75" width="48.95" height="149.82"/><rect class="cls-5" x="4537.39" y="30.96" width="37.4" height="149.83"/><rect class="cls-5" x="4534.26" y="26.65" width="43.68" height="4.31"/><rect class="cls-5" x="4539.53" y="18.92" width="33.13" height="7.74"/><polygon class="cls-5" points="4569.83 16 4542.36 16 4539.53 18.92 4572.67 18.92 4569.83 16"/><rect class="cls-5" x="4551.9" y="5.33" width="8.38" height="10.66"/><polygon class="cls-5" points="4557.7 0 4554.49 0 4553.6 5.33 4558.59 5.33 4557.7 0"/><rect class="cls-5" x="4550.09" y="12.23" width="12.02" height="3.77"/><polygon class="cls-5" points="4548.44 337.63 4548.44 474.62 4548.44 617.36 4548.44 760.11 4563.74 760.11 4563.74 617.36 4563.74 474.62 4563.74 337.63 4548.44 337.63"/><polygon class="cls-5" points="4590.27 760.11 4521.92 760.11 4505.58 760.11 4505.58 802.32 4521.92 802.32 4590.27 802.32 4606.61 802.32 4606.61 760.11 4590.27 760.11"/><g><polygon class="cls-5" points="4508.9 827.2 4515.38 827.2 4515.38 846.55 4521.86 846.55 4521.86 827.2 4521.86 804.33 4521.86 802.32 4508.9 802.32 4508.9 827.2"/><polygon class="cls-5" points="4603.18 802.32 4590.23 802.32 4590.23 804.33 4590.23 827.2 4590.23 846.55 4596.7 846.55 4596.7 827.2 4603.18 827.2 4603.18 802.32"/></g></g><g><polygon class="cls-4" points="4525.96 534.49 4521.92 541.47 4590.27 541.47 4586.24 534.49 4525.96 534.49"/><rect class="cls-5" x="4521.92" y="541.47" width="68.36" height="218.64"/><polygon class="cls-4" points="4531.62 337.58 4525.96 344.56 4563.76 344.56 4586.24 344.56 4580.57 337.58 4531.62 337.58"/><polygon class="cls-4" points="4574.8 180.79 4545.82 180.79 4537.39 180.79 4531.62 187.75 4539.82 187.75 4558.89 187.75 4569.42 187.75 4580.57 187.75 4574.8 180.79"/></g></g><g><g><rect class="cls-5" x="3122.31" y="760.11" width="68.36" height="165.7"/><rect class="cls-5" x="3126.36" y="344.56" width="60.27" height="189.94"/><rect class="cls-5" x="3132.01" y="187.75" width="48.95" height="149.82"/><rect class="cls-5" x="3137.79" y="30.96" width="37.4" height="149.83"/><rect class="cls-5" x="3134.65" y="26.65" width="43.68" height="4.31"/><rect class="cls-5" x="3132.93" y="35.35" width="45.4" height="4.31"/><rect class="cls-5" x="3139.93" y="18.92" width="33.13" height="7.74"/><polygon class="cls-5" points="3170.22 16 3142.75 16 3139.93 18.92 3173.06 18.92 3170.22 16"/><rect class="cls-5" x="3152.3" y="5.33" width="8.38" height="10.66"/><polygon class="cls-5" points="3158.09 0 3154.88 0 3153.99 5.33 3158.98 5.33 3158.09 0"/><rect class="cls-5" x="3150.48" y="12.23" width="12.02" height="3.77"/><polygon class="cls-5" points="3148.84 337.63 3148.84 474.62 3148.84 617.36 3148.84 760.11 3164.14 760.11 3164.14 617.36 3164.14 474.62 3164.14 337.63 3148.84 337.63"/><polygon class="cls-5" points="3190.67 760.11 3122.31 760.11 3105.97 760.11 3105.97 802.32 3122.31 802.32 3190.67 802.32 3207.01 802.32 3207.01 760.11 3190.67 760.11"/><g><polygon class="cls-5" points="3109.3 827.2 3115.77 827.2 3115.77 846.55 3122.26 846.55 3122.26 827.2 3122.26 804.33 3122.26 802.32 3109.3 802.32 3109.3 827.2"/><polygon class="cls-5" points="3203.57 802.32 3190.62 802.32 3190.62 804.33 3190.62 827.2 3190.62 846.55 3197.09 846.55 3197.09 827.2 3203.57 827.2 3203.57 802.32"/></g></g><g><polygon class="cls-4" points="3126.36 534.49 3122.31 541.47 3190.67 541.47 3186.63 534.49 3126.36 534.49"/><rect class="cls-5" x="3122.31" y="541.47" width="68.36" height="218.64"/><polygon class="cls-4" points="3132.01 337.58 3126.36 344.56 3164.16 344.56 3186.63 344.56 3180.96 337.58 3132.01 337.58"/><polygon class="cls-4" points="3175.19 180.79 3146.21 180.79 3137.79 180.79 3132.01 187.75 3140.22 187.75 3159.28 187.75 3169.81 187.75 3180.96 187.75 3175.19 180.79"/></g></g><rect class="cls-4" x="4499.57" y="766.11" width="113.05" height="6.01"/></g><path class="cls-7" d="m5637.84,878.47c123.38,17.1,249.46,31.49,374.19,47.33h468.34V351.13c-50.05-27.28-112.13-53.52-157.62-81.64-28.49-17.62-66.2-17.58-91.48-32.53-31.97-18.9-53.58-53.2-85.8-82.44-86.33-78.35-126.3-50.08-225.85,104.42-55.76,86.54-127.52,161.97-150.36,199.22-96.17,156.79-162.93,41.47-278.28,108.43-57.5,33.38-175.97,61.92-251.9,112.34-57.16,37.96-106.46,54.07-179.4,100.67l-4.27,2.73c-22.51,14.39-127.07,65.14-129.59,75.43,37.58,38.63,623.42,8.45,712.02,20.72Z"/><path class="cls-8" d="m5505.07,880.9c125.28,16.23,253.15,30.02,379.96,44.91h595.34V393.12c-.54-.46-1.08-.92-1.62-1.38-50.39-43.46-163.05-81.44-236.06-123.6-69.48-40.13-135.45-52.83-188.16-115.69-11.59-13.82-23.86-21.41-36.59-24.23-95.59,105.82-196.3,241.8-221.61,277-61.29,85.23-69.13,85.56-129.24,151.87-35.87,39.58-54.54,83.65-86.81,23.76-35.73-66.32-178.72,126.09-196.07,141.13-12.63,10.94-95.11,97.67-151.19,157.13,126.25-1.47,236.45-2.81,272.06,1.8Z"/><path class="cls-7" d="m1274.89,878.47c123.38,17.1,249.46,31.49,374.19,47.33h1034.66c-83.18-134.61-219.46-348.7-327.1-431.1-51.72-39.59-115.5-45.01-177.65-102.39-46.79-43.2-151.4-80.94-219.19-122.84-28.49-17.62-66.2-17.58-91.48-32.53-31.97-18.9-53.58-53.2-85.8-82.44-86.33-78.35-126.3-50.08-225.85,104.42-55.76,86.54-127.52,161.97-150.36,199.22-96.17,156.79-162.93,41.47-278.28,108.43-57.5,33.38-175.97,61.92-251.9,112.34-57.16,37.96-106.46,54.07-179.4,100.67l-4.27,2.73c-22.51,14.39-127.07,65.14-129.59,75.43,37.58,38.63,623.42,8.45,712.02,20.72Z"/><path class="cls-8" d="m1142.12,880.9c125.28,16.23,253.15,30.02,379.96,44.91h1105.53c-88.93-141.37-233.44-369.2-320.49-431.05-55.98-39.77-124.38-45.28-191.32-103.02-50.39-43.46-163.05-81.44-236.06-123.6-69.48-40.13-135.45-52.83-188.16-115.69-11.59-13.82-23.86-21.41-36.59-24.23-95.59,105.82-196.3,241.8-221.61,277-61.29,85.23-69.13,85.56-129.24,151.87-35.87,39.58-54.54,83.65-86.81,23.76-35.73-66.32-178.72,126.09-196.07,141.13-12.63,10.94-95.11,97.67-151.19,157.13,126.25-1.47,236.45-2.81,272.06,1.8Z"/></g></g></svg>