<?xml version="1.0" encoding="UTF-8"?><svg id="Layer_2" xmlns="http://www.w3.org/2000/svg" xmlns:xlink="http://www.w3.org/1999/xlink" viewBox="0 0 3517.14 1575.48"><defs><style>.cls-1{clip-path:url(#clippath);}.cls-2,.cls-3{fill:#f4a17f;}.cls-4{fill:#f8a289;}.cls-5{fill:#f8f3d4;}.cls-6{fill:#f8e6df;}.cls-7,.cls-8{fill:#f8efd9;}.cls-9{fill:#f8f7ee;}.cls-10{fill:#f8f7e8;}.cls-11,.cls-12{fill:#f28877;}.cls-13{fill:#f2703d;}.cls-14{fill:#f4e3cf;}.cls-15{fill:#e4d9d2;}.cls-16{fill:#fff;}.cls-17,.cls-18{fill:#f2ccc7;}.cls-19{fill:#feffff;}.cls-20{fill:#fda545;}.cls-21,.cls-22{fill:#8c428e;}.cls-23{fill:#cdbbad;}.cls-24{fill:#b1949a;}.cls-25,.cls-26{fill:#ac2f2b;}.cls-27{fill:#ce6195;}.cls-28{fill:#ddcdcf;}.cls-29,.cls-30{fill:#d35050;}.cls-31,.cls-32{fill:#d98d83;}.cls-33{fill:#e1c69f;}.cls-34{fill:#dccaa5;}.cls-35{fill:#1467e1;}.cls-36{fill:#6284a1;}.cls-37{clip-path:url(#clippath-1);}.cls-38{clip-path:url(#clippath-2);}.cls-39{fill:#f7dbca;}.cls-39,.cls-8,.cls-40,.cls-41,.cls-42,.cls-43,.cls-44,.cls-3,.cls-45,.cls-46,.cls-47,.cls-48,.cls-49,.cls-50,.cls-32,.cls-51,.cls-52,.cls-53,.cls-54,.cls-30,.cls-26,.cls-55,.cls-56,.cls-57,.cls-58,.cls-22,.cls-59,.cls-60,.cls-12,.cls-18,.cls-61,.cls-62,.cls-63,.cls-64{fill-rule:evenodd;}.cls-40{fill:#f8dfca;}.cls-41{fill:#f8f8f2;}.cls-42{fill:#f8ddb1;}.cls-43{fill:#f8ead3;}.cls-44{fill:#f8cfbc;}.cls-45{fill:#5a393c;}.cls-46{fill:#633f43;}.cls-47{fill:#7b7198;}.cls-48{fill:#a45246;}.cls-49{fill:#1a1e1f;}.cls-50{fill:#ac4f3f;}.cls-51{fill:#ad5142;}.cls-52{fill:#ae4636;}.cls-53{fill:#d4bea1;}.cls-54{fill:#d1beb4;}.cls-55{fill:#bf5145;}.cls-56{fill:#bc714f;}.cls-57{fill:#331600;}.cls-58{fill:#8d4638;}.cls-59{fill:#b65444;}.cls-60{fill:#f1dcc8;}.cls-61{fill:#f2d2ac;}.cls-62{fill:#ead1b6;}.cls-63{fill:#f4f8ef;}.cls-64{fill:#ffd686;}</style><clipPath id="clippath"><path class="cls-25" d="m789.17,596.46c-49.38,0-89.55-40.17-89.55-89.55s40.17-89.55,89.55-89.55,89.55,40.17,89.55,89.55-40.17,89.55-89.55,89.55Zm0-170.1c-44.41,0-80.55,36.13-80.55,80.55s36.13,80.55,80.55,80.55,80.55-36.13,80.55-80.55-36.13-80.55-80.55-80.55Z"/></clipPath><clipPath id="clippath-1"><path class="cls-25" d="m1093.69,445.48c-49.38,0-89.55-40.17-89.55-89.55s40.17-89.55,89.55-89.55,89.55,40.17,89.55,89.55-40.17,89.55-89.55,89.55Zm0-170.1c-44.41,0-80.55,36.13-80.55,80.55s36.13,80.55,80.55,80.55,80.55-36.13,80.55-80.55-36.13-80.55-80.55-80.55Z"/></clipPath><clipPath id="clippath-2"><path class="cls-25" d="m1398.2,294.5c-49.38,0-89.55-40.17-89.55-89.55s40.17-89.55,89.55-89.55,89.55,40.17,89.55,89.55-40.17,89.55-89.55,89.55Zm0-170.1c-44.41,0-80.55,36.13-80.55,80.55s36.13,80.55,80.55,80.55,80.55-36.13,80.55-80.55-36.13-80.55-80.55-80.55Z"/></clipPath></defs><g id="_ÎÓÈ_1"><g><g id="building_8"><path class="cls-27" d="m3388.66,787.6h-141.47v-175.93c23.27-25.11,46.53-50.21,69.8-75.32,23.89,25.11,47.78,50.21,71.67,75.32v175.93Z"/><path class="cls-25" d="m3324.1,787.6h-141.47v-175.93c23.27-25.11,46.53-50.21,69.8-75.32,23.89,25.11,47.78,50.21,71.67,75.32v175.93Z"/><polygon class="cls-31" points="3252.43 536.35 3316.99 536.35 3388.66 611.67 3324.1 611.67 3252.43 536.35"/><path class="cls-2" d="m3230.68,646.56h-21.86v-32.36h21.86v32.36Z"/><path class="cls-2" d="m3284.48,646.56h-21.86v-32.36h21.86v32.36Z"/></g><g><rect class="cls-25" x="2987.1" y="813.71" width="18.2" height="111.08"/><g><rect class="cls-29" x="2931.57" y="614.28" width="83.61" height="223.26" rx="41.81" ry="41.81"/><rect class="cls-29" x="3005.3" y="697.94" width="51.02" height="136.24" rx="25.51" ry="25.51"/></g></g><g id="building_9"><polygon class="cls-2" points="1842.47 694.51 2081.98 672.6 2030.85 589.82 1842.47 589.82 1842.47 694.51"/><rect class="cls-19" x="1896.93" y="672.55" width="185.08" height="164.38"/><path class="cls-27" d="m1788.01,672.55c17.65-27.35,35.3-54.7,52.95-82.04,18.66,27.35,37.31,54.7,55.97,82.04v164.38h-108.92v-164.38Z"/><rect class="cls-11" x="1935.88" y="703.03" width="15.83" height="38.95"/><rect class="cls-11" x="1984.57" y="703.03" width="15.83" height="38.95"/><rect class="cls-11" x="2033.26" y="703.03" width="15.83" height="38.95"/></g><g><rect class="cls-16" x="1103.97" y="754.75" width="371.42" height="43.51"/><g><rect class="cls-4" x="1128.38" y="750.11" width="8.04" height="43.77"/><rect class="cls-4" x="1159.64" y="750.11" width="8.04" height="43.77"/><rect class="cls-4" x="1190.91" y="750.11" width="8.04" height="43.77"/><rect class="cls-4" x="1222.17" y="750.11" width="8.04" height="43.77"/><rect class="cls-4" x="1253.44" y="750.11" width="8.04" height="43.77"/><rect class="cls-4" x="1284.7" y="750.11" width="8.04" height="43.77"/><rect class="cls-4" x="1315.96" y="750.11" width="8.04" height="43.77"/><rect class="cls-4" x="1347.23" y="750.11" width="8.04" height="43.77"/><rect class="cls-4" x="1378.49" y="750.11" width="8.04" height="43.77"/><rect class="cls-4" x="1409.76" y="750.11" width="8.04" height="43.77"/><rect class="cls-4" x="1441.02" y="750.11" width="8.04" height="43.77"/></g><rect class="cls-20" x="1265.13" y="712.42" width="24.53" height="4.46"/><rect class="cls-20" x="1303.94" y="712.42" width="24.53" height="4.46"/><rect class="cls-20" x="1336.39" y="712.42" width="8.14" height="4.46"/><rect class="cls-20" x="1249.01" y="712.42" width="8.14" height="4.46"/><path class="cls-17" d="m1489.98,759.74c-131.93-.23-263.86-.46-395.79-.69,26.53-26.07,39.98-41.81,46.28-67.98,107.54-.19,199.54-.38,307.08-.56,4.35,26.56,17.25,42.6,42.43,69.24Z"/><rect class="cls-16" x="1049.66" y="846.48" width="472.35" height="117"/><rect class="cls-21" x="1268" y="891.81" width="40.32" height="71.67"/><rect class="cls-4" x="1217.68" y="846.42" width="15.81" height="117.06"/><rect class="cls-4" x="1135.81" y="846.42" width="15.81" height="117.06"/><rect class="cls-4" x="1511.89" y="846.42" width="15.81" height="117.06"/><rect class="cls-4" x="1046.45" y="846.42" width="15.81" height="117.06"/><rect class="cls-4" x="1341.71" y="846.42" width="15.81" height="117.06"/><rect class="cls-4" x="1425.83" y="846.42" width="15.81" height="117.06"/><rect class="cls-21" x="1157.77" y="891.81" width="54.65" height="71.67"/><rect class="cls-21" x="1364.4" y="891.81" width="55.82" height="71.67"/><rect class="cls-21" x="1449.74" y="891.81" width="45.07" height="71.67"/><rect class="cls-21" x="1081.43" y="891.81" width="45.07" height="71.67"/><path class="cls-17" d="m1571.74,851.03c-189.55-.21-379.09-.42-568.64-.64,38.12-23.96,57.45-38.43,66.49-62.48,154.5-.17,286.69-.35,441.18-.52,6.25,24.41,24.79,39.15,60.97,63.64Z"/><g><rect class="cls-21" x="1267.53" y="728.98" width="42.87" height="113.32" transform="translate(503.32 2074.61) rotate(-90)"/><rect class="cls-16" x="1253.58" y="775.04" width="16.17" height="20.16" transform="translate(476.54 2046.79) rotate(-90)"/><rect class="cls-16" x="1281.08" y="775.04" width="16.17" height="20.16" transform="translate(504.04 2074.29) rotate(-90)"/><rect class="cls-16" x="1309.49" y="775.04" width="16.17" height="20.16" transform="translate(532.45 2102.7) rotate(-90)"/></g><g><polygon class="cls-17" points="1115.18 668.46 1141.29 692.37 1180.44 695.91 1402.34 695.91 1444.4 694.14 1470.5 668.46 1400.89 675.55 1176.09 675.55 1115.18 668.46"/><polygon class="cls-17" points="1115.18 668.46 1114.71 662.89 1169.64 669.23 1399.75 669.53 1469.52 661.68 1470.5 668.46 1400.89 675.55 1167.39 675.55 1115.18 668.46"/></g></g><path class="cls-3" d="m273.56,631.51c146.68-41.95,320.15-30.16,428.51,35.12,210.91,127.05,466.44,452.82,814.23,218,168.6-113.84,356.59-202,572.07-31.64,436.82,345.35,706.75,253.29,898.9,34.12,124.36-141.85,349.85-254,529.87-208.3v896.67H273.56v-943.97Z"/><g><path class="cls-12" d="m2115.02,1099.27l21.44,10.32,3.96,40.57-16.59,20.66c-34.23,42.63-35.49,82.39,32.81,76.06-4.32,1.48-7.56,11.88-11.94,13.43-143.23,51.02-46.32,81.22-104-9.97-23.46-37.08,20.8-102.72,74.32-151.08Z"/><path class="cls-12" d="m2123.74,1061.23c38.55,3.64,34.66,68.2,12.35,97.91l-133.03,177.18c-22.31,29.71-64.87,35.77-94.58,13.46h0c-23.68-28.62-35.34-23.38-12.25-52.48l127.59-160.82c31.34-39.5,49.02-80.05,99.92-75.25Z"/></g><path class="cls-12" d="m1147.76,1196.18l-30.53-118.31c170.68-43.5,119.83-193.66,379.89-198.45,12.53-.23,37.49,12.68,47.54,15.26,13.12,3.37,56.8,29.33,68.69,38.16,58.1,43.16,114.64,59.14,206.08,133.9,6.88,5.63,11.71,9.88,20.99,16.36,4.78,3.34,34.92,25.63,41.98,30.53,8.86,6.15,6.72,2.83,13.36,10.04,12.19,13.24,59.81,36.9,69.35,53.43-32.9,71.29-603.23,51-694.9,30.53-40.05-8.94-81.48-12.06-122.45-11.45Z"/><path class="cls-18" d="m236.95,1299.96l-45.56-21.96v-245.31c4.85-2.23,9.85-4.51,15.03-6.86,101.49-45.84,202.03-86.63,303.4-132.15,82.37-36.99,173.09-28.61,252.48-6.87,168.87,46.24,216.98,138.43,366.7,192.78,91.91,33.36,235.13,144.75,309.78,168.68-77.96,65.28-1086.07,66.02-1201.82,51.69Z"/><g><rect class="cls-34" x="2811.19" y="826.1" width="81.9" height="193.58"/><rect class="cls-5" x="2889.98" y="826.1" width="30.44" height="193.58"/><polygon class="cls-58" points="2854.9 780.77 2805 825.87 2891.37 826.78 2874.57 780.77 2854.9 780.77"/><polygon class="cls-59" points="2890.87 826.54 2874.47 780.53 2923.35 826.54 2890.87 826.54"/><path class="cls-45" d="m2825.08,839.77h2.57c.61,0,1.1.42,1.1.94v10.41c0,.52-.49.95-1.1.95h-2.57c-.61,0-1.1-.43-1.1-.95v-10.41c0-.52.49-.94,1.1-.94Z"/><path class="cls-45" d="m2846.01,839.77h2.56c.6,0,1.1.42,1.1.94v10.41c0,.52-.5.95-1.1.95h-2.56c-.61,0-1.1-.43-1.1-.95v-10.41c0-.52.5-.94,1.1-.94Z"/><path class="cls-45" d="m2866.94,839.77h2.57c.6,0,1.1.42,1.1.94v10.41c0,.52-.5.95-1.1.95h-2.57c-.6,0-1.1-.43-1.1-.95v-10.41c0-.52.5-.94,1.1-.94Z"/><g><rect class="cls-24" x="2811.19" y="887.72" width="78.8" height="3.08"/><rect class="cls-24" x="2811.19" y="910.32" width="78.8" height="3.08"/></g><g><rect class="cls-28" x="2889.98" y="887.72" width="30.57" height="3.08"/><rect class="cls-28" x="2889.98" y="910.32" width="30.57" height="3.08"/></g></g><g><polygon class="cls-62" points="2928.69 1082.91 2926.65 921.89 2947.04 895.92 2972.86 923.42 2972.86 1082.91 2928.69 1082.91"/><rect class="cls-14" x="2970.83" y="922.19" width="31.09" height="161.94"/><path class="cls-46" d="m2947.26,915.24h1.87c.44,0,.8.34.8.75v5.55c0,.41-.36.75-.8.75h-1.87c-.44,0-.8-.34-.8-.75v-5.55c0-.41.36-.75.8-.75Z"/><polygon class="cls-51" points="2970.85 922.97 2946.47 895.53 2979.09 895.53 3003.48 922.5 2970.85 922.97"/></g><g><rect class="cls-10" x="2848.44" y="1003.58" width="80.11" height="81.47"/><polygon class="cls-47" points="2865.99 1004.87 2838.3 961.35 2892 959.47 2929.03 1003.93 2865.99 1004.87"/><g><polygon class="cls-53" points="2805.25 1001.03 2747.66 933.2 2683.2 1005.61 2683.2 1088.41 2805.25 1088.41 2805.25 1001.03"/><rect class="cls-7" x="2802.96" y="1005.91" width="79.19" height="82.5"/><g><path class="cls-46" d="m2739.01,979.64h2.57c.61,0,1.1.46,1.1,1.03v2.83c0,.56-.49,1.03-1.1,1.03h-2.57c-.61,0-1.1-.46-1.1-1.03v-2.83c0-.57.49-1.03,1.1-1.03Z"/><path class="cls-46" d="m2746.21,979.64h2.57c.61,0,1.1.46,1.1,1.03v2.83c0,.56-.49,1.03-1.1,1.03h-2.57c-.6,0-1.1-.46-1.1-1.03v-2.83c0-.57.5-1.03,1.1-1.03Z"/><path class="cls-46" d="m2739.01,987.28h2.57c.61,0,1.1.46,1.1,1.02v2.83c0,.57-.49,1.03-1.1,1.03h-2.57c-.61,0-1.1-.46-1.1-1.03v-2.83c0-.56.49-1.02,1.1-1.02Z"/><path class="cls-46" d="m2746.21,987.28h2.57c.61,0,1.1.46,1.1,1.02v2.83c0,.57-.49,1.03-1.1,1.03h-2.57c-.6,0-1.1-.46-1.1-1.03v-2.83c0-.56.5-1.02,1.1-1.02Z"/></g><polygon class="cls-50" points="2882.8 1007.44 2827.5 934.42 2747.66 933.2 2802.63 1008.05 2882.8 1007.44"/></g></g><g><path class="cls-17" d="m2159.73,1086.33c-118.09-153.19-117.44,490.89-581.6,71.01l-24.65-13.75c-273.2-152.46-445.23-366.22-622.16-114.73-95.77,136.12-241.81,19.62-381.78-27.51-94.83-31.92-186.28-50.14-275.98-56.94v469.49h2478.8c-211.06-31.32-472.72-172.02-592.63-327.57Z"/><path class="cls-17" d="m2752.36,1413.9c56.14,8.33,108.7,8.93,154.05,0h-154.05Z"/></g><path id="hill_7" class="cls-27" d="m3041.5,1110.83c-4.91-45.91-169.08-79.96-303.96-73.9-105.63,4.75-129.11,31.21-225.52,46.19-201.45,31.29-269.04-57.83-460.84-64.66-216.53-7.71-262.97,101.17-460.84,129.32-142.41,20.26-358.79-1.92-656.94-221.69-202.64,86.21-405.28,172.43-607.92,258.64,349.72,49.27,699.43,98.53,1049.15,147.8,509.15,74.51,898.83,27.69,1157-27.71,30.2-6.48,518.54-112.97,509.87-193.98Z"/><g id="building_7"><rect class="cls-35" x="1488.8" y="853.47" width="9.76" height="15.23"/><path class="cls-27" d="m1465.71,827.13c-6.4,10.55-18.01,16.7-29.99,15.83-16.22-1.17-24.56-14.56-25.32-15.83,8.97-22.1,17.93-44.2,26.9-66.3h28.41v66.3Z"/><rect class="cls-2" x="1465.71" y="827.13" width="115.68" height="323.9"/><rect class="cls-27" x="1410.4" y="827.13" width="55.31" height="323.9"/><polygon class="cls-17" points="1437.73 760.82 1553.41 760.82 1581.39 827.13 1465.71 827.13 1437.73 760.82"/><g><g><rect class="cls-17" x="1485.58" y="853.47" width="9.76" height="15.23"/><rect class="cls-17" x="1509.25" y="853.47" width="9.76" height="15.23"/><rect class="cls-17" x="1530.77" y="853.47" width="9.76" height="15.23"/><rect class="cls-17" x="1552.29" y="853.47" width="9.76" height="15.23"/></g><g><rect class="cls-17" x="1485.58" y="885.76" width="9.76" height="15.23"/><rect class="cls-17" x="1509.25" y="885.76" width="9.76" height="15.23"/><rect class="cls-17" x="1530.77" y="885.76" width="9.76" height="15.23"/><rect class="cls-17" x="1552.29" y="885.76" width="9.76" height="15.23"/></g><g><rect class="cls-17" x="1485.58" y="918.04" width="9.76" height="15.23"/><rect class="cls-17" x="1509.25" y="918.04" width="9.76" height="15.23"/><rect class="cls-17" x="1530.77" y="918.04" width="9.76" height="15.23"/><rect class="cls-17" x="1552.29" y="918.04" width="9.76" height="15.23"/></g><g><rect class="cls-17" x="1485.58" y="950.32" width="9.76" height="15.23"/><rect class="cls-17" x="1509.25" y="950.32" width="9.76" height="15.23"/><rect class="cls-17" x="1530.77" y="950.32" width="9.76" height="15.23"/><rect class="cls-17" x="1552.29" y="950.32" width="9.76" height="15.23"/></g><g><rect class="cls-17" x="1485.58" y="982.6" width="9.76" height="15.23"/><rect class="cls-17" x="1509.25" y="982.6" width="9.76" height="15.23"/><rect class="cls-17" x="1530.77" y="982.6" width="9.76" height="15.23"/><rect class="cls-17" x="1552.29" y="982.6" width="9.76" height="15.23"/></g><g><rect class="cls-17" x="1485.58" y="1014.88" width="9.76" height="15.23"/><rect class="cls-17" x="1509.25" y="1014.88" width="9.76" height="15.23"/><rect class="cls-17" x="1530.77" y="1014.88" width="9.76" height="15.23"/><rect class="cls-17" x="1552.29" y="1014.88" width="9.76" height="15.23"/></g><g><rect class="cls-17" x="1485.58" y="1047.16" width="9.76" height="15.23"/><rect class="cls-17" x="1509.25" y="1047.16" width="9.76" height="15.23"/><rect class="cls-17" x="1530.77" y="1047.16" width="9.76" height="15.23"/><rect class="cls-17" x="1552.29" y="1047.16" width="9.76" height="15.23"/></g></g><rect class="cls-2" x="1433.03" y="853.47" width="8.26" height="15.23"/><rect class="cls-2" x="1433.03" y="885.76" width="8.26" height="15.23"/><rect class="cls-2" x="1433.03" y="916.96" width="8.26" height="15.23"/><rect class="cls-2" x="1433.03" y="949.24" width="8.26" height="15.23"/><rect class="cls-2" x="1433.03" y="981.52" width="8.26" height="15.23"/><rect class="cls-2" x="1433.03" y="1014.88" width="8.26" height="15.23"/><rect class="cls-2" x="1433.03" y="1047.16" width="8.26" height="15.23"/></g><g><rect class="cls-11" x="859.77" y="1114.19" width="10.48" height="83.4"/><polygon class="cls-25" points="902.7 1146.88 827.34 1146.88 865.02 1002.98 902.7 1146.88"/></g><g><rect class="cls-11" x="627.55" y="1066.55" width="10.48" height="83.4"/><polygon class="cls-25" points="663.64 1099.24 601.95 1099.24 632.79 981.45 663.64 1099.24"/></g><g><g><polygon class="cls-63" points="2299.85 857.04 2287.95 825.11 2260.58 793.72 2218.64 856.49 2299.85 857.04"/><polygon class="cls-22" points="2222.8 848.99 2260.58 794.28 2155.28 791.5 2111.56 848.16 2113.64 847.88 2222.8 848.99"/></g><g><polygon class="cls-61" points="1975.55 920.43 1878.07 917.22 1923.38 855.69 1975.55 920.43"/><polygon class="cls-22" points="1875.07 920.83 1922.84 855.27 1852.38 852.65 1801.53 920.83 1875.07 920.83"/></g><g><polygon class="cls-44" points="2419.42 865.23 2260.88 820.66 2231.14 867.6 2231.14 960.58 2419.42 960.58 2419.42 865.23"/><polygon class="cls-48" points="2389.97 824.27 2420.17 865.23 2297.19 865.23 2260.4 820.99 2389.97 824.27"/></g><polygon class="cls-41" points="2391.76 957.31 2387.89 898.43 2341.79 851.49 2289.43 904.82 2289.43 957.31 2391.76 957.31"/><rect class="cls-21" x="2249.43" y="958.44" width="116.45" height="74.31"/><g><polygon class="cls-8" points="2647.62 1158.26 2647.9 1057.8 2697.28 942.86 2762.96 1041.58 2762.96 1156.01 2647.62 1158.26"/><polygon class="cls-56" points="2642.78 1070.26 2459.6 1053.04 2512.46 940.54 2698.1 942.27 2642.78 1070.26"/></g><polygon class="cls-12" points="2289.43 905.65 2342.68 851.21 2177.59 848.16 2134.46 904.82 2289.43 905.65"/><path class="cls-49" d="m2342.06,889.52h4.12c.47,0,.85.35.85.79v10.66c0,.44-.38.79-.85.79h-4.12c-.47,0-.85-.35-.85-.79v-10.66c0-.44.38-.79.85-.79Z"/><g><polygon class="cls-54" points="2058.92 1007.39 2058.8 922.86 1984.37 819.41 1927.12 881.97 1927.12 1009.36 2058.92 1007.39"/><rect class="cls-15" x="2057.46" y="914.57" width="159.17" height="89.48"/><polygon class="cls-26" points="2217.03 915.71 2166.28 823.2 1985.59 820.17 2058.27 922.54 2217.03 915.71"/></g><g><rect class="cls-9" x="2174.28" y="998.06" width="95.74" height="82.02"/><polygon class="cls-39" points="2174.28 998.06 2123 900.45 2074.27 998.64 2074.27 1040.72 2174.28 1080.08 2174.28 998.06"/><polygon class="cls-30" points="2174.28 998.06 2123 899.32 2224.78 899.93 2275.67 998.64 2174.28 998.06"/><path class="cls-49" d="m2119.2,958.8h7.52c.86,0,1.55.65,1.55,1.45v9.35c0,.79-.69,1.44-1.55,1.44h-7.52c-.86,0-1.55-.65-1.55-1.44v-9.35c0-.79.7-1.45,1.55-1.45Z"/></g><g><polygon class="cls-64" points="1688.77 1115.93 1842.97 1115.93 1842.97 977.56 1688.77 979.97 1688.77 1115.93"/><g><polygon class="cls-43" points="1820.25 1115.21 1820.25 979.97 1928.71 917.8 2010.4 974.2 2010.4 1115.21 1820.25 1115.21"/><g><path class="cls-49" d="m1921.53,980.94h3.64c.86,0,1.56.65,1.56,1.45v4.02c0,.8-.7,1.45-1.56,1.45h-3.64c-.86,0-1.56-.65-1.56-1.45v-4.02c0-.8.7-1.45,1.56-1.45Z"/><path class="cls-49" d="m1931.74,980.94h3.64c.86,0,1.56.65,1.56,1.45v4.02c0,.8-.7,1.45-1.56,1.45h-3.64c-.86,0-1.56-.65-1.56-1.45v-4.02c0-.8.7-1.45,1.56-1.45Z"/><path class="cls-49" d="m1921.53,991.77h3.64c.86,0,1.56.66,1.56,1.46v4.02c0,.8-.7,1.46-1.56,1.46h-3.64c-.86,0-1.56-.66-1.56-1.46v-4.02c0-.8.7-1.46,1.56-1.46Z"/><path class="cls-49" d="m1931.74,991.77h3.64c.86,0,1.56.66,1.56,1.46v4.02c0,.8-.7,1.46-1.56,1.46h-3.64c-.86,0-1.56-.66-1.56-1.46v-4.02c0-.8.7-1.46,1.56-1.46Z"/></g><polygon class="cls-22" points="1820.25 979.97 1930.09 918.44 1787.31 916.51 1687.49 979.97 1820.25 979.97"/></g></g><g><polygon class="cls-42" points="2324.46 1029.5 2449.72 1031.65 2388.87 888.36 2324.46 1029.5"/><polygon class="cls-30" points="2459.08 1056.32 2389.03 887.65 2528.87 888.09 2617.66 1055.84 2459.08 1056.32"/><path class="cls-49" d="m2383.65,955.22h4.12c.46,0,.85.36.85.79v10.66c0,.44-.38.79-.85.79h-4.12c-.47,0-.85-.35-.85-.79v-10.66c0-.44.38-.79.85-.79Z"/></g><g><polygon class="cls-32" points="2413.18 1162.67 2458.19 1048.45 2687.82 1053.83 2619.74 1160.51 2413.18 1162.67"/><polygon class="cls-60" points="2622.05 1265.03 2693.6 1237.01 2690.13 1051.68 2618.59 1161.59 2622.05 1265.03"/></g><g><polygon class="cls-12" points="2497.71 1101.83 2456.53 1020.9 2414.12 1101.83 2497.71 1101.83"/><polygon class="cls-26" points="2416.57 1101.83 2456.53 1020.9 2213.2 1023.77 2168.24 1101.83 2416.57 1101.83"/><path class="cls-49" d="m2453.77,1063.88h4.12c.47,0,.85.36.85.79v10.66c0,.44-.38.79-.85.79h-4.12c-.47,0-.85-.35-.85-.79v-10.66c0-.43.38-.79.85-.79Z"/><rect class="cls-2" x="2168.07" y="1101.83" width="329.58" height="122.41"/></g><g><rect class="cls-2" x="2491.67" y="1019.42" width="116.77" height="371.19" rx="58.39" ry="58.39"/><rect class="cls-2" x="2587.38" y="967.01" width="116.77" height="371.19" rx="58.39" ry="58.39"/><rect class="cls-2" x="2683.09" y="988.98" width="116.77" height="371.19" rx="58.39" ry="58.39"/><rect class="cls-2" x="2778.8" y="1050.31" width="116.77" height="371.19" rx="58.39" ry="58.39"/><rect class="cls-2" x="2874.51" y="1050.31" width="116.77" height="371.19" rx="58.39" ry="58.39"/></g><g><polygon class="cls-3" points="2197.79 1252.9 1978.2 1252.9 1978.2 1108.89 2197.79 1110.78 2197.79 1252.9"/><polygon class="cls-26" points="1882.94 1110.1 1974.23 971.65 2087.49 971.65 2120.14 1110.78 1882.94 1110.1"/><polygon class="cls-32" points="2114.95 1110.78 2086.81 971.73 2198.7 1110.78 2114.95 1110.78"/><polygon class="cls-32" points="2115.09 1252.9 1895.5 1252.9 1895.5 1108.89 2115.09 1110.78 2115.09 1252.9"/></g><g><polygon class="cls-52" points="1865.64 1231.62 1862.21 1148.26 2052.35 1148.26 2076.27 1231.62 1865.64 1231.62"/><polygon class="cls-55" points="2076.18 1231.16 2052.15 1147.95 2154.62 1231.39 2076.18 1231.16"/><rect class="cls-23" x="1865.84" y="1230.62" width="208.74" height="103.82"/><rect class="cls-6" x="2074.58" y="1230.62" width="75.52" height="103.82"/><g><path class="cls-49" d="m2045.65,1250.73h3.89c.44,0,.8.33.8.74v10.75c0,.42-.36.75-.8.75h-3.89c-.44,0-.8-.33-.8-.75v-10.75c0-.41.36-.74.8-.74Z"/><g><path class="cls-49" d="m1926.78,1250.73h3.89c.44,0,.8.33.8.74v10.75c0,.42-.36.75-.8.75h-3.89c-.44,0-.8-.33-.8-.75v-10.75c0-.41.36-.74.8-.74Z"/><path class="cls-49" d="m1988.45,1250.73h3.89c.44,0,.8.33.8.74v10.75c0,.42-.36.75-.8.75h-3.89c-.44,0-.8-.33-.8-.75v-10.75c0-.41.36-.74.8-.74Z"/></g></g><path class="cls-49" d="m2108.02,1251.87h4.12c.47,0,.85.35.85.79v10.66c0,.44-.38.79-.85.79h-4.12c-.47,0-.85-.35-.85-.79v-10.66c0-.44.38-.79.85-.79Z"/></g><g><polygon class="cls-40" points="2457.72 1160.51 2688.51 1157.9 2688.51 1311.99 2457.72 1314.59 2457.72 1160.51"/><g><path class="cls-49" d="m2631.22,1184.07h4.12c.47,0,.85.35.85.79v10.66c0,.44-.38.79-.85.79h-4.12c-.47,0-.85-.36-.85-.79v-10.66c0-.44.38-.79.85-.79Z"/><g><path class="cls-49" d="m2505.29,1184.07h4.12c.47,0,.85.35.85.79v10.66c0,.44-.38.79-.85.79h-4.12c-.47,0-.85-.36-.85-.79v-10.66c0-.44.38-.79.85-.79Z"/><path class="cls-49" d="m2570.62,1184.07h4.12c.46,0,.85.35.85.79v10.66c0,.44-.38.79-.85.79h-4.12c-.47,0-.85-.36-.85-.79v-10.66c0-.44.38-.79.85-.79Z"/></g></g><polygon class="cls-3" points="2457.72 1160.51 2137.57 1157.9 2137.57 1311.99 2457.72 1314.59 2457.72 1160.51"/><g><path class="cls-49" d="m2336.93,1184.07h4.12c.47,0,.85.35.85.79v10.66c0,.44-.38.79-.85.79h-4.12c-.47,0-.85-.36-.85-.79v-10.66c0-.44.38-.79.85-.79Z"/><path class="cls-49" d="m2402.26,1184.07h4.12c.47,0,.85.35.85.79v10.66c0,.44-.38.79-.85.79h-4.12c-.47,0-.85-.36-.85-.79v-10.66c0-.44.38-.79.85-.79Z"/></g><polygon class="cls-30" points="2688.51 1157.27 2132.3 1164.82 2229.23 1090.34 2568.5 1086.02 2688.51 1157.27"/><polygon class="cls-26" points="2688.51 1157.27 2457.36 1160.4 2499.1 1086.9 2568.5 1086.02 2688.51 1157.27"/></g><g><rect class="cls-36" x="1808.91" y="1198.84" width="25.75" height="157.17"/><rect class="cls-2" x="1742.51" y="1080.7" width="158.56" height="86.89" rx="43.45" ry="43.45"/><rect class="cls-2" x="1742.51" y="1167.6" width="158.56" height="86.89" rx="43.45" ry="43.45"/></g></g><g><rect class="cls-11" x="570.27" y="708.42" width="48.33" height="38.06"/><polygon class="cls-12" points="704.69 756.84 707.56 711.85 762.45 662.16 826.46 720.8 826.46 756.84 704.69 756.84"/><polygon class="cls-26" points="714.04 707.82 762.45 662.16 606.4 661.27 569.49 708.94 714.04 707.82"/><path class="cls-57" d="m767.42,727.84h2.99c.7,0,1.28.54,1.28,1.2v15.28c0,.66-.58,1.19-1.28,1.19h-2.99c-.71,0-1.28-.54-1.28-1.19v-15.28c0-.66.57-1.2,1.28-1.2Z"/><path class="cls-57" d="m799.07,727.84h2.99c.71,0,1.28.54,1.28,1.2v15.28c0,.66-.57,1.19-1.28,1.19h-2.99c-.71,0-1.29-.54-1.29-1.19v-15.28c0-.66.58-1.2,1.29-1.2Z"/><g><polygon class="cls-30" points="620.95 744.67 591.8 706.7 560.93 744.67 560.93 787.28 620.95 787.28 620.95 744.67"/><polygon class="cls-22" points="744.99 745.9 710.44 706.45 591.62 706.45 621.27 745.9 744.99 745.9"/><polygon class="cls-12" points="744.48 745.65 620.95 745.43 620.95 787.28 744.48 787.28 744.48 745.65"/><path class="cls-57" d="m579.4,751.68h2.99c.7,0,1.28.54,1.28,1.19v13.18c0,.66-.58,1.2-1.28,1.2h-2.99c-.71,0-1.28-.54-1.28-1.2v-13.18c0-.66.58-1.19,1.28-1.19Z"/><path class="cls-57" d="m651.35,752.64h3c.7,0,1.28.54,1.28,1.19v10.2c0,.66-.58,1.2-1.28,1.2h-3c-.7,0-1.28-.54-1.28-1.2v-10.2c0-.66.58-1.19,1.28-1.19Z"/><path class="cls-57" d="m673.82,752.64h2.99c.7,0,1.28.54,1.28,1.19v10.2c0,.66-.58,1.2-1.28,1.2h-2.99c-.71,0-1.28-.54-1.28-1.2v-10.2c0-.66.58-1.19,1.28-1.19Z"/><path class="cls-57" d="m592.46,751.68h2.99c.7,0,1.28.54,1.28,1.19v13.18c0,.66-.58,1.2-1.28,1.2h-2.99c-.71,0-1.28-.54-1.28-1.2v-13.18c0-.66.57-1.19,1.28-1.19Z"/><path class="cls-26" d="m705.04,749.67h13.49c3.18,0,5.78,2.42,5.78,5.39v32.22h-25.04v-32.22c0-2.97,2.6-5.39,5.77-5.39Z"/></g></g><path id="hill_4" class="cls-21" d="m2096.62,1292.51c-25.67-21.25-62.69-49.97-109.76-80.21-58.88-37.83-126.72-81.41-223.75-109.76-66.97-19.57-160.91-48.39-265.96-16.89-66.86,20.05-52.77,33.15-105.54,46.44-132.43,33.34-192.25-56.43-287.07-16.89-64.44,26.87-46.22,72.25-122.43,105.54-74.91,32.72-119.49.65-185.75,33.77-52.19,26.08-81.06,74.23-97.1,109.76,409.5-2.81,819-5.63,1228.5-8.44,56.29-21.11,112.58-42.22,168.87-63.32Z"/><path id="hill_1" class="cls-11" d="m0,1408.28c406.78.22,813.56.43,1220.34.65-3.91-48.6-16.7-113.14-62.3-137.89-39.23-21.3-65.19,7.23-126.64,2.81-105.12-7.56-122.15-97.73-244.83-135.08-66.86-20.35-68.46,4.4-168.85-8.44-79.32-10.15-267.2-91.92-275.79-95.68-69.09-30.28-176.74-52.7-341.9-10.62-.01,128.08-.02,256.17-.04,384.25Z"/><path id="bush_1" class="cls-21" d="m0,1409.42c0-101.63.02-203.26.03-304.89,32.02-25.81,77.15-25.22,106.16-.23,24.85,21.4,33.98,57.37,22.51,90.05,58.13-31.4,114.12-25.73,133.67,2.11,3.46,4.93,11.37,18.51,7.04,44.32,3.72-3.83,20.13-19.89,42.92-19,27.1,1.06,52.62,25.68,57.69,60.5,6.93-3.06,18.43-7.06,32.91-7.04,9.28.02,34.52.06,51.52,19.7,17.41,20.11,13.36,45.96,12.66,49.95,17.4-12.62,40.01-14.26,56.99-4.22,21.5,12.72,30.76,42.29,19,68.24-181.03.16-362.05.33-543.08.49Z"/><g><rect class="cls-29" x="1290.22" y="1222.2" width="16.79" height="102.47"/><rect class="cls-25" x="1246.92" y="1145.18" width="103.38" height="56.65" rx="28.33" ry="28.33"/><rect class="cls-25" x="1246.92" y="1201.83" width="103.38" height="56.65" rx="28.33" ry="28.33"/></g><g><rect class="cls-36" x="1719.92" y="1239.5" width="16.79" height="102.47"/><rect class="cls-31" x="1660.93" y="1075.79" width="134.78" height="185.69" rx="67.39" ry="67.39"/></g><g id="building_18"><path class="cls-31" d="m3137.63,976.97l29.89,33.14c-2.85,2.71-13.72,12.37-30.62,13.22-19.97,1.01-33.19-11.04-35.51-13.22,12.08-11.05,24.15-22.09,36.23-33.14Z"/><rect class="cls-29" x="2820.59" y="1010.1" width="280.81" height="163.95"/><rect class="cls-31" x="3101.4" y="1010.1" width="66.12" height="163.95"/><polygon class="cls-25" points="2856.83 976.97 3137.63 976.97 3101.4 1010.1 2820.59 1010.1 2856.83 976.97"/><rect class="cls-2" x="2853.57" y="1045.1" width="25.31" height="49.44"/><rect class="cls-2" x="2940.53" y="1045.1" width="25.31" height="49.44"/><rect class="cls-2" x="3027.49" y="1045.1" width="25.31" height="49.44"/></g><g><rect class="cls-29" x="318.93" y="312.98" width="1394.43" height="7" transform="translate(-33.83 490.4) rotate(-26.7)"/><g><circle class="cls-2" cx="789.17" cy="506.92" r="85.05"/><g><path class="cls-25" d="m789.17,596.46c-49.38,0-89.55-40.17-89.55-89.55s40.17-89.55,89.55-89.55,89.55,40.17,89.55,89.55-40.17,89.55-89.55,89.55Zm0-170.1c-44.41,0-80.55,36.13-80.55,80.55s36.13,80.55,80.55,80.55,80.55-36.13,80.55-80.55-36.13-80.55-80.55-80.55Z"/><g class="cls-1"><g><g><rect class="cls-31" x="703.99" y="458.57" width="57.02" height="104.33"/><path class="cls-25" d="m764.99,566.88h-64.98v-112.29h64.98v112.29Zm-57.02-7.96h49.06v-96.37h-49.06v96.37Z"/></g><g><rect class="cls-31" x="760.66" y="458.57" width="57.02" height="104.33"/><path class="cls-25" d="m821.66,566.88h-64.98v-112.29h64.98v112.29Zm-57.02-7.96h49.06v-96.37h-49.06v96.37Z"/></g><g><rect class="cls-31" x="817.33" y="458.57" width="57.02" height="104.33"/><path class="cls-25" d="m878.33,566.88h-64.98v-112.29h64.98v112.29Zm-57.02-7.96h49.06v-96.37h-49.06v96.37Z"/></g></g></g></g><path class="cls-30" d="m864.32,463.48c5.96,0,9.13-7.08,5.13-11.5-19.81-21.89-48.44-35.64-80.29-35.64s-60.48,13.76-80.29,35.64c-4,4.42-.83,11.5,5.13,11.5h150.3Z"/><path class="cls-3" d="m723.45,555.27c-5.21,0-7.99,6.19-4.49,10.05,17.32,19.14,42.36,31.17,70.2,31.17s52.88-12.03,70.2-31.17c3.5-3.87.72-10.05-4.49-10.05h-131.43Z"/><g><circle class="cls-29" cx="753.46" cy="570.54" r="6.87"/><circle class="cls-29" cx="777.26" cy="570.54" r="6.87"/><circle class="cls-29" cx="801.07" cy="570.54" r="6.87"/><circle class="cls-29" cx="824.88" cy="570.54" r="6.87"/></g></g><g><circle class="cls-2" cx="1093.69" cy="355.94" r="85.05"/><g><path class="cls-25" d="m1093.69,445.48c-49.38,0-89.55-40.17-89.55-89.55s40.17-89.55,89.55-89.55,89.55,40.17,89.55,89.55-40.17,89.55-89.55,89.55Zm0-170.1c-44.41,0-80.55,36.13-80.55,80.55s36.13,80.55,80.55,80.55,80.55-36.13,80.55-80.55-36.13-80.55-80.55-80.55Z"/><g class="cls-37"><g><g><rect class="cls-31" x="1008.5" y="307.59" width="57.02" height="104.33"/><path class="cls-25" d="m1069.5,415.9h-64.98v-112.29h64.98v112.29Zm-57.02-7.96h49.06v-96.37h-49.06v96.37Z"/></g><g><rect class="cls-31" x="1065.18" y="307.59" width="57.02" height="104.33"/><path class="cls-25" d="m1126.18,415.9h-64.98v-112.29h64.98v112.29Zm-57.02-7.96h49.06v-96.37h-49.06v96.37Z"/></g><g><rect class="cls-31" x="1121.85" y="307.59" width="57.02" height="104.33"/><path class="cls-25" d="m1182.85,415.9h-64.98v-112.29h64.98v112.29Zm-57.02-7.96h49.06v-96.37h-49.06v96.37Z"/></g></g></g></g><path class="cls-30" d="m1168.84,312.5c5.96,0,9.13-7.08,5.13-11.5-19.81-21.89-48.44-35.64-80.29-35.64s-60.48,13.76-80.29,35.64c-4,4.42-.83,11.5,5.13,11.5h150.3Z"/><path class="cls-3" d="m1027.97,404.29c-5.21,0-7.99,6.19-4.49,10.05,17.32,19.14,42.36,31.17,70.2,31.17s52.88-12.03,70.2-31.17c3.5-3.87.72-10.05-4.49-10.05h-131.43Z"/><g><circle class="cls-29" cx="1057.98" cy="419.56" r="6.87"/><circle class="cls-29" cx="1081.78" cy="419.56" r="6.87"/><circle class="cls-29" cx="1105.59" cy="419.56" r="6.87"/><circle class="cls-29" cx="1129.4" cy="419.56" r="6.87"/></g></g><g><circle class="cls-2" cx="1398.2" cy="204.96" r="85.05"/><g><path class="cls-25" d="m1398.2,294.5c-49.38,0-89.55-40.17-89.55-89.55s40.17-89.55,89.55-89.55,89.55,40.17,89.55,89.55-40.17,89.55-89.55,89.55Zm0-170.1c-44.41,0-80.55,36.13-80.55,80.55s36.13,80.55,80.55,80.55,80.55-36.13,80.55-80.55-36.13-80.55-80.55-80.55Z"/><g class="cls-38"><g><g><rect class="cls-31" x="1313.02" y="156.61" width="57.02" height="104.33"/><path class="cls-25" d="m1374.02,264.92h-64.98v-112.29h64.98v112.29Zm-57.02-7.96h49.06v-96.37h-49.06v96.37Z"/></g><g><rect class="cls-31" x="1369.7" y="156.61" width="57.02" height="104.33"/><path class="cls-25" d="m1430.69,264.92h-64.98v-112.29h64.98v112.29Zm-57.02-7.96h49.06v-96.37h-49.06v96.37Z"/></g><g><rect class="cls-31" x="1426.37" y="156.61" width="57.02" height="104.33"/><path class="cls-25" d="m1487.37,264.92h-64.98v-112.29h64.98v112.29Zm-57.02-7.96h49.06v-96.37h-49.06v96.37Z"/></g></g></g></g><path class="cls-30" d="m1473.36,161.52c5.96,0,9.13-7.08,5.13-11.5-19.81-21.89-48.44-35.64-80.29-35.64s-60.48,13.76-80.29,35.64c-4,4.42-.83,11.5,5.13,11.5h150.3Z"/><path class="cls-3" d="m1332.49,253.31c-5.21,0-7.99,6.19-4.49,10.05,17.32,19.14,42.36,31.17,70.2,31.17s52.88-12.03,70.2-31.17c3.5-3.87.72-10.05-4.49-10.05h-131.43Z"/><g><circle class="cls-29" cx="1362.49" cy="268.58" r="6.87"/><circle class="cls-29" cx="1386.3" cy="268.58" r="6.87"/><circle class="cls-29" cx="1410.11" cy="268.58" r="6.87"/><circle class="cls-29" cx="1433.91" cy="268.58" r="6.87"/></g></g></g><g><rect class="cls-25" x="1047.32" y="1230.2" width="18.2" height="111.08"/><g><rect class="cls-29" x="991.78" y="1030.76" width="83.61" height="223.26" rx="41.81" ry="41.81"/><rect class="cls-29" x="1065.51" y="1114.43" width="51.02" height="136.24" rx="25.51" ry="25.51"/></g></g><g><rect class="cls-25" x="697.71" y="818.45" width="21.55" height="326.11"/><g><path class="cls-25" d="m711.84,853.55h38.85c1.85,0,3.36,1.51,3.36,3.36v.96c0,1.85-1.51,3.36-3.36,3.36h-38.85c-1.85,0-3.36-1.51-3.36-3.36v-.96c0-1.85,1.51-3.36,3.36-3.36Z"/><rect class="cls-25" x="708.48" y="913.12" width="45.57" height="7.68" rx="3.36" ry="3.36"/></g><path class="cls-33" d="m930.26,820.31h-161.19c-7.8,0-14.12,6.32-14.12,14.12v105.5c0,7.8,6.32,14.12,14.12,14.12h161.19c7.8,0,14.12-6.32,14.12-14.12v-105.5c0-7.8-6.32-14.12-14.12-14.12Zm4.21,119.34c0,2.48-2.01,4.49-4.49,4.49h-160.63c-2.48,0-4.49-2.01-4.49-4.49v-104.95c0-2.48,2.01-4.49,4.49-4.49h160.63c2.48,0,4.49,2.01,4.49,4.49v104.95Z"/><rect class="cls-13" x="750.93" y="823.29" width="180.96" height="127.77" rx="12.35" ry="12.35"/><g><g><path class="cls-25" d="m711.84,1009.79h38.85c1.85,0,3.36,1.51,3.36,3.36v.96c0,1.85-1.51,3.36-3.36,3.36h-38.85c-1.85,0-3.36-1.51-3.36-3.36v-.96c0-1.85,1.51-3.36,3.36-3.36Z"/><path class="cls-25" d="m711.84,1079.9h38.85c1.85,0,3.36,1.51,3.36,3.36v.96c0,1.85-1.51,3.36-3.36,3.36h-38.85c-1.85,0-3.36-1.51-3.36-3.36v-.96c0-1.85,1.51-3.36,3.36-3.36Z"/></g><rect class="cls-25" x="744.23" y="974.74" width="194.36" height="147.88" rx="73.94" ry="73.94"/></g><g><g><path class="cls-13" d="m889.87,873.13c-.82-3.98-1.85-7.73-3.14-11.22-1.69-4.58-3.79-8.67-6.37-12.29-7.66-10.74-19.46-16.92-36.61-16.95h-.22c-17.14-.04-28.97,6.09-36.67,16.8-2.59,3.6-4.72,7.71-6.42,12.28-1.3,3.48-2.35,7.22-3.19,11.2-2.4,11.52-3.75,31.81-1.03,40.26,3.01,9.33,11.24,16.61,29.86,17.95,0,0,8.26.66,17.03.64,9.37-.02,17.98-.49,17.98-.49,18.62-1.32,26.61-8.55,29.66-17.87,2.76-8.44,1.49-28.78-.87-40.3"/><path class="cls-33" d="m892.66,877.03c-4.83-31.89-27.6-43.36-47.43-43.94l-1.74-.02h-1.55c-19.83.51-42.56,11.89-47.52,43.76-3.61,1.3-11.31,6.03-11.43,23.55-.11,17.56,12.81,20.99,17.62,21.66.49.07,1.51.05,2.28-.69-.1-.14-.19-.3-.29-.45-.14-.2-.27-.41-.4-.62-.15-.26-.3-.52-.44-.79-.1-.19-.21-.38-.31-.58-.16-.31-.29-.63-.43-.95-.07-.16-.15-.32-.21-.48-.2-.49-.38-.98-.54-1.5-2.49-7.72-1.26-26.35.94-36.88.76-3.64,1.68-7.08,2.91-10.25,2.66-6.85,10.6-26.7,39.36-26.64,29.75.06,36.81,19.93,39.45,26.8,1.22,3.17,2.31,6.62,3.05,10.26,2.16,10.54,3.32,29.17.79,36.89-.17.51-.35,1.01-.55,1.49-.06.17-.14.32-.22.48-.14.32-.28.64-.43.95-.1.19-.21.39-.32.58-.14.26-.29.53-.45.79-.12.21-.27.41-.4.62-.1.15-.19.3-.3.45.76.74,1.77.76,2.26.7,4.81-.65,17.73-4.03,17.68-21.59-.05-17.52-7.78-22.28-11.38-23.6"/><g><path class="cls-33" d="m844.76,933.52h-.4c-10.89-.02-21.01-.67-21.11-.68-.03,0-.07,0-.1-.01-13.42-1.74-21.4-7.12-24.4-16.42-2.72-8.43-1.2-27.6.9-37.63.18-.86,1.03-1.41,1.89-1.24.86.18,1.42,1.03,1.24,1.89-2.34,11.19-3.25,28.96-.98,35.99,2.61,8.11,9.52,12.63,21.72,14.23.78.05,10.47.65,20.86.67,7.08,0,15.18-.24,19.69-.61,15.31-1.26,19.87-10.27,21.11-14.08,2.3-7.03,1.45-24.82-.84-36.03-.18-.87.38-1.71,1.25-1.89.86-.18,1.71.38,1.89,1.25,2.05,10.05,3.5,29.24.75,37.67-1.45,4.42-6.67,14.86-23.89,16.27-4.51.37-12.49.62-19.55.62Z"/><path class="cls-33" d="m886,923.98c-.78,0-2.05-.19-3.11-1.21-.61-.59-.7-1.55-.21-2.25l.36-.54c.09-.14.19-.27.27-.41.15-.25.28-.49.41-.72l.09-.16c.07-.13.15-.26.22-.4.13-.25.25-.55.38-.84l.1-.22c.03-.06.06-.13.09-.19.2-.48.37-.94.52-1.41,2.3-7.02,1.45-24.8-.84-36-.66-3.22-1.63-6.49-2.97-9.99l-.15-.38c-2.64-6.91-9.66-25.25-37.68-25.3h-.12c-27.7,0-35.17,19.21-37.62,25.53-1.09,2.8-2.01,6.06-2.83,9.98-2.34,11.2-3.25,28.97-.99,36,.15.47.32.93.5,1.38.03.08.07.15.1.23l.15.34c.11.24.21.49.33.73.06.12.12.24.19.36l.2.36c.1.18.2.37.31.55.1.17.21.33.32.5l.18.27c.04.06.07.12.11.18.5.7.41,1.66-.21,2.26-1.43,1.37-3.21,1.23-3.73,1.15-4.5-.62-19.22-4.16-19.1-23.39.11-16.8,6.92-22.71,11.61-24.79,5.38-31.81,28.77-43.73,49.03-44.24h1.58s1.76,0,1.76,0c20.33.59,43.72,12.6,48.97,44.43,4.69,2.1,11.51,8.05,11.55,24.83.05,19.23-14.67,22.71-19.19,23.31-.13.02-.33.04-.59.04Zm-42.66-83.49h.13c30.41.06,38.04,20.02,40.92,27.53l.14.38c1.41,3.68,2.44,7.13,3.13,10.54,2.06,10.07,3.51,29.31.74,37.77-.18.55-.38,1.09-.6,1.62-.04.11-.11.25-.17.39l-.06.13c-.15.34-.3.68-.47,1.02-.1.19-.19.35-.28.51v.03c5.16-.87,15.5-4.53,15.46-19.76-.04-15.87-6.43-20.58-10.24-21.98-.59-.22-1.02-.74-1.12-1.37-5.8-38.33-36.5-42.19-45.77-42.46l-1.7-.02h-1.52c-9.22.24-39.86,3.99-45.81,42.29-.1.63-.53,1.15-1.13,1.37-3.8,1.37-10.18,6.04-10.28,21.93-.1,15.25,10.27,18.94,15.44,19.82l-.04-.07c-.08-.15-.16-.3-.24-.45-.15-.3-.28-.6-.41-.89l-.14-.31c-.05-.12-.11-.24-.16-.37-.21-.53-.41-1.07-.59-1.62-2.73-8.47-1.21-27.71.89-37.77.86-4.1,1.84-7.54,2.99-10.52,2.67-6.87,10.78-27.74,40.85-27.74Z"/></g></g><g><path class="cls-13" d="m904.06,900.38c-.03-5.42-.81-9.61-1.96-12.85-.01.1-.02.2-.03.32-.06.84-.07,1.73-.08,2.59-.01.74-.02,1.51-.06,2.24-.08,1.55-.18,2.97-.3,4.31-.29-1.38-.61-2.79-.97-4.24-.05-.19-.1-.39-.15-.59-.34-1.37-.68-2.78-1.15-4.13-.23-.65-.75-1.44-1.45-1.52-.43-.05-.89,0-1.39.16-.63.21-1.05,1.03-1.08,2.09-.01.51,0,1.03,0,1.54,0,.28,0,.56,0,.84,0,5.43-.45,10.62-.85,14.53-.1.98.11,2.63,1.12,2.9.1.03.21.04.3.03.22-.02.42-.11.6-.28.47-.44.72-1.32.78-1.94.36-3.55.73-7.32.85-11.13.55,2.44,1.03,4.93,1.43,7.42.08.46.15.93.21,1.39.09.58.18,1.18.28,1.77.03.17.06.32.08.46.16.8.65,1.69,1.34,1.75.05,0,.11,0,.17,0,0,0,.03,0,.04,0,.06,0,.12-.02.18-.04.69-.21,1.08-1.09,1.23-1.84.32-1.69.59-3.6.82-5.8"/><path class="cls-13" d="m791.5,891.25c.01-.28.02-.56.04-.84.02-.5.05-1.02.06-1.54,0-1.07-.38-1.9-1-2.13-.5-.18-.95-.25-1.38-.22-.71.06-1.25.83-1.5,1.46-.52,1.33-.92,2.73-1.31,4.08-.06.2-.11.39-.17.59-.41,1.43-.78,2.84-1.12,4.2-.07-1.33-.12-2.76-.14-4.31,0-.73,0-1.5.03-2.24.02-.86.04-1.75.02-2.6,0-.12-.01-.22-.03-.32-1.17,3.27-1.95,7.5-1.99,13-.02,2.68.27,5.02.79,7.08.15.18.34.32.55.4.06.02.12.03.18.04.02,0,.03,0,.04,0,.06,0,.12,0,.17,0,.7-.03,1.22-.9,1.4-1.7.03-.13.06-.28.1-.45.12-.59.23-1.19.34-1.76.09-.45.18-.92.27-1.38.49-2.47,1.06-4.94,1.7-7.36,0,3.82.22,7.6.45,11.16.04.62.25,1.51.71,1.96.18.18.38.28.59.3.1.01.2,0,.3-.02,1.02-.23,1.29-1.88,1.23-2.86-.26-3.93-.53-9.13-.32-14.55"/></g><g><g><path class="cls-33" d="m830.95,896.72c0,2.94-2.39,5.31-5.33,5.31-2.94,0-5.31-2.39-5.31-5.33,0-2.94,2.39-5.31,5.33-5.31,2.94,0,5.31,2.4,5.31,5.33Z"/><path class="cls-33" d="m867.26,889.39c-.49,0-.97-.23-1.28-.67-.06-.08-1.61-2.18-4.39-2.19h-.01c-3.1,0-4.81,2.13-4.88,2.22-.53.67-1.5.8-2.18.27-.68-.52-.81-1.49-.29-2.17.11-.14,2.67-3.44,7.35-3.44h.02c4.43.01,6.84,3.38,6.94,3.52.49.7.32,1.68-.38,2.17-.27.19-.58.28-.89.28Z"/><path class="cls-33" d="m831.59,889.46c-.47,0-.93-.21-1.24-.61-.08-.11-1.79-2.24-4.89-2.24h-.01c-2.77,0-4.33,2.09-4.4,2.18-.51.69-1.48.85-2.17.35-.69-.5-.86-1.46-.37-2.16.1-.14,2.52-3.49,6.93-3.49h.02c4.7.01,7.25,3.33,7.36,3.48.52.69.38,1.66-.31,2.18-.28.21-.61.31-.94.31Z"/><path class="cls-33" d="m856.96,898.61c-.63,0-1.24-.34-1.54-.94-.44-.85-.1-1.89.75-2.33,3.89-1.99,9.9-.48,10.57-.31.92.25,1.47,1.19,1.23,2.12-.24.92-1.19,1.48-2.11,1.23-1.47-.39-5.8-1.14-8.11.04-.25.13-.52.19-.79.19Z"/></g><g><path class="cls-33" d="m839.21,917.67c-2.29,0-4-1.19-4.55-3.24-.2-.73.23-1.49.96-1.69.73-.2,1.49.23,1.69.96.32,1.17,1.48,1.29,2.41,1.18,1.61-.19,2.34-1.82,2.33-3.26v-2.22c0-.76.61-1.37,1.37-1.37h0c.76,0,1.37.61,1.37,1.37v2.22c0,3.14-1.99,5.66-4.76,5.99-.28.03-.55.05-.82.05Z"/><path class="cls-33" d="m847.41,917.66c-.27,0-.54-.02-.82-.05-2.72-.31-4.55-2.72-4.55-5.98v-2.22c0-.76.61-1.37,1.37-1.37h0c.76,0,1.37.61,1.37,1.37v2.22c0,1.45.56,3.07,2.12,3.25.5.06,2.15.14,2.51-1.19.2-.73.95-1.17,1.68-.97.73.2,1.16.95.97,1.68-.55,2.03-2.34,3.25-4.66,3.25Z"/></g><path class="cls-33" d="m843.39,903.76c-2.36-.03-4.77.45-4.79,2.53-.03,2.08,2.54,4.44,4.71,4.46,2.18.02,4.79-2.5,4.81-4.36.02-1.86-2.38-2.61-4.74-2.64Z"/></g></g><g><path class="cls-16" d="m801.46,1027.05l8.14-33.26h7v48.55h-6.71v-27.25l-5.99,27.25h-4.75l-6.16-27.25v27.25h-6.78v-48.55h7l8.24,33.26Z"/><path class="cls-16" d="m842.66,1032.92c0,6.8-3.36,10.2-10.07,10.22-6.7,0-10.05-3.41-10.05-10.22v-29.7c0-6.8,3.35-10.2,10.05-10.2s10.07,3.4,10.07,10.2v29.7Zm-7-29.7c0-2.18-1.01-3.27-3.04-3.29h-.05c-2.01,0-3.02,1.1-3.02,3.29v29.7c0,2.19,1.01,3.29,3.04,3.29s3.07-1.1,3.07-3.29v-29.7Z"/><path class="cls-16" d="m868.23,1032.92c0,6.8-3.36,10.2-10.07,10.22-6.7,0-10.05-3.41-10.05-10.22v-29.7c0-6.8,3.35-10.2,10.05-10.2s10.07,3.4,10.07,10.2v29.7Zm-7-29.7c0-2.18-1.01-3.27-3.04-3.29h-.05c-2.01,0-3.02,1.1-3.02,3.29v29.7c0,2.19,1.01,3.29,3.04,3.29s3.07-1.1,3.07-3.29v-29.7Z"/><path class="cls-16" d="m888.77,1042.34h-9.6l-4.95-31.38-2.28-17.17h7.08l4.92,37.42,4.95-37.42h7.08l-2.28,17.22-4.92,31.33Z"/><path class="cls-16" d="m801.46,1087.87l8.14-33.26h7v48.55h-6.71v-27.25l-5.99,27.25h-4.75l-6.16-27.25v27.25h-6.78v-48.55h7l8.24,33.26Z"/><path class="cls-16" d="m842.91,1093.73c0,6.8-3.36,10.2-10.07,10.22-6.7,0-10.05-3.41-10.05-10.22v-39.12h7v39.12c0,2.19,1.01,3.29,3.04,3.29s3.07-1.1,3.07-3.29v-39.12h7v39.12Z"/><path class="cls-16" d="m848.6,1064.04c0-6.8,3.35-10.2,10.05-10.2s10.07,3.4,10.07,10.2v6.53h-7v-6.53c0-2.18-1.01-3.27-3.04-3.29h-.05c-2.01,0-3.02,1.1-3.02,3.29v4.41c0,2.16,2.19,4.81,6.56,7.94,4.37,3.12,6.56,6.85,6.56,11.21v6.14c0,6.81-3.35,10.22-10.05,10.22-6.71-.02-10.07-3.42-10.07-10.22v-6.53h7v6.53c0,2.19,1.02,3.29,3.07,3.29s3.04-1.1,3.04-3.29v-5.54c0-2.34-2.19-5.08-6.56-8.22-4.37-3.12-6.56-6.91-6.56-11.38v-4.55Z"/><path class="cls-16" d="m874.79,1054.61h7v48.55h-7v-48.55Z"/><path class="cls-16" d="m907.97,1093.73c0,6.8-3.36,10.2-10.07,10.22-6.7,0-10.05-3.41-10.05-10.22v-29.7c0-6.8,3.35-10.2,10.05-10.2s10.07,3.4,10.07,10.2v6.53h-7v-6.53c0-2.18-1.01-3.27-3.04-3.29h-.05c-2.01,0-3.02,1.1-3.02,3.29v29.7c0,2.19,1.01,3.29,3.04,3.29s3.07-1.1,3.07-3.29v-6.53h7v6.53Z"/></g></g><path class="cls-17" d="m3517.14,1266.81c-312.08-82.12-564.36-106.61-715.29-97.25-258.44,16.03-434.55,84.59-434.55,84.59-89.9,35-84.61,36.39-135.08,56.28-155.26,61.21-241.36-36.04-461.52-33.77-153.24,1.58-130.01,50.78-303.93,56.28-142.67,4.52-189.94-26.06-348.95-22.51-121.48,2.71-207.26,23.08-258.9,33.77-23.78,4.92-25.69,14.87-47.4,21.78-32.38,10.31-100.34,7.77-100.34,7.77-37.56-5.84-99.06-3.09-204.03,34.82,1003.33.2,2006.66.41,3009.99.61v-142.38Z"/></g></g></svg>