<?xml version="1.0" encoding="UTF-8"?><svg id="Layer_2" xmlns="http://www.w3.org/2000/svg" xmlns:xlink="http://www.w3.org/1999/xlink" viewBox="0 0 3500.53 1605.62"><defs><style>.cls-1{fill:url(#linear-gradient);}.cls-2{fill:#fff;}.cls-3{fill:#1b214f;}.cls-4{opacity:.59;}.cls-5{opacity:.52;}.cls-6{opacity:.7;}</style><linearGradient id="linear-gradient" x1="1868.58" y1="0" x2="1868.58" y2="1564.75" gradientUnits="userSpaceOnUse"><stop offset=".06" stop-color="#141f47"/><stop offset=".25" stop-color="#17406a"/><stop offset=".38" stop-color="#24628c"/></linearGradient></defs><g id="_ÎÓÈ_1"><g><g><path class="cls-1" d="m3500.53,0H236.63v1564.75h3263.9V0Z"/><g class="cls-4"><g class="cls-5"><g><path class="cls-2" d="m2329.69,328.82h-21.76c-11.02,0-19.95-8.91-19.95-19.9s8.93-19.9,19.95-19.9c8.21,0,14.87-6.64,14.87-14.83s-6.66-14.83-14.87-14.83h-82.69c-8.21,0-14.87,6.64-14.87,14.83s6.66,14.83,14.87,14.83h-58.03c-11.02,0-19.95,8.91-19.95,19.9s8.93,19.9,19.95,19.9h21.76c-12.02,0-21.76,9.72-21.76,21.71s9.74,21.71,21.76,21.71h140.72c12.02,0,21.76-9.72,21.76-21.71s-9.74-21.71-21.76-21.71Z"/><ellipse class="cls-2" cx="2384.09" cy="372.23" rx="14.51" ry="14.47"/></g></g><g class="cls-6"><g><path class="cls-2" d="m738.73,216.26c0-11.35,9.23-20.55,20.61-20.55h53.01c-12.41,0-22.48-10.04-22.48-22.42s10.06-22.42,22.48-22.42h145.37c12.42,0,22.48,10.04,22.48,22.42s-10.06,22.42-22.48,22.42h-53.01c-11.38,0-20.61,9.2-20.61,20.55s9.23,20.55,20.61,20.55h-1.31c8.48,0,15.36,6.86,15.36,15.32s-6.88,15.32-15.36,15.32h-85.42c-8.48,0-15.36-6.86-15.36-15.32s6.88-15.32,15.36-15.32h-58.63c-11.38,0-20.61-9.2-20.61-20.55Z"/><path class="cls-2" d="m937.49,248.09c0-6.22,5.06-11.27,11.3-11.27h62.83c6.24,0,11.3,5.05,11.3,11.27s-5.06,11.27-11.3,11.27h-62.83c-6.24,0-11.3-5.05-11.3-11.27Z"/><path class="cls-2" d="m935.24,267.46c6.24,0,11.3,5.05,11.3,11.27s-5.06,11.27-11.3,11.27-11.3-5.05-11.3-11.27,5.06-11.27,11.3-11.27Z"/></g></g><circle class="cls-2" cx="1223.66" cy="208.08" r="10.67"/><circle class="cls-2" cx="1560.95" cy="259.36" r="5.37"/><circle class="cls-2" cx="887.71" cy="380.21" r="5.37"/><circle class="cls-2" cx="2663.51" cy="164.94" r="14.07"/><circle class="cls-2" cx="2604.52" cy="176.44" r="5.34"/><circle class="cls-2" cx="3247.11" cy="118.33" r="5.63"/><circle class="cls-2" cx="2031.76" cy="449.82" r="3.42"/><circle class="cls-2" cx="2089.83" cy="426.91" r="3.22"/><circle class="cls-2" cx="1821.45" cy="186.91" r="7.91"/></g></g><path class="cls-3" d="m3500.53,308.24h-827.2c-61.16,0-115.43,39.24-134.59,97.32l-9.48,28.73c-19.17,58.08-73.43,97.32-134.59,97.32h-895.82c-45.89,0-88.93,22.21-115.52,59.61l-56.71,79.77c-26.59,37.4-69.63,59.61-115.52,59.61h-272.12c-31.59,0-62.27-10.55-87.18-29.99l-132.96-103.73c-24.91-19.43-55.59-29.99-87.18-29.99H141.73C63.46,566.9,0,630.36,0,708.64v755.25c0,78.28,63.46,141.73,141.73,141.73h3358.8V308.24Z"/></g></g></svg>