<svg width="2808" height="718" viewBox="0 0 2808 718" fill="none" xmlns="http://www.w3.org/2000/svg">
<path d="M2808 302.787H0V628.401H2808V302.787Z" fill="#1AF8EC"/>
<path d="M2808 349.573H0V718H2808V349.573Z" fill="#1ADCDE"/>
<path d="M2732.86 368.957C2645.83 377.386 2410.27 380.362 2110.61 380.317C1996.19 380.287 1872.47 379.818 1744.05 379.048C1496.34 377.552 1231.35 374.924 982.737 372.114C882.957 370.981 785.828 369.818 693.529 368.7C462.122 365.89 261.042 363.291 124.586 361.886C118.743 361.826 113.002 361.766 107.396 361.72C79.2127 361.433 54.1199 361.207 32.4213 361.055C20.5842 360.98 9.76016 360.92 0 360.874V53.6299C42.1815 81.8345 121.327 124.3 253.258 160.3C270.583 165.028 288.786 169.651 307.969 174.107C311.481 174.923 315.027 175.724 318.607 176.54C331.643 179.471 345.084 182.341 358.965 185.12C385.121 190.347 412.781 195.242 442.095 199.744C443.851 200.016 445.624 200.273 447.397 200.56C455.773 201.829 464.3 203.068 472.946 204.261C480.359 205.288 487.89 206.285 495.539 207.267C504.32 208.385 513.371 209.382 522.675 210.289C523.942 210.41 525.225 210.515 526.508 210.636C547.886 212.6 570.598 213.975 594.424 214.836C615.954 215.622 638.446 215.969 661.699 215.893H661.715C676.795 215.863 692.178 215.667 707.882 215.319C708.237 215.319 708.608 215.304 708.963 215.289C718.233 215.093 727.605 214.821 737.095 214.504C752.58 213.975 768.334 213.31 784.309 212.525C793.106 212.102 801.971 211.618 810.887 211.119C814.197 210.938 817.507 210.757 820.833 210.546C823.687 210.394 826.558 210.213 829.411 210.032C846.804 208.944 864.433 207.736 882.248 206.391C891.603 205.696 901.008 204.956 910.465 204.17C911.613 204.08 912.744 203.989 913.892 203.899C916.358 203.702 918.789 203.49 921.272 203.279H921.289C922.758 203.173 924.244 203.037 925.713 202.916H925.73C925.831 202.916 925.932 202.901 926.034 202.886C932.315 202.373 938.63 201.814 944.946 201.24H944.963C944.963 201.24 945.115 201.24 945.182 201.225C953.592 200.484 962.052 199.714 970.545 198.913C973.213 198.672 975.864 198.415 978.549 198.143C995.25 196.572 1012.03 194.895 1028.89 193.142C1030.44 192.976 1032.01 192.825 1033.58 192.659C1035.51 192.462 1037.4 192.266 1039.32 192.055C1042.16 191.768 1045.03 191.465 1047.88 191.148C1055.41 190.332 1062.96 189.517 1070.51 188.671H1070.53C1071.88 188.535 1073.23 188.384 1074.58 188.233C1079.61 187.674 1084.64 187.1 1089.69 186.526C1093.26 186.133 1096.84 185.71 1100.43 185.302C1107.66 184.471 1114.87 183.625 1122.1 182.764C1126.08 182.296 1130.05 181.812 1134 181.329C1134.49 181.283 1134.97 181.238 1135.44 181.163C1136.55 181.042 1137.67 180.906 1138.76 180.77C1139.98 180.634 1141.2 180.483 1142.38 180.332C1143.75 180.181 1145.11 180.014 1146.48 179.848C1146.72 179.833 1146.95 179.803 1147.19 179.773C1150.47 179.38 1153.74 178.972 1157.02 178.564C1157.29 178.534 1157.54 178.504 1157.81 178.474C1158.54 178.383 1159.26 178.292 1159.99 178.202H1160.02C1162.76 177.869 1165.5 177.537 1168.23 177.189C1173.09 176.585 1177.96 175.966 1182.82 175.346C1190.74 174.349 1198.66 173.337 1206.56 172.31C1217.15 170.95 1227.7 169.56 1238.24 168.155C1238.66 168.095 1239.07 168.035 1239.49 167.989C1240.98 167.793 1242.48 167.596 1243.96 167.4C1255.79 165.814 1267.57 164.213 1279.31 162.581C1281.54 162.279 1283.78 161.977 1286.01 161.659C1296.53 160.194 1306.98 158.729 1317.42 157.248H1317.44C1318.65 157.082 1319.82 156.901 1321.03 156.735C1329.61 155.511 1338.16 154.272 1346.67 153.033C1352.19 152.233 1357.68 151.432 1363.15 150.617C1366.2 150.178 1369.26 149.725 1372.32 149.272C1416.66 142.7 1459.82 136.023 1501.16 129.391C1506.7 128.515 1512.22 127.624 1517.71 126.748C1523.43 125.811 1529.12 124.889 1534.78 123.968C1545.38 122.23 1555.87 120.523 1566.19 118.786C1609.87 111.535 1650.87 104.495 1688.29 97.8781C1690.01 97.591 1691.72 97.2891 1693.39 96.9719C1704.94 94.9476 1716.12 92.9384 1726.92 91.0047C1727.36 90.9292 1727.79 90.8534 1728.22 90.7779C1730.15 90.4304 1732.04 90.0982 1733.93 89.7507C1736.87 89.222 1739.77 88.6781 1742.65 88.1644C1743.42 88.0285 1744.2 87.8925 1744.96 87.7565C1750.99 86.6537 1756.9 85.5813 1762.66 84.5389C1765.49 84.0253 1768.3 83.4965 1771.06 82.998C1786.19 80.2183 1800.29 77.6046 1813.28 75.1723C1814.88 74.8702 1816.5 74.5834 1818.08 74.2662C1832.68 71.5318 1845.8 69.0242 1857.3 66.8337C1867.8 64.8245 1876.94 63.0418 1884.59 61.5463C1885.64 61.3499 1886.67 61.1381 1887.66 60.9418H1887.68C1903.7 57.8146 1912.37 56.0623 1912.37 56.0623C1912.37 56.0623 1918.68 57.4673 1929.46 61.4555C1929.78 61.5764 1930.11 61.6972 1930.45 61.8181H1930.47C1959.46 72.7102 2018.77 101.595 2074.2 169.485C2074.2 169.485 2085.1 166.856 2101.74 163.382C2109.51 161.75 2118.55 159.953 2128.31 158.109C2131.33 157.551 2134.4 156.976 2137.56 156.432C2143.35 155.39 2149.33 154.393 2155.39 153.426C2159.73 152.731 2164.14 152.066 2168.55 151.447C2176.25 150.329 2183.96 149.362 2191.53 148.547C2193 148.396 2194.43 148.244 2195.87 148.109C2201.85 147.534 2207.67 147.066 2213.28 146.764C2235.63 145.556 2254.4 146.84 2263.45 152.701C2263.45 152.701 2268.43 236.726 2348.1 276.623C2404.85 305.054 2606.52 303.891 2712.75 322.337C2755.66 329.799 2795.05 335.887 2802.94 349.786C2804.9 353.23 2758.29 366.554 2732.91 369.032L2732.86 368.957Z" fill="#0A1E51"/>
<path d="M258.712 149.619L251.569 153.743L266.564 124.527L258.661 127.306L272.119 102.244L266.378 101.806L280.545 75.958L292.67 103.075H289.208L303.477 129.663L295.726 125.645L312.156 154.846L302.379 149.619L323.284 184.29L314.318 182.341L316.851 193.913L302.599 184.26L300.42 192.055L287.604 185.982L290.508 200.454H277.523L278.958 188.233L270.464 196.768L269.249 182.975L246.503 190.544L252.667 179.108L242.146 182.099L258.712 149.619Z" fill="#0A1E51"/>
<path d="M310.991 177.974L303.865 182.098L318.86 152.881L310.957 155.661L324.415 130.599L318.674 130.161L332.824 104.312L344.966 131.429H341.504L355.756 158.018L348.022 153.999L364.452 183.201L354.675 177.974L375.58 212.644L366.597 210.696L369.146 222.282L354.895 212.614L352.716 220.409L339.9 214.336L342.804 228.809H329.802L331.254 216.587L322.743 225.122L321.528 211.33L298.799 218.899L304.962 207.463L294.442 210.454L310.991 177.974Z" fill="#0A1E51"/>
<path d="M885.912 199.184L880.543 202.296L891.839 180.27L885.879 182.371L896.027 163.472L891.704 163.139L902.376 143.651L911.529 164.091H908.911L919.668 184.138L913.825 181.117L926.22 203.127L918.84 199.184L934.595 225.319L927.841 223.854L929.749 232.586L919.009 225.304L917.371 231.181L907.695 226.603L909.891 237.511H900.097L901.177 228.295L894.778 234.731L893.866 224.337L876.71 230.033L881.37 221.422L873.434 223.673L885.912 199.184Z" fill="#0A1E51"/>
<path d="M982.788 174.863L975.24 179.229L991.096 148.321L982.738 151.266L996.972 124.769L990.894 124.3L1005.87 96.957L1018.7 125.63H1015.06L1030.12 153.759L1021.95 149.514L1039.32 180.408L1028.97 174.863L1051.08 211.528L1041.59 209.473L1044.29 221.725L1029.21 211.512L1026.91 219.746L1013.35 213.326L1016.43 228.629H1002.68L1004.2 215.697L995.216 224.731L993.933 210.138L969.87 218.145L976.405 206.059L965.277 209.217L982.788 174.863Z" fill="#0A1E51"/>
<path d="M1032.94 193.837L1026.62 197.508L1039.91 171.584L1032.9 174.047L1044.84 151.825L1039.76 151.432L1052.31 128.515L1063.06 152.55H1060.01L1072.64 176.132L1065.78 172.582L1080.35 198.475L1071.68 193.837L1090.22 224.58L1082.26 222.857L1084.51 233.13L1071.88 224.564L1069.94 231.484L1058.57 226.09L1061.16 238.916H1049.62L1050.91 228.085L1043.37 235.653L1042.29 223.416L1022.11 230.124L1027.59 219.987L1018.26 222.646L1032.94 193.837Z" fill="#0A1E51"/>
<path d="M1067.07 214.835L1060.75 218.506L1074.04 192.583L1067.03 195.06L1078.97 172.838L1073.87 172.43L1086.43 149.513L1097.19 173.563H1094.13L1106.76 197.144L1099.91 193.579L1114.48 219.488L1105.8 214.835L1124.34 245.592L1116.39 243.855L1118.64 254.128L1106 245.577L1104.06 252.481L1092.7 247.088L1095.28 259.929H1083.75L1085.03 249.082L1077.48 256.651L1076.42 244.429L1056.24 251.137L1061.71 241L1052.39 243.644L1067.07 214.835Z" fill="#0A1E51"/>
<path d="M1097.78 170.588L1091.45 174.244L1104.74 148.32L1097.75 150.798L1109.67 128.575L1104.59 128.183L1117.15 105.266L1127.91 129.301H1124.83L1137.48 152.883L1130.61 149.332L1145.18 175.226L1136.52 170.588L1155.06 201.33L1147.09 199.608L1149.35 209.881L1136.7 201.315L1134.78 208.219L1123.41 202.841L1125.98 215.667H1114.47L1115.75 204.835L1108.2 212.404L1107.12 200.167L1086.96 206.875L1092.43 196.738L1083.09 199.397L1097.78 170.588Z" fill="#0A1E51"/>
<path d="M1120.81 193.837L1114.48 197.508L1127.77 171.584L1120.78 174.047L1132.7 151.825L1127.62 151.432L1140.17 128.515L1150.94 152.55H1147.87L1160.51 176.132L1153.64 172.582L1168.21 198.475L1159.53 193.837L1178.07 224.58L1170.12 222.857L1172.38 233.13L1159.74 224.564L1157.81 231.484L1146.43 226.09L1149.01 238.916H1137.5L1138.78 228.085L1131.23 235.653L1130.15 223.416L1109.99 230.124L1115.46 219.987L1106.12 222.646L1120.81 193.837Z" fill="#0A1E51"/>
<path d="M1139.83 178.549L1133.51 182.22L1146.8 156.296L1139.79 158.774L1151.73 136.552L1146.63 136.144L1159.2 113.227L1169.95 137.277H1166.9L1179.53 160.859L1172.67 157.293L1187.24 183.201L1178.57 178.549L1197.11 209.306L1189.15 207.569L1191.4 217.842L1178.77 209.276L1176.83 216.195L1165.46 210.802L1168.04 223.643H1156.51L1157.8 212.796L1150.25 220.365L1149.18 208.143L1129 214.851L1134.48 204.714L1125.15 207.357L1139.83 178.549Z" fill="#0A1E51"/>
<path d="M1175.63 143.379L1167.84 147.896L1184.2 115.99L1175.59 119.042L1190.27 91.6987L1184 91.2001L1199.45 63.0107L1212.69 92.5898H1208.93L1224.48 121.61L1216.04 117.229L1233.97 149.09L1223.3 143.379L1246.11 181.222L1236.32 179.092L1239.08 191.737L1223.53 181.192L1221.15 189.697L1207.17 183.065L1210.34 198.867H1196.16L1197.73 185.528L1188.46 194.834L1187.13 179.787L1162.32 188.036L1169.04 175.557L1157.56 178.82L1175.63 143.379Z" fill="#0A1E51"/>
<path d="M478.721 192.915L472.98 196.254L489.545 154.71L484.918 154.347L496.333 133.515L506.127 155.374H503.341L530.814 220.878L523.57 219.307L525.63 228.658L514.131 220.863L512.375 227.147L502.041 222.253L504.388 233.93H493.901L495.067 224.065L488.211 230.954L487.231 219.82L468.893 225.923L473.858 216.708L465.381 219.11L478.721 192.915Z" fill="#0A1E51"/>
<path d="M683.921 154.514L718.386 241.892L711.159 240.321L713.202 249.657L701.702 241.877L699.946 248.161L689.612 243.267L691.959 254.929H681.473L682.638 245.065L675.782 251.953L674.803 240.835L656.464 246.938L661.429 237.708L652.952 240.125L683.921 154.514Z" fill="#0A1E51"/>
<path d="M722.539 165.014L748.273 252.392L742.87 250.821L744.406 260.157L735.811 252.377L734.511 258.661L726.794 253.767L728.55 265.429H720.715L721.593 255.58L716.46 262.453L715.734 251.334L702.039 257.438L705.754 248.207L699.422 250.624L722.539 165.014Z" fill="#0A1E51"/>
<path d="M802.022 133.515L823.383 220.878L818.892 219.307L820.175 228.658L813.049 220.863L811.951 227.147L805.552 222.253L807.004 233.93H800.52L801.229 224.065L796.99 230.954L796.382 219.82L785.018 225.923L788.091 216.708L782.84 219.11L802.022 133.515Z" fill="#0A1E51"/>
<path d="M935.237 160.465L956.598 247.843L952.107 246.272L953.373 255.608L946.264 247.828L945.166 254.113L938.767 249.203L940.219 260.88H933.718L934.444 251.016L930.205 257.904L929.597 246.786L918.233 252.889L921.306 243.658L916.055 246.076L935.237 160.465Z" fill="#0A1E51"/>
<path d="M961.376 127.91L982.737 215.288L978.262 213.702L979.529 223.053L972.403 215.258L971.322 221.558L964.905 216.648L966.357 228.326H959.873L960.582 218.461L956.344 225.35L955.736 214.231L944.372 220.334L947.445 211.104L942.193 213.521L961.376 127.91Z" fill="#0A1E51"/>
<path d="M542.112 164.424L534.226 167.218L556.093 115.87L584.935 183.413L577.184 178.111L598.832 224.202L589.866 222.238L592.398 233.825L578.147 224.171L575.968 231.966L563.152 225.893L566.073 240.366H553.071L554.506 228.144L546.012 236.665L544.797 222.887L522.051 230.456L528.231 219.02L517.694 222.011L542.112 164.424Z" fill="#0A1E51"/>
<path d="M1207.78 177.945L1201.85 181.39L1214.33 157.022L1207.76 159.349L1218.97 138.471L1214.18 138.093L1225.98 116.551L1236.1 139.151H1233.21L1245.1 161.312L1238.65 157.974L1252.34 182.311L1244.18 177.945L1261.61 206.845L1254.13 205.213L1256.24 214.867L1244.37 206.815L1242.56 213.311L1231.87 208.25L1234.29 220.32H1223.47L1224.66 210.123L1217.59 217.238L1216.58 205.742L1197.61 212.057L1202.76 202.524L1193.98 205.017L1207.78 177.945Z" fill="#0A1E51"/>
<path d="M1245.84 155.405L1239.9 158.864L1252.37 134.496L1245.81 136.823L1257.02 115.945L1252.22 115.567L1264.03 94.0254L1274.14 116.625H1271.25L1283.14 138.787L1276.69 135.433L1290.38 159.77L1282.23 155.405L1299.66 184.304L1292.17 182.688L1294.29 192.341L1282.41 184.289L1280.61 190.785L1269.92 185.724L1272.33 197.78H1261.51L1262.71 187.597L1255.63 194.713L1254.62 183.216L1235.66 189.516L1240.81 179.999L1232.03 182.476L1245.84 155.405Z" fill="#0A1E51"/>
<path d="M1696.41 81.7579L1692.11 84.2655L1701.14 66.6359L1696.38 68.3129L1704.5 53.206L1701.04 52.9338L1709.58 37.3438L1716.89 53.6892H1714.8L1723.4 69.7329L1718.73 67.3156L1728.65 84.9305L1722.75 81.7579L1735.35 102.681L1729.95 101.503L1731.47 108.482L1722.89 102.666L1721.57 107.364L1713.84 103.693L1715.59 112.425H1707.76L1708.62 105.053L1703.49 110.204L1702.76 101.88L1689.05 106.443L1692.76 99.5539L1686.43 101.352L1696.41 81.7579Z" fill="#0A1E51"/>
<path d="M1773.9 62.316L1767.86 65.8058L1780.54 41.076L1773.87 43.4324L1785.25 22.2377L1780.38 21.86L1792.37 0L1802.62 22.9326H1799.7L1811.78 45.4266L1805.22 42.0275L1819.12 66.7426L1810.85 62.316L1828.53 91.6387L1820.94 89.992L1823.09 99.7963L1811.03 91.6236L1809.19 98.2251L1798.35 93.0738L1800.8 105.326H1789.81L1791.04 94.9773L1783.85 102.198L1782.82 90.536L1763.57 96.9413L1768.78 87.2575L1759.88 89.7957L1773.9 62.316Z" fill="#0A1E51"/>
<path d="M1821.49 58.8868L1816.44 61.8174L1827.08 41.0908L1821.47 43.0544L1831.01 25.289L1826.94 24.9715L1836.99 6.63184L1845.6 25.8629H1843.13L1853.25 44.7314L1847.76 41.8764L1859.41 62.603L1852.47 58.8868L1867.32 83.4805L1860.95 82.1059L1862.76 90.324L1852.64 83.4654L1851.09 88.9947L1842 84.6891L1844.06 94.9619H1834.84L1835.87 86.2905L1829.83 92.3333L1828.97 82.5592L1812.84 87.9222L1817.21 79.8096L1809.75 81.9248L1821.49 58.8868Z" fill="#0A1E51"/>
<path d="M1893.96 48.4489L1889.34 51.1379L1899.08 32.1333L1893.95 33.9465L1902.69 17.646L1898.96 17.3591L1908.16 0.544922L1916.05 18.1746H1913.8L1923.07 35.4723L1918.04 32.8584L1928.73 51.8479L1922.37 48.4489L1935.96 71.0034L1930.13 69.7195L1931.79 77.2578L1922.52 70.9886L1921.1 76.0492L1912.76 72.1065L1914.65 81.503H1906.2L1907.13 73.5567L1901.61 79.116L1900.82 70.1425L1886.03 75.0674L1890.05 67.6194L1883.21 69.5683L1893.96 48.4489Z" fill="#0A1E51"/>
<path d="M2105.27 149.272L2102.4 150.949L2108.47 139.105L2105.27 140.238L2110.71 130.102L2108.38 129.905L2114.12 119.451L2119.04 130.434H2117.63L2123.41 141.19L2120.27 139.559L2126.92 151.387L2122.95 149.272L2131.43 163.307L2127.78 162.521L2128.81 167.204L2123.05 163.291L2122.18 166.449L2116.98 163.986L2118.16 169.848H2112.89L2113.48 164.893L2110.04 168.352L2109.55 162.778L2100.34 165.829L2102.84 161.207L2098.59 162.415L2105.27 149.272Z" fill="#0A1E51"/>
<path d="M2138.12 159.137L2135.25 160.799L2141.31 148.971L2138.12 150.104L2143.55 139.967L2141.22 139.77L2146.97 129.316L2151.88 140.284H2150.48L2156.25 151.055L2153.11 149.424L2159.77 161.253L2155.8 159.137L2164.27 173.172L2160.63 172.371L2161.66 177.07L2155.9 173.157L2155.02 176.314L2149.82 173.852L2151 179.713H2145.73L2146.32 174.758L2142.88 178.218L2142.39 172.643L2133.19 175.695L2135.69 171.072L2131.43 172.28L2138.12 159.137Z" fill="#0A1E51"/>
<path d="M1284.86 151.522L1280.57 154L1292.95 123L1289.49 122.729L1298.02 107.184L1305.31 123.499H1303.24L1323.75 172.385L1318.35 171.206L1319.87 178.186L1311.29 172.37L1309.99 177.068L1302.27 173.412L1304.01 182.114H1296.19L1297.07 174.757L1291.94 179.893L1291.21 171.599L1277.52 176.146L1281.23 169.273L1274.9 171.071L1284.86 151.522Z" fill="#0A1E51"/>
<path d="M1359.58 117.049L1385.32 182.25L1379.91 181.072L1381.45 188.051L1372.87 182.235L1371.56 186.933L1363.84 183.277L1365.6 191.979H1357.76L1358.64 184.622L1353.52 189.758L1352.78 181.465L1339.1 186.012L1342.82 179.138L1336.48 180.936L1359.58 117.049Z" fill="#0A1E51"/>
<path d="M1550.46 65.5645L1568.53 126.913L1564.73 125.795L1565.81 132.367L1559.79 126.898L1558.87 131.31L1553.45 127.865L1554.69 136.068H1549.18L1549.79 129.134L1546.21 133.969L1545.69 126.158L1536.08 130.449L1538.68 123.968L1534.24 125.66L1550.46 65.5645Z" fill="#0A1E51"/>
<path d="M1509.33 92.6504L1524.32 154L1521.18 152.897L1522.06 159.453L1517.06 153.985L1516.3 158.411L1511.81 154.966L1512.83 163.154H1508.27L1508.77 156.235L1505.78 161.07L1505.36 153.259L1497.39 157.55L1499.55 151.069L1495.85 152.761L1509.33 92.6504Z" fill="#0A1E51"/>
<path d="M1735.86 50.79L1752.95 120.69L1749.37 119.436L1750.38 126.914L1744.69 120.675L1743.81 125.705L1738.68 121.793L1739.84 131.128H1734.66L1735.23 123.243L1731.84 128.742L1731.35 119.844L1722.26 124.723L1724.73 117.351L1720.51 119.285L1735.86 50.79Z" fill="#0A1E51"/>
<path d="M1756.78 24.7451L1773.87 94.6448L1770.27 93.3908L1771.28 100.869L1765.59 94.6297L1764.72 99.6604L1759.6 95.7476L1760.76 105.084H1755.56L1756.14 97.1978L1752.74 102.697L1752.25 93.7987L1743.17 98.6782L1745.63 91.3062L1741.43 93.24L1756.78 24.7451Z" fill="#0A1E51"/>
<path d="M2179.83 100.81L2192.73 153.563L2190.01 152.611L2190.79 158.246L2186.48 153.548L2185.82 157.34L2181.95 154.394L2182.83 161.433H2178.91L2179.35 155.481L2176.79 159.636L2176.41 152.928L2169.56 156.614L2171.42 151.04L2168.24 152.49L2179.83 100.81Z" fill="#0A1E51"/>
<path d="M2204.31 110.159L2217.2 162.912L2214.49 161.961L2215.25 167.596L2210.96 162.897L2210.31 166.689L2206.44 163.728L2207.32 170.783H2203.4L2203.82 164.831L2201.25 168.985L2200.9 162.263L2194.03 165.949L2195.9 160.39L2192.73 161.84L2204.31 110.159Z" fill="#0A1E51"/>
<path d="M1332.18 130.252L1326.28 132.337L1342.61 94.0107L1364.13 144.422L1358.35 140.464L1374.51 174.863L1367.81 173.397L1369.7 182.053L1359.08 174.848L1357.44 180.664L1347.88 176.132L1350.04 186.918H1340.35L1341.43 177.809L1335.08 184.169L1334.17 173.881L1317.2 179.531L1321.81 170.995L1313.96 173.231L1332.18 130.252Z" fill="#0A1E51"/>
<path d="M889.336 150.614H29.333V369.362H889.336V150.614Z" fill="#0A1E51"/>
<path d="M2803 350C2525.74 451.28 2169.07 581.592 1892.35 682.691L1795.7 718H0V350H2803Z" fill="#1EA5CB"/>
<path d="M2291 407.715L1340.18 505.255H1340.17L953.856 544.877H953.704L774.631 563.263L737.398 567.079L504.173 591H0V332L32.8089 337.309L106.346 349.255L109.639 349.783L126.102 352.467L231.385 369.526L298.032 380.34L640.592 385.046L1770.48 400.581L2291 407.715Z" fill="#19649D"/>
<path d="M2456 475L2079.78 613.012L1959.67 628.237L1704.7 660.565L1251.65 718H0V588.812L705.96 556.091L760.34 553.594L952.812 544.664L2456 475Z" fill="#1EB6DF"/>
<path d="M2048.29 407.599L0 439.353V407.599H2048.29Z" fill="#0D4E87"/>
<path d="M2291.05 407.599H0V110.189C9.67573 118.075 23.3535 132.562 40.5773 150.6C82.9445 195.014 146.757 260.925 225.244 302.802C230.934 305.853 236.709 308.769 242.569 311.519C264.402 321.882 287.3 330.206 311.093 335.629L319.958 315.341L313.423 318.045L317.83 308.392L320.397 302.787L324.551 293.692L319.806 293.255L331.525 268.177L341.572 294.508H338.718L342.518 302.787L344.578 307.274L350.538 320.326L344.122 316.413L349.373 327.381L356.753 310.37L350.859 314.374L354.135 306.881L355.908 302.787L363.254 285.988L356.719 288.692L367.864 264.385L363.119 263.947L374.838 238.855L384.885 265.186H382.031L393.834 291.004L387.418 287.121L394.932 302.802L396.063 305.159L396.941 306.986L397.583 305.083L398.377 302.787L404.084 285.973L400.251 285.625L409.707 265.382L417.813 286.622H415.499L421.291 302.787L421.747 304.086L432.841 335.161C440.71 333.258 448.647 330.976 456.651 328.272C462.105 326.414 467.644 324.541 473.25 322.668L481.878 302.802L482.25 301.971L481.017 302.802L477.488 305.204L478.316 302.802L478.687 301.714L491.216 264.869L487.383 264.521L496.84 244.278L504.945 265.518H502.632L515.06 300.219L515.988 302.817L517.88 308.119C518.572 307.893 519.298 307.651 519.99 307.455L521.662 302.832L522.709 299.947H522.726L536.252 262.497L529.734 265.201L547.836 215.348L561.986 254.188L565.026 244.308L579.987 288.798C580.189 288.722 580.409 288.662 580.611 288.617L596.991 217.463L612.476 279.084C618.892 277.211 625.36 275.307 631.861 273.434L636.15 264.113L626.643 267.285L641.587 232.857L635.154 237.223L648.696 206.254L641.57 209.215L653.711 182.657L648.527 182.173L661.31 154.799L663.033 159.316L665.532 165.843L667.288 170.496L669.297 175.753L672.269 183.548H669.162L682.046 211.723L675.055 207.462L684.36 226.844L693.242 206.541L687.686 208.852L696.197 190.225L697.126 188.186L693.09 187.808L698.561 176.085L699.675 173.683L703.036 166.507L708.017 179.605L708.524 180.95L709.317 182.959V182.989L711.546 188.866H709.115L710.972 192.914L711.31 193.609L719.145 210.771L713.708 207.462L725.241 231.543L718.368 227.222L728.382 246.695C729.294 246.468 730.205 246.212 731.134 245.985L737.129 232.268L732.215 234.307L740.607 215.967L737.01 215.65L745.859 196.721L753.424 216.572H751.262L759.368 234.292L773.045 162.64L781.201 201.691L790.945 150.66L793.95 134.979V134.949L794.693 131.021L795.318 134.027L796.331 138.846L797.412 144.104L798.78 150.675L806.851 189.395L812.407 176.629L806.159 180.859L815.987 158.425L816.78 156.642L819.313 150.857L816.409 152.065L812.39 153.727L813.775 150.675L815.885 146.053L817.338 142.911L824.176 127.985L819.161 127.516L820.884 123.845L828.449 107.651L831.556 100.989L839.627 122.184L842.16 128.816H839.138L849.117 150.675L851.616 156.129L844.845 152.005L855.078 173.336L863.791 154.256L859.57 153.863L861.056 150.675L869.972 131.611L877.25 150.675L878.887 154.951H876.355L886.807 177.853L881.133 174.408L886.773 186.177L892.025 174.65L887.803 174.257L898.205 152.005L905.044 169.906L911.9 154.195L913.369 150.842L912.136 151.355L910.937 151.869H910.92L907.56 153.259L908.759 150.66L917.438 131.671L913.217 131.278L921.626 113.301L923.619 109.025L925.088 112.893L932.518 132.366H929.968L932.94 138.862L936.081 145.735L941.501 134.118L942.666 131.595L948.644 147.261L952.241 139.391L948.019 139.013L953.879 126.444V126.414L958.151 117.319L958.421 116.745L963.976 131.323L967.337 140.085H964.804L969.616 150.63L975.256 162.988L969.583 159.513L973.872 168.486L979.546 156.084L975.594 155.706L977.975 150.615L983.142 139.542L983.26 139.315L985.371 134.798L991.416 150.615L993.747 156.718H991.366L994.794 164.211L998.441 172.188L1004.1 159.226L998.644 161.492L1007.31 142.563L1007.93 141.203L1007.22 141.128L1003.98 140.826L1006.85 134.677L1013.74 119.918L1022.12 141.868H1019.73L1023.6 150.328L1029.56 163.38L1024.23 160.147L1029.11 170.299L1036.32 138.877L1037.18 135.221V135.191L1046.25 95.7468L1048.49 85.9874V85.9576L1050.74 76.168L1051.09 74.6421L1053.44 64.445L1060.72 93.4505L1067.98 122.35L1073.38 110.808L1077.94 122.773L1079.43 126.655H1077.7L1079.04 130.387L1079.44 131.52L1084.66 146.113L1090.79 163.275L1094.3 153.561L1096.43 147.684V147.654L1098.31 142.442L1100.48 136.445L1101.65 133.181L1099.52 134.058L1096.75 135.221L1098.27 131.006L1103.89 115.537L1110.28 97.9977L1114.72 110.158L1121.63 129.148L1123.33 123.619L1123.47 123.196V123.166L1124.34 120.341L1124.7 121.338V121.368L1125.58 123.951V123.982L1133.53 147.624L1138.36 161.99C1142.88 161.371 1147.39 160.767 1151.9 160.163C1152.76 160.042 1153.61 159.936 1154.47 159.815L1153.95 152.775L1152.44 153.349L1149.35 154.573H1149.34L1144.86 156.31L1139.9 158.259L1143.71 149.98L1137.23 152.156L1140.03 144.376L1146.03 127.834L1152.29 110.491V110.416L1152.24 110.446L1150.25 111.276L1147.44 112.44L1158.45 82.0901L1160.56 76.2889L1160.95 75.2466L1161.29 76.168L1178.78 124.193L1173.99 120.356L1182.16 140.735V140.765L1185.71 149.603V149.633L1187.38 153.757L1186.97 153.666L1187.7 155.706C1207.96 153.319 1228.04 151.234 1247.9 149.482L1248.36 147.095L1248.83 149.391C1268.84 147.639 1288.58 146.204 1308.06 145.131L1309.57 141.657L1306.02 144.059L1313.5 126.958L1309.57 128.574L1316.29 113.905L1313.42 113.633L1320.49 98.5111L1326.55 114.389H1324.83L1330 125.749L1331.27 120.25L1337.18 143.802C1345.84 143.484 1354.43 143.243 1362.94 143.061L1366.15 135.659L1363.52 137.457L1369.09 124.737L1366.15 125.946L1371.13 115.023L1369.01 114.842L1374.26 103.572L1378.77 115.386H1377.48L1382.79 126.973L1379.91 125.22L1385.66 137.185L1390.32 126.504L1386.85 128.861L1394.15 112.183L1390.3 113.754L1396.83 99.4631L1394.05 99.206L1400.94 84.4469L1406.83 99.9163H1405.16L1412.08 115.098L1408.33 112.802L1416.32 129.48L1411.56 126.489L1420.17 143.213C1422.03 143.258 1423.89 143.303 1425.73 143.349L1435.89 90.1418L1444.71 132.411L1451.53 96.7589L1461.59 145.086C1465.56 145.343 1469.51 145.615 1473.43 145.917L1474.87 142.835L1467.99 145.131L1478.8 120.265L1474.14 123.407L1483.92 101.034L1478.75 103.164L1487.55 83.9936L1483.8 83.6462L1493.05 63.8711L1500.97 84.628H1498.73L1508.01 104.992L1502.98 101.91L1513.7 124.284L1507.32 120.28L1520.95 146.808L1515.1 145.327L1516.03 150.298C1598.18 160.918 1667.33 183.442 1715.96 221.663C1715.96 221.663 1721.99 233.537 1730.94 249.747H1730.96C1739.74 265.609 1751.31 285.625 1762.84 302.772C1772.74 317.486 1782.56 330.1 1790.55 336.173C1790.55 336.173 1798.23 331.777 1810.76 326.671L1812.03 323.921L1808.5 325.1L1814.06 312.334L1811.68 313.951L1816.57 302.772L1816.71 302.469L1815.98 302.772L1814.07 303.557L1814.44 302.772L1818.58 293.707L1816.66 293.541L1821.4 283.359L1825.47 294.025H1824.31L1828.31 302.772L1829.1 304.479L1826.5 302.908L1832.02 314.389L1828.75 312.334L1832.23 319.087C1835.38 318.135 1838.66 317.229 1842.05 316.383L1843.94 312.063L1841.31 313.15L1845.82 303.3L1843.89 303.134L1844.06 302.787L1848.64 292.982L1852.39 302.787L1852.69 303.618H1851.53L1856.02 313.422C1859.6 312.803 1863.23 312.259 1866.94 311.851L1868.68 302.787L1875.84 265.292L1883.64 302.787L1885.33 310.839C1886.6 310.869 1887.87 310.884 1889.13 310.93L1890.69 302.787L1896.11 274.356L1902.02 302.787L1903.99 312.244C1917.16 314.208 1930.32 318.392 1942.78 325.704C1956.22 333.59 1978.68 341.687 2005.93 349.558C2044.01 360.541 2091.44 371.116 2136.65 380.165C2217.57 396.329 2291.31 407.583 2291.31 407.583L2291.05 407.599Z" fill="#06113F"/>
<path d="M161.212 407.599H0V173.623C8.64568 191.298 19.6216 213.203 32.8097 237.027C44.4273 257.98 57.7504 280.429 72.6946 302.802C76.1056 307.908 79.6179 313.045 83.2147 318.136C90.577 328.59 98.294 338.938 106.349 349.045C106.501 349.226 106.619 349.422 106.771 349.574C107.412 350.389 108.071 351.19 108.713 352.006C113.475 357.882 118.355 363.683 123.336 369.348C135.291 382.929 147.939 395.831 161.228 407.584L161.212 407.599Z" fill="#060D33"/>
<path d="M1771.5 407.599H574.584C684.073 371.464 802.31 323.816 915.058 283.33C1189.64 184.787 1565.19 119.979 1678.61 239.913C1729.83 294.086 1765.73 355.858 1771.5 407.614V407.599Z" fill="#060D33"/>
</svg>
