<?xml version="1.0" encoding="UTF-8"?><svg id="Layer_2" xmlns="http://www.w3.org/2000/svg" xmlns:xlink="http://www.w3.org/1999/xlink" viewBox="0 0 2945.06 1606.84"><defs><style>.cls-1{fill:none;}.cls-2{stroke-width:0px;}.cls-2,.cls-3{fill:#053342;stroke:#053342;stroke-miterlimit:10;}.cls-4{clip-path:url(#clippath);}.cls-5{fill:#fff;}.cls-6{fill:#fcfff6;}.cls-7{fill:#bcbec0;}.cls-8{fill:#a7a9ac;}.cls-9{fill:#c2e1b5;}.cls-10{fill:#d9ebcb;}.cls-11{fill:#105661;}.cls-12{fill:#1d9696;}.cls-13{fill:#1d8f83;}.cls-14{fill:#3ec0c4;}.cls-15{fill:#135463;}.cls-16{fill:#363636;}.cls-17{fill:#99cf90;}.cls-18{fill:#39a490;}.cls-19{fill:#56b895;}.cls-20{fill:#5cbda8;}.cls-3{stroke-width:.98px;}.cls-21{clip-path:url(#clippath-1);}</style><clipPath id="clippath"><rect class="cls-1" width="2945.06" height="1606.84"/></clipPath><clipPath id="clippath-1"><polygon class="cls-7" points="1881.69 528.84 1881.69 139.6 1766.27 236.67 1766.27 625.77 1766.19 625.77 1766.19 1305.7 1997.3 1305.7 1997.3 625.77 1881.69 528.84"/></clipPath></defs><g id="_ÎÓÈ_1"><g class="cls-4"><g><g><rect class="cls-14" x="1240.43" y="657.85" width="159.73" height="348.23"/><rect class="cls-12" x="1400.16" y="657.85" width="267.66" height="348.23"/><g><rect class="cls-12" x="1278.22" y="688.3" width="32.33" height="31.95"/><rect class="cls-12" x="1330.03" y="688.3" width="32.33" height="31.95"/><rect class="cls-12" x="1278.22" y="733.47" width="32.33" height="31.95"/><rect class="cls-12" x="1330.03" y="733.47" width="32.33" height="31.95"/><rect class="cls-12" x="1278.22" y="778.64" width="32.33" height="31.95"/><rect class="cls-12" x="1330.03" y="778.64" width="32.33" height="31.95"/><rect class="cls-12" x="1278.22" y="823.81" width="32.33" height="31.95"/><rect class="cls-12" x="1330.03" y="823.81" width="32.33" height="31.95"/><rect class="cls-12" x="1278.22" y="868.98" width="32.33" height="31.95"/><rect class="cls-12" x="1330.03" y="868.98" width="32.33" height="31.95"/><rect class="cls-12" x="1278.22" y="914.15" width="32.33" height="31.95"/><rect class="cls-12" x="1330.03" y="914.15" width="32.33" height="31.95"/><rect class="cls-12" x="1278.22" y="959.32" width="32.33" height="31.95"/><rect class="cls-12" x="1330.03" y="959.32" width="32.33" height="31.95"/></g><g><rect class="cls-14" x="1441.94" y="688.3" width="32.33" height="31.95"/><rect class="cls-14" x="1493.75" y="688.3" width="32.33" height="31.95"/><rect class="cls-14" x="1441.94" y="733.47" width="32.33" height="31.95"/><rect class="cls-14" x="1493.75" y="733.47" width="32.33" height="31.95"/><rect class="cls-14" x="1441.94" y="778.64" width="32.33" height="31.95"/><rect class="cls-14" x="1493.75" y="778.64" width="32.33" height="31.95"/><rect class="cls-14" x="1441.94" y="823.81" width="32.33" height="31.95"/><rect class="cls-14" x="1493.75" y="823.81" width="32.33" height="31.95"/><rect class="cls-14" x="1441.94" y="868.98" width="32.33" height="31.95"/><rect class="cls-14" x="1493.75" y="868.98" width="32.33" height="31.95"/><rect class="cls-14" x="1441.94" y="914.15" width="32.33" height="31.95"/><rect class="cls-14" x="1493.75" y="914.15" width="32.33" height="31.95"/><rect class="cls-14" x="1441.94" y="959.32" width="32.33" height="31.95"/><rect class="cls-14" x="1493.75" y="959.32" width="32.33" height="31.95"/></g><g><rect class="cls-14" x="1546.87" y="688.3" width="32.33" height="31.95"/><rect class="cls-14" x="1598.69" y="688.3" width="32.33" height="31.95"/><rect class="cls-14" x="1546.87" y="733.47" width="32.33" height="31.95"/><rect class="cls-14" x="1598.69" y="733.47" width="32.33" height="31.95"/><rect class="cls-14" x="1546.87" y="778.64" width="32.33" height="31.95"/><rect class="cls-14" x="1598.69" y="778.64" width="32.33" height="31.95"/><rect class="cls-14" x="1546.87" y="823.81" width="32.33" height="31.95"/><rect class="cls-14" x="1598.69" y="823.81" width="32.33" height="31.95"/><rect class="cls-14" x="1546.87" y="868.98" width="32.33" height="31.95"/><rect class="cls-14" x="1598.69" y="868.98" width="32.33" height="31.95"/><rect class="cls-14" x="1546.87" y="914.15" width="32.33" height="31.95"/><rect class="cls-14" x="1598.69" y="914.15" width="32.33" height="31.95"/><rect class="cls-14" x="1546.87" y="959.32" width="32.33" height="31.95"/><rect class="cls-14" x="1598.69" y="959.32" width="32.33" height="31.95"/></g></g><g><rect class="cls-13" x="824.34" y="747.67" width="149.61" height="361.57" rx="74.81" ry="74.81"/><rect class="cls-13" x="946.97" y="799.7" width="149.61" height="361.57" rx="74.81" ry="74.81"/><rect class="cls-13" x="1069.59" y="827.84" width="149.61" height="361.57" rx="74.81" ry="74.81"/><rect class="cls-13" x="1192.21" y="797.95" width="149.61" height="361.57" rx="74.81" ry="74.81"/></g><g><rect class="cls-5" x="2067.64" y="445.4" width="240.4" height="433.13"/><rect class="cls-14" x="2086.47" y="468.46" width="200.85" height="19.91"/><rect class="cls-14" x="2086.47" y="507.05" width="200.85" height="19.91"/><rect class="cls-14" x="2086.47" y="545.65" width="200.85" height="19.91"/></g><g><rect class="cls-13" x="-28.43" y="527.8" width="157.14" height="271.64" rx="78.57" ry="78.57"/><rect class="cls-13" x="100.36" y="557.36" width="157.14" height="271.64" rx="78.57" ry="78.57"/><rect class="cls-13" x="229.16" y="610.17" width="157.14" height="271.64" rx="78.57" ry="78.57"/></g><path class="cls-19" d="m50.44,671.6h656.27c37.03,0,72.6,14.5,99.08,40.38l258.74,252.94c26.48,25.89,62.04,40.38,99.08,40.38h271.87c53.6,0,102.61-30.23,126.66-78.13l90.54-180.3c24.05-47.9,73.06-78.13,126.66-78.13h504.9c40.42,0,78.91,17.26,105.81,47.43l200.27,224.7c26.89,30.17,65.39,47.43,105.81,47.43h279.31c78.28,0,141.73,63.46,141.73,141.73v353.4c0,78.28-63.46,141.73-141.73,141.73H-166.8c-78.28,0-141.73-63.46-141.73-141.73v-537.35c0-49.37,25.7-95.19,67.83-120.94L-23.47,692.39c22.25-13.6,47.83-20.79,73.91-20.79Z"/><g><rect class="cls-13" x="1805.4" y="817.55" width="149.61" height="692.43" rx="74.81" ry="74.81"/><rect class="cls-13" x="1928.02" y="789.41" width="149.61" height="692.43" rx="74.81" ry="74.81"/><rect class="cls-13" x="2050.64" y="817.55" width="149.61" height="692.43" rx="74.81" ry="74.81"/><rect class="cls-13" x="2173.27" y="875.26" width="149.61" height="692.43" rx="74.81" ry="74.81"/><rect class="cls-13" x="2295.89" y="832.72" width="149.61" height="692.43" rx="74.81" ry="74.81"/><rect class="cls-13" x="2417.16" y="896.13" width="149.61" height="692.43" rx="74.81" ry="74.81"/></g><g><rect class="cls-17" x="1970.79" y="546.27" width="174.79" height="371.92"/><rect class="cls-5" x="1989.25" y="576.27" width="13.57" height="17.06"/><rect class="cls-5" x="2012.39" y="576.27" width="13.57" height="17.06"/><rect class="cls-5" x="2035.53" y="576.27" width="13.57" height="17.06"/><rect class="cls-5" x="2058.67" y="576.27" width="13.57" height="17.06"/><rect class="cls-5" x="2081.81" y="576.27" width="13.57" height="17.06"/><rect class="cls-5" x="2104.94" y="576.27" width="13.57" height="17.06"/><rect class="cls-5" x="1989.25" y="606.89" width="13.57" height="17.06"/><rect class="cls-5" x="2012.39" y="606.89" width="13.57" height="17.06"/><rect class="cls-5" x="2035.53" y="606.89" width="13.57" height="17.06"/><rect class="cls-5" x="2058.67" y="606.89" width="13.57" height="17.06"/><rect class="cls-5" x="2081.81" y="606.89" width="13.57" height="17.06"/><rect class="cls-5" x="2104.94" y="606.89" width="13.57" height="17.06"/><rect class="cls-5" x="1989.25" y="637.51" width="13.57" height="17.06"/><rect class="cls-5" x="2012.39" y="637.51" width="13.57" height="17.06"/><rect class="cls-5" x="2035.53" y="637.51" width="13.57" height="17.06"/><rect class="cls-5" x="2058.67" y="637.51" width="13.57" height="17.06"/><rect class="cls-5" x="2081.81" y="637.51" width="13.57" height="17.06"/><rect class="cls-5" x="2104.94" y="637.51" width="13.57" height="17.06"/><rect class="cls-5" x="1989.25" y="668.13" width="13.57" height="17.06"/><rect class="cls-5" x="2012.39" y="668.13" width="13.57" height="17.06"/><rect class="cls-5" x="2035.53" y="668.13" width="13.57" height="17.06"/><rect class="cls-5" x="2058.67" y="668.13" width="13.57" height="17.06"/><rect class="cls-5" x="2081.81" y="668.13" width="13.57" height="17.06"/><rect class="cls-5" x="2104.94" y="668.13" width="13.57" height="17.06"/><rect class="cls-5" x="1989.25" y="698.75" width="13.57" height="17.06"/><rect class="cls-5" x="2012.39" y="698.75" width="13.57" height="17.06"/><rect class="cls-5" x="2035.53" y="698.75" width="13.57" height="17.06"/><rect class="cls-5" x="2058.67" y="698.75" width="13.57" height="17.06"/><rect class="cls-5" x="2081.81" y="698.75" width="13.57" height="17.06"/><rect class="cls-5" x="2104.94" y="698.75" width="13.57" height="17.06"/></g><path class="cls-13" d="m311.01,1062.84l145.32-145.32c21.65-21.65,51-33.81,81.62-33.81h426.98c30.61,0,59.97,12.16,81.62,33.81l182.76,182.76c21.65,21.65,51,33.81,81.62,33.81h177.07c30.61,0,59.97,12.16,81.62,33.81l216.89,216.89c72.71,72.71,21.21,197.04-81.62,197.04H392.63c-63.75,0-115.42-51.68-115.42-115.42v-321.94c0-30.61,12.16-59.97,33.81-81.62Z"/><g><rect class="cls-10" x="1337.5" y="969.33" width="149.61" height="475.57" rx="74.81" ry="74.81"/><rect class="cls-10" x="1460.12" y="902.19" width="149.61" height="475.57" rx="74.81" ry="74.81"/><rect class="cls-10" x="1582.75" y="930.33" width="149.61" height="475.57" rx="74.81" ry="74.81"/><rect class="cls-10" x="1705.37" y="1008.91" width="149.61" height="475.57" rx="74.81" ry="74.81"/><rect class="cls-10" x="1827.99" y="1008.91" width="149.61" height="475.57" rx="74.81" ry="74.81"/></g><g><rect class="cls-5" x="991.87" y="921.54" width="277.57" height="371.92"/><g><rect class="cls-14" x="1016.05" y="951.55" width="23.13" height="34.12"/><rect class="cls-14" x="1055.48" y="951.55" width="23.13" height="34.12"/><rect class="cls-14" x="1094.9" y="951.55" width="23.13" height="34.12"/><rect class="cls-14" x="1134.33" y="951.55" width="23.13" height="34.12"/><rect class="cls-14" x="1173.76" y="951.55" width="23.13" height="34.12"/><rect class="cls-14" x="1213.19" y="951.55" width="23.13" height="34.12"/><rect class="cls-14" x="1016.05" y="999.32" width="23.13" height="34.12"/><rect class="cls-14" x="1055.48" y="999.32" width="23.13" height="34.12"/><rect class="cls-14" x="1094.9" y="999.32" width="23.13" height="34.12"/><rect class="cls-14" x="1016.05" y="1050.24" width="23.13" height="34.12"/><rect class="cls-14" x="1055.48" y="1050.24" width="23.13" height="34.12"/><rect class="cls-14" x="1094.9" y="1050.24" width="23.13" height="34.12"/><rect class="cls-14" x="1016.05" y="1101.16" width="23.13" height="34.12"/><rect class="cls-14" x="1055.48" y="1101.16" width="23.13" height="34.12"/><rect class="cls-14" x="1094.9" y="1101.16" width="23.13" height="34.12"/><rect class="cls-14" x="1134.33" y="999.32" width="23.13" height="34.12"/><rect class="cls-14" x="1173.76" y="999.32" width="23.13" height="34.12"/><rect class="cls-14" x="1213.19" y="999.32" width="23.13" height="34.12"/><rect class="cls-14" x="1134.33" y="1050.24" width="23.13" height="34.12"/><rect class="cls-14" x="1173.76" y="1050.24" width="23.13" height="34.12"/><rect class="cls-14" x="1213.19" y="1050.24" width="23.13" height="34.12"/><rect class="cls-14" x="1134.33" y="1101.16" width="23.13" height="34.12"/><rect class="cls-14" x="1173.76" y="1101.16" width="23.13" height="34.12"/><rect class="cls-14" x="1213.19" y="1101.16" width="23.13" height="34.12"/></g></g><g><rect class="cls-13" x="1681.44" y="1188.98" width="149.61" height="270.17" rx="74.81" ry="74.81"/><rect class="cls-13" x="1804.07" y="1160.84" width="149.61" height="270.17" rx="74.81" ry="74.81"/></g><polygon class="cls-19" points="512.3 688.18 455.86 688.18 484.08 580.42 512.3 688.18"/><polygon class="cls-19" points="580.69 686.92 498.13 686.92 539.41 529.3 580.69 686.92"/><g><circle class="cls-13" cx="583.8" cy="787.03" r="13.12"/><circle class="cls-10" cx="676.82" cy="791.73" r="13.12"/><circle class="cls-10" cx="723.31" cy="791.73" r="13.12"/><circle class="cls-13" cx="558.65" cy="828.95" r="13.12"/><circle class="cls-10" cx="651.67" cy="833.65" r="13.12"/><circle class="cls-10" cx="698.16" cy="833.65" r="13.12"/></g><g><polygon class="cls-7" points="1881.69 528.84 1881.69 139.6 1766.27 236.67 1766.27 625.77 1766.19 625.77 1766.19 1305.7 1997.3 1305.7 1997.3 625.77 1881.69 528.84"/><g class="cls-21"><g><g><polygon class="cls-14" points="1881.75 917.6 1766.19 1014.86 1881.75 1112.12 1997.3 1014.86 1881.75 917.6"/><polygon class="cls-14" points="1881.75 1112.12 1766.19 1209.38 1881.75 1306.63 1997.3 1209.38 1881.75 1112.12"/><polygon class="cls-14" points="1881.75 723.16 1766.19 820.42 1881.75 917.68 1997.3 820.42 1881.75 723.16"/><polygon class="cls-14" points="1881.75 528.66 1766.19 625.92 1881.75 723.18 1997.3 625.92 1881.75 528.66"/><polygon class="cls-14" points="1881.75 334.1 1766.19 431.36 1881.75 528.62 1997.3 431.36 1881.75 334.1"/><polygon class="cls-14" points="1881.75 139.6 1766.19 236.86 1881.75 334.12 1997.3 236.86 1881.75 139.6"/></g><g><polygon class="cls-12" points="1766.19 1014.86 1650.64 1112.12 1766.19 1209.38 1881.75 1112.12 1766.19 1014.86"/><polygon class="cls-12" points="1766.19 1209.38 1650.64 1306.63 1766.19 1403.89 1881.75 1306.63 1766.19 1209.38"/><polygon class="cls-12" points="1766.19 820.42 1650.64 917.68 1766.19 1014.94 1881.75 917.68 1766.19 820.42"/><polygon class="cls-12" points="1766.19 625.92 1650.64 723.18 1766.19 820.44 1881.75 723.18 1766.19 625.92"/><polygon class="cls-12" points="1766.19 431.36 1650.64 528.62 1766.19 625.88 1881.75 528.62 1766.19 431.36"/><polygon class="cls-12" points="1766.19 236.86 1650.64 334.12 1766.19 431.38 1881.75 334.12 1766.19 236.86"/></g><g><polygon class="cls-8" points="1997.33 1014.79 1881.78 1112.05 1997.33 1209.3 2112.89 1112.05 1997.33 1014.79"/><polygon class="cls-8" points="1997.33 1209.3 1881.78 1306.56 1997.33 1403.82 2112.89 1306.56 1997.33 1209.3"/><polygon class="cls-8" points="1997.33 820.35 1881.78 917.61 1997.33 1014.87 2112.89 917.61 1997.33 820.35"/></g></g></g></g><g><rect class="cls-19" x="2367.22" y="437.4" width="148.57" height="88.77"/><rect class="cls-9" x="2305.98" y="512.33" width="112.61" height="773.63"/><rect class="cls-19" x="2417.8" y="512.33" width="148.57" height="773.63"/><g><rect class="cls-19" x="2339.8" y="547.08" width="41.19" height="39.4"/><rect class="cls-19" x="2339.8" y="614.19" width="41.19" height="39.4"/><rect class="cls-19" x="2339.8" y="681.3" width="41.19" height="39.4"/><rect class="cls-19" x="2339.8" y="748.41" width="41.19" height="39.4"/><rect class="cls-19" x="2339.8" y="815.52" width="41.19" height="39.4"/><rect class="cls-19" x="2339.8" y="882.63" width="41.19" height="39.4"/><rect class="cls-19" x="2339.8" y="949.74" width="41.19" height="39.4"/><rect class="cls-19" x="2339.8" y="1016.84" width="41.19" height="39.4"/><rect class="cls-19" x="2339.8" y="1083.95" width="41.19" height="39.4"/><rect class="cls-19" x="2339.8" y="1151.06" width="41.19" height="39.4"/><rect class="cls-19" x="2339.8" y="1218.17" width="41.19" height="39.4"/></g><g><rect class="cls-11" x="2450.08" y="547.08" width="83.33" height="39.4"/><rect class="cls-11" x="2450.08" y="614.19" width="83.33" height="39.4"/><rect class="cls-11" x="2450.08" y="681.3" width="83.33" height="39.4"/><rect class="cls-11" x="2450.08" y="748.41" width="83.33" height="39.4"/><rect class="cls-11" x="2450.08" y="815.52" width="83.33" height="39.4"/><rect class="cls-11" x="2450.08" y="882.63" width="83.33" height="39.4"/><rect class="cls-11" x="2450.08" y="949.74" width="83.33" height="39.4"/><rect class="cls-11" x="2450.08" y="1016.84" width="83.33" height="39.4"/><rect class="cls-11" x="2450.08" y="1083.95" width="83.33" height="39.4"/><rect class="cls-11" x="2450.08" y="1151.06" width="83.33" height="39.4"/><rect class="cls-11" x="2450.08" y="1218.17" width="83.33" height="39.4"/></g></g><g><polygon class="cls-9" points="655.36 709.95 864.43 709.95 864.43 644.69 683.71 644.69 655.36 709.95"/><polygon class="cls-19" points="984.53 709.95 770.19 709.95 770.19 644.69 956.18 644.69 984.53 709.95"/><rect class="cls-9" x="629.61" y="699.78" width="158.47" height="568.78"/><rect class="cls-19" x="786.95" y="699.78" width="209.07" height="568.78"/><circle class="cls-19" cx="662.88" cy="738.14" r="16.92"/><circle class="cls-19" cx="709.22" cy="738.14" r="16.92"/><circle class="cls-19" cx="755.56" cy="738.14" r="16.92"/><circle class="cls-19" cx="662.88" cy="787.09" r="16.92"/><circle class="cls-19" cx="709.22" cy="787.09" r="16.92"/><circle class="cls-19" cx="755.56" cy="787.09" r="16.92"/><circle class="cls-19" cx="662.88" cy="836.04" r="16.92"/><circle class="cls-19" cx="709.22" cy="836.04" r="16.92"/><circle class="cls-19" cx="755.56" cy="836.04" r="16.92"/><circle class="cls-19" cx="662.88" cy="884.98" r="16.92"/><circle class="cls-19" cx="709.22" cy="884.98" r="16.92"/><circle class="cls-19" cx="755.56" cy="884.98" r="16.92"/><circle class="cls-19" cx="662.88" cy="933.93" r="16.92"/><circle class="cls-19" cx="709.22" cy="933.93" r="16.92"/><circle class="cls-19" cx="755.56" cy="933.93" r="16.92"/><circle class="cls-19" cx="662.88" cy="982.88" r="16.92"/><circle class="cls-19" cx="709.22" cy="982.88" r="16.92"/><circle class="cls-19" cx="755.56" cy="982.88" r="16.92"/><circle class="cls-19" cx="662.88" cy="1031.83" r="16.92"/><circle class="cls-19" cx="709.22" cy="1031.83" r="16.92"/><circle class="cls-19" cx="755.56" cy="1031.83" r="16.92"/><circle class="cls-19" cx="662.88" cy="1080.78" r="16.92"/><circle class="cls-19" cx="709.22" cy="1080.78" r="16.92"/><circle class="cls-19" cx="755.56" cy="1080.78" r="16.92"/><circle class="cls-19" cx="662.88" cy="1129.72" r="16.92"/><circle class="cls-19" cx="709.22" cy="1129.72" r="16.92"/><circle class="cls-19" cx="755.56" cy="1129.72" r="16.92"/><circle class="cls-19" cx="662.88" cy="1178.67" r="16.92"/><circle class="cls-19" cx="709.22" cy="1178.67" r="16.92"/><circle class="cls-19" cx="755.56" cy="1178.67" r="16.92"/><circle class="cls-19" cx="662.88" cy="1227.62" r="16.92"/><circle class="cls-19" cx="709.22" cy="1227.62" r="16.92"/><circle class="cls-19" cx="755.56" cy="1227.62" r="16.92"/><g><circle class="cls-11" cx="819.74" cy="738.14" r="16.92"/><circle class="cls-11" cx="866.08" cy="738.14" r="16.92"/><circle class="cls-11" cx="912.42" cy="738.14" r="16.92"/><circle class="cls-11" cx="819.74" cy="787.09" r="16.92"/><circle class="cls-11" cx="866.08" cy="787.09" r="16.92"/><circle class="cls-11" cx="912.42" cy="787.09" r="16.92"/><circle class="cls-11" cx="819.74" cy="836.04" r="16.92"/><circle class="cls-11" cx="866.08" cy="836.04" r="16.92"/><circle class="cls-11" cx="912.42" cy="836.04" r="16.92"/><circle class="cls-11" cx="819.74" cy="884.98" r="16.92"/><circle class="cls-11" cx="866.08" cy="884.98" r="16.92"/><circle class="cls-11" cx="912.42" cy="884.98" r="16.92"/><circle class="cls-11" cx="819.74" cy="933.93" r="16.92"/><circle class="cls-11" cx="866.08" cy="933.93" r="16.92"/><circle class="cls-11" cx="912.42" cy="933.93" r="16.92"/><circle class="cls-11" cx="819.74" cy="982.88" r="16.92"/><circle class="cls-11" cx="866.08" cy="982.88" r="16.92"/><circle class="cls-11" cx="912.42" cy="982.88" r="16.92"/><circle class="cls-11" cx="819.74" cy="1031.83" r="16.92"/><circle class="cls-11" cx="866.08" cy="1031.83" r="16.92"/><circle class="cls-11" cx="912.42" cy="1031.83" r="16.92"/><circle class="cls-11" cx="819.74" cy="1080.78" r="16.92"/><circle class="cls-11" cx="866.08" cy="1080.78" r="16.92"/><circle class="cls-11" cx="912.42" cy="1080.78" r="16.92"/><circle class="cls-11" cx="819.74" cy="1129.72" r="16.92"/><circle class="cls-11" cx="866.08" cy="1129.72" r="16.92"/><circle class="cls-11" cx="912.42" cy="1129.72" r="16.92"/><circle class="cls-11" cx="819.74" cy="1178.67" r="16.92"/><circle class="cls-11" cx="866.08" cy="1178.67" r="16.92"/><circle class="cls-11" cx="912.42" cy="1178.67" r="16.92"/><circle class="cls-11" cx="819.74" cy="1227.62" r="16.92"/><circle class="cls-11" cx="866.08" cy="1227.62" r="16.92"/><circle class="cls-11" cx="912.42" cy="1227.62" r="16.92"/><circle class="cls-11" cx="961.49" cy="738.14" r="16.92"/><circle class="cls-11" cx="961.49" cy="787.09" r="16.92"/><circle class="cls-11" cx="961.49" cy="836.04" r="16.92"/><circle class="cls-11" cx="961.49" cy="884.98" r="16.92"/><circle class="cls-11" cx="961.49" cy="933.93" r="16.92"/><circle class="cls-11" cx="961.49" cy="982.88" r="16.92"/><circle class="cls-11" cx="961.49" cy="1031.83" r="16.92"/><circle class="cls-11" cx="961.49" cy="1080.78" r="16.92"/><circle class="cls-11" cx="961.49" cy="1129.72" r="16.92"/><circle class="cls-11" cx="961.49" cy="1178.67" r="16.92"/><circle class="cls-11" cx="961.49" cy="1227.62" r="16.92"/></g></g><g><rect class="cls-10" x="1997.01" y="790.27" width="182.92" height="498.44"/><rect class="cls-17" x="2178.62" y="790.27" width="241.32" height="498.44"/><g><rect class="cls-19" x="2051.93" y="812.66" width="66.9" height="25.38"/><rect class="cls-19" x="2051.93" y="855.9" width="66.9" height="25.38"/><rect class="cls-19" x="2051.93" y="899.14" width="66.9" height="25.38"/><rect class="cls-19" x="2051.93" y="942.37" width="66.9" height="25.38"/><rect class="cls-19" x="2051.93" y="985.61" width="66.9" height="25.38"/><rect class="cls-19" x="2051.93" y="1028.85" width="66.9" height="25.38"/><rect class="cls-19" x="2051.93" y="1072.09" width="66.9" height="25.38"/><rect class="cls-19" x="2051.93" y="1115.32" width="66.9" height="25.38"/><rect class="cls-19" x="2051.93" y="1158.56" width="66.9" height="25.38"/><rect class="cls-19" x="2051.93" y="1201.8" width="66.9" height="25.38"/><rect class="cls-19" x="2051.93" y="1245.04" width="66.9" height="25.38"/></g><g><rect class="cls-11" x="2231.07" y="812.66" width="135.36" height="25.38"/><rect class="cls-11" x="2231.07" y="855.9" width="135.36" height="25.38"/><rect class="cls-11" x="2231.07" y="899.14" width="135.36" height="25.38"/><rect class="cls-11" x="2231.07" y="942.37" width="135.36" height="25.38"/><rect class="cls-11" x="2231.07" y="985.61" width="135.36" height="25.38"/><rect class="cls-11" x="2231.07" y="1028.85" width="135.36" height="25.38"/><rect class="cls-11" x="2231.07" y="1072.09" width="135.36" height="25.38"/><rect class="cls-11" x="2231.07" y="1115.32" width="135.36" height="25.38"/><rect class="cls-11" x="2231.07" y="1158.56" width="135.36" height="25.38"/><rect class="cls-11" x="2231.07" y="1201.8" width="135.36" height="25.38"/><rect class="cls-11" x="2231.07" y="1245.04" width="135.36" height="25.38"/></g></g><g><rect class="cls-6" x="2563.39" y="568.01" width="105.78" height="426.34"/><rect class="cls-10" x="2669.17" y="568.01" width="177.26" height="426.34"/><g><rect class="cls-10" x="2588.42" y="605.29" width="21.41" height="39.11"/><rect class="cls-10" x="2622.73" y="605.29" width="21.41" height="39.11"/><rect class="cls-10" x="2588.42" y="660.6" width="21.41" height="39.11"/><rect class="cls-10" x="2622.73" y="660.6" width="21.41" height="39.11"/><rect class="cls-10" x="2588.42" y="715.9" width="21.41" height="39.11"/><rect class="cls-10" x="2622.73" y="715.9" width="21.41" height="39.11"/><rect class="cls-10" x="2588.42" y="771.2" width="21.41" height="39.11"/><rect class="cls-10" x="2622.73" y="771.2" width="21.41" height="39.11"/><rect class="cls-10" x="2588.42" y="826.5" width="21.41" height="39.11"/><rect class="cls-10" x="2622.73" y="826.5" width="21.41" height="39.11"/><rect class="cls-10" x="2588.42" y="881.8" width="21.41" height="39.11"/><rect class="cls-10" x="2622.73" y="881.8" width="21.41" height="39.11"/><rect class="cls-10" x="2588.42" y="937.1" width="21.41" height="39.11"/><rect class="cls-10" x="2622.73" y="937.1" width="21.41" height="39.11"/></g><g><rect class="cls-18" x="2696.84" y="605.29" width="21.41" height="39.11"/><rect class="cls-18" x="2731.15" y="605.29" width="21.41" height="39.11"/><rect class="cls-18" x="2696.84" y="660.6" width="21.41" height="39.11"/><rect class="cls-18" x="2731.15" y="660.6" width="21.41" height="39.11"/><rect class="cls-18" x="2696.84" y="715.9" width="21.41" height="39.11"/><rect class="cls-18" x="2731.15" y="715.9" width="21.41" height="39.11"/><rect class="cls-18" x="2696.84" y="771.2" width="21.41" height="39.11"/><rect class="cls-18" x="2731.15" y="771.2" width="21.41" height="39.11"/><rect class="cls-18" x="2696.84" y="826.5" width="21.41" height="39.11"/><rect class="cls-18" x="2731.15" y="826.5" width="21.41" height="39.11"/><rect class="cls-18" x="2696.84" y="881.8" width="21.41" height="39.11"/><rect class="cls-18" x="2731.15" y="881.8" width="21.41" height="39.11"/><rect class="cls-18" x="2696.84" y="937.1" width="21.41" height="39.11"/><rect class="cls-18" x="2731.15" y="937.1" width="21.41" height="39.11"/></g><g><rect class="cls-18" x="2766.33" y="605.29" width="21.41" height="39.11"/><rect class="cls-18" x="2800.65" y="605.29" width="21.41" height="39.11"/><rect class="cls-18" x="2766.33" y="660.6" width="21.41" height="39.11"/><rect class="cls-18" x="2800.65" y="660.6" width="21.41" height="39.11"/><rect class="cls-18" x="2766.33" y="715.9" width="21.41" height="39.11"/><rect class="cls-18" x="2800.65" y="715.9" width="21.41" height="39.11"/><rect class="cls-18" x="2766.33" y="771.2" width="21.41" height="39.11"/><rect class="cls-18" x="2800.65" y="771.2" width="21.41" height="39.11"/><rect class="cls-18" x="2766.33" y="826.5" width="21.41" height="39.11"/><rect class="cls-18" x="2800.65" y="826.5" width="21.41" height="39.11"/><rect class="cls-18" x="2766.33" y="881.8" width="21.41" height="39.11"/><rect class="cls-18" x="2800.65" y="881.8" width="21.41" height="39.11"/><rect class="cls-18" x="2766.33" y="937.1" width="21.41" height="39.11"/><rect class="cls-18" x="2800.65" y="937.1" width="21.41" height="39.11"/></g></g><g><rect class="cls-8" x="2425.35" y="922.7" width="448.09" height="338.31"/><rect class="cls-14" x="2425.35" y="922.7" width="448.09" height="88.89"/><polygon class="cls-5" points="2524.18 1262.16 2326.52 1262.16 2326.52 1008.96 2425.35 922.7 2524.18 1008.96 2524.18 1262.16"/><g><rect class="cls-8" x="2340.45" y="1028.69" width="12.62" height="11.57"/><rect class="cls-8" x="2369.81" y="1028.69" width="12.62" height="11.57"/><rect class="cls-8" x="2399.17" y="1028.69" width="12.62" height="11.57"/><rect class="cls-8" x="2428.53" y="1028.69" width="12.62" height="11.57"/><rect class="cls-8" x="2457.89" y="1028.69" width="12.62" height="11.57"/><rect class="cls-8" x="2487.25" y="1028.69" width="12.62" height="11.57"/><rect class="cls-8" x="2340.45" y="1054.29" width="12.62" height="11.57"/><rect class="cls-8" x="2369.81" y="1054.29" width="12.62" height="11.57"/><rect class="cls-8" x="2399.17" y="1054.29" width="12.62" height="11.57"/><rect class="cls-8" x="2428.53" y="1054.29" width="12.62" height="11.57"/><rect class="cls-8" x="2457.89" y="1054.29" width="12.62" height="11.57"/><rect class="cls-8" x="2487.25" y="1054.29" width="12.62" height="11.57"/><rect class="cls-8" x="2340.45" y="1079.88" width="12.62" height="11.57"/><rect class="cls-8" x="2369.81" y="1079.88" width="12.62" height="11.57"/><rect class="cls-8" x="2399.17" y="1079.88" width="12.62" height="11.57"/><rect class="cls-8" x="2428.53" y="1079.88" width="12.62" height="11.57"/><rect class="cls-8" x="2457.89" y="1079.88" width="12.62" height="11.57"/><rect class="cls-8" x="2487.25" y="1079.88" width="12.62" height="11.57"/></g></g><g><rect class="cls-13" x="2313.09" y="1177.83" width="149.61" height="270.17" rx="74.81" ry="74.81"/><rect class="cls-13" x="2435.71" y="1149.69" width="149.61" height="270.17" rx="74.81" ry="74.81"/><rect class="cls-13" x="2558.34" y="1177.83" width="149.61" height="270.17" rx="74.81" ry="74.81"/><rect class="cls-13" x="2680.96" y="1149.69" width="149.61" height="270.17" rx="74.81" ry="74.81"/><rect class="cls-13" x="2803.58" y="1127.07" width="149.61" height="270.17" rx="74.81" ry="74.81"/></g><g><rect class="cls-11" x="2129.95" y="1196.38" width="149.61" height="270.17" rx="74.81" ry="74.81"/><rect class="cls-11" x="2252.57" y="1168.24" width="149.61" height="270.17" rx="74.81" ry="74.81"/></g><path class="cls-15" d="m-298.87,1144.15l145.32-145.32c21.65-21.65,51-33.81,81.62-33.81h426.98c30.61,0,59.97,12.16,81.62,33.81l182.76,182.76c21.65,21.65,51,33.81,81.62,33.81h177.07c30.61,0,59.97,12.16,81.62,33.81l216.89,216.89c72.71,72.71,21.21,197.04-81.62,197.04H-217.25c-63.75,0-115.42-51.68-115.42-115.42v-321.94c0-30.61,12.16-59.97,33.81-81.62Z"/><g><rect class="cls-13" x="-41.59" y="1141.42" width="149.61" height="258.62" rx="74.81" ry="74.81"/><rect class="cls-13" x="81.03" y="1113.28" width="149.61" height="258.62" rx="74.81" ry="74.81"/><rect class="cls-13" x="203.66" y="1141.42" width="149.61" height="258.62" rx="74.81" ry="74.81"/><rect class="cls-13" x="326.28" y="1191.7" width="149.61" height="258.62" rx="74.81" ry="74.81"/></g><g><polygon class="cls-15" points="281.77 886.74 134.87 886.74 208.32 606.24 281.77 886.74"/><polygon class="cls-15" points="353.84 908.05 233.2 908.05 293.52 677.7 353.84 908.05"/><polygon class="cls-15" points="33.37 975.95 -23.07 975.95 5.15 868.19 33.37 975.95"/><rect class="cls-15" x="199.93" y="855.72" width="16.78" height="133.51"/><rect class="cls-15" x="285.13" y="855.72" width="16.78" height="133.51"/></g><g><rect class="cls-19" x="711.1" y="1040.95" width="149.61" height="212" rx="74.81" ry="74.81"/><rect class="cls-19" x="777.52" y="1159.6" width="16.78" height="161.41"/></g><g><g><path class="cls-3" d="m1385.3,1300.25c-.89,0-1.79-.17-2.66-.54-3.54-1.49-5.22-5.61-3.75-9.2l127.78-312.6c1.47-3.59,5.52-5.29,9.06-3.8,3.54,1.49,5.22,5.61,3.75,9.2l-127.78,312.6c-1.11,2.71-3.69,4.34-6.41,4.34Z"/><path class="cls-3" d="m1653.23,1300.25c-2.71,0-5.29-1.62-6.4-4.32l-131.36-318.33c-1.48-3.59.18-7.71,3.72-9.21,3.53-1.5,7.6.19,9.08,3.77l131.36,318.33c1.48,3.59-.18,7.71-3.72,9.21-.88.37-1.78.55-2.68.55Z"/><path class="cls-2" d="m1735.72,963.84v-.9c-.23-26.73-5.13-52.71-14.32-76.98-.06-.16-.12-.32-.18-.48-.61-1.61-1.25-3.22-1.9-4.82-.15-.37-.31-.75-.47-1.12-10.28-24.81-25.11-47.68-44.07-67.55,0,0,0,0,0,0,0-.02-.02-.03-.04-.05-.83-.87-1.67-1.73-2.52-2.59-.36-.36-.72-.73-1.08-1.09-.15-.14-.28-.29-.43-.43,0,0,0,0,0,0-18.75-18.67-40.24-33.47-63.56-44.01-.66-.3-1.32-.59-1.99-.88-1.57-.7-3.14-1.36-4.72-2.01-.37-.16-.74-.31-1.12-.46-24.48-9.91-50.77-15.23-77.86-15.55h-.15c-.8,0-1.6-.01-2.4-.01s-1.61,0-2.4.01h-.15c-27.64.32-54.45,5.86-79.35,16.17t0,0c-.05.01-.09.04-.14.06-1.55.64-3.1,1.3-4.64,1.99,0,0-.01,0-.02,0-.01,0-.03.01-.04.02-24.07,10.66-46.23,25.84-65.48,45.11-.26.26-.51.51-.77.78,0,0,0,0,0,0-.1.1-.2.2-.31.3-.85.86-1.69,1.73-2.52,2.59-.17.18-.33.35-.49.53h0c-18.44,19.46-32.95,41.75-43.14,65.92h0c-.13.31-.26.61-.38.91-.66,1.59-1.31,3.2-1.93,4.81-.04.09-.07.18-.1.26-9.65,24.91-14.78,51.66-14.94,79.2,0,.09,0,.19,0,.28,0,.37,0,.74,0,1.11,0,1.36.01,2.72.04,4.08,0,.17,0,.34.01.5.53,26.94,5.82,53.09,15.45,77.45.04.09.07.18.11.27.6,1.51,1.21,3.02,1.85,4.51.21.5.42.94.63,1.44,0,.01,0,.03,0,.04,10.5,24.34,25.42,46.76,44.34,66.22.28.29.55.57.84.85t0,0c.07.08.15.16.23.24.69.7,1.37,1.39,2.07,2.07,0,0,0,0,0,0,.16.16.32.32.48.48,20,19.65,43.08,34.95,68.13,45.41,24.82,10.39,51.58,16.02,79.16,16.46.31,0,.61.01.92.01.85,0,1.7.01,2.56.01s1.71,0,2.56-.01c.47,0,.93-.01,1.39-.02h0c27.5-.5,54.15-6.16,78.89-16.53,24.93-10.46,47.9-25.7,67.83-45.26h0s.05-.05.07-.07c.85-.84,1.71-1.7,2.56-2.56.21-.21.42-.42.62-.64.15-.15.3-.3.45-.46,18.78-19.33,33.63-41.56,44.12-65.71t0-.01h0c.09-.21.18-.41.27-.61.69-1.59,1.35-3.18,1.99-4.78.2-.48.39-.96.58-1.44h0c9.55-24.19,14.82-50.12,15.41-76.85,0-.34.01-.68.02-1.03.02-1.36.04-2.71.04-4.08,0-.37,0-.74,0-1.11Zm-24.81,80.81c-.64,1.61-1.3,3.19-1.99,4.78-10.02,23.24-24.27,44.64-42.33,63.23-.36.37-.72.73-1.07,1.1-.85.86-1.7,1.71-2.56,2.55-19.05,18.7-41.02,33.27-64.86,43.25-24.01,10.08-49.91,15.49-76.62,15.82-.85,0-1.7.01-2.56.01s-1.71,0-2.56-.01c-26.65-.33-52.48-5.72-76.44-15.74-23.91-9.99-45.95-24.59-65.05-43.33-.86-.84-1.72-1.69-2.56-2.55-.36-.36-.72-.73-1.07-1.1-18.39-18.93-32.83-40.79-42.89-64.53-.67-1.59-1.33-3.18-1.96-4.79-9.24-23.37-14.29-48.45-14.76-74.31-.03-1.36-.04-2.71-.04-4.08,0-.37,0-.74,0-1.11.13-26.45,5.04-52.13,14.32-76.05.61-1.62,1.26-3.22,1.93-4.8,9.81-23.59,23.94-45.33,41.95-64.24.82-.87,1.66-1.74,2.51-2.6.36-.36.72-.73,1.08-1.09,18.35-18.36,39.49-32.85,62.45-43.03,1.56-.7,3.12-1.37,4.7-2.02,23.78-9.86,49.41-15.16,75.82-15.49.85,0,1.7-.01,2.56-.01s1.71,0,2.56.01c26.23.32,51.68,5.55,75.32,15.28,1.58.64,3.15,1.31,4.72,2.01,23.14,10.19,44.44,24.75,62.93,43.24.36.36.72.73,1.08,1.09.85.86,1.69,1.73,2.51,2.6,18.35,19.26,32.67,41.46,42.5,65.55.66,1.59,1.28,3.2,1.9,4.82h0c8.95,23.54,13.68,48.76,13.8,74.72,0,.37,0,.74,0,1.11,0,1.36-.01,2.72-.04,4.08-.48,26.34-5.72,51.88-15.29,75.62Z"/><path class="cls-2" d="m1714.18,963.84c-.12-24.35-4.56-48.01-12.92-70.1-.61-1.62-1.24-3.22-1.9-4.82-9.23-22.6-22.66-43.44-39.86-61.53-.83-.87-1.66-1.74-2.51-2.6-.36-.36-.72-.73-1.08-1.09-17.35-17.35-37.34-31.01-59.05-40.6-1.56-.7-3.12-1.36-4.71-2.01-22.2-9.11-46.09-14.03-70.7-14.35-.85,0-1.7-.01-2.56-.01s-1.7,0-2.56.01c-24.78.32-48.83,5.31-71.16,14.54-1.58.64-3.15,1.32-4.7,2.02-21.53,9.58-41.36,23.17-58.59,40.4-.37.36-.72.73-1.08,1.09-.85.86-1.69,1.73-2.51,2.6-16.89,17.75-30.13,38.17-39.35,60.29-.66,1.59-1.31,3.19-1.93,4.81-8.67,22.44-13.27,46.54-13.4,71.35,0,.37,0,.74,0,1.11,0,1.36.01,2.72.04,4.08.47,24.24,5.22,47.77,13.87,69.69.64,1.61,1.28,3.2,1.96,4.79,9.46,22.25,23.01,42.75,40.25,60.51.36.37.72.73,1.07,1.1.85.86,1.7,1.71,2.56,2.55,17.96,17.6,38.68,31.29,61.15,40.68,22.51,9.41,46.79,14.49,71.82,14.81.85,0,1.7.01,2.56.01s1.7,0,2.56-.01c25.08-.33,49.41-5.42,71.97-14.87,22.41-9.39,43.08-23.07,61-40.62.86-.84,1.72-1.69,2.56-2.55.36-.36.72-.73,1.07-1.1,16.92-17.43,30.29-37.5,39.72-59.28.69-1.59,1.35-3.17,1.99-4.78,8.96-22.27,13.89-46.23,14.37-70.93.03-1.36.04-2.71.04-4.08,0-.37,0-.74,0-1.11Zm-21.15,73.27c-.64,1.61-1.31,3.19-2,4.77h0c-9.07,20.9-21.89,40.15-38.13,56.89-.36.37-.72.73-1.07,1.1-.85.86-1.7,1.71-2.56,2.55-17.24,16.86-37.11,30-58.66,39.02-21.67,9.07-45.04,13.97-69.15,14.29-.85.01-1.7.02-2.56.02s-1.71,0-2.56-.02c-24.05-.32-47.39-5.2-69.02-14.24-21.59-9.02-41.51-22.18-58.78-39.07-.86-.84-1.72-1.69-2.56-2.55-.36-.36-.72-.73-1.07-1.1-16.54-17.06-29.54-36.72-38.64-58.07-.68-1.59-1.34-3.18-1.97-4.79-8.29-21.04-12.86-43.62-13.33-66.89-.03-1.36-.04-2.71-.04-4.08,0-.37,0-.74,0-1.11.13-23.81,4.53-46.96,12.85-68.5.62-1.62,1.26-3.22,1.93-4.8,8.86-21.24,21.57-40.84,37.76-57.9.82-.87,1.66-1.74,2.51-2.6.36-.36.72-.73,1.08-1.09,16.55-16.53,35.58-29.59,56.25-38.79,1.56-.7,3.12-1.38,4.7-2.02,21.44-8.85,44.53-13.65,68.34-13.96.85-.01,1.7-.02,2.56-.02s1.71,0,2.56.02c23.64.31,46.57,5.03,67.89,13.77,1.58.64,3.15,1.31,4.71,2.01,20.84,9.21,40.03,22.34,56.69,38.99.36.36.72.73,1.08,1.09.85.86,1.69,1.73,2.51,2.6,16.5,17.38,29.38,37.39,38.26,59.09.66,1.59,1.28,3.2,1.89,4.82,8.02,21.21,12.26,43.92,12.39,67.29,0,.37,0,.74,0,1.11,0,1.36-.01,2.72-.04,4.08-.48,23.71-5.21,46.7-13.81,68.08Z"/><path class="cls-2" d="m1521.46,1200.82v-472.2c-.8-.27-1.66-.41-2.56-.41s-1.75.14-2.56.41v472.04l5.11.16Z"/><path class="cls-2" d="m1611.05,748.53l-5.91,14.4-.35.86-3.3,8.04-4.64,11.29-2.81,6.85-61.94,151-5.9,14.38-2.6,6.34-.88,2.16-.49,1.19-.33.79-.25.61-.21.51-.39.96-.21.52-.25.6-.33.8-.14.34c-.11.27-.26.52-.45.73-.36.42-.85.7-1.37.81-.18.04-.35.07-.53.07-.15,0-.31-.01-.47-.05-.18-.03-.34-.08-.51-.15-.16-.07-.31-.15-.45-.25-.28-.19-.53-.44-.72-.73-.28-.46-.44-1.01-.4-1.56.01-.28.08-.57.19-.85l.14-.34.33-.79.25-.61.21-.52.39-.95.22-.53.25-.6.32-.8.49-1.18.88-2.15,2.56-6.25,5.91-14.43,61.97-151.08,2.81-6.85,4.63-11.29,3.42-8.34.23-.56,5.77-14.07c1.18.01,2.37.29,3.5.85.48.24.93.52,1.34.83Z"/><path class="cls-2" d="m1751.35,969.03h-465.13l.1-5.19h464.95c.55,1.65.61,3.45.08,5.19Z"/><path class="cls-2" d="m1304.71,1057.91l14.83-6.14.46-.19,8.34-3.45,11.16-4.62,6.77-2.8,149.28-61.8,12.6-5.22,7.49-3.1.72-.3,1.18-.49.77-.32.6-.24.51-.21.94-.39.5-.21.61-.25.8-.33,1.18-.49,2.18-.9,6.32-2.62,14.02-5.81,148.53-61.49,6.77-2.8,11.16-4.62h0s8.6-3.56,8.6-3.56l.2-.08,14.41-5.96c-.06-1.76-.67-3.48-1.74-4.88l-14.56,6.03-.41.17-8.39,3.47-11.16,4.62-6.76,2.8-148.5,61.48-14.43,5.97-6.04,2.5-2.16.89-1.18.49-.77.32-.59.24h0l-.5.21-.95.39-.5.21-.61.25-.8.33-1.18.49-2.18.9-6.31,2.62-12.33,5.11-149.25,61.78-6.76,2.8-11.15,4.62-8.8,3.64-.12.05-14.08,5.82,1.32,5.05Z"/><path class="cls-2" d="m1353.12,1131.04l11.16-11.33.23-.24,6.71-6.81,8.52-8.65,5.16-5.24,113.64-115.35,9.59-9.74,4.59-4.66,1.66-1.69.89-.9.6-.61.46-.47.39-.39.72-.73.39-.39.46-.47.6-.61.88-.9,1.67-1.7,4.76-4.83,10.88-11.05,113.64-115.35,5.16-5.24,8.52-8.65,6.56-6.66.15-.15,11.26-11.43s0,0,0,0l3.5,3.77-11.17,11.34-.02.02-6.69,6.79-8.52,8.65-5.16,5.24-113.62,115.32-11.05,11.22-4.59,4.66-1.66,1.69-.89.9-.6.61-.46.47-.39.4-.72.73-.39.39-.46.47-.6.61-.88.9-.71.72-.96.98-14.18,14.4-113.62,115.32-5.16,5.24-8.52,8.65-6.72,6.82-.12.12-11.43,11.6-3.47-3.81Z"/><path class="cls-2" d="m1522.36,973.61c-.12.08-.26.16-.4.21-.16.07-.33.12-.5.15-.16.04-.33.05-.49.05-1,0-1.95-.6-2.36-1.59l-.3-.73-.29-.7-.49-1.19-.32-.78-.26-.61-.21-.51-.39-.96-.21-.52-.25-.61-.34-.81-.49-1.18-.92-2.22-2.62-6.34-5.63-13.62-62.59-151.5-2.82-6.85-4.66-11.28-3.68-8.89v-.02s-6.17-14.91-6.17-14.91c1.31-1.17,2.96-1.89,4.69-2.06l6.19,14.98.02.05,3.65,8.84,4.66,11.28,2.83,6.84,62.53,151.34,5.81,14.07,2.55,6.16.89,2.16.49,1.19.32.78.25.61.21.5.4.97.21.51.25.61.34.81.49,1.18.58,1.4c.1.24.16.5.18.76.09.96-.34,1.9-1.15,2.42Z"/><path class="cls-2" d="m1684.53,1130.88c-.03.08-.07.16-.1.24-.75,1.58-1.93,2.81-3.31,3.63l-11.45-11.63-.02-.02-6.69-6.79-8.52-8.65-5.16-5.24-112.98-114.67-14.83-15.05-1.77-1.8-.78-.79-1.06-1.07-.39-.39-.72-.73-153.67-155.97-11.52-11.69c1-1.52,2.44-2.62,4.05-3.22l160.75,163.15,1.66,1.69.89.9,165.63,168.11Z"/><path class="cls-2" d="m1734.11,1054.44c-.11.87-.36,1.74-.77,2.58-.38.79-.87,1.5-1.44,2.11l-14.22-6-.28-.11-8.5-3.59-11.13-4.7-6.75-2.85h0s-147.67-62.32-147.67-62.32l-13.53-5.71-6.32-2.67-2.04-.86-1.18-.5h0s-.77-.33-.77-.33l-.61-.25-.5-.21-.93-.39-.5-.21-.61-.25-.79-.33-1.16-.5-2.2-.93-6.1-2.57-12.88-5.44-149.44-63.06-6.75-2.85-11.13-4.7-8.67-3.65-.11-.04-14.47-6.11c.04-1.13.31-2.25.83-3.33.27-.56.58-1.07.95-1.54l14.62,6.17.31.13,8.46,3.57,11.13,4.69,6.75,2.85,149.31,63,12.97,5.48,6.16,2.6,2.2.93,1.18.5.78.33.61.25h0l.5.21.93.39.5.21h0s.61.26.61.26l.79.33,1.16.5,2.2.93,6.1,2.57,13.78,5.82,147.54,62.26,6.75,2.85,11.13,4.7,8.23,3.47.55.23,14.43,6.09Z"/><ellipse class="cls-2" cx="1519.63" cy="965.7" rx="27.38" ry="27.79"/><path class="cls-2" d="m1527.3,736.74c0,3.8-2.45,7.02-5.84,8.11-.05.02-.1.04-.15.05-.76.23-1.57.36-2.4.36s-1.64-.13-2.4-.36c-.05-.01-.1-.03-.15-.05-3.39-1.09-5.84-4.31-5.84-8.11s2.45-7.02,5.84-8.11c.8-.27,1.66-.41,2.56-.41s1.75.14,2.56.41c3.39,1.09,5.84,4.31,5.84,8.11Z"/><path class="cls-2" d="m1613.6,759.08c-1.28,2.67-3.76,4.36-6.46,4.72-.77.1-1.56.1-2.34-.02-.82-.13-1.64-.37-2.42-.76-.82-.4-1.55-.92-2.17-1.54-.33-.31-.63-.65-.89-1.02-1.82-2.47-2.25-5.86-.83-8.82,1.48-3.08,4.55-4.85,7.72-4.79,1.18.01,2.37.29,3.5.85.48.24.93.52,1.34.83,3.18,2.39,4.33,6.82,2.54,10.56Z"/><path class="cls-2" d="m1685.88,808c-2.03,4.23-7.05,6-11.22,3.94-4.17-2.06-5.91-7.16-3.88-11.39,2.03-4.23,7.05-6,11.22-3.94,4.17,2.06,5.91,7.16,3.88,11.39Z"/><path class="cls-2" d="m1735.63,879.52c.06,1.36-.2,2.75-.83,4.05-2.03,4.24-7.05,6-11.22,3.94-.83-.41-1.56-.93-2.18-1.55-.13-.13-.26-.26-.38-.4-1.18-1.32-1.91-2.98-2.11-4.73-.05-.42-.07-.86-.06-1.29.04-1.15.31-2.32.84-3.42,2.03-4.23,7.05-5.99,11.22-3.94,1.2.59,2.21,1.44,2.97,2.45,1.07,1.4,1.69,3.12,1.74,4.88Z"/><path class="cls-2" d="m1751.35,969.03c-.12.43-.28.84-.48,1.26-2.02,4.23-7.04,5.99-11.22,3.93-1.84-.9-3.2-2.41-3.98-4.16-.15-.33-.28-.67-.38-1.03-.5-1.65-.5-3.47.08-5.19.09-.3.21-.6.35-.9.01-.04.04-.07.05-.11,2.03-4.23,7.05-5.99,11.22-3.93,2.11,1.04,3.59,2.85,4.28,4.94.55,1.65.61,3.45.08,5.19Z"/><path class="cls-2" d="m1734.11,1054.44c-.11.87-.36,1.74-.77,2.58-.38.79-.87,1.5-1.44,2.11-2.44,2.65-6.39,3.5-9.78,1.83-2.84-1.4-4.55-4.22-4.71-7.2h0v-.02c-.01-.24-.02-.48,0-.72.04-1.16.31-2.33.84-3.45.25-.53.55-1.01.88-1.45.34-.45.72-.86,1.12-1.22h0c2.46-2.21,6.08-2.82,9.21-1.27,3.34,1.65,5.12,5.26,4.64,8.81Z"/><path class="cls-2" d="m1684.53,1130.88c-.03.08-.07.16-.1.24-.75,1.58-1.93,2.81-3.31,3.63-2.34,1.39-5.29,1.6-7.91.31-4.17-2.06-5.91-7.16-3.88-11.39.08-.16.16-.32.25-.47h0s.02-.07.05-.1c.77-1.38,1.9-2.45,3.2-3.17.2-.12.4-.21.61-.3,2.19-1.01,4.78-1.04,7.11.1,4.09,2.02,5.84,6.97,3.98,11.15Z"/><path class="cls-2" d="m1526.7,1196.36c-2.03,4.23-7.05,6-11.22,3.94-4.17-2.06-5.91-7.16-3.88-11.39,2.03-4.23,7.05-6,11.22-3.94,4.17,2.06,5.91,7.16,3.88,11.39Z"/><path class="cls-2" d="m1368.26,1131.15c-2.03,4.23-7.05,6-11.22,3.94-4.17-2.06-5.91-7.16-3.88-11.39,2.03-4.23,7.05-6,11.22-3.94,4.17,2.06,5.91,7.16,3.88,11.39Z"/><path class="cls-2" d="m1319.32,1057.02c-2.03,4.23-7.05,6-11.22,3.94-4.17-2.06-5.91-7.16-3.88-11.39,2.03-4.23,7.05-6,11.22-3.94,4.17,2.06,5.91,7.16,3.88,11.39Z"/><path class="cls-2" d="m1301.8,970.33c-2.03,4.23-7.05,6-11.22,3.94-4.17-2.06-5.91-7.16-3.88-11.39,2.03-4.23,7.05-6,11.22-3.94,4.17,2.06,5.91,7.16,3.88,11.39Z"/><path class="cls-2" d="m1319.44,878.38h0c0,.36-.02.7-.07,1.04-.11.91-.37,1.82-.78,2.69-.36.76-.82,1.44-1.35,2.03-.07.07-.14.15-.21.21-2.45,2.54-6.32,3.33-9.66,1.69-3.11-1.53-4.87-4.76-4.71-8.06.04-1.13.31-2.25.83-3.33.27-.56.58-1.07.95-1.54,2.39-3.09,6.65-4.18,10.27-2.39,2.99,1.47,4.72,4.5,4.72,7.65Z"/><path class="cls-2" d="m1366.38,807.96c-.09.26-.2.52-.32.78-.05.1-.1.2-.15.3,0,0,0,0,0,0-.66,1.26-1.59,2.29-2.69,3.03-.2.15-.41.27-.62.39h0c-2.31,1.3-5.18,1.47-7.74.21-4.17-2.06-5.91-7.16-3.88-11.39.18-.37.37-.72.6-1.04,1-1.52,2.44-2.62,4.05-3.22,2.07-.78,4.43-.73,6.57.33,3.92,1.93,5.69,6.55,4.21,10.61Z"/><path class="cls-2" d="m1439.06,758.35c-.51,1.07-1.22,1.99-2.06,2.72t0,0s-.07.07-.12.11c-1.32,1.12-2.96,1.79-4.66,1.93,0,0-.01,0-.02,0-.02,0-.04,0-.05,0-1.44.12-2.91-.15-4.3-.83-4.17-2.06-5.91-7.16-3.88-11.39.5-1.05,1.2-1.96,2.02-2.69,1.31-1.17,2.96-1.89,4.69-2.06,1.5-.16,3.06.09,4.51.81,4.18,2.06,5.91,7.16,3.88,11.39Z"/><rect class="cls-2" x="1306.46" y="1293.21" width="413.93" height="11.11"/><path class="cls-3" d="m1518.71,1180.94c-.59,0-1.16-.25-1.57-.68l-15.95-17-14.93,12.76c-.53.45-1.23.62-1.9.46-.67-.16-1.22-.63-1.49-1.28l-6.8-16.11-19.54,12.69c-.61.39-1.37.46-2.03.17-.66-.29-1.14-.89-1.27-1.61l-3.68-19.44-14.58,11.1c-.55.42-1.27.55-1.94.34-.66-.21-1.19-.72-1.41-1.39l-7.15-20.96-20.61,5.63c-.65.18-1.35.04-1.88-.38-.54-.42-.85-1.06-.85-1.75v-18.57l-20.06,3.13c-.67.1-1.35-.12-1.84-.6-.49-.48-.73-1.17-.64-1.85l2.31-18.75-22.79-.8c-.63-.02-1.23-.33-1.62-.83-.4-.5-.55-1.16-.43-1.79l3.88-20.49-18.42-1.56c-.65-.05-1.25-.41-1.62-.96-.37-.55-.47-1.24-.28-1.88l5.52-18.41-19.79-9.15c-1.01-.46-1.51-1.63-1.16-2.69l7.77-23.91-18.56-4.71c-.68-.17-1.23-.66-1.49-1.32-.26-.66-.19-1.4.19-2l12.65-20.07-16.24-9.42c-.59-.34-.98-.94-1.07-1.62s.14-1.36.62-1.85l15.02-15.25-15.96-17.82c-.42-.47-.62-1.1-.55-1.73.07-.63.4-1.2.92-1.56l18.16-12.82-13.49-19.33c-.37-.53-.49-1.21-.33-1.84.17-.63.6-1.16,1.19-1.43l20.11-9.42-12.25-16.31c-.44-.59-.56-1.36-.32-2.05.24-.7.8-1.23,1.51-1.41l21.08-5.55-7.81-20.6c-.25-.66-.17-1.41.21-2,.38-.59,1.03-.96,1.72-.99l18.54-.78-2.38-24.99c-.06-.66.17-1.31.64-1.78.47-.47,1.11-.69,1.76-.62l21.11,2.38.78-22.29c.02-.65.33-1.25.83-1.65.5-.4,1.16-.56,1.78-.42l18.49,3.91,2.34-21.37c.07-.66.43-1.25.99-1.61.55-.36,1.23-.44,1.86-.23l18.2,6.16,1.51-19.22c.06-.73.47-1.39,1.1-1.75.63-.36,1.4-.37,2.05-.04l17.42,9.03,5.17-12.97c.22-.55.65-.99,1.2-1.22.55-.22,1.16-.21,1.7.03l15.29,6.94,12.37-14.34c.68-.79,1.8-.98,2.7-.47l15.76,9.04,10.88-11.47c.45-.48,1.08-.73,1.74-.67.65.05,1.24.4,1.61.94l6.18,9.06,7.9-9.67c.45-.56,1.14-.85,1.86-.79.71.06,1.34.48,1.7,1.11l6.4,11.47,12.64-9.8c.55-.42,1.26-.56,1.93-.36.66.2,1.19.7,1.43,1.36l4.42,12.28,13.79-8.88c.54-.35,1.21-.44,1.83-.24.61.2,1.11.67,1.35,1.28l5.69,14.46,17.04-6.98c.56-.23,1.19-.21,1.73.05.55.26.96.74,1.14,1.32l4.62,14.65,16.64-4.29c.56-.14,1.15-.06,1.65.25.5.3.85.79.99,1.36l4.31,17.71,16.54-3.53c.65-.14,1.32.03,1.83.46.51.43.8,1.07.79,1.74l-.32,15.81h20.35c.63,0,1.23.28,1.64.76.41.48.6,1.12.51,1.75l-2.25,15.98h15.72c.62,0,1.22.27,1.63.75.41.48.6,1.11.52,1.74l-2.33,18.1,16.1,2.34c.64.09,1.2.47,1.54,1.02.34.56.42,1.23.21,1.85l-5.43,16.55,17.52,7.31c1.04.43,1.58,1.6,1.25,2.69l-6.64,21.67,15.49,6.29c.57.23,1.02.7,1.23,1.28.21.58.17,1.23-.11,1.78l-9.54,18.57,14.1,10.33c.49.36.81.9.88,1.51.08.6-.1,1.21-.48,1.68l-13.3,16.26,13.33,17.08c.71.91.6,2.23-.25,3l-16.06,14.67,10.42,18.72c.31.55.37,1.21.16,1.81-.21.6-.65,1.08-1.23,1.32l-16.86,7,11.01,20.75c.32.6.34,1.33.07,1.95-.28.63-.83,1.08-1.49,1.24l-19.82,4.64,7.37,14.21c.31.6.33,1.31.06,1.92-.27.62-.81,1.07-1.45,1.24l-18.68,4.74,4.62,17.21c.17.65.05,1.34-.34,1.88-.39.54-1,.87-1.66.9l-19.09.77,3.76,16.8c.15.65,0,1.34-.42,1.86-.41.52-1.04.83-1.7.83h-22.29l-1.58,20c-.09,1.19-1.09,2.1-2.29,2.02l-26.89-1.65-5.6,20.31c-.16.58-.54,1.06-1.06,1.35l-11.28,6.16c-.54.3-1.19.35-1.77.13l-24.63-9.16-15.51,18.23c-.73.86-1.99,1.02-2.9.35l-16.65-12.07-14.32,16.15c-.4.46-.98.72-1.58.73h-.03Zm-17.36-22.9c.57,0,1.15.23,1.57.68l15.74,16.77,14.05-15.85c.74-.83,1.97-.97,2.87-.32l16.61,12.04,15.19-17.86c.59-.69,1.54-.94,2.39-.63l25.12,9.35,9.61-5.25,5.83-21.12c.28-1,1.21-1.68,2.22-1.6l26.51,1.63,1.57-19.87c.09-1.14,1.03-2.03,2.16-2.03h21.58l-3.74-16.69c-.14-.64,0-1.31.39-1.83.39-.52.99-.84,1.64-.86l18.97-.77-4.49-16.71c-.15-.57-.07-1.18.22-1.69.29-.51.78-.88,1.35-1.02l18.15-4.6-7.39-14.25c-.31-.6-.33-1.32-.05-1.94s.83-1.08,1.48-1.23l19.79-4.64-10.8-20.36c-.29-.55-.34-1.2-.13-1.79.21-.59.65-1.06,1.22-1.29l16.81-6.98-10.07-18.08c-.5-.9-.32-2.03.44-2.72l15.84-14.47-13.16-16.86c-.64-.82-.62-1.97.03-2.77l12.94-15.82-13.74-10.07c-.87-.64-1.15-1.83-.65-2.8l9.3-18.1-15.13-6.14c-1.05-.43-1.6-1.6-1.27-2.7l6.65-21.69-17.55-7.33c-1.05-.44-1.6-1.63-1.23-2.73l5.25-15.99-15.65-2.27c-1.18-.17-2-1.27-1.84-2.46l2.28-17.77h-15.75c-.63,0-1.23-.28-1.64-.76-.41-.48-.6-1.12-.51-1.75l2.25-15.98h-20.06c-.58,0-1.14-.24-1.55-.66-.41-.42-.63-.99-.62-1.59l.31-15.29-15.92,3.4c-1.14.24-2.27-.47-2.55-1.63l-4.29-17.62-16.5,4.26c-1.1.29-2.25-.35-2.6-1.46l-4.53-14.36-16.89,6.92c-.54.22-1.13.21-1.66-.02-.53-.23-.95-.66-1.16-1.21l-5.53-14.05-13.86,8.92c-.56.36-1.24.44-1.86.23-.62-.21-1.11-.7-1.34-1.33l-4.33-12.04-12.27,9.51c-.5.39-1.14.53-1.75.41-.62-.13-1.14-.52-1.45-1.07l-6.08-10.89-7.72,9.44c-.43.53-1.09.83-1.76.79-.68-.03-1.3-.38-1.69-.95l-6.3-9.24-10.21,10.76c-.69.72-1.77.88-2.63.39l-15.69-9-12.26,14.22c-.63.73-1.65.96-2.52.56l-14.7-6.67-5.22,13.09c-.23.57-.68,1.02-1.25,1.24-.57.22-1.2.18-1.75-.1l-16.63-8.63-1.48,18.73c-.05.68-.41,1.29-.97,1.66-.56.37-1.25.47-1.88.25l-18.28-6.19-2.31,21.07c-.07.62-.39,1.18-.88,1.54-.49.36-1.12.5-1.72.37l-18.31-3.87-.78,22.05c-.02.61-.29,1.19-.75,1.59-.46.4-1.06.59-1.66.52l-20.77-2.34,2.35,24.6c.06.6-.13,1.2-.52,1.66s-.95.73-1.55.75l-17.81.75,7.59,20.04c.22.59.19,1.24-.1,1.8-.28.56-.79.97-1.38,1.12l-20.27,5.33,11.91,15.86c.4.53.54,1.22.38,1.87-.16.65-.6,1.19-1.2,1.47l-20.19,9.46,13.24,18.98c.33.48.47,1.07.37,1.65-.1.58-.42,1.09-.9,1.43l-17.93,12.66,15.69,17.52c.78.87.75,2.21-.07,3.04l-14.48,14.7,15.76,9.14c.52.3.89.8,1.03,1.39.14.59.04,1.21-.28,1.71l-12.26,19.44,17.9,4.54c.58.15,1.08.54,1.37,1.07.29.54.35,1.17.16,1.75l-7.9,24.29,19.75,9.13c.99.46,1.49,1.59,1.18,2.64l-5.29,17.65,18.15,1.54c.61.05,1.18.37,1.55.86.37.5.52,1.13.4,1.75l-3.86,20.37,22.63.79c.61.02,1.18.3,1.58.77.39.47.58,1.09.5,1.7l-2.25,18.25,19.72-3.08c.63-.09,1.26.09,1.74.51.48.42.76,1.03.76,1.67v18.27l19.83-5.42c1.1-.3,2.24.31,2.61,1.41l6.84,20.05,14.98-11.4c.6-.45,1.39-.56,2.08-.29.7.27,1.21.89,1.35,1.64l3.73,19.71,19-12.34c.54-.35,1.2-.44,1.81-.25.61.19,1.11.64,1.36,1.24l6.66,15.77,14.25-12.18c.41-.35.9-.52,1.4-.52Z"/></g><g><ellipse class="cls-20" cx="1520.03" cy="974.03" rx="51.94" ry="52.72"/><path class="cls-16" d="m1528.5,993.34c-1.77.41-3.14.19-4.18-.65-1.33-1.08-2.2-3.29-2.44-6.06h.22c2.02-1.7,4.85-4.23,5.26-5.37,1.19-3.11-1.21-4.54-3.44-4.97-1.27-.18-2.57-.29-3.89-.29s-2.62.1-3.89.29c-2.23.43-4.63,1.87-3.44,4.97.42,1.14,3.24,3.67,5.26,5.37h.21c-.23,2.77-1.11,4.98-2.44,6.06-1.04.84-2.41,1.05-4.18.65-.96-.22-1.92.39-2.14,1.37-.22.98.39,1.94,1.35,2.17.87.2,1.66.28,2.38.28,2.25,0,3.82-.83,4.81-1.64.87-.7,1.54-1.57,2.07-2.51.52.94,1.2,1.8,2.07,2.51,1,.81,2.57,1.64,4.81,1.64.72,0,1.51-.09,2.38-.28.96-.22,1.56-1.19,1.35-2.17-.22-.98-1.17-1.59-2.13-1.37Zm27.37-22.65l.04.03c-.52-1.65-.99-4.12-3.36-9.71-6.1-14.42-17.55-23.07-32.52-23.07s-26.42,8.65-32.52,23.07c-2.37,5.59-2.84,8.05-3.36,9.71l.04-.03c-3.54,2.94-7.94,8.14-7.94,16.51,0,19.24,20.8,21.05,18.74,9.39-2.06-11.66-2.09-25.33.88-34.4,1.35-4.33,3.51-8.39,6.77-11.54,0,0,0,0,0,0,3.98-3.84,9.6-6.34,17.39-6.34s13.42,2.49,17.4,6.34c0,0,0,0,0,0,3.26,3.15,5.42,7.21,6.77,11.54,2.97,9.08,2.94,22.74.88,34.4-2.07,11.66,18.74,9.85,18.74-9.39,0-8.36-4.4-13.57-7.94-16.51Z"/></g></g><g><rect class="cls-15" x="1074.59" y="1079.67" width="149.61" height="475.57" rx="74.81" ry="74.81"/><rect class="cls-15" x="1197.22" y="1017.45" width="149.61" height="475.57" rx="74.81" ry="74.81"/><rect class="cls-15" x="1319.84" y="1077.5" width="149.61" height="475.57" rx="74.81" ry="74.81"/><rect class="cls-15" x="1442.46" y="1136.59" width="149.61" height="475.57" rx="74.81" ry="74.81"/><rect class="cls-15" x="1565.09" y="1149.59" width="149.61" height="475.57" rx="74.81" ry="74.81"/></g><g><rect class="cls-13" x="885.6" y="1163.76" width="149.61" height="270.17" rx="74.81" ry="74.81"/><rect class="cls-13" x="1008.22" y="1209.29" width="149.61" height="270.17" rx="74.81" ry="74.81"/></g></g></g></g></svg>