<?xml version="1.0" encoding="UTF-8"?><svg id="Layer_2" xmlns="http://www.w3.org/2000/svg" viewBox="0 0 605.64 470.95"><defs><style>.cls-1{fill:#053342;}.cls-2{fill:#f0f5fb;}.cls-3{fill:#0b5463;}.cls-4{fill:#3ec0c4;}.cls-5{fill:#263942;}.cls-6{fill:#385763;}.cls-7{fill:#793232;}</style></defs><g id="_ÎÓÈ_1"><g><g><g><polygon class="cls-5" points="143.82 78.75 132.83 78.75 160.54 0 171.53 0 143.82 78.75"/><polygon class="cls-5" points="213.07 78.75 202.08 78.75 229.78 0 240.77 0 213.07 78.75"/><polygon class="cls-5" points="233.43 20.85 153.13 20.85 160.47 0 240.77 0 233.43 20.85"/></g><g><polygon class="cls-5" points="376.32 78.75 365.33 78.75 393.03 0 404.02 0 376.32 78.75"/><polygon class="cls-5" points="445.56 78.75 434.57 78.75 462.28 0 473.27 0 445.56 78.75"/><polygon class="cls-5" points="465.93 20.85 385.63 20.85 392.96 0 473.27 0 465.93 20.85"/></g></g><rect class="cls-6" x="0" y="456.5" width="605.64" height="14.46" transform="translate(605.64 927.45) rotate(180)"/><rect class="cls-4" x="39.12" y="67.76" width="505.5" height="390.67" rx="30.54" ry="30.54"/><rect class="cls-1" x="445.63" y="240.66" width="72.59" height="190.06" rx="20.36" ry="20.36"/><path class="cls-3" d="m454.68,403.38c0,10.15,6.88,18.46,15.29,18.46h23.92c8.41,0,15.29-8.31,15.29-18.46v-135.39c0-10.15-6.88-18.46-15.29-18.46h-23.92c-8.41,0-15.29,8.31-15.29,18.46v135.39Z"/><path class="cls-3" d="m361.16,322.11c0,10.37,9.16,18.86,20.36,18.86h31.87c11.2,0,20.36-8.48,20.36-18.86v-55.17c0-10.37-9.16-18.86-20.36-18.86h-31.87c-11.2,0-20.36,8.48-20.36,18.86v55.17Z"/><path class="cls-3" d="m276.69,322.11c0,10.37,9.16,18.86,20.36,18.86h31.87c11.2,0,20.36-8.48,20.36-18.86v-55.17c0-10.37-9.16-18.86-20.36-18.86h-31.87c-11.2,0-20.36,8.48-20.36,18.86v55.17Z"/><path class="cls-3" d="m192.22,322.11c0,10.37,9.16,18.86,20.36,18.86h31.87c11.2,0,20.36-8.48,20.36-18.86v-55.17c0-10.37-9.16-18.86-20.36-18.86h-31.87c-11.2,0-20.36,8.48-20.36,18.86v55.17Z"/><path class="cls-3" d="m107.75,322.11c0,10.37,9.16,18.86,20.36,18.86h31.87c11.2,0,20.36-8.48,20.36-18.86v-55.17c0-10.37-9.16-18.86-20.36-18.86h-31.87c-11.2,0-20.36,8.48-20.36,18.86v55.17Z"/><path class="cls-3" d="m39.12,340.46v-91.86c1.46-.31,2.97-.51,4.53-.51h31.86c11.2,0,20.36,8.48,20.36,18.86v55.17c0,10.37-9.16,18.86-20.36,18.86h-31.86c-1.56,0-3.06-.2-4.53-.51Z"/><path class="cls-3" d="m445.63,132.64v49.9c0,9.46,9.16,17.2,20.36,17.2h31.87c11.2,0,20.36-7.74,20.36-17.2v-49.9h-72.59Z"/><path class="cls-3" d="m517.91,120.23c-1.53-8.2-9.92-14.55-20.05-14.55h-31.87c-10.13,0-18.52,6.35-20.04,14.55h71.96Z"/><path class="cls-3" d="m433.44,120.23c-1.53-8.2-9.92-14.55-20.04-14.55h-31.87c-10.13,0-18.52,6.35-20.05,14.55h71.96Z"/><path class="cls-3" d="m361.16,132.64v49.9c0,9.46,9.16,17.2,20.36,17.2h31.87c11.2,0,20.36-7.74,20.36-17.2v-49.9h-72.59Z"/><path class="cls-3" d="m348.97,120.23c-1.53-8.2-9.92-14.55-20.04-14.55h-31.87c-10.13,0-18.52,6.35-20.04,14.55h71.96Z"/><path class="cls-3" d="m276.69,132.64v49.9c0,9.46,9.16,17.2,20.36,17.2h31.87c11.2,0,20.36-7.74,20.36-17.2v-49.9h-72.59Z"/><path class="cls-3" d="m264.5,120.23c-1.53-8.2-9.92-14.55-20.04-14.55h-31.87c-10.13,0-18.52,6.35-20.05,14.55h71.96Z"/><path class="cls-3" d="m192.22,132.64v49.9c0,9.46,9.16,17.2,20.36,17.2h31.87c11.2,0,20.36-7.74,20.36-17.2v-49.9h-72.59Z"/><path class="cls-3" d="m180.03,120.23c-1.53-8.2-9.92-14.55-20.04-14.55h-31.87c-10.13,0-18.52,6.35-20.04,14.55h71.96Z"/><path class="cls-3" d="m107.75,132.64v49.9c0,9.46,9.16,17.2,20.36,17.2h31.87c11.2,0,20.36-7.74,20.36-17.2v-49.9h-72.59Z"/><path class="cls-3" d="m95.56,120.23c-1.53-8.2-9.92-14.55-20.04-14.55h-31.86c-1.56,0-3.06.18-4.53.47v14.08h56.44Z"/><path class="cls-3" d="m39.12,132.64v66.63c1.46.28,2.97.47,4.53.47h31.86c11.2,0,20.36-7.74,20.36-17.2v-49.9h-56.75Z"/><path class="cls-5" d="m141.53,458.43l29.58-30.36h230.97s23.58,20.43,36.16,30.36H141.53Z"/><path class="cls-2" d="m27.54,382.3c0,9.48,5.02,17.16,11.22,17.16s7.06-7.68,7.06-17.16-.87-17.16-7.06-17.16-11.22,7.68-11.22,17.16Z"/><path class="cls-7" d="m33.22,412.78c0,5.9,4.34,7.31,6.98,7.31s4.78-3.27,4.78-7.31-2.14-7.31-4.78-7.31-6.98,1.41-6.98,7.31Z"/><path class="cls-3" d="m544.38,95.9H39.37c.32-3.94,1.35-7.66,3.03-11.05h498.95c1.68,3.39,2.72,7.1,3.03,11.05Z"/></g></g></svg>