<?xml version="1.0" encoding="UTF-8"?><svg id="Layer_2" xmlns="http://www.w3.org/2000/svg" viewBox="0 0 3011.69 758.2"><defs><style>.cls-1{fill:#053342;}.cls-2{fill:#2f6f77;}.cls-3{fill:#c2e1b5;}.cls-4{fill:#d9ebcb;}.cls-5{fill:#6ccbd8;}.cls-6{fill:#283e51;}.cls-7{fill:#59c1ac;}.cls-8{fill:#58b0db;}</style></defs><g id="_ÎÓÈ_1"><g><path class="cls-8" d="m520.65,554.45h77.33c1.46,0,2.65-1.18,2.65-2.64s-1.19-2.64-2.65-2.64h-77.33c-1.46,0-2.65,1.18-2.65,2.64s1.19,2.64,2.65,2.64Z"/><path class="cls-8" d="m459.02,510.44h77.33c1.46,0,2.65-1.18,2.65-2.64s-1.19-2.64-2.65-2.64h-77.33c-1.46,0-2.65,1.18-2.65,2.64s1.19,2.64,2.65,2.64Z"/><path class="cls-5" d="m3011.31,400.88H2.65v357.32h3008.65v-357.32Z"/><g><g><path class="cls-3" d="m2748.29,505.12h30.5c1.46,0,2.64-1.18,2.64-2.64s-1.18-2.64-2.64-2.64h-30.5c-1.46,0-2.64,1.18-2.64,2.64s1.18,2.64,2.64,2.64Z"/><path class="cls-3" d="m2778.79,513.12h-30.5c-5.87,0-10.64-4.77-10.64-10.64s4.77-10.64,10.64-10.64h30.5c5.87,0,10.64,4.77,10.64,10.64s-4.77,10.64-10.64,10.64Z"/></g><g><path class="cls-3" d="m1114.59,510.75h133.46c1.46,0,2.64-.59,2.64-1.32s-1.18-1.32-2.64-1.32h-133.46c-1.46,0-2.64.59-2.64,1.32s1.18,1.32,2.64,1.32Z"/><path class="cls-3" d="m1248.05,518.75h-133.46c-6.07,0-10.64-4.01-10.64-9.32s4.57-9.32,10.64-9.32h133.46c6.07,0,10.64,4.01,10.64,9.32s-4.57,9.32-10.64,9.32Z"/></g><g><path class="cls-3" d="m1628.25,633.15h100.81c1.46,0,2.64-1.18,2.64-2.64s-1.18-2.64-2.64-2.64h-100.81c-1.46,0-2.65,1.18-2.65,2.64s1.19,2.64,2.65,2.64Z"/><path class="cls-3" d="m1729.06,641.15h-100.81c-5.87,0-10.65-4.77-10.65-10.64s4.78-10.64,10.65-10.64h100.81c5.87,0,10.64,4.77,10.64,10.64s-4.77,10.64-10.64,10.64Z"/></g><g><path class="cls-3" d="m1702.13,611.23h77.33c1.46,0,2.65-1.18,2.65-2.64s-1.19-2.64-2.65-2.64h-77.33c-1.46,0-2.65,1.18-2.65,2.64s1.19,2.64,2.65,2.64Z"/><path class="cls-3" d="m1779.46,619.23h-77.33c-5.87,0-10.65-4.77-10.65-10.64s4.78-10.64,10.65-10.64h77.33c5.87,0,10.65,4.77,10.65,10.64s-4.78,10.64-10.65,10.64Z"/></g><g><path class="cls-3" d="m1754.59,633.15h41.57c1.46,0,2.64-1.18,2.64-2.64s-1.18-2.64-2.64-2.64h-41.57c-1.46,0-2.65,1.18-2.65,2.64s1.19,2.64,2.65,2.64Z"/><path class="cls-3" d="m1796.16,641.15h-41.57c-5.87,0-10.65-4.77-10.65-10.64s4.78-10.64,10.65-10.64h41.57c5.87,0,10.64,4.77,10.64,10.64s-4.77,10.64-10.64,10.64Z"/></g><g><path class="cls-3" d="m222.58,513.24h100.81c1.46,0,2.64-1.18,2.64-2.64s-1.18-2.64-2.64-2.64h-100.81c-1.46,0-2.65,1.18-2.65,2.64s1.19,2.64,2.65,2.64Z"/><path class="cls-3" d="m323.39,521.24h-100.81c-5.87,0-10.65-4.77-10.65-10.64s4.78-10.64,10.65-10.64h100.81c5.87,0,10.64,4.77,10.64,10.64s-4.77,10.64-10.64,10.64Z"/></g><g><path class="cls-3" d="m296.46,491.32h77.33c1.46,0,2.65-1.18,2.65-2.64s-1.19-2.64-2.65-2.64h-77.33c-1.46,0-2.65,1.18-2.65,2.64s1.19,2.64,2.65,2.64Z"/><path class="cls-3" d="m373.79,499.32h-77.33c-5.87,0-10.65-4.77-10.65-10.64s4.78-10.64,10.65-10.64h77.33c5.87,0,10.65,4.77,10.65,10.64s-4.78,10.64-10.65,10.64Z"/></g><g><path class="cls-3" d="m348.92,513.24h41.57c1.46,0,2.64-1.18,2.64-2.64s-1.18-2.64-2.64-2.64h-41.57c-1.46,0-2.65,1.18-2.65,2.64s1.19,2.64,2.65,2.64Z"/><path class="cls-3" d="m390.49,521.24h-41.57c-5.87,0-10.65-4.77-10.65-10.64s4.78-10.64,10.65-10.64h41.57c5.87,0,10.64,4.77,10.64,10.64s-4.77,10.64-10.64,10.64Z"/></g><g><path class="cls-3" d="m633.44,635.79h41.57c1.46,0,2.64-1.18,2.64-2.64s-1.18-2.64-2.64-2.64h-41.57c-1.46,0-2.65,1.18-2.65,2.64s1.19,2.64,2.65,2.64Z"/><path class="cls-3" d="m675.01,643.79h-41.57c-5.87,0-10.65-4.77-10.65-10.64s4.78-10.64,10.65-10.64h41.57c5.87,0,10.64,4.77,10.64,10.64s-4.77,10.64-10.64,10.64Z"/></g><g><path class="cls-3" d="m2163.34,515.19h133.45c1.46,0,2.65-1.18,2.65-2.64s-1.19-2.64-2.65-2.64h-133.45c-1.46,0-2.65,1.18-2.65,2.64s1.19,2.64,2.65,2.64Z"/><path class="cls-3" d="m2296.79,523.19h-133.45c-5.87,0-10.65-4.77-10.65-10.64s4.78-10.64,10.65-10.64h133.45c5.87,0,10.65,4.77,10.65,10.64s-4.78,10.64-10.65,10.64Z"/></g><g><path class="cls-3" d="m2584.09,505.12h133.45c1.46,0,2.65-1.18,2.65-2.64s-1.19-2.64-2.65-2.64h-133.45c-1.46,0-2.65,1.18-2.65,2.64s1.19,2.64,2.65,2.64Z"/><path class="cls-3" d="m2717.54,513.12h-133.45c-5.87,0-10.65-4.77-10.65-10.64s4.78-10.64,10.65-10.64h133.45c5.87,0,10.65,4.77,10.65,10.64s-4.78,10.64-10.65,10.64Z"/></g><g><path class="cls-3" d="m902.73,539.37h376.33c1.46,0,2.64-1.18,2.64-2.64s-1.18-2.64-2.64-2.64h-376.33c-1.46,0-2.64,1.18-2.64,2.64s1.18,2.64,2.64,2.64Z"/><path class="cls-3" d="m1279.06,547.37h-376.33c-5.87,0-10.64-4.77-10.64-10.64s4.77-10.64,10.64-10.64h376.33c5.87,0,10.64,4.77,10.64,10.64s-4.77,10.64-10.64,10.64Z"/></g><g><path class="cls-3" d="m1299.04,539.37h71.5c1.46,0,2.64-1.18,2.64-2.64s-1.18-2.64-2.64-2.64h-71.5c-1.46,0-2.64,1.18-2.64,2.64s1.18,2.64,2.64,2.64Z"/><path class="cls-3" d="m1370.54,547.37h-71.5c-5.87,0-10.64-4.77-10.64-10.64s4.77-10.64,10.64-10.64h71.5c5.87,0,10.64,4.77,10.64,10.64s-4.77,10.64-10.64,10.64Z"/></g><g><path class="cls-3" d="m2060.83,538.32h211.86c1.46,0,2.64-1.18,2.64-2.64s-1.18-2.64-2.64-2.64h-211.86c-1.46,0-2.65,1.19-2.65,2.64s1.19,2.64,2.65,2.64h0Z"/><path class="cls-3" d="m2272.69,546.32h-211.86c-5.87,0-10.65-4.77-10.65-10.64s4.78-10.64,10.65-10.64h211.86c5.87,0,10.64,4.77,10.64,10.64s-4.77,10.64-10.64,10.64Z"/></g><g><path class="cls-3" d="m2305.92,538.32h132.17c1.46,0,2.65-1.18,2.65-2.64s-1.19-2.64-2.65-2.64h-132.17c-1.46,0-2.65,1.19-2.65,2.64s1.19,2.64,2.65,2.64Z"/><path class="cls-3" d="m2438.09,546.32h-132.17c-5.87,0-10.65-4.77-10.65-10.64s4.78-10.64,10.65-10.64h132.17c5.87,0,10.65,4.77,10.65,10.64s-4.78,10.64-10.65,10.64Z"/></g><g><path class="cls-3" d="m2011.87,538.32h30.49c1.46,0,2.64-1.18,2.64-2.64s-1.18-2.64-2.64-2.64h-30.49c-1.46,0-2.65,1.19-2.65,2.64s1.19,2.64,2.65,2.64Z"/><path class="cls-3" d="m2042.36,546.32h-30.49c-5.87,0-10.65-4.77-10.65-10.64s4.78-10.64,10.65-10.64h30.49c5.87,0,10.64,4.77,10.64,10.64s-4.77,10.64-10.64,10.64Z"/></g></g><g><rect class="cls-1" x="0" y="366.44" width="3011.69" height="98.82"/><rect class="cls-2" x="39.55" y="377.6" width="103.77" height="16.76"/><rect class="cls-2" x="187.12" y="377.6" width="103.77" height="16.76"/><rect class="cls-2" x="334.69" y="377.6" width="103.77" height="16.76"/><rect class="cls-2" x="482.26" y="377.6" width="103.77" height="16.76"/><rect class="cls-2" x="629.83" y="377.6" width="103.77" height="16.76"/><rect class="cls-2" x="777.4" y="377.6" width="103.77" height="16.76"/><rect class="cls-2" x="924.97" y="377.6" width="103.77" height="16.76"/><rect class="cls-2" x="1072.54" y="377.6" width="103.77" height="16.76"/><rect class="cls-2" x="1220.11" y="377.6" width="103.77" height="16.76"/><rect class="cls-2" x="1367.68" y="377.6" width="103.77" height="16.76"/><rect class="cls-2" x="1515.25" y="377.6" width="103.77" height="16.76"/><rect class="cls-2" x="1662.82" y="377.6" width="103.77" height="16.76"/><rect class="cls-2" x="1810.39" y="377.6" width="103.77" height="16.76"/><rect class="cls-2" x="1957.96" y="377.6" width="103.77" height="16.76"/><rect class="cls-2" x="2105.53" y="377.6" width="103.77" height="16.76"/><rect class="cls-2" x="2253.1" y="377.6" width="103.77" height="16.76"/><rect class="cls-2" x="2400.67" y="377.6" width="103.77" height="16.76"/><rect class="cls-2" x="2548.24" y="377.6" width="103.77" height="16.76"/><rect class="cls-2" x="2695.81" y="377.6" width="103.77" height="16.76"/><rect class="cls-2" x="2843.38" y="377.6" width="103.77" height="16.76"/></g><g><g><rect class="cls-1" x="162.13" y="241.63" width="16.94" height="204.34"/><polygon class="cls-4" points="194.7 270.95 146.5 270.95 140.91 230.82 200.3 230.82 194.7 270.95"/><path class="cls-1" d="m155.7,211.39h29.81c9.31,0,16.88,7.56,16.88,16.88v1.76c0,1.77-1.43,3.2-3.2,3.2h-57.16c-1.77,0-3.2-1.43-3.2-3.2v-1.76c0-9.31,7.56-16.88,16.88-16.88Z"/><path class="cls-1" d="m146.49,270.73c3.66,9.76,13.07,16.71,24.11,16.71s20.45-6.95,24.11-16.71h-48.22Z"/></g><g><rect class="cls-1" x="459.91" y="241.63" width="16.94" height="204.34"/><polygon class="cls-4" points="492.48 270.95 444.28 270.95 438.68 230.82 498.07 230.82 492.48 270.95"/><path class="cls-1" d="m453.47,211.39h29.81c9.31,0,16.88,7.56,16.88,16.88v1.76c0,1.77-1.43,3.2-3.2,3.2h-57.16c-1.77,0-3.2-1.43-3.2-3.2v-1.76c0-9.31,7.56-16.88,16.88-16.88Z"/><path class="cls-1" d="m444.27,270.73c3.66,9.76,13.07,16.71,24.11,16.71s20.45-6.95,24.11-16.71h-48.22Z"/></g><g><rect class="cls-1" x="757.68" y="241.63" width="16.94" height="204.34"/><polygon class="cls-4" points="790.25 270.95 742.05 270.95 736.46 230.82 795.85 230.82 790.25 270.95"/><path class="cls-1" d="m751.25,211.39h29.81c9.31,0,16.88,7.56,16.88,16.88v1.76c0,1.77-1.43,3.2-3.2,3.2h-57.16c-1.77,0-3.2-1.43-3.2-3.2v-1.76c0-9.31,7.56-16.88,16.88-16.88Z"/><path class="cls-1" d="m742.05,270.73c3.66,9.76,13.07,16.71,24.11,16.71s20.45-6.95,24.11-16.71h-48.22Z"/></g><g><rect class="cls-1" x="1055.46" y="241.63" width="16.94" height="204.34"/><polygon class="cls-4" points="1088.03 270.95 1039.83 270.95 1034.24 230.82 1093.62 230.82 1088.03 270.95"/><path class="cls-1" d="m1049.02,211.39h29.81c9.31,0,16.88,7.56,16.88,16.88v1.76c0,1.77-1.43,3.2-3.2,3.2h-57.16c-1.77,0-3.2-1.43-3.2-3.2v-1.76c0-9.31,7.56-16.88,16.88-16.88Z"/><path class="cls-1" d="m1039.82,270.73c3.66,9.76,13.07,16.71,24.11,16.71s20.45-6.95,24.11-16.71h-48.22Z"/></g><g><rect class="cls-1" x="1353.23" y="241.63" width="16.94" height="204.34"/><polygon class="cls-4" points="1385.8 270.95 1337.61 270.95 1332.01 230.82 1391.4 230.82 1385.8 270.95"/><path class="cls-1" d="m1346.8,211.39h29.81c9.31,0,16.88,7.56,16.88,16.88v1.76c0,1.77-1.43,3.2-3.2,3.2h-57.16c-1.77,0-3.2-1.43-3.2-3.2v-1.76c0-9.31,7.56-16.88,16.88-16.88Z"/><path class="cls-1" d="m1337.6,270.73c3.66,9.76,13.07,16.71,24.11,16.71s20.45-6.95,24.11-16.71h-48.22Z"/></g><g><rect class="cls-1" x="1651.01" y="241.63" width="16.94" height="204.34"/><polygon class="cls-4" points="1683.58 270.95 1635.38 270.95 1629.79 230.82 1689.17 230.82 1683.58 270.95"/><path class="cls-1" d="m1644.57,211.39h29.81c9.31,0,16.88,7.56,16.88,16.88v1.76c0,1.77-1.43,3.2-3.2,3.2h-57.16c-1.77,0-3.2-1.43-3.2-3.2v-1.76c0-9.31,7.56-16.88,16.88-16.88Z"/><path class="cls-1" d="m1635.37,270.73c3.66,9.76,13.07,16.71,24.11,16.71s20.45-6.95,24.11-16.71h-48.22Z"/></g><g><rect class="cls-1" x="1948.79" y="241.63" width="16.94" height="204.34"/><polygon class="cls-4" points="1981.36 270.95 1933.16 270.95 1927.56 230.82 1986.95 230.82 1981.36 270.95"/><path class="cls-1" d="m1942.35,211.39h29.81c9.31,0,16.88,7.56,16.88,16.88v1.76c0,1.77-1.43,3.2-3.2,3.2h-57.16c-1.77,0-3.2-1.43-3.2-3.2v-1.76c0-9.31,7.56-16.88,16.88-16.88Z"/><path class="cls-1" d="m1933.15,270.73c3.66,9.76,13.07,16.71,24.11,16.71s20.45-6.95,24.11-16.71h-48.22Z"/></g><g><rect class="cls-1" x="2246.56" y="241.63" width="16.94" height="204.34"/><polygon class="cls-4" points="2279.13 270.95 2230.93 270.95 2225.34 230.82 2284.73 230.82 2279.13 270.95"/><path class="cls-1" d="m2240.13,211.39h29.81c9.31,0,16.88,7.56,16.88,16.88v1.76c0,1.77-1.43,3.2-3.2,3.2h-57.16c-1.77,0-3.2-1.43-3.2-3.2v-1.76c0-9.31,7.56-16.88,16.88-16.88Z"/><path class="cls-1" d="m2230.92,270.73c3.66,9.76,13.07,16.71,24.11,16.71s20.45-6.95,24.11-16.71h-48.22Z"/></g><g><rect class="cls-1" x="2544.34" y="241.63" width="16.94" height="204.34"/><polygon class="cls-4" points="2576.91 270.95 2528.71 270.95 2523.11 230.82 2582.5 230.82 2576.91 270.95"/><path class="cls-1" d="m2537.9,211.39h29.81c9.31,0,16.88,7.56,16.88,16.88v1.76c0,1.77-1.43,3.2-3.2,3.2h-57.16c-1.77,0-3.2-1.43-3.2-3.2v-1.76c0-9.31,7.56-16.88,16.88-16.88Z"/><path class="cls-1" d="m2528.7,270.73c3.66,9.76,13.07,16.71,24.11,16.71s20.45-6.95,24.11-16.71h-48.22Z"/></g><g><rect class="cls-1" x="2842.11" y="241.63" width="16.94" height="204.34"/><polygon class="cls-4" points="2874.68 270.95 2826.49 270.95 2820.89 230.82 2880.28 230.82 2874.68 270.95"/><path class="cls-1" d="m2835.68,211.39h29.81c9.31,0,16.88,7.56,16.88,16.88v1.76c0,1.77-1.43,3.2-3.2,3.2h-57.16c-1.77,0-3.2-1.43-3.2-3.2v-1.76c0-9.31,7.56-16.88,16.88-16.88Z"/><path class="cls-1" d="m2826.48,270.73c3.66,9.76,13.07,16.71,24.11,16.71s20.45-6.95,24.11-16.71h-48.22Z"/></g></g><g><rect class="cls-6" x="798.16" y="349.75" width="142.3" height="51.11" rx="25.56" ry="25.56"/><rect class="cls-6" x="762.23" y="393.95" width="214.16" height="17.5" rx="8.75" ry="8.75"/><g><g><path class="cls-6" d="m751.07,16.38h28.79v15.13h-28.79c-1.97,0-3.57-1.6-3.57-3.57v-7.98c0-1.97,1.6-3.57,3.57-3.57Z"/><path class="cls-6" d="m751.07,258.28h28.79v15.13h-28.79c-1.97,0-3.57-1.6-3.57-3.57v-7.98c0-1.97,1.6-3.57,3.57-3.57Z"/></g><path class="cls-6" d="m955.17,0h-144.7c-8.06,0-14.59,6.59-14.59,14.72v327.12c0,8.13,6.53,14.72,14.59,14.72h144.7c8.06,0,14.59-6.59,14.59-14.72V14.72c0-8.13-6.53-14.72-14.59-14.72Z"/><path class="cls-6" d="m930.46,0h-144.7c-8.06,0-14.59,6.59-14.59,14.72v327.12c0,8.13,6.53,14.72,14.59,14.72h144.7c8.06,0,14.59-6.59,14.59-14.72V14.72c0-8.13-6.53-14.72-14.59-14.72Z"/><rect class="cls-7" x="786.31" y="19.65" width="143.59" height="317.26"/></g><g><path d="m822.39,69.9l8.01-32.71h6.89v47.75h-6.6v-26.8l-5.89,26.8h-4.67l-6.06-26.8v26.8h-6.67v-47.75h6.89l8.11,32.71Z"/><path d="m862.92,75.67c0,6.69-3.3,10.04-9.91,10.05-6.59,0-9.88-3.35-9.88-10.05v-29.21c0-6.68,3.29-10.03,9.88-10.03s9.91,3.34,9.91,10.03v29.21Zm-6.89-29.21c0-2.14-1-3.22-2.99-3.24h-.05c-1.98,0-2.97,1.08-2.97,3.24v29.21c0,2.16,1,3.24,2.99,3.24s3.02-1.08,3.02-3.24v-29.21Z"/><path d="m888.06,75.67c0,6.69-3.3,10.04-9.91,10.05-6.59,0-9.88-3.35-9.88-10.05v-29.21c0-6.68,3.29-10.03,9.88-10.03s9.91,3.34,9.91,10.03v29.21Zm-6.89-29.21c0-2.14-1-3.22-2.99-3.24h-.05c-1.98,0-2.97,1.08-2.97,3.24v29.21c0,2.16,1,3.24,2.99,3.24s3.02-1.08,3.02-3.24v-29.21Z"/><path d="m908.26,84.95h-9.44l-4.87-30.86-2.24-16.89h6.96l4.84,36.8,4.87-36.8h6.96l-2.24,16.94-4.84,30.81Z"/><path d="m822.39,129.72l8.01-32.71h6.89v47.75h-6.6v-26.8l-5.89,26.8h-4.67l-6.06-26.8v26.8h-6.67v-47.75h6.89l8.11,32.71Z"/><path d="m862.92,135.49c0,6.69-3.3,10.04-9.91,10.05-6.59,0-9.88-3.35-9.88-10.05v-29.21c0-6.68,3.29-10.03,9.88-10.03s9.91,3.34,9.91,10.03v29.21Zm-6.89-29.21c0-2.14-1-3.22-2.99-3.24h-.05c-1.98,0-2.97,1.08-2.97,3.24v29.21c0,2.16,1,3.24,2.99,3.24s3.02-1.08,3.02-3.24v-29.21Z"/><path d="m888.06,135.49c0,6.69-3.3,10.04-9.91,10.05-6.59,0-9.88-3.35-9.88-10.05v-29.21c0-6.68,3.29-10.03,9.88-10.03s9.91,3.34,9.91,10.03v29.21Zm-6.89-29.21c0-2.14-1-3.22-2.99-3.24h-.05c-1.98,0-2.97,1.08-2.97,3.24v29.21c0,2.16,1,3.24,2.99,3.24s3.02-1.08,3.02-3.24v-29.21Z"/><path d="m908.26,144.76h-9.44l-4.87-30.86-2.24-16.89h6.96l4.84,36.8,4.87-36.8h6.96l-2.24,16.94-4.84,30.81Z"/><path d="m822.39,189.53l8.01-32.71h6.89v47.75h-6.6v-26.8l-5.89,26.8h-4.67l-6.06-26.8v26.8h-6.67v-47.75h6.89l8.11,32.71Z"/><path d="m862.92,195.3c0,6.69-3.3,10.04-9.91,10.05-6.59,0-9.88-3.35-9.88-10.05v-29.21c0-6.68,3.29-10.03,9.88-10.03s9.91,3.34,9.91,10.03v29.21Zm-6.89-29.21c0-2.14-1-3.22-2.99-3.24h-.05c-1.98,0-2.97,1.08-2.97,3.24v29.21c0,2.16,1,3.24,2.99,3.24s3.02-1.08,3.02-3.24v-29.21Z"/><path d="m888.06,195.3c0,6.69-3.3,10.04-9.91,10.05-6.59,0-9.88-3.35-9.88-10.05v-29.21c0-6.68,3.29-10.03,9.88-10.03s9.91,3.34,9.91,10.03v29.21Zm-6.89-29.21c0-2.14-1-3.22-2.99-3.24h-.05c-1.98,0-2.97,1.08-2.97,3.24v29.21c0,2.16,1,3.24,2.99,3.24s3.02-1.08,3.02-3.24v-29.21Z"/><path d="m908.26,204.57h-9.44l-4.87-30.86-2.24-16.89h6.96l4.84,36.8,4.87-36.8h6.96l-2.24,16.94-4.84,30.81Z"/><path d="m822.39,249.35l8.01-32.71h6.89v47.75h-6.6v-26.8l-5.89,26.8h-4.67l-6.06-26.8v26.8h-6.67v-47.75h6.89l8.11,32.71Z"/><path d="m862.92,255.12c0,6.69-3.3,10.04-9.91,10.05-6.59,0-9.88-3.35-9.88-10.05v-29.21c0-6.68,3.29-10.03,9.88-10.03s9.91,3.34,9.91,10.03v29.21Zm-6.89-29.21c0-2.14-1-3.22-2.99-3.24h-.05c-1.98,0-2.97,1.08-2.97,3.24v29.21c0,2.16,1,3.24,2.99,3.24s3.02-1.08,3.02-3.24v-29.21Z"/><path d="m888.06,255.12c0,6.69-3.3,10.04-9.91,10.05-6.59,0-9.88-3.35-9.88-10.05v-29.21c0-6.68,3.29-10.03,9.88-10.03s9.91,3.34,9.91,10.03v29.21Zm-6.89-29.21c0-2.14-1-3.22-2.99-3.24h-.05c-1.98,0-2.97,1.08-2.97,3.24v29.21c0,2.16,1,3.24,2.99,3.24s3.02-1.08,3.02-3.24v-29.21Z"/><path d="m908.26,264.39h-9.44l-4.87-30.86-2.24-16.89h6.96l4.84,36.8,4.87-36.8h6.96l-2.24,16.94-4.84,30.81Z"/><path d="m822.39,309.16l8.01-32.71h6.89v47.75h-6.6v-26.8l-5.89,26.8h-4.67l-6.06-26.8v26.8h-6.67v-47.75h6.89l8.11,32.71Z"/><path d="m862.92,314.93c0,6.69-3.3,10.04-9.91,10.05-6.59,0-9.88-3.35-9.88-10.05v-29.21c0-6.68,3.29-10.03,9.88-10.03s9.91,3.34,9.91,10.03v29.21Zm-6.89-29.21c0-2.14-1-3.22-2.99-3.24h-.05c-1.98,0-2.97,1.08-2.97,3.24v29.21c0,2.16,1,3.24,2.99,3.24s3.02-1.08,3.02-3.24v-29.21Z"/><path d="m888.06,314.93c0,6.69-3.3,10.04-9.91,10.05-6.59,0-9.88-3.35-9.88-10.05v-29.21c0-6.68,3.29-10.03,9.88-10.03s9.91,3.34,9.91,10.03v29.21Zm-6.89-29.21c0-2.14-1-3.22-2.99-3.24h-.05c-1.98,0-2.97,1.08-2.97,3.24v29.21c0,2.16,1,3.24,2.99,3.24s3.02-1.08,3.02-3.24v-29.21Z"/><path d="m908.26,324.2h-9.44l-4.87-30.86-2.24-16.89h6.96l4.84,36.8,4.87-36.8h6.96l-2.24,16.94-4.84,30.81Z"/></g></g></g></g></svg>