<?xml version="1.0" encoding="UTF-8"?><svg id="Layer_2" xmlns="http://www.w3.org/2000/svg" viewBox="0 0 345.07 283.6"><defs><style>.cls-1{fill:#fff;}</style></defs><g id="_ÎÓÈ_1"><g><g><g><rect class="cls-1" x="36.95" y="132.57" width="69.63" height="3.78"/><rect class="cls-1" x="238.55" y="132.71" width="71.13" height="3.78"/></g><rect class="cls-1" x="35.53" y="237.16" width="274.08" height="3.78"/></g><g><path class="cls-1" d="m177.49,79.64c-1.27.28-2.26.14-2.99-.46-.94-.77-1.57-2.32-1.71-4.26h.14c1.44-1.19,3.43-2.99,3.76-3.76.84-2.18-.84-3.2-2.46-3.48-.93-.14-1.84-.21-2.79-.21-.95,0-1.86.07-2.77.21-1.6.32-3.31,1.3-2.47,3.48.28.81,2.33,2.56,3.76,3.76h.16c-.19,1.93-.78,3.51-1.73,4.25-.75.6-1.72.74-3,.46-.69-.15-1.37.28-1.51.95-.14.67.29,1.37.96,1.51.63.14,1.18.21,1.68.21,1.62,0,2.72-.56,3.45-1.16.64-.49,1.09-1.09,1.49-1.76.38.67.83,1.27,1.46,1.76.7.56,1.83,1.16,3.46,1.16.53,0,1.09-.07,1.68-.21.67-.14,1.12-.84.96-1.51-.14-.67-.85-1.12-1.52-.95h0Z"/><path class="cls-1" d="m196.98,63.71c-.36-1.12-.7-2.85-2.39-6.79-4.36-10.13-12.53-16.21-23.17-16.21-10.66,0-18.82,6.08-23.17,16.21-1.69,3.94-2.04,5.66-2.4,6.83-2.52,2.04-5.65,5.69-5.66,11.57,0,13.5,14.82,14.77,13.36,6.61-1.46-8.2-1.46-17.8.65-24.16.95-3.02,2.48-5.87,4.82-8.09,2.84-2.7,6.84-4.43,12.38-4.43,5.52,0,9.55,1.76,12.36,4.44,2.33,2.21,3.87,5.06,4.82,8.09,2.12,6.36,2.12,15.96.64,24.16-1.48,8.19,13.37,6.93,13.36-6.61,0-5.87-3.13-9.53-5.66-11.61h.08Z"/></g><path class="cls-1" d="m0,283.36L.14,79.14l89.38.06C91.6,35.16,128.11-.03,172.66,0c44.54.03,81.01,35.27,83.03,79.33l89.38.06-.14,204.21-344.92-.24ZM7.95,86.96l-.13,188.59,329.3.23.13-188.59-89.29-.06v-3.9c.03-41.55-33.75-75.38-75.31-75.42-41.55-.03-75.39,33.75-75.42,75.31v3.9s-89.29-.06-89.29-.06Z"/><path class="cls-1" d="m19.1,264.54v-1.5s.12-164.54.12-164.54l87.57.06v-15.44c.02-17.55,6.89-34.06,19.34-46.5s28.98-19.28,46.53-19.26c17.56.02,34.06,6.88,46.5,19.33,12.44,12.45,19.28,28.98,19.26,46.53v15.44s87.39.06,87.39.06v1.5s-.12,164.54-.12,164.54l-306.59-.22Zm3.11-163.04l-.11,160.05,300.61.21.11-160.05-87.4-.06v-18.43c.02-16.75-6.51-32.52-18.38-44.41-11.87-11.89-27.63-18.44-44.38-18.45-16.75-.01-32.52,6.52-44.41,18.39-11.89,11.87-18.44,27.63-18.45,44.38v18.43s-87.58-.06-87.58-.06Z"/></g><g><path class="cls-1" d="m170.14,134.58h-6.79c-.64,0-1.04-.17-1.33-.64l-2.49-4.06h-11.95v9.11h17.92c.41,0,.75.29.75.81v2.96c0,.52-.41.87-.75.87h-17.92v11.37h21.46c.46,0,.75.29.75.81v2.96c0,.52-.29.87-.75.87h-50.23c-.35,0-.7-.29-.7-.58v-3.48c0-.35.29-.58.64-.58h21.23v-11.37h-18.15c-.35,0-.7-.29-.7-.58v-3.48c0-.35.29-.58.64-.58h18.21v-9.11h-11.89l-2.55,4.18c-.23.41-.7.7-.99.7h-6.84c-.35,0-.58-.41-.41-.7l12.01-19.95h-6.09c-.23,0-.58-.23-.58-.52v-3.6c0-.29.23-.58.58-.58h28.65c1.22,0,2.15.17,2.9.58.93.46,1.62,1.33,2.38,2.55l13.28,21.46c.17.29,0,.58-.29.58Zm-20.42-20.47h-12.18l-6.67,11.14h25.75l-6.9-11.14Z"/><path class="cls-1" d="m223.04,146.24h-19.6v12.7c0,.41-.29.75-.64.75h-6.32c-.41,0-.64-.41-.64-.75v-12.7h-23.43c-.35,0-.64-.29-.64-.58v-3.48c0-.35.23-.58.58-.58h5.45v-11.31c0-1.39.52-2.49,1.39-3.25.87-.81,2.09-1.22,3.36-1.22h13.28v-8h-11.43l-4.29,7.48c-.23.41-.52.64-.87.64h-7.6c-.35,0-.58-.41-.41-.7l9.05-15.72c.23-.35.7-.75,1.04-.75h7.37c.41,0,.58.52.41.87l-2.03,3.54h34.92c.41,0,.75.23.75.75v3.07c0,.52-.41.81-.75.81h-18.56v8h16.47c.41,0,.64.23.64.58v3.42c0,.41-.12.64-.64.64h-16.47v11.14h19.6c.41,0,.75.29.75.81v2.96c0,.52-.41.87-.75.87Zm-27.2-15.78h-10.44v11.14h10.44v-11.14Z"/><path class="cls-1" d="m89.14,195.19h-25.87v16.94l2.44-.17c.41,0,.75.29.75.64v2.78c0,.35-.29.64-.64.64l-2.55.17v4.64c0,.41-.29.81-.64.81h-6.09c-.41,0-.7-.46-.7-.81v-4.12l-17.63,1.16c-.29,0-.75-.29-.75-.58v-2.78c0-.35.35-.7.7-.7l2.55-.17v-18.44h-2.61c-.35,0-.7-.29-.7-.58v-2.9c0-.35.35-.58.7-.58h50.92c.41,0,.75.29.75.64v2.78c0,.35-.29.64-.64.64Zm-4.06-7.37c-.64.64-1.45,1.1-2.38,1.1h-38.22c-1.04,0-1.97-.41-2.67-1.1-.64-.64-.99-1.57-.99-2.61v-10.09c0-1.1.35-1.97.93-2.61.7-.7,1.68-1.1,2.96-1.1h37.58c1.16,0,2.15.29,2.84.99.64.64.99,1.62.99,2.67v10.15c0,.99-.41,1.91-1.04,2.61Zm-29.23,7.37h-7.71v3.07h7.71v-3.07Zm0,6.96h-7.71v3.13h7.71v-3.13Zm0,7.02h-7.71v3.94l7.71-.52v-3.42Zm22.68-33.64h-30.1v2.55h30.1v-2.55Zm0,6.61h-30.1v2.67h30.1v-2.67Zm10.79,39.5h-6.9c-.41,0-.75-.06-1.04-.41l-4.64-4.76-4,4.76c-.29.35-.75.41-1.22.41h-5.97c-.41,0-.7-.64-.41-.99l7.25-8.58-6.61-6.79c-.23-.23-.12-.81.23-.81h6.73c.58,0,1.04.12,1.45.52l2.2,2.26,4.12-4.87h-14.09c-.35,0-.7-.29-.7-.7v-2.67c0-.35.35-.7.7-.7h20.3c.58,0,.81.41.81.93v3.65c0,.52-.23.99-.46,1.28l-6.32,7.54,8.87,9.05c.29.29.12.87-.29.87Z"/><path class="cls-1" d="m142.5,178.37h-21.75v2.9h18.39c.41,0,.64.29.64.64v2.61c0,.35-.29.64-.64.64h-44.02c-.35,0-.7-.29-.7-.58v-2.73c0-.35.35-.58.7-.58h18.21v-2.9h-21.69c-.35,0-.7-.29-.7-.58v-2.73c0-.35.35-.58.7-.58h21.69v-3.02c0-.35.35-.7.7-.7h6.03c.29,0,.7.35.7.7v3.02h21.75c.41,0,.64.29.64.64v2.61c0,.35-.29.64-.64.64Zm-.29,28.36h-50.4c-.35,0-.75-.29-.75-.58v-2.73c0-.35.35-.58.7-.58h11.25l-1.8-3.54h-3.36c-.87,0-1.62-.29-2.26-.81-.7-.58-1.16-1.45-1.16-2.55v-5.22c0-.81.35-1.57.93-2.09.64-.64,1.51-.99,2.49-.99h37.99c.93,0,1.8.29,2.49.87.7.58,1.16,1.45,1.16,2.61v4.81c0,1.1-.41,1.91-1.04,2.49s-1.57.87-2.61.87h-2.96l-1.8,3.54h11.14c.41,0,.64.29.64.64v2.61c0,.35-.29.64-.64.64Zm-3.36,13.86c-.64.75-1.62,1.04-2.96,1.04h-38.4c-.81,0-1.57-.29-2.09-.75-.64-.58-.99-1.33-.99-2.26v-6.73c0-.75.29-1.33.75-1.86.58-.58,1.51-.99,2.44-.99h38.28c1.04,0,1.91.23,2.49.7.75.52,1.1,1.39,1.1,2.67v6.03c0,.93-.23,1.62-.64,2.15Zm-6.67-29h-30.45v3.77h30.45v-3.77Zm-.29,21.4h-29.87v4.7h29.87v-4.7Zm-22.27-13.69l1.91,3.54h11.02l1.91-3.54h-14.85Z"/><path class="cls-1" d="m197.31,221.58h-11.89c-.58,0-1.04-.06-1.62-.29l-9.8-3.71-8.76,3.71c-.58.23-1.04.35-1.62.35h-11.37c-.29,0-.41-.41-.17-.52l14.56-6.26-9.8-3.65-4.12,7.42c-.17.35-.75.75-1.22.75h-5.74c-.41,0-.75-.58-.58-.93l9.16-16.59c.23-.41.52-.7.93-.7h6.03c.41,0,.75.52.52.93l-.81,1.51h29.99c.41,0,.81.46.81.75v4.76c0,.52-.35,1.04-1.04,1.33l-10.15,4.35,16.94,6.15c.35.12.12.64-.23.64Zm-1.68-47.38c-.23.81-.75,1.51-1.45,1.97-.81.58-1.86.87-3.13.87h-44.72c-.35,0-.75-.29-.75-.58v-3.36c0-.35.41-.58.75-.58h41.18l.29-1.1c.12-.29.46-.7.75-.7h7.31c.29,0,.64.35.52.7l-.75,2.78Zm-.35,17.81h-3.94l4.18,6.73c.23.35-.17.93-.58.93h-5.97c-.46,0-.81-.17-1.04-.52l-4.76-7.71c-.23-.41.12-.93.7-.93h4.76v-3.25h-35.73v3.42h5.74c.58,0,.99.52.7.87l-5.8,7.66c-.23.35-.75.75-1.22.75h-5.74c-.41,0-.81-.58-.58-.93l5.28-7.02h-4.93c-.41,0-.75-.46-.75-.81v-5.28c0-.75.29-1.45.75-2.03.7-.75,1.8-1.22,2.84-1.22h3.94l-1.8-3.25c-.23-.41.12-.87.7-.87h6.32c.46,0,.75.23.99.64l1.91,3.48h6.55l-1.8-3.25c-.23-.41.12-.87.7-.87h6.32c.46,0,.75.23.99.64l1.91,3.48h5.97l1.97-3.48c.17-.41.46-.64.93-.64h6.32c.58,0,.93.46.7.87l-1.8,3.25h2.32c.87,0,1.8.35,2.44.93.7.58,1.16,1.28,1.16,2.32v5.28c0,.46-.29.81-.64.81Zm-36.77,16.12l-.99,1.86h9.34c.41,0,.87.12,1.22.23l5.1,1.86,9.16-3.94h-23.84Zm24.24-7.42c-.23.46-.7.7-1.22.7h-17.69c-.93,0-1.8-.41-2.44-1.04-.64-.64-1.04-1.57-1.04-2.55v-8c0-.41.41-.87.87-.87h5.45c.52,0,.99.41.99.87v7.08h16.01c.35,0,.64.35.46.7l-1.39,3.13Zm-2.09-5.45h-6.03c-.46,0-1.16-.41-1.33-.75l-3.02-4.81c-.23-.35.12-.87.7-.87h5.92c.46,0,1.1.23,1.33.64l3.02,4.87c.17.35-.17.93-.58.93Z"/><path class="cls-1" d="m227.36,199.42h-1.86v17.86c0,1.33-.35,2.44-1.1,3.25-.7.75-1.68,1.16-2.96,1.16h-7.08c-.23,0-.52-.17-.58-.35l-1.62-3.54h-9.86c-.81,0-1.39-.17-1.8-.58-.46-.41-.64-1.04-.64-1.86v-10.21c0-.75.23-1.39.64-1.86.41-.46,1.04-.7,1.8-.7h10.85c.75,0,1.45.17,1.91.64.46.41.7.99.7,1.74v10.67c0,.58-.17,1.04-.46,1.39h2.9v-17.63h-18.85c-.29,0-.7-.29-.7-.58v-2.9c0-.35.29-.58.64-.58h27.96c.41,0,.75.29.75.64v2.78c0,.35-.29.64-.64.64Zm-.35-23.95h-1.57v17.57c0,.41-.23.81-.58.81h-6.03c-.41,0-.7-.46-.7-.81v-17.57h-18.62c-.29,0-.7-.23-.7-.58v-2.9c0-.35.29-.58.64-.58h27.43c.41,0,.75.29.75.64v2.78c0,.35-.29.64-.64.64Zm-11.89,16.47c-.41.46-.99.7-1.74.7h-11.25c-.81,0-1.39-.23-1.8-.58-.35-.41-.52-.99-.52-1.8v-8.87c0-.75.23-1.45.64-1.91.41-.52,1.04-.81,1.86-.81h10.79c.87,0,1.51.29,1.97.75.41.46.64,1.16.64,1.97v8.82c0,.7-.17,1.33-.58,1.74Zm-5.63-9.16h-3.54v5.92h3.54v-5.92Zm.06,23.95h-3.54v7.13h3.54v-7.13Zm40.83,14.96h-5.68c-.41,0-.75-.29-.87-.7l-5.1-17.17-5.28,17.23c-.12.23-.46.64-.75.64h-5.74c-.41,0-.7-.46-.58-.75l9.98-31.44c.12-.46.46-.7.87-.7h4.93v-5.68h-6.21l-2.38,9.69c-.12.35-.46.64-.75.64h-5.74c-.35,0-.64-.52-.52-.93l5.51-21.17c.12-.46.52-.64.93-.64h5.51c.29,0,.46.35.41.58l-1.8,7.31h8.41c1.28,0,2.32.41,2.96,1.1.64.64.99,1.51.99,2.61v7.89c0,.46-.35.75-.7.75h-6.03l-2.44,7.89h3.25c.46,0,.75.29.87.7l6.55,21.29c.17.46-.12.87-.58.87Z"/><path class="cls-1" d="m301.71,220.13c-.75,1.04-2.15,1.68-3.83,1.68h-40.02c-1.33,0-2.55-.52-3.36-1.45-.64-.75-.99-1.74-.99-2.96v-34.68c0-1.1.35-2.03.93-2.78.75-.87,1.91-1.45,3.25-1.45h9.69v-7.02c0-.35.29-.75.58-.75h6.09c.29,0,.64.41.64.75v7.02h6.5v-7.02c0-.35.29-.75.58-.75h6.09c.29,0,.64.41.64.75v7.02h9.57c1.1,0,2.2.35,3.02,1.04.75.64,1.28,1.51,1.28,2.61v35.38c0,1.04-.17,1.91-.64,2.61Zm-34.33-36.94h-6.55v14.44h6.55v-14.44Zm0,19.08h-6.55v14.85h6.55v-14.85Zm13.8-19.08h-6.5v14.44h6.5v-14.44Zm0,19.08h-6.5v14.85h6.5v-14.85Zm13.86-19.08h-6.55v14.44h6.55v-14.44Zm0,19.08h-6.55v14.85h6.55v-14.85Z"/></g></g></svg>