<svg width="750" height="435" viewBox="0 0 750 435" fill="none" xmlns="http://www.w3.org/2000/svg">
<g clip-path="url(#clip0_1104_25259)">
<path d="M174.275 135.529L167.83 136.247C167.223 136.316 166.834 136.177 166.505 135.778L163.706 132.192L152.371 133.467L153.327 142.113L170.32 140.211C170.729 140.161 171.077 140.42 171.137 140.878L171.456 143.687C171.506 144.195 171.147 144.564 170.818 144.594L153.825 146.506L155.04 157.264L175.371 154.983C175.799 154.933 176.128 155.192 176.187 155.66L176.506 158.469C176.556 158.977 176.297 159.336 175.869 159.376L128.286 164.715C127.957 164.755 127.608 164.496 127.578 164.247L127.21 160.93C127.17 160.611 127.429 160.362 127.758 160.322L147.889 158.061L146.673 147.303L129.441 149.235C129.112 149.275 128.764 149.016 128.734 148.767L128.365 145.45C128.325 145.132 128.584 144.883 128.913 144.843L146.185 142.9L145.229 134.254L133.953 135.519L131.991 139.743C131.822 140.161 131.403 140.47 131.124 140.5L124.64 141.227C124.321 141.267 124.062 140.888 124.172 140.619L133.415 120.409L127.668 121.056C127.449 121.086 127.1 120.907 127.07 120.608L126.682 117.191C126.652 116.903 126.841 116.624 127.16 116.594L154.333 113.546C155.489 113.416 156.365 113.496 157.132 113.775C158.088 114.104 158.826 114.861 159.672 115.936L174.554 134.862C174.763 135.131 174.614 135.4 174.335 135.43L174.305 135.509L174.275 135.529ZM152.74 118.297L141.175 119.602L136.015 130.868L160.439 128.118L152.7 118.307H152.74V118.297Z" fill="white"/>
<path d="M229.857 140.48L211.25 142.572L212.594 154.634C212.644 155.023 212.385 155.391 212.056 155.421L206.08 156.088C205.691 156.128 205.423 155.76 205.383 155.441L204.038 143.378L181.825 145.869C181.497 145.908 181.188 145.649 181.158 145.4L180.789 142.083C180.75 141.765 180.949 141.516 181.267 141.476L186.447 140.898L185.242 130.17C185.082 128.845 185.471 127.74 186.218 126.933C186.965 126.086 188.071 125.558 189.306 125.419L201.896 124.005L201.05 116.404L190.212 117.62L186.935 125.17C186.766 125.588 186.497 125.837 186.178 125.877L178.967 126.684C178.638 126.724 178.389 126.345 178.498 126.086L185.401 110.219C185.581 109.87 185.959 109.432 186.288 109.392L193.27 108.605C193.679 108.555 193.868 109.053 193.768 109.382L192.224 112.948L225.354 109.223C225.743 109.183 226.081 109.362 226.151 109.86L226.47 112.779C226.52 113.287 226.171 113.576 225.842 113.615L208.232 115.598L209.098 123.188L224.707 121.435C225.115 121.385 225.354 121.574 225.374 121.903L225.733 125.14C225.783 125.538 225.703 125.758 225.195 125.817L209.586 127.57L210.762 138.119L229.368 136.027C229.777 135.977 230.125 136.236 230.185 136.695L230.504 139.504C230.554 140.012 230.195 140.38 229.866 140.42L229.837 140.46L229.857 140.48ZM202.355 128.407L192.454 129.523L193.649 140.061L203.55 138.946L202.355 128.397V128.407Z" fill="white"/>
<path d="M98.0344 205.086L73.5108 207.845L75.3037 223.902L77.6047 223.454C77.9932 223.414 78.3418 223.663 78.3816 223.991L78.6705 226.621C78.7104 226.94 78.4613 227.259 78.1326 227.298L75.7321 227.757L76.2301 232.149C76.2799 232.538 76.0309 232.936 75.7022 232.976L69.9548 233.624C69.5464 233.673 69.2475 233.265 69.2177 232.936L68.7694 229.052L52.1846 232.04C51.8957 232.07 51.4475 231.831 51.4077 231.582L51.1188 228.952C51.079 228.633 51.3579 228.275 51.6866 228.235L54.0871 227.787L52.1149 210.295L49.6446 210.574C49.3159 210.614 48.9673 210.355 48.9374 210.106L48.6286 207.377C48.5887 207.058 48.8876 206.799 49.2163 206.769L97.4866 201.35C97.895 201.301 98.2436 201.56 98.2834 201.878L98.5723 204.508C98.6121 204.827 98.3631 205.146 98.0344 205.185V205.116V205.086ZM93.3926 198.541C92.8348 199.229 92.1276 199.747 91.2411 199.836L54.9936 203.9C54.0174 204.01 53.0811 203.711 52.3539 203.143C51.6766 202.596 51.2483 201.779 51.1487 200.763L50.0629 191.19C49.9534 190.144 50.1825 189.278 50.7004 188.601C51.2682 187.883 52.1647 187.375 53.3799 187.246L89.0198 183.242C90.1355 183.112 91.1116 183.291 91.8288 183.869C92.5061 184.417 92.9444 185.313 93.054 186.28L94.1397 195.892C94.2493 196.828 93.9505 197.735 93.4424 198.492L93.4126 198.532L93.3926 198.541ZM66.4485 208.642L59.1572 209.459L59.4759 212.377L66.7872 211.56L66.4485 208.652V208.642ZM67.1956 215.226L59.8843 216.043L60.233 219.031L67.5442 218.214L67.1956 215.226ZM67.9427 221.89L60.6314 222.707L61.0597 226.442L68.3013 225.117L67.9427 221.88V221.89ZM85.8622 187.575L57.3144 190.782L57.5834 193.192L86.1312 189.985L85.8622 187.575V187.575ZM86.5595 193.84L58.0117 197.047L58.3006 199.567L86.8284 196.37L86.5595 193.85V193.84ZM100.983 230.137L94.4385 230.864C94.0301 230.914 93.7114 230.904 93.4225 230.576L88.5317 226.561L85.2447 231.492C85.0056 231.841 84.5673 231.97 84.139 232.02L78.4912 232.657C78.0828 232.707 77.774 232.12 77.9932 231.761L83.9498 222.856L76.9672 217.118C76.7281 216.929 76.778 216.371 77.1067 216.332L83.4617 215.624C84.0095 215.565 84.4578 215.624 84.8861 215.973L87.2269 217.895L90.5936 212.855L77.2262 214.359C76.8975 214.399 76.5488 214.14 76.509 213.782L76.2201 211.261C76.1803 210.943 76.4791 210.574 76.8078 210.534L96.0622 208.373C96.5901 208.313 96.859 208.682 96.9188 209.15L97.2973 212.606C97.3471 213.114 97.1877 213.562 96.9985 213.881L91.8487 221.71L101.222 229.34C101.551 229.589 101.431 230.147 101.033 230.197L100.983 230.127V230.137Z" fill="white"/>
<path d="M150.996 182.993L130.367 185.313L130.676 188.043L148.088 186.09C148.496 186.041 148.745 186.309 148.765 186.638L149.064 189.118C149.084 189.447 148.835 189.766 148.506 189.806L106.75 194.487C106.431 194.527 106.073 194.268 106.043 194.019L105.744 191.429C105.724 191.101 106.023 190.842 106.352 190.812L123.624 188.879L123.315 186.14L102.766 188.451C102.437 188.491 102.088 188.232 102.059 187.983L101.76 185.393C101.74 185.064 102.039 184.805 102.367 184.776L122.917 182.465L122.588 179.626C122.568 179.297 122.847 178.938 123.166 178.899L128.893 178.251C129.172 178.221 129.56 178.51 129.61 178.829L129.919 181.678L150.548 179.357C150.956 179.307 151.185 179.576 151.225 179.905L151.504 182.385C151.544 182.704 151.295 183.032 150.966 183.062L150.996 182.983V182.993ZM153.725 209.917L105.913 215.286C105.585 215.325 105.156 215.076 105.126 214.827L104.848 212.228C104.808 211.909 105.107 211.65 105.435 211.62L116.083 210.425L114.022 207.267L110.804 207.636C109.987 207.725 109.24 207.516 108.573 207.118C107.866 206.65 107.308 205.873 107.188 204.827L106.631 199.896C106.541 199.139 106.78 198.392 107.318 197.814C107.856 197.137 108.643 196.719 109.579 196.619L145.617 192.565C146.484 192.465 147.351 192.665 148.078 193.133C148.785 193.601 149.343 194.378 149.472 195.493L149.99 200.065C150.1 201.111 149.801 201.908 149.293 202.546C148.735 203.163 147.908 203.542 146.892 203.661L144.073 203.98L142.759 207.516L153.307 206.331C153.716 206.281 153.965 206.55 153.984 206.879L154.283 209.359C154.303 209.688 154.054 210.006 153.725 210.046V209.937V209.917ZM151.992 223.414C151.454 224.201 150.538 224.559 149.283 224.709L112.896 228.793C112.129 228.882 111.392 228.673 110.824 228.294C110.157 227.826 109.758 227.139 109.659 226.233L108.942 219.868C108.872 219.14 109.091 218.573 109.469 218.025C109.958 217.427 110.794 216.929 111.661 216.83L147.948 212.756C148.924 212.646 149.771 212.766 150.399 213.134C151.176 213.552 151.594 214.349 151.723 215.535L152.361 221.262C152.47 222.119 152.321 222.836 151.992 223.344V223.414V223.414ZM142.569 196.619L113.693 199.866L114.091 203.432L142.948 200.195L142.559 196.629L142.569 196.619ZM144.562 216.959L116.233 220.137L116.721 224.609L145.07 221.421L144.571 216.959H144.562ZM121.96 206.341L124.142 209.478L134.571 208.313L136.035 204.757L121.96 206.341V206.341Z" fill="white"/>
<path d="M211.708 217.667L200.452 218.932C199.904 218.991 199.476 218.972 198.868 218.822L189.186 216.342L181.277 220.804C180.749 221.083 180.351 221.233 179.763 221.302L169.005 222.508C168.707 222.547 168.547 222.159 168.756 222.03L181.925 214.529L172.253 212.118L169.145 219.619C169.005 219.958 168.507 220.416 168.079 220.466L162.63 221.083C162.242 221.123 161.854 220.625 161.993 220.276L168.906 203.572C169.075 203.154 169.324 202.865 169.733 202.825L175.44 202.187C175.849 202.138 176.217 202.606 176.048 202.994L175.46 204.518L203.888 201.331C204.297 201.281 204.695 201.679 204.725 201.968L205.223 206.471C205.293 206.969 205.004 207.477 204.406 207.835L195.252 213.055L211.967 217.079C212.295 217.159 212.136 217.677 211.817 217.716L211.698 217.697L211.708 217.667ZM205.094 172.913C204.954 173.699 204.526 174.437 203.928 174.945C203.241 175.562 202.255 175.971 201.04 176.1L158.616 180.871C158.288 180.911 157.879 180.662 157.839 180.413L157.471 177.216C157.451 176.887 157.809 176.628 158.138 176.598L197.195 172.215L197.364 171.14C197.434 170.841 197.723 170.442 198.011 170.412L204.954 169.635C205.253 169.596 205.602 169.894 205.542 170.223L205.104 172.932H205.084L205.094 172.913ZM206.657 189.836L202.912 190.254L207.584 196.181C207.843 196.48 207.504 197.068 207.146 197.107L201.498 197.745C201.069 197.795 200.721 197.645 200.472 197.347L195.143 190.543C194.894 190.165 195.163 189.667 195.701 189.607L200.193 189.109L199.844 186.011L165.967 189.816L166.326 193.053L171.775 192.436C172.302 192.376 172.761 192.834 172.512 193.193L167.81 201.092C167.651 201.43 167.173 201.889 166.744 201.938L161.316 202.546C160.907 202.596 160.489 202.098 160.668 201.749L164.941 194.518L160.26 195.046C159.851 195.095 159.493 194.697 159.443 194.368L158.875 189.368C158.806 188.641 159.025 187.963 159.383 187.376C159.961 186.579 160.947 186.031 161.963 185.921L165.688 185.503L163.656 182.594C163.388 182.226 163.666 181.758 164.214 181.698L170.231 181.021C170.659 180.971 170.958 181.16 171.237 181.529L173.408 184.636L179.624 183.939L177.592 181.031C177.323 180.662 177.592 180.194 178.15 180.134L184.166 179.457C184.594 179.407 184.893 179.596 185.172 179.965L187.343 183.073L192.991 182.435L194.485 178.919C194.595 178.501 194.864 178.252 195.282 178.212L201.299 177.534C201.846 177.475 202.215 177.863 202.036 178.291L200.701 181.569L202.892 181.329C203.719 181.24 204.615 181.469 205.283 181.937C205.99 182.405 206.538 183.033 206.647 184.009L207.215 189.009C207.255 189.448 207.016 189.796 206.687 189.836H206.647H206.657ZM173.498 209.06L172.751 210.933L181.616 209.937C182.004 209.897 182.453 209.957 182.791 210.027L187.812 211.252L196.069 206.53L173.448 209.07H173.488L173.498 209.06ZM195.701 199.418C195.541 199.867 195.133 200.136 194.625 200.195L177.841 202.078C176.944 202.178 176.108 201.869 175.44 201.361C174.753 200.853 174.295 199.996 174.185 199.07L173.338 191.47C173.289 191.081 173.637 190.603 174.076 190.543L179.255 189.966C179.763 189.906 180.231 190.254 180.281 190.693L181.028 197.396L196.238 195.683C196.567 195.643 196.886 195.942 196.726 196.291L195.74 199.388L195.691 199.438L195.701 199.418ZM193.141 194.458L187.433 195.095C186.985 195.145 186.268 194.826 186.088 194.518L182.731 190.264C182.463 189.966 182.731 189.428 183.289 189.368L188.897 188.74C189.326 188.691 189.973 188.84 190.222 189.208L193.589 193.492C193.798 193.8 193.489 194.378 193.151 194.418V194.458H193.141Z" fill="white"/>
<path d="M241.999 192.973L240.235 193.173L242.128 210.136C242.277 211.391 242.068 212.467 241.441 213.343C240.863 214.14 239.986 214.638 238.771 214.768L232.068 215.525C231.848 215.555 231.53 215.405 231.48 215.266L229.557 212.088L220.204 213.134C219.457 213.214 218.86 213.104 218.461 212.776C217.983 212.427 217.724 211.879 217.644 211.082L216.559 201.4C216.469 200.683 216.618 200.046 216.957 199.567C217.316 199.089 217.863 198.81 218.591 198.721L228.88 197.565C229.607 197.486 230.265 197.595 230.793 197.964C231.271 198.312 231.53 198.83 231.619 199.548L232.755 209.668C232.815 210.206 232.695 210.694 232.476 211.052L235.205 210.744L233.333 194.039L215.473 196.041C215.194 196.071 214.795 195.822 214.766 195.573L214.477 192.834C214.437 192.515 214.696 192.266 215.025 192.226L241.51 189.258C241.919 189.208 242.268 189.467 242.307 189.786L242.596 192.416C242.636 192.734 242.387 193.053 242.058 193.093L242.009 192.953L241.999 192.973ZM239.13 170.292L237.656 170.462L239.518 187.136C239.568 187.535 239.379 187.923 239.06 187.953L233.353 188.591C232.944 188.64 232.645 188.232 232.615 187.903L230.733 171.239L213.052 173.221C212.763 173.251 212.385 173.082 212.355 172.753L212.046 170.024C212.006 169.705 212.265 169.456 212.594 169.416L238.612 166.497C239.02 166.448 239.369 166.707 239.409 167.025L239.698 169.655C239.737 169.974 239.488 170.292 239.16 170.332L239.12 170.292H239.13ZM229.597 187.186C229.259 187.664 228.751 187.933 228.023 188.013L217.375 189.208C216.608 189.298 216.021 189.138 215.612 188.86C215.254 188.491 215.015 187.973 214.925 187.216L213.969 178.799C213.899 178.072 214.038 177.405 214.377 176.926C214.736 176.369 215.264 176.06 216.051 175.97L226.28 174.825C227.107 174.735 227.765 174.944 228.233 175.333C228.681 175.721 228.98 176.379 229.069 177.136L229.996 185.493C230.075 186.14 229.966 186.768 229.657 187.206L229.607 187.176L229.597 187.186ZM223.302 179.108L219.955 179.486L220.573 185.104L223.93 184.726L223.292 179.118L223.302 179.108ZM225.882 201.819L222.535 202.197L223.292 208.97L226.649 208.592L225.882 201.829V201.819ZM266.203 211.66L260.815 212.258C260.406 212.307 260.058 212.048 259.898 211.71L253.264 195.972L250.087 212.885C250.007 213.114 249.728 213.543 249.449 213.572L244.001 214.19C243.612 214.23 243.313 213.831 243.383 213.533L249.509 182.664C249.569 182.216 249.868 181.967 250.256 181.927L254.948 181.399L254.33 176L248.453 176.657L247.228 186.09C247.148 186.429 246.849 186.758 246.571 186.788L241.142 187.395C240.813 187.435 240.465 186.967 240.534 186.588L243.503 165.91C243.562 165.461 243.941 165.242 244.319 165.202L249.539 164.615C249.828 164.585 250.007 164.894 249.987 165.113L249.081 172.245L257.039 171.348C258.255 171.219 259.281 171.498 259.968 172.075C260.645 172.623 261.064 173.41 261.173 174.456L262.02 181.947C262.06 182.385 261.771 182.704 261.442 182.744L255.735 183.381L254.27 191.131L257.368 190.782C257.796 190.732 258.125 190.991 258.265 191.34L266.751 210.843C266.99 211.252 266.751 211.68 266.313 211.73L266.184 211.67L266.203 211.66Z" fill="white"/>
<path d="M318.817 191.38L298.586 193.651L299.742 203.98C299.851 204.917 299.652 205.813 299.264 206.55C298.726 207.377 297.929 208.054 296.773 208.184L283.575 209.668C283.575 209.668 283.127 209.608 283.037 209.439L281.254 205.962C281.254 205.962 281.314 205.405 281.593 205.375L292.47 204.15L291.384 194.468L271.293 196.719C270.965 196.759 270.616 196.5 270.586 196.251L270.218 192.934C270.178 192.615 270.437 192.366 270.766 192.326L290.896 190.065L289.831 180.602L272.658 182.525C272.339 182.564 271.981 182.305 271.961 182.056L271.572 178.749C271.552 178.421 271.811 178.172 272.14 178.142L289.352 176.209L288.356 167.464L269.929 169.536C269.6 169.575 269.172 169.326 269.152 169.077L268.783 165.76C268.743 165.442 269.102 165.183 269.431 165.143L306.077 161.029L306.575 158.897C306.645 158.599 306.933 158.2 307.222 158.17L313.926 157.413C314.215 157.383 314.573 157.672 314.494 158.011L313.587 161.906C313.378 162.772 313.079 163.35 312.531 163.848C311.774 164.555 310.718 164.924 309.523 165.063L295.548 166.637L296.544 175.383L313.537 173.47C313.926 173.43 314.294 173.679 314.334 174.147L314.653 176.956C314.703 177.464 314.364 177.823 314.035 177.863L297.042 179.775L298.088 189.248L318.319 186.977C318.727 186.927 319.076 187.186 319.135 187.644L319.454 190.453C319.504 190.961 319.145 191.33 318.817 191.36V191.39V191.38Z" fill="white"/>
<path d="M111.42 142.272L42.5107 150.148L42.9383 153.889L111.847 146.013L111.42 142.272Z" fill="white"/>
<path d="M312.405 119.288L242.012 127.333L242.44 131.074L312.833 123.029L312.405 119.288Z" fill="white"/>
<path d="M324.228 222.733L52.9866 253.733L53.4141 257.474L324.655 226.474L324.228 222.733Z" fill="white"/>
<path d="M175.56 81.8001C174.335 82.2284 173.349 82.1985 172.552 81.6905C171.536 81.0331 170.729 79.5688 170.37 77.6763L170.51 77.6564C171.795 76.3116 173.568 74.3095 173.797 73.5027C174.384 71.2515 172.602 70.4347 170.968 70.3351C170.032 70.3052 169.125 70.3351 168.189 70.4447C167.253 70.5543 166.356 70.7236 165.47 70.9627C163.926 71.4607 162.342 72.6261 163.428 74.688C163.796 75.455 166.027 76.9591 167.571 77.9851L167.731 77.9651C167.761 79.9075 167.362 81.5311 166.505 82.3678C165.828 83.0452 164.882 83.2942 163.587 83.1647C162.89 83.095 162.262 83.593 162.202 84.2704C162.143 84.9477 162.641 85.5952 163.318 85.6549C163.955 85.7247 164.513 85.7346 165.001 85.6748C166.605 85.4856 167.621 84.8082 168.278 84.1309C168.856 83.5731 169.235 82.9256 169.553 82.2184C170.002 82.836 170.52 83.3838 171.197 83.7922C171.954 84.2704 173.139 84.7286 174.743 84.5493C175.271 84.4895 175.809 84.36 176.387 84.1508C177.034 83.9317 177.403 83.1946 177.164 82.5471C176.944 81.8997 176.187 81.5311 175.55 81.7801L175.56 81.8001Z" fill="white"/>
<path d="M193.031 63.8209C192.543 62.7451 192.015 61.0817 189.894 57.3762C184.435 47.8437 175.65 42.7637 165.121 43.9689C154.572 45.1842 147.191 52.1368 144.034 62.6455C142.809 66.7394 142.659 68.4826 142.43 69.6779C140.169 71.9789 137.48 75.9532 138.147 81.7704C139.681 95.1378 154.493 94.6996 152.122 86.7906C149.741 78.8419 148.646 69.3492 150.01 62.8049C150.608 59.7071 151.803 56.7188 153.855 54.2485C156.355 51.2503 160.121 49.0888 165.599 48.4513C171.058 47.8238 175.251 49.1087 178.339 51.4296C180.899 53.3521 182.742 56.0016 184.027 58.8903C186.846 64.9465 187.941 74.4491 187.403 82.7266C186.866 91.0041 201.418 88.0656 199.874 74.6683C199.217 68.8511 195.701 65.5939 192.952 63.8309H193.031V63.8209Z" fill="white"/>
<path fill-rule="evenodd" clip-rule="evenodd" d="M249.559 76.8897L337.922 66.7894L360.134 261.156L26.5157 299.286L4.30298 104.92L92.6657 94.8192C87.7151 51.4995 118.823 12.3633 162.153 7.41276C205.472 2.46222 244.609 33.57 249.559 76.8997V76.8897Z" stroke="white" stroke-width="7.81" stroke-miterlimit="10"/>
<path fill-rule="evenodd" clip-rule="evenodd" d="M109.38 109.88L22.7207 119.781L41.1582 281.137L341.607 246.802L323.17 85.4462L236.67 95.3273L234.757 78.5732C230.743 43.4811 198.928 18.1905 163.836 22.1948C128.744 26.209 103.453 58.024 107.458 93.116L109.37 109.87L109.38 109.88Z" stroke="white" stroke-width="2.99" stroke-miterlimit="10"/>
<path d="M585.22 428.936C673.757 428.936 745.53 357.163 745.53 268.626C745.53 180.089 673.757 108.316 585.22 108.316C496.683 108.316 424.91 180.089 424.91 268.626C424.91 357.163 496.683 428.936 585.22 428.936Z" stroke="white" stroke-width="8.08" stroke-miterlimit="10"/>
<path d="M658.363 151.227C707.23 181.668 733.686 240.835 719.891 300.023C702.549 374.4 628.201 420.639 553.823 403.297C479.446 385.955 433.207 311.607 450.549 237.229C464.445 177.634 514.936 136.107 572.719 130.877" stroke="white" stroke-width="3.41" stroke-miterlimit="10"/>
<path d="M613.808 182.216C611.935 182.196 610.59 181.678 609.754 180.592C608.688 179.198 608.299 176.817 608.738 174.048L608.937 174.098C611.357 172.892 614.744 171.02 615.451 170.034C617.344 167.245 615.322 165.262 613.14 164.336C611.885 163.838 610.63 163.439 609.295 163.131C607.961 162.822 606.656 162.623 605.331 162.523C602.98 162.453 600.251 163.27 600.719 166.617C600.839 167.842 603.16 170.98 604.773 173.141L604.992 173.191C604.086 175.851 602.751 177.883 601.167 178.61C599.922 179.207 598.508 179.088 596.795 178.281C595.868 177.853 594.782 178.231 594.364 179.118C593.956 180.004 594.324 181.14 595.221 181.558C596.057 181.967 596.814 182.246 597.512 182.405C599.793 182.933 601.516 182.505 602.741 181.897C603.797 181.409 604.634 180.722 605.411 179.905C605.719 180.971 606.168 181.967 606.885 182.863C607.692 183.889 609.086 185.094 611.367 185.622C612.114 185.792 612.921 185.881 613.808 185.881C614.804 185.901 615.66 185.064 615.65 184.068C615.67 183.082 614.814 182.216 613.828 182.236L613.808 182.216Z" fill="white"/>
<path d="M646.419 166.189C646.28 164.495 646.36 161.955 645.274 155.869C642.455 140.201 632.952 128.985 617.991 125.499C603 122.012 589.533 127.899 580.11 140.719C576.444 145.709 575.389 148.01 574.502 149.534C570.289 151.576 564.691 155.69 562.758 163.947C558.346 182.933 578.765 189.557 579.383 177.614C580 165.611 583.138 152.114 588.188 143.856C590.509 139.912 593.597 136.416 597.601 134.055C602.472 131.176 608.668 130.071 616.457 131.874C624.217 133.676 629.307 137.472 632.395 142.153C634.954 146.028 636.18 150.54 636.528 155.102C637.425 164.734 634.297 178.241 629.526 189.278C624.764 200.315 646.061 203.382 650.473 184.347C652.406 176.09 649.188 169.924 646.31 166.179L646.419 166.199V166.189Z" fill="white"/>
<path d="M591.943 229.848L586.266 228.513C585.728 228.384 585.439 228.155 585.28 227.716L583.985 223.822L573.984 221.471L572.181 229.091L587.172 232.617C587.531 232.697 587.75 233.016 587.66 233.434L587.083 235.914C586.973 236.363 586.555 236.562 586.266 236.492L571.275 232.966L569.053 242.469L586.993 246.692C587.371 246.782 587.571 247.1 587.481 247.509L586.903 249.989C586.794 250.437 586.465 250.656 586.086 250.567L544.101 240.686C543.813 240.616 543.594 240.297 543.643 240.078L544.331 237.159C544.39 236.871 544.689 236.741 544.978 236.811L562.738 240.984L564.959 231.482L549.759 227.906C549.47 227.836 549.251 227.517 549.301 227.298L549.988 224.38C550.048 224.091 550.347 223.961 550.636 224.031L565.876 227.617L567.679 219.997L557.728 217.656L554.789 220.654C554.511 220.963 554.072 221.093 553.823 221.033L548.106 219.688C547.817 219.618 547.717 219.23 547.887 219.031L561.852 204.687L556.782 203.492C556.582 203.442 556.343 203.193 556.413 202.934L557.12 199.916C557.18 199.667 557.429 199.487 557.708 199.547L581.684 205.185C582.7 205.424 583.427 205.763 583.985 206.231C584.692 206.799 585.09 207.665 585.479 208.831L592.372 229.39C592.471 229.679 592.262 229.868 592.013 229.808L591.963 229.868L591.943 229.848ZM578.895 208.711L568.695 206.311L560.905 214.299L582.451 219.369L578.855 208.701H578.895V208.711Z" fill="white"/>
<path d="M637.594 250.875L621.179 247.011L618.668 257.649C618.589 257.997 618.26 258.226 617.971 258.157L612.702 256.912C612.363 256.832 612.244 256.434 612.304 256.155L614.814 245.516L595.211 240.905C594.922 240.835 594.743 240.526 594.782 240.297L595.47 237.378C595.529 237.09 595.778 236.95 596.057 237.01L600.629 238.086L602.861 228.623C603.13 227.447 603.797 226.631 604.664 226.172C605.55 225.674 606.646 225.565 607.741 225.824L618.858 228.434L620.442 221.73L610.879 219.479L605.809 224.887C605.53 225.196 605.241 225.326 604.952 225.256L598.587 223.762C598.299 223.692 598.199 223.304 598.368 223.105L609.036 211.729C609.295 211.49 609.744 211.231 610.032 211.291L616.198 212.735C616.557 212.815 616.567 213.293 616.387 213.552L613.997 216.112L643.222 222.985C643.561 223.065 643.8 223.324 643.71 223.772L643.102 226.342C642.993 226.79 642.604 226.929 642.316 226.86L626.777 223.204L625.213 229.908L638.989 233.145C639.347 233.225 639.497 233.464 639.417 233.753L638.74 236.611C638.66 236.96 638.521 237.129 638.082 237.02L624.306 233.773L622.105 243.076L638.521 246.941C638.879 247.021 639.098 247.339 639.009 247.758L638.431 250.238C638.321 250.686 637.903 250.885 637.614 250.816L637.584 250.836L637.594 250.875ZM617.921 232.308L609.186 230.256L607.004 239.56L615.74 241.612L617.921 232.308Z" fill="white"/>
<path d="M506.2 265.777L484.565 260.687L481.229 274.851L483.31 275.17C483.649 275.249 483.868 275.578 483.808 275.857L483.261 278.178C483.201 278.467 482.882 278.656 482.603 278.586L480.432 278.248L479.525 282.122C479.446 282.471 479.117 282.73 478.828 282.66L473.758 281.465C473.399 281.385 473.26 280.947 473.34 280.668L474.136 277.242L459.165 274.761C458.916 274.702 458.607 274.363 458.647 274.134L459.195 271.813C459.255 271.524 459.604 271.305 459.892 271.375L462.064 271.713L465.69 256.274L463.508 255.756C463.219 255.686 463 255.368 463.05 255.148L463.618 252.738C463.678 252.449 464.016 252.33 464.295 252.399L506.888 262.42C507.246 262.5 507.465 262.828 507.406 263.107L506.858 265.428C506.798 265.717 506.479 265.906 506.2 265.836L506.22 265.777H506.2ZM504.248 258.814C503.571 259.222 502.814 259.452 502.027 259.262L470.043 251.742C469.186 251.543 468.479 251.005 468.03 250.298C467.622 249.63 467.502 248.803 467.722 247.907L469.694 239.46C469.913 238.544 470.371 237.876 471.019 237.458C471.716 237.02 472.632 236.87 473.708 237.119L505.155 244.52C506.141 244.749 506.918 245.198 507.346 245.905C507.754 246.572 507.854 247.469 507.655 248.325L505.662 256.802C505.473 257.629 504.945 258.306 504.288 258.794L504.258 258.814H504.248ZM478.33 259.222L471.895 257.708L471.278 260.278L477.732 261.792L478.33 259.222V259.222ZM476.965 265.03L470.511 263.516L469.903 266.155L476.348 267.669L476.955 265.03H476.965ZM475.581 270.907L469.136 269.392L468.369 272.7L474.913 273.775L475.591 270.917L475.581 270.907ZM501.17 247.22L475.979 241.293L475.481 243.425L500.672 249.351L501.17 247.22ZM499.865 252.748L474.674 246.821L474.156 249.042L499.327 254.969L499.865 252.748ZM501.11 287.9L495.343 286.535C494.984 286.455 494.716 286.356 494.566 285.987L491.628 281.106L487.345 284.294C487.036 284.523 486.627 284.493 486.249 284.404L481.268 283.228C480.91 283.148 480.82 282.551 481.119 282.322L488.869 276.574L484.685 269.592C484.536 269.353 484.755 268.904 485.034 268.964L490.642 270.289C491.12 270.399 491.488 270.588 491.747 271.016L493.152 273.357L497.534 270.1L485.741 267.331C485.452 267.261 485.233 266.942 485.312 266.623L485.83 264.402C485.89 264.113 486.259 263.894 486.548 263.964L503.541 267.958C504.009 268.068 504.129 268.466 504.029 268.875L503.312 271.923C503.202 272.371 502.923 272.699 502.664 272.909L495.921 277.989L501.569 287.302C501.778 287.611 501.499 288.059 501.15 287.969L501.13 287.9H501.11Z" fill="white"/>
<path d="M557.817 263.068L539.609 258.784L539.041 261.195L554.411 264.811C554.769 264.89 554.899 265.189 554.819 265.478L554.321 267.669C554.242 267.958 553.933 268.148 553.644 268.078L516.799 259.412C516.51 259.342 516.291 259.023 516.34 258.804L516.868 256.513C516.948 256.224 517.277 256.105 517.566 256.175L532.806 259.761L533.374 257.35L515.235 253.087C514.946 253.017 514.727 252.698 514.777 252.479L515.305 250.188C515.384 249.899 515.713 249.78 516.002 249.849L534.141 254.113L534.718 251.603C534.798 251.314 535.147 251.095 535.435 251.164L540.496 252.35C540.745 252.409 540.984 252.768 540.924 253.057L540.326 255.567L558.535 259.85C558.893 259.93 559.003 260.229 558.943 260.518L558.425 262.709C558.365 262.998 558.047 263.187 557.768 263.127L557.817 263.068V263.068ZM551.98 286.735L509.796 276.814C509.507 276.744 509.218 276.415 509.258 276.186L509.806 273.895C509.866 273.606 510.205 273.487 510.484 273.556L519.877 275.768L519.08 272.461L516.241 271.793C515.524 271.624 514.946 271.216 514.508 270.678C514.05 270.07 513.81 269.243 514.03 268.317L515.046 263.964C515.205 263.297 515.623 262.729 516.261 262.4C516.918 261.982 517.715 261.872 518.542 262.071L550.347 269.552C551.114 269.731 551.781 270.16 552.269 270.777C552.727 271.385 552.967 272.212 552.737 273.198L551.801 277.232C551.582 278.148 551.084 278.736 550.456 279.124C549.789 279.473 548.982 279.553 548.086 279.344L545.605 278.756L543.414 281.356L552.728 283.547C553.086 283.627 553.216 283.926 553.136 284.214L552.638 286.406C552.558 286.695 552.249 286.884 551.961 286.824L551.99 286.725L551.98 286.735ZM546.432 297.662C545.735 298.17 544.848 298.199 543.743 297.94L511.639 290.39C510.962 290.231 510.394 289.832 510.025 289.344C509.597 288.737 509.468 288.039 509.657 287.242L510.972 281.625C511.131 280.987 511.49 280.569 511.978 280.22C512.565 279.852 513.432 279.692 514.199 279.871L546.213 287.402C547.07 287.601 547.757 287.97 548.175 288.468C548.703 289.065 548.823 289.862 548.574 290.908L547.379 295.958C547.209 296.725 546.871 297.283 546.432 297.612L546.412 297.672L546.432 297.662ZM546.552 272.082L521.072 266.096L520.335 269.243L545.795 275.24L546.552 272.092V272.082ZM542.079 289.942L517.088 284.065L516.141 288.009L541.153 293.886L542.079 289.942V289.942ZM526.122 274.094L527.019 277.421L536.222 279.593L538.533 277.023L526.112 274.104L526.122 274.094Z" fill="white"/>
<path d="M598.826 310.859L588.895 308.519C588.417 308.409 588.049 308.25 587.581 307.941L580.12 302.901L572.052 304.285C571.524 304.365 571.135 304.365 570.617 304.245L561.135 302.014C560.866 301.954 560.856 301.586 561.065 301.536L574.512 299.165L567.031 294.185L562.121 299.604C561.902 299.853 561.334 300.092 560.965 300.002L556.164 298.876C555.825 298.797 555.646 298.249 555.875 298L566.802 285.917C567.081 285.609 567.37 285.449 567.729 285.529L572.769 286.714C573.127 286.794 573.297 287.312 573.048 287.581L572.092 288.696L597.173 294.603C597.532 294.683 597.761 295.141 597.691 295.39L596.745 299.365C596.655 299.813 596.256 300.151 595.639 300.271L586.286 301.934L599.245 310.411C599.494 310.57 599.205 310.969 598.926 310.909L598.836 310.859H598.826ZM606.765 270.886C606.407 271.514 605.829 272.012 605.161 272.251C604.394 272.57 603.438 272.61 602.362 272.361L564.93 263.565C564.641 263.495 564.372 263.157 564.412 262.938L565.069 260.109C565.149 259.82 565.537 259.71 565.826 259.78L600.291 267.888L600.759 267.022C600.908 266.793 601.277 266.544 601.526 266.603L607.652 268.048C607.921 268.107 608.13 268.456 607.97 268.725L606.775 270.896H606.755L606.765 270.886ZM602.96 285.708L599.653 284.931L601.825 291.376C601.954 291.705 601.496 292.103 601.167 292.023L596.187 290.848C595.808 290.758 595.559 290.529 595.44 290.201L592.979 282.82C592.88 282.421 593.258 282.082 593.736 282.192L597.701 283.128L598.348 280.399L568.456 273.367L567.778 276.225L572.58 277.351C573.048 277.461 573.287 277.989 572.978 278.218L566.593 283.487C566.354 283.726 565.806 283.975 565.438 283.885L560.646 282.76C560.288 282.68 560.079 282.132 560.338 281.883L566.145 277.042L562.021 276.076C561.662 275.996 561.473 275.548 561.533 275.259L562.569 270.847C562.728 270.209 563.117 269.701 563.605 269.313C564.332 268.815 565.338 268.645 566.235 268.854L569.522 269.631L568.685 266.543C568.565 266.145 568.944 265.836 569.432 265.946L574.741 267.191C575.12 267.281 575.319 267.53 575.438 267.928L576.335 271.225L581.823 272.52L580.987 269.432C580.867 269.034 581.246 268.725 581.734 268.835L587.043 270.08C587.421 270.169 587.62 270.418 587.74 270.817L588.636 274.114L593.617 275.289L595.948 272.759C596.167 272.44 596.466 272.311 596.844 272.4L602.153 273.646C602.631 273.755 602.831 274.203 602.552 274.512L600.43 276.893L602.362 277.351C603.1 277.52 603.787 277.989 604.205 278.596C604.663 279.204 604.932 279.911 604.733 280.768L603.697 285.18C603.608 285.559 603.289 285.788 603 285.718H602.96V285.708ZM569.004 291.964L567.808 293.328L575.638 295.171C575.976 295.251 576.335 295.44 576.604 295.599L580.498 298.159L588.935 296.655L568.974 291.964H569.014H569.004ZM590.758 290.519C590.489 290.858 590.061 290.958 589.613 290.848L574.801 287.362C574.014 287.172 573.396 286.664 572.988 286.027C572.56 285.389 572.43 284.523 572.619 283.696L574.203 276.992C574.283 276.644 574.711 276.345 575.11 276.435L579.682 277.51C580.13 277.62 580.429 278.058 580.329 278.437L578.935 284.344L592.352 287.491C592.641 287.561 592.83 287.9 592.581 288.149L590.808 290.479L590.758 290.499V290.519ZM590.091 285.539L585.051 284.354C584.662 284.264 584.144 283.776 584.084 283.457L582.52 278.835C582.381 278.507 582.779 278.128 583.268 278.238L588.218 279.403C588.597 279.493 589.105 279.811 589.204 280.2L590.768 284.852C590.848 285.17 590.419 285.579 590.111 285.499L590.091 285.529V285.539Z" fill="white"/>
<path d="M632.006 299.086L630.452 298.717L626.926 313.678C626.677 314.794 626.169 315.641 625.372 316.188C624.645 316.686 623.738 316.846 622.673 316.587L616.756 315.202C616.557 315.153 616.338 314.943 616.338 314.804L615.67 311.527L607.413 309.584C606.755 309.425 606.277 309.146 606.038 308.758C605.739 308.319 605.689 307.772 605.859 307.074L607.871 298.528C608.01 297.89 608.329 297.392 608.767 297.093C609.215 296.795 609.763 296.725 610.411 296.874L619.485 299.016C620.133 299.165 620.651 299.454 620.989 299.932C621.288 300.371 621.358 300.889 621.218 301.526L619.117 310.451C619.007 310.929 618.748 311.308 618.459 311.537L620.87 312.104L624.336 297.362L608.578 293.657C608.329 293.597 608.07 293.269 608.12 293.049L608.698 290.639C608.757 290.35 609.056 290.221 609.345 290.29L632.713 295.789C633.072 295.868 633.291 296.187 633.231 296.476L632.683 298.797C632.623 299.086 632.305 299.275 632.026 299.205V299.066L632.006 299.086ZM636.439 278.975L635.134 278.666L631.667 293.368C631.588 293.717 631.319 293.996 631.03 293.926L625.99 292.741C625.631 292.661 625.492 292.223 625.571 291.944L629.018 277.232L613.419 273.566C613.17 273.506 612.891 273.237 612.971 272.958L613.539 270.548C613.598 270.259 613.897 270.129 614.186 270.199L637.146 275.598C637.504 275.678 637.723 276.006 637.664 276.285L637.116 278.606C637.056 278.895 636.737 279.084 636.458 279.015L636.439 278.975V278.975ZM623.24 290.42C622.802 290.719 622.294 290.798 621.647 290.649L612.254 288.438C611.576 288.278 611.118 287.969 610.859 287.611C610.67 287.192 610.62 286.684 610.779 286.017L612.522 278.586C612.682 277.949 613.001 277.421 613.439 277.122C613.907 276.763 614.455 276.654 615.152 276.823L624.177 278.945C624.914 279.114 625.402 279.503 625.681 279.971C625.94 280.439 626 281.086 625.84 281.754L624.097 289.125C623.977 289.693 623.689 290.201 623.29 290.479L623.25 290.44L623.24 290.42ZM620.342 281.664L617.393 280.967L616.218 285.917L619.186 286.615L620.342 281.664ZM615.66 301.715L612.712 301.018L611.297 306.995L614.266 307.692L615.66 301.715ZM646.887 322.275L642.136 321.149C641.777 321.069 641.558 320.751 641.528 320.402L640.662 305.042L632.843 318.42C632.703 318.589 632.345 318.868 632.096 318.808L627.294 317.683C626.956 317.603 626.816 317.165 626.966 316.936L641.509 292.601C641.688 292.243 642.027 292.123 642.365 292.203L646.509 293.179L647.625 288.418L642.445 287.202L638.55 294.832C638.381 295.091 638.032 295.281 637.783 295.221L632.992 294.095C632.703 294.026 632.544 293.527 632.713 293.229L641.499 276.584C641.678 276.226 642.066 276.146 642.415 276.235L647.027 277.321C647.276 277.381 647.336 277.7 647.256 277.879L644.327 283.656L651.35 285.31C652.426 285.569 653.203 286.117 653.611 286.814C654.019 287.481 654.139 288.278 653.92 289.204L652.366 295.809C652.276 296.187 651.918 296.376 651.639 296.307L646.599 295.121L643.013 301.247L645.742 301.895C646.12 301.984 646.32 302.293 646.33 302.642L647.625 321.757C647.704 322.175 647.366 322.464 646.987 322.374L646.897 322.284L646.887 322.275Z" fill="white"/>
<path d="M697.658 321L679.808 316.796L677.657 325.91C677.467 326.737 677.029 327.434 676.481 327.942C675.774 328.48 674.897 328.809 673.871 328.57L662.227 325.831C662.227 325.831 661.869 325.641 661.849 325.472L661.39 321.976C661.39 321.976 661.61 321.518 661.859 321.577L671.451 323.838L673.463 315.292L655.743 311.118C655.454 311.049 655.235 310.73 655.284 310.511L655.972 307.592C656.031 307.303 656.33 307.174 656.619 307.244L674.379 311.417L676.342 303.06L661.191 299.494C660.902 299.424 660.683 299.106 660.743 298.886L661.42 295.968C661.5 295.679 661.799 295.55 662.088 295.619L677.278 299.195L679.081 291.476L662.825 287.651C662.536 287.581 662.247 287.242 662.307 287.023L662.994 284.105C663.054 283.816 663.442 283.716 663.731 283.776L696.074 291.386L697.14 289.723C697.289 289.493 697.658 289.244 697.907 289.304L703.824 290.689C704.073 290.748 704.302 291.097 704.132 291.366L702.19 294.394C701.752 295.062 701.314 295.47 700.706 295.719C699.849 296.087 698.833 296.087 697.787 295.838L685.456 292.94L683.653 300.66L698.644 304.186C698.983 304.265 699.222 304.594 699.112 305.002L698.534 307.483C698.425 307.931 698.026 308.13 697.738 308.06L682.747 304.534L680.764 312.891L698.614 317.095C698.973 317.175 699.192 317.493 699.102 317.912L698.525 320.392C698.415 320.84 697.997 321.039 697.708 320.97V321H697.658Z" fill="white"/>
<path d="M536.586 216.494L490.565 205.768L489.797 209.066L535.817 219.793L536.586 216.494Z" fill="white"/>
<path d="M699.256 254.408L651.916 243.374L651.147 246.672L698.487 257.706L699.256 254.408Z" fill="white"/>
<path d="M677.965 345.746L468.097 296.831L467.328 300.129L677.196 349.044L677.965 345.746Z" fill="white"/>
<path d="M627.135 353.711L629.546 364.031L639.417 367.906L630.343 373.384L629.715 383.972L621.697 377.03L611.427 379.709L615.551 369.938L609.833 361.003L620.402 361.899L627.135 353.711Z" fill="white"/>
<path d="M566.593 348.512L569.004 358.842L578.875 362.706L569.801 368.195L569.173 378.773L561.155 371.841L550.895 374.52L555.009 364.748L549.301 355.814L559.86 356.71L566.593 348.512Z" fill="white"/>
<path d="M509.996 326.399L512.406 336.728L522.277 340.593L513.203 346.082L512.576 356.66L504.557 349.727L494.297 352.397L498.421 342.625L492.704 333.7L503.272 334.597L509.996 326.399Z" fill="white"/>
</g>
<defs>
<clipPath id="clip0_1104_25259">
<rect width="750" height="435" fill="white"/>
</clipPath>
</defs>
</svg>
