<?xml version="1.0" encoding="UTF-8"?><svg id="Layer_2" xmlns="http://www.w3.org/2000/svg" viewBox="0 0 329.96 329.96"><defs><style>.cls-1{fill:#fff;}</style></defs><g id="_ÎÓÈ_1"><g><path class="cls-1" d="m202.72,325.65c-12.24,2.85-24.9,4.31-37.78,4.31-44.07-.01-85.49-17.18-116.65-48.35C17.14,250.44-.01,209.01,0,164.94.02,73.97,74.04-.02,165.02,0c44.07.01,85.49,17.18,116.65,48.35s48.3,72.6,48.29,116.67c-.01,44.07-17.18,85.49-48.35,116.65-22.06,22.04-49.26,37.08-78.89,43.98ZM129.38,12.16C59.97,28.32,8.1,90.68,8.08,164.94c-.01,41.91,16.3,81.31,45.93,110.96,29.63,29.64,69.02,45.97,110.93,45.98s81.31-16.3,110.95-45.93c29.64-29.63,45.97-69.02,45.98-110.93.01-41.91-16.3-81.31-45.93-110.96-29.63-29.64-69.02-45.97-110.93-45.98-12.25,0-24.19,1.41-35.64,4.07Z"/><path class="cls-1" d="m196.87,301.86c-10.26,2.39-20.95,3.65-31.92,3.65-37.54,0-72.82-14.64-99.36-41.19-26.54-26.55-41.14-61.84-41.13-99.38.02-60.76,38.76-114.38,96.4-133.43l1.07,3.23C65.67,53.34,27.87,105.66,27.86,164.94c0,36.63,14.25,71.06,40.14,96.97,25.89,25.91,60.32,40.18,96.95,40.19,10.71,0,21.14-1.23,31.15-3.56,60.66-14.12,105.99-68.63,106.01-133.53.01-58.75-37.31-110.94-92.89-129.87l1.1-3.22c56.95,19.4,95.21,72.88,95.19,133.09-.02,66.51-46.48,122.37-108.64,136.84Z"/><g><path class="cls-1" d="m173.26,73.98c-1.84.41-3.27.21-4.33-.66-1.36-1.12-2.28-3.36-2.49-6.17h.2c2.09-1.73,4.97-4.33,5.45-5.45,1.22-3.16-1.22-4.64-3.56-5.04-1.34-.2-2.66-.3-4.04-.3-1.38,0-2.7.1-4.02.3-2.31.47-4.8,1.89-3.58,5.05.4,1.17,3.38,3.72,5.45,5.45h.23c-.28,2.8-1.13,5.09-2.5,6.16-1.08.87-2.49,1.07-4.35.67-1-.21-1.98.41-2.18,1.37-.2.97.42,1.98,1.39,2.19.92.2,1.72.31,2.43.31,2.35,0,3.94-.82,5-1.68.93-.72,1.58-1.58,2.15-2.55.55.97,1.21,1.84,2.12,2.55,1.02.82,2.66,1.68,5.01,1.68.77,0,1.58-.1,2.44-.31.98-.21,1.62-1.22,1.39-2.2-.2-.97-1.24-1.63-2.2-1.37h0Z"/><path class="cls-1" d="m201.49,50.89c-.52-1.63-1.02-4.13-3.47-9.83-6.32-14.68-18.17-23.48-33.59-23.48-15.45,0-27.27,8.83-33.57,23.5-2.45,5.71-2.96,8.21-3.48,9.89-3.65,2.95-8.19,8.26-8.2,16.77,0,19.57,21.48,21.39,19.37,9.57-2.13-11.88-2.13-25.79.92-35.02,1.37-4.38,3.59-8.51,6.97-11.72,4.11-3.92,9.92-6.42,17.94-6.43,8,0,13.84,2.55,17.92,6.42,3.38,3.21,5.61,7.34,6.99,11.72,3.08,9.22,3.08,23.13.94,35.01-2.15,11.88,19.38,10.03,19.36-9.59,0-8.51-4.54-13.81-8.21-16.82h.11Z"/></g><g><g><g><path class="cls-1" d="m162.73,125.54h-5.86c-.55-.02-.89-.18-1.14-.57l-2.15-3.51-10.32-.02-.03,7.87,15.46.04c.37,0,.66.26.66.69v2.55c0,.46-.37.75-.67.75l-15.46-.03v9.79s18.49.04,18.49.04c.39,0,.66.26.66.69v2.56c-.01.46-.28.76-.67.75l-43.3-.1c-.29,0-.59-.26-.59-.49v-3.01c0-.29.27-.49.56-.49l18.32.04v-9.79s-15.67-.04-15.67-.04c-.29,0-.59-.26-.59-.49v-3.02c0-.29.27-.49.56-.49l15.72.04.03-7.87-10.26-.02-2.19,3.6c-.2.36-.6.59-.86.59h-5.9c-.29-.01-.48-.38-.36-.6l10.38-17.21h-5.23c-.2-.01-.49-.21-.49-.47v-3.11c0-.26.2-.49.5-.49l24.73.06c1.05,0,1.83.17,2.49.5.82.39,1.41,1.15,2.06,2.2l11.42,18.53c.16.26,0,.49-.26.49l-.04.07Zm-17.57-17.7l-10.52-.02-5.8,9.59,22.22.05-5.94-9.61h.04Z"/><path class="cls-1" d="m212.15,135.7l-16.93-.04-.03,10.98c0,.36-.27.65-.56.65h-5.44c-.35-.02-.56-.37-.56-.67l.03-10.98-20.21-.04c-.3,0-.55-.26-.55-.49v-3.01c0-.29.21-.49.5-.49h4.72s.02-9.75.02-9.75c0-1.21.46-2.16,1.21-2.81.76-.69,1.8-1.04,2.93-1.04l11.46.03.02-6.91-9.86-.02-3.72,6.45c-.2.36-.46.56-.75.56h-6.56c-.3-.01-.48-.38-.36-.6l7.84-13.55c.2-.29.58-.65.88-.65h6.36c.37.01.49.47.37.77l-1.75,3.05,30.15.06c.35,0,.64.2.65.66v2.66c-.02.46-.37.68-.66.68l-16.03-.03v6.91s14.2.03,14.2.03c.37,0,.57.2.55.49v2.95c0,.36-.1.55-.56.55l-14.21-.03-.03,9.6,16.93.04c.37,0,.66.26.66.69v2.55c0,.46-.37.76-.67.75l-.03.03Zm-23.47-13.68l-9.01-.02v9.6s9,.02,9,.02v-9.6Z"/></g><g><path class="cls-1" d="m87.07,180.18l-22.31-.05-.04,14.61,2.11-.16c.35,0,.64.27.65.56v2.39c0,.29-.27.55-.56.55l-2.2.16v4c0,.36-.27.69-.56.68h-5.23c-.37-.01-.6-.4-.59-.7v-3.54s-15.21.98-15.21.98c-.26,0-.64-.27-.65-.49v-2.39c0-.29.3-.59.59-.59l2.2-.16.03-15.92h-2.25c-.3,0-.59-.27-.59-.5v-2.49c0-.29.3-.49.59-.49l43.93.1c.37,0,.66.26.66.56v2.39c0,.29-.27.55-.56.55v-.07Zm-3.49-6.36c-.57.56-1.26.95-2.07.95l-32.98-.07c-.89,0-1.7-.36-2.3-.95-.55-.56-.85-1.34-.84-2.26v-8.71c.01-.95.31-1.7.84-2.26.58-.59,1.44-.95,2.55-.94l32.43.07c1.01,0,1.87.26,2.46.86.55.56.85,1.41.85,2.3l-.02,8.74c0,.85-.36,1.64-.89,2.26l-.03.03Zm-25.25,6.3l-6.63-.02v2.66s6.64.01,6.64.01v-2.65Zm-.01,5.99h-6.65s0,2.7,0,2.7h6.65s0-2.7,0-2.7Zm-.01,6.06h-6.65s0,3.39,0,3.39l6.64-.44v-2.95Zm19.64-28.98l-25.98-.06v2.19s25.97.06,25.97.06v-2.19Zm0,5.7l-25.98-.06v2.29s25.96.06,25.96.06l.02-2.3Zm9.22,34.09l-5.95-.02c-.37,0-.65-.03-.89-.36l-3.98-4.11-3.46,4.09c-.25.29-.66.36-1.05.36h-5.14c-.37-.01-.59-.57-.36-.87l6.27-7.39-5.69-5.88c-.2-.2-.09-.69.2-.69l5.79.02c.5,0,.89.1,1.25.46l1.9,1.97,3.55-4.19-12.16-.02c-.29,0-.59-.26-.58-.59v-2.29c0-.29.3-.59.6-.59l17.52.04c.48,0,.69.36.69.79v3.15c-.02.46-.21.85-.42,1.11l-5.44,6.5,7.64,7.82c.27.26.11.75-.26.75l-.04-.06Z"/><path class="cls-1" d="m136.93,165.78l-18.78-.04v2.49s15.85.04,15.85.04c.37,0,.57.26.55.56v2.26c0,.3-.26.56-.56.56l-38-.09c-.29,0-.59-.26-.59-.49v-2.36c.01-.3.31-.49.61-.49l15.72.04v-2.49s-18.7-.04-18.7-.04c-.3,0-.59-.26-.59-.49v-2.36c.01-.3.31-.49.61-.49l18.7.04v-2.58c0-.3.3-.59.59-.59h5.21c.26.01.58.31.58.6v2.59s18.76.04,18.76.04c.37,0,.55.26.55.56v2.26c0,.29-.27.56-.56.56l.04-.07Zm-.32,24.47l-43.5-.1c-.3,0-.66-.26-.66-.49l.02-2.36c0-.29.29-.49.59-.49l9.69.02-1.53-3.05h-2.93c-.74,0-1.4-.27-1.95-.7-.59-.49-1.01-1.25-1.01-2.2v-4.49c0-.69.29-1.34.83-1.8.55-.56,1.3-.85,2.15-.84l32.8.07c.79,0,1.54.26,2.15.76.59.49,1.01,1.25,1.01,2.26v4.16c0,.95-.36,1.63-.88,2.16-.57.49-1.35.75-2.27.75h-2.56s-1.55,3.04-1.55,3.04l9.6.02c.37,0,.57.26.55.56v2.26c0,.3-.27.56-.56.56v-.1Zm-2.93,11.95c-.56.66-1.42.88-2.56.88l-33.11-.08c-.7,0-1.34-.27-1.81-.66-.55-.49-.84-1.15-.84-1.97v-5.8c.02-.66.27-1.15.67-1.6.5-.49,1.3-.85,2.1-.85l33.02.07c.88,0,1.64.2,2.17.59.66.46.95,1.21.94,2.3l-.02,5.21c0,.78-.2,1.41-.55,1.83v.06Zm-5.71-25.04l-26.28-.06v3.24s26.25.06,26.25.06l.02-3.25h0Zm-.3,18.48l-25.78-.06-.02,4.07,25.8.05v-4.06Zm-19.2-11.87l1.64,3.05,9.49.02,1.68-3.04-12.81-.03Z"/><path class="cls-1" d="m187.91,203.18l-10.25-.02c-.5,0-.88-.07-1.41-.26l-8.44-3.23-7.57,3.19c-.5.2-.88.29-1.41.29l-9.78-.02c-.28,0-.37-.36-.18-.46l12.6-5.38-8.45-3.16-3.56,6.42c-.16.29-.66.65-1.04.65h-4.96c-.35-.01-.65-.5-.49-.8l7.93-14.3c.2-.36.45-.59.82-.59h5.2c.37.01.66.47.47.8l-.68,1.31,25.87.06c.37,0,.69.39.69.65l-.02,4.1c.01.46-.3.88-.88,1.14l-8.76,3.75,14.6,5.34c.28.1.09.56-.2.56l-.1-.03Zm-1.34-40.89c-.2.69-.66,1.31-1.26,1.7-.68.49-1.61.75-2.71.74l-38.6-.08c-.29,0-.64-.27-.65-.49v-2.91c.01-.3.37-.49.66-.49l35.54.08.26-.95c.1-.26.4-.59.65-.59l6.32.02c.28,0,.56.3.47.59l-.67,2.39h-.02Zm-.34,15.36h-3.41s3.59,5.8,3.59,5.8c.21.29-.16.78-.49.78h-5.14c-.39-.01-.69-.18-.88-.47l-4.09-6.66c-.19-.36.1-.79.6-.79h4.09s0-2.81,0-2.81l-30.83-.07v2.95s4.95,0,4.95,0c.48,0,.84.46.59.76l-5.04,6.61c-.18.29-.65.65-1.04.65h-4.94c-.37-.01-.7-.5-.5-.8l4.58-6.05h-4.26c-.37,0-.66-.4-.66-.7v-4.55c.02-.66.28-1.25.67-1.74.6-.66,1.55-1.05,2.47-1.04h3.39s-1.52-2.81-1.52-2.81c-.21-.36.1-.75.59-.75h5.47c.39.01.64.21.85.57l1.63,3.02h5.66s-1.52-2.81-1.52-2.81c-.21-.36.09-.75.59-.75h5.47c.39.01.64.21.85.57l1.63,3.02h5.14s1.71-3,1.71-3c.14-.36.4-.56.79-.56h5.47c.5.01.79.41.59.77l-1.54,2.81h1.99c.76,0,1.53.31,2.09.8.59.49,1.01,1.12,1.01,2v4.55c-.01.39-.27.69-.56.69h-.04Zm-31.77,13.85l-.86,1.6,8.07.02c.35,0,.75.1,1.05.2l4.39,1.62,7.9-3.39-20.58-.04h.04Zm20.94-6.37c-.19.39-.58.59-1.04.58l-15.28-.03c-.81,0-1.53-.36-2.08-.89-.56-.52-.89-1.34-.9-2.19l.02-6.92c0-.36.35-.75.76-.75h4.72c.46.01.85.37.85.77l-.02,6.1,13.84.03c.3,0,.56.3.38.59l-1.2,2.68-.05.04Zm-1.79-4.72l-5.2-.02c-.4,0-1.02-.36-1.15-.66l-2.58-4.17c-.21-.29.09-.75.59-.75h5.1c.39.01.95.21,1.14.57l2.59,4.2c.15.3-.18.79-.49.78v.04Z"/><path class="cls-1" d="m217.67,184.11h-1.6s-.04,15.43-.04,15.43c0,1.14-.29,2.09-.95,2.81-.6.66-1.44,1.01-2.55,1.01h-6.1c-.2-.01-.47-.18-.5-.31l-1.4-3.05-8.51-.02c-.68,0-1.21-.17-1.53-.5-.39-.36-.57-.88-.56-1.61l.02-8.81c0-.65.19-1.21.55-1.6.37-.4.89-.59,1.56-.59l9.36.02c.66,0,1.24.17,1.68.56.39.36.58.86.58,1.51l-.02,9.21c0,.49-.16.92-.4,1.21h2.49s.03-15.19.03-15.19l-16.25-.04c-.26,0-.59-.26-.59-.49l.02-2.49c0-.29.26-.49.55-.49l24.1.06c.37,0,.66.26.66.56v2.39c0,.29-.27.55-.56.55l-.03-.13Zm-.24-20.67h-1.34s-.04,15.17-.04,15.17c0,.36-.2.69-.5.69h-5.2c-.37-.01-.6-.41-.59-.7l.02-15.17-16.09-.04c-.26,0-.59-.2-.57-.5v-2.49c0-.29.26-.49.55-.49l23.68.05c.37,0,.66.26.66.56v2.39c0,.29-.27.55-.56.55l-.03-.04Zm-10.3,14.2c-.36.39-.84.58-1.5.58l-9.69-.02c-.7,0-1.21-.2-1.55-.49-.28-.36-.45-.86-.45-1.54v-7.66c.02-.66.21-1.25.57-1.64.37-.46.89-.69,1.6-.68l9.31.02c.76,0,1.32.26,1.7.66.36.39.56,1.01.56,1.7l-.03,7.6c0,.59-.16,1.14-.48,1.5l-.04-.03Zm-4.83-7.91h-3.04s-.02,5.1-.02,5.1h3.06s0-5.1,0-5.1Zm-.02,20.67h-3.04s-.02,6.15-.02,6.15h3.06s0-6.15,0-6.15Zm35.22,12.99h-4.9c-.37-.01-.66-.28-.76-.6l-4.34-14.82-4.6,14.86c-.1.19-.39.55-.65.55h-4.96c-.35-.01-.58-.41-.49-.67l8.68-27.1c.1-.39.4-.59.75-.59h4.27s0-4.91,0-4.91h-5.34s-2.07,8.34-2.07,8.34c-.11.3-.4.56-.66.56h-4.94c-.29-.02-.56-.47-.47-.8l4.8-18.27c.1-.39.46-.55.81-.55h4.75c.26.01.39.31.35.5l-1.55,6.32,7.24.02c1.11,0,1.99.37,2.56.95.55.56.85,1.31.84,2.26v6.81c-.02.39-.32.66-.61.66l-5.2-.02-2.11,6.81h2.82c.39,0,.66.27.75.6l5.62,18.39c.18.39-.09.75-.48.75l-.11-.06Z"/><path class="cls-1" d="m286.84,190.59l-18.41-.04-.03,9.4c0,.85-.27,1.64-.69,2.26-.57.69-1.35,1.21-2.4,1.21l-12.01-.03s-.39-.1-.46-.26l-1.25-3.31s.11-.49.37-.49l9.89.02.02-8.81-18.28-.04c-.29,0-.59-.26-.59-.49v-3.02c0-.29.27-.49.56-.49l18.32.04v-8.61s-15.61-.04-15.61-.04c-.29,0-.59-.26-.57-.5v-3.01c0-.3.27-.49.56-.49l15.66.03v-7.96s-16.76-.04-16.76-.04c-.29,0-.66-.26-.65-.49v-3.02c0-.29.36-.49.65-.49l33.35.07.66-1.87c.1-.26.4-.59.65-.59h6.1c.26.01.56.31.45.6l-1.21,3.4c-.28.76-.61,1.25-1.15,1.63-.75.56-1.74.78-2.83.78l-12.71-.03v7.96s15.46.03,15.46.03c.35,0,.66.26.64.69v2.55c0,.46-.36.75-.65.75l-15.46-.03-.03,8.62,18.41.04c.37,0,.66.26.66.69v2.56c0,.46-.37.75-.67.75v.03Z"/></g></g><g><rect class="cls-1" x="58.11" y="125.12" width="47.44" height="3.4"/><rect class="cls-1" x="224.43" y="125.16" width="48.8" height="3.4"/></g><rect class="cls-1" x="56.86" y="219.29" width="216.34" height="3.4"/></g><g><polygon class="cls-1" points="225.33 238.63 230.04 248.18 240.58 249.71 232.95 257.14 234.75 267.63 225.33 262.67 215.9 267.62 217.71 257.13 210.09 249.7 220.62 248.17 225.33 238.63"/><polygon class="cls-1" points="164.96 247.34 169.67 256.88 180.2 258.42 172.58 265.84 174.37 276.34 164.95 271.38 155.53 276.33 157.33 265.84 149.71 258.41 160.25 256.88 164.96 247.34"/><polygon class="cls-1" points="104.59 238.6 109.3 248.14 119.83 249.68 112.21 257.11 114 267.6 104.58 262.64 95.16 267.59 96.96 257.1 89.34 249.67 99.87 248.14 104.59 238.6"/></g></g></g></svg>