<svg width="383" height="758" viewBox="0 0 383 758" fill="none" xmlns="http://www.w3.org/2000/svg">
<path d="M380.804 722.632C379.879 712.105 378.85 701.628 377.668 691.101C375.354 670.737 372.526 650.027 366.922 630.204C366.922 630.105 366.82 630.106 366.768 630.007L366.562 627.941L318.593 610.085L358.285 592.917C361.061 585.785 358.233 578.111 357.051 570.733C355.714 562.469 354.429 554.254 353.092 545.99C350.11 527.445 347.179 508.901 344.197 490.356C341.318 472.5 338.439 454.644 335.56 436.837C332.629 418.833 331.395 398.862 325.483 381.547C324.866 379.776 286.614 370.332 286.614 370.332C286.614 370.332 322.192 349.18 322.09 347.852C318.388 298.563 307.077 249.57 299.519 200.724C293.503 161.863 289.082 122.659 283.272 83.7C282.347 75.5836 281.421 67.5164 280.496 59.4C278.336 40.511 278.85 18.8182 272.372 0.765344C271.292 -2.23526 266.614 4.45455 266.511 5.93026L261.935 23.5895C260.907 26.1474 259.93 28.8038 259.056 31.7061C255.92 42.5279 252.681 53.3006 249.647 64.1224C243.94 84.2412 238.388 104.409 232.784 124.528C227.18 144.647 221.524 164.815 215.92 184.934C212.886 195.805 209.956 206.627 207.334 217.596C205.072 227.09 201.421 236.879 201.729 246.667C201.781 248.635 204.146 249.373 205.534 248.192L233.298 253.013L195.611 284.249C193.452 284.446 191.344 285.774 191.087 288.381C188.979 309.975 186.46 331.57 183.529 353.115C180.701 373.972 176.537 394.927 175.406 415.931L174.635 421.342L203.94 426.458L171.961 441.756L167.025 477.124C161.267 510.18 156.948 543.58 151.549 576.586C144.609 619.136 139.5 652 133.5 685C133.5 686.476 19.0005 666 16.0002 681L0.753906 757.41L379.879 758V757.41C381.267 756.967 382.655 755.885 382.758 754.163C383.683 743.883 381.729 732.815 380.804 722.583V722.632Z" fill="#142D6B"/>
<path d="M168.811 721.798C168.234 714.913 167.592 708.028 166.822 701.208C165.411 687.889 163.614 674.377 160.085 661.445C160.085 661.445 160.021 661.38 159.957 661.316L159.829 659.965L129.932 648.319L154.696 637.123C156.429 632.491 154.696 627.472 153.926 622.646C153.092 617.242 152.258 611.901 151.488 606.496C149.628 594.4 147.767 582.239 145.971 570.143C144.175 558.497 142.378 546.787 140.582 535.141C138.785 523.366 138.016 510.305 134.294 498.981C133.909 497.822 110.043 491.645 110.043 491.645C110.043 491.645 132.241 477.812 132.177 476.975C129.867 444.74 122.81 412.762 118.127 380.848C114.406 355.433 111.647 329.825 107.99 304.345C107.412 299.069 106.835 293.729 106.258 288.453C104.911 276.099 105.231 261.943 101.189 250.105C100.548 248.174 97.5963 252.485 97.5322 253.515L94.7093 265.096C94.0677 266.769 93.4263 268.506 92.9131 270.437C90.9242 277.514 88.9354 284.528 87.0107 291.605C83.4821 304.731 80.0175 317.921 76.4889 331.047C72.9602 344.173 69.4957 357.363 65.967 370.489C64.1065 377.567 62.2458 384.644 60.6419 391.851C59.2304 398.092 56.9209 404.462 57.1776 410.832C57.1776 412.118 58.6531 412.569 59.5513 411.797L76.8738 414.95L53.3921 435.346C52.0448 435.475 50.6979 436.376 50.5696 438.048C49.2223 452.204 47.6822 466.295 45.8216 480.321C44.0252 493.962 41.4591 507.667 40.7534 521.372L40.3042 524.91L58.5892 528.256L38.6361 538.229L35.5567 561.328C31.9639 582.947 29.2693 604.759 25.9331 626.314C21.6346 654.11 14.7057 682.871 14 711.053C14 712.018 14.6414 712.597 15.4113 712.726V713.176L168.233 744.832V744.446C169.132 744.125 169.966 743.417 170.03 742.323C170.607 735.631 169.388 728.361 168.811 721.669V721.798Z" fill="#142D6B"/>
</svg>
