<svg width="414" height="655" viewBox="0 0 414 655" fill="none" xmlns="http://www.w3.org/2000/svg">
<rect x="5" y="356" width="404" height="234" rx="45" fill="#818181" stroke="black" stroke-width="10"/>
<rect x="50" y="92" width="313" height="558" rx="45" fill="#3E665E" stroke="black" stroke-width="10"/>
<path d="M50.0377 573.269H363.096V605C363.096 629.853 342.949 650 318.096 650H95.0377C70.1848 650 50.0377 629.853 50.0377 605V573.269Z" fill="#818181" stroke="black" stroke-width="10"/>
<rect x="50" y="16" width="313" height="100" rx="28" fill="#4C897D" stroke="black" stroke-width="10"/>
<rect x="74" y="414" width="266" height="209" rx="28" fill="#3E665E" stroke="black" stroke-width="10"/>
<rect x="124" y="5" width="26" height="129" rx="13" fill="#818181" stroke="black" stroke-width="10"/>
<rect x="114.13" y="65.5601" width="44.5649" height="37.7023" rx="11" fill="#3E665E" stroke="black" stroke-width="10"/>
<rect x="264" y="5" width="26" height="129" rx="13" fill="#818181" stroke="black" stroke-width="10"/>
<rect x="254.439" y="65.5601" width="44.5649" height="37.7023" rx="11" fill="#3E665E" stroke="black" stroke-width="10"/>
<line x1="30" y1="365" x2="30" y2="424" stroke="black" stroke-width="10" stroke-linecap="round"/>
<line x1="383" y1="365" x2="383" y2="424" stroke="black" stroke-width="10" stroke-linecap="round"/>
<g clip-path="url(#clip0_1091_30238)">
<path d="M112.291 221.217C110.363 221.695 107.984 222.392 105.144 223.307C102.304 224.218 99.2003 225.256 95.8318 226.409C94.3869 226.987 92.8234 227.319 91.1414 227.42C89.4549 227.515 88.133 227.37 87.1713 226.987C86.3052 226.504 85.9178 225.88 86.0135 225.111C86.0135 224.915 86.6152 224.172 87.8185 222.875C89.0219 221.577 90.4896 220.06 92.2217 218.329C96.9349 213.52 101.388 208.615 105.577 203.615C109.766 198.614 113.54 193.732 116.913 188.973C120.282 184.214 123.144 179.669 125.506 175.342C127.862 171.016 129.622 167.072 130.775 163.51C132.024 159.858 132.603 156.538 132.507 153.555C132.411 150.576 131.686 148.504 130.342 147.352C129.667 146.774 128.391 146.801 126.517 147.425C124.64 148.053 122.57 149.082 120.309 150.526C118.044 151.97 115.737 153.65 113.376 155.577C111.015 157.503 108.973 159.471 107.241 161.493C104.064 165.341 103.002 167.791 104.064 168.852C104.447 169.239 104.424 169.526 103.991 169.718C103.558 169.913 102.906 169.959 102.04 169.863C100.112 169.576 99.1547 168.52 99.1547 166.689C99.1547 165.15 100.094 163.082 101.972 160.486C103.85 157.89 106.183 155.436 108.978 153.127C113.6 149.183 118.167 146.491 122.693 145.047C127.219 143.604 130.925 143.654 133.811 145.193C136.409 146.541 137.781 149.328 137.927 153.559C138.072 157.79 136.988 162.891 134.677 168.852C133.523 171.835 131.91 175.224 129.84 179.022C127.771 182.825 125.314 186.86 122.474 191.141C119.635 195.422 116.503 199.844 113.089 204.412C109.67 208.98 106.088 213.479 102.332 217.901C101.561 218.767 101.365 219.149 101.753 219.058C102.136 218.962 102.765 218.821 103.631 218.625C104.497 218.434 105.436 218.243 106.448 218.047C107.46 217.856 108.472 217.687 109.479 217.542C110.491 217.396 111.38 217.277 112.15 217.182C114.365 216.895 116.84 216.749 119.584 216.749C122.329 216.749 125.022 216.845 127.671 217.036C130.319 217.232 132.821 217.542 135.178 217.974C137.535 218.407 139.485 218.912 141.026 219.491C142.084 219.969 143.068 220.547 143.984 221.221C144.896 221.895 145.356 222.469 145.356 222.952C145.356 223.53 144.85 223.817 143.839 223.817C142.827 223.817 141.696 223.53 140.443 222.952C139.481 222.565 138.542 222.232 137.626 221.941C136.71 221.654 135.675 221.413 134.522 221.221C133.368 221.026 132.019 220.907 130.479 220.862C128.938 220.811 127.06 220.789 124.849 220.789H120.086C118.928 220.789 117.944 220.834 117.123 220.934C116.307 221.03 115.56 221.126 114.885 221.221C114.21 221.317 113.39 221.508 112.428 221.8L112.282 221.221L112.291 221.217Z" fill="white"/>
<path d="M153.589 210.254C153.78 208.428 153.999 206.647 154.24 204.917C154.477 203.186 154.696 201.984 154.892 201.31L155.325 198.855L154.026 198.709C153.543 198.614 153.037 198.423 152.508 198.131C151.98 197.844 151.423 197.462 150.849 196.979C148.921 195.344 147.599 193.709 146.879 192.074C146.159 190.439 146.036 188.563 146.519 186.45C146.997 184.045 148.037 181.303 149.623 178.225C151.209 175.146 153.133 172.072 155.398 168.993C157.659 165.915 160.162 163.004 162.906 160.267C165.65 157.526 168.416 155.194 171.206 153.272C176.402 149.811 181.097 148.221 185.282 148.513C189.471 148.8 192.525 150.968 194.448 155.003C195.793 158.081 196.59 162.071 196.832 166.976C197.069 171.881 196.663 177.268 195.606 183.134C194.544 188.809 192.958 195.23 190.843 202.394C188.723 209.558 186.271 216.507 183.477 223.239C178.95 234.396 174.283 241.077 169.469 243.291C168.407 243.769 167.035 244.083 165.353 244.229C163.667 244.375 162.249 244.252 161.096 243.869C159.46 243.386 158.065 242.403 156.907 240.913C155.749 239.42 154.787 237.284 154.017 234.492C153.73 233.431 153.511 231.992 153.365 230.165C153.219 228.339 153.124 226.294 153.078 224.036C153.028 221.777 153.055 219.44 153.151 217.04C153.247 214.636 153.438 212.377 153.73 210.259H153.584L153.589 210.254ZM153.156 191.787C153.347 192.365 153.611 192.967 153.949 193.591C154.286 194.219 154.646 194.743 155.034 195.175C155.416 195.608 155.731 195.872 155.973 195.968C156.21 196.063 156.333 195.922 156.333 195.535C156.333 194.957 156.643 193.996 157.272 192.648C157.896 191.304 158.448 190.389 158.931 189.906C159.409 189.428 159.82 189.137 160.157 189.041C160.494 188.945 161.046 188.895 161.816 188.895C163.835 188.895 164.847 189.378 164.847 190.339C164.847 190.917 164.993 191.254 165.28 191.35C165.376 191.446 165.23 191.783 164.847 192.361C164.364 192.844 164.077 193.754 163.981 195.103C163.598 198.086 163.284 201.283 163.042 204.698C162.801 208.114 162.632 211.429 162.536 214.654C162.441 217.878 162.39 220.834 162.39 223.525C162.39 226.217 162.486 228.38 162.678 230.015C162.965 232.802 163.398 235.207 163.977 237.229C164.556 239.247 165.084 240.258 165.568 240.258C165.95 240.258 166.816 239.584 168.166 238.24C170.86 235.448 173.581 231.318 176.325 225.834C179.069 220.351 181.836 213.283 184.625 204.63C185.783 201.073 186.79 197.776 187.656 194.747C188.522 191.719 189.22 188.859 189.749 186.163C190.277 183.471 190.688 180.848 190.975 178.302C191.262 175.756 191.453 173.229 191.554 170.728C191.745 165.823 191.554 162.025 190.975 159.334C190.396 156.642 189.434 154.524 188.089 152.985C187.319 152.215 186.79 151.76 186.499 151.614C186.211 151.469 185.633 151.35 184.767 151.255C182.168 151.063 179.014 152.338 175.308 155.076C171.603 157.817 167.874 161.784 164.118 166.976C159.979 172.459 156.898 177.414 154.879 181.836C152.855 186.263 152.185 189.578 152.855 191.792H153.142L153.156 191.787Z" fill="white"/>
<path d="M223.183 221.217C221.255 221.695 218.875 222.392 216.036 223.307C213.196 224.218 210.092 225.256 206.723 226.409C205.278 226.987 203.715 227.319 202.033 227.42C200.346 227.515 199.025 227.37 198.063 226.987C197.197 226.504 196.809 225.88 196.905 225.111C196.905 224.915 197.507 224.172 198.71 222.875C199.913 221.577 201.381 220.06 203.113 218.329C207.826 213.52 212.28 208.615 216.469 203.615C220.658 198.614 224.432 193.732 227.805 188.973C231.173 184.214 234.036 179.669 236.397 175.342C238.754 171.016 240.513 167.072 241.666 163.51C242.915 159.858 243.494 156.538 243.398 153.555C243.303 150.576 242.578 148.504 241.233 147.352C240.559 146.774 239.282 146.801 237.409 147.425C235.531 148.053 233.462 149.082 231.201 150.526C228.935 151.97 226.629 153.65 224.268 155.577C221.907 157.503 219.865 159.471 218.132 161.493C214.955 165.341 213.893 167.791 214.955 168.852C215.338 169.239 215.316 169.526 214.882 169.718C214.449 169.913 213.798 169.959 212.932 169.863C211.003 169.576 210.046 168.52 210.046 166.689C210.046 165.15 210.985 163.082 212.863 160.486C214.741 157.89 217.075 155.436 219.869 153.127C224.491 149.183 229.058 146.491 233.585 145.047C238.111 143.604 241.817 143.654 244.702 145.193C247.3 146.541 248.672 149.328 248.818 153.559C248.964 157.79 247.879 162.891 245.568 168.852C244.415 171.835 242.801 175.224 240.732 179.022C238.663 182.825 236.206 186.86 233.366 191.141C230.526 195.422 227.395 199.844 223.981 204.412C220.562 208.98 216.979 213.479 213.223 217.901C212.453 218.767 212.257 219.149 212.644 219.058C213.027 218.962 213.656 218.821 214.522 218.625C215.388 218.434 216.327 218.243 217.339 218.047C218.351 217.856 219.363 217.687 220.371 217.542C221.382 217.396 222.271 217.277 223.042 217.182C225.257 216.895 227.732 216.749 230.476 216.749C233.22 216.749 235.914 216.845 238.562 217.036C241.211 217.232 243.713 217.542 246.07 217.974C248.426 218.407 250.377 218.912 251.918 219.491C252.975 219.969 253.96 220.547 254.876 221.221C255.788 221.895 256.248 222.469 256.248 222.952C256.248 223.53 255.742 223.817 254.73 223.817C253.718 223.817 252.588 223.53 251.334 222.952C250.372 222.565 249.433 222.232 248.517 221.941C247.601 221.654 246.566 221.413 245.413 221.221C244.26 221.026 242.911 220.907 241.37 220.862C239.829 220.811 237.951 220.789 235.741 220.789H230.977C229.82 220.789 228.835 220.834 228.015 220.934C227.199 221.03 226.451 221.126 225.777 221.221C225.102 221.317 224.281 221.508 223.32 221.8L223.174 221.221L223.183 221.217Z" fill="white"/>
<path d="M293.935 221.217C292.007 221.695 289.627 222.392 286.788 223.307C283.948 224.218 280.844 225.256 277.475 226.409C276.03 226.987 274.467 227.319 272.785 227.42C271.098 227.515 269.777 227.37 268.815 226.987C267.949 226.504 267.561 225.88 267.657 225.111C267.657 224.915 268.259 224.172 269.462 222.875C270.665 221.577 272.133 220.06 273.865 218.329C278.578 213.52 283.032 208.615 287.221 203.615C291.41 198.614 295.184 193.732 298.557 188.973C301.925 184.214 304.788 179.669 307.149 175.342C309.506 171.016 311.265 167.072 312.418 163.51C313.667 159.858 314.246 156.538 314.15 153.555C314.055 150.576 313.33 148.504 311.985 147.352C311.311 146.774 310.034 146.801 308.161 147.425C306.283 148.053 304.214 149.082 301.953 150.526C299.687 151.97 297.381 153.65 295.02 155.577C292.659 157.503 290.617 159.471 288.884 161.493C285.707 165.341 284.645 167.791 285.707 168.852C286.09 169.239 286.068 169.526 285.635 169.718C285.201 169.913 284.55 169.959 283.684 169.863C281.755 169.576 280.798 168.52 280.798 166.689C280.798 165.15 281.737 163.082 283.615 160.486C285.493 157.89 287.827 155.436 290.621 153.127C295.243 149.183 299.81 146.491 304.337 145.047C308.863 143.604 312.569 143.654 315.454 145.193C318.052 146.541 319.424 149.328 319.57 153.559C319.716 157.79 318.631 162.891 316.32 168.852C315.167 171.835 313.553 175.224 311.484 179.022C309.415 182.825 306.958 186.86 304.118 191.141C301.278 195.422 298.147 199.844 294.733 204.412C291.314 208.98 287.731 213.479 283.975 217.901C283.205 218.767 283.009 219.149 283.396 219.058C283.779 218.962 284.408 218.821 285.274 218.625C286.14 218.434 287.079 218.243 288.091 218.047C289.103 217.856 290.115 217.687 291.123 217.542C292.134 217.396 293.023 217.277 293.794 217.182C296.009 216.895 298.484 216.749 301.228 216.749C303.972 216.749 306.666 216.845 309.314 217.036C311.963 217.232 314.465 217.542 316.822 217.974C319.178 218.407 321.129 218.912 322.67 219.491C323.727 219.969 324.712 220.547 325.628 221.221C326.54 221.895 327 222.469 327 222.952C327 223.53 326.494 223.817 325.482 223.817C324.47 223.817 323.34 223.53 322.086 222.952C321.124 222.565 320.185 222.232 319.269 221.941C318.353 221.654 317.318 221.413 316.165 221.221C315.012 221.026 313.663 220.907 312.122 220.862C310.581 220.811 308.703 220.789 306.493 220.789H301.729C300.572 220.789 299.587 220.834 298.767 220.934C297.951 221.03 297.203 221.126 296.529 221.221C295.854 221.317 295.033 221.508 294.072 221.8L293.926 221.221L293.935 221.217Z" fill="white"/>
<path d="M184.046 298.729C168.389 298.729 158.662 287.945 158.662 270.598C158.662 253.251 168.389 242.471 184.046 242.471C199.704 242.471 209.44 253.246 209.44 270.598C209.44 287.95 199.708 298.729 184.046 298.729ZM184.046 251.671C169.975 251.671 167.865 263.534 167.865 270.598C167.865 277.662 169.975 289.521 184.046 289.521C198.118 289.521 200.223 277.671 200.223 270.598C200.223 263.525 198.127 251.671 184.046 251.671Z" fill="white"/>
<path d="M243.822 298.729C228.16 298.729 218.429 287.945 218.429 270.598C218.429 253.251 228.16 242.471 243.822 242.471C259.484 242.471 269.216 253.246 269.216 270.598C269.216 287.95 259.489 298.729 243.822 298.729ZM243.822 251.671C229.747 251.671 227.641 263.534 227.641 270.598C227.641 277.662 229.742 289.521 243.822 289.521C257.903 289.521 260.004 277.671 260.004 270.598C260.004 263.525 257.903 251.671 243.822 251.671Z" fill="white"/>
<path d="M152.814 292.331C152.814 292.331 145.32 249.366 144.687 247.235C144.035 245.022 142.294 243.683 140.151 243.451C137.995 243.218 135.807 243.218 133.906 243.451C131.883 243.696 130.269 244.99 129.49 246.73C128.847 248.173 122.607 269.414 120.455 276.76C119.731 279.238 119.731 283.177 119.731 283.177C119.731 283.177 119.731 279.238 119.006 276.76C116.868 269.414 110.619 248.169 109.971 246.73C109.201 244.99 107.588 243.692 105.564 243.451C103.649 243.218 101.466 243.218 99.319 243.451C97.1767 243.683 95.44 245.022 94.7836 247.235C94.1455 249.366 86.6609 292.331 86.6609 292.331C86.2097 294.836 87.8734 297.231 90.3713 297.678C92.8783 298.124 95.2713 296.462 95.7226 293.966C95.7226 293.966 101.876 259.805 102.318 257.336C102.765 254.859 102.619 252.222 102.619 252.222C102.619 252.222 102.774 254.8 103.508 257.273C114.115 293.196 114.133 293.092 114.685 294.471C115.355 296.179 117.205 297.559 119.092 297.751C119.288 297.769 119.498 297.778 119.726 297.782C119.954 297.773 120.173 297.769 120.364 297.751C122.256 297.555 124.097 296.179 124.781 294.471C125.319 293.092 125.337 293.196 135.949 257.273C136.678 254.8 136.846 252.222 136.846 252.222C136.846 252.222 136.701 254.859 137.138 257.336C137.589 259.809 143.738 293.966 143.738 293.966C144.194 296.462 146.592 298.124 149.09 297.678C151.601 297.236 153.265 294.836 152.814 292.331V292.331Z" fill="white"/>
<path d="M317.51 243.459C315.131 242.544 312.473 243.742 311.561 246.124C311.561 246.124 299.537 277.53 296.921 284.502C296.374 285.955 296.396 287.453 296.374 287.517C296.355 287.453 296.374 285.959 295.827 284.498C293.21 277.511 281.186 246.124 281.186 246.124C280.279 243.742 277.617 242.544 275.237 243.459C272.858 244.361 271.668 247.021 272.571 249.398C272.571 249.398 288.985 292.859 289.773 294.494C290.585 296.17 292.321 297.254 294.076 297.459C294.491 297.509 295.644 297.595 296.369 297.595C297.094 297.595 298.247 297.504 298.662 297.459C300.417 297.258 302.158 296.17 302.965 294.494C303.753 292.864 320.172 249.398 320.172 249.398C321.074 247.016 319.885 244.357 317.505 243.459H317.51Z" fill="white"/>
<path d="M101.639 327.125L104.101 338.784L122.789 338.715L125.164 327.038L133.423 327.007L131.048 338.684L140.311 338.652L140.333 345.319L86.6062 345.515L86.5834 338.848L95.8457 338.816L93.3842 327.157L101.644 327.125H101.639ZM117.511 309.482L117.533 316.318L138.889 316.24L138.911 322.908L87.8552 323.095L87.8324 316.427L109.187 316.35L109.165 309.514L117.506 309.482H117.511ZM94.4645 349.573L132.507 349.436L136.691 352.761L136.824 388.507L132.667 391.863L94.6241 392L90.4397 388.675L90.3075 352.929L94.4645 349.573V349.573ZM128.359 356.117L98.6581 356.226L98.6991 367.48L128.4 367.371L128.359 356.117ZM128.464 385.205L128.423 374.038L98.7219 374.147L98.7629 385.314L128.464 385.205Z" fill="white"/>
<path d="M260.204 390.647L210.735 390.825L207.047 385.92L249.201 324.17L206.573 324.324L206.55 317.657L229.077 317.575L229.045 308.908L237.386 308.876L237.418 317.543L256.189 317.475L259.794 322.38L217.722 384.13L260.186 383.976L260.209 390.643L260.204 390.647Z" fill="white"/>
<path d="M289.349 323.359L276.167 323.409L276.204 333.829L284.627 333.797L288.812 337.031L288.998 388.206L284.841 391.554L277.918 391.581L277.895 384.914L280.648 384.904L280.484 340.396L276.231 340.41L276.404 388.252L272.247 391.599L265.825 391.622L265.802 384.955L268.054 384.945L267.83 323.432L265.579 323.441L265.556 316.773L273.232 316.746L273.204 308.744L281.546 308.712L281.573 316.714L289.331 316.687L289.354 323.354L289.349 323.359ZM319.465 322.667L295.521 322.753L291.337 319.433L291.296 308.762L299.637 308.731L299.665 316.067L319.433 315.995L319.456 322.662L319.465 322.667ZM319.607 361.842L314.433 361.86L315.769 384.859L319.607 384.845L319.629 391.513L311.789 391.54L307.692 388.302L304.66 335.218L300.572 335.232L300.754 384.909L305.344 384.891L305.367 391.558L296.606 391.59L292.422 388.265L292.217 331.925L296.374 328.573L310.303 328.523L310.29 324.689L318.631 324.657L318.659 331.907L314.497 335.172H312.911L314.068 355.179L319.575 355.161L319.598 361.828L319.607 361.842Z" fill="white"/>
<path d="M153.949 383.861L150.89 383.87L150.913 389.613L157.568 389.59L161.379 386.849L165.672 368.96L158.024 368.7L153.949 383.861Z" fill="white"/>
<path d="M206.719 364.934L206.696 359.191L179.251 359.291L179.233 354.805L182.524 354.792L184.981 352.815L184.99 354.787L203.428 354.719L206.669 351.372L206.628 339.704L199.954 339.726L199.986 348.061L195.146 348.079L197.858 336.566L206.532 336.534L206.509 329.867L194.662 329.907L197.625 318.809L190.952 318.832L188.071 329.93L185.856 329.939L185.82 319.387L182.392 316.737L178.408 316.75L178.381 308.831L171.548 308.853L171.575 316.773L168.161 316.787L164.756 319.465L164.793 330.017L155.594 330.049L158.557 318.95L151.884 318.973L149.003 330.071L145.584 330.085L145.607 336.752L152.28 336.73L149.568 348.243L145.899 348.256L145.922 354.924L164.36 354.856L165.987 353.175L167.751 354.842L171.589 354.828L171.607 359.314L145.689 359.41L145.712 365.153L171.63 365.057L171.726 391.831L179.374 391.804L179.279 365.03L206.723 364.929L206.719 364.934ZM191.349 336.593L188.636 348.106L185.92 348.115L185.879 336.611L191.349 336.593V336.593ZM160.914 348.206L156.073 348.225L158.785 336.711L164.811 336.689L164.825 339.854L160.882 339.868L160.914 348.202V348.206ZM179.092 349.349L171.694 349.377L171.653 338.556L179.051 338.529L179.092 349.349ZM178.991 322.215L179.028 331.784L171.63 331.811L171.593 322.243L178.991 322.215Z" fill="white"/>
<path d="M196.932 383.706L192.748 368.573L185.099 368.887L189.525 386.749L193.359 389.463L200.014 389.436L199.991 383.693L196.932 383.706Z" fill="white"/>
</g>
<defs>
<clipPath id="clip0_1091_30238">
<rect width="241" height="248" fill="white" transform="translate(86 144)"/>
</clipPath>
</defs>
</svg>
