<svg width="460" height="347" viewBox="0 0 460 347" fill="none" xmlns="http://www.w3.org/2000/svg">
<g clip-path="url(#clip0_277_79008)">
<rect x="-21" y="146" width="587" height="209" fill="#A5E4D0"/>
<path d="M650 165H29" stroke="#42BAA7" stroke-width="5" stroke-miterlimit="1.10814" stroke-linecap="round" stroke-dasharray="2 4 6 8"/>
<path opacity="0.45" d="M507 165H29" stroke="#42BAA7" stroke-width="5" stroke-miterlimit="1.10814" stroke-linecap="round"/>
<path d="M94.6432 255.914L87.7119 246.519C77.8333 246.519 69.8242 213.177 69.8242 203.313V81.8513C69.8242 71.9928 77.8333 64 87.7119 64H94.6432C104.522 64 112.531 71.9928 112.531 81.8513V254.451C112.531 264.309 104.522 255.914 94.6432 255.914Z" fill="#41BAA6"/>
<path d="M237.515 223.652H88.5495C78.3432 223.652 70.0693 231.909 70.0693 242.094V242.1C70.0693 252.285 78.3432 260.542 88.5495 260.542H237.515C247.721 260.542 255.995 252.285 255.995 242.1V242.094C255.995 231.909 247.721 223.652 237.515 223.652Z" fill="#41BAA6"/>
<path d="M76.5204 67.9302L22.9697 86.6072L49.5714 310.1L215.219 337.611L251.198 253.34L91.1748 244.363" fill="#41BAA6"/>
<path d="M41.2356 85.8374H29.7225C13.3072 85.8374 0 99.1175 0 115.499V317.333C0 333.715 13.3072 346.995 29.7225 346.995H41.2356C57.6509 346.995 70.9582 333.715 70.9582 317.333V115.499C70.9582 99.1175 57.6509 85.8374 41.2356 85.8374Z" fill="#338B7D"/>
<path d="M187.843 286H-2.84254C-22.8118 286 -39 299.655 -39 316.5C-39 333.345 -22.8118 347 -2.84254 347H187.843C207.812 347 224 333.345 224 316.5C224 299.655 207.812 286 187.843 286Z" fill="#338B7D"/>
</g>
<defs>
<clipPath id="clip0_277_79008">
<rect width="460" height="347" fill="white"/>
</clipPath>
</defs>
</svg>
