<svg width="460" height="347" viewBox="0 0 460 347" fill="none" xmlns="http://www.w3.org/2000/svg">
<g clip-path="url(#clip0_1181_25324)">
<mask id="mask0_1181_25324" style="mask-type:luminance" maskUnits="userSpaceOnUse" x="0" y="0" width="460" height="347">
<path d="M460 0H0V347H460V0Z" fill="white"/>
</mask>
<g mask="url(#mask0_1181_25324)">
<path fill-rule="evenodd" clip-rule="evenodd" d="M49.1577 92H0V146H98V145.99C70.8473 145.458 49 123.28 49 96C49 94.6536 49.0532 93.3196 49.1577 92Z" fill="#A5E4D0"/>
<path d="M566 146H-21V355H566V146Z" fill="#A5E4D0"/>
<path d="M650 165H102C63.3401 165 32 133.66 32 95" stroke="#42BAA7" stroke-width="5" stroke-miterlimit="1.10814" stroke-linecap="round" stroke-dasharray="2 4 6 8"/>
<path opacity="0.45" d="M466 165H102C63.3401 165 32 133.66 32 95" stroke="#42BAA7" stroke-width="5" stroke-miterlimit="1.10814" stroke-linecap="round"/>
<mask id="mask1_1181_25324" style="mask-type:luminance" maskUnits="userSpaceOnUse" x="6" y="116" width="219" height="239">
<path d="M224.335 116H6V355H224.335V116Z" fill="white"/>
</mask>
<g mask="url(#mask1_1181_25324)">
<path d="M174.54 352.071H57.6963C55.3546 352.071 60.2776 352.17 60.2776 349.834L55.4146 349.888C55.4146 304.837 72.3704 252.614 124.326 268.467H130.573C137.513 268.467 143.14 274.08 143.14 281.004L174.545 352.071H174.54Z" fill="white"/>
<path d="M69.9143 283.505C69.9143 283.505 87.4644 273.145 104.28 272.841C146.286 272.079 162.323 341.407 174.541 352.076" fill="white"/>
<path d="M174.541 354.996C173.857 354.996 173.168 354.757 172.614 354.273C168.614 350.782 164.705 342.657 159.757 332.372C154.09 320.603 147.04 305.954 137.898 294.582C127.532 281.697 116.538 275.532 104.34 275.761C88.5231 276.049 71.5821 285.921 71.4124 286.021C70.0194 286.843 68.2219 286.379 67.3981 284.99C66.5743 283.6 67.0336 281.807 68.4266 280.985C69.1706 280.547 86.8454 270.227 104.231 269.912C135.925 269.32 153.446 305.744 165.039 329.837C169.513 339.136 173.377 347.165 176.473 349.87C177.691 350.931 177.816 352.779 176.748 353.994C176.168 354.657 175.355 354.99 174.541 354.99V354.996Z" fill="black"/>
<path d="M69.9147 283.505C69.9147 283.505 48.5301 315.502 57.6971 352.071L69.9147 283.505Z" fill="white"/>
<path d="M57.692 354.999C56.3788 354.999 55.1855 354.113 54.851 352.783C52.1448 341.979 50.4223 324.601 57.5871 303.153C61.8611 290.358 67.2484 282.225 67.4731 281.886C68.3718 280.541 70.1893 280.177 71.5373 281.074C72.8854 281.97 73.2499 283.784 72.3511 285.129C72.1465 285.437 51.8054 316.537 60.5329 351.369C60.9274 352.937 59.9688 354.521 58.401 354.915C58.1614 354.974 57.9216 355.004 57.687 355.004L57.692 354.999Z" fill="black"/>
<path d="M158.878 207.777C166.242 201.785 176.288 198.861 187.932 199.354C198.541 199.773 209.416 205.64 217.38 216.787C228.888 232.875 225.768 265.265 210.54 277.334C202.855 283.41 190.768 287.326 181.621 286.942C179.713 286.857 177.876 286.868 176.103 286.728C165.718 285.881 157.699 282.569 152.243 276.846C145.382 269.683 142.496 258.705 143.675 244.241C143.714 243.798 143.814 242.448 143.839 242.015C144.938 226.529 149.996 215.014 158.883 207.777H158.878Z" fill="black"/>
<path d="M133.09 116.976C161.664 120.393 189.065 136.251 201.972 167.152C207.709 180.885 212.292 204.275 210.286 221.165C210.161 222.255 140.849 200.026 140.849 200.026C138.947 199.692 137.604 198.153 136.295 198.388L125.675 131.585C127.028 128.397 120.383 115.432 133.09 116.976Z" fill="black"/>
<path d="M141.368 296.31C158.164 298.975 181.675 295.055 192.565 277.437C206.245 255.313 204.687 204.399 194.742 172.885C186.224 145.894 159.482 128.043 128.855 123.236C91.8334 117.419 66.4492 128.072 48.2551 155.397C30.765 181.661 25.9518 215.969 26.476 230.309C27.4796 257.903 52.0197 278.344 75.3415 286.433C79.1112 287.738 83.3202 288.969 87.8238 290.084" fill="white"/>
<path d="M151.244 299.951C147.704 299.951 144.234 299.677 140.913 299.15C139.34 298.9 138.272 297.426 138.522 295.857C138.771 294.288 140.249 293.222 141.822 293.471C165.378 297.207 183.053 287.355 190.118 275.929C196.175 266.132 199.555 249.352 199.635 228.671C199.71 209.674 196.853 189.143 191.996 173.752C184.276 149.291 159.912 131.027 128.411 126.076C110.377 123.242 95.3878 124.377 82.5811 129.552C70.0139 134.628 59.5738 143.603 50.6615 156.987C34.1 181.856 28.8075 215.093 29.3617 230.2C30.0458 248.972 44.8198 272.796 76.29 283.714C79.9348 284.979 84.049 286.184 88.5227 287.295C90.0655 287.679 91.0094 289.238 90.6249 290.777C90.2402 292.316 88.6724 293.252 87.1346 292.874C82.4962 291.723 78.2123 290.468 74.4027 289.148C49.8726 280.641 24.6534 259.178 23.605 230.414C23.0208 214.59 28.5529 179.803 45.8633 153.809C55.4347 139.429 66.7386 129.752 80.4191 124.228C94.2198 118.654 110.212 117.399 129.31 120.402C162.987 125.692 189.114 145.471 197.493 172.029C207.663 204.26 209.151 256.095 195.021 278.952C185.795 293.875 167.834 299.957 151.244 299.957V299.951Z" fill="black"/>
<path d="M6.43463 217.14C8.52666 200.983 15.991 189.925 21.7978 185.368C28.7179 179.924 36.3771 177.717 44.3308 179.002C53.9721 180.546 61.6461 185.248 66.5342 192.574C72.3409 201.276 75.6362 216.801 72.1662 234.165C69.3203 248.38 61.4664 259.303 50.3571 263.228C36.5119 268.124 24.0645 260.388 17.0146 253.36C9.21568 245.58 4.49738 232.172 6.43463 217.14Z" fill="black"/>
<path d="M45.8291 152.595C55.3206 138.1 76.8001 115.158 121.691 116.025C142.572 116.438 164.95 125.742 174.137 132.954C198.822 152.345 205.702 179.938 205.911 180.91C206.286 182.534 200.18 211.199 200.18 211.199C200.18 211.199 197.403 185.124 187.882 169.479C174.322 147.195 151.603 142.124 139.331 140.695C116.039 137.985 91.5793 143.887 76.6603 165.34C64.7822 182.415 60.1038 204.071 60.1038 204.071L26.9858 195.813C26.9858 195.813 31.9239 173.842 45.8291 152.595Z" fill="black"/>
<path d="M11.5228 235.097C11.7624 233.612 12.0221 232.113 12.2668 230.684C13.4151 224.318 14.898 217.923 16.6705 211.652L17.0599 210.258C18.1234 206.477 19.2218 202.576 20.7147 198.891C21.4237 197.177 22.8966 195.399 24.9586 195.479C26.3067 195.544 27.4951 195.818 28.5286 196.296C29.5521 196.769 30.8004 197.925 30.9752 200.694C31.0849 202.576 31.06 204.554 31.04 206.442C31.0201 208.096 31.0101 209.784 31.0849 211.418C31.2198 214.85 31.4345 218.017 31.7191 220.996C32.6428 218.097 33.6763 215.093 34.8046 212.05C34.9645 211.642 35.1143 211.218 35.264 210.805C36.3325 207.906 37.436 204.943 38.9138 202.153C39.6179 200.814 41.1856 199.28 43.2577 199.374C44.5359 199.424 45.864 199.728 47.3468 200.275C49.1693 200.968 50.3625 202.956 50.3926 205.316C50.4025 206.442 50.3475 207.593 50.2977 208.688C50.2677 209.306 50.2427 209.914 50.2227 210.531C49.8832 222.505 50.9218 234.11 51.8903 242.882C52.135 245.083 51.4111 248.644 48.4153 248.853C48.1107 248.863 47.8112 248.853 47.5216 248.794C46.9025 248.679 46.3084 248.395 45.7841 247.952C44.421 246.807 43.757 244.774 43.5971 243.384C42.7384 235.425 41.8896 226.973 41.7298 218.526C39.9723 223.696 38.4196 228.981 37.0964 234.305C36.8418 235.301 36.6121 236.307 36.3775 237.298C36.0729 238.553 35.7783 239.828 35.4488 241.093C35.3639 241.462 35.269 241.776 35.1842 242.07C34.6599 243.768 33.177 245.536 31.1349 245.397C30.9801 245.397 30.8104 245.367 30.6306 245.338C30.5857 245.338 30.5458 245.322 30.5008 245.317C30.331 245.272 30.1463 245.233 29.9616 245.163C27.9544 244.431 26.841 242.348 26.4466 240.625C25.428 236.038 24.6491 230.763 24.04 224.563C23.7954 221.888 23.6006 219.227 23.4658 216.613C21.953 222.774 20.7247 228.771 19.836 234.544C19.6712 235.67 19.4964 236.835 19.3217 238.05C19.1619 239.39 18.388 241.024 17.0649 241.676C16.2311 242.099 15.2624 242.05 14.3487 241.606C11.9921 240.431 11.1483 237.433 11.5228 235.092V235.097Z" fill="#59595C"/>
<path d="M144.703 231.172C144.049 234.255 147.434 239.395 151.059 240.152C154.679 240.93 159.797 237.981 160.531 234.529C161.264 231.088 157.444 229.404 153.535 228.572C149.611 227.751 145.362 228.089 144.708 231.172H144.703Z" fill="black"/>
<path d="M107.921 195.169C107.376 195.169 106.827 194.995 106.363 194.636C105.25 193.775 105.05 192.181 105.908 191.076C106.099 190.831 110.686 185.064 118.311 185.616C119.714 185.721 120.767 186.936 120.662 188.336C120.557 189.735 119.344 190.786 117.936 190.682C113.074 190.328 109.963 194.149 109.928 194.184C109.428 194.83 108.675 195.169 107.915 195.169H107.921Z" fill="black"/>
<path d="M189.819 209.779C188.876 209.779 187.966 209.251 187.527 208.349C187.482 208.254 185.416 204.235 181.491 203.951C180.088 203.846 179.034 202.631 179.139 201.231C179.244 199.832 180.468 198.786 181.866 198.885C188.785 199.393 191.981 205.863 192.116 206.137C192.725 207.402 192.19 208.917 190.922 209.525C190.568 209.693 190.194 209.773 189.819 209.773V209.779Z" fill="black"/>
<path d="M129.24 222.586C129.061 222.586 128.881 222.566 128.701 222.525C127.423 222.232 126.629 220.957 126.923 219.682C127.348 217.864 127.034 215.986 126.04 214.402C125.046 212.818 123.494 211.708 121.661 211.284C118.206 210.487 114.691 212.385 113.483 215.707C113.038 216.938 111.675 217.575 110.442 217.126C109.208 216.678 108.57 215.324 109.019 214.093C111.041 208.525 116.943 205.332 122.734 206.671C125.8 207.38 128.407 209.237 130.069 211.897C131.732 214.557 132.256 217.704 131.547 220.758C131.293 221.853 130.314 222.591 129.235 222.591L129.24 222.586Z" fill="#231F20"/>
<path d="M184.877 232.318C184.832 232.318 184.791 232.318 184.746 232.318C183.438 232.248 182.434 231.133 182.504 229.823C182.69 226.38 180.802 223.372 178.111 222.824C176.663 222.53 175.165 222.844 173.897 223.706C172.489 224.662 171.536 226.191 171.216 228.014C170.986 229.304 169.753 230.166 168.465 229.937C167.172 229.708 166.307 228.482 166.537 227.193C167.082 224.104 168.744 221.475 171.22 219.791C173.557 218.202 176.338 217.629 179.054 218.177C184.117 219.203 187.562 224.209 187.243 230.076C187.173 231.341 186.125 232.318 184.871 232.318H184.877Z" fill="#231F20"/>
<path d="M143.38 253.281C143.275 253.281 143.171 253.281 143.066 253.276C139.551 253.161 136.465 251.324 134.607 248.23C133.958 247.149 134.308 245.745 135.392 245.093C136.475 244.445 137.883 244.794 138.537 245.874C139.151 246.896 140.574 248.619 143.216 248.704C146.58 248.798 147.793 245.635 148.164 244.261L149.496 239.016C149.806 237.791 151.054 237.054 152.282 237.362C153.511 237.671 154.249 238.916 153.94 240.142L152.597 245.416C151.284 250.302 147.769 253.276 143.385 253.276L143.38 253.281Z" fill="black"/>
<path d="M156.107 256.056C155.008 256.056 153.77 255.817 152.403 255.2C148.703 253.545 147.23 249.098 148.458 243.305L149.277 239.45C149.542 238.214 150.759 237.428 151.993 237.687C153.231 237.951 154.02 239.161 153.76 240.396L152.942 244.251C152.362 246.976 152.413 250.189 154.28 251.025C156.123 251.853 157.136 251.384 157.81 250.886C158.828 250.139 160.261 250.353 161.015 251.369C161.764 252.385 161.549 253.815 160.531 254.567C159.487 255.333 158.005 256.051 156.112 256.051L156.107 256.056Z" fill="black"/>
<path opacity="0.64" d="M113.188 236.002C112.389 243.992 104.385 249.735 95.3033 248.833C86.226 247.932 79.5056 240.724 80.3044 232.74C81.0983 224.751 89.1069 219.008 98.1893 219.91C107.266 220.811 113.981 228.018 113.188 236.002Z" fill="url(#paint0_radial_1181_25324)"/>
<path opacity="0.64" d="M196.869 254.955C196.17 261.963 189.609 267.049 182.215 266.311C174.82 265.579 169.393 259.304 170.092 252.295C170.791 245.287 177.352 240.202 184.747 240.939C192.141 241.672 197.568 247.947 196.869 254.955Z" fill="url(#paint1_radial_1181_25324)"/>
<path d="M166.443 300.081C174.287 314.266 173.558 329.662 164.815 334.473C156.073 339.285 142.627 331.685 134.783 317.504C126.939 303.319 130.149 294.782 138.892 289.97C147.635 285.159 158.599 285.901 166.443 300.081Z" fill="white"/>
<path d="M158.927 338.816C149.706 338.816 139.096 331.261 132.256 318.893C122.25 300.793 129.58 291.802 137.498 287.449C142.925 284.461 148.558 283.659 153.79 285.133C159.831 286.836 164.939 291.399 168.974 298.691C173.023 306.013 175.07 313.907 174.736 320.931C174.381 328.461 171.35 334.169 166.213 336.999C163.965 338.234 161.504 338.822 158.933 338.822L158.927 338.816ZM148.588 290.169C145.303 290.169 142.376 291.33 140.285 292.485C129.26 298.552 133.31 308.872 137.309 316.109C142.96 326.33 151.938 333.039 158.968 333.039C160.575 333.039 162.079 332.69 163.422 331.953C166.737 330.125 168.709 326.115 168.968 320.657C169.253 314.684 167.456 307.871 163.916 301.47C160.655 295.573 156.716 291.937 152.218 290.672C150.974 290.324 149.756 290.173 148.588 290.173V290.169Z" fill="black"/>
<path d="M78.3178 304.076C78.3178 304.076 77.5539 329.22 105.05 330.744C124.357 331.815 146.606 319.742 157.745 304.076C163.372 296.162 167.327 282.863 160.801 275.885C154.075 268.698 145.881 271.536 134.683 278.813C125.386 284.856 114.146 296.082 101.994 301.785" fill="white"/>
<path d="M107.402 333.732C106.553 333.732 105.713 333.706 104.885 333.662C89.2769 332.795 82.0573 324.747 78.752 318.146C75.2169 311.094 75.3817 304.275 75.3867 303.991C75.4366 302.378 76.7648 301.107 78.4024 301.157C80.0201 301.207 81.2883 302.552 81.2434 304.166C81.2184 305.141 81.0187 326.484 105.204 327.829C122.795 328.801 144.343 317.868 155.348 302.392C160.796 294.731 163.606 283.187 158.648 277.892C154.534 273.498 149.556 272.642 136.27 281.274C132.96 283.426 129.33 286.309 125.48 289.362C118.795 294.672 111.216 300.694 103.227 304.44C101.764 305.127 100.017 304.499 99.3277 303.04C98.6386 301.581 99.2675 299.837 100.73 299.149C108.095 295.693 115.39 289.9 121.826 284.785C125.785 281.642 129.524 278.673 133.064 276.367C143.455 269.613 154.27 264.637 162.927 273.892C170.257 281.727 166.951 296.161 160.121 305.769C154.364 313.863 145.727 321.15 135.796 326.28C126.425 331.121 116.443 333.732 107.391 333.732H107.402Z" fill="black"/>
<path d="M145.467 274.604C149.492 281.025 144.394 287.42 136.679 292.232C128.965 297.043 121.556 298.453 117.531 292.032C113.508 285.612 117.542 277.902 125.256 273.09C132.97 268.279 141.438 268.184 145.462 274.61L145.467 274.604Z" fill="white"/>
<path d="M125.201 299.285C120.897 299.285 117.397 297.322 115.051 293.587C112.634 289.732 112.369 285.185 114.311 280.781C116.004 276.946 119.339 273.335 123.703 270.61C128.057 267.891 132.746 266.511 136.889 266.715C141.603 266.95 145.532 269.201 147.949 273.056C150.415 276.991 150.44 281.29 148.014 285.483C146.136 288.731 142.846 291.833 138.233 294.712C133.654 297.567 129.489 299.1 125.855 299.265C125.63 299.275 125.41 299.28 125.195 299.28L125.201 299.285ZM136.06 272.543C133.224 272.543 129.964 273.604 126.818 275.572C123.438 277.679 120.907 280.368 119.684 283.137C118.515 285.787 118.63 288.257 120.023 290.484C121.352 292.605 123.119 293.542 125.595 293.427C128.171 293.313 131.472 292.043 135.132 289.757C138.871 287.425 141.572 284.935 142.941 282.565C144.269 280.264 144.284 278.231 142.986 276.159C141.578 273.908 139.43 272.697 136.605 272.558C136.425 272.548 136.245 272.543 136.06 272.543Z" fill="black"/>
</g>
</g>
</g>
<defs>
<radialGradient id="paint0_radial_1181_25324" cx="0" cy="0" r="1" gradientUnits="userSpaceOnUse" gradientTransform="translate(96.5217 233.17) rotate(5.66635) scale(16.5401 14.4886)">
<stop offset="0.28" stop-color="#F7A9BD"/>
<stop offset="0.42" stop-color="#F8B4C5"/>
<stop offset="0.69" stop-color="#FAD2DD"/>
<stop offset="1" stop-color="white"/>
</radialGradient>
<radialGradient id="paint1_radial_1181_25324" cx="0" cy="0" r="1" gradientUnits="userSpaceOnUse" gradientTransform="translate(180.77 250.95) rotate(5.66635) scale(13.5145 12.6775)">
<stop offset="0.28" stop-color="#F7A9BD"/>
<stop offset="0.42" stop-color="#F8B4C5"/>
<stop offset="0.69" stop-color="#FAD2DD"/>
<stop offset="1" stop-color="white"/>
</radialGradient>
<clipPath id="clip0_1181_25324">
<rect width="460" height="347" fill="white"/>
</clipPath>
</defs>
</svg>
