<svg width="428" height="1251" viewBox="0 0 428 1251" fill="none" xmlns="http://www.w3.org/2000/svg">
<g clip-path="url(#clip0_1144_27452)">
<path fill-rule="evenodd" clip-rule="evenodd" d="M567 -15H-20V1251H50V134C50 106.386 72.3858 84 100 84H567V-15Z" fill="#A5E4D0"/>
<rect x="30" y="58" width="621" height="1275" rx="70" stroke="#42BAA7" stroke-width="5" stroke-miterlimit="1.10814" stroke-linecap="round" stroke-dasharray="2 4 6 8"/>
<rect opacity="0.45" x="30" y="58" width="621" height="1275" rx="70" stroke="#42BAA7" stroke-width="5" stroke-miterlimit="1.10814" stroke-linecap="round"/>
<path d="M50 115C50 96.2223 65.2223 81 84 81H559C595.451 81 625 110.549 625 147V151H50V115Z" fill="#DAFFE0"/>
<rect x="236" y="127" width="48" height="10" rx="5" fill="#42BAA7"/>
<path d="M59 123C59 103.67 74.67 88 94 88H466C485.33 88 501 103.67 501 123V144H59V123Z" stroke="#42BAA7" stroke-width="3" stroke-miterlimit="1.10814" stroke-linecap="round" stroke-linejoin="round"/>
<mask id="mask0_1144_27452" style="mask-type:alpha" maskUnits="userSpaceOnUse" x="55" y="86" width="373" height="59">
<rect x="55" y="86" width="373" height="59" fill="#D9D9D9"/>
</mask>
<g mask="url(#mask0_1144_27452)">
<path d="M57 115.572C57 100.12 69.5257 87.5947 84.9769 87.5947H439.046C469.949 87.5947 495 112.646 495 143.549V143.549H57V115.572Z" fill="#DAFFE0" stroke="#42BAA7" stroke-width="3" stroke-miterlimit="1.10814" stroke-linecap="round"/>
</g>
<path d="M152.062 93.5862C153.358 94.7622 154.87 96.4422 155.494 97.5942L157.822 95.9622C157.102 94.8342 155.542 93.2262 154.222 92.0982L152.062 93.5862ZM136.342 98.2662V101.002H158.014V98.2662H136.342ZM135.886 105.058L136.606 107.962C139.702 107.338 143.878 106.498 147.766 105.682L147.55 103.066C143.35 103.834 138.79 104.626 135.886 105.058ZM140.902 94.4022V110.578C140.902 110.986 140.758 111.106 140.326 111.106C139.894 111.13 138.502 111.13 137.134 111.058C137.566 111.874 138.046 113.17 138.166 113.986C140.134 113.986 141.55 113.89 142.51 113.434C143.494 112.978 143.806 112.186 143.806 110.626V94.4022H140.902ZM145.822 91.5942C143.35 92.4342 139.606 93.1782 136.222 93.6342C136.558 94.2822 136.918 95.3622 137.062 96.0342C140.542 95.6502 144.646 95.0022 147.766 94.0422L145.822 91.5942ZM148.174 91.6422C148.246 102.418 150.118 114.082 155.086 114.082C157.27 114.082 158.182 113.026 158.638 108.778C157.87 108.466 156.886 107.794 156.286 107.122C156.142 109.978 155.878 111.154 155.374 111.154C153.19 111.154 151.03 101.314 151.198 91.6422H148.174ZM154.702 101.794C152.566 105.754 148.654 109.018 144.55 110.89C145.27 111.538 146.062 112.498 146.494 113.218C150.838 110.914 154.75 107.338 157.246 102.874L154.702 101.794ZM162.838 95.3382V97.8582H167.59V108.97H162.838V111.514H170.206V95.3382H162.838ZM161.158 95.3382V113.29H163.774V95.3382H161.158ZM162.718 101.746V104.242H168.862V101.746H162.718ZM164.566 91.4262C164.446 92.7462 164.11 94.5942 163.774 95.8422L166.078 96.3462C166.558 95.2182 167.158 93.5142 167.71 91.8822L164.566 91.4262ZM173.374 95.1702V97.7862H180.382V95.1702H173.374ZM179.398 95.1702V95.7222C179.134 105.73 178.822 109.858 178.054 110.674C177.742 111.01 177.478 111.106 176.998 111.106C176.398 111.106 174.958 111.082 173.398 110.962C173.926 111.73 174.31 112.954 174.358 113.746C175.75 113.818 177.214 113.842 178.126 113.698C179.11 113.554 179.782 113.29 180.454 112.354C181.438 111.082 181.726 107.266 182.038 96.4662C182.062 96.1062 182.062 95.1702 182.062 95.1702H179.398ZM173.446 91.4502C172.678 94.6422 171.31 97.9062 169.702 99.9222C170.374 100.306 171.55 101.122 172.078 101.602C173.71 99.2982 175.27 95.6502 176.206 92.0982L173.446 91.4502ZM172.27 102.082C173.422 103.858 174.934 106.21 175.582 107.674L178.03 106.186C177.286 104.77 175.702 102.466 174.526 100.81L172.27 102.082ZM184.967 94.3716H190.192L194.623 105.178H194.828L199.26 94.3716H204.484V111.826H200.376V101.105H200.231L196.038 111.715H193.413L189.22 101.045H189.075V111.826H184.967V94.3716ZM223.83 103.099C223.83 105.019 223.461 106.647 222.722 107.982C221.983 109.318 220.983 110.332 219.722 111.025C218.466 111.718 217.057 112.065 215.495 112.065C213.927 112.065 212.515 111.715 211.259 111.017C210.003 110.318 209.006 109.303 208.267 107.974C207.535 106.639 207.168 105.014 207.168 103.099C207.168 101.178 207.535 99.5506 208.267 98.2154C209.006 96.8801 210.003 95.8659 211.259 95.1728C212.515 94.4796 213.927 94.133 215.495 94.133C217.057 94.133 218.466 94.4796 219.722 95.1728C220.983 95.8659 221.983 96.8801 222.722 98.2154C223.461 99.5506 223.83 101.178 223.83 103.099ZM219.517 103.099C219.517 101.963 219.356 101.002 219.032 100.218C218.714 99.4341 218.253 98.8404 217.651 98.437C217.054 98.0336 216.336 97.8319 215.495 97.8319C214.66 97.8319 213.941 98.0336 213.339 98.437C212.736 98.8404 212.273 99.4341 211.949 100.218C211.631 101.002 211.472 101.963 211.472 103.099C211.472 104.235 211.631 105.195 211.949 105.98C212.273 106.764 212.736 107.357 213.339 107.761C213.941 108.164 214.66 108.366 215.495 108.366C216.336 108.366 217.054 108.164 217.651 107.761C218.253 107.357 218.714 106.764 219.032 105.98C219.356 105.195 219.517 104.235 219.517 103.099ZM243.007 103.099C243.007 105.019 242.638 106.647 241.9 107.982C241.161 109.318 240.161 110.332 238.9 111.025C237.644 111.718 236.235 112.065 234.672 112.065C233.104 112.065 231.692 111.715 230.436 111.017C229.181 110.318 228.184 109.303 227.445 107.974C226.712 106.639 226.346 105.014 226.346 103.099C226.346 101.178 226.712 99.5506 227.445 98.2154C228.184 96.8801 229.181 95.8659 230.436 95.1728C231.692 94.4796 233.104 94.133 234.672 94.133C236.235 94.133 237.644 94.4796 238.9 95.1728C240.161 95.8659 241.161 96.8801 241.9 98.2154C242.638 99.5506 243.007 101.178 243.007 103.099ZM238.695 103.099C238.695 101.963 238.533 101.002 238.209 100.218C237.891 99.4341 237.431 98.8404 236.829 98.437C236.232 98.0336 235.513 97.8319 234.672 97.8319C233.837 97.8319 233.118 98.0336 232.516 98.437C231.914 98.8404 231.451 99.4341 231.127 100.218C230.809 101.002 230.65 101.963 230.65 103.099C230.65 104.235 230.809 105.195 231.127 105.98C231.451 106.764 231.914 107.357 232.516 107.761C233.118 108.164 233.837 108.366 234.672 108.366C235.513 108.366 236.232 108.164 236.829 107.761C237.431 107.357 237.891 106.764 238.209 105.98C238.533 105.195 238.695 104.235 238.695 103.099ZM248.642 94.3716L252.546 107.156H252.691L256.594 94.3716H261.316L255.426 111.826H249.81L243.921 94.3716H248.642ZM264.658 93.3942V95.9382H283.81V93.3942H264.658ZM263.314 98.8902V101.458H284.914V98.8902H263.314ZM268.162 106.93V109.09H280.138V106.93H268.162ZM268.162 110.818V113.194H280.138V110.818H268.162ZM272.53 91.4502V94.9062H275.554V91.4502H272.53ZM266.722 102.898V113.986H269.602V105.274H278.89V113.962H281.938V102.898H266.722ZM277.81 95.4582C277.57 96.4422 277.066 97.8102 276.634 98.7462L279.394 99.3942C279.85 98.5782 280.426 97.3782 281.026 96.1542L277.81 95.4582ZM267.706 96.1302C268.234 97.1142 268.714 98.5062 268.834 99.4182L271.834 98.7222C271.666 97.8582 271.162 96.5382 270.538 95.5782L267.706 96.1302ZM287.65 105.13V107.626H309.082V105.13H287.65ZM296.842 103.258V113.962H299.77V103.258H296.842ZM295.954 106.21C294.106 108.418 290.458 110.41 287.002 111.394C287.626 111.97 288.49 113.074 288.922 113.794C292.474 112.522 296.122 110.074 298.306 107.242L295.954 106.21ZM300.634 106.282L298.258 107.386C300.538 110.05 304.234 112.402 307.786 113.602C308.194 112.882 309.082 111.754 309.706 111.178C306.202 110.266 302.53 108.37 300.634 106.282ZM297.082 99.6582H299.506V101.458H297.082V99.6582ZM297.082 95.8662H299.506V97.6422H297.082V95.8662ZM294.682 93.7062V103.618H302.002V93.7062H294.682ZM297.202 91.4262C297.082 92.3862 296.794 93.7062 296.53 94.6662L298.81 95.0742C299.194 94.2342 299.65 93.0102 300.106 91.7622L297.202 91.4262ZM287.434 96.8022C288.634 97.7382 290.17 99.1062 290.842 100.066L292.042 97.8582C291.346 96.9942 289.786 95.7222 288.562 94.8582L287.434 96.8022ZM292.042 99.8262C292.57 101.29 293.074 103.234 293.194 104.434L295.09 103.738C294.946 102.586 294.394 100.714 293.818 99.2742L292.042 99.8262ZM292.378 94.9542C291.418 97.1382 289.69 100.066 288.298 101.866L290.074 102.73C291.49 100.954 293.194 98.1942 294.538 95.8182L292.378 94.9542ZM290.458 91.6182C290.002 93.0582 289.114 95.0262 288.418 96.2742L290.266 97.0422C291.01 95.8422 291.898 94.0422 292.69 92.4102L290.458 91.6182ZM287.386 101.626L287.65 104.002C289.474 103.738 291.634 103.474 293.842 103.138L293.818 101.17C291.37 101.362 289.042 101.53 287.386 101.626ZM301.378 96.5622C302.626 97.6662 304.162 99.2262 304.81 100.306L306.178 98.2182C305.482 97.2342 303.922 95.7702 302.674 94.7382L301.378 96.5622ZM306.106 99.7302C306.73 101.29 307.33 103.33 307.522 104.602L309.538 103.786C309.322 102.562 308.65 100.57 307.978 99.0582L306.106 99.7302ZM306.418 95.0022C305.434 97.1862 303.658 100.138 302.242 101.962L304.018 102.802C305.458 101.026 307.234 98.2662 308.602 95.8902L306.418 95.0022ZM304.594 91.5942C304.138 93.0342 303.202 95.0022 302.482 96.2502L304.33 96.9942C305.098 95.8182 306.01 94.0422 306.85 92.3862L304.594 91.5942ZM301.546 101.578L301.858 103.954C303.682 103.738 305.89 103.498 308.098 103.234V101.218C305.626 101.362 303.25 101.506 301.546 101.578ZM312.826 95.9142V98.7222H330.25V95.9142H312.826ZM321.058 91.4502V97.2342H324.01V91.4502H321.058ZM329.338 95.9142V96.6102C327.178 100.57 322.114 106.042 317.506 108.994C318.178 109.498 319.09 110.386 319.57 111.01C324.442 107.77 329.722 102.226 332.746 97.1382L330.562 95.7462L329.986 95.9142H329.338ZM317.554 106.282L315.058 107.242C317.482 112.45 321.61 113.578 327.49 113.578H332.89C333.034 112.738 333.49 111.394 333.898 110.722C332.458 110.77 328.786 110.77 327.682 110.77C323.098 110.77 319.21 110.074 317.554 106.282ZM313.882 113.962C315.754 111.106 317.434 107.386 318.37 105.13L315.49 104.074C314.602 106.714 312.826 110.17 311.074 112.21L313.882 113.962ZM348.178 94.3542V96.9702H357.682V94.3542H348.178ZM347.386 101.674V113.962H350.098V101.674H347.386ZM348.01 91.4262C347.362 94.3302 346.066 97.0662 344.242 98.7702C344.914 99.1542 346.09 100.066 346.594 100.57C348.49 98.5782 350.026 95.4102 350.866 91.9782L348.01 91.4262ZM353.194 100.306L350.722 100.642C351.538 106.57 352.978 111.346 356.482 113.914C356.89 113.17 357.778 112.042 358.426 111.514C355.306 109.498 353.866 105.178 353.194 100.306ZM356.314 101.434C355.33 102.634 353.578 104.218 352.354 105.13L354.034 106.762C355.306 105.898 357.01 104.506 358.33 103.234L356.314 101.434ZM335.818 95.0982V97.7622H345.778V95.0982H335.818ZM339.538 100.114V102.73H343.45V100.114H339.538ZM339.442 91.4502V95.9622H342.202V91.4502H339.442ZM342.514 100.114V100.642C342.418 108.034 342.298 110.53 341.962 111.106C341.77 111.37 341.578 111.466 341.266 111.466C340.882 111.466 340.258 111.442 339.514 111.346C339.898 112.066 340.162 113.146 340.21 113.914C341.17 113.938 342.106 113.938 342.706 113.818C343.354 113.698 343.81 113.482 344.266 112.81C344.866 111.922 344.986 109.042 345.106 101.242C345.106 100.906 345.106 100.114 345.106 100.114H342.514ZM338.266 96.8022V101.506C338.266 104.722 337.93 108.802 335.266 112.306C335.986 112.762 336.922 113.482 337.402 114.058C340.378 110.17 340.786 105.466 340.786 101.53V96.8022H338.266ZM355.018 97.2102C352.906 98.8902 348.586 100.642 345.178 101.338C345.802 101.962 346.498 102.994 346.882 103.738C350.266 102.706 354.682 100.69 357.106 98.7222L355.018 97.2102ZM192.222 138.826V135.792L198.589 130.218C199.066 129.786 199.472 129.392 199.807 129.034C200.143 128.67 200.398 128.306 200.574 127.943C200.75 127.573 200.839 127.173 200.839 126.741C200.839 126.258 200.733 125.846 200.523 125.505C200.313 125.159 200.023 124.892 199.654 124.704C199.285 124.517 198.861 124.423 198.384 124.423C197.901 124.423 197.478 124.522 197.114 124.721C196.75 124.914 196.466 125.195 196.262 125.565C196.063 125.934 195.964 126.383 195.964 126.911H191.966C191.966 125.724 192.233 124.698 192.768 123.835C193.302 122.971 194.052 122.306 195.018 121.84C195.989 121.369 197.117 121.133 198.401 121.133C199.725 121.133 200.875 121.355 201.853 121.798C202.83 122.241 203.586 122.86 204.12 123.656C204.66 124.445 204.929 125.363 204.929 126.409C204.929 127.073 204.796 127.732 204.529 128.386C204.262 129.039 203.782 129.761 203.089 130.551C202.401 131.34 201.424 132.286 200.157 133.389L198.069 135.315V135.426H205.143V138.826H192.222ZM214.986 139.252C213.463 139.252 212.15 138.892 211.048 138.17C209.946 137.443 209.096 136.4 208.5 135.042C207.903 133.678 207.608 132.039 207.613 130.124C207.619 128.21 207.917 126.585 208.508 125.249C209.105 123.909 209.951 122.889 211.048 122.19C212.15 121.485 213.463 121.133 214.986 121.133C216.508 121.133 217.821 121.485 218.923 122.19C220.031 122.889 220.883 123.909 221.48 125.249C222.076 126.59 222.372 128.215 222.366 130.124C222.366 132.045 222.068 133.687 221.471 135.051C220.875 136.414 220.025 137.457 218.923 138.178C217.826 138.894 216.514 139.252 214.986 139.252ZM214.986 135.801C215.895 135.801 216.63 135.338 217.193 134.411C217.755 133.48 218.034 132.051 218.028 130.124C218.028 128.863 217.9 127.823 217.645 127.005C217.389 126.181 217.034 125.568 216.579 125.164C216.125 124.761 215.593 124.559 214.986 124.559C214.082 124.559 213.352 125.017 212.795 125.931C212.238 126.84 211.957 128.238 211.951 130.124C211.946 131.403 212.068 132.463 212.318 133.303C212.574 134.144 212.932 134.772 213.392 135.187C213.852 135.596 214.383 135.801 214.986 135.801ZM225.022 138.826V135.792L231.389 130.218C231.866 129.786 232.272 129.392 232.608 129.034C232.943 128.67 233.199 128.306 233.375 127.943C233.551 127.573 233.639 127.173 233.639 126.741C233.639 126.258 233.534 125.846 233.324 125.505C233.113 125.159 232.824 124.892 232.454 124.704C232.085 124.517 231.662 124.423 231.184 124.423C230.701 124.423 230.278 124.522 229.914 124.721C229.551 124.914 229.267 125.195 229.062 125.565C228.863 125.934 228.764 126.383 228.764 126.911H224.767C224.767 125.724 225.034 124.698 225.568 123.835C226.102 122.971 226.852 122.306 227.818 121.84C228.789 121.369 229.917 121.133 231.201 121.133C232.525 121.133 233.676 121.355 234.653 121.798C235.63 122.241 236.386 122.86 236.92 123.656C237.46 124.445 237.73 125.363 237.73 126.409C237.73 127.073 237.596 127.732 237.329 128.386C237.062 129.039 236.582 129.761 235.889 130.551C235.201 131.34 234.224 132.286 232.957 133.389L230.869 135.315V135.426H237.943V138.826H225.022ZM240.567 138.826V135.792L246.934 130.218C247.411 129.786 247.817 129.392 248.152 129.034C248.488 128.67 248.743 128.306 248.919 127.943C249.096 127.573 249.184 127.173 249.184 126.741C249.184 126.258 249.078 125.846 248.868 125.505C248.658 125.159 248.368 124.892 247.999 124.704C247.63 124.517 247.206 124.423 246.729 124.423C246.246 124.423 245.823 124.522 245.459 124.721C245.096 124.914 244.811 125.195 244.607 125.565C244.408 125.934 244.309 126.383 244.309 126.911H240.311C240.311 125.724 240.578 124.698 241.113 123.835C241.647 122.971 242.397 122.306 243.363 121.84C244.334 121.369 245.462 121.133 246.746 121.133C248.07 121.133 249.221 121.355 250.198 121.798C251.175 122.241 251.931 122.86 252.465 123.656C253.005 124.445 253.274 125.363 253.274 126.409C253.274 127.073 253.141 127.732 252.874 128.386C252.607 129.039 252.127 129.761 251.434 130.551C250.746 131.34 249.769 132.286 248.502 133.389L246.414 135.315V135.426H253.488V138.826H240.567ZM267.065 122.77H274.937V129.874H267.065V122.77ZM264.809 120.682V131.986H277.289V120.682H264.809ZM269.969 118.378C269.801 119.362 269.393 120.706 269.033 121.69L271.433 122.194C271.913 121.354 272.585 120.106 273.161 118.81L269.969 118.378ZM268.121 132.802C269.465 133.57 271.097 134.794 271.841 135.658L273.665 134.098C272.849 133.186 271.169 132.058 269.801 131.386L268.121 132.802ZM273.737 134.962C274.841 136.57 275.849 138.754 276.185 140.242L278.393 139.138C278.009 137.674 276.953 135.538 275.801 133.954L273.737 134.962ZM267.785 134.098V137.938C267.785 140.146 268.241 140.866 270.401 140.866C270.809 140.866 272.009 140.866 272.465 140.866C274.001 140.866 274.673 140.242 274.937 137.746C274.265 137.578 273.233 137.194 272.777 136.81C272.705 138.37 272.609 138.562 272.153 138.562C271.913 138.562 271.001 138.562 270.785 138.562C270.281 138.562 270.209 138.514 270.209 137.914V134.098H267.785ZM265.265 134.362C265.049 136.234 264.497 138.058 263.417 139.186L265.481 140.29C266.729 139.042 267.209 136.954 267.497 134.89L265.265 134.362ZM270.257 122.65C269.777 124.066 268.745 125.674 267.089 126.874C267.521 127.09 268.121 127.618 268.409 128.002C270.257 126.562 271.313 124.738 272.009 122.914L270.257 122.65ZM270.737 123.682L270.041 125.05H273.497V123.682H270.737ZM272.897 123.682V123.946C272.225 126.274 270.329 128.122 268.217 128.986C268.601 129.298 269.105 129.922 269.321 130.33C271.769 129.226 273.809 127.162 274.721 124.066L273.545 123.61L273.233 123.682H272.897ZM267.113 125.338C269.369 126.37 272.057 128.122 273.449 129.37L274.721 128.05C273.281 126.874 270.593 125.194 268.361 124.162L267.113 125.338ZM259.121 118.474C258.593 120.13 257.561 122.458 256.721 123.898L258.593 124.666C259.481 123.322 260.585 121.186 261.545 119.314L259.121 118.474ZM261.689 121.306C260.513 123.874 258.449 127.378 256.745 129.538L258.353 130.426C260.105 128.386 262.289 125.05 263.969 122.338L261.689 121.306ZM255.401 123.994C256.601 125.194 258.017 126.898 258.545 128.074L260.057 125.914C259.481 124.834 258.041 123.25 256.817 122.098L255.401 123.994ZM260.969 126.946C261.809 128.65 262.577 130.906 262.769 132.298L264.785 131.434C264.569 130.018 263.729 127.834 262.865 126.178L260.969 126.946ZM255.329 128.986L255.641 131.458C257.777 131.29 260.561 131.098 263.225 130.882L263.201 128.506C260.321 128.698 257.393 128.89 255.329 128.986ZM261.353 133.042C261.905 134.434 262.361 136.258 262.457 137.458L264.473 136.81C264.329 135.634 263.849 133.834 263.273 132.466L261.353 133.042ZM256.361 132.562C256.169 134.578 255.809 136.738 255.137 138.154C255.689 138.37 256.697 138.826 257.153 139.138C257.825 137.602 258.353 135.226 258.593 132.946L256.361 132.562ZM258.833 130.258V140.986H261.257V130.258H258.833ZM280.337 122.914V125.602H289.649V122.914H280.337ZM283.745 118.786V124.234H286.433V118.786H283.745ZM295.313 122.866V125.602H302.297V122.866H295.313ZM291.305 137.146V139.834H299.897V137.146H291.305ZM293.873 118.426V130.93H296.849V118.426H293.873ZM290.033 129.754V140.962H292.817V132.442H298.529V140.866H301.457V129.754H290.033ZM279.809 135.994L280.385 138.874C283.073 138.274 286.625 137.458 289.913 136.666L289.625 134.002C286.097 134.794 282.305 135.562 279.809 135.994ZM280.961 126.73C281.465 129.298 281.849 132.658 281.801 134.842L284.273 134.362C284.225 132.13 283.841 128.89 283.241 126.298L280.961 126.73ZM286.313 126.058C286.193 128.794 285.737 132.538 285.257 134.866L287.657 135.346C288.161 133.114 288.737 129.586 289.121 126.538L286.313 126.058Z" fill="#DA8E25"/>
</g>
<defs>
<clipPath id="clip0_1144_27452">
<rect width="428" height="1251" fill="white"/>
</clipPath>
</defs>
</svg>
