<svg width="276" height="412" viewBox="0 0 276 412" fill="none" xmlns="http://www.w3.org/2000/svg">
<g clip-path="url(#clip0_1091_33945)">
<path d="M192.445 205.032L150 198.214H149.988H149.976L102.815 205.032C102.815 205.032 66.013 266.142 72.1198 312.667C78.2266 359.191 107.234 371.289 149.976 371.295H149.994C192.742 371.295 221.743 359.191 227.85 312.667C233.957 266.136 192.439 205.032 192.439 205.032H192.445Z" fill="white"/>
<path d="M150 374.862C125.548 374.862 108.192 370.904 95.3542 362.405C80.4023 352.509 71.6501 336.391 68.5966 313.132C65.9821 293.223 70.4509 268.636 81.8796 240.066C90.329 218.948 99.3904 203.81 99.7736 203.177C100.324 202.259 101.257 201.645 102.314 201.49L149.333 194.69C149.704 194.622 150.087 194.609 150.47 194.665C150.526 194.671 150.581 194.684 150.637 194.69L193.008 201.496C193.972 201.651 194.831 202.197 195.387 203.01C195.82 203.642 206.05 218.78 215.68 239.905C228.728 268.518 234.012 293.155 231.386 313.126C228.332 336.385 219.58 352.503 204.628 362.398C191.79 370.898 174.434 374.856 150 374.856V374.862ZM105.027 208.32C99.6314 217.75 70.2902 271.341 75.6492 312.201C80.8288 351.634 102.363 367.715 149.982 367.721C197.619 367.721 219.153 351.634 224.333 312.201C227.38 289.01 217.787 261.706 209.208 242.889C201.383 225.723 192.977 212.359 190.344 208.314L149.969 201.825L105.034 208.32H105.027Z" fill="black"/>
<path d="M141.582 349.792C141.582 349.792 140.723 367.058 139.258 382.413C137.873 396.943 124.368 405.939 107.395 408.073C94.8103 409.655 77.3614 406.094 75.1362 391.353C72.1508 371.605 89.1423 364.551 89.1423 364.551L84.3706 342.887" fill="white"/>
<path d="M101.801 412C96.1516 412 90.6258 411.02 86.0457 409.153C77.8064 405.79 72.8184 399.828 71.6192 391.899C69.2581 376.283 78.2576 366.661 85.0691 362.628L80.8969 343.662C80.4704 341.739 81.6819 339.828 83.6042 339.406C85.5203 338.984 87.424 340.2 87.8444 342.124L92.6161 363.788C92.9869 365.482 92.0969 367.194 90.5022 367.858C89.9273 368.1 76.1375 374.186 78.6594 390.826C79.4753 396.198 82.8625 400.138 88.7282 402.533C93.8461 404.624 100.491 405.349 106.956 404.537C119.979 402.899 134.381 396.136 135.716 382.078C137.156 366.977 138.022 349.786 138.028 349.618C138.127 347.652 139.808 346.132 141.761 346.231C143.727 346.33 145.235 348.005 145.136 349.978C145.13 350.152 144.258 367.498 142.8 382.767C141.347 398.035 127.947 409.097 107.84 411.628C105.837 411.882 103.81 412.006 101.795 412.006L101.801 412Z" fill="black"/>
<path d="M158.227 349.792C158.227 349.792 159.087 367.058 160.551 382.413C161.936 396.943 175.441 405.939 192.414 408.073C204.999 409.655 222.448 406.094 224.673 391.353C227.658 371.605 210.673 364.551 210.673 364.551L215.445 342.887" fill="white"/>
<path d="M198.014 412C196.006 412 193.978 411.876 191.969 411.622C171.863 409.09 158.462 398.028 157.01 382.754C155.557 367.492 154.686 350.139 154.673 349.972C154.574 348.005 156.089 346.324 158.048 346.224C160.007 346.119 161.683 347.645 161.781 349.612C161.788 349.786 162.653 366.977 164.093 382.072C165.434 396.13 179.83 402.886 192.853 404.53C199.325 405.343 205.969 404.617 211.081 402.526C216.947 400.132 220.34 396.192 221.15 390.819C223.666 374.18 209.876 368.1 209.289 367.846C207.712 367.176 206.822 365.463 207.187 363.782L211.959 342.117C212.385 340.194 214.277 338.978 216.199 339.4C218.115 339.828 219.326 341.733 218.906 343.656L214.734 362.622C221.552 366.654 230.545 376.277 228.184 391.893C226.985 399.815 221.997 405.784 213.757 409.146C209.177 411.014 203.651 411.994 198.002 411.994L198.014 412Z" fill="black"/>
<path d="M189.435 348.346C189.435 360.624 172.166 370.576 150.866 370.576C129.566 370.576 112.296 360.624 112.296 348.346C112.296 336.068 129.566 326.117 150.866 326.117C172.166 326.117 189.435 336.068 189.435 348.346Z" fill="white"/>
<path d="M128.379 365.699C128.379 365.699 135.277 370.066 150.322 370.066C163.92 370.066 171.51 365.699 171.51 365.699" fill="white"/>
<path d="M150.322 373.64C134.437 373.64 126.797 368.925 126.482 368.726C124.819 367.672 124.318 365.469 125.369 363.8C126.414 362.138 128.596 361.635 130.252 362.665C130.419 362.764 136.829 366.493 150.322 366.493C162.665 366.493 169.687 362.628 169.761 362.591C171.467 361.635 173.637 362.231 174.601 363.943C175.565 365.655 174.978 367.821 173.278 368.795C172.932 368.993 164.699 373.634 150.322 373.634V373.64Z" fill="black"/>
<path d="M137.867 315.737C137.453 340.541 156.021 360.965 179.329 361.356C202.638 361.747 221.867 341.956 222.275 317.146C222.689 292.342 204.127 271.918 180.813 271.527C157.504 271.136 138.275 290.934 137.861 315.737H137.867Z" fill="white"/>
<path d="M162.319 315.737C162.733 340.541 144.172 360.965 120.857 361.356C97.5484 361.747 78.3194 341.956 77.9052 317.146C77.4911 292.342 96.0588 271.918 119.367 271.527C142.676 271.136 161.905 290.934 162.313 315.737H162.319Z" fill="white"/>
<path d="M102.574 220.232C62.4033 247.883 50.4431 286.591 49.0462 303.466C47.81 318.356 53.3358 333.493 68.3 332.916C81.6942 332.402 87.152 318.728 88.2337 311.934C89.8098 301.983 92.6284 292.633 94.9401 286.014" fill="white"/>
<path d="M67.5026 336.503C61.7357 336.503 56.7106 334.418 52.9278 330.454C47.2598 324.504 44.5526 314.559 45.4983 303.168C47.0682 284.264 60.4315 244.906 100.559 217.285C102.178 216.168 104.397 216.584 105.503 218.21C106.616 219.835 106.202 222.062 104.582 223.173C66.6496 249.286 54.0528 286.113 52.5879 303.764C51.8214 312.977 53.8735 321.11 58.0704 325.521C60.6417 328.22 64.0412 329.511 68.164 329.355C79.0734 328.94 83.7586 317.413 84.7167 311.382C86.367 300.953 89.3586 291.194 91.5776 284.841C92.2266 282.98 94.2601 282 96.1144 282.651C97.9687 283.303 98.9453 285.344 98.2963 287.205C96.1762 293.279 93.3206 302.597 91.7507 312.505C90.4774 320.546 83.9688 335.901 68.4421 336.496C68.1269 336.509 67.8178 336.515 67.5088 336.515L67.5026 336.503Z" fill="black"/>
<path d="M229.488 76.6758C226.163 68.2196 222.448 60.3653 218.288 53.1748C212.83 43.7446 206.631 35.5428 199.591 28.5756C178.649 7.87884 150.39 -1.1605 112.766 5.37859L112.278 5.46545C74.6603 11.9983 51.0798 30.046 38.2913 56.6056C33.9955 65.5395 30.905 75.3977 28.9271 86.1184C27.4127 94.2891 26.535 102.919 26.2445 112.008C25.4039 138.295 30.2313 183.479 39.4595 201.036C49.6458 220.418 70.5067 233.279 111.845 229.035C111.845 229.035 130.209 227.298 149.438 223.88C169.99 220.219 188.681 215.87 188.681 215.87C229.006 205.776 243.766 186.773 246.869 165.078C249.675 145.436 239.075 101.138 229.482 76.6758" fill="white"/>
<path d="M236.998 83.5688C214.153 15.2185 159.791 -1.2471 116.073 5.13068L112.259 5.7635L108.866 6.38391C65.5619 15.1379 20.0821 48.9438 21.4605 121.029C14.0433 125.285 -1.03835 138.673 5.44552 177.294C11.9479 216.001 41.6105 218.569 52.4149 218.185C53.5089 218.154 55.7341 217.707 57.1434 215.79C56.859 215.511 56.6118 215.207 56.3337 214.915C55.9566 214.518 55.5796 214.127 55.2211 213.705C54.7884 213.197 54.3681 212.663 53.9416 212.136C53.6387 211.751 53.3359 211.373 53.0392 210.976C52.5756 210.349 52.1491 209.698 51.7226 209.046C51.5063 208.717 51.2776 208.401 51.0675 208.06C50.4494 207.055 49.856 206.037 49.2997 204.976C40.8626 188.933 36.4123 147.446 37.1849 123.405C37.4569 115.098 38.1553 107.163 39.6326 99.7118C42.8405 83.5936 52.6312 36.8521 115.739 25.8833C181.004 14.5361 204.14 55.5636 212.558 69.6654C216.446 76.1797 220.173 83.3392 223.202 91.0819C231.985 113.454 241.689 154.022 239.118 171.983C238.951 173.168 238.735 174.341 238.481 175.488C238.407 175.879 238.29 176.251 238.191 176.636C238.005 177.393 237.82 178.15 237.604 178.901C237.455 179.366 237.289 179.837 237.128 180.296C236.918 180.935 236.695 181.574 236.448 182.207C236.256 182.716 236.021 183.212 235.799 183.721C235.638 184.081 235.49 184.453 235.323 184.819C237.282 186.153 239.507 185.818 240.546 185.489C250.856 182.207 277.879 169.781 271.037 131.135C264.201 92.5709 245.417 85.0826 237.004 83.5688" fill="black"/>
<path d="M195.381 214.04C224.692 204.566 236.349 189.832 238.902 171.945C241.467 153.991 231.775 113.484 223.004 91.1187" fill="white"/>
<path d="M195.381 217.614C193.879 217.614 192.482 216.652 191.994 215.138C191.395 213.258 192.421 211.248 194.287 210.647C219.673 202.439 232.727 189.981 235.378 171.443C237.307 157.949 231.009 121.289 219.691 92.4342C218.974 90.5978 219.87 88.5256 221.7 87.7997C223.53 87.08 225.594 87.9796 226.317 89.816C230.897 101.486 235.521 117.424 238.692 132.45C241.263 144.641 244.001 161.479 242.431 172.454C239.39 193.709 224.364 208.425 196.475 217.44C196.111 217.558 195.746 217.614 195.381 217.614V217.614Z" fill="black"/>
<path d="M37.1849 123.423C36.4122 147.458 40.8317 188.777 49.2687 204.827C57.7923 221.051 74.073 231.076 105.794 229.668" fill="white"/>
<path d="M100.114 233.372C73.3004 233.372 55.6042 224.55 46.1164 206.496C36.9129 188.982 32.8891 146.192 33.6246 123.312C33.6864 121.339 35.3306 119.8 37.2961 119.856C39.2617 119.918 40.8008 121.568 40.7389 123.541C39.7438 154.5 46.0793 191.116 52.4148 203.164C61.2784 220.033 78.1896 227.323 105.639 226.107C107.593 226.026 109.261 227.546 109.354 229.519C109.441 231.492 107.92 233.155 105.955 233.248C103.964 233.335 102.017 233.378 100.12 233.378L100.114 233.372Z" fill="black"/>
<path d="M50.7397 222.087C38.9525 222.087 8.38129 218.091 1.63165 177.939C-1.31051 160.406 -0.278281 145.857 4.70978 134.69C8.33803 126.563 13.4003 121.717 17.5663 118.895C17.3561 85.7586 26.7574 58.3366 45.5353 37.3668C61.1361 19.9396 83.3568 7.58728 108.105 2.5806C108.13 2.5806 108.155 2.56819 108.18 2.56819L111.573 1.94778C111.573 1.94778 111.616 1.94158 111.635 1.93537L115.448 1.30256C115.448 1.30256 115.498 1.29635 115.523 1.29015C140.525 -2.35784 165.626 1.77407 186.202 12.9104C210.982 26.3236 229.055 48.9746 239.952 80.2432C244.829 81.4964 251.239 84.3503 257.395 90.7653C265.869 99.5999 271.741 112.951 274.838 130.453C277.996 148.283 274.739 162.968 265.146 174.105C257.284 183.231 247.091 187.468 241.714 189.18C240.614 189.528 236.757 190.471 233.159 188.027C231.583 186.953 231.021 184.893 231.83 183.163C231.911 182.989 231.985 182.815 232.059 182.635C232.133 182.468 232.201 182.3 232.275 182.139L232.424 181.804C232.572 181.475 232.721 181.146 232.844 180.817C233.079 180.209 233.289 179.595 233.468 179.068L233.598 178.696C233.703 178.385 233.815 178.075 233.913 177.765C234.105 177.101 234.278 176.394 234.439 175.73C234.488 175.544 234.532 175.376 234.575 175.215C234.618 175.06 234.661 174.911 234.692 174.75C234.692 174.719 234.705 174.694 234.711 174.663C234.952 173.571 235.143 172.485 235.292 171.443C237.22 157.955 230.922 121.339 219.604 92.5086C216.928 85.6717 213.541 78.8597 209.239 71.6691L208.775 70.8874C204.572 63.8334 196.753 50.6994 182.475 40.8783C165.026 28.8797 142.793 25.1262 116.394 29.7172C55.3878 40.32 46.3759 85.6035 43.4152 100.487C42.1048 107.07 41.326 114.614 41.0355 123.548C40.0404 154.525 46.3759 191.141 52.7052 203.183C53.175 204.076 53.6942 204.982 54.3432 206.031C54.4359 206.18 54.541 206.335 54.646 206.49C54.7449 206.633 54.8438 206.781 54.9365 206.924L55.1034 207.172C55.4558 207.706 55.7895 208.208 56.1357 208.674C56.3026 208.903 56.4942 209.133 56.6796 209.369L57.2421 210.076C57.5388 210.448 57.8354 210.82 58.1445 211.18C58.4226 211.503 58.7255 211.819 59.0284 212.136L59.1273 212.241C59.2632 212.39 59.3992 212.533 59.529 212.681C59.6341 212.799 59.733 212.911 59.8443 213.023C61.2164 214.375 61.3895 216.534 60.2522 218.085C57.6438 221.653 53.6694 222.031 52.5136 222.062C51.982 222.081 51.3887 222.093 50.7397 222.093V222.087ZM109.595 10.1868C86.4782 14.8709 65.7718 26.3608 51.2836 42.5472C33.4452 62.4747 24.7115 88.8544 25.3234 120.954C25.3481 122.369 24.6064 123.69 23.3764 124.391C19.9398 126.364 15.1371 130.298 11.7623 137.854C7.41088 147.601 6.56408 160.648 9.25281 176.642C11.1813 188.107 19.0126 214.338 50.2143 214.338C50.3935 214.338 50.5666 214.338 50.7458 214.338L50.6222 214.183C50.3873 213.891 50.1586 213.6 49.9299 213.296C49.4664 212.663 49.0584 212.055 48.669 211.465L48.496 211.199C48.4094 211.068 48.3352 210.957 48.2611 210.851C48.0942 210.609 47.9335 210.367 47.779 210.113C47.0372 208.909 46.413 207.817 45.869 206.781C36.6223 189.193 32.5737 146.248 33.3154 123.287C33.6183 113.925 34.4465 105.965 35.8373 98.9608C37.4072 91.0569 40.6832 74.6037 52.0747 58.6158C65.8893 39.228 87.0839 26.9316 115.078 22.0676C143.529 17.1229 167.678 21.2921 186.845 34.4757C202.52 45.2522 210.908 59.3354 215.414 66.9044L215.871 67.6737C220.389 75.2365 223.962 82.427 226.799 89.6609C235.187 111.028 245.762 152.837 242.944 172.535C242.771 173.751 242.542 175.01 242.27 176.282C242.202 176.611 242.122 176.927 242.035 177.25C242.004 177.356 241.98 177.461 241.949 177.573C241.769 178.323 241.566 179.148 241.318 179.992C241.312 180.017 241.3 180.048 241.294 180.073C241.17 180.464 241.034 180.848 240.904 181.239L240.886 181.283C251.913 177.368 273.181 165.338 267.241 131.811C261.048 96.8763 245.218 88.9785 236.33 87.3778C234.939 87.1297 233.796 86.137 233.351 84.7969C223.183 54.3722 206.087 32.4842 182.543 19.7349C163.425 9.38646 140.036 5.55855 116.679 8.95838L112.933 9.57879L109.607 10.1868H109.595Z" fill="black"/>
<path d="M270.969 130.577C268.812 118.659 265.505 109.725 261.728 103.037C261.734 103.267 261.753 103.49 261.784 103.757C261.982 105.624 262.297 107.591 262.612 109.496C262.872 111.133 263.15 112.833 263.348 114.459C263.774 117.902 264.096 121.072 264.343 124.057C263.181 121.134 261.926 118.144 260.597 115.104C260.418 114.695 260.232 114.273 260.047 113.851C258.786 110.966 257.482 107.982 255.93 105.209C255.183 103.869 253.742 102.33 252.172 102.423C251.202 102.479 250.232 102.77 249.187 103.323C247.895 104.017 247.277 105.99 247.623 108.348C247.796 109.483 248.006 110.625 248.223 111.735C248.334 112.349 248.451 112.957 248.563 113.572C250.664 125.527 251.653 137.129 252.277 145.895C252.426 148.091 253.52 151.652 255.844 151.851C256.085 151.869 256.307 151.863 256.518 151.807C256.981 151.69 257.389 151.41 257.723 150.97C258.594 149.822 258.792 147.793 258.687 146.397C258.125 138.438 257.463 129.994 256.277 121.556C258.421 126.718 260.43 132.004 262.272 137.333C262.612 138.32 262.958 139.331 263.28 140.317C263.706 141.564 264.133 142.849 264.578 144.114C264.707 144.487 264.825 144.803 264.936 145.088C265.591 146.788 267.007 148.556 268.546 148.426C268.663 148.408 268.793 148.395 268.929 148.358C268.929 148.358 268.997 148.346 269.028 148.339C269.152 148.296 269.281 148.246 269.411 148.184C270.833 147.458 271.371 145.368 271.401 143.649C271.463 139.815 271.315 135.484 270.975 130.571" fill="#59595C"/>
<path d="M20.5642 153.892C20.4839 153.272 20.4035 152.658 20.3294 152.037C20.1934 150.92 20.0512 149.766 19.8596 148.631C19.4702 146.28 18.2896 144.592 16.8495 144.326C15.6874 144.121 14.6676 144.133 13.7342 144.381C12.2075 144.785 11.3051 146.683 11.0022 148.184C10.3656 151.305 10.0256 154.544 9.70422 157.677C9.65477 158.136 9.6115 158.582 9.56824 159.035C9.21592 162.342 8.94396 165.581 8.72144 168.714C8.04771 165.804 7.39253 162.683 6.7497 159.277C6.44684 157.67 6.18723 155.971 5.93999 154.326C5.64949 152.422 5.35898 150.449 4.98812 148.6C4.93867 148.346 4.87686 148.129 4.80887 147.905C3.50468 155.549 3.41815 165.177 5.45169 177.294C6.44683 183.194 7.97972 188.244 9.89583 192.587C10.3038 192.928 10.755 193.17 11.2495 193.251C11.3978 193.269 11.5338 193.276 11.6636 193.276C11.7007 193.276 11.7316 193.276 11.7625 193.263C11.9047 193.245 12.0283 193.232 12.1395 193.195C13.6539 192.854 14.4636 190.738 14.5687 188.92C14.5872 188.61 14.5996 188.275 14.6181 187.884C14.649 186.538 14.6676 185.179 14.6861 183.87C14.7046 182.834 14.717 181.767 14.7356 180.719C14.8715 175.085 15.1744 169.44 15.6442 163.856C17.0905 172.269 19.0437 180.508 20.9227 188.263C21.2441 189.615 22.0477 191.483 23.2282 192.302C23.6856 192.618 24.1554 192.767 24.6375 192.73C24.86 192.717 25.0764 192.661 25.2989 192.575C27.4499 191.675 27.419 187.94 26.8874 185.8C24.8106 177.251 22.2207 165.897 20.5828 153.88" fill="#59595C"/>
<path d="M109.125 150.721C110.238 157.198 105.918 163.346 99.4707 164.463C93.0239 165.58 86.8986 161.243 85.7798 154.766C84.6672 148.295 88.9878 142.141 95.4345 141.024C101.881 139.907 108.007 144.25 109.125 150.721V150.721Z" fill="black"/>
<path d="M187.476 137.141C188.588 143.618 184.255 149.766 177.815 150.883C171.362 151.999 165.237 147.663 164.124 141.186C163.011 134.715 167.332 128.56 173.785 127.444C180.225 126.327 186.363 130.67 187.476 137.141Z" fill="black"/>
<path d="M157.207 112.306C156.67 112.306 156.126 112.182 155.619 111.915C153.919 111.034 153.252 108.931 154.129 107.225C154.309 106.871 158.685 98.5948 168.988 96.808C178.711 95.1267 185.282 101.604 185.553 101.883C186.907 103.242 186.901 105.45 185.547 106.809C184.187 108.168 181.993 108.161 180.64 106.803C180.479 106.648 176.27 102.621 170.169 103.676C163.333 104.861 160.323 110.376 160.292 110.432C159.674 111.63 158.462 112.318 157.207 112.318V112.306Z" fill="black"/>
<path d="M78.9993 126.209C78.4925 126.209 77.9856 126.097 77.5035 125.862C75.7852 125.03 75.0558 122.977 75.8717 121.246C76.0386 120.892 80.0686 112.579 89.7852 110.891C100.089 109.104 106.981 115.432 107.265 115.705C108.662 117.021 108.742 119.223 107.432 120.625C106.128 122.027 103.946 122.102 102.549 120.805C102.32 120.6 97.7648 116.574 90.9657 117.753C84.8651 118.808 82.2443 124.025 82.1331 124.248C81.5273 125.483 80.2911 126.203 79.0055 126.203L78.9993 126.209Z" fill="black"/>
<path d="M133.194 193.728C129.14 193.728 125.845 191.718 124.176 188.039C123.478 186.494 124.158 184.676 125.691 183.975C127.23 183.274 129.041 183.957 129.739 185.495C130.357 186.86 131.853 188.275 135.45 187.245C138.912 186.246 139.938 182.381 139.418 179.217L138.621 174.315C138.349 172.64 139.48 171.064 141.143 170.791C142.812 170.519 144.382 171.654 144.654 173.323L145.451 178.224C146.588 185.154 143.09 191.432 137.132 193.145C135.766 193.536 134.443 193.728 133.194 193.728V193.728Z" fill="black"/>
<path d="M151.033 190.781C145.198 190.781 140.562 186.202 139.419 179.217L138.621 174.315C138.349 172.64 139.48 171.064 141.143 170.791C142.812 170.519 144.382 171.654 144.654 173.323L145.451 178.224C145.977 181.431 147.781 184.813 151.28 184.645C152.399 184.596 156.064 184.186 156.379 181.115C156.552 179.428 158.048 178.199 159.735 178.379C161.417 178.553 162.634 180.06 162.461 181.748C161.93 186.953 157.646 190.502 151.558 190.781C151.379 190.787 151.206 190.793 151.033 190.793V190.781Z" fill="black"/>
<path d="M139.116 161.423C133.93 162.273 128.824 164.246 129.578 168.837C130.32 173.428 136.847 177.641 141.631 176.847C146.415 176.059 151.187 169.501 150.52 165.4C149.846 161.299 144.308 160.573 139.116 161.423Z" fill="black"/>
<path d="M258.254 237.827C258.576 253.604 244.242 263.468 230.168 261.297C215.729 259.069 203.713 248.504 203.713 232.721C203.713 216.937 212.738 202.674 227.343 202.674C241.949 202.674 257.822 216.882 258.248 237.833L258.254 237.827Z" fill="white"/>
<path d="M234.013 265.162C232.548 265.162 231.083 265.05 229.624 264.827C221.576 263.586 214.252 259.95 208.992 254.596C203.213 248.715 200.153 241.146 200.153 232.715C200.153 213.55 211.841 199.095 227.343 199.095C243.605 199.095 261.333 214.63 261.808 237.746C261.969 245.731 258.829 252.977 252.951 258.145C247.808 262.668 240.96 265.156 234.013 265.156V265.162ZM227.343 206.242C214.301 206.242 207.267 219.885 207.267 232.721C207.267 247.524 219.036 255.967 230.706 257.767C237.035 258.741 243.593 256.879 248.26 252.779C252.525 249.025 254.812 243.745 254.688 237.901C254.299 218.966 240.237 206.242 227.343 206.242V206.242Z" fill="black"/>
<path d="M259.602 164.625C259.602 154.878 251.733 146.98 242.023 146.98C236.93 146.98 232.344 149.158 229.136 152.632C225.922 149.158 221.341 146.98 216.248 146.98C206.538 146.98 198.67 154.878 198.67 164.625C198.67 166.523 198.972 168.347 199.523 170.053C204.677 186.668 229.136 198.586 229.136 198.586C229.136 198.586 253.594 186.668 258.749 170.053C259.299 168.341 259.602 166.517 259.602 164.625V164.625Z" fill="#FF0000"/>
<path d="M229.136 202.153C228.604 202.153 228.073 202.036 227.584 201.794C226.527 201.279 201.68 188.995 196.123 171.114C195.455 169.036 195.109 166.84 195.109 164.619C195.109 152.918 204.591 143.401 216.248 143.401C220.921 143.401 225.464 144.977 229.136 147.806C232.807 144.977 237.35 143.401 242.023 143.401C253.68 143.401 263.162 152.918 263.162 164.619C263.162 166.84 262.816 169.036 262.136 171.145C256.598 188.995 231.744 201.279 230.687 201.794C230.199 202.036 229.667 202.153 229.136 202.153V202.153ZM216.248 150.548C208.516 150.548 202.224 156.864 202.224 164.619C202.224 166.089 202.452 167.547 202.904 168.955C206.835 181.624 223.869 191.7 229.136 194.553C234.402 191.7 251.431 181.624 255.355 168.986C255.819 167.547 256.048 166.089 256.048 164.619C256.048 156.858 249.755 150.548 242.023 150.548C238.08 150.548 234.433 152.149 231.744 155.052C231.07 155.778 230.125 156.194 229.136 156.194C228.147 156.194 227.201 155.778 226.527 155.052C223.839 152.142 220.192 150.542 216.248 150.542V150.548Z" fill="black"/>
<path d="M230.483 195.745C230.483 195.745 237.956 186.104 245.429 187.884C252.79 189.64 252.352 197.277 249.582 200.981C246.813 204.679 239.322 213.408 237.369 218.471" fill="white"/>
<path d="M237.363 222.044C236.936 222.044 236.497 221.963 236.077 221.802C234.247 221.088 233.339 219.016 234.05 217.18C235.774 212.719 240.762 206.428 244.403 201.825C245.342 200.634 246.158 199.61 246.733 198.834C247.635 197.631 248.253 195.416 247.623 193.679C247.197 192.5 246.208 191.743 244.601 191.359C240.317 190.335 234.865 195.906 233.289 197.935C232.084 199.492 229.846 199.771 228.295 198.561C226.744 197.352 226.465 195.106 227.671 193.549C228.579 192.376 236.819 182.158 246.245 184.41C250.201 185.353 253.068 187.785 254.317 191.259C255.881 195.615 254.49 200.361 252.419 203.128C251.783 203.978 250.942 205.039 249.966 206.273C246.993 210.027 242.011 216.318 240.676 219.761C240.132 221.175 238.784 222.044 237.356 222.044H237.363Z" fill="black"/>
<path d="M241.399 237.492C245.855 226.883 242.468 216.82 240.836 211.15C238.049 201.446 230.366 179.558 217.559 183.386C209.072 185.924 210.667 194.43 211.983 201.142C199.393 198.952 197.594 212.254 197.594 212.254C197.594 212.254 190.542 214.208 188.848 221.51C186.326 232.43 194.59 251.78 211.353 251.141" fill="white"/>
<path d="M210.574 254.727C203.447 254.727 196.92 251.538 192.105 245.687C186.363 238.702 183.594 228.428 185.38 220.704C186.895 214.165 191.691 210.982 194.522 209.642C195.227 207.079 196.908 202.842 200.753 200.019C202.798 198.518 205.129 197.643 207.719 197.395C206.847 190.936 207.224 182.747 216.539 179.961C220.167 178.876 223.715 179.267 227.084 181.115C235.737 185.862 241.195 199.529 244.248 210.157L244.533 211.137C246.344 217.329 249.372 227.696 244.669 238.875C243.902 240.693 241.819 241.543 240.008 240.78C238.197 240.011 237.35 237.92 238.11 236.102C241.825 227.261 239.347 218.768 237.703 213.147L237.406 212.136C233.673 199.144 228.666 190.124 223.665 187.382C221.972 186.457 220.352 186.271 218.56 186.805C213.856 188.213 213.794 191.979 215.457 200.447C215.686 201.601 215.327 202.792 214.511 203.636C213.696 204.48 212.515 204.858 211.359 204.66C208.714 204.201 206.624 204.561 204.968 205.758C201.822 208.041 201.105 212.707 201.099 212.75C200.895 214.152 199.881 215.318 198.521 215.691C198.342 215.74 193.471 217.242 192.297 222.31C191.184 227.125 192.643 235.134 197.575 241.134C200.104 244.211 204.529 247.815 211.198 247.567C213.17 247.505 214.814 249.031 214.888 251.004C214.963 252.977 213.43 254.634 211.464 254.708C211.161 254.721 210.852 254.727 210.556 254.727H210.574Z" fill="black"/>
<path d="M214.524 210.678C214.524 210.678 211.65 201.303 211.031 195.428Z" fill="white"/>
<path d="M214.524 214.245C213.003 214.245 211.594 213.259 211.124 211.726C211.001 211.329 208.139 201.955 207.496 195.8C207.292 193.84 208.707 192.084 210.661 191.873C212.614 191.668 214.363 193.089 214.573 195.05C215.148 200.503 217.899 209.53 217.929 209.617C218.511 211.503 217.454 213.501 215.575 214.084C215.228 214.189 214.87 214.245 214.524 214.245Z" fill="black"/>
<path d="M199.764 206.341C199.764 206.341 196.995 210.082 199.003 219.699Z" fill="white"/>
<path d="M199.003 223.272C197.353 223.272 195.876 222.118 195.523 220.431C193.298 209.785 196.284 205.051 196.908 204.213L202.619 208.469C202.619 208.469 202.656 208.432 202.706 208.345C202.687 208.376 200.907 211.41 202.483 218.967C202.885 220.896 201.655 222.788 199.733 223.192C199.485 223.241 199.238 223.266 198.997 223.266L199.003 223.272Z" fill="black"/>
</g>
<defs>
<clipPath id="clip0_1091_33945">
<rect width="276" height="412" fill="white"/>
</clipPath>
</defs>
</svg>
