<svg width="70" height="40" viewBox="0 0 70 40" fill="none" xmlns="http://www.w3.org/2000/svg">
<rect width="70" height="40" rx="20" fill="#4C897D"/>
<path d="M20.492 18.324V20.43H30.23V18.324H20.492ZM29.528 18.324V18.72C29.366 23.724 29.168 25.74 28.736 26.208C28.538 26.406 28.34 26.46 28.016 26.46C27.566 26.46 26.63 26.442 25.622 26.352C26.018 26.964 26.306 27.9 26.342 28.53C27.404 28.566 28.448 28.584 29.078 28.494C29.762 28.386 30.266 28.224 30.716 27.612C31.346 26.874 31.562 24.732 31.76 19.26C31.778 18.99 31.796 18.324 31.796 18.324H29.528ZM22.526 11.952C21.446 14.688 19.448 17.208 17.18 18.702C17.702 19.116 18.638 19.98 19.052 20.448C21.32 18.666 23.516 15.768 24.866 12.636L22.526 11.952ZM29.384 11.916L27.26 12.762C28.682 15.516 30.896 18.432 32.93 20.304C33.344 19.692 34.172 18.81 34.766 18.342C32.786 16.83 30.518 14.202 29.384 11.916ZM23.714 18.936C23.426 22.14 22.994 25.182 18.17 26.766C18.674 27.234 19.304 28.152 19.574 28.746C24.938 26.748 25.712 22.986 26.054 18.936H23.714ZM35.864 23.526V25.362H52.136V23.526H35.864ZM42.776 11.718V14.148H45.062V11.718H42.776ZM37.628 20.394V22.068H48.41V20.394H37.628ZM42.812 22.77V26.568C42.812 26.838 42.686 26.91 42.344 26.928C42.038 26.928 40.616 26.928 39.572 26.892C39.86 27.378 40.184 28.116 40.31 28.656C41.894 28.656 43.082 28.656 43.928 28.422C44.792 28.17 45.098 27.72 45.098 26.658V22.77H42.812ZM47.942 20.394V20.79C46.988 21.492 44.99 22.446 43.244 22.95C43.514 23.22 44.018 23.76 44.252 24.102C46.484 23.49 48.662 22.5 50.354 21.474L49.004 20.304L48.518 20.394H47.942ZM40.364 17.172H47.618V18.18H40.364V17.172ZM38.204 15.696V19.656H49.904V15.696H38.204ZM36.116 13.05V14.868H51.83V13.05H36.116Z" fill="white"/>
</svg>
