<svg width="111" height="40" viewBox="0 0 111 40" fill="none" xmlns="http://www.w3.org/2000/svg">
<rect width="111" height="40" rx="20" fill="white"/>
<path d="M14.918 13.032V15.21H31.082V13.032H14.918ZM21.452 14.994V28.584H23.774V14.994H21.452ZM22.676 19.35C24.71 20.448 27.446 22.14 28.724 23.274L30.326 21.294C28.94 20.178 26.114 18.612 24.152 17.64L22.676 19.35ZM32.684 18.81V21.168H49.352V18.81H32.684ZM50.954 15.066V17.082H57.938V15.066H50.954ZM53.51 11.97V16.056H55.526V11.97H53.51ZM62.186 15.03V17.082H67.424V15.03H62.186ZM59.18 25.74V27.756H65.624V25.74H59.18ZM61.106 11.7V21.078H63.338V11.7H61.106ZM58.226 20.196V28.602H60.314V22.212H64.598V28.53H66.794V20.196H58.226ZM50.558 24.876L50.99 27.036C53.006 26.586 55.67 25.974 58.136 25.38L57.92 23.382C55.274 23.976 52.43 24.552 50.558 24.876ZM51.422 17.928C51.8 19.854 52.088 22.374 52.052 24.012L53.906 23.652C53.87 21.978 53.582 19.548 53.132 17.604L51.422 17.928ZM55.436 17.424C55.346 19.476 55.004 22.284 54.644 24.03L56.444 24.39C56.822 22.716 57.254 20.07 57.542 17.784L55.436 17.424Z" fill="black"/>
<path d="M102.061 21.0607C102.646 20.4749 102.646 19.5251 102.061 18.9393L92.5147 9.3934C91.9289 8.80761 90.9792 8.80761 90.3934 9.3934C89.8076 9.97918 89.8076 10.9289 90.3934 11.5147L98.8787 20L90.3934 28.4853C89.8076 29.0711 89.8076 30.0208 90.3934 30.6066C90.9792 31.1924 91.9289 31.1924 92.5147 30.6066L102.061 21.0607ZM78 21.5H101V18.5H78V21.5Z" fill="black"/>
</svg>
