<svg width="185" height="48" viewBox="0 0 185 48" fill="none" xmlns="http://www.w3.org/2000/svg">
<rect width="185" height="48" rx="24" fill="#328B7D"/>
<path d="M64.748 9.2159V11.1039H78.316V9.2159H64.748ZM64.22 18.8959V20.8159H78.796V18.8959H64.22ZM70.46 6.4159V10.2719H72.476V6.4159H70.46ZM74.076 11.6639C73.708 14.0319 72.924 17.1359 72.172 19.0879L74.044 19.5039C74.796 17.6159 75.66 14.6879 76.284 12.0479L74.076 11.6639ZM66.812 12.1919C67.5 14.1439 68.076 16.7359 68.188 18.3999L70.156 17.8719C69.996 16.1759 69.404 13.6959 68.636 11.7119L66.812 12.1919Z" fill="white"/>
<path d="M81.932 10.3039V11.9999H86.156V10.3039H81.932ZM81.068 7.1999V19.4079L82.892 19.0879V7.1999H81.068ZM79.964 18.7039L80.524 20.6879C82.172 20.2399 84.332 19.6479 86.316 19.0719L86.092 17.2639C83.868 17.8239 81.5 18.3999 79.964 18.7039ZM83.916 16.1439C84.876 17.5519 85.884 19.4399 86.236 20.6719L87.916 19.8079C87.532 18.5759 86.46 16.7679 85.468 15.3919L83.916 16.1439ZM81.916 7.1999V8.9759H85.532V13.2959H81.916V15.0719H87.308V7.1999H81.916ZM92.428 7.1679V16.8319C92.428 17.0399 92.364 17.1039 92.156 17.1039C91.932 17.1039 91.26 17.1199 90.636 17.0719C90.94 17.6319 91.244 18.5919 91.292 19.1839C92.348 19.1839 93.1 19.1359 93.676 18.7679C94.268 18.4159 94.412 17.8079 94.412 16.8799V7.1679H92.428ZM88.188 7.1679V21.4239H90.156V9.1039H93.452V7.1679H88.188Z" fill="white"/>
<path d="M95.868 16.4479L96.524 18.3999C97.836 17.9999 99.468 17.5039 101.004 16.9919L100.78 15.2959C98.972 15.7439 97.1 16.2079 95.868 16.4479ZM99.98 6.5279V21.4239H101.852V6.5279H99.98ZM96.86 8.2719V16.8959H98.7V8.2719H96.86ZM104.3 9.2799V11.0879H111.084V9.2799H104.3ZM104.316 6.3999C103.804 8.9919 102.796 11.4719 101.372 12.9759C101.804 13.3119 102.572 14.0479 102.876 14.4319C104.428 12.6399 105.612 9.7759 106.284 6.7839L104.316 6.3999ZM108.348 10.2399C107.548 15.0239 105.692 18.0799 101.788 19.7439C102.14 20.1599 102.7 21.0399 102.876 21.4879C107.116 19.4399 109.244 15.9359 110.268 10.5279L108.348 10.2399ZM105.052 10.5119L103.308 10.8479C104.348 15.8079 106.14 19.5679 109.932 21.4399C110.204 20.9279 110.812 20.1599 111.244 19.7759C107.74 18.2559 105.9 14.7679 105.052 10.5119Z" fill="white"/>
<path d="M112.172 7.0399V8.5599H118.62V7.0399H112.172ZM118.7 7.5999V9.0879H126.748V7.5999H118.7ZM118.46 14.5919V16.1919H126.972V14.5919H118.46ZM112.924 7.5519V13.7119H114.636V7.5519H112.924ZM121.66 6.4639V10.7679H123.532V6.4639H121.66ZM116.204 7.5519V21.4239H117.948V7.5519H116.204ZM113.74 9.2959V10.4639H117.132V9.2959H113.74ZM112.268 15.3439V16.5599H115.772V15.3439H112.268ZM112.508 17.2159V18.3999H115.66V17.2159H112.508ZM113.708 11.1839V12.3519H117.212V11.1839H113.708ZM112.124 13.3439L112.284 14.8479C113.66 14.7519 115.436 14.6239 117.164 14.4799V13.0719C115.308 13.1839 113.42 13.2959 112.124 13.3439ZM113.404 15.7599V19.9199H114.812V15.7599H113.404ZM112.044 19.2959L112.188 20.6559C113.292 20.5439 114.604 20.3999 115.932 20.2559L115.916 18.9759C114.46 19.1039 113.068 19.2319 112.044 19.2959ZM124.156 11.2479H125.052V12.5759H124.156V11.2479ZM122.22 11.2479H123.084V12.5759H122.22V11.2479ZM120.3 11.2479H121.148V12.5759H120.3V11.2479ZM118.908 9.8719V13.9359H126.524V9.8719H118.908ZM120.476 17.2479V19.4399C120.476 20.8159 120.78 21.2479 122.204 21.2479C122.476 21.2479 123.276 21.2479 123.564 21.2479C124.62 21.2479 125.036 20.8319 125.196 19.1359C124.764 19.0239 124.092 18.7839 123.788 18.5439C123.74 19.6959 123.676 19.8399 123.372 19.8399C123.196 19.8399 122.604 19.8399 122.444 19.8399C122.124 19.8399 122.076 19.7919 122.076 19.4079V17.2479H120.476ZM120.764 16.6879C121.58 17.0239 122.572 17.6479 123.084 18.1439L124.108 16.9439C123.596 16.5119 122.62 15.9359 121.772 15.6159L120.764 16.6879ZM119.004 17.2159C118.812 18.2079 118.412 19.2959 117.836 19.9359L119.1 20.8959C119.788 20.0639 120.156 18.7999 120.38 17.6959L119.004 17.2159ZM124.108 17.6639C124.892 18.5919 125.516 19.9039 125.692 20.7999L127.148 20.1439C126.94 19.2319 126.268 17.9679 125.452 17.0719L124.108 17.6639Z" fill="white"/>
<path d="M34.4359 26.8399C35.2999 27.6239 36.3079 28.7439 36.7239 29.5119L38.2759 28.4239C37.7959 27.6719 36.7559 26.5999 35.8759 25.8479L34.4359 26.8399ZM23.9559 29.9599V31.7839H38.4039V29.9599H23.9559ZM23.6519 34.4879L24.1319 36.4239C26.1959 36.0079 28.9799 35.4479 31.5719 34.9039L31.4279 33.1599C28.6279 33.6719 25.5879 34.1999 23.6519 34.4879ZM26.9959 27.3839V38.1679C26.9959 38.4399 26.8999 38.5199 26.6119 38.5199C26.3239 38.5359 25.3959 38.5359 24.4839 38.4879C24.7719 39.0319 25.0919 39.8959 25.1719 40.4399C26.4839 40.4399 27.4279 40.3759 28.0679 40.0719C28.7239 39.7679 28.9319 39.2399 28.9319 38.1999V27.3839H26.9959ZM30.2759 25.5119C28.6279 26.0719 26.1319 26.5679 23.8759 26.8719C24.0999 27.3039 24.3399 28.0239 24.4359 28.4719C26.7559 28.2159 29.4919 27.7839 31.5719 27.1439L30.2759 25.5119ZM31.8439 25.5439C31.8919 32.7279 33.1399 40.5039 36.4519 40.5039C37.9079 40.5039 38.5159 39.7999 38.8199 36.9679C38.3079 36.7599 37.6519 36.3119 37.2519 35.8639C37.1559 37.7679 36.9799 38.5519 36.6439 38.5519C35.1879 38.5519 33.7479 31.9919 33.8599 25.5439H31.8439ZM36.1959 32.3119C34.7719 34.9519 32.1639 37.1279 29.4279 38.3759C29.9079 38.8079 30.4359 39.4479 30.7239 39.9279C33.6199 38.3919 36.2279 36.0079 37.8919 33.0319L36.1959 32.3119Z" fill="white"/>
<path d="M41.4599 28.0079V29.6879H44.6279V37.0959H41.4599V38.7919H46.3719V28.0079H41.4599ZM40.3399 28.0079V39.9759H42.0839V28.0079H40.3399ZM41.3799 32.2799V33.9439H45.4759V32.2799H41.3799ZM42.6119 25.3999C42.5319 26.2799 42.3079 27.5119 42.0839 28.3439L43.6199 28.6799C43.9399 27.9279 44.3399 26.7919 44.7079 25.7039L42.6119 25.3999ZM48.4839 27.8959V29.6399H53.1559V27.8959H48.4839ZM52.4999 27.8959V28.2639C52.3239 34.9359 52.1159 37.6879 51.6039 38.2319C51.3959 38.4559 51.2199 38.5199 50.8999 38.5199C50.4999 38.5199 49.5399 38.5039 48.4999 38.4239C48.8519 38.9359 49.1079 39.7519 49.1399 40.2799C50.0679 40.3279 51.0439 40.3439 51.6519 40.2479C52.3079 40.1519 52.7559 39.9759 53.2039 39.3519C53.8599 38.5039 54.0519 35.9599 54.2599 28.7599C54.2759 28.5199 54.2759 27.8959 54.2759 27.8959H52.4999ZM48.5319 25.4159C48.0199 27.5439 47.1079 29.7199 46.0359 31.0639C46.4839 31.3199 47.2679 31.8639 47.6199 32.1839C48.7079 30.6479 49.7479 28.2159 50.3719 25.8479L48.5319 25.4159ZM47.7479 32.5039C48.5159 33.6879 49.5239 35.2559 49.9559 36.2319L51.5879 35.2399C51.0919 34.2959 50.0359 32.7599 49.2519 31.6559L47.7479 32.5039Z" fill="white"/>
<path d="M59.8182 38.9999V37.2272L63.9602 33.3919C64.3125 33.051 64.6079 32.7442 64.8466 32.4715C65.089 32.1988 65.2727 31.9317 65.3977 31.6704C65.5227 31.4052 65.5852 31.1192 65.5852 30.8124C65.5852 30.4715 65.5076 30.1779 65.3523 29.9317C65.1969 29.6817 64.9848 29.4904 64.7159 29.3579C64.4469 29.2215 64.142 29.1533 63.8011 29.1533C63.4451 29.1533 63.1344 29.2253 62.8693 29.3692C62.6041 29.5132 62.3996 29.7196 62.2557 29.9885C62.1117 30.2575 62.0398 30.5776 62.0398 30.9488H59.7045C59.7045 30.1874 59.8769 29.5264 60.2216 28.9658C60.5663 28.4052 61.0492 27.9715 61.6704 27.6647C62.2916 27.3579 63.0076 27.2044 63.8182 27.2044C64.6515 27.2044 65.3769 27.3522 65.9943 27.6476C66.6155 27.9393 67.0985 28.3446 67.4432 28.8635C67.7879 29.3825 67.9602 29.9772 67.9602 30.6476C67.9602 31.087 67.8731 31.5207 67.6988 31.9488C67.5284 32.3768 67.2235 32.8522 66.7841 33.3749C66.3447 33.8938 65.7254 34.5169 64.9261 35.2442L63.2273 36.909V36.9885H68.1136V38.9999H59.8182Z" fill="white"/>
<path d="M74.4588 39.2556C73.4815 39.2518 72.6406 39.0113 71.9361 38.534C71.2353 38.0567 70.6955 37.3654 70.3167 36.4601C69.9417 35.5548 69.7561 34.4658 69.7599 33.1931C69.7599 31.9241 69.9474 30.8427 70.3224 29.9488C70.7012 29.0548 71.241 28.3749 71.9417 27.909C72.6463 27.4393 73.4853 27.2044 74.4588 27.2044C75.4323 27.2044 76.2694 27.4393 76.9701 27.909C77.6747 28.3787 78.2164 29.0605 78.5951 29.9544C78.9739 30.8446 79.1614 31.9241 79.1576 33.1931C79.1576 34.4696 78.9683 35.5605 78.5895 36.4658C78.2145 37.3711 77.6766 38.0624 76.9758 38.5397C76.2751 39.0169 75.4361 39.2556 74.4588 39.2556ZM74.4588 37.2158C75.1255 37.2158 75.6577 36.8806 76.0554 36.2101C76.4531 35.5397 76.6501 34.534 76.6463 33.1931C76.6463 32.3105 76.5554 31.5757 76.3736 30.9885C76.1955 30.4014 75.9417 29.9601 75.6122 29.6647C75.2864 29.3692 74.902 29.2215 74.4588 29.2215C73.7959 29.2215 73.2656 29.5529 72.8679 30.2158C72.4702 30.8787 72.2694 31.8711 72.2656 33.1931C72.2656 34.087 72.3546 34.8332 72.5326 35.4317C72.7145 36.0264 72.9702 36.4734 73.2997 36.7726C73.6292 37.0681 74.0156 37.2158 74.4588 37.2158Z" fill="white"/>
<path d="M80.9119 38.9999V37.2272L85.054 33.3919C85.4062 33.051 85.7017 32.7442 85.9403 32.4715C86.1827 32.1988 86.3665 31.9317 86.4915 31.6704C86.6165 31.4052 86.679 31.1192 86.679 30.8124C86.679 30.4715 86.6013 30.1779 86.446 29.9317C86.2907 29.6817 86.0786 29.4904 85.8096 29.3579C85.5407 29.2215 85.2358 29.1533 84.8949 29.1533C84.5388 29.1533 84.2282 29.2253 83.963 29.3692C83.6979 29.5132 83.4934 29.7196 83.3494 29.9885C83.2055 30.2575 83.1335 30.5776 83.1335 30.9488H80.7983C80.7983 30.1874 80.9706 29.5264 81.3153 28.9658C81.66 28.4052 82.143 27.9715 82.7642 27.6647C83.3854 27.3579 84.1013 27.2044 84.9119 27.2044C85.7452 27.2044 86.4706 27.3522 87.0881 27.6476C87.7093 27.9393 88.1922 28.3446 88.5369 28.8635C88.8816 29.3825 89.054 29.9772 89.054 30.6476C89.054 31.087 88.9668 31.5207 88.7926 31.9488C88.6221 32.3768 88.3172 32.8522 87.8778 33.3749C87.4384 33.8938 86.8191 34.5169 86.0199 35.2442L84.321 36.909V36.9885H89.2074V38.9999H80.9119Z" fill="white"/>
<path d="M90.99 38.9999V37.2272L95.1321 33.3919C95.4844 33.051 95.7798 32.7442 96.0184 32.4715C96.2609 32.1988 96.4446 31.9317 96.5696 31.6704C96.6946 31.4052 96.7571 31.1192 96.7571 30.8124C96.7571 30.4715 96.6794 30.1779 96.5241 29.9317C96.3688 29.6817 96.1567 29.4904 95.8878 29.3579C95.6188 29.2215 95.3139 29.1533 94.973 29.1533C94.6169 29.1533 94.3063 29.2253 94.0412 29.3692C93.776 29.5132 93.5715 29.7196 93.4275 29.9885C93.2836 30.2575 93.2116 30.5776 93.2116 30.9488H90.8764C90.8764 30.1874 91.0488 29.5264 91.3934 28.9658C91.7381 28.4052 92.2211 27.9715 92.8423 27.6647C93.4635 27.3579 94.1794 27.2044 94.99 27.2044C95.8234 27.2044 96.5488 27.3522 97.1662 27.6476C97.7874 27.9393 98.2703 28.3446 98.615 28.8635C98.9597 29.3825 99.1321 29.9772 99.1321 30.6476C99.1321 31.087 99.045 31.5207 98.8707 31.9488C98.7003 32.3768 98.3953 32.8522 97.9559 33.3749C97.5166 33.8938 96.8972 34.5169 96.098 35.2442L94.3991 36.909V36.9885H99.2855V38.9999H90.99Z" fill="white"/>
<path d="M107.796 25.3519C107.108 27.4319 105.86 29.4799 104.42 30.7279C104.884 30.9999 105.7 31.6399 106.068 31.9759C107.492 30.5359 108.9 28.2319 109.748 25.8479L107.796 25.3519ZM108.132 27.1759L107.204 29.0319H118.308V27.1759H108.132ZM106.996 30.9519V36.1039H108.932V32.7439H117.94V30.9519H106.996ZM104.468 35.1599V37.0159H119.188V35.1599H104.468ZM111.7 28.1359V40.4399H113.684V28.1359H111.7Z" fill="white"/>
<path d="M123.828 29.9119V31.4319H134.948V29.9119H123.828ZM123.956 34.5839V36.0879H132.74V34.5839H123.956ZM126.004 28.8559V33.9439H132.628V28.8559H130.74V32.4879H127.812V28.8559H126.004ZM132.244 34.5839V34.8239C130.948 37.3839 127.348 38.5199 123.252 38.8719C123.556 39.2719 123.908 39.9919 124.052 40.4719C128.548 39.9119 132.42 38.5839 134.148 35.1119L132.948 34.5039L132.612 34.5839H132.244ZM127.236 35.7519L125.588 36.3439C127.38 38.7279 130.34 40.0079 134.228 40.4879C134.468 40.0079 134.948 39.2399 135.348 38.8399C131.668 38.5199 128.676 37.5439 127.236 35.7519ZM127.332 25.4159V27.8159H129.332V25.4159H127.332ZM122.532 26.8559V28.5679H135.028V26.8559H122.532ZM121.588 26.8559V31.3679C121.588 33.7199 121.492 37.0639 120.148 39.3359C120.596 39.5439 121.396 40.0719 121.732 40.3919C123.188 37.9119 123.428 33.9759 123.428 31.3679V26.8559H121.588Z" fill="white"/>
<path d="M145.508 28.2799V30.0239H150.084V28.2799H145.508ZM136.468 26.1839V27.7359H144.484V26.1839H136.468ZM146.484 28.9839V32.0239C146.484 33.6079 145.924 36.9999 143.268 38.8239C143.588 39.2079 144.132 40.0399 144.324 40.4559C146.276 39.1119 147.204 36.5199 147.428 35.1759C147.636 36.4559 148.5 39.1599 150.356 40.4559C150.628 39.9919 151.172 39.1759 151.508 38.7759C148.932 36.9359 148.34 33.5759 148.34 32.0239V28.9839H146.484ZM145.316 25.4639C145.028 27.9439 144.404 30.3439 143.348 31.8159C143.78 32.0399 144.612 32.5679 144.932 32.8399C146.036 31.1599 146.772 28.5199 147.156 25.7359L145.316 25.4639ZM149.556 28.2799V28.5519C149.444 29.8159 149.236 31.4479 149.028 32.4079L150.564 32.7439C150.868 31.6559 151.172 29.9599 151.364 28.4719L150.084 28.2159L149.812 28.2799H149.556ZM141.828 26.9999V31.1759C141.828 31.3199 141.764 31.3679 141.588 31.3839C141.428 31.3839 140.852 31.3839 140.308 31.3679C140.5 31.7519 140.74 32.3439 140.804 32.7759C141.748 32.7759 142.388 32.7599 142.9 32.5359C143.396 32.3119 143.524 31.9439 143.524 31.2079V26.9999H141.828ZM137.812 28.3279V29.4799H139.604V30.4559H137.812V31.6079H140.996V28.3279H137.812ZM137.012 28.3279V32.1039H138.388V28.3279H137.012ZM137.796 35.2559V36.4879H139.636V37.4799H137.796V38.7119H141.028V35.2559H137.796ZM136.932 35.2559V39.4479H138.324V35.2559H136.932ZM136.292 33.0159V34.5839H144.66V33.0159H136.292ZM141.828 33.7839V38.6639C141.828 38.8399 141.78 38.8719 141.588 38.8879C141.428 38.8879 140.836 38.8879 140.292 38.8719C140.484 39.3039 140.708 39.9599 140.772 40.4079C141.716 40.4079 142.388 40.3919 142.884 40.1519C143.412 39.8959 143.54 39.4639 143.54 38.6959V33.7839H141.828Z" fill="white"/>
<path d="M158.756 30.7599V40.4399H160.756V30.7599H158.756ZM156.068 33.5919H163.636V34.4559H156.068V33.5919ZM156.068 31.3679H163.636V32.2159H156.068V31.3679ZM154.18 29.8959V35.9279H165.604V29.8959H154.18ZM152.676 36.7599V38.4079H167.012V36.7599H152.676ZM155.316 27.1919H157.572V28.1199H155.316V27.1919ZM153.604 26.0399V29.2559H159.364V26.0399H153.604ZM162.02 27.1919H164.324V28.1199H162.02V27.1919ZM160.324 26.0399V29.2559H166.116V26.0399H160.324Z" fill="white"/>
</svg>
