<svg width="421" height="413" viewBox="0 0 421 413" fill="none" xmlns="http://www.w3.org/2000/svg">
<g clip-path="url(#clip0_1106_25541)">
<path d="M309.23 406.39C315.09 347.78 281.45 272.8 281.45 272.8L175.28 272.1C175.28 272.1 134.78 348.96 140.66 407.57" fill="white"/>
<path d="M140.66 411.89C138.47 411.89 136.59 410.23 136.37 408C130.43 348.77 169.79 273.27 171.47 270.08C172.22 268.66 173.69 267.77 175.29 267.77H175.32L281.49 268.47C283.18 268.48 284.71 269.48 285.4 271.02C285.75 271.8 294.02 290.33 301.69 316.38C312.04 351.52 316.02 381.94 313.54 406.8C313.3 409.17 311.2 410.91 308.81 410.67C306.44 410.43 304.7 408.32 304.94 405.94C310.02 355.12 284.29 290.57 278.61 277.08L177.94 276.41C171.37 289.6 139.85 356.08 144.97 407.11C145.21 409.48 143.48 411.6 141.1 411.84C140.95 411.85 140.81 411.86 140.66 411.86V411.89Z" fill="black"/>
<path d="M110.86 407.569C104.57 345.409 144.34 287.829 144.34 287.829H209.39" fill="white"/>
<path d="M110.85 412.1C108.55 412.1 106.59 410.36 106.35 408.03C99.96 344.93 138.95 287.67 140.61 285.26C141.46 284.04 142.85 283.31 144.34 283.31H209.39C211.89 283.31 213.92 285.34 213.92 287.84C213.92 290.34 211.89 292.37 209.39 292.37H146.79C140.13 302.83 109.95 353.66 115.37 407.12C115.62 409.61 113.81 411.83 111.32 412.08C111.16 412.1 111.01 412.1 110.86 412.1H110.85Z" fill="black"/>
<path d="M341.28 135.75C338.69 124.51 335.49 113.96 331.6 104.16C326.5 91.2999 320.24 79.8399 312.69 69.7699C290.23 39.8499 256.36 23.1699 207.76 24.2699H207.13C158.54 25.3699 125.46 43.5499 104.36 74.4499C97.27 84.8399 91.53 96.6299 87.02 109.7C83.57 119.67 80.85 130.32 78.77 141.67C72.76 174.48 70.34 232.07 78.65 255.83C87.82 282.07 111.67 302.14 164.51 304.62C164.51 304.62 187.96 305.91 212.81 305.25C239.37 304.55 263.73 302.62 263.73 302.62C316.4 297.58 338.56 276.53 346.54 249.91C353.77 225.8 348.77 168.24 341.29 135.75" fill="white"/>
<path d="M349.43 145.82C333.53 55.7799 268.19 24.8498 211.96 24.5898L207.04 24.6598L202.65 24.7998C146.48 27.6098 82.8598 61.4198 71.0298 152.09C60.8898 156.03 39.3798 169.97 40.2798 219.63C41.1798 269.41 78.0398 278.23 91.7098 279.79C93.0898 279.96 95.9798 279.82 98.1098 277.68C97.8098 277.28 97.5498 276.85 97.2598 276.43C96.8598 275.86 96.4598 275.3 96.0798 274.7C95.6298 273.98 95.1998 273.23 94.7698 272.49C94.4598 271.95 94.1498 271.42 93.8498 270.86C93.3898 269.99 92.9698 269.09 92.5498 268.19C92.3398 267.74 92.1098 267.3 91.9098 266.83C91.3198 265.45 90.7598 264.07 90.2598 262.63C82.6598 240.91 84.8598 188.03 90.3598 158.03C92.2598 147.66 94.6398 137.84 97.8998 128.78C104.97 109.17 126.1 52.3898 207.61 50.5598C291.92 48.6598 313.31 104.49 321.26 123.76C324.93 132.66 328.27 142.35 330.63 152.63C337.47 182.35 342.06 235.07 335.44 257.11C335.01 258.57 334.51 259.99 333.98 261.38C333.81 261.86 333.59 262.3 333.4 262.76C333.03 263.68 332.65 264.59 332.23 265.49C331.96 266.05 331.66 266.6 331.37 267.15C330.98 267.91 330.59 268.67 330.15 269.42C329.81 270.02 329.42 270.6 329.05 271.2C328.78 271.62 328.52 272.06 328.24 272.49C330.46 274.53 333.32 274.53 334.69 274.31C348.29 272.14 384.65 261.66 383.3 211.9C381.96 162.24 359.71 149.29 349.41 145.81" fill="black"/>
<path d="M272.48 301.61C311.16 295.26 328.61 278.99 335.2 257.03C341.81 234.99 337.23 182.36 330.4 152.65" fill="white"/>
<path d="M272.48 306.14C270.3 306.14 268.38 304.56 268.02 302.34C267.61 299.87 269.29 297.54 271.76 297.14C305.26 291.64 324.05 278.49 330.87 255.73C335.84 239.17 334.81 192 325.99 153.67C325.43 151.23 326.95 148.8 329.39 148.24C331.83 147.68 334.26 149.2 334.82 151.64C341.34 179.97 346.77 234.26 339.55 258.34C331.72 284.43 310.03 300.05 273.23 306.08C272.98 306.12 272.73 306.14 272.49 306.14H272.48Z" fill="black"/>
<path d="M90.38 158.061C84.88 188.061 82.67 240.721 90.27 262.441C97.95 284.401 116.56 300.051 156.76 304.281" fill="white"/>
<path d="M156.76 308.81C156.6 308.81 156.44 308.81 156.28 308.79C118.13 304.78 95.1399 290.11 85.9899 263.94C77.6999 240.23 80.6899 185.8 85.9199 157.24C86.3699 154.78 88.7199 153.15 91.1899 153.6C93.6499 154.05 95.2799 156.41 94.8299 158.87C87.7499 197.51 88.8299 244.63 94.5399 260.94C102.52 283.77 122.44 296.11 157.23 299.77C159.72 300.03 161.52 302.26 161.26 304.75C161.01 307.08 159.05 308.81 156.76 308.81V308.81Z" fill="black"/>
<path d="M92.5999 284.75C91.9499 284.75 91.4399 284.7 91.1099 284.66C78.3199 283.2 36.3499 274.2 35.3599 219.71C34.4999 172.08 53.3999 154.86 66.5299 148.66C72.4999 107.06 89.4999 74.4499 117.08 51.6899C140 32.7799 170.3 21.4799 202.4 19.8799L206.88 19.7399L211.88 19.6699C244.13 19.8199 274.96 29.7399 298.76 47.5999C327.43 69.1099 345.92 100.92 353.76 142.2C367.21 147.83 386.94 164.2 388.23 211.77C388.85 234.73 381.98 252.54 367.81 264.69C356.19 274.65 342.56 278.04 335.47 279.17C334.02 279.4 328.98 279.86 324.91 276.11C323.13 274.47 322.81 271.78 324.15 269.76C324.28 269.56 324.41 269.35 324.54 269.15C324.66 268.95 324.79 268.75 324.91 268.56L325.17 268.15C325.41 267.77 325.66 267.4 325.87 267.01C326.28 266.3 326.65 265.59 326.98 264.93L327.21 264.49C327.4 264.12 327.6 263.75 327.79 263.37C328.16 262.57 328.51 261.72 328.84 260.92C328.93 260.69 329.02 260.49 329.11 260.3C329.19 260.12 329.28 259.93 329.35 259.74C329.36 259.7 329.38 259.67 329.39 259.63C329.9 258.3 330.35 256.98 330.73 255.7C335.7 239.15 334.66 192.03 325.84 153.73C323.76 144.65 320.77 135.46 316.72 125.63L316.28 124.56C312.32 114.92 304.94 96.9599 288.82 81.9499C269.11 63.5999 241.81 54.6999 207.73 55.4599C128.93 57.2299 109.06 112.33 102.53 130.43C99.6399 138.44 97.2399 147.75 95.1999 158.9C88.1099 197.56 89.1999 244.69 94.8999 260.99C95.3199 262.2 95.7999 263.43 96.4199 264.87C96.5099 265.08 96.6199 265.29 96.7199 265.5C96.8199 265.7 96.9099 265.9 97.0099 266.1L97.1799 266.46C97.5099 267.15 97.8299 267.85 98.1899 268.52C98.3599 268.84 98.5499 269.17 98.7399 269.5L99.3099 270.48C99.6199 271 99.9199 271.53 100.24 272.03C100.53 272.48 100.84 272.93 101.16 273.37L101.29 273.55C101.44 273.76 101.57 273.97 101.71 274.17C101.82 274.33 101.92 274.5 102.04 274.66C103.51 276.61 103.33 279.35 101.6 281.09C98.5399 284.17 94.8099 284.7 92.5999 284.7V284.75ZM211.94 29.5099L207.11 29.5799L202.8 29.7099C172.89 31.1999 144.64 41.7099 123.34 59.2799C97.1299 80.9099 81.1699 112.34 75.8999 152.72C75.6699 154.5 74.4799 156.02 72.7999 156.67C62.1399 160.81 44.3699 174.48 45.1799 219.54C45.4499 234.37 50.4199 269.05 90.3299 274.66L90.2099 274.45C89.9699 274.04 89.7399 273.63 89.5099 273.2C89.0399 272.32 88.6499 271.48 88.2699 270.67L87.8599 269.81C87.6999 269.47 87.5399 269.14 87.3899 268.79C86.6799 267.14 86.0999 265.66 85.6099 264.25C77.2799 240.44 80.2699 185.81 85.5199 157.15C87.6599 145.47 90.1999 135.64 93.2699 127.12C96.7399 117.5 103.95 97.4899 121.3 79.5899C142.34 57.8799 171.34 46.4599 207.49 45.6499C244.27 44.8299 273.86 54.6199 295.5 74.7699C313.21 91.2499 321.11 110.5 325.36 120.84L325.79 121.89C330.05 132.23 333.2 141.93 335.41 151.53C341.95 179.92 347.39 234.36 340.14 258.52C339.7 260.01 339.17 261.55 338.58 263.09C338.44 263.49 338.27 263.88 338.1 264.26L337.93 264.65C337.56 265.55 337.15 266.55 336.68 267.57C336.67 267.6 336.65 267.63 336.64 267.66C336.41 268.13 336.16 268.6 335.92 269.06L335.9 269.1C350.52 266.27 379.56 255.2 378.39 212.02C377.17 167.03 358.72 154.14 347.84 150.45C346.14 149.87 344.89 148.42 344.57 146.65C337.49 106.57 320.09 75.8799 292.85 55.4499C270.72 38.8499 241.98 29.6299 211.91 29.4899L211.94 29.5099Z" fill="black"/>
<path d="M383.36 211.2C382.89 195.84 380.41 184.01 376.91 174.91C376.88 175.2 376.86 175.48 376.84 175.82C376.74 178.2 376.77 180.73 376.8 183.18C376.82 185.28 376.85 187.47 376.79 189.54C376.68 193.94 376.49 197.98 376.24 201.76C375.33 197.88 374.31 193.89 373.21 189.82C373.06 189.27 372.91 188.71 372.75 188.14C371.7 184.28 370.63 180.3 369.19 176.53C368.5 174.71 366.98 172.51 364.98 172.33C363.75 172.22 362.47 172.4 361.05 172.89C359.29 173.52 358.14 175.88 358.14 178.9C358.14 180.36 358.19 181.83 358.25 183.26C358.28 184.05 358.31 184.84 358.33 185.63C358.73 201.02 357.79 215.76 356.92 226.88C356.69 229.66 357.4 234.34 360.29 235.03C360.59 235.1 360.87 235.13 361.15 235.1C361.76 235.04 362.32 234.76 362.83 234.28C364.14 233 364.77 230.49 364.91 228.73C365.7 218.64 366.46 207.92 366.55 197.12C368.28 204 369.82 211.01 371.13 218.04C371.38 219.34 371.62 220.68 371.84 221.97C372.14 223.61 372.44 225.31 372.76 226.98C372.86 227.47 372.94 227.89 373.03 228.27C373.54 230.52 374.98 233.01 376.95 233.14C377.1 233.14 377.26 233.14 377.45 233.13C377.45 233.13 377.54 233.13 377.57 233.13C377.74 233.1 377.91 233.06 378.08 233.01C380.01 232.37 381.08 229.85 381.44 227.7C382.24 222.9 382.87 217.44 383.36 211.21" fill="#59595C"/>
<path d="M63.7198 193.14C63.7298 192.35 63.7498 191.56 63.7698 190.77C63.8098 189.34 63.8498 187.87 63.8198 186.41C63.7698 183.39 62.5998 181.05 60.8398 180.44C59.4098 179.96 58.1298 179.79 56.8998 179.92C54.8998 180.13 53.4098 182.35 52.7498 184.17C51.3598 187.96 50.3298 191.97 49.3298 195.83C49.1798 196.4 49.0398 196.95 48.8998 197.51C47.8398 201.59 46.8798 205.6 46.0098 209.49C45.7098 205.72 45.4698 201.67 45.2998 197.28C45.2298 195.2 45.2198 193.02 45.2198 190.92C45.2198 188.48 45.2198 185.94 45.0998 183.56C45.0798 183.23 45.0498 182.95 44.9998 182.66C41.9198 192 39.9998 204.06 40.2698 219.64C40.4098 227.23 41.3898 233.86 42.9898 239.66C43.4398 240.16 43.9598 240.55 44.5698 240.75C44.7498 240.8 44.9198 240.84 45.0898 240.86C45.1398 240.86 45.1798 240.86 45.2098 240.86C45.3898 240.86 45.5498 240.87 45.6998 240.85C47.6698 240.71 49.0898 238.21 49.5598 235.95C49.6398 235.57 49.7198 235.15 49.8198 234.66C50.1098 232.97 50.3898 231.28 50.6598 229.64C50.8798 228.35 51.0998 227.01 51.3198 225.7C52.5498 218.66 53.9898 211.63 55.6398 204.72C55.8798 215.54 56.7798 226.25 57.6898 236.33C57.8398 238.09 58.4998 240.58 59.8298 241.83C60.3398 242.31 60.9098 242.59 61.5198 242.64C61.7998 242.66 62.0798 242.64 62.3798 242.57C65.2598 241.84 65.9198 237.16 65.6598 234.37C64.6498 223.25 63.5298 208.53 63.7298 193.14" fill="#59595C"/>
<path d="M175.81 205.889C175.99 214.219 169.39 221.119 161.07 221.299C152.74 221.479 145.85 214.879 145.66 206.549C145.48 198.229 152.08 191.319 160.4 191.139C168.73 190.959 175.62 197.569 175.81 205.889Z" fill="black"/>
<path d="M277 203.66C277.18 211.99 270.57 218.89 262.25 219.07C253.92 219.25 247.02 212.65 246.84 204.32C246.66 196 253.25 189.09 261.59 188.91C269.91 188.73 276.82 195.33 277 203.66V203.66Z" fill="black"/>
<path d="M244.23 166.81C243.32 166.81 242.41 166.53 241.63 165.96C239.68 164.52 239.24 161.79 240.66 159.83C240.95 159.42 248.02 149.86 261.33 149.57C273.86 149.31 280.94 158.66 281.23 159.06C282.68 161.02 282.26 163.79 280.29 165.23C278.33 166.68 275.56 166.26 274.12 164.29C273.95 164.07 269.4 158.2 261.53 158.39C252.72 158.58 248 164.76 247.8 165.02C246.93 166.18 245.59 166.8 244.24 166.8L244.23 166.81Z" fill="black"/>
<path d="M143.15 169.5C142.29 169.5 141.43 169.25 140.67 168.74C138.67 167.37 138.13 164.66 139.48 162.65C139.76 162.24 146.39 152.57 158.94 152.29C172.24 152.02 179.73 161.23 180.04 161.63C181.55 163.54 181.23 166.32 179.32 167.83C177.42 169.34 174.65 169.03 173.13 167.14C172.88 166.84 167.89 160.91 159.12 161.12C151.24 161.29 146.96 167.34 146.78 167.6C145.92 168.84 144.53 169.51 143.13 169.51L143.15 169.5Z" fill="black"/>
<path d="M200.53 264.559C194.16 264.559 189.36 261.249 187.74 255.539C187.15 253.469 188.35 251.319 190.41 250.729C192.48 250.139 194.63 251.339 195.22 253.399C196.17 256.719 199.47 257.009 202.08 256.669C206.63 256.069 208.64 251.419 208.58 247.349L208.5 241.049C208.47 238.899 210.19 237.139 212.34 237.109C212.36 237.109 212.38 237.109 212.39 237.109C214.51 237.109 216.25 238.819 216.28 240.949L216.36 247.249C216.49 256.159 210.9 263.369 203.08 264.399C202.2 264.509 201.35 264.569 200.53 264.569V264.559Z" fill="black"/>
<path d="M223.78 264.249C223.1 264.249 222.41 264.209 221.7 264.139C213.99 263.349 208.72 256.599 208.59 247.349L208.51 241.049C208.48 238.899 210.2 237.139 212.35 237.109C212.37 237.109 212.39 237.109 212.4 237.109C214.52 237.109 216.26 238.819 216.29 240.949L216.37 247.249C216.43 251.369 218.07 255.949 222.5 256.399C223.92 256.549 228.61 256.729 229.59 252.939C230.13 250.859 232.25 249.609 234.33 250.139C236.41 250.679 237.66 252.799 237.13 254.879C235.63 260.719 230.5 264.259 223.79 264.259L223.78 264.249Z" fill="black"/>
<path d="M211.55 224.98C204.86 225.07 198.06 226.58 198.15 232.47C198.22 238.37 205.64 244.88 211.82 244.79C217.99 244.71 225.23 237.38 225.16 232.11C225.09 226.84 218.25 224.88 211.55 224.97V224.98Z" fill="black"/>
<path d="M141.19 407.569C141.19 407.569 135.55 377.279 151.29 339.239Z" fill="white"/>
<path d="M141.19 411.89C139.15 411.89 137.33 410.44 136.95 408.36C136.71 407.07 131.26 376.36 147.31 337.59C148.22 335.39 150.74 334.34 152.95 335.25C155.16 336.16 156.2 338.69 155.29 340.9C140.22 377.33 145.39 406.49 145.45 406.78C145.89 409.13 144.34 411.38 141.99 411.82C141.72 411.87 141.46 411.89 141.19 411.89V411.89Z" fill="black"/>
<path d="M347.13 290.65C336.29 290.69 305.22 296.02 302.36 278.84C300.49 267.64 296.01 254.56 284.81 254.19C273.61 253.82 268.69 262.7 269.5 272.49C270.02 278.84 270.18 283.35 266.09 287.1C261.61 291.21 253.5 299.3 253.11 312.67C252.63 329.1 259.05 347.55 278.84 352.78C298.63 358.01 309.88 351.82 321.17 347.68C331.88 343.76 356.15 349.41 368.84 337.09C381.54 324.77 376.83 290.53 347.13 290.63V290.65Z" fill="white"/>
<path d="M293.33 359.13C288.69 359.13 283.54 358.51 277.72 356.98C258.92 352.01 248.1 335.41 248.77 312.56C249.24 296.68 259.35 287.42 263.15 283.93C265.5 281.77 265.71 279.39 265.17 272.86C264.59 265.9 266.55 259.52 270.54 255.33C274.12 251.57 279.13 249.69 284.94 249.88C292.72 250.14 302.8 255.25 306.61 278.14C308.23 287.87 324.79 287.64 340.19 286.66C342.89 286.49 345.22 286.34 347.11 286.33H347.26C361.27 286.33 372.15 293.34 377.14 305.59C382.13 317.83 379.9 332.39 371.84 340.21C362.43 349.34 348.13 349.83 336.63 350.23C331.05 350.42 325.78 350.61 322.64 351.75C321.27 352.25 319.9 352.78 318.52 353.32C311.39 356.09 303.59 359.12 293.32 359.12L293.33 359.13ZM284.12 258.51C281.02 258.51 278.56 259.44 276.8 261.29C274.51 263.69 273.42 267.65 273.79 272.15C274.29 278.15 274.85 284.94 269 290.3C263.77 295.09 257.73 301.98 257.42 312.82C257.21 319.77 258.23 342.9 279.93 348.63C295.92 352.85 305.82 349.01 315.4 345.29C316.84 344.73 318.26 344.18 319.68 343.66C324.11 342.04 329.78 341.84 336.34 341.61C346.87 341.25 358.81 340.83 365.83 334.02C371.28 328.73 372.74 317.68 369.15 308.86C367.03 303.67 361.38 294.98 347.27 294.98C347.23 294.98 347.19 294.98 347.15 294.98C345.52 294.98 343.31 295.13 340.75 295.29C325.93 296.23 301.14 297.8 298.1 279.57C295.25 262.45 289.22 258.68 284.66 258.53C284.48 258.53 284.3 258.53 284.13 258.53L284.12 258.51Z" fill="black"/>
</g>
<defs>
<clipPath id="clip0_1106_25541">
<rect width="420.6" height="412.1" fill="white"/>
</clipPath>
</defs>
</svg>
