<?xml version="1.0" encoding="UTF-8"?><svg id="Layer_2" xmlns="http://www.w3.org/2000/svg" xmlns:xlink="http://www.w3.org/1999/xlink" viewBox="0 0 3206.11 1523.53"><defs><style>.cls-1{stroke:#053342;stroke-miterlimit:10;stroke-width:0px;}.cls-1,.cls-2{fill:#053342;}.cls-3{clip-path:url(#clippath);}.cls-4{fill:#fff;}.cls-5{fill:#fcfff6;}.cls-6{fill:#bcbec0;}.cls-7{fill:#a7a9ac;}.cls-8{fill:#c2e1b5;}.cls-9{fill:#d9ebcb;}.cls-10{fill:#105661;}.cls-11{fill:#1d9696;}.cls-12{fill:#1d8f83;}.cls-13{fill:#3ec0c4;}.cls-14{fill:#135463;}.cls-15{fill:#363636;}.cls-16{fill:#99cf90;}.cls-17{fill:#39a490;}.cls-18{fill:#56b895;}.cls-19{fill:#5cbda8;}</style><clipPath id="clippath"><polygon class="cls-6" points="2214.37 389.23 2214.37 0 2098.94 97.07 2098.94 486.16 2098.86 486.16 2098.86 1166.1 2329.98 1166.1 2329.98 486.16 2214.37 389.23"/></clipPath></defs><g id="_ÎÓÈ_1"><g><g><rect class="cls-13" x="1573.1" y="518.25" width="159.73" height="348.23"/><rect class="cls-11" x="1732.83" y="518.25" width="267.66" height="348.23"/><g><rect class="cls-11" x="1610.9" y="548.7" width="32.33" height="31.95"/><rect class="cls-11" x="1662.71" y="548.7" width="32.33" height="31.95"/><rect class="cls-11" x="1610.9" y="593.87" width="32.33" height="31.95"/><rect class="cls-11" x="1662.71" y="593.87" width="32.33" height="31.95"/><rect class="cls-11" x="1610.9" y="639.04" width="32.33" height="31.95"/><rect class="cls-11" x="1662.71" y="639.04" width="32.33" height="31.95"/><rect class="cls-11" x="1610.9" y="684.21" width="32.33" height="31.95"/><rect class="cls-11" x="1662.71" y="684.21" width="32.33" height="31.95"/><rect class="cls-11" x="1610.9" y="729.38" width="32.33" height="31.95"/><rect class="cls-11" x="1662.71" y="729.38" width="32.33" height="31.95"/><rect class="cls-11" x="1610.9" y="774.55" width="32.33" height="31.95"/><rect class="cls-11" x="1662.71" y="774.55" width="32.33" height="31.95"/><rect class="cls-11" x="1610.9" y="819.72" width="32.33" height="31.95"/><rect class="cls-11" x="1662.71" y="819.72" width="32.33" height="31.95"/></g><g><rect class="cls-13" x="1774.62" y="548.7" width="32.33" height="31.95"/><rect class="cls-13" x="1826.43" y="548.7" width="32.33" height="31.95"/><rect class="cls-13" x="1774.62" y="593.87" width="32.33" height="31.95"/><rect class="cls-13" x="1826.43" y="593.87" width="32.33" height="31.95"/><rect class="cls-13" x="1774.62" y="639.04" width="32.33" height="31.95"/><rect class="cls-13" x="1826.43" y="639.04" width="32.33" height="31.95"/><rect class="cls-13" x="1774.62" y="684.21" width="32.33" height="31.95"/><rect class="cls-13" x="1826.43" y="684.21" width="32.33" height="31.95"/><rect class="cls-13" x="1774.62" y="729.38" width="32.33" height="31.95"/><rect class="cls-13" x="1826.43" y="729.38" width="32.33" height="31.95"/><rect class="cls-13" x="1774.62" y="774.55" width="32.33" height="31.95"/><rect class="cls-13" x="1826.43" y="774.55" width="32.33" height="31.95"/><rect class="cls-13" x="1774.62" y="819.72" width="32.33" height="31.95"/><rect class="cls-13" x="1826.43" y="819.72" width="32.33" height="31.95"/></g><g><rect class="cls-13" x="1879.55" y="548.7" width="32.33" height="31.95"/><rect class="cls-13" x="1931.36" y="548.7" width="32.33" height="31.95"/><rect class="cls-13" x="1879.55" y="593.87" width="32.33" height="31.95"/><rect class="cls-13" x="1931.36" y="593.87" width="32.33" height="31.95"/><rect class="cls-13" x="1879.55" y="639.04" width="32.33" height="31.95"/><rect class="cls-13" x="1931.36" y="639.04" width="32.33" height="31.95"/><rect class="cls-13" x="1879.55" y="684.21" width="32.33" height="31.95"/><rect class="cls-13" x="1931.36" y="684.21" width="32.33" height="31.95"/><rect class="cls-13" x="1879.55" y="729.38" width="32.33" height="31.95"/><rect class="cls-13" x="1931.36" y="729.38" width="32.33" height="31.95"/><rect class="cls-13" x="1879.55" y="774.55" width="32.33" height="31.95"/><rect class="cls-13" x="1931.36" y="774.55" width="32.33" height="31.95"/><rect class="cls-13" x="1879.55" y="819.72" width="32.33" height="31.95"/><rect class="cls-13" x="1931.36" y="819.72" width="32.33" height="31.95"/></g></g><g><rect class="cls-12" x="1157.02" y="608.07" width="149.61" height="361.57" rx="74.81" ry="74.81"/><rect class="cls-12" x="1279.64" y="660.09" width="149.61" height="361.57" rx="74.81" ry="74.81"/><rect class="cls-12" x="1402.27" y="688.24" width="149.61" height="361.57" rx="74.81" ry="74.81"/><rect class="cls-12" x="1524.89" y="658.35" width="149.61" height="361.57" rx="74.81" ry="74.81"/></g><g><rect class="cls-4" x="2400.31" y="305.8" width="240.4" height="433.13"/><rect class="cls-13" x="2419.15" y="328.85" width="200.85" height="19.91"/><rect class="cls-13" x="2419.15" y="367.45" width="200.85" height="19.91"/><rect class="cls-13" x="2419.15" y="406.05" width="200.85" height="19.91"/></g><g><rect class="cls-12" x="175.44" y="417.75" width="157.14" height="271.64" rx="78.57" ry="78.57"/><rect class="cls-12" x="304.24" y="388.2" width="157.14" height="271.64" rx="78.57" ry="78.57"/><rect class="cls-12" x="433.04" y="417.75" width="157.14" height="271.64" rx="78.57" ry="78.57"/><rect class="cls-12" x="561.84" y="470.56" width="157.14" height="271.64" rx="78.57" ry="78.57"/></g><path class="cls-18" d="m3206.11,848.7h-177.33c-40.42,0-78.91-17.26-105.81-47.43l-200.27-224.7c-26.89-30.17-65.39-47.43-105.81-47.43h-504.9c-53.6,0-102.61,30.23-126.66,78.13l-90.54,180.3c-24.05,47.9-73.06,78.13-126.66,78.13h-271.87c-37.03,0-72.6-14.49-99.08-40.38l-258.74-252.94c-26.48-25.89-62.04-40.38-99.08-40.38H383.11c-26.08,0-51.65,7.2-73.91,20.79l-217.23,132.75c-42.13,25.75-67.83,71.56-67.83,120.94v537.35c0,78.28,63.46,141.73,141.73,141.73h3040.23v-636.86Z"/><g><rect class="cls-12" x="2138.07" y="677.95" width="149.61" height="692.43" rx="74.81" ry="74.81"/><rect class="cls-12" x="2260.7" y="649.8" width="149.61" height="692.43" rx="74.81" ry="74.81"/><rect class="cls-12" x="2383.32" y="677.95" width="149.61" height="692.43" rx="74.81" ry="74.81"/><rect class="cls-12" x="2505.94" y="735.66" width="149.61" height="692.43" rx="74.81" ry="74.81"/><rect class="cls-12" x="2628.57" y="693.12" width="149.61" height="692.43" rx="74.81" ry="74.81"/><rect class="cls-12" x="2749.83" y="756.53" width="149.61" height="692.43" rx="74.81" ry="74.81"/></g><g><rect class="cls-16" x="2303.46" y="406.66" width="174.79" height="371.92"/><rect class="cls-4" x="2321.93" y="436.67" width="13.57" height="17.06"/><rect class="cls-4" x="2345.07" y="436.67" width="13.57" height="17.06"/><rect class="cls-4" x="2368.2" y="436.67" width="13.57" height="17.06"/><rect class="cls-4" x="2391.34" y="436.67" width="13.57" height="17.06"/><rect class="cls-4" x="2414.48" y="436.67" width="13.57" height="17.06"/><rect class="cls-4" x="2437.62" y="436.67" width="13.57" height="17.06"/><rect class="cls-4" x="2321.93" y="467.29" width="13.57" height="17.06"/><rect class="cls-4" x="2345.07" y="467.29" width="13.57" height="17.06"/><rect class="cls-4" x="2368.2" y="467.29" width="13.57" height="17.06"/><rect class="cls-4" x="2391.34" y="467.29" width="13.57" height="17.06"/><rect class="cls-4" x="2414.48" y="467.29" width="13.57" height="17.06"/><rect class="cls-4" x="2437.62" y="467.29" width="13.57" height="17.06"/><rect class="cls-4" x="2321.93" y="497.91" width="13.57" height="17.06"/><rect class="cls-4" x="2345.07" y="497.91" width="13.57" height="17.06"/><rect class="cls-4" x="2368.2" y="497.91" width="13.57" height="17.06"/><rect class="cls-4" x="2391.34" y="497.91" width="13.57" height="17.06"/><rect class="cls-4" x="2414.48" y="497.91" width="13.57" height="17.06"/><rect class="cls-4" x="2437.62" y="497.91" width="13.57" height="17.06"/><rect class="cls-4" x="2321.93" y="528.53" width="13.57" height="17.06"/><rect class="cls-4" x="2345.07" y="528.53" width="13.57" height="17.06"/><rect class="cls-4" x="2368.2" y="528.53" width="13.57" height="17.06"/><rect class="cls-4" x="2391.34" y="528.53" width="13.57" height="17.06"/><rect class="cls-4" x="2414.48" y="528.53" width="13.57" height="17.06"/><rect class="cls-4" x="2437.62" y="528.53" width="13.57" height="17.06"/><rect class="cls-4" x="2321.93" y="559.15" width="13.57" height="17.06"/><rect class="cls-4" x="2345.07" y="559.15" width="13.57" height="17.06"/><rect class="cls-4" x="2368.2" y="559.15" width="13.57" height="17.06"/><rect class="cls-4" x="2391.34" y="559.15" width="13.57" height="17.06"/><rect class="cls-4" x="2414.48" y="559.15" width="13.57" height="17.06"/><rect class="cls-4" x="2437.62" y="559.15" width="13.57" height="17.06"/></g><path class="cls-12" d="m643.69,923.23l145.32-145.32c21.65-21.65,51-33.81,81.62-33.81h426.98c30.61,0,59.97,12.16,81.62,33.81l182.76,182.76c21.65,21.65,51,33.81,81.62,33.81h177.07c30.61,0,59.97,12.16,81.62,33.81l216.89,216.89c72.71,72.71,21.21,197.04-81.62,197.04H725.3c-63.75,0-115.42-51.68-115.42-115.42v-321.94c0-30.61,12.16-59.97,33.81-81.62Z"/><g><rect class="cls-9" x="1670.17" y="829.73" width="149.61" height="475.57" rx="74.81" ry="74.81"/><rect class="cls-9" x="1792.8" y="762.58" width="149.61" height="475.57" rx="74.81" ry="74.81"/><rect class="cls-9" x="1915.42" y="790.73" width="149.61" height="475.57" rx="74.81" ry="74.81"/><rect class="cls-9" x="2038.05" y="869.31" width="149.61" height="475.57" rx="74.81" ry="74.81"/><rect class="cls-9" x="2160.67" y="869.31" width="149.61" height="475.57" rx="74.81" ry="74.81"/></g><g><rect class="cls-4" x="1324.54" y="781.94" width="277.57" height="371.92"/><g><rect class="cls-13" x="1348.72" y="811.94" width="23.13" height="34.12"/><rect class="cls-13" x="1388.15" y="811.94" width="23.13" height="34.12"/><rect class="cls-13" x="1427.58" y="811.94" width="23.13" height="34.12"/><rect class="cls-13" x="1467.01" y="811.94" width="23.13" height="34.12"/><rect class="cls-13" x="1506.44" y="811.94" width="23.13" height="34.12"/><rect class="cls-13" x="1545.86" y="811.94" width="23.13" height="34.12"/><rect class="cls-13" x="1348.72" y="859.71" width="23.13" height="34.12"/><rect class="cls-13" x="1388.15" y="859.71" width="23.13" height="34.12"/><rect class="cls-13" x="1427.58" y="859.71" width="23.13" height="34.12"/><rect class="cls-13" x="1348.72" y="910.63" width="23.13" height="34.12"/><rect class="cls-13" x="1388.15" y="910.63" width="23.13" height="34.12"/><rect class="cls-13" x="1427.58" y="910.63" width="23.13" height="34.12"/><rect class="cls-13" x="1348.72" y="961.55" width="23.13" height="34.12"/><rect class="cls-13" x="1388.15" y="961.55" width="23.13" height="34.12"/><rect class="cls-13" x="1427.58" y="961.55" width="23.13" height="34.12"/><rect class="cls-13" x="1467.01" y="859.71" width="23.13" height="34.12"/><rect class="cls-13" x="1506.44" y="859.71" width="23.13" height="34.12"/><rect class="cls-13" x="1545.86" y="859.71" width="23.13" height="34.12"/><rect class="cls-13" x="1467.01" y="910.63" width="23.13" height="34.12"/><rect class="cls-13" x="1506.44" y="910.63" width="23.13" height="34.12"/><rect class="cls-13" x="1545.86" y="910.63" width="23.13" height="34.12"/><rect class="cls-13" x="1467.01" y="961.55" width="23.13" height="34.12"/><rect class="cls-13" x="1506.44" y="961.55" width="23.13" height="34.12"/><rect class="cls-13" x="1545.86" y="961.55" width="23.13" height="34.12"/></g></g><g><rect class="cls-12" x="2014.12" y="1049.38" width="149.61" height="270.17" rx="74.81" ry="74.81"/><rect class="cls-12" x="2136.74" y="1021.24" width="149.61" height="270.17" rx="74.81" ry="74.81"/></g><polygon class="cls-18" points="844.98 548.58 788.54 548.58 816.76 440.81 844.98 548.58"/><polygon class="cls-18" points="913.36 547.32 830.81 547.32 872.09 389.7 913.36 547.32"/><g><circle class="cls-12" cx="916.47" cy="647.43" r="13.12"/><circle class="cls-9" cx="1009.49" cy="652.13" r="13.12"/><circle class="cls-9" cx="1055.99" cy="652.13" r="13.12"/><circle class="cls-12" cx="891.32" cy="689.35" r="13.12"/><circle class="cls-9" cx="984.34" cy="694.05" r="13.12"/><circle class="cls-9" cx="1030.84" cy="694.05" r="13.12"/></g><g><polygon class="cls-6" points="2214.37 389.23 2214.37 0 2098.94 97.07 2098.94 486.16 2098.86 486.16 2098.86 1166.1 2329.98 1166.1 2329.98 486.16 2214.37 389.23"/><g class="cls-3"><g><g><polygon class="cls-13" points="2214.42 778 2098.87 875.25 2214.42 972.51 2329.98 875.25 2214.42 778"/><polygon class="cls-13" points="2214.42 972.51 2098.87 1069.77 2214.42 1167.03 2329.98 1069.77 2214.42 972.51"/><polygon class="cls-13" points="2214.42 583.56 2098.87 680.82 2214.42 778.08 2329.98 680.82 2214.42 583.56"/><polygon class="cls-13" points="2214.42 389.06 2098.87 486.32 2214.42 583.58 2329.98 486.32 2214.42 389.06"/><polygon class="cls-13" points="2214.42 194.5 2098.87 291.76 2214.42 389.01 2329.98 291.76 2214.42 194.5"/><polygon class="cls-13" points="2214.42 0 2098.87 97.26 2214.42 194.52 2329.98 97.26 2214.42 0"/></g><g><polygon class="cls-11" points="2098.87 875.25 1983.31 972.51 2098.87 1069.77 2214.42 972.51 2098.87 875.25"/><polygon class="cls-11" points="2098.87 1069.77 1983.31 1167.03 2098.87 1264.29 2214.42 1167.03 2098.87 1069.77"/><polygon class="cls-11" points="2098.87 680.82 1983.31 778.08 2098.87 875.34 2214.42 778.08 2098.87 680.82"/><polygon class="cls-11" points="2098.87 486.32 1983.31 583.58 2098.87 680.84 2214.42 583.58 2098.87 486.32"/><polygon class="cls-11" points="2098.87 291.76 1983.31 389.01 2098.87 486.27 2214.42 389.01 2098.87 291.76"/><polygon class="cls-11" points="2098.87 97.26 1983.31 194.52 2098.87 291.78 2214.42 194.52 2098.87 97.26"/></g><g><polygon class="cls-7" points="2330.01 875.18 2214.46 972.44 2330.01 1069.7 2445.56 972.44 2330.01 875.18"/><polygon class="cls-7" points="2330.01 1069.7 2214.46 1166.96 2330.01 1264.22 2445.56 1166.96 2330.01 1069.7"/><polygon class="cls-7" points="2330.01 680.75 2214.46 778.01 2330.01 875.26 2445.56 778.01 2330.01 680.75"/></g></g></g></g><g><rect class="cls-18" x="2699.89" y="297.79" width="148.57" height="88.77"/><rect class="cls-8" x="2638.66" y="372.72" width="112.61" height="773.63"/><rect class="cls-18" x="2750.47" y="372.72" width="148.57" height="773.63"/><g><rect class="cls-18" x="2672.47" y="407.48" width="41.19" height="39.4"/><rect class="cls-18" x="2672.47" y="474.59" width="41.19" height="39.4"/><rect class="cls-18" x="2672.47" y="541.7" width="41.19" height="39.4"/><rect class="cls-18" x="2672.47" y="608.81" width="41.19" height="39.4"/><rect class="cls-18" x="2672.47" y="675.91" width="41.19" height="39.4"/><rect class="cls-18" x="2672.47" y="743.02" width="41.19" height="39.4"/><rect class="cls-18" x="2672.47" y="810.13" width="41.19" height="39.4"/><rect class="cls-18" x="2672.47" y="877.24" width="41.19" height="39.4"/><rect class="cls-18" x="2672.47" y="944.35" width="41.19" height="39.4"/><rect class="cls-18" x="2672.47" y="1011.46" width="41.19" height="39.4"/><rect class="cls-18" x="2672.47" y="1078.57" width="41.19" height="39.4"/></g><g><rect class="cls-10" x="2782.76" y="407.48" width="83.33" height="39.4"/><rect class="cls-10" x="2782.76" y="474.59" width="83.33" height="39.4"/><rect class="cls-10" x="2782.76" y="541.7" width="83.33" height="39.4"/><rect class="cls-10" x="2782.76" y="608.81" width="83.33" height="39.4"/><rect class="cls-10" x="2782.76" y="675.91" width="83.33" height="39.4"/><rect class="cls-10" x="2782.76" y="743.02" width="83.33" height="39.4"/><rect class="cls-10" x="2782.76" y="810.13" width="83.33" height="39.4"/><rect class="cls-10" x="2782.76" y="877.24" width="83.33" height="39.4"/><rect class="cls-10" x="2782.76" y="944.35" width="83.33" height="39.4"/><rect class="cls-10" x="2782.76" y="1011.46" width="83.33" height="39.4"/><rect class="cls-10" x="2782.76" y="1078.57" width="83.33" height="39.4"/></g></g><g><polygon class="cls-8" points="988.04 570.35 1197.1 570.35 1197.1 505.09 1016.39 505.09 988.04 570.35"/><polygon class="cls-18" points="1317.2 570.35 1102.87 570.35 1102.87 505.09 1288.85 505.09 1317.2 570.35"/><rect class="cls-8" x="962.28" y="560.18" width="158.47" height="568.78"/><rect class="cls-18" x="1119.62" y="560.18" width="209.07" height="568.78"/><circle class="cls-18" cx="995.55" cy="598.54" r="16.92"/><circle class="cls-18" cx="1041.89" cy="598.54" r="16.92"/><circle class="cls-18" cx="1088.24" cy="598.54" r="16.92"/><circle class="cls-18" cx="995.55" cy="647.48" r="16.92"/><circle class="cls-18" cx="1041.89" cy="647.48" r="16.92"/><circle class="cls-18" cx="1088.24" cy="647.48" r="16.92"/><circle class="cls-18" cx="995.55" cy="696.43" r="16.92"/><circle class="cls-18" cx="1041.89" cy="696.43" r="16.92"/><circle class="cls-18" cx="1088.24" cy="696.43" r="16.92"/><circle class="cls-18" cx="995.55" cy="745.38" r="16.92"/><circle class="cls-18" cx="1041.89" cy="745.38" r="16.92"/><circle class="cls-18" cx="1088.24" cy="745.38" r="16.92"/><circle class="cls-18" cx="995.55" cy="794.33" r="16.92"/><circle class="cls-18" cx="1041.89" cy="794.33" r="16.92"/><circle class="cls-18" cx="1088.24" cy="794.33" r="16.92"/><circle class="cls-18" cx="995.55" cy="843.28" r="16.92"/><circle class="cls-18" cx="1041.89" cy="843.28" r="16.92"/><circle class="cls-18" cx="1088.24" cy="843.28" r="16.92"/><circle class="cls-18" cx="995.55" cy="892.22" r="16.92"/><circle class="cls-18" cx="1041.89" cy="892.22" r="16.92"/><circle class="cls-18" cx="1088.24" cy="892.22" r="16.92"/><circle class="cls-18" cx="995.55" cy="941.17" r="16.92"/><circle class="cls-18" cx="1041.89" cy="941.17" r="16.92"/><circle class="cls-18" cx="1088.24" cy="941.17" r="16.92"/><circle class="cls-18" cx="995.55" cy="990.12" r="16.92"/><circle class="cls-18" cx="1041.89" cy="990.12" r="16.92"/><circle class="cls-18" cx="1088.24" cy="990.12" r="16.92"/><circle class="cls-18" cx="995.55" cy="1039.07" r="16.92"/><circle class="cls-18" cx="1041.89" cy="1039.07" r="16.92"/><circle class="cls-18" cx="1088.24" cy="1039.07" r="16.92"/><circle class="cls-18" cx="995.55" cy="1088.02" r="16.92"/><circle class="cls-18" cx="1041.89" cy="1088.02" r="16.92"/><circle class="cls-18" cx="1088.24" cy="1088.02" r="16.92"/><g><circle class="cls-10" cx="1152.42" cy="598.54" r="16.92"/><circle class="cls-10" cx="1198.76" cy="598.54" r="16.92"/><circle class="cls-10" cx="1245.1" cy="598.54" r="16.92"/><circle class="cls-10" cx="1152.42" cy="647.48" r="16.92"/><circle class="cls-10" cx="1198.76" cy="647.48" r="16.92"/><circle class="cls-10" cx="1245.1" cy="647.48" r="16.92"/><circle class="cls-10" cx="1152.42" cy="696.43" r="16.92"/><circle class="cls-10" cx="1198.76" cy="696.43" r="16.92"/><circle class="cls-10" cx="1245.1" cy="696.43" r="16.92"/><circle class="cls-10" cx="1152.42" cy="745.38" r="16.92"/><circle class="cls-10" cx="1198.76" cy="745.38" r="16.92"/><circle class="cls-10" cx="1245.1" cy="745.38" r="16.92"/><circle class="cls-10" cx="1152.42" cy="794.33" r="16.92"/><circle class="cls-10" cx="1198.76" cy="794.33" r="16.92"/><circle class="cls-10" cx="1245.1" cy="794.33" r="16.92"/><circle class="cls-10" cx="1152.42" cy="843.28" r="16.92"/><circle class="cls-10" cx="1198.76" cy="843.28" r="16.92"/><circle class="cls-10" cx="1245.1" cy="843.28" r="16.92"/><circle class="cls-10" cx="1152.42" cy="892.22" r="16.92"/><circle class="cls-10" cx="1198.76" cy="892.22" r="16.92"/><circle class="cls-10" cx="1245.1" cy="892.22" r="16.92"/><circle class="cls-10" cx="1152.42" cy="941.17" r="16.92"/><circle class="cls-10" cx="1198.76" cy="941.17" r="16.92"/><circle class="cls-10" cx="1245.1" cy="941.17" r="16.92"/><circle class="cls-10" cx="1152.42" cy="990.12" r="16.92"/><circle class="cls-10" cx="1198.76" cy="990.12" r="16.92"/><circle class="cls-10" cx="1245.1" cy="990.12" r="16.92"/><circle class="cls-10" cx="1152.42" cy="1039.07" r="16.92"/><circle class="cls-10" cx="1198.76" cy="1039.07" r="16.92"/><circle class="cls-10" cx="1245.1" cy="1039.07" r="16.92"/><circle class="cls-10" cx="1152.42" cy="1088.02" r="16.92"/><circle class="cls-10" cx="1198.76" cy="1088.02" r="16.92"/><circle class="cls-10" cx="1245.1" cy="1088.02" r="16.92"/><circle class="cls-10" cx="1294.17" cy="598.54" r="16.92"/><circle class="cls-10" cx="1294.17" cy="647.48" r="16.92"/><circle class="cls-10" cx="1294.17" cy="696.43" r="16.92"/><circle class="cls-10" cx="1294.17" cy="745.38" r="16.92"/><circle class="cls-10" cx="1294.17" cy="794.33" r="16.92"/><circle class="cls-10" cx="1294.17" cy="843.28" r="16.92"/><circle class="cls-10" cx="1294.17" cy="892.22" r="16.92"/><circle class="cls-10" cx="1294.17" cy="941.17" r="16.92"/><circle class="cls-10" cx="1294.17" cy="990.12" r="16.92"/><circle class="cls-10" cx="1294.17" cy="1039.07" r="16.92"/><circle class="cls-10" cx="1294.17" cy="1088.02" r="16.92"/></g></g><g><rect class="cls-9" x="2329.68" y="650.67" width="182.92" height="498.44"/><rect class="cls-16" x="2511.3" y="650.67" width="241.32" height="498.44"/><g><rect class="cls-18" x="2384.61" y="673.06" width="66.9" height="25.38"/><rect class="cls-18" x="2384.61" y="716.3" width="66.9" height="25.38"/><rect class="cls-18" x="2384.61" y="759.53" width="66.9" height="25.38"/><rect class="cls-18" x="2384.61" y="802.77" width="66.9" height="25.38"/><rect class="cls-18" x="2384.61" y="846.01" width="66.9" height="25.38"/><rect class="cls-18" x="2384.61" y="889.25" width="66.9" height="25.38"/><rect class="cls-18" x="2384.61" y="932.48" width="66.9" height="25.38"/><rect class="cls-18" x="2384.61" y="975.72" width="66.9" height="25.38"/><rect class="cls-18" x="2384.61" y="1018.96" width="66.9" height="25.38"/><rect class="cls-18" x="2384.61" y="1062.19" width="66.9" height="25.38"/><rect class="cls-18" x="2384.61" y="1105.43" width="66.9" height="25.38"/></g><g><rect class="cls-10" x="2563.74" y="673.06" width="135.36" height="25.38"/><rect class="cls-10" x="2563.74" y="716.3" width="135.36" height="25.38"/><rect class="cls-10" x="2563.74" y="759.53" width="135.36" height="25.38"/><rect class="cls-10" x="2563.74" y="802.77" width="135.36" height="25.38"/><rect class="cls-10" x="2563.74" y="846.01" width="135.36" height="25.38"/><rect class="cls-10" x="2563.74" y="889.25" width="135.36" height="25.38"/><rect class="cls-10" x="2563.74" y="932.48" width="135.36" height="25.38"/><rect class="cls-10" x="2563.74" y="975.72" width="135.36" height="25.38"/><rect class="cls-10" x="2563.74" y="1018.96" width="135.36" height="25.38"/><rect class="cls-10" x="2563.74" y="1062.19" width="135.36" height="25.38"/><rect class="cls-10" x="2563.74" y="1105.43" width="135.36" height="25.38"/></g></g><g><rect class="cls-5" x="2896.07" y="428.41" width="105.78" height="426.34"/><rect class="cls-9" x="3001.85" y="428.41" width="177.26" height="426.34"/><g><rect class="cls-9" x="2921.09" y="465.69" width="21.41" height="39.11"/><rect class="cls-9" x="2955.41" y="465.69" width="21.41" height="39.11"/><rect class="cls-9" x="2921.09" y="520.99" width="21.41" height="39.11"/><rect class="cls-9" x="2955.41" y="520.99" width="21.41" height="39.11"/><rect class="cls-9" x="2921.09" y="576.29" width="21.41" height="39.11"/><rect class="cls-9" x="2955.41" y="576.29" width="21.41" height="39.11"/><rect class="cls-9" x="2921.09" y="631.59" width="21.41" height="39.11"/><rect class="cls-9" x="2955.41" y="631.59" width="21.41" height="39.11"/><rect class="cls-9" x="2921.09" y="686.9" width="21.41" height="39.11"/><rect class="cls-9" x="2955.41" y="686.9" width="21.41" height="39.11"/><rect class="cls-9" x="2921.09" y="742.2" width="21.41" height="39.11"/><rect class="cls-9" x="2955.41" y="742.2" width="21.41" height="39.11"/><rect class="cls-9" x="2921.09" y="797.5" width="21.41" height="39.11"/><rect class="cls-9" x="2955.41" y="797.5" width="21.41" height="39.11"/></g><g><rect class="cls-17" x="3029.52" y="465.69" width="21.41" height="39.11"/><rect class="cls-17" x="3063.83" y="465.69" width="21.41" height="39.11"/><rect class="cls-17" x="3029.52" y="520.99" width="21.41" height="39.11"/><rect class="cls-17" x="3063.83" y="520.99" width="21.41" height="39.11"/><rect class="cls-17" x="3029.52" y="576.29" width="21.41" height="39.11"/><rect class="cls-17" x="3063.83" y="576.29" width="21.41" height="39.11"/><rect class="cls-17" x="3029.52" y="631.59" width="21.41" height="39.11"/><rect class="cls-17" x="3063.83" y="631.59" width="21.41" height="39.11"/><rect class="cls-17" x="3029.52" y="686.9" width="21.41" height="39.11"/><rect class="cls-17" x="3063.83" y="686.9" width="21.41" height="39.11"/><rect class="cls-17" x="3029.52" y="742.2" width="21.41" height="39.11"/><rect class="cls-17" x="3063.83" y="742.2" width="21.41" height="39.11"/><rect class="cls-17" x="3029.52" y="797.5" width="21.41" height="39.11"/><rect class="cls-17" x="3063.83" y="797.5" width="21.41" height="39.11"/></g><g><rect class="cls-17" x="3099.01" y="465.69" width="21.41" height="39.11"/><rect class="cls-17" x="3133.32" y="465.69" width="21.41" height="39.11"/><rect class="cls-17" x="3099.01" y="520.99" width="21.41" height="39.11"/><rect class="cls-17" x="3133.32" y="520.99" width="21.41" height="39.11"/><rect class="cls-17" x="3099.01" y="576.29" width="21.41" height="39.11"/><rect class="cls-17" x="3133.32" y="576.29" width="21.41" height="39.11"/><rect class="cls-17" x="3099.01" y="631.59" width="21.41" height="39.11"/><rect class="cls-17" x="3133.32" y="631.59" width="21.41" height="39.11"/><rect class="cls-17" x="3099.01" y="686.9" width="21.41" height="39.11"/><rect class="cls-17" x="3133.32" y="686.9" width="21.41" height="39.11"/><rect class="cls-17" x="3099.01" y="742.2" width="21.41" height="39.11"/><rect class="cls-17" x="3133.32" y="742.2" width="21.41" height="39.11"/><rect class="cls-17" x="3099.01" y="797.5" width="21.41" height="39.11"/><rect class="cls-17" x="3133.32" y="797.5" width="21.41" height="39.11"/></g></g><g><rect class="cls-7" x="2758.02" y="783.09" width="448.09" height="338.31"/><rect class="cls-13" x="2758.02" y="783.09" width="448.09" height="88.89"/><polygon class="cls-4" points="2856.86 1122.55 2659.19 1122.55 2659.19 869.36 2758.02 783.09 2856.86 869.36 2856.86 1122.55"/><g><rect class="cls-7" x="2673.12" y="889.09" width="12.62" height="11.57"/><rect class="cls-7" x="2702.48" y="889.09" width="12.62" height="11.57"/><rect class="cls-7" x="2731.84" y="889.09" width="12.62" height="11.57"/><rect class="cls-7" x="2761.2" y="889.09" width="12.62" height="11.57"/><rect class="cls-7" x="2790.56" y="889.09" width="12.62" height="11.57"/><rect class="cls-7" x="2819.93" y="889.09" width="12.62" height="11.57"/><rect class="cls-7" x="2673.12" y="914.68" width="12.62" height="11.57"/><rect class="cls-7" x="2702.48" y="914.68" width="12.62" height="11.57"/><rect class="cls-7" x="2731.84" y="914.68" width="12.62" height="11.57"/><rect class="cls-7" x="2761.2" y="914.68" width="12.62" height="11.57"/><rect class="cls-7" x="2790.56" y="914.68" width="12.62" height="11.57"/><rect class="cls-7" x="2819.93" y="914.68" width="12.62" height="11.57"/><rect class="cls-7" x="2673.12" y="940.28" width="12.62" height="11.57"/><rect class="cls-7" x="2702.48" y="940.28" width="12.62" height="11.57"/><rect class="cls-7" x="2731.84" y="940.28" width="12.62" height="11.57"/><rect class="cls-7" x="2761.2" y="940.28" width="12.62" height="11.57"/><rect class="cls-7" x="2790.56" y="940.28" width="12.62" height="11.57"/><rect class="cls-7" x="2819.93" y="940.28" width="12.62" height="11.57"/></g></g><g><rect class="cls-12" x="2645.77" y="1038.23" width="149.61" height="270.17" rx="74.81" ry="74.81"/><rect class="cls-12" x="2768.39" y="1010.09" width="149.61" height="270.17" rx="74.81" ry="74.81"/><rect class="cls-12" x="2891.01" y="1038.23" width="149.61" height="270.17" rx="74.81" ry="74.81"/><rect class="cls-12" x="3013.64" y="1010.09" width="149.61" height="270.17" rx="74.81" ry="74.81"/></g><g><rect class="cls-10" x="2462.62" y="1056.78" width="149.61" height="270.17" rx="74.81" ry="74.81"/><rect class="cls-10" x="2585.25" y="1028.64" width="149.61" height="270.17" rx="74.81" ry="74.81"/></g><path class="cls-14" d="m33.81,1004.55l145.32-145.32c21.65-21.65,51-33.81,81.62-33.81h426.98c30.61,0,59.97,12.16,81.62,33.81l182.76,182.76c21.65,21.65,51,33.81,81.62,33.81h177.07c30.61,0,59.97,12.16,81.62,33.81l216.89,216.89c72.71,72.71,21.21,197.04-81.62,197.04H115.42c-63.75,0-115.42-51.68-115.42-115.42v-321.94c0-30.61,12.16-59.97,33.81-81.62Z"/><g><rect class="cls-12" x="291.09" y="1001.82" width="149.61" height="258.62" rx="74.81" ry="74.81"/><rect class="cls-12" x="413.71" y="973.68" width="149.61" height="258.62" rx="74.81" ry="74.81"/><rect class="cls-12" x="536.33" y="1001.82" width="149.61" height="258.62" rx="74.81" ry="74.81"/><rect class="cls-12" x="658.96" y="1052.1" width="149.61" height="258.62" rx="74.81" ry="74.81"/></g><g><polygon class="cls-14" points="614.45 747.14 467.54 747.14 540.99 466.64 614.45 747.14"/><polygon class="cls-14" points="686.51 768.44 565.87 768.44 626.19 538.09 686.51 768.44"/><polygon class="cls-14" points="366.04 836.35 309.6 836.35 337.82 728.58 366.04 836.35"/><rect class="cls-14" x="532.6" y="716.12" width="16.78" height="133.51"/><rect class="cls-14" x="617.8" y="716.12" width="16.78" height="133.51"/></g><g><rect class="cls-18" x="1043.78" y="901.35" width="149.61" height="212" rx="74.81" ry="74.81"/><rect class="cls-18" x="1110.19" y="1020" width="16.78" height="161.41"/></g><g><g><g><path class="cls-2" d="m1717.98,1160.64c-.89,0-1.79-.17-2.66-.54-3.54-1.49-5.22-5.61-3.75-9.2l127.78-312.6c1.47-3.59,5.52-5.29,9.06-3.8,3.54,1.49,5.22,5.61,3.75,9.2l-127.78,312.6c-1.11,2.71-3.69,4.34-6.41,4.34Z"/><path class="cls-2" d="m1717.98,1161.13c-.98,0-1.93-.19-2.84-.58-3.78-1.59-5.58-6-4.01-9.83l127.78-312.6c.76-1.87,2.2-3.32,4.05-4.09,1.82-.76,3.83-.75,5.65.02,3.78,1.59,5.58,6,4.01,9.83l-127.78,312.6c-1.15,2.82-3.85,4.65-6.86,4.65Zm127.79-326.68c-.82,0-1.65.16-2.43.49-1.61.66-2.86,1.93-3.52,3.55l-127.78,312.6c-1.36,3.34.2,7.18,3.48,8.56.79.33,1.62.5,2.47.5,2.62,0,4.95-1.59,5.96-4.04l127.78-312.6c1.36-3.34-.2-7.18-3.48-8.56-.8-.33-1.63-.5-2.47-.5Z"/></g><g><path class="cls-2" d="m1985.91,1160.64c-2.71,0-5.29-1.62-6.4-4.32l-131.36-318.33c-1.48-3.59.18-7.71,3.72-9.21,3.53-1.5,7.6.19,9.08,3.77l131.36,318.33c1.48,3.59-.18,7.71-3.72,9.21-.88.37-1.78.55-2.68.55Z"/><path class="cls-2" d="m1985.91,1161.13c-3,0-5.69-1.81-6.85-4.62l-131.36-318.33c-1.58-3.83.21-8.24,3.98-9.85,1.82-.77,3.82-.79,5.65-.04,1.85.76,3.3,2.21,4.07,4.07l131.36,318.33c1.58,3.83-.21,8.25-3.98,9.85-.92.39-1.88.59-2.87.59Zm-131.36-332.41c-.84,0-1.69.17-2.49.51-3.28,1.39-4.83,5.24-3.46,8.58l131.36,318.33c1.01,2.44,3.34,4.02,5.95,4.02.85,0,1.69-.17,2.49-.51,3.28-1.4,4.83-5.24,3.46-8.58l-131.36-318.33c-.67-1.63-1.93-2.88-3.53-3.54-.78-.32-1.59-.48-2.41-.48Z"/></g><path class="cls-1" d="m2068.39,824.24v-.9c-.23-26.73-5.13-52.71-14.32-76.98-.06-.16-.12-.32-.18-.48-.61-1.61-1.25-3.22-1.9-4.82-.15-.37-.31-.75-.47-1.12-10.28-24.81-25.11-47.68-44.07-67.55,0,0,0,0,0,0,0-.02-.02-.03-.04-.05-.83-.87-1.67-1.73-2.52-2.59-.36-.36-.72-.73-1.08-1.09-.15-.14-.28-.29-.43-.43,0,0,0,0,0,0-18.75-18.67-40.24-33.47-63.56-44.01-.66-.3-1.32-.59-1.99-.88-1.57-.7-3.14-1.36-4.72-2.01-.37-.16-.74-.31-1.12-.46-24.48-9.91-50.77-15.23-77.86-15.55h-.15c-.8,0-1.6-.01-2.4-.01s-1.61,0-2.4.01h-.15c-27.64.32-54.45,5.86-79.35,16.17t0,0c-.05.01-.09.04-.14.06-1.55.64-3.1,1.3-4.64,1.99,0,0-.01,0-.02,0-.01,0-.03.01-.04.02-24.07,10.66-46.23,25.84-65.48,45.11-.26.26-.51.51-.77.78,0,0,0,0,0,0-.1.1-.2.2-.31.3-.85.86-1.69,1.73-2.52,2.59-.17.18-.33.35-.49.53h0c-18.44,19.46-32.95,41.75-43.14,65.92h0c-.13.31-.26.61-.38.91-.66,1.59-1.31,3.2-1.93,4.81-.04.09-.07.18-.1.26-9.65,24.91-14.78,51.66-14.94,79.2,0,.09,0,.19,0,.28,0,.37,0,.74,0,1.11,0,1.36.01,2.72.04,4.08,0,.17,0,.34.01.5.53,26.94,5.82,53.09,15.45,77.45.04.09.07.18.11.27.6,1.51,1.21,3.02,1.85,4.51.21.5.42.94.63,1.44,0,.01,0,.03,0,.04,10.5,24.34,25.42,46.76,44.34,66.22.28.29.55.57.84.85t0,0c.07.08.15.16.23.24.69.7,1.37,1.39,2.07,2.07,0,0,0,0,0,0,.16.16.32.32.48.48,20,19.65,43.08,34.95,68.13,45.41,24.82,10.39,51.58,16.02,79.16,16.46.31,0,.61.01.92.01.85,0,1.7.01,2.56.01s1.71,0,2.56-.01c.47,0,.93-.01,1.39-.02h0c27.5-.5,54.15-6.16,78.89-16.53,24.93-10.46,47.9-25.7,67.83-45.26h0s.05-.05.07-.07c.85-.84,1.71-1.7,2.56-2.56.21-.21.42-.42.62-.64.15-.15.3-.3.45-.46,18.78-19.33,33.63-41.56,44.12-65.71t0-.01h0c.09-.21.18-.41.27-.61.69-1.59,1.35-3.18,1.99-4.78.2-.48.39-.96.58-1.44h0c9.55-24.19,14.82-50.12,15.41-76.85,0-.34.01-.68.02-1.03.02-1.36.04-2.71.04-4.08,0-.37,0-.74,0-1.11Zm-24.81,80.81c-.64,1.61-1.3,3.19-1.99,4.78-10.02,23.24-24.27,44.64-42.33,63.23-.36.37-.72.73-1.07,1.1-.85.86-1.7,1.71-2.56,2.55-19.05,18.7-41.02,33.27-64.86,43.25-24.01,10.08-49.91,15.49-76.62,15.82-.85,0-1.7.01-2.56.01s-1.71,0-2.56-.01c-26.65-.33-52.48-5.72-76.44-15.74-23.91-9.99-45.95-24.59-65.05-43.33-.86-.84-1.72-1.69-2.56-2.55-.36-.36-.72-.73-1.07-1.1-18.39-18.93-32.83-40.79-42.89-64.53-.67-1.59-1.33-3.18-1.96-4.79-9.24-23.37-14.29-48.45-14.76-74.31-.03-1.36-.04-2.71-.04-4.08,0-.37,0-.74,0-1.11.13-26.45,5.04-52.13,14.32-76.05.61-1.62,1.26-3.22,1.93-4.8,9.81-23.59,23.94-45.33,41.95-64.24.82-.87,1.66-1.74,2.51-2.6.36-.36.72-.73,1.08-1.09,18.35-18.36,39.49-32.85,62.45-43.03,1.56-.7,3.12-1.37,4.7-2.02,23.78-9.86,49.41-15.16,75.82-15.49.85,0,1.7-.01,2.56-.01s1.71,0,2.56.01c26.23.32,51.68,5.55,75.32,15.28,1.58.64,3.15,1.31,4.72,2.01,23.14,10.19,44.44,24.75,62.93,43.24.36.36.72.73,1.08,1.09.85.86,1.69,1.73,2.51,2.6,18.35,19.26,32.67,41.46,42.5,65.55.66,1.59,1.28,3.2,1.9,4.82h0c8.95,23.54,13.68,48.76,13.8,74.72,0,.37,0,.74,0,1.11,0,1.36-.01,2.72-.04,4.08-.48,26.34-5.72,51.88-15.29,75.62Z"/><path class="cls-1" d="m2046.85,824.24c-.12-24.35-4.56-48.01-12.92-70.1-.61-1.62-1.24-3.22-1.9-4.82-9.23-22.6-22.66-43.44-39.86-61.53-.83-.87-1.66-1.74-2.51-2.6-.36-.36-.72-.73-1.08-1.09-17.35-17.35-37.34-31.01-59.05-40.6-1.56-.7-3.12-1.36-4.71-2.01-22.2-9.11-46.09-14.03-70.7-14.35-.85,0-1.7-.01-2.56-.01s-1.7,0-2.56.01c-24.78.32-48.83,5.31-71.16,14.54-1.58.64-3.15,1.32-4.7,2.02-21.53,9.58-41.36,23.17-58.59,40.4-.37.36-.72.73-1.08,1.09-.85.86-1.69,1.73-2.51,2.6-16.89,17.75-30.13,38.17-39.35,60.29-.66,1.59-1.31,3.19-1.93,4.81-8.67,22.44-13.27,46.54-13.4,71.35,0,.37,0,.74,0,1.11,0,1.36.01,2.72.04,4.08.47,24.24,5.22,47.77,13.87,69.69.64,1.61,1.28,3.2,1.96,4.79,9.46,22.25,23.01,42.75,40.25,60.51.36.37.72.73,1.07,1.1.85.86,1.7,1.71,2.56,2.55,17.96,17.6,38.68,31.29,61.15,40.68,22.51,9.41,46.79,14.49,71.82,14.81.85,0,1.7.01,2.56.01s1.7,0,2.56-.01c25.08-.33,49.41-5.42,71.97-14.87,22.41-9.39,43.08-23.07,61-40.62.86-.84,1.72-1.69,2.56-2.55.36-.36.72-.73,1.07-1.1,16.92-17.43,30.29-37.5,39.72-59.28.69-1.59,1.35-3.17,1.99-4.78,8.96-22.27,13.89-46.23,14.37-70.93.03-1.36.04-2.71.04-4.08,0-.37,0-.74,0-1.11Zm-21.15,73.27c-.64,1.61-1.31,3.19-2,4.77h0c-9.07,20.9-21.89,40.15-38.13,56.89-.36.37-.72.73-1.07,1.1-.85.86-1.7,1.71-2.56,2.55-17.24,16.86-37.11,30-58.66,39.02-21.67,9.07-45.04,13.97-69.15,14.29-.85.01-1.7.02-2.56.02s-1.71,0-2.56-.02c-24.05-.32-47.39-5.2-69.02-14.24-21.59-9.02-41.51-22.18-58.78-39.07-.86-.84-1.72-1.69-2.56-2.55-.36-.36-.72-.73-1.07-1.1-16.54-17.06-29.54-36.72-38.64-58.07-.68-1.59-1.34-3.18-1.97-4.79-8.29-21.04-12.86-43.62-13.33-66.89-.03-1.36-.04-2.71-.04-4.08,0-.37,0-.74,0-1.11.13-23.81,4.53-46.96,12.85-68.5.62-1.62,1.26-3.22,1.93-4.8,8.86-21.24,21.57-40.84,37.76-57.9.82-.87,1.66-1.74,2.51-2.6.36-.36.72-.73,1.08-1.09,16.55-16.53,35.58-29.59,56.25-38.79,1.56-.7,3.12-1.38,4.7-2.02,21.44-8.85,44.53-13.65,68.34-13.96.85-.01,1.7-.02,2.56-.02s1.71,0,2.56.02c23.64.31,46.57,5.03,67.89,13.77,1.58.64,3.15,1.31,4.71,2.01,20.84,9.21,40.03,22.34,56.69,38.99.36.36.72.73,1.08,1.09.85.86,1.69,1.73,2.51,2.6,16.5,17.38,29.38,37.39,38.26,59.09.66,1.59,1.28,3.2,1.89,4.82,8.02,21.21,12.26,43.92,12.39,67.29,0,.37,0,.74,0,1.11,0,1.36-.01,2.72-.04,4.08-.48,23.71-5.21,46.7-13.81,68.08Z"/><path class="cls-1" d="m1854.13,1061.22v-472.2c-.8-.27-1.66-.41-2.56-.41s-1.75.14-2.56.41v472.04l5.11.16Z"/><path class="cls-1" d="m1943.73,608.92l-5.91,14.4-.35.86-3.3,8.04-4.64,11.29-2.81,6.85-61.94,151-5.9,14.38-2.6,6.34-.88,2.16-.49,1.19-.33.79-.25.61-.21.51-.39.96-.21.52-.25.6-.33.8-.14.34c-.11.27-.26.52-.45.73-.36.42-.85.7-1.37.81-.18.04-.35.07-.53.07-.15,0-.31-.01-.47-.05-.18-.03-.34-.08-.51-.15-.16-.07-.31-.15-.45-.25-.28-.19-.53-.44-.72-.73-.28-.46-.44-1.01-.4-1.56.01-.28.08-.57.19-.85l.14-.34.33-.79.25-.61.21-.52.39-.95.22-.53.25-.6.32-.8.49-1.18.88-2.15,2.56-6.25,5.91-14.43,61.97-151.08,2.81-6.85,4.63-11.29,3.42-8.34.23-.56,5.77-14.07c1.18.01,2.37.29,3.5.85.48.24.93.52,1.34.83Z"/><path class="cls-1" d="m2084.02,829.43h-465.13l.1-5.19h464.95c.55,1.65.61,3.45.08,5.19Z"/><path class="cls-1" d="m1637.39,918.31l14.83-6.14.46-.19,8.34-3.45,11.16-4.62,6.77-2.8,149.28-61.8,12.6-5.22,7.49-3.1.72-.3,1.18-.49.77-.32.6-.24.51-.21.94-.39.5-.21.61-.25.8-.33,1.18-.49,2.18-.9,6.32-2.62,14.02-5.81,148.53-61.49,6.77-2.8,11.16-4.62h0s8.6-3.56,8.6-3.56l.2-.08,14.41-5.96c-.06-1.76-.67-3.48-1.74-4.88l-14.56,6.03-.41.17-8.39,3.47-11.16,4.62-6.76,2.8-148.5,61.48-14.43,5.97-6.04,2.5-2.16.89-1.18.49-.77.32-.59.24h0l-.5.21-.95.39-.5.21-.61.25-.8.33-1.18.49-2.18.9-6.31,2.62-12.33,5.11-149.25,61.78-6.76,2.8-11.15,4.62-8.8,3.64-.12.05-14.08,5.82,1.32,5.05Z"/><path class="cls-1" d="m1685.8,991.43l11.16-11.33.23-.24,6.71-6.81,8.52-8.65,5.16-5.24,113.64-115.35,9.59-9.74,4.59-4.66,1.66-1.69.89-.9.6-.61.46-.47.39-.39.72-.73.39-.39.46-.47.6-.61.88-.9,1.67-1.7,4.76-4.83,10.88-11.05,113.64-115.35,5.16-5.24,8.52-8.65,6.56-6.66.15-.15,11.26-11.43s0,0,0,0l3.5,3.77-11.17,11.34-.02.02-6.69,6.79-8.52,8.65-5.16,5.24-113.62,115.32-11.05,11.22-4.59,4.66-1.66,1.69-.89.9-.6.61-.46.47-.39.4-.72.73-.39.39-.46.47-.6.61-.88.9-.71.72-.96.98-14.18,14.4-113.62,115.32-5.16,5.24-8.52,8.65-6.72,6.82-.12.12-11.43,11.6-3.47-3.81Z"/><path class="cls-1" d="m1855.03,834.01c-.12.08-.26.16-.4.21-.16.07-.33.12-.5.15-.16.04-.33.05-.49.05-1,0-1.95-.6-2.36-1.59l-.3-.73-.29-.7-.49-1.19-.32-.78-.26-.61-.21-.51-.39-.96-.21-.52-.25-.61-.34-.81-.49-1.18-.92-2.22-2.62-6.34-5.63-13.62-62.59-151.5-2.82-6.85-4.66-11.28-3.68-8.89v-.02s-6.17-14.91-6.17-14.91c1.31-1.17,2.96-1.89,4.69-2.06l6.19,14.98.02.05,3.65,8.84,4.66,11.28,2.83,6.84,62.53,151.34,5.81,14.07,2.55,6.16.89,2.16.49,1.19.32.78.25.61.21.5.4.97.21.51.25.61.34.81.49,1.18.58,1.4c.1.24.16.5.18.76.09.96-.34,1.9-1.15,2.42Z"/><path class="cls-1" d="m2017.21,991.28c-.03.08-.07.16-.1.24-.75,1.58-1.93,2.81-3.31,3.63l-11.45-11.63-.02-.02-6.69-6.79-8.52-8.65-5.16-5.24-112.98-114.67-14.83-15.05-1.77-1.8-.78-.79-1.06-1.07-.39-.39-.72-.73-153.67-155.97-11.52-11.69c1-1.52,2.44-2.62,4.05-3.22l160.75,163.15,1.66,1.69.89.9,165.63,168.11Z"/><path class="cls-1" d="m2066.78,914.84c-.11.87-.36,1.74-.77,2.58-.38.79-.87,1.5-1.44,2.11l-14.22-6-.28-.11-8.5-3.59-11.13-4.7-6.75-2.85h0s-147.67-62.32-147.67-62.32l-13.53-5.71-6.32-2.67-2.04-.86-1.18-.5h0s-.77-.33-.77-.33l-.61-.25-.5-.21-.93-.39-.5-.21-.61-.25-.79-.33-1.16-.5-2.2-.93-6.1-2.57-12.88-5.44-149.44-63.06-6.75-2.85-11.13-4.7-8.67-3.65-.11-.04-14.47-6.11c.04-1.13.31-2.25.83-3.33.27-.56.58-1.07.95-1.54l14.62,6.17.31.13,8.46,3.57,11.13,4.69,6.75,2.85,149.31,63,12.97,5.48,6.16,2.6,2.2.93,1.18.5.78.33.61.25h0l.5.21.93.39.5.21h0s.61.26.61.26l.79.33,1.16.5,2.2.93,6.1,2.57,13.78,5.82,147.54,62.26,6.75,2.85,11.13,4.7,8.23,3.47.55.23,14.43,6.09Z"/><ellipse class="cls-1" cx="1852.31" cy="826.09" rx="27.38" ry="27.79"/><path class="cls-1" d="m1859.97,597.13c0,3.8-2.45,7.02-5.84,8.11-.05.02-.1.04-.15.05-.76.23-1.57.36-2.4.36s-1.64-.13-2.4-.36c-.05-.01-.1-.03-.15-.05-3.39-1.09-5.84-4.31-5.84-8.11s2.45-7.02,5.84-8.11c.8-.27,1.66-.41,2.56-.41s1.75.14,2.56.41c3.39,1.09,5.84,4.31,5.84,8.11Z"/><path class="cls-1" d="m1946.27,619.48c-1.28,2.67-3.76,4.36-6.46,4.72-.77.1-1.56.1-2.34-.02-.82-.13-1.64-.37-2.42-.76-.82-.4-1.55-.92-2.17-1.54-.33-.31-.63-.65-.89-1.02-1.82-2.47-2.25-5.86-.83-8.82,1.48-3.08,4.55-4.85,7.72-4.79,1.18.01,2.37.29,3.5.85.48.24.93.52,1.34.83,3.18,2.39,4.33,6.82,2.54,10.56Z"/><path class="cls-1" d="m2018.56,668.4c-2.03,4.23-7.05,6-11.22,3.94-4.17-2.06-5.91-7.16-3.88-11.39,2.03-4.23,7.05-6,11.22-3.94,4.17,2.06,5.91,7.16,3.88,11.39Z"/><path class="cls-1" d="m2068.3,739.92c.06,1.36-.2,2.75-.83,4.05-2.03,4.24-7.05,6-11.22,3.94-.83-.41-1.56-.93-2.18-1.55-.13-.13-.26-.26-.38-.4-1.18-1.32-1.91-2.98-2.11-4.73-.05-.42-.07-.86-.06-1.29.04-1.15.31-2.32.84-3.42,2.03-4.23,7.05-5.99,11.22-3.94,1.2.59,2.21,1.44,2.97,2.45,1.07,1.4,1.69,3.12,1.74,4.88Z"/><path class="cls-1" d="m2084.02,829.43c-.12.43-.28.84-.48,1.26-2.02,4.23-7.04,5.99-11.22,3.93-1.84-.9-3.2-2.41-3.98-4.16-.15-.33-.28-.67-.38-1.03-.5-1.65-.5-3.47.08-5.19.09-.3.21-.6.35-.9.01-.04.04-.07.05-.11,2.03-4.23,7.05-5.99,11.22-3.93,2.11,1.04,3.59,2.85,4.28,4.94.55,1.65.61,3.45.08,5.19Z"/><path class="cls-1" d="m2066.78,914.84c-.11.87-.36,1.74-.77,2.58-.38.79-.87,1.5-1.44,2.11-2.44,2.65-6.39,3.5-9.78,1.83-2.84-1.4-4.55-4.22-4.71-7.2h0v-.02c-.01-.24-.02-.48,0-.72.04-1.16.31-2.33.84-3.45.25-.53.55-1.01.88-1.45.34-.45.72-.86,1.12-1.22h0c2.46-2.21,6.08-2.82,9.21-1.27,3.34,1.65,5.12,5.26,4.64,8.81Z"/><path class="cls-1" d="m2017.21,991.28c-.03.08-.07.16-.1.24-.75,1.58-1.93,2.81-3.31,3.63-2.34,1.39-5.29,1.6-7.91.31-4.17-2.06-5.91-7.16-3.88-11.39.08-.16.16-.32.25-.47h0s.02-.07.05-.1c.77-1.38,1.9-2.45,3.2-3.17.2-.12.4-.21.61-.3,2.19-1.01,4.78-1.04,7.11.1,4.09,2.02,5.84,6.97,3.98,11.15Z"/><path class="cls-1" d="m1859.38,1056.75c-2.03,4.23-7.05,6-11.22,3.94-4.17-2.06-5.91-7.16-3.88-11.39,2.03-4.23,7.05-6,11.22-3.94,4.17,2.06,5.91,7.16,3.88,11.39Z"/><path class="cls-1" d="m1700.94,991.54c-2.03,4.23-7.05,6-11.22,3.94-4.17-2.06-5.91-7.16-3.88-11.39,2.03-4.23,7.05-6,11.22-3.94,4.17,2.06,5.91,7.16,3.88,11.39Z"/><path class="cls-1" d="m1652,917.42c-2.03,4.23-7.05,6-11.22,3.94-4.17-2.06-5.91-7.16-3.88-11.39,2.03-4.23,7.05-6,11.22-3.94,4.17,2.06,5.91,7.16,3.88,11.39Z"/><path class="cls-1" d="m1634.48,830.72c-2.03,4.23-7.05,6-11.22,3.94-4.17-2.06-5.91-7.16-3.88-11.39,2.03-4.23,7.05-6,11.22-3.94,4.17,2.06,5.91,7.16,3.88,11.39Z"/><path class="cls-1" d="m1652.11,738.78h0c0,.36-.02.7-.07,1.04-.11.91-.37,1.82-.78,2.69-.36.76-.82,1.44-1.35,2.03-.07.07-.14.15-.21.21-2.45,2.54-6.32,3.33-9.66,1.69-3.11-1.53-4.87-4.76-4.71-8.06.04-1.13.31-2.25.83-3.33.27-.56.58-1.07.95-1.54,2.39-3.09,6.65-4.18,10.27-2.39,2.99,1.47,4.72,4.5,4.72,7.65Z"/><path class="cls-1" d="m1699.05,668.36c-.09.26-.2.52-.32.78-.05.1-.1.2-.15.3,0,0,0,0,0,0-.66,1.26-1.59,2.29-2.69,3.03-.2.15-.41.27-.62.39h0c-2.31,1.3-5.18,1.47-7.74.21-4.17-2.06-5.91-7.16-3.88-11.39.18-.37.37-.72.6-1.04,1-1.52,2.44-2.62,4.05-3.22,2.07-.78,4.43-.73,6.57.33,3.92,1.93,5.69,6.55,4.21,10.61Z"/><path class="cls-1" d="m1771.73,618.75c-.51,1.07-1.22,1.99-2.06,2.72t0,0s-.07.07-.12.11c-1.32,1.12-2.96,1.79-4.66,1.93,0,0-.01,0-.02,0-.02,0-.04,0-.05,0-1.44.12-2.91-.15-4.3-.83-4.17-2.06-5.91-7.16-3.88-11.39.5-1.05,1.2-1.96,2.02-2.69,1.31-1.17,2.96-1.89,4.69-2.06,1.5-.16,3.06.09,4.51.81,4.18,2.06,5.91,7.16,3.88,11.39Z"/><rect class="cls-1" x="1639.14" y="1153.6" width="413.93" height="11.11"/><g><path class="cls-2" d="m1851.39,1041.34c-.59,0-1.16-.25-1.57-.68l-15.95-17-14.93,12.76c-.53.45-1.23.62-1.9.46-.67-.16-1.22-.63-1.49-1.28l-6.8-16.11-19.54,12.69c-.61.39-1.37.46-2.03.17-.66-.29-1.14-.89-1.27-1.61l-3.68-19.44-14.58,11.1c-.55.42-1.27.55-1.94.34-.66-.21-1.19-.72-1.41-1.39l-7.15-20.96-20.61,5.63c-.65.18-1.35.04-1.88-.38-.54-.42-.85-1.06-.85-1.75v-18.57l-20.06,3.13c-.67.1-1.35-.12-1.84-.6-.49-.48-.73-1.17-.64-1.85l2.31-18.75-22.79-.8c-.63-.02-1.23-.33-1.62-.83-.4-.5-.55-1.16-.43-1.79l3.88-20.49-18.42-1.56c-.65-.05-1.25-.41-1.62-.96-.37-.55-.47-1.24-.28-1.88l5.52-18.41-19.79-9.15c-1.01-.46-1.51-1.63-1.16-2.69l7.77-23.91-18.56-4.71c-.68-.17-1.23-.66-1.49-1.32-.26-.66-.19-1.4.19-2l12.65-20.07-16.24-9.42c-.59-.34-.98-.94-1.07-1.62s.14-1.36.62-1.85l15.02-15.25-15.96-17.82c-.42-.47-.62-1.1-.55-1.73.07-.63.4-1.2.92-1.56l18.16-12.82-13.49-19.33c-.37-.53-.49-1.21-.33-1.84.17-.63.6-1.16,1.19-1.43l20.11-9.42-12.25-16.31c-.44-.59-.56-1.36-.32-2.05.24-.7.8-1.23,1.51-1.41l21.08-5.55-7.81-20.6c-.25-.66-.17-1.41.21-2,.38-.59,1.03-.96,1.72-.99l18.54-.78-2.38-24.99c-.06-.66.17-1.31.64-1.78.47-.47,1.11-.69,1.76-.62l21.11,2.38.78-22.29c.02-.65.33-1.25.83-1.65.5-.4,1.16-.56,1.78-.42l18.49,3.91,2.34-21.37c.07-.66.43-1.25.99-1.61.55-.36,1.23-.44,1.86-.23l18.2,6.16,1.51-19.22c.06-.73.47-1.39,1.1-1.75.63-.36,1.4-.37,2.05-.04l17.42,9.03,5.17-12.97c.22-.55.65-.99,1.2-1.22.55-.22,1.16-.21,1.7.03l15.29,6.94,12.37-14.34c.68-.79,1.8-.98,2.7-.47l15.76,9.04,10.88-11.47c.45-.48,1.08-.73,1.74-.67.65.05,1.24.4,1.61.94l6.18,9.06,7.9-9.67c.45-.56,1.14-.85,1.86-.79.71.06,1.34.48,1.7,1.11l6.4,11.47,12.64-9.8c.55-.42,1.26-.56,1.93-.36.66.2,1.19.7,1.43,1.36l4.42,12.28,13.79-8.88c.54-.35,1.21-.44,1.83-.24.61.2,1.11.67,1.35,1.28l5.69,14.46,17.04-6.98c.56-.23,1.19-.21,1.73.05.55.26.96.74,1.14,1.32l4.62,14.65,16.64-4.29c.56-.14,1.15-.06,1.65.25.5.3.85.79.99,1.36l4.31,17.71,16.54-3.53c.65-.14,1.32.03,1.83.46.51.43.8,1.07.79,1.74l-.32,15.81h20.35c.63,0,1.23.28,1.64.76.41.48.6,1.12.51,1.75l-2.25,15.98h15.72c.62,0,1.22.27,1.63.75.41.48.6,1.11.52,1.74l-2.33,18.1,16.1,2.34c.64.09,1.2.47,1.54,1.02.34.56.42,1.23.21,1.85l-5.43,16.55,17.52,7.31c1.04.43,1.58,1.6,1.25,2.69l-6.64,21.67,15.49,6.29c.57.23,1.02.7,1.23,1.28.21.58.17,1.23-.11,1.78l-9.54,18.57,14.1,10.33c.49.36.81.9.88,1.51.08.6-.1,1.21-.48,1.68l-13.3,16.26,13.33,17.08c.71.91.6,2.23-.25,3l-16.06,14.67,10.42,18.72c.31.55.37,1.21.16,1.81-.21.6-.65,1.08-1.23,1.32l-16.86,7,11.01,20.75c.32.6.34,1.33.07,1.95-.28.63-.83,1.08-1.49,1.24l-19.82,4.64,7.37,14.21c.31.6.33,1.31.06,1.92-.27.62-.81,1.07-1.45,1.24l-18.68,4.74,4.62,17.21c.17.65.05,1.34-.34,1.88-.39.54-1,.87-1.66.9l-19.09.77,3.76,16.8c.15.65,0,1.34-.42,1.86-.41.52-1.04.83-1.7.83h-22.29l-1.58,20c-.09,1.19-1.09,2.1-2.29,2.02l-26.89-1.65-5.6,20.31c-.16.58-.54,1.06-1.06,1.35l-11.28,6.16c-.54.3-1.19.35-1.77.13l-24.63-9.16-15.51,18.23c-.73.86-1.99,1.02-2.9.35l-16.65-12.07-14.32,16.15c-.4.46-.98.72-1.58.73h-.03Zm-17.36-22.9c.57,0,1.15.23,1.57.68l15.74,16.77,14.05-15.85c.74-.83,1.97-.97,2.87-.32l16.61,12.04,15.19-17.86c.59-.69,1.54-.94,2.39-.63l25.12,9.35,9.61-5.25,5.83-21.12c.28-1,1.21-1.68,2.22-1.6l26.51,1.63,1.57-19.87c.09-1.14,1.03-2.03,2.16-2.03h21.58l-3.74-16.69c-.14-.64,0-1.31.39-1.83.39-.52.99-.84,1.64-.86l18.97-.77-4.49-16.71c-.15-.57-.07-1.18.22-1.69.29-.51.78-.88,1.35-1.02l18.15-4.6-7.39-14.25c-.31-.6-.33-1.32-.05-1.94s.83-1.08,1.48-1.23l19.79-4.64-10.8-20.36c-.29-.55-.34-1.2-.13-1.79.21-.59.65-1.06,1.22-1.29l16.81-6.98-10.07-18.08c-.5-.9-.32-2.03.44-2.72l15.84-14.47-13.16-16.86c-.64-.82-.62-1.97.03-2.77l12.94-15.82-13.74-10.07c-.87-.64-1.15-1.83-.65-2.8l9.3-18.1-15.13-6.14c-1.05-.43-1.6-1.6-1.27-2.7l6.65-21.69-17.55-7.33c-1.05-.44-1.6-1.63-1.23-2.73l5.25-15.99-15.65-2.27c-1.18-.17-2-1.27-1.84-2.46l2.28-17.77h-15.75c-.63,0-1.23-.28-1.64-.76-.41-.48-.6-1.12-.51-1.75l2.25-15.98h-20.06c-.58,0-1.14-.24-1.55-.66-.41-.42-.63-.99-.62-1.59l.31-15.29-15.92,3.4c-1.14.24-2.27-.47-2.55-1.63l-4.29-17.62-16.5,4.26c-1.1.29-2.25-.35-2.6-1.46l-4.53-14.36-16.89,6.92c-.54.22-1.13.21-1.66-.02-.53-.23-.95-.66-1.16-1.21l-5.53-14.05-13.86,8.92c-.56.36-1.24.44-1.86.23-.62-.21-1.11-.7-1.34-1.33l-4.33-12.04-12.27,9.51c-.5.39-1.14.53-1.75.41-.62-.13-1.14-.52-1.45-1.07l-6.08-10.89-7.72,9.44c-.43.53-1.09.83-1.76.79-.68-.03-1.3-.38-1.69-.95l-6.3-9.24-10.21,10.76c-.69.72-1.77.88-2.63.39l-15.69-9-12.26,14.22c-.63.73-1.65.96-2.52.56l-14.7-6.67-5.22,13.09c-.23.57-.68,1.02-1.25,1.24-.57.22-1.2.18-1.75-.1l-16.63-8.63-1.48,18.73c-.05.68-.41,1.29-.97,1.66-.56.37-1.25.47-1.88.25l-18.28-6.19-2.31,21.07c-.07.62-.39,1.18-.88,1.54-.49.36-1.12.5-1.72.37l-18.31-3.87-.78,22.05c-.02.61-.29,1.19-.75,1.59-.46.4-1.06.59-1.66.52l-20.77-2.34,2.35,24.6c.06.6-.13,1.2-.52,1.66s-.95.73-1.55.75l-17.81.75,7.59,20.04c.22.59.19,1.24-.1,1.8-.28.56-.79.97-1.38,1.12l-20.27,5.33,11.91,15.86c.4.53.54,1.22.38,1.87-.16.65-.6,1.19-1.2,1.47l-20.19,9.46,13.24,18.98c.33.48.47,1.07.37,1.65-.1.58-.42,1.09-.9,1.43l-17.93,12.66,15.69,17.52c.78.87.75,2.21-.07,3.04l-14.48,14.7,15.76,9.14c.52.3.89.8,1.03,1.39.14.59.04,1.21-.28,1.71l-12.26,19.44,17.9,4.54c.58.15,1.08.54,1.37,1.07.29.54.35,1.17.16,1.75l-7.9,24.29,19.75,9.13c.99.46,1.49,1.59,1.18,2.64l-5.29,17.65,18.15,1.54c.61.05,1.18.37,1.55.86.37.5.52,1.13.4,1.75l-3.86,20.37,22.63.79c.61.02,1.18.3,1.58.77.39.47.58,1.09.5,1.7l-2.25,18.25,19.72-3.08c.63-.09,1.26.09,1.74.51.48.42.76,1.03.76,1.67v18.27l19.83-5.42c1.1-.3,2.24.31,2.61,1.41l6.84,20.05,14.98-11.4c.6-.45,1.39-.56,2.08-.29.7.27,1.21.89,1.35,1.64l3.73,19.71,19-12.34c.54-.35,1.2-.44,1.81-.25.61.19,1.11.64,1.36,1.24l6.66,15.77,14.25-12.18c.41-.35.9-.52,1.4-.52Z"/><path class="cls-2" d="m1851.42,1041.82h-.03c-.73,0-1.43-.31-1.93-.84l-15.63-16.66-14.57,12.45c-.64.55-1.51.76-2.33.56-.82-.2-1.5-.78-1.83-1.56l-6.58-15.57-19.05,12.37c-.74.48-1.67.56-2.49.21-.81-.35-1.39-1.09-1.56-1.96l-3.54-18.66-13.95,10.62c-.68.52-1.57.67-2.38.42-.81-.25-1.46-.88-1.73-1.69l-7-20.53-20.17,5.51c-.79.22-1.65.05-2.31-.46-.65-.51-1.04-1.31-1.04-2.13v-18l-19.5,3.04c-.83.12-1.67-.15-2.26-.73-.59-.58-.88-1.43-.78-2.26l2.24-18.22-22.26-.78c-.78-.03-1.5-.4-1.99-1.01-.48-.61-.68-1.41-.53-2.18l3.78-19.96-17.88-1.51c-.81-.07-1.53-.5-1.98-1.17-.45-.68-.58-1.51-.34-2.29l5.4-18.01-19.41-8.97c-1.23-.57-1.84-1.98-1.42-3.29l7.61-23.42-18.05-4.58c-.83-.21-1.51-.81-1.82-1.62-.31-.8-.23-1.71.23-2.44l12.38-19.64-15.8-9.17c-.71-.41-1.2-1.15-1.31-1.98-.11-.83.17-1.67.75-2.26l14.7-14.92-15.66-17.48c-.51-.57-.76-1.34-.67-2.11.08-.77.49-1.46,1.12-1.9l17.77-12.54-13.21-18.93c-.46-.65-.6-1.47-.4-2.24.2-.78.73-1.41,1.45-1.75l19.56-9.16-11.89-15.83c-.54-.72-.69-1.65-.4-2.5.29-.85.98-1.5,1.84-1.73l20.55-5.41-7.61-20.09c-.31-.81-.21-1.72.26-2.44.47-.72,1.26-1.18,2.11-1.21l18.02-.76-2.33-24.48c-.08-.81.21-1.6.78-2.17.57-.57,1.36-.85,2.16-.76l20.58,2.32.77-21.76c.03-.79.4-1.53,1.01-2.02.62-.49,1.41-.68,2.19-.52l17.96,3.8,2.28-20.84c.09-.81.53-1.53,1.21-1.97.68-.44,1.51-.55,2.28-.29l17.6,5.96,1.46-18.59c.07-.9.58-1.69,1.35-2.13.78-.44,1.72-.46,2.51-.05l16.94,8.79,4.97-12.47c.27-.67.8-1.22,1.47-1.49.67-.27,1.43-.26,2.08.04l14.96,6.78,12.13-14.07c.83-.96,2.22-1.2,3.31-.57l15.43,8.85,10.62-11.19c.56-.59,1.34-.89,2.14-.82.79.06,1.51.48,1.97,1.15l5.81,8.52,7.49-9.16c.56-.68,1.41-1.04,2.28-.97.87.08,1.65.58,2.08,1.36l6.13,10.97,12.19-9.45c.67-.52,1.56-.69,2.37-.45.81.24,1.46.86,1.75,1.66l4.21,11.71,13.27-8.55c.67-.43,1.48-.54,2.25-.29.75.25,1.36.82,1.65,1.56l5.51,14,16.58-6.8c.68-.28,1.46-.26,2.13.06.67.32,1.18.91,1.4,1.62l4.48,14.2,16.19-4.18c.69-.18,1.41-.07,2.03.3.61.37,1.04.96,1.21,1.66l4.2,17.25,16.07-3.43c.81-.17,1.62.04,2.25.56.63.52.98,1.3.96,2.12l-.31,15.32h19.85c.77,0,1.51.34,2.01.93.5.59.73,1.37.62,2.14l-2.17,15.43h15.16c.76,0,1.49.33,2,.92.5.58.73,1.35.64,2.12l-2.27,17.62,15.63,2.27c.78.11,1.47.57,1.89,1.25.41.68.51,1.5.26,2.26l-5.29,16.12,17.1,7.14c1.28.53,1.94,1.95,1.53,3.29l-6.51,21.24,15.08,6.12c.7.28,1.24.85,1.5,1.56.26.71.21,1.5-.14,2.17l-9.35,18.2,13.76,10.09c.59.44.99,1.11,1.08,1.84.09.73-.12,1.48-.59,2.05l-13.05,15.96,13.09,16.77c.87,1.11.73,2.72-.3,3.67l-15.78,14.41,10.24,18.38c.37.67.45,1.47.2,2.2-.25.73-.8,1.32-1.5,1.61l-16.36,6.79,10.76,20.27c.39.73.42,1.62.08,2.38-.34.76-1.02,1.33-1.82,1.51l-19.21,4.5,7.08,13.65c.38.73.41,1.59.08,2.35-.34.76-.98,1.31-1.78,1.52l-18.2,4.62,4.49,16.73c.21.8.06,1.63-.42,2.29-.48.67-1.22,1.07-2.04,1.1l-18.5.75,3.63,16.22c.18.8,0,1.63-.51,2.27-.51.65-1.27,1.01-2.08,1.01h-21.84l-1.54,19.54c-.12,1.49-1.36,2.57-2.81,2.47l-26.49-1.63-5.5,19.93c-.19.7-.66,1.3-1.3,1.64l-11.28,6.16c-.67.37-1.47.43-2.18.16l-24.3-9.04-15.29,17.97c-.9,1.06-2.43,1.25-3.56.43l-16.29-11.81-14.03,15.82c-.5.56-1.2.88-1.94.89h0Zm-17.52-18.84l16.27,17.34c.31.34.76.53,1.21.53h.03c.46,0,.9-.21,1.22-.57l14.62-16.48,17.01,12.33c.71.51,1.67.4,2.24-.27l15.73-18.49,24.95,9.28c.45.17.95.13,1.37-.1l11.28-6.17c.4-.22.7-.6.82-1.05l5.71-20.69,27.28,1.68c.92.07,1.7-.63,1.78-1.57l1.61-20.45h22.75c.51,0,.99-.23,1.31-.64.32-.41.44-.94.33-1.45l-3.89-17.37,19.67-.8c.51-.02.98-.28,1.29-.7.31-.42.4-.96.27-1.47l-4.75-17.68,19.16-4.86c.5-.13.92-.49,1.13-.96.21-.48.19-1.03-.05-1.5l-7.66-14.76,20.43-4.79c.51-.12.94-.48,1.15-.96.22-.49.2-1.06-.05-1.52l-11.26-21.22,17.36-7.21c.45-.19.79-.56.95-1.02.16-.47.11-.98-.13-1.41l-10.61-19.06,16.35-14.93c.66-.6.75-1.63.19-2.34l-13.57-17.39,13.55-16.56c.3-.36.44-.84.38-1.31-.06-.47-.31-.9-.69-1.17l-14.43-10.58,9.73-18.94c.22-.43.25-.94.09-1.39-.17-.45-.51-.82-.95-.99l-15.91-6.46,6.78-22.1c.26-.86-.15-1.76-.97-2.1l-17.93-7.49,5.57-16.97c.16-.49.1-1.01-.17-1.45-.26-.43-.7-.72-1.19-.79l-16.58-2.4,2.39-18.58c.06-.49-.09-.98-.41-1.36-.32-.37-.78-.58-1.26-.58h-16.28l2.33-16.54c.07-.49-.07-.99-.4-1.37-.32-.37-.78-.59-1.27-.59h-20.85l.33-16.31c.01-.53-.21-1.02-.61-1.36-.39-.33-.91-.46-1.42-.35l-17,3.63-4.42-18.17c-.11-.45-.38-.82-.77-1.06-.38-.24-.84-.3-1.27-.19l-17.09,4.41-4.76-15.09c-.14-.45-.47-.83-.89-1.03-.42-.2-.91-.21-1.34-.04l-17.5,7.17-5.87-14.92c-.19-.47-.57-.84-1.04-.99-.48-.16-.99-.09-1.41.18l-14.3,9.21-4.62-12.86c-.18-.51-.6-.9-1.11-1.06-.51-.15-1.06-.05-1.49.28l-13.09,10.15-6.68-11.96c-.27-.49-.76-.81-1.31-.86-.55-.05-1.09.18-1.44.61l-8.31,10.17-6.55-9.6c-.29-.42-.74-.69-1.24-.73-.5-.04-.99.14-1.34.52l-11.15,11.74-16.1-9.23c-.69-.4-1.57-.24-2.09.36l-12.61,14.62-15.63-7.09c-.42-.19-.88-.2-1.31-.02-.42.17-.76.52-.93.94l-5.37,13.47-17.89-9.28c-.5-.26-1.09-.25-1.58.03-.49.28-.81.79-.86,1.36l-1.56,19.84-18.79-6.36c-.48-.16-1-.1-1.43.18-.43.28-.71.74-.77,1.26l-2.4,21.91-19.02-4.02c-.48-.1-.98.02-1.38.33-.39.31-.63.78-.65,1.29l-.8,22.82-21.63-2.44c-.5-.05-1,.12-1.36.48-.36.36-.55.87-.5,1.39l2.43,25.5-19.05.81c-.54.02-1.04.31-1.33.77-.3.46-.36,1.04-.16,1.56l8,21.11-21.6,5.68c-.55.14-.98.55-1.17,1.1-.19.54-.09,1.14.25,1.6l12.61,16.79-20.65,9.67c-.46.21-.79.62-.92,1.11-.13.5-.04,1.02.25,1.44l13.76,19.73-18.56,13.1c-.4.28-.66.72-.71,1.21-.06.49.1.98.43,1.35l16.27,18.17-15.35,15.58c-.37.38-.55.91-.48,1.44.07.53.38,1,.83,1.26l16.68,9.68-12.92,20.5c-.29.46-.35,1.05-.15,1.56.2.51.63.89,1.16,1.03l19.07,4.84-7.94,24.41c-.27.83.12,1.74.9,2.1l20.18,9.33-5.64,18.82c-.15.5-.07,1.03.22,1.47.29.43.74.7,1.25.74l18.96,1.6-3.98,21.03c-.09.49.03,1,.34,1.4.31.39.76.62,1.25.64l23.33.82-2.37,19.28c-.07.53.12,1.07.5,1.45.37.37.9.54,1.43.46l20.62-3.22v19.14c0,.53.25,1.04.66,1.36.41.32.96.43,1.45.29l21.05-5.75,7.3,21.4c.18.52.59.92,1.1,1.08.51.16,1.07.06,1.5-.27l15.21-11.58,3.83,20.22c.11.56.48,1.03.99,1.25.51.22,1.1.18,1.56-.13l20.03-13.01,7.03,16.65c.21.5.64.87,1.16.99.51.12,1.06-.01,1.47-.35l15.28-13.06Zm17.45,13.63l-16.11-17.16c-.59-.63-1.64-.69-2.29-.13l-14.76,12.61-6.92-16.38c-.19-.46-.58-.81-1.05-.96-.47-.15-.98-.08-1.4.19l-19.61,12.74-3.87-20.43c-.11-.58-.5-1.06-1.05-1.27-.54-.21-1.14-.12-1.61.23l-15.52,11.81-7.06-20.69c-.29-.84-1.18-1.33-2.02-1.09l-20.45,5.59v-18.91c0-.5-.21-.98-.59-1.3-.37-.32-.86-.46-1.35-.39l-20.36,3.18,2.33-18.89c.06-.48-.08-.96-.39-1.33-.31-.36-.75-.58-1.22-.6l-23.2-.81,3.97-20.93c.09-.48-.02-.98-.31-1.36-.29-.39-.73-.63-1.2-.67l-18.75-1.59,5.47-18.23c.25-.82-.15-1.71-.91-2.06l-20.15-9.31,8.03-24.7c.15-.45.1-.95-.12-1.37-.23-.42-.61-.72-1.06-.83l-18.55-4.71,12.62-20.01c.25-.39.33-.88.22-1.34-.11-.45-.4-.85-.8-1.08l-16.3-9.46,14.92-15.15c.64-.65.67-1.69.06-2.37l-16.06-17.93,18.38-12.98c.37-.26.62-.66.7-1.11.08-.45-.02-.91-.29-1.29l-13.57-19.45,20.72-9.71c.47-.22.8-.63.93-1.14.12-.51.02-1.04-.3-1.46l-12.34-16.44,20.97-5.52c.46-.12.85-.44,1.07-.87.22-.44.25-.95.08-1.4l-7.83-20.67,18.48-.78c.46-.02.89-.23,1.2-.58.3-.35.45-.83.41-1.29l-2.4-25.2,21.37,2.41c.46.05.93-.09,1.28-.4.36-.31.57-.76.58-1.24l.8-22.63,18.88,3.99c.46.1.94,0,1.32-.29.38-.28.64-.72.69-1.2l2.37-21.68,18.86,6.38c.49.17,1.02.1,1.45-.2.44-.29.71-.76.75-1.29l1.53-19.47,17.29,8.97c.42.22.91.24,1.35.08.44-.17.8-.52.97-.96l5.41-13.56,15.17,6.88c.68.31,1.46.13,1.94-.43l12.52-14.52,16.04,9.2c.67.38,1.5.26,2.03-.3l10.63-11.2,6.64,9.74c.3.44.79.71,1.31.73.52.04,1.03-.21,1.36-.62l8.17-10,6.43,11.51c.24.43.65.73,1.12.83.48.1.97-.02,1.35-.32l12.81-9.93,4.56,12.68c.18.49.55.87,1.04,1.03.48.17,1.01.1,1.44-.17l14.36-9.25,5.75,14.6c.17.43.49.76.9.94.41.18.87.18,1.28.01l17.38-7.13,4.69,14.87c.27.86,1.16,1.36,2.01,1.14l16.98-4.38,4.41,18.11c.22.9,1.08,1.45,1.98,1.26l16.52-3.53-.32,15.91c0,.46.17.91.48,1.24.32.33.74.51,1.2.51h20.62l-2.33,16.54c-.07.49.07.99.4,1.37.32.37.78.59,1.27.59h16.31l-2.36,18.32c-.12.93.52,1.79,1.43,1.92l16.23,2.35-5.43,16.55c-.28.85.14,1.79.96,2.13l17.96,7.5-6.78,22.11c-.26.85.17,1.77.98,2.1l15.62,6.34-9.55,18.57c-.39.75-.17,1.69.51,2.19l14.15,10.38-13.27,16.22c-.51.62-.52,1.53-.02,2.16l13.43,17.21-16.17,14.78c-.58.53-.73,1.43-.34,2.12l10.34,18.56-17.32,7.19c-.44.18-.79.55-.95,1.01-.16.46-.12.97.1,1.4l11.1,20.92-20.41,4.78c-.5.12-.93.47-1.15.95-.22.49-.21,1.04.04,1.52l7.68,14.8-18.75,4.76c-.43.11-.81.4-1.04.79-.23.4-.29.87-.17,1.32l4.65,17.3-19.58.79c-.5.02-.96.26-1.27.67-.31.41-.42.93-.31,1.43l3.87,17.28h-22.19c-.87,0-1.61.69-1.68,1.58l-1.6,20.35-26.99-1.66c-.78-.07-1.5.46-1.72,1.25l-5.88,21.32-9.99,5.46-25.33-9.42c-.65-.24-1.39-.05-1.85.49l-15.49,18.2-16.98-12.31c-.7-.5-1.65-.39-2.22.25l-14.41,16.25Zm-17.32-18.67c.73,0,1.43.31,1.93.84l15.37,16.38,13.7-15.45c.91-1.02,2.42-1.19,3.53-.39l16.25,11.78,14.9-17.51c.72-.85,1.89-1.16,2.93-.77l24.91,9.27,9.23-5.04,5.77-20.92c.34-1.23,1.49-2.07,2.73-1.96l26.02,1.6,1.53-19.39c.11-1.39,1.27-2.48,2.65-2.48h20.97l-3.6-16.09c-.17-.78,0-1.59.48-2.23.48-.64,1.21-1.02,2.01-1.05l18.36-.75-4.33-16.12c-.19-.7-.09-1.44.27-2.06.36-.62.96-1.08,1.65-1.25l17.55-4.45-7.11-13.71c-.39-.74-.41-1.6-.06-2.37.34-.75,1.02-1.32,1.82-1.5l19.18-4.49-10.51-19.8c-.36-.67-.41-1.46-.16-2.18.25-.72.8-1.29,1.49-1.58l16.31-6.77-9.8-17.6c-.62-1.1-.4-2.47.53-3.32l15.51-14.17-12.88-16.5c-.77-.99-.76-2.41.04-3.38l12.62-15.42-13.32-9.77c-1.06-.78-1.4-2.25-.8-3.42l9.06-17.62-14.63-5.94c-1.28-.52-1.96-1.96-1.55-3.29l6.52-21.27-17.14-7.16c-1.29-.54-1.95-2-1.51-3.34l5.07-15.44-15.08-2.19c-1.43-.21-2.44-1.56-2.26-3.01l2.21-17.22h-15.2c-.77,0-1.51-.34-2.01-.93-.5-.59-.73-1.37-.62-2.14l2.17-15.43h-19.5c-.71,0-1.4-.3-1.9-.81-.5-.51-.77-1.22-.76-1.94l.3-14.67-15.31,3.27c-1.41.3-2.79-.57-3.13-1.99l-4.17-17.14-16.02,4.13c-1.36.36-2.76-.43-3.19-1.79l-4.37-13.85-16.4,6.72c-.66.27-1.39.26-2.04-.02-.65-.28-1.16-.81-1.42-1.48l-5.31-13.49-13.35,8.6c-.68.44-1.52.54-2.28.28-.77-.27-1.36-.86-1.64-1.63l-4.1-11.41-11.74,9.1c-.61.47-1.39.65-2.15.5-.75-.16-1.4-.63-1.78-1.31l-5.73-10.26-7.26,8.89c-.53.65-1.33,1.02-2.17.97-.83-.04-1.6-.47-2.07-1.16l-5.96-8.74-9.8,10.32c-.84.89-2.17,1.08-3.23.48l-15.34-8.8-12,13.91c-.77.9-2.01,1.18-3.09.69l-14.24-6.46-5.03,12.61c-.28.7-.84,1.25-1.53,1.51-.7.26-1.48.22-2.14-.13l-15.98-8.29-1.42,18c-.06.83-.5,1.57-1.18,2.03-.69.46-1.53.58-2.31.31l-17.7-5.99-2.24,20.47c-.08.75-.48,1.44-1.08,1.88-.61.45-1.38.62-2.11.46l-17.74-3.75-.76,21.47c-.03.74-.36,1.45-.92,1.94-.56.49-1.3.73-2.04.64l-20.17-2.28,2.29,24.01c.07.73-.16,1.47-.64,2.02-.48.56-1.17.89-1.9.92l-17.13.72,7.35,19.4c.27.71.23,1.51-.12,2.19-.35.68-.96,1.18-1.7,1.38l-19.57,5.15,11.47,15.28c.49.65.66,1.48.46,2.27-.19.8-.73,1.45-1.46,1.79l-19.67,9.21,12.91,18.5c.41.59.57,1.31.45,2.02-.12.7-.52,1.34-1.1,1.74l-17.48,12.34,15.33,17.11c.95,1.06.91,2.69-.09,3.71l-14.04,14.25,15.21,8.82c.63.36,1.09.98,1.26,1.69.17.71.05,1.47-.34,2.09l-11.9,18.87,17.25,4.38c.71.18,1.33.66,1.68,1.31.35.65.42,1.43.2,2.14l-7.76,23.88,19.36,8.95c1.21.56,1.83,1.94,1.44,3.23l-5.12,17.07,17.55,1.48c.75.06,1.44.45,1.9,1.06.45.61.63,1.38.49,2.13l-3.75,19.81,22.06.77c.75.03,1.45.37,1.93.95.48.57.7,1.33.61,2.08l-2.17,17.6,19.08-2.98c.77-.12,1.55.11,2.14.62.59.51.93,1.25.93,2.04v17.62l19.21-5.25c1.34-.37,2.75.39,3.21,1.72l6.62,19.41,14.44-10.99c.74-.56,1.69-.7,2.56-.36.86.34,1.48,1.09,1.65,2l3.6,19,18.39-11.94c.66-.43,1.47-.54,2.22-.31.75.23,1.35.78,1.66,1.51l6.4,15.15,13.74-11.74c.48-.41,1.09-.63,1.71-.63Z"/></g></g><g><ellipse class="cls-19" cx="1852.7" cy="834.42" rx="51.94" ry="52.72"/><path class="cls-15" d="m1861.18,853.73c-1.77.41-3.14.19-4.18-.65-1.33-1.08-2.2-3.29-2.44-6.06h.22c2.02-1.7,4.85-4.23,5.26-5.37,1.19-3.11-1.21-4.54-3.44-4.97-1.27-.18-2.57-.29-3.89-.29s-2.62.1-3.89.29c-2.23.43-4.63,1.87-3.44,4.97.42,1.14,3.24,3.67,5.26,5.37h.21c-.23,2.77-1.11,4.98-2.44,6.06-1.04.84-2.41,1.05-4.18.65-.96-.22-1.92.39-2.14,1.37-.22.98.39,1.94,1.35,2.17.87.2,1.66.28,2.38.28,2.25,0,3.82-.83,4.81-1.64.87-.7,1.54-1.57,2.07-2.51.52.94,1.2,1.8,2.07,2.51,1,.81,2.57,1.64,4.81,1.64.72,0,1.51-.09,2.38-.28.96-.22,1.56-1.19,1.35-2.17-.22-.98-1.17-1.59-2.13-1.37Zm27.37-22.65l.04.03c-.52-1.65-.99-4.12-3.36-9.71-6.11-14.42-17.55-23.07-32.52-23.07s-26.42,8.65-32.52,23.07c-2.37,5.59-2.84,8.05-3.36,9.71l.04-.03c-3.54,2.94-7.94,8.14-7.94,16.51,0,19.24,20.8,21.05,18.74,9.39-2.06-11.66-2.09-25.33.88-34.4,1.35-4.33,3.51-8.39,6.77-11.54,0,0,0,0,0,0,3.98-3.84,9.6-6.34,17.39-6.34s13.42,2.49,17.4,6.34c0,0,0,0,0,0,3.26,3.15,5.42,7.21,6.77,11.54,2.97,9.08,2.94,22.74.88,34.4-2.07,11.66,18.74,9.85,18.74-9.39,0-8.36-4.4-13.57-7.94-16.51Z"/></g></g><g><rect class="cls-14" x="1407.27" y="940.07" width="149.61" height="475.57" rx="74.81" ry="74.81"/><rect class="cls-14" x="1529.89" y="877.85" width="149.61" height="475.57" rx="74.81" ry="74.81"/><rect class="cls-14" x="1652.52" y="937.9" width="149.61" height="475.57" rx="74.81" ry="74.81"/><rect class="cls-14" x="1775.14" y="996.98" width="149.61" height="475.57" rx="74.81" ry="74.81"/><rect class="cls-14" x="1897.76" y="1009.98" width="149.61" height="475.57" rx="74.81" ry="74.81"/></g><g><rect class="cls-12" x="1218.27" y="1024.16" width="149.61" height="270.17" rx="74.81" ry="74.81"/><rect class="cls-12" x="1340.9" y="1069.68" width="149.61" height="270.17" rx="74.81" ry="74.81"/></g><path class="cls-12" d="m3206.11,987.65c-39,2.55-69.85,34.98-69.85,74.62v120.55c0,39.65,30.85,72.07,69.85,74.62v-269.8Z"/></g></g></svg>