<?xml version="1.0" encoding="UTF-8"?><svg id="Layer_2" xmlns="http://www.w3.org/2000/svg" viewBox="0 0 6020.72 862.72"><defs><style>.cls-1{fill:#053342;}.cls-2{fill:#f0f5fb;}.cls-3{fill:#2f6f77;}.cls-4{fill:#c2e1b5;}.cls-5{fill:#d9ebcb;}.cls-6{fill:#0b5463;}.cls-7{fill:#3ec0c4;}.cls-8{fill:#6ccbd8;}.cls-9{fill:#283e51;}.cls-10{fill:#263942;}.cls-11{fill:#385763;}.cls-12{fill:#59c1ac;}.cls-13{fill:#58b0db;}.cls-14{fill:#793232;}</style></defs><g id="_ÎÓÈ_1"><g><path class="cls-13" d="m3529.68,658.97h77.33c1.46,0,2.65-1.18,2.65-2.64s-1.19-2.64-2.65-2.64h-77.33c-1.46,0-2.65,1.18-2.65,2.64s1.19,2.64,2.65,2.64Z"/><path class="cls-13" d="m3468.05,614.96h77.33c1.46,0,2.65-1.18,2.65-2.64s-1.19-2.64-2.65-2.64h-77.33c-1.46,0-2.65,1.18-2.65,2.64s1.19,2.64,2.65,2.64Z"/><g><g><g><polygon class="cls-10" points="3424.84 78.75 3413.85 78.75 3441.55 0 3452.54 0 3424.84 78.75"/><polygon class="cls-10" points="3494.08 78.75 3483.09 78.75 3510.8 0 3521.79 0 3494.08 78.75"/><polygon class="cls-10" points="3514.45 20.85 3434.15 20.85 3441.49 0 3521.79 0 3514.45 20.85"/></g><g><polygon class="cls-10" points="3657.33 78.75 3646.34 78.75 3674.05 0 3685.04 0 3657.33 78.75"/><polygon class="cls-10" points="3726.58 78.75 3715.59 78.75 3743.29 0 3754.28 0 3726.58 78.75"/><polygon class="cls-10" points="3746.95 20.85 3666.65 20.85 3673.98 0 3754.28 0 3746.95 20.85"/></g></g><rect class="cls-11" x="3281.02" y="456.5" width="605.64" height="14.46" transform="translate(7167.68 927.45) rotate(180)"/><rect class="cls-7" x="3320.14" y="67.76" width="505.5" height="390.67" rx="30.54" ry="30.54"/><rect class="cls-1" x="3726.65" y="240.66" width="72.59" height="190.06" rx="20.36" ry="20.36"/><path class="cls-6" d="m3735.7,403.38c0,10.15,6.88,18.46,15.29,18.46h23.92c8.41,0,15.29-8.31,15.29-18.46v-135.39c0-10.15-6.88-18.46-15.29-18.46h-23.92c-8.41,0-15.29,8.31-15.29,18.46v135.39Z"/><path class="cls-6" d="m3642.18,322.11c0,10.37,9.16,18.86,20.36,18.86h31.87c11.2,0,20.36-8.48,20.36-18.86v-55.17c0-10.37-9.16-18.86-20.36-18.86h-31.87c-11.2,0-20.36,8.48-20.36,18.86v55.17Z"/><path class="cls-6" d="m3557.71,322.11c0,10.37,9.16,18.86,20.36,18.86h31.87c11.2,0,20.36-8.48,20.36-18.86v-55.17c0-10.37-9.16-18.86-20.36-18.86h-31.87c-11.2,0-20.36,8.48-20.36,18.86v55.17Z"/><path class="cls-6" d="m3473.24,322.11c0,10.37,9.16,18.86,20.36,18.86h31.87c11.2,0,20.36-8.48,20.36-18.86v-55.17c0-10.37-9.16-18.86-20.36-18.86h-31.87c-11.2,0-20.36,8.48-20.36,18.86v55.17Z"/><path class="cls-6" d="m3388.77,322.11c0,10.37,9.16,18.86,20.36,18.86h31.87c11.2,0,20.36-8.48,20.36-18.86v-55.17c0-10.37-9.16-18.86-20.36-18.86h-31.87c-11.2,0-20.36,8.48-20.36,18.86v55.17Z"/><path class="cls-6" d="m3320.14,340.46v-91.86c1.46-.31,2.97-.51,4.53-.51h31.86c11.2,0,20.36,8.48,20.36,18.86v55.17c0,10.37-9.16,18.86-20.36,18.86h-31.86c-1.56,0-3.06-.2-4.53-.51Z"/><path class="cls-6" d="m3726.65,132.64v49.9c0,9.46,9.16,17.2,20.36,17.2h31.87c11.2,0,20.36-7.74,20.36-17.2v-49.9h-72.59Z"/><path class="cls-6" d="m3798.92,120.23c-1.53-8.2-9.92-14.55-20.05-14.55h-31.87c-10.13,0-18.52,6.35-20.04,14.55h71.96Z"/><path class="cls-6" d="m3714.45,120.23c-1.53-8.2-9.92-14.55-20.04-14.55h-31.87c-10.13,0-18.52,6.35-20.05,14.55h71.96Z"/><path class="cls-6" d="m3642.18,132.64v49.9c0,9.46,9.16,17.2,20.36,17.2h31.87c11.2,0,20.36-7.74,20.36-17.2v-49.9h-72.59Z"/><path class="cls-6" d="m3629.98,120.23c-1.53-8.2-9.92-14.55-20.04-14.55h-31.87c-10.13,0-18.52,6.35-20.04,14.55h71.96Z"/><path class="cls-6" d="m3557.71,132.64v49.9c0,9.46,9.16,17.2,20.36,17.2h31.87c11.2,0,20.36-7.74,20.36-17.2v-49.9h-72.59Z"/><path class="cls-6" d="m3545.51,120.23c-1.53-8.2-9.92-14.55-20.04-14.55h-31.87c-10.13,0-18.52,6.35-20.05,14.55h71.96Z"/><path class="cls-6" d="m3473.24,132.64v49.9c0,9.46,9.16,17.2,20.36,17.2h31.87c11.2,0,20.36-7.74,20.36-17.2v-49.9h-72.59Z"/><path class="cls-6" d="m3461.04,120.23c-1.53-8.2-9.92-14.55-20.04-14.55h-31.87c-10.13,0-18.52,6.35-20.04,14.55h71.96Z"/><path class="cls-6" d="m3388.77,132.64v49.9c0,9.46,9.16,17.2,20.36,17.2h31.87c11.2,0,20.36-7.74,20.36-17.2v-49.9h-72.59Z"/><path class="cls-6" d="m3376.57,120.23c-1.53-8.2-9.92-14.55-20.04-14.55h-31.86c-1.56,0-3.06.18-4.53.47v14.08h56.44Z"/><path class="cls-6" d="m3320.14,132.64v66.63c1.46.28,2.97.47,4.53.47h31.86c11.2,0,20.36-7.74,20.36-17.2v-49.9h-56.75Z"/><path class="cls-10" d="m3422.54,458.43l29.58-30.36h230.97s23.58,20.43,36.16,30.36h-296.71Z"/><path class="cls-2" d="m3308.56,382.3c0,9.48,5.02,17.16,11.22,17.16s7.06-7.68,7.06-17.16-.87-17.16-7.06-17.16-11.22,7.68-11.22,17.16Z"/><path class="cls-14" d="m3314.24,412.78c0,5.9,4.34,7.31,6.98,7.31s4.78-3.27,4.78-7.31-2.14-7.31-4.78-7.31-6.98,1.41-6.98,7.31Z"/><path class="cls-6" d="m3825.39,95.9h-505.01c.32-3.94,1.35-7.66,3.03-11.05h498.95c1.68,3.39,2.72,7.1,3.03,11.05Z"/></g><path class="cls-8" d="m6020.34,505.4h-3008.65v357.32h3008.65v-357.32Z"/><g><g><path class="cls-4" d="m5757.32,609.64h30.5c1.46,0,2.64-1.18,2.64-2.64s-1.18-2.64-2.64-2.64h-30.5c-1.46,0-2.64,1.18-2.64,2.64s1.18,2.64,2.64,2.64Z"/><path class="cls-4" d="m5787.82,617.64h-30.5c-5.87,0-10.64-4.77-10.64-10.64s4.77-10.64,10.64-10.64h30.5c5.87,0,10.64,4.77,10.64,10.64s-4.77,10.64-10.64,10.64Z"/></g><g><path class="cls-4" d="m4123.62,615.27h133.46c1.46,0,2.64-.59,2.64-1.32s-1.18-1.32-2.64-1.32h-133.46c-1.46,0-2.64.59-2.64,1.32s1.18,1.32,2.64,1.32Z"/><path class="cls-4" d="m4257.08,623.27h-133.46c-6.07,0-10.64-4.01-10.64-9.32s4.57-9.32,10.64-9.32h133.46c6.07,0,10.64,4.01,10.64,9.32s-4.57,9.32-10.64,9.32Z"/></g><g><path class="cls-4" d="m4637.28,737.67h100.81c1.46,0,2.64-1.18,2.64-2.64s-1.18-2.64-2.64-2.64h-100.81c-1.46,0-2.65,1.18-2.65,2.64s1.19,2.64,2.65,2.64Z"/><path class="cls-4" d="m4738.09,745.67h-100.81c-5.87,0-10.65-4.77-10.65-10.64s4.78-10.64,10.65-10.64h100.81c5.87,0,10.64,4.77,10.64,10.64s-4.77,10.64-10.64,10.64Z"/></g><g><path class="cls-4" d="m4711.16,715.75h77.33c1.46,0,2.65-1.18,2.65-2.64s-1.19-2.64-2.65-2.64h-77.33c-1.46,0-2.65,1.18-2.65,2.64s1.19,2.64,2.65,2.64Z"/><path class="cls-4" d="m4788.49,723.75h-77.33c-5.87,0-10.65-4.77-10.65-10.64s4.78-10.64,10.65-10.64h77.33c5.87,0,10.65,4.77,10.65,10.64s-4.78,10.64-10.65,10.64Z"/></g><g><path class="cls-4" d="m4763.62,737.67h41.57c1.46,0,2.64-1.18,2.64-2.64s-1.18-2.64-2.64-2.64h-41.57c-1.46,0-2.65,1.18-2.65,2.64s1.19,2.64,2.65,2.64Z"/><path class="cls-4" d="m4805.19,745.67h-41.57c-5.87,0-10.65-4.77-10.65-10.64s4.78-10.64,10.65-10.64h41.57c5.87,0,10.64,4.77,10.64,10.64s-4.77,10.64-10.64,10.64Z"/></g><g><path class="cls-4" d="m3231.61,617.76h100.81c1.46,0,2.64-1.18,2.64-2.64s-1.18-2.64-2.64-2.64h-100.81c-1.46,0-2.65,1.18-2.65,2.64s1.19,2.64,2.65,2.64Z"/><path class="cls-4" d="m3332.42,625.76h-100.81c-5.87,0-10.65-4.77-10.65-10.64s4.78-10.64,10.65-10.64h100.81c5.87,0,10.64,4.77,10.64,10.64s-4.77,10.64-10.64,10.64Z"/></g><g><path class="cls-4" d="m3305.49,595.84h77.33c1.46,0,2.65-1.18,2.65-2.64s-1.19-2.64-2.65-2.64h-77.33c-1.46,0-2.65,1.18-2.65,2.64s1.19,2.64,2.65,2.64Z"/><path class="cls-4" d="m3382.82,603.84h-77.33c-5.87,0-10.65-4.77-10.65-10.64s4.78-10.64,10.65-10.64h77.33c5.87,0,10.65,4.77,10.65,10.64s-4.78,10.64-10.65,10.64Z"/></g><g><path class="cls-4" d="m3357.95,617.76h41.57c1.46,0,2.64-1.18,2.64-2.64s-1.18-2.64-2.64-2.64h-41.57c-1.46,0-2.65,1.18-2.65,2.64s1.19,2.64,2.65,2.64Z"/><path class="cls-4" d="m3399.52,625.76h-41.57c-5.87,0-10.65-4.77-10.65-10.64s4.78-10.64,10.65-10.64h41.57c5.87,0,10.64,4.77,10.64,10.64s-4.77,10.64-10.64,10.64Z"/></g><g><path class="cls-4" d="m3642.47,740.31h41.57c1.46,0,2.64-1.18,2.64-2.64s-1.18-2.64-2.64-2.64h-41.57c-1.46,0-2.65,1.18-2.65,2.64s1.19,2.64,2.65,2.64Z"/><path class="cls-4" d="m3684.04,748.31h-41.57c-5.87,0-10.65-4.77-10.65-10.64s4.78-10.64,10.65-10.64h41.57c5.87,0,10.64,4.77,10.64,10.64s-4.77,10.64-10.64,10.64Z"/></g><g><path class="cls-4" d="m5172.37,619.71h133.45c1.46,0,2.65-1.18,2.65-2.64s-1.19-2.64-2.65-2.64h-133.45c-1.46,0-2.65,1.18-2.65,2.64s1.19,2.64,2.65,2.64Z"/><path class="cls-4" d="m5305.82,627.71h-133.45c-5.87,0-10.65-4.77-10.65-10.64s4.78-10.64,10.65-10.64h133.45c5.87,0,10.65,4.77,10.65,10.64s-4.78,10.64-10.65,10.64Z"/></g><g><path class="cls-4" d="m5593.12,609.64h133.45c1.46,0,2.65-1.18,2.65-2.64s-1.19-2.64-2.65-2.64h-133.45c-1.46,0-2.65,1.18-2.65,2.64s1.19,2.64,2.65,2.64Z"/><path class="cls-4" d="m5726.57,617.64h-133.45c-5.87,0-10.65-4.77-10.65-10.64s4.78-10.64,10.65-10.64h133.45c5.87,0,10.65,4.77,10.65,10.64s-4.78,10.64-10.65,10.64Z"/></g><g><path class="cls-4" d="m3911.76,643.89h376.33c1.46,0,2.64-1.18,2.64-2.64s-1.18-2.64-2.64-2.64h-376.33c-1.46,0-2.64,1.18-2.64,2.64s1.18,2.64,2.64,2.64Z"/><path class="cls-4" d="m4288.09,651.89h-376.33c-5.87,0-10.64-4.77-10.64-10.64s4.77-10.64,10.64-10.64h376.33c5.87,0,10.64,4.77,10.64,10.64s-4.77,10.64-10.64,10.64Z"/></g><g><path class="cls-4" d="m4308.07,643.89h71.5c1.46,0,2.64-1.18,2.64-2.64s-1.18-2.64-2.64-2.64h-71.5c-1.46,0-2.64,1.18-2.64,2.64s1.18,2.64,2.64,2.64Z"/><path class="cls-4" d="m4379.57,651.89h-71.5c-5.87,0-10.64-4.77-10.64-10.64s4.77-10.64,10.64-10.64h71.5c5.87,0,10.64,4.77,10.64,10.64s-4.77,10.64-10.64,10.64Z"/></g><g><path class="cls-4" d="m5069.86,642.84h211.86c1.46,0,2.64-1.18,2.64-2.64s-1.18-2.64-2.64-2.64h-211.86c-1.46,0-2.65,1.19-2.65,2.64s1.19,2.64,2.65,2.64h0Z"/><path class="cls-4" d="m5281.72,650.84h-211.86c-5.87,0-10.65-4.77-10.65-10.64s4.78-10.64,10.65-10.64h211.86c5.87,0,10.64,4.77,10.64,10.64s-4.77,10.64-10.64,10.64Z"/></g><g><path class="cls-4" d="m5314.95,642.84h132.17c1.46,0,2.65-1.18,2.65-2.64s-1.19-2.64-2.65-2.64h-132.17c-1.46,0-2.65,1.19-2.65,2.64s1.19,2.64,2.65,2.64Z"/><path class="cls-4" d="m5447.12,650.84h-132.17c-5.87,0-10.65-4.77-10.65-10.64s4.78-10.64,10.65-10.64h132.17c5.87,0,10.65,4.77,10.65,10.64s-4.78,10.64-10.65,10.64Z"/></g><g><path class="cls-4" d="m5020.9,642.84h30.49c1.46,0,2.64-1.18,2.64-2.64s-1.18-2.64-2.64-2.64h-30.49c-1.46,0-2.65,1.19-2.65,2.64s1.19,2.64,2.65,2.64Z"/><path class="cls-4" d="m5051.39,650.84h-30.49c-5.87,0-10.65-4.77-10.65-10.64s4.78-10.64,10.65-10.64h30.49c5.87,0,10.64,4.77,10.64,10.64s-4.77,10.64-10.64,10.64Z"/></g></g><g><rect class="cls-1" x="3009.03" y="470.95" width="3011.69" height="98.82"/><rect class="cls-3" x="3048.58" y="482.12" width="103.77" height="16.76"/><rect class="cls-3" x="3196.15" y="482.12" width="103.77" height="16.76"/><rect class="cls-3" x="3343.72" y="482.12" width="103.77" height="16.76"/><rect class="cls-3" x="3491.29" y="482.12" width="103.77" height="16.76"/><rect class="cls-3" x="3638.86" y="482.12" width="103.77" height="16.76"/><rect class="cls-3" x="3786.43" y="482.12" width="103.77" height="16.76"/><rect class="cls-3" x="3934" y="482.12" width="103.77" height="16.76"/><rect class="cls-3" x="4081.57" y="482.12" width="103.77" height="16.76"/><rect class="cls-3" x="4229.14" y="482.12" width="103.77" height="16.76"/><rect class="cls-3" x="4376.71" y="482.12" width="103.77" height="16.76"/><rect class="cls-3" x="4524.28" y="482.12" width="103.77" height="16.76"/><rect class="cls-3" x="4671.85" y="482.12" width="103.77" height="16.76"/><rect class="cls-3" x="4819.42" y="482.12" width="103.77" height="16.76"/><rect class="cls-3" x="4966.99" y="482.12" width="103.77" height="16.76"/><rect class="cls-3" x="5114.56" y="482.12" width="103.77" height="16.76"/><rect class="cls-3" x="5262.13" y="482.12" width="103.77" height="16.76"/><rect class="cls-3" x="5409.7" y="482.12" width="103.77" height="16.76"/><rect class="cls-3" x="5557.27" y="482.12" width="103.77" height="16.76"/><rect class="cls-3" x="5704.84" y="482.12" width="103.77" height="16.76"/><rect class="cls-3" x="5852.41" y="482.12" width="103.77" height="16.76"/></g><g><g><rect class="cls-1" x="3171.16" y="346.15" width="16.94" height="204.34"/><polygon class="cls-5" points="3203.73 375.46 3155.54 375.46 3149.94 335.34 3209.33 335.34 3203.73 375.46"/><path class="cls-1" d="m3164.73,315.91h29.81c9.31,0,16.88,7.56,16.88,16.88v1.76c0,1.77-1.43,3.2-3.2,3.2h-57.16c-1.77,0-3.2-1.43-3.2-3.2v-1.76c0-9.31,7.56-16.88,16.88-16.88Z"/><path class="cls-1" d="m3155.53,375.25c3.66,9.76,13.07,16.71,24.11,16.71s20.45-6.95,24.11-16.71h-48.22Z"/></g><g><rect class="cls-1" x="3468.94" y="346.15" width="16.94" height="204.34"/><polygon class="cls-5" points="3501.51 375.46 3453.31 375.46 3447.72 335.34 3507.1 335.34 3501.51 375.46"/><path class="cls-1" d="m3462.5,315.91h29.81c9.31,0,16.88,7.56,16.88,16.88v1.76c0,1.77-1.43,3.2-3.2,3.2h-57.16c-1.77,0-3.2-1.43-3.2-3.2v-1.76c0-9.31,7.56-16.88,16.88-16.88Z"/><path class="cls-1" d="m3453.3,375.25c3.66,9.76,13.07,16.71,24.11,16.71s20.45-6.95,24.11-16.71h-48.22Z"/></g><g><rect class="cls-1" x="3766.71" y="346.15" width="16.94" height="204.34"/><polygon class="cls-5" points="3799.28 375.46 3751.09 375.46 3745.49 335.34 3804.88 335.34 3799.28 375.46"/><path class="cls-1" d="m3760.28,315.91h29.81c9.31,0,16.88,7.56,16.88,16.88v1.76c0,1.77-1.43,3.2-3.2,3.2h-57.16c-1.77,0-3.2-1.43-3.2-3.2v-1.76c0-9.31,7.56-16.88,16.88-16.88Z"/><path class="cls-1" d="m3751.08,375.25c3.66,9.76,13.07,16.71,24.11,16.71s20.45-6.95,24.11-16.71h-48.22Z"/></g><g><rect class="cls-1" x="4064.49" y="346.15" width="16.94" height="204.34"/><polygon class="cls-5" points="4097.06 375.46 4048.86 375.46 4043.27 335.34 4102.66 335.34 4097.06 375.46"/><path class="cls-1" d="m4058.06,315.91h29.81c9.31,0,16.88,7.56,16.88,16.88v1.76c0,1.77-1.43,3.2-3.2,3.2h-57.16c-1.77,0-3.2-1.43-3.2-3.2v-1.76c0-9.31,7.56-16.88,16.88-16.88Z"/><path class="cls-1" d="m4048.85,375.25c3.66,9.76,13.07,16.71,24.11,16.71s20.45-6.95,24.11-16.71h-48.22Z"/></g><g><rect class="cls-1" x="4362.27" y="346.15" width="16.94" height="204.34"/><polygon class="cls-5" points="4394.84 375.46 4346.64 375.46 4341.04 335.34 4400.43 335.34 4394.84 375.46"/><path class="cls-1" d="m4355.83,315.91h29.81c9.31,0,16.88,7.56,16.88,16.88v1.76c0,1.77-1.43,3.2-3.2,3.2h-57.16c-1.77,0-3.2-1.43-3.2-3.2v-1.76c0-9.31,7.56-16.88,16.88-16.88Z"/><path class="cls-1" d="m4346.63,375.25c3.66,9.76,13.07,16.71,24.11,16.71s20.45-6.95,24.11-16.71h-48.22Z"/></g><g><rect class="cls-1" x="4660.04" y="346.15" width="16.94" height="204.34"/><polygon class="cls-5" points="4692.61 375.46 4644.41 375.46 4638.82 335.34 4698.21 335.34 4692.61 375.46"/><path class="cls-1" d="m4653.61,315.91h29.81c9.31,0,16.88,7.56,16.88,16.88v1.76c0,1.77-1.43,3.2-3.2,3.2h-57.16c-1.77,0-3.2-1.43-3.2-3.2v-1.76c0-9.31,7.56-16.88,16.88-16.88Z"/><path class="cls-1" d="m4644.4,375.25c3.66,9.76,13.07,16.71,24.11,16.71s20.45-6.95,24.11-16.71h-48.22Z"/></g><g><rect class="cls-1" x="4957.82" y="346.15" width="16.94" height="204.34"/><polygon class="cls-5" points="4990.39 375.46 4942.19 375.46 4936.59 335.34 4995.98 335.34 4990.39 375.46"/><path class="cls-1" d="m4951.38,315.91h29.81c9.31,0,16.88,7.56,16.88,16.88v1.76c0,1.77-1.43,3.2-3.2,3.2h-57.16c-1.77,0-3.2-1.43-3.2-3.2v-1.76c0-9.31,7.56-16.88,16.88-16.88Z"/><path class="cls-1" d="m4942.18,375.25c3.66,9.76,13.07,16.71,24.11,16.71s20.45-6.95,24.11-16.71h-48.22Z"/></g><g><rect class="cls-1" x="5255.59" y="346.15" width="16.94" height="204.34"/><polygon class="cls-5" points="5288.16 375.46 5239.97 375.46 5234.37 335.34 5293.76 335.34 5288.16 375.46"/><path class="cls-1" d="m5249.16,315.91h29.81c9.31,0,16.88,7.56,16.88,16.88v1.76c0,1.77-1.43,3.2-3.2,3.2h-57.16c-1.77,0-3.2-1.43-3.2-3.2v-1.76c0-9.31,7.56-16.88,16.88-16.88Z"/><path class="cls-1" d="m5239.96,375.25c3.66,9.76,13.07,16.71,24.11,16.71s20.45-6.95,24.11-16.71h-48.22Z"/></g><g><rect class="cls-1" x="5553.37" y="346.15" width="16.94" height="204.34"/><polygon class="cls-5" points="5585.94 375.46 5537.74 375.46 5532.15 335.34 5591.53 335.34 5585.94 375.46"/><path class="cls-1" d="m5546.93,315.91h29.81c9.31,0,16.88,7.56,16.88,16.88v1.76c0,1.77-1.43,3.2-3.2,3.2h-57.16c-1.77,0-3.2-1.43-3.2-3.2v-1.76c0-9.31,7.56-16.88,16.88-16.88Z"/><path class="cls-1" d="m5537.73,375.25c3.66,9.76,13.07,16.71,24.11,16.71s20.45-6.95,24.11-16.71h-48.22Z"/></g><g><rect class="cls-1" x="5851.15" y="346.15" width="16.94" height="204.34"/><polygon class="cls-5" points="5883.71 375.46 5835.52 375.46 5829.92 335.34 5889.31 335.34 5883.71 375.46"/><path class="cls-1" d="m5844.71,315.91h29.81c9.31,0,16.88,7.56,16.88,16.88v1.76c0,1.77-1.43,3.2-3.2,3.2h-57.16c-1.77,0-3.2-1.43-3.2-3.2v-1.76c0-9.31,7.56-16.88,16.88-16.88Z"/><path class="cls-1" d="m5835.51,375.25c3.66,9.76,13.07,16.71,24.11,16.71s20.45-6.95,24.11-16.71h-48.22Z"/></g></g><path class="cls-8" d="m3011.31,505.4H2.65v357.32h3008.65v-357.32Z"/><g><g><path class="cls-4" d="m2748.29,609.64h30.5c1.46,0,2.64-1.18,2.64-2.64s-1.18-2.64-2.64-2.64h-30.5c-1.46,0-2.64,1.18-2.64,2.64s1.18,2.64,2.64,2.64Z"/><path class="cls-4" d="m2778.79,617.64h-30.5c-5.87,0-10.64-4.77-10.64-10.64s4.77-10.64,10.64-10.64h30.5c5.87,0,10.64,4.77,10.64,10.64s-4.77,10.64-10.64,10.64Z"/></g><g><path class="cls-4" d="m1114.59,615.27h133.46c1.46,0,2.64-.59,2.64-1.32s-1.18-1.32-2.64-1.32h-133.46c-1.46,0-2.64.59-2.64,1.32s1.18,1.32,2.64,1.32Z"/><path class="cls-4" d="m1248.05,623.27h-133.46c-6.07,0-10.64-4.01-10.64-9.32s4.57-9.32,10.64-9.32h133.46c6.07,0,10.64,4.01,10.64,9.32s-4.57,9.32-10.64,9.32Z"/></g><g><path class="cls-4" d="m1628.25,737.67h100.81c1.46,0,2.64-1.18,2.64-2.64s-1.18-2.64-2.64-2.64h-100.81c-1.46,0-2.65,1.18-2.65,2.64s1.19,2.64,2.65,2.64Z"/><path class="cls-4" d="m1729.06,745.67h-100.81c-5.87,0-10.65-4.77-10.65-10.64s4.78-10.64,10.65-10.64h100.81c5.87,0,10.64,4.77,10.64,10.64s-4.77,10.64-10.64,10.64Z"/></g><g><path class="cls-4" d="m1702.13,715.75h77.33c1.46,0,2.65-1.18,2.65-2.64s-1.19-2.64-2.65-2.64h-77.33c-1.46,0-2.65,1.18-2.65,2.64s1.19,2.64,2.65,2.64Z"/><path class="cls-4" d="m1779.46,723.75h-77.33c-5.87,0-10.65-4.77-10.65-10.64s4.78-10.64,10.65-10.64h77.33c5.87,0,10.65,4.77,10.65,10.64s-4.78,10.64-10.65,10.64Z"/></g><g><path class="cls-4" d="m1754.59,737.67h41.57c1.46,0,2.64-1.18,2.64-2.64s-1.18-2.64-2.64-2.64h-41.57c-1.46,0-2.65,1.18-2.65,2.64s1.19,2.64,2.65,2.64Z"/><path class="cls-4" d="m1796.16,745.67h-41.57c-5.87,0-10.65-4.77-10.65-10.64s4.78-10.64,10.65-10.64h41.57c5.87,0,10.64,4.77,10.64,10.64s-4.77,10.64-10.64,10.64Z"/></g><g><path class="cls-4" d="m222.58,617.76h100.81c1.46,0,2.64-1.18,2.64-2.64s-1.18-2.64-2.64-2.64h-100.81c-1.46,0-2.65,1.18-2.65,2.64s1.19,2.64,2.65,2.64Z"/><path class="cls-4" d="m323.39,625.76h-100.81c-5.87,0-10.65-4.77-10.65-10.64s4.78-10.64,10.65-10.64h100.81c5.87,0,10.64,4.77,10.64,10.64s-4.77,10.64-10.64,10.64Z"/></g><g><path class="cls-4" d="m296.46,595.84h77.33c1.46,0,2.65-1.18,2.65-2.64s-1.19-2.64-2.65-2.64h-77.33c-1.46,0-2.65,1.18-2.65,2.64s1.19,2.64,2.65,2.64Z"/><path class="cls-4" d="m373.79,603.84h-77.33c-5.87,0-10.65-4.77-10.65-10.64s4.78-10.64,10.65-10.64h77.33c5.87,0,10.65,4.77,10.65,10.64s-4.78,10.64-10.65,10.64Z"/></g><g><path class="cls-4" d="m348.92,617.76h41.57c1.46,0,2.64-1.18,2.64-2.64s-1.18-2.64-2.64-2.64h-41.57c-1.46,0-2.65,1.18-2.65,2.64s1.19,2.64,2.65,2.64Z"/><path class="cls-4" d="m390.49,625.76h-41.57c-5.87,0-10.65-4.77-10.65-10.64s4.78-10.64,10.65-10.64h41.57c5.87,0,10.64,4.77,10.64,10.64s-4.77,10.64-10.64,10.64Z"/></g><g><path class="cls-4" d="m633.44,740.31h41.57c1.46,0,2.64-1.18,2.64-2.64s-1.18-2.64-2.64-2.64h-41.57c-1.46,0-2.65,1.18-2.65,2.64s1.19,2.64,2.65,2.64Z"/><path class="cls-4" d="m675.01,748.31h-41.57c-5.87,0-10.65-4.77-10.65-10.64s4.78-10.64,10.65-10.64h41.57c5.87,0,10.64,4.77,10.64,10.64s-4.77,10.64-10.64,10.64Z"/></g><g><path class="cls-4" d="m2163.34,619.71h133.45c1.46,0,2.65-1.18,2.65-2.64s-1.19-2.64-2.65-2.64h-133.45c-1.46,0-2.65,1.18-2.65,2.64s1.19,2.64,2.65,2.64Z"/><path class="cls-4" d="m2296.79,627.71h-133.45c-5.87,0-10.65-4.77-10.65-10.64s4.78-10.64,10.65-10.64h133.45c5.87,0,10.65,4.77,10.65,10.64s-4.78,10.64-10.65,10.64Z"/></g><g><path class="cls-4" d="m2584.09,609.64h133.45c1.46,0,2.65-1.18,2.65-2.64s-1.19-2.64-2.65-2.64h-133.45c-1.46,0-2.65,1.18-2.65,2.64s1.19,2.64,2.65,2.64Z"/><path class="cls-4" d="m2717.54,617.64h-133.45c-5.87,0-10.65-4.77-10.65-10.64s4.78-10.64,10.65-10.64h133.45c5.87,0,10.65,4.77,10.65,10.64s-4.78,10.64-10.65,10.64Z"/></g><g><path class="cls-4" d="m902.73,643.89h376.33c1.46,0,2.64-1.18,2.64-2.64s-1.18-2.64-2.64-2.64h-376.33c-1.46,0-2.64,1.18-2.64,2.64s1.18,2.64,2.64,2.64Z"/><path class="cls-4" d="m1279.06,651.89h-376.33c-5.87,0-10.64-4.77-10.64-10.64s4.77-10.64,10.64-10.64h376.33c5.87,0,10.64,4.77,10.64,10.64s-4.77,10.64-10.64,10.64Z"/></g><g><path class="cls-4" d="m1299.04,643.89h71.5c1.46,0,2.64-1.18,2.64-2.64s-1.18-2.64-2.64-2.64h-71.5c-1.46,0-2.64,1.18-2.64,2.64s1.18,2.64,2.64,2.64Z"/><path class="cls-4" d="m1370.54,651.89h-71.5c-5.87,0-10.64-4.77-10.64-10.64s4.77-10.64,10.64-10.64h71.5c5.87,0,10.64,4.77,10.64,10.64s-4.77,10.64-10.64,10.64Z"/></g><g><path class="cls-4" d="m2060.83,642.84h211.86c1.46,0,2.64-1.18,2.64-2.64s-1.18-2.64-2.64-2.64h-211.86c-1.46,0-2.65,1.19-2.65,2.64s1.19,2.64,2.65,2.64h0Z"/><path class="cls-4" d="m2272.69,650.84h-211.86c-5.87,0-10.65-4.77-10.65-10.64s4.78-10.64,10.65-10.64h211.86c5.87,0,10.64,4.77,10.64,10.64s-4.77,10.64-10.64,10.64Z"/></g><g><path class="cls-4" d="m2305.92,642.84h132.17c1.46,0,2.65-1.18,2.65-2.64s-1.19-2.64-2.65-2.64h-132.17c-1.46,0-2.65,1.19-2.65,2.64s1.19,2.64,2.65,2.64Z"/><path class="cls-4" d="m2438.09,650.84h-132.17c-5.87,0-10.65-4.77-10.65-10.64s4.78-10.64,10.65-10.64h132.17c5.87,0,10.65,4.77,10.65,10.64s-4.78,10.64-10.65,10.64Z"/></g><g><path class="cls-4" d="m2011.87,642.84h30.49c1.46,0,2.64-1.18,2.64-2.64s-1.18-2.64-2.64-2.64h-30.49c-1.46,0-2.65,1.19-2.65,2.64s1.19,2.64,2.65,2.64Z"/><path class="cls-4" d="m2042.36,650.84h-30.49c-5.87,0-10.65-4.77-10.65-10.64s4.78-10.64,10.65-10.64h30.49c5.87,0,10.64,4.77,10.64,10.64s-4.77,10.64-10.64,10.64Z"/></g></g><g><rect class="cls-1" x="0" y="470.95" width="3011.69" height="98.82"/><rect class="cls-3" x="39.55" y="482.12" width="103.77" height="16.76"/><rect class="cls-3" x="187.12" y="482.12" width="103.77" height="16.76"/><rect class="cls-3" x="334.69" y="482.12" width="103.77" height="16.76"/><rect class="cls-3" x="482.26" y="482.12" width="103.77" height="16.76"/><rect class="cls-3" x="629.83" y="482.12" width="103.77" height="16.76"/><rect class="cls-3" x="777.4" y="482.12" width="103.77" height="16.76"/><rect class="cls-3" x="924.97" y="482.12" width="103.77" height="16.76"/><rect class="cls-3" x="1072.54" y="482.12" width="103.77" height="16.76"/><rect class="cls-3" x="1220.11" y="482.12" width="103.77" height="16.76"/><rect class="cls-3" x="1367.68" y="482.12" width="103.77" height="16.76"/><rect class="cls-3" x="1515.25" y="482.12" width="103.77" height="16.76"/><rect class="cls-3" x="1662.82" y="482.12" width="103.77" height="16.76"/><rect class="cls-3" x="1810.39" y="482.12" width="103.77" height="16.76"/><rect class="cls-3" x="1957.96" y="482.12" width="103.77" height="16.76"/><rect class="cls-3" x="2105.53" y="482.12" width="103.77" height="16.76"/><rect class="cls-3" x="2253.1" y="482.12" width="103.77" height="16.76"/><rect class="cls-3" x="2400.67" y="482.12" width="103.77" height="16.76"/><rect class="cls-3" x="2548.24" y="482.12" width="103.77" height="16.76"/><rect class="cls-3" x="2695.81" y="482.12" width="103.77" height="16.76"/><rect class="cls-3" x="2843.38" y="482.12" width="103.77" height="16.76"/></g><g><g><rect class="cls-1" x="162.13" y="346.15" width="16.94" height="204.34"/><polygon class="cls-5" points="194.7 375.46 146.5 375.46 140.91 335.34 200.3 335.34 194.7 375.46"/><path class="cls-1" d="m155.7,315.91h29.81c9.31,0,16.88,7.56,16.88,16.88v1.76c0,1.77-1.43,3.2-3.2,3.2h-57.16c-1.77,0-3.2-1.43-3.2-3.2v-1.76c0-9.31,7.56-16.88,16.88-16.88Z"/><path class="cls-1" d="m146.49,375.25c3.66,9.76,13.07,16.71,24.11,16.71s20.45-6.95,24.11-16.71h-48.22Z"/></g><g><rect class="cls-1" x="459.91" y="346.15" width="16.94" height="204.34"/><polygon class="cls-5" points="492.48 375.46 444.28 375.46 438.68 335.34 498.07 335.34 492.48 375.46"/><path class="cls-1" d="m453.47,315.91h29.81c9.31,0,16.88,7.56,16.88,16.88v1.76c0,1.77-1.43,3.2-3.2,3.2h-57.16c-1.77,0-3.2-1.43-3.2-3.2v-1.76c0-9.31,7.56-16.88,16.88-16.88Z"/><path class="cls-1" d="m444.27,375.25c3.66,9.76,13.07,16.71,24.11,16.71s20.45-6.95,24.11-16.71h-48.22Z"/></g><g><rect class="cls-1" x="757.68" y="346.15" width="16.94" height="204.34"/><polygon class="cls-5" points="790.25 375.46 742.05 375.46 736.46 335.34 795.85 335.34 790.25 375.46"/><path class="cls-1" d="m751.25,315.91h29.81c9.31,0,16.88,7.56,16.88,16.88v1.76c0,1.77-1.43,3.2-3.2,3.2h-57.16c-1.77,0-3.2-1.43-3.2-3.2v-1.76c0-9.31,7.56-16.88,16.88-16.88Z"/><path class="cls-1" d="m742.05,375.25c3.66,9.76,13.07,16.71,24.11,16.71s20.45-6.95,24.11-16.71h-48.22Z"/></g><g><rect class="cls-1" x="1055.46" y="346.15" width="16.94" height="204.34"/><polygon class="cls-5" points="1088.03 375.46 1039.83 375.46 1034.24 335.34 1093.62 335.34 1088.03 375.46"/><path class="cls-1" d="m1049.02,315.91h29.81c9.31,0,16.88,7.56,16.88,16.88v1.76c0,1.77-1.43,3.2-3.2,3.2h-57.16c-1.77,0-3.2-1.43-3.2-3.2v-1.76c0-9.31,7.56-16.88,16.88-16.88Z"/><path class="cls-1" d="m1039.82,375.25c3.66,9.76,13.07,16.71,24.11,16.71s20.45-6.95,24.11-16.71h-48.22Z"/></g><g><rect class="cls-1" x="1353.23" y="346.15" width="16.94" height="204.34"/><polygon class="cls-5" points="1385.8 375.46 1337.61 375.46 1332.01 335.34 1391.4 335.34 1385.8 375.46"/><path class="cls-1" d="m1346.8,315.91h29.81c9.31,0,16.88,7.56,16.88,16.88v1.76c0,1.77-1.43,3.2-3.2,3.2h-57.16c-1.77,0-3.2-1.43-3.2-3.2v-1.76c0-9.31,7.56-16.88,16.88-16.88Z"/><path class="cls-1" d="m1337.6,375.25c3.66,9.76,13.07,16.71,24.11,16.71s20.45-6.95,24.11-16.71h-48.22Z"/></g><g><rect class="cls-1" x="1651.01" y="346.15" width="16.94" height="204.34"/><polygon class="cls-5" points="1683.58 375.46 1635.38 375.46 1629.79 335.34 1689.17 335.34 1683.58 375.46"/><path class="cls-1" d="m1644.57,315.91h29.81c9.31,0,16.88,7.56,16.88,16.88v1.76c0,1.77-1.43,3.2-3.2,3.2h-57.16c-1.77,0-3.2-1.43-3.2-3.2v-1.76c0-9.31,7.56-16.88,16.88-16.88Z"/><path class="cls-1" d="m1635.37,375.25c3.66,9.76,13.07,16.71,24.11,16.71s20.45-6.95,24.11-16.71h-48.22Z"/></g><g><rect class="cls-1" x="1948.79" y="346.15" width="16.94" height="204.34"/><polygon class="cls-5" points="1981.36 375.46 1933.16 375.46 1927.56 335.34 1986.95 335.34 1981.36 375.46"/><path class="cls-1" d="m1942.35,315.91h29.81c9.31,0,16.88,7.56,16.88,16.88v1.76c0,1.77-1.43,3.2-3.2,3.2h-57.16c-1.77,0-3.2-1.43-3.2-3.2v-1.76c0-9.31,7.56-16.88,16.88-16.88Z"/><path class="cls-1" d="m1933.15,375.25c3.66,9.76,13.07,16.71,24.11,16.71s20.45-6.95,24.11-16.71h-48.22Z"/></g><g><rect class="cls-1" x="2246.56" y="346.15" width="16.94" height="204.34"/><polygon class="cls-5" points="2279.13 375.46 2230.93 375.46 2225.34 335.34 2284.73 335.34 2279.13 375.46"/><path class="cls-1" d="m2240.13,315.91h29.81c9.31,0,16.88,7.56,16.88,16.88v1.76c0,1.77-1.43,3.2-3.2,3.2h-57.16c-1.77,0-3.2-1.43-3.2-3.2v-1.76c0-9.31,7.56-16.88,16.88-16.88Z"/><path class="cls-1" d="m2230.92,375.25c3.66,9.76,13.07,16.71,24.11,16.71s20.45-6.95,24.11-16.71h-48.22Z"/></g><g><rect class="cls-1" x="2544.34" y="346.15" width="16.94" height="204.34"/><polygon class="cls-5" points="2576.91 375.46 2528.71 375.46 2523.11 335.34 2582.5 335.34 2576.91 375.46"/><path class="cls-1" d="m2537.9,315.91h29.81c9.31,0,16.88,7.56,16.88,16.88v1.76c0,1.77-1.43,3.2-3.2,3.2h-57.16c-1.77,0-3.2-1.43-3.2-3.2v-1.76c0-9.31,7.56-16.88,16.88-16.88Z"/><path class="cls-1" d="m2528.7,375.25c3.66,9.76,13.07,16.71,24.11,16.71s20.45-6.95,24.11-16.71h-48.22Z"/></g><g><rect class="cls-1" x="2842.11" y="346.15" width="16.94" height="204.34"/><polygon class="cls-5" points="2874.68 375.46 2826.49 375.46 2820.89 335.34 2880.28 335.34 2874.68 375.46"/><path class="cls-1" d="m2835.68,315.91h29.81c9.31,0,16.88,7.56,16.88,16.88v1.76c0,1.77-1.43,3.2-3.2,3.2h-57.16c-1.77,0-3.2-1.43-3.2-3.2v-1.76c0-9.31,7.56-16.88,16.88-16.88Z"/><path class="cls-1" d="m2826.48,375.25c3.66,9.76,13.07,16.71,24.11,16.71s20.45-6.95,24.11-16.71h-48.22Z"/></g></g><g><rect class="cls-9" x="3810.94" y="448.6" width="142.3" height="51.11" rx="25.56" ry="25.56"/><rect class="cls-9" x="3775.01" y="492.8" width="214.16" height="17.5" rx="8.75" ry="8.75"/><g><g><path class="cls-9" d="m3763.84,115.23h28.79v15.13h-28.79c-1.97,0-3.57-1.6-3.57-3.57v-7.98c0-1.97,1.6-3.57,3.57-3.57Z"/><path class="cls-9" d="m3763.84,357.13h28.79v15.13h-28.79c-1.97,0-3.57-1.6-3.57-3.57v-7.98c0-1.97,1.6-3.57,3.57-3.57Z"/></g><path class="cls-9" d="m3967.94,98.85h-144.7c-8.06,0-14.59,6.59-14.59,14.72v327.12c0,8.13,6.53,14.72,14.59,14.72h144.7c8.06,0,14.59-6.59,14.59-14.72V113.57c0-8.13-6.53-14.72-14.59-14.72Z"/><path class="cls-9" d="m3943.23,98.85h-144.7c-8.06,0-14.59,6.59-14.59,14.72v327.12c0,8.13,6.53,14.72,14.59,14.72h144.7c8.06,0,14.59-6.59,14.59-14.72V113.57c0-8.13-6.53-14.72-14.59-14.72Z"/><rect class="cls-12" x="3799.08" y="118.5" width="143.59" height="317.26"/></g><g><path d="m3835.17,168.76l8.01-32.71h6.89v47.75h-6.6v-26.8l-5.89,26.8h-4.67l-6.06-26.8v26.8h-6.67v-47.75h6.89l8.11,32.71Z"/><path d="m3875.69,174.53c0,6.69-3.3,10.04-9.91,10.05-6.59,0-9.88-3.35-9.88-10.05v-29.21c0-6.68,3.29-10.03,9.88-10.03s9.91,3.34,9.91,10.03v29.21Zm-6.89-29.21c0-2.14-1-3.22-2.99-3.24h-.05c-1.98,0-2.97,1.08-2.97,3.24v29.21c0,2.16,1,3.24,2.99,3.24s3.02-1.08,3.02-3.24v-29.21Z"/><path d="m3900.83,174.53c0,6.69-3.3,10.04-9.91,10.05-6.59,0-9.88-3.35-9.88-10.05v-29.21c0-6.68,3.29-10.03,9.88-10.03s9.91,3.34,9.91,10.03v29.21Zm-6.89-29.21c0-2.14-1-3.22-2.99-3.24h-.05c-1.98,0-2.97,1.08-2.97,3.24v29.21c0,2.16,1,3.24,2.99,3.24s3.02-1.08,3.02-3.24v-29.21Z"/><path d="m3921.03,183.8h-9.44l-4.87-30.86-2.24-16.89h6.96l4.84,36.8,4.87-36.8h6.96l-2.24,16.94-4.84,30.81Z"/><path d="m3835.17,228.57l8.01-32.71h6.89v47.75h-6.6v-26.8l-5.89,26.8h-4.67l-6.06-26.8v26.8h-6.67v-47.75h6.89l8.11,32.71Z"/><path d="m3875.69,234.34c0,6.69-3.3,10.04-9.91,10.05-6.59,0-9.88-3.35-9.88-10.05v-29.21c0-6.68,3.29-10.03,9.88-10.03s9.91,3.34,9.91,10.03v29.21Zm-6.89-29.21c0-2.14-1-3.22-2.99-3.24h-.05c-1.98,0-2.97,1.08-2.97,3.24v29.21c0,2.16,1,3.24,2.99,3.24s3.02-1.08,3.02-3.24v-29.21Z"/><path d="m3900.83,234.34c0,6.69-3.3,10.04-9.91,10.05-6.59,0-9.88-3.35-9.88-10.05v-29.21c0-6.68,3.29-10.03,9.88-10.03s9.91,3.34,9.91,10.03v29.21Zm-6.89-29.21c0-2.14-1-3.22-2.99-3.24h-.05c-1.98,0-2.97,1.08-2.97,3.24v29.21c0,2.16,1,3.24,2.99,3.24s3.02-1.08,3.02-3.24v-29.21Z"/><path d="m3921.03,243.61h-9.44l-4.87-30.86-2.24-16.89h6.96l4.84,36.8,4.87-36.8h6.96l-2.24,16.94-4.84,30.81Z"/><path d="m3835.17,288.39l8.01-32.71h6.89v47.75h-6.6v-26.8l-5.89,26.8h-4.67l-6.06-26.8v26.8h-6.67v-47.75h6.89l8.11,32.71Z"/><path d="m3875.69,294.15c0,6.69-3.3,10.04-9.91,10.05-6.59,0-9.88-3.35-9.88-10.05v-29.21c0-6.68,3.29-10.03,9.88-10.03s9.91,3.34,9.91,10.03v29.21Zm-6.89-29.21c0-2.14-1-3.22-2.99-3.24h-.05c-1.98,0-2.97,1.08-2.97,3.24v29.21c0,2.16,1,3.24,2.99,3.24s3.02-1.08,3.02-3.24v-29.21Z"/><path d="m3900.83,294.15c0,6.69-3.3,10.04-9.91,10.05-6.59,0-9.88-3.35-9.88-10.05v-29.21c0-6.68,3.29-10.03,9.88-10.03s9.91,3.34,9.91,10.03v29.21Zm-6.89-29.21c0-2.14-1-3.22-2.99-3.24h-.05c-1.98,0-2.97,1.08-2.97,3.24v29.21c0,2.16,1,3.24,2.99,3.24s3.02-1.08,3.02-3.24v-29.21Z"/><path d="m3921.03,303.43h-9.44l-4.87-30.86-2.24-16.89h6.96l4.84,36.8,4.87-36.8h6.96l-2.24,16.94-4.84,30.81Z"/><path d="m3835.17,348.2l8.01-32.71h6.89v47.75h-6.6v-26.8l-5.89,26.8h-4.67l-6.06-26.8v26.8h-6.67v-47.75h6.89l8.11,32.71Z"/><path d="m3875.69,353.97c0,6.69-3.3,10.04-9.91,10.05-6.59,0-9.88-3.35-9.88-10.05v-29.21c0-6.68,3.29-10.03,9.88-10.03s9.91,3.34,9.91,10.03v29.21Zm-6.89-29.21c0-2.14-1-3.22-2.99-3.24h-.05c-1.98,0-2.97,1.08-2.97,3.24v29.21c0,2.16,1,3.24,2.99,3.24s3.02-1.08,3.02-3.24v-29.21Z"/><path d="m3900.83,353.97c0,6.69-3.3,10.04-9.91,10.05-6.59,0-9.88-3.35-9.88-10.05v-29.21c0-6.68,3.29-10.03,9.88-10.03s9.91,3.34,9.91,10.03v29.21Zm-6.89-29.21c0-2.14-1-3.22-2.99-3.24h-.05c-1.98,0-2.97,1.08-2.97,3.24v29.21c0,2.16,1,3.24,2.99,3.24s3.02-1.08,3.02-3.24v-29.21Z"/><path d="m3921.03,363.24h-9.44l-4.87-30.86-2.24-16.89h6.96l4.84,36.8,4.87-36.8h6.96l-2.24,16.94-4.84,30.81Z"/><path d="m3835.17,408.02l8.01-32.71h6.89v47.75h-6.6v-26.8l-5.89,26.8h-4.67l-6.06-26.8v26.8h-6.67v-47.75h6.89l8.11,32.71Z"/><path d="m3875.69,413.78c0,6.69-3.3,10.04-9.91,10.05-6.59,0-9.88-3.35-9.88-10.05v-29.21c0-6.68,3.29-10.03,9.88-10.03s9.91,3.34,9.91,10.03v29.21Zm-6.89-29.21c0-2.14-1-3.22-2.99-3.24h-.05c-1.98,0-2.97,1.08-2.97,3.24v29.21c0,2.16,1,3.24,2.99,3.24s3.02-1.08,3.02-3.24v-29.21Z"/><path d="m3900.83,413.78c0,6.69-3.3,10.04-9.91,10.05-6.59,0-9.88-3.35-9.88-10.05v-29.21c0-6.68,3.29-10.03,9.88-10.03s9.91,3.34,9.91,10.03v29.21Zm-6.89-29.21c0-2.14-1-3.22-2.99-3.24h-.05c-1.98,0-2.97,1.08-2.97,3.24v29.21c0,2.16,1,3.24,2.99,3.24s3.02-1.08,3.02-3.24v-29.21Z"/><path d="m3921.03,423.06h-9.44l-4.87-30.86-2.24-16.89h6.96l4.84,36.8,4.87-36.8h6.96l-2.24,16.94-4.84,30.81Z"/></g></g></g></g></svg>