<?xml version="1.0" encoding="UTF-8"?><svg xmlns="http://www.w3.org/2000/svg" xmlns:xlink="http://www.w3.org/1999/xlink" viewBox="0 0 3018.31 1361.26"><defs><style>.cls-1{fill:none;}.cls-2{clip-path:url(#clippath);}.cls-3{fill:#fcfdfa;}.cls-4{fill:#fff;}.cls-5{fill:#ffd686;}.cls-6{fill:#7e5142;}.cls-7{fill:#98d1e4;}.cls-8{fill:#9ed5e9;}.cls-9{fill:#84a2d4;}.cls-10{fill:#84bed6;}.cls-11{fill:#8fcff1;}.cls-12{fill:#bb855f;}.cls-13{fill:#105661;}.cls-14{fill:#252a40;}.cls-15{fill:#221f1f;}.cls-16{fill:#436b8d;}.cls-17{fill:#6ccbd8;}.cls-18{fill:#537ea1;}.cls-19{fill:#6ca1c2;}.cls-20{fill:#283e51;}.cls-21{fill:#2d83aa;}.cls-22{fill:#56aecc;}.cls-23{fill:#5695c0;}.cls-24{fill:#5f362a;}.cls-25{fill:#5d92ae;mix-blend-mode:multiply;}.cls-26{isolation:isolate;}</style><clipPath id="clippath"><path class="cls-1" d="m2260.79,1042.23c-2.9-228.05-188.67-412.01-417.4-412.01s-414.5,183.97-417.4,412.01h834.8Z"/></clipPath></defs><g class="cls-26"><g id="Layer_2"><g id="_ÎÓÈ_1"><g><g><rect class="cls-22" x="2504.91" y="679" width="149.61" height="519.23" rx="74.81" ry="74.81"/><rect class="cls-22" x="2626.17" y="651.56" width="149.61" height="519.23" rx="74.81" ry="74.81"/><rect class="cls-22" x="2747.44" y="539.05" width="149.61" height="519.23" rx="74.81" ry="74.81"/><rect class="cls-22" x="2868.7" y="457.26" width="149.61" height="519.23" rx="74.81" ry="74.81"/></g><g><rect class="cls-13" x="2169.67" y="827.07" width="149.61" height="270.17" rx="74.81" ry="74.81"/><rect class="cls-21" x="2045.52" y="854.98" width="149.61" height="270.17" rx="74.81" ry="74.81"/><rect class="cls-21" x="2290.93" y="904.29" width="149.61" height="270.17" rx="74.81" ry="74.81"/></g><g><rect class="cls-23" x="2572.06" y="885.67" width="149.61" height="270.17" rx="74.81" ry="74.81"/><rect class="cls-23" x="2694.68" y="842.12" width="149.61" height="270.17" rx="74.81" ry="74.81"/><rect class="cls-23" x="2815.94" y="894.32" width="149.61" height="270.17" rx="74.81" ry="74.81"/></g><g><rect class="cls-21" x="4.06" y="665.29" width="149.61" height="429.96" rx="74.81" ry="74.81"/><rect class="cls-21" x="126.69" y="637.15" width="149.61" height="429.96" rx="74.81" ry="74.81"/><rect class="cls-21" x="249.31" y="665.29" width="149.61" height="429.96" rx="74.81" ry="74.81"/><rect class="cls-21" x="371.93" y="715.57" width="149.61" height="429.96" rx="74.81" ry="74.81"/></g><path class="cls-8" d="m3018.31,1035.57H0v325.69h3018.31v-325.69Z"/><g><rect class="cls-16" x="472.21" y="415.55" width="186.9" height="522.98"/><rect class="cls-18" x="186.74" y="415.55" width="148.23" height="522.98"/><rect class="cls-6" x="309.04" y="415.55" width="190.19" height="522.98"/><g><rect class="cls-10" x="215.22" y="402.31" width="461.41" height="26.48"/><rect class="cls-10" x="215.22" y="455.27" width="461.41" height="26.48"/><rect class="cls-10" x="215.22" y="508.23" width="461.41" height="26.48"/><rect class="cls-10" x="215.22" y="561.19" width="461.41" height="26.48"/><rect class="cls-10" x="215.22" y="614.15" width="461.41" height="26.48"/><rect class="cls-10" x="215.22" y="667.11" width="461.41" height="26.48"/><rect class="cls-10" x="215.22" y="720.07" width="461.41" height="26.48"/><rect class="cls-10" x="215.22" y="773.03" width="461.41" height="26.48"/><rect class="cls-10" x="215.22" y="825.99" width="461.41" height="26.48"/><rect class="cls-10" x="215.22" y="878.95" width="461.41" height="26.48"/><rect class="cls-10" x="215.22" y="931.91" width="461.41" height="107.17"/></g><g><rect class="cls-7" x="168.77" y="402.31" width="50.43" height="26.48"/><rect class="cls-7" x="168.77" y="455.27" width="50.43" height="26.48"/><rect class="cls-7" x="168.77" y="508.23" width="50.43" height="26.48"/><rect class="cls-7" x="168.77" y="561.19" width="50.43" height="26.48"/><rect class="cls-7" x="168.77" y="614.15" width="50.43" height="26.48"/><rect class="cls-7" x="168.77" y="667.11" width="50.43" height="26.48"/><rect class="cls-7" x="168.77" y="720.07" width="50.43" height="26.48"/><rect class="cls-7" x="168.77" y="773.03" width="50.43" height="26.48"/><rect class="cls-7" x="168.77" y="825.99" width="50.43" height="26.48"/><rect class="cls-7" x="168.77" y="878.95" width="50.43" height="26.48"/><rect class="cls-7" x="168.77" y="931.91" width="50.43" height="107.17"/></g><path class="cls-5" d="m296.99,799.51h186.9v-26.48h-186.9v26.48Zm0-105.92h186.9v-26.48h-186.9v26.48Zm0,52.96h186.9v-26.48h-186.9v26.48Zm0,292.53h186.9v-107.17h-186.9v107.17Zm0-133.65h186.9v-26.48h-186.9v26.48Zm0-52.96h186.9v-26.48h-186.9v26.48Zm0-370.72h186.9v-26.48h-186.9v26.48Zm0,158.88h186.9v-26.48h-186.9v26.48Zm0-238.32v26.48h186.9v-26.48h-186.9Zm0,185.36h186.9v-26.48h-186.9v26.48Zm0-52.96h186.9v-26.48h-186.9v26.48Z"/><path class="cls-19" d="m527.7,640.63h148.94v-26.48h-148.94v26.48Zm0,52.96h148.94v-26.48h-148.94v26.48Zm0-158.88h148.94v-26.48h-148.94v26.48Zm0-52.96h148.94v-26.48h-148.94v26.48Zm0,264.8h148.94v-26.48h-148.94v26.48Zm0-158.88h148.94v-26.48h-148.94v26.48Zm0-185.36v26.48h148.94v-26.48h-148.94Zm0,636.77h148.94v-107.17h-148.94v107.17Zm0-239.57h148.94v-26.48h-148.94v26.48Zm0,105.92h148.94v-26.48h-148.94v26.48Zm0-52.96h148.94v-26.48h-148.94v26.48Z"/><rect class="cls-24" x="315.78" y="983.4" width="149.33" height="55.68"/><path class="cls-12" d="m338.41,1039.08h11.63v-55.68h-11.63v55.68Zm31.33,0h11.63v-55.68h-11.63v55.68Zm31.33,0h11.63v-55.68h-11.63v55.68Zm31.33-55.68v55.68h11.63v-55.68h-11.63Z"/><rect class="cls-25" x="497.11" y="969.36" width="163.13" height="35.12"/><rect class="cls-25" x="176.31" y="969.36" width="112.4" height="35.12"/></g><g><rect class="cls-21" x="461.93" y="587.08" width="334.71" height="454.95"/><rect class="cls-22" x="378.25" y="587.08" width="334.71" height="454.95"/><rect class="cls-11" x="407.41" y="623.79" width="27.89" height="41.74"/><rect class="cls-11" x="454.96" y="623.79" width="27.89" height="41.74"/><rect class="cls-11" x="502.5" y="623.79" width="27.89" height="41.74"/><rect class="cls-11" x="550.05" y="623.79" width="27.89" height="41.74"/><rect class="cls-11" x="597.59" y="623.79" width="27.89" height="41.74"/><rect class="cls-11" x="645.13" y="623.79" width="27.89" height="41.74"/><rect class="cls-11" x="407.41" y="682.22" width="27.89" height="41.74"/><rect class="cls-11" x="454.96" y="682.22" width="27.89" height="41.74"/><rect class="cls-11" x="502.5" y="682.22" width="27.89" height="41.74"/><rect class="cls-11" x="407.41" y="744.51" width="27.89" height="41.74"/><rect class="cls-11" x="454.96" y="744.51" width="27.89" height="41.74"/><rect class="cls-11" x="502.5" y="744.51" width="27.89" height="41.74"/><rect class="cls-11" x="407.41" y="806.8" width="27.89" height="41.74"/><rect class="cls-11" x="454.96" y="806.8" width="27.89" height="41.74"/><rect class="cls-11" x="502.5" y="806.8" width="27.89" height="41.74"/><rect class="cls-11" x="550.05" y="682.22" width="27.89" height="41.74"/><rect class="cls-11" x="597.59" y="682.22" width="27.89" height="41.74"/><rect class="cls-11" x="645.13" y="682.22" width="27.89" height="41.74"/></g><g><rect class="cls-21" x="795.89" y="677.94" width="92.75" height="373.8"/><rect class="cls-9" x="888.63" y="677.94" width="155.41" height="373.8"/><g><rect class="cls-11" x="817.83" y="710.63" width="18.77" height="34.29"/><rect class="cls-11" x="847.91" y="710.63" width="18.77" height="34.29"/><rect class="cls-11" x="817.83" y="759.12" width="18.77" height="34.29"/><rect class="cls-11" x="847.91" y="759.12" width="18.77" height="34.29"/><rect class="cls-11" x="817.83" y="807.6" width="18.77" height="34.29"/><rect class="cls-11" x="847.91" y="807.6" width="18.77" height="34.29"/><rect class="cls-11" x="817.83" y="856.09" width="18.77" height="34.29"/><rect class="cls-11" x="847.91" y="856.09" width="18.77" height="34.29"/><rect class="cls-11" x="817.83" y="904.58" width="18.77" height="34.29"/><rect class="cls-11" x="847.91" y="904.58" width="18.77" height="34.29"/><rect class="cls-11" x="817.83" y="953.07" width="18.77" height="34.29"/><rect class="cls-11" x="847.91" y="953.07" width="18.77" height="34.29"/><rect class="cls-11" x="817.83" y="1001.55" width="18.77" height="34.29"/><rect class="cls-11" x="847.91" y="1001.55" width="18.77" height="34.29"/></g><g><rect class="cls-21" x="912.89" y="710.63" width="18.77" height="34.29"/><rect class="cls-21" x="942.98" y="710.63" width="18.77" height="34.29"/><rect class="cls-21" x="912.89" y="759.12" width="18.77" height="34.29"/><rect class="cls-21" x="942.98" y="759.12" width="18.77" height="34.29"/><rect class="cls-21" x="912.89" y="807.6" width="18.77" height="34.29"/><rect class="cls-21" x="942.98" y="807.6" width="18.77" height="34.29"/><rect class="cls-21" x="912.89" y="856.09" width="18.77" height="34.29"/><rect class="cls-21" x="942.98" y="856.09" width="18.77" height="34.29"/><rect class="cls-21" x="912.89" y="904.58" width="18.77" height="34.29"/><rect class="cls-21" x="942.98" y="904.58" width="18.77" height="34.29"/><rect class="cls-21" x="912.89" y="953.07" width="18.77" height="34.29"/><rect class="cls-21" x="942.98" y="953.07" width="18.77" height="34.29"/><rect class="cls-21" x="912.89" y="1001.55" width="18.77" height="34.29"/><rect class="cls-21" x="942.98" y="1001.55" width="18.77" height="34.29"/></g><g><rect class="cls-21" x="973.82" y="710.63" width="18.77" height="34.29"/><rect class="cls-21" x="1003.91" y="710.63" width="18.77" height="34.29"/><rect class="cls-21" x="973.82" y="759.12" width="18.77" height="34.29"/><rect class="cls-21" x="1003.91" y="759.12" width="18.77" height="34.29"/><rect class="cls-21" x="973.82" y="807.6" width="18.77" height="34.29"/><rect class="cls-21" x="1003.91" y="807.6" width="18.77" height="34.29"/><rect class="cls-21" x="973.82" y="856.09" width="18.77" height="34.29"/><rect class="cls-21" x="1003.91" y="856.09" width="18.77" height="34.29"/><rect class="cls-21" x="973.82" y="904.58" width="18.77" height="34.29"/><rect class="cls-21" x="1003.91" y="904.58" width="18.77" height="34.29"/><rect class="cls-21" x="973.82" y="953.07" width="18.77" height="34.29"/><rect class="cls-21" x="1003.91" y="953.07" width="18.77" height="34.29"/><rect class="cls-21" x="973.82" y="1001.55" width="18.77" height="34.29"/><rect class="cls-21" x="1003.91" y="1001.55" width="18.77" height="34.29"/></g></g><g><rect class="cls-4" x="1045.87" y="605.01" width="160.38" height="437.02"/><rect class="cls-21" x="1205.11" y="605.01" width="211.59" height="437.02"/><g><rect class="cls-11" x="1094.03" y="624.64" width="58.66" height="22.26"/><rect class="cls-11" x="1094.03" y="662.55" width="58.66" height="22.26"/><rect class="cls-11" x="1094.03" y="700.46" width="58.66" height="22.26"/><rect class="cls-11" x="1094.03" y="738.37" width="58.66" height="22.26"/><rect class="cls-11" x="1094.03" y="776.28" width="58.66" height="22.26"/><rect class="cls-11" x="1094.03" y="814.19" width="58.66" height="22.26"/><rect class="cls-11" x="1094.03" y="852.1" width="58.66" height="22.26"/><rect class="cls-11" x="1094.03" y="890.01" width="58.66" height="22.26"/><rect class="cls-11" x="1094.03" y="927.92" width="58.66" height="22.26"/><rect class="cls-11" x="1094.03" y="965.83" width="58.66" height="22.26"/><rect class="cls-11" x="1094.03" y="1003.73" width="58.66" height="22.26"/></g><g><rect class="cls-5" x="1251.09" y="624.64" width="118.68" height="22.26"/><rect class="cls-5" x="1251.09" y="662.55" width="118.68" height="22.26"/><rect class="cls-5" x="1251.09" y="700.46" width="118.68" height="22.26"/><rect class="cls-5" x="1251.09" y="738.37" width="118.68" height="22.26"/><rect class="cls-5" x="1251.09" y="776.28" width="118.68" height="22.26"/><rect class="cls-5" x="1251.09" y="814.19" width="118.68" height="22.26"/><rect class="cls-5" x="1251.09" y="852.1" width="118.68" height="22.26"/><rect class="cls-5" x="1251.09" y="890.01" width="118.68" height="22.26"/><rect class="cls-5" x="1251.09" y="927.92" width="118.68" height="22.26"/><rect class="cls-5" x="1251.09" y="965.83" width="118.68" height="22.26"/><rect class="cls-5" x="1251.09" y="1003.73" width="118.68" height="22.26"/></g></g><g class="cls-2"><g><g><g><polygon class="cls-21" points="989.14 801.42 893.71 881.73 989.14 962.04 1084.56 881.73 989.14 801.42"/><path class="cls-11" d="m989.14,965.24l-99.22-83.51,99.22-83.51,99.22,83.51-99.22,83.51Zm-91.63-83.51l91.63,77.12,91.62-77.12-91.62-77.12-91.63,77.12Z"/></g><g><polygon class="cls-21" points="989.14 962.04 893.71 1042.36 989.14 1122.67 1084.56 1042.36 989.14 962.04"/><path class="cls-11" d="m989.14,1125.87l-99.22-83.51,99.22-83.51,99.22,83.51-99.22,83.51Zm-91.63-83.51l91.63,77.12,91.62-77.12-91.62-77.12-91.63,77.12Z"/></g><g><polygon class="cls-21" points="989.14 640.85 893.71 721.17 989.14 801.48 1084.56 721.17 989.14 640.85"/><path class="cls-11" d="m989.14,804.68l-99.22-83.51,99.22-83.51,99.22,83.51-99.22,83.51Zm-91.63-83.51l91.63,77.12,91.62-77.12-91.62-77.12-91.63,77.12Z"/></g><g><polygon class="cls-21" points="989.14 480.24 893.71 560.56 989.14 640.87 1084.56 560.56 989.14 480.24"/><path class="cls-11" d="m989.14,644.07l-99.22-83.51,99.22-83.51,99.22,83.51-99.22,83.51Zm-91.63-83.51l91.63,77.12,91.62-77.12-91.62-77.12-91.63,77.12Z"/></g><g><polygon class="cls-21" points="989.14 319.58 893.71 399.89 989.14 480.2 1084.56 399.89 989.14 319.58"/><path class="cls-11" d="m989.14,483.4l-99.22-83.51,99.22-83.51,99.22,83.51-99.22,83.51Zm-91.63-83.51l91.63,77.12,91.62-77.12-91.62-77.12-91.63,77.12Z"/></g><g><polygon class="cls-21" points="989.14 158.97 893.71 239.28 989.14 319.59 1084.56 239.28 989.14 158.97"/><path class="cls-11" d="m989.14,322.79l-99.22-83.51,99.22-83.51,99.22,83.51-99.22,83.51Zm-91.63-83.51l91.63,77.12,91.62-77.12-91.62-77.12-91.63,77.12Z"/></g></g><g><g><polygon class="cls-21" points="1179.46 801.42 1084.03 881.73 1179.46 962.04 1274.88 881.73 1179.46 801.42"/><path class="cls-11" d="m1179.46,965.24l-99.22-83.51,99.22-83.51,99.22,83.51-99.22,83.51Zm-91.63-83.51l91.63,77.12,91.62-77.12-91.62-77.12-91.63,77.12Z"/></g><g><polygon class="cls-17" points="1179.46 962.04 1084.03 1042.36 1179.46 1122.67 1274.88 1042.36 1179.46 962.04"/><path class="cls-11" d="m1179.46,1125.87l-99.22-83.51,99.22-83.51,99.22,83.51-99.22,83.51Zm-91.63-83.51l91.63,77.12,91.62-77.12-91.62-77.12-91.63,77.12Z"/></g><g><polygon class="cls-21" points="1179.46 640.85 1084.03 721.17 1179.46 801.48 1274.88 721.17 1179.46 640.85"/><path class="cls-11" d="m1179.46,804.68l-99.22-83.51,99.22-83.51,99.22,83.51-99.22,83.51Zm-91.63-83.51l91.63,77.12,91.62-77.12-91.62-77.12-91.63,77.12Z"/></g><g><polygon class="cls-21" points="1179.46 480.24 1084.03 560.56 1179.46 640.87 1274.88 560.56 1179.46 480.24"/><path class="cls-11" d="m1179.46,644.07l-99.22-83.51,99.22-83.51,99.22,83.51-99.22,83.51Zm-91.63-83.51l91.63,77.12,91.62-77.12-91.62-77.12-91.63,77.12Z"/></g><g><polygon class="cls-17" points="1179.46 319.58 1084.03 399.89 1179.46 480.2 1274.88 399.89 1179.46 319.58"/><path class="cls-11" d="m1179.46,483.4l-99.22-83.51,99.22-83.51,99.22,83.51-99.22,83.51Zm-91.63-83.51l91.63,77.12,91.62-77.12-91.62-77.12-91.63,77.12Z"/></g><g><polygon class="cls-21" points="1179.46 158.97 1084.03 239.28 1179.46 319.59 1274.88 239.28 1179.46 158.97"/><path class="cls-11" d="m1179.46,322.79l-99.22-83.51,99.22-83.51,99.22,83.51-99.22,83.51Zm-91.63-83.51l91.63,77.12,91.62-77.12-91.62-77.12-91.63,77.12Z"/></g></g><g><g><polygon class="cls-21" points="1084.03 881.73 988.61 962.04 1084.03 1042.36 1179.46 962.04 1084.03 881.73"/><path class="cls-11" d="m1084.03,1045.55l-99.22-83.51,99.22-83.51,99.22,83.51-99.22,83.51Zm-91.62-83.51l91.62,77.12,91.62-77.12-91.62-77.12-91.62,77.12Z"/></g><g><polygon class="cls-21" points="1084.03 1042.36 988.61 1122.67 1084.03 1202.99 1179.46 1122.67 1084.03 1042.36"/><path class="cls-11" d="m1084.03,1206.18l-99.22-83.51,99.22-83.51,99.22,83.51-99.22,83.51Zm-91.62-83.51l91.62,77.12,91.62-77.12-91.62-77.12-91.62,77.12Z"/></g><g><polygon class="cls-21" points="1084.03 721.17 988.61 801.48 1084.03 881.8 1179.46 801.48 1084.03 721.17"/><path class="cls-11" d="m1084.03,884.99l-99.22-83.51,99.22-83.51,99.22,83.51-99.22,83.51Zm-91.62-83.51l91.62,77.12,91.62-77.12-91.62-77.12-91.62,77.12Z"/></g><g><polygon class="cls-21" points="1084.03 560.56 988.61 640.87 1084.03 721.18 1179.46 640.87 1084.03 560.56"/><path class="cls-11" d="m1084.03,724.38l-99.22-83.51,99.22-83.51,99.22,83.51-99.22,83.51Zm-91.62-83.51l91.62,77.12,91.62-77.12-91.62-77.12-91.62,77.12Z"/></g><g><polygon class="cls-21" points="1084.03 399.89 988.61 480.2 1084.03 560.52 1179.46 480.2 1084.03 399.89"/><path class="cls-11" d="m1084.03,563.71l-99.22-83.51,99.22-83.51,99.22,83.51-99.22,83.51Zm-91.62-83.51l91.62,77.12,91.62-77.12-91.62-77.12-91.62,77.12Z"/></g><g><polygon class="cls-21" points="1084.03 239.28 988.61 319.59 1084.03 399.91 1179.46 319.59 1084.03 239.28"/><path class="cls-11" d="m1084.03,403.1l-99.22-83.51,99.22-83.51,99.22,83.51-99.22,83.51Zm-91.62-83.51l91.62,77.12,91.62-77.12-91.62-77.12-91.62,77.12Z"/></g></g><g><g><polygon class="cls-22" points="1369.78 801.42 1274.35 881.73 1369.78 962.04 1465.2 881.73 1369.78 801.42"/><path class="cls-11" d="m1369.78,965.24l-99.22-83.51,99.22-83.51,99.22,83.51-99.22,83.51Zm-91.62-83.51l91.62,77.12,91.62-77.12-91.62-77.12-91.62,77.12Z"/></g><g><polygon class="cls-21" points="1369.78 962.04 1274.35 1042.36 1369.78 1122.67 1465.2 1042.36 1369.78 962.04"/><path class="cls-11" d="m1369.78,1125.87l-99.22-83.51,99.22-83.51,99.22,83.51-99.22,83.51Zm-91.62-83.51l91.62,77.12,91.62-77.12-91.62-77.12-91.62,77.12Z"/></g><g><polygon class="cls-21" points="1369.78 640.85 1274.35 721.17 1369.78 801.48 1465.2 721.17 1369.78 640.85"/><path class="cls-11" d="m1369.78,804.68l-99.22-83.51,99.22-83.51,99.22,83.51-99.22,83.51Zm-91.62-83.51l91.62,77.12,91.62-77.12-91.62-77.12-91.62,77.12Z"/></g><g><polygon class="cls-21" points="1369.78 480.24 1274.35 560.56 1369.78 640.87 1465.2 560.56 1369.78 480.24"/><path class="cls-11" d="m1369.78,644.07l-99.22-83.51,99.22-83.51,99.22,83.51-99.22,83.51Zm-91.62-83.51l91.62,77.12,91.62-77.12-91.62-77.12-91.62,77.12Z"/></g><g><polygon class="cls-9" points="1369.78 319.58 1274.35 399.89 1369.78 480.2 1465.2 399.89 1369.78 319.58"/><path class="cls-11" d="m1369.78,483.4l-99.22-83.51,99.22-83.51,99.22,83.51-99.22,83.51Zm-91.62-83.51l91.62,77.12,91.62-77.12-91.62-77.12-91.62,77.12Z"/></g><g><polygon class="cls-21" points="1369.78 158.97 1274.35 239.28 1369.78 319.59 1465.2 239.28 1369.78 158.97"/><path class="cls-11" d="m1369.78,322.79l-99.22-83.51,99.22-83.51,99.22,83.51-99.22,83.51Zm-91.62-83.51l91.62,77.12,91.62-77.12-91.62-77.12-91.62,77.12Z"/></g></g><g><g><polygon class="cls-21" points="1274.35 881.73 1178.93 962.04 1274.35 1042.36 1369.78 962.04 1274.35 881.73"/><path class="cls-11" d="m1274.35,1045.55l-99.22-83.51,99.22-83.51,99.22,83.51-99.22,83.51Zm-91.62-83.51l91.62,77.12,91.62-77.12-91.62-77.12-91.62,77.12Z"/></g><g><polygon class="cls-21" points="1274.35 1042.36 1178.93 1122.67 1274.35 1202.99 1369.78 1122.67 1274.35 1042.36"/><path class="cls-11" d="m1274.35,1206.18l-99.22-83.51,99.22-83.51,99.22,83.51-99.22,83.51Zm-91.62-83.51l91.62,77.12,91.62-77.12-91.62-77.12-91.62,77.12Z"/></g><g><polygon class="cls-21" points="1274.35 721.17 1178.93 801.48 1274.35 881.8 1369.78 801.48 1274.35 721.17"/><path class="cls-11" d="m1274.35,884.99l-99.22-83.51,99.22-83.51,99.22,83.51-99.22,83.51Zm-91.62-83.51l91.62,77.12,91.62-77.12-91.62-77.12-91.62,77.12Z"/></g><g><polygon class="cls-9" points="1274.35 560.56 1178.93 640.87 1274.35 721.18 1369.78 640.87 1274.35 560.56"/><path class="cls-11" d="m1274.35,724.38l-99.22-83.51,99.22-83.51,99.22,83.51-99.22,83.51Zm-91.62-83.51l91.62,77.12,91.62-77.12-91.62-77.12-91.62,77.12Z"/></g><g><polygon class="cls-21" points="1274.35 399.89 1178.93 480.2 1274.35 560.52 1369.78 480.2 1274.35 399.89"/><path class="cls-11" d="m1274.35,563.71l-99.22-83.51,99.22-83.51,99.22,83.51-99.22,83.51Zm-91.62-83.51l91.62,77.12,91.62-77.12-91.62-77.12-91.62,77.12Z"/></g><g><polygon class="cls-21" points="1274.35 239.28 1178.93 319.59 1274.35 399.91 1369.78 319.59 1274.35 239.28"/><path class="cls-11" d="m1274.35,403.1l-99.22-83.51,99.22-83.51,99.22,83.51-99.22,83.51Zm-91.62-83.51l91.62,77.12,91.62-77.12-91.62-77.12-91.62,77.12Z"/></g></g><g><g><polygon class="cls-21" points="1560.1 801.42 1464.68 881.73 1560.1 962.04 1655.52 881.73 1560.1 801.42"/><path class="cls-11" d="m1560.1,965.24l-99.22-83.51,99.22-83.51,99.22,83.51-99.22,83.51Zm-91.62-83.51l91.62,77.12,91.62-77.12-91.62-77.12-91.62,77.12Z"/></g><g><polygon class="cls-22" points="1560.1 962.04 1464.68 1042.36 1560.1 1122.67 1655.52 1042.36 1560.1 962.04"/><path class="cls-11" d="m1560.1,1125.87l-99.22-83.51,99.22-83.51,99.22,83.51-99.22,83.51Zm-91.62-83.51l91.62,77.12,91.62-77.12-91.62-77.12-91.62,77.12Z"/></g><g><polygon class="cls-17" points="1560.1 640.85 1464.68 721.17 1560.1 801.48 1655.52 721.17 1560.1 640.85"/><path class="cls-11" d="m1560.1,804.68l-99.22-83.51,99.22-83.51,99.22,83.51-99.22,83.51Zm-91.62-83.51l91.62,77.12,91.62-77.12-91.62-77.12-91.62,77.12Z"/></g><g><polygon class="cls-21" points="1560.1 480.24 1464.68 560.56 1560.1 640.87 1655.52 560.56 1560.1 480.24"/><path class="cls-11" d="m1560.1,644.07l-99.22-83.51,99.22-83.51,99.22,83.51-99.22,83.51Zm-91.62-83.51l91.62,77.12,91.62-77.12-91.62-77.12-91.62,77.12Z"/></g><g><polygon class="cls-21" points="1560.1 319.58 1464.68 399.89 1560.1 480.2 1655.52 399.89 1560.1 319.58"/><path class="cls-11" d="m1560.1,483.4l-99.22-83.51,99.22-83.51,99.22,83.51-99.22,83.51Zm-91.62-83.51l91.62,77.12,91.62-77.12-91.62-77.12-91.62,77.12Z"/></g><g><polygon class="cls-21" points="1560.1 158.97 1464.68 239.28 1560.1 319.59 1655.52 239.28 1560.1 158.97"/><path class="cls-11" d="m1560.1,322.79l-99.22-83.51,99.22-83.51,99.22,83.51-99.22,83.51Zm-91.62-83.51l91.62,77.12,91.62-77.12-91.62-77.12-91.62,77.12Z"/></g></g><g><g><polygon class="cls-9" points="1464.68 881.73 1369.25 962.04 1464.68 1042.36 1560.1 962.04 1464.68 881.73"/><path class="cls-11" d="m1464.68,1045.55l-99.22-83.51,99.22-83.51,99.22,83.51-99.22,83.51Zm-91.62-83.51l91.62,77.12,91.62-77.12-91.62-77.12-91.62,77.12Z"/></g><g><polygon class="cls-21" points="1464.68 1042.36 1369.25 1122.67 1464.68 1202.99 1560.1 1122.67 1464.68 1042.36"/><path class="cls-11" d="m1464.68,1206.18l-99.22-83.51,99.22-83.51,99.22,83.51-99.22,83.51Zm-91.62-83.51l91.62,77.12,91.62-77.12-91.62-77.12-91.62,77.12Z"/></g><g><polygon class="cls-21" points="1464.68 721.17 1369.25 801.48 1464.68 881.8 1560.1 801.48 1464.68 721.17"/><path class="cls-11" d="m1464.68,884.99l-99.22-83.51,99.22-83.51,99.22,83.51-99.22,83.51Zm-91.62-83.51l91.62,77.12,91.62-77.12-91.62-77.12-91.62,77.12Z"/></g><g><polygon class="cls-21" points="1464.68 560.56 1369.25 640.87 1464.68 721.18 1560.1 640.87 1464.68 560.56"/><path class="cls-11" d="m1464.68,724.38l-99.22-83.51,99.22-83.51,99.22,83.51-99.22,83.51Zm-91.62-83.51l91.62,77.12,91.62-77.12-91.62-77.12-91.62,77.12Z"/></g><g><polygon class="cls-22" points="1464.68 399.89 1369.25 480.2 1464.68 560.52 1560.1 480.2 1464.68 399.89"/><path class="cls-11" d="m1464.68,563.71l-99.22-83.51,99.22-83.51,99.22,83.51-99.22,83.51Zm-91.62-83.51l91.62,77.12,91.62-77.12-91.62-77.12-91.62,77.12Z"/></g><g><polygon class="cls-21" points="1464.68 239.28 1369.25 319.59 1464.68 399.91 1560.1 319.59 1464.68 239.28"/><path class="cls-11" d="m1464.68,403.1l-99.22-83.51,99.22-83.51,99.22,83.51-99.22,83.51Zm-91.62-83.51l91.62,77.12,91.62-77.12-91.62-77.12-91.62,77.12Z"/></g></g><g><g><polygon class="cls-21" points="1750.42 801.42 1655 881.73 1750.42 962.04 1845.84 881.73 1750.42 801.42"/><path class="cls-11" d="m1750.42,965.24l-99.22-83.51,99.22-83.51,99.22,83.51-99.22,83.51Zm-91.62-83.51l91.62,77.12,91.62-77.12-91.62-77.12-91.62,77.12Z"/></g><g><polygon class="cls-21" points="1750.42 962.04 1655 1042.36 1750.42 1122.67 1845.84 1042.36 1750.42 962.04"/><path class="cls-11" d="m1750.42,1125.87l-99.22-83.51,99.22-83.51,99.22,83.51-99.22,83.51Zm-91.62-83.51l91.62,77.12,91.62-77.12-91.62-77.12-91.62,77.12Z"/></g><g><polygon class="cls-21" points="1750.42 640.85 1655 721.17 1750.42 801.48 1845.84 721.17 1750.42 640.85"/><path class="cls-11" d="m1750.42,804.68l-99.22-83.51,99.22-83.51,99.22,83.51-99.22,83.51Zm-91.62-83.51l91.62,77.12,91.62-77.12-91.62-77.12-91.62,77.12Z"/></g><g><polygon class="cls-21" points="1750.42 480.24 1655 560.56 1750.42 640.87 1845.84 560.56 1750.42 480.24"/><path class="cls-11" d="m1750.42,644.07l-99.22-83.51,99.22-83.51,99.22,83.51-99.22,83.51Zm-91.62-83.51l91.62,77.12,91.62-77.12-91.62-77.12-91.62,77.12Z"/></g><g><polygon class="cls-21" points="1750.42 319.58 1655 399.89 1750.42 480.2 1845.84 399.89 1750.42 319.58"/><path class="cls-11" d="m1750.42,483.4l-99.22-83.51,99.22-83.51,99.22,83.51-99.22,83.51Zm-91.62-83.51l91.62,77.12,91.62-77.12-91.62-77.12-91.62,77.12Z"/></g><g><polygon class="cls-21" points="1750.42 158.97 1655 239.28 1750.42 319.59 1845.84 239.28 1750.42 158.97"/><path class="cls-11" d="m1750.42,322.79l-99.22-83.51,99.22-83.51,99.22,83.51-99.22,83.51Zm-91.62-83.51l91.62,77.12,91.62-77.12-91.62-77.12-91.62,77.12Z"/></g></g><g><g><polygon class="cls-21" points="1655 881.73 1559.57 962.04 1655 1042.36 1750.42 962.04 1655 881.73"/><path class="cls-11" d="m1655,1045.55l-99.22-83.51,99.22-83.51,99.22,83.51-99.22,83.51Zm-91.62-83.51l91.62,77.12,91.62-77.12-91.62-77.12-91.62,77.12Z"/></g><g><polygon class="cls-21" points="1655 1042.36 1559.57 1122.67 1655 1202.99 1750.42 1122.67 1655 1042.36"/><path class="cls-11" d="m1655,1206.18l-99.22-83.51,99.22-83.51,99.22,83.51-99.22,83.51Zm-91.62-83.51l91.62,77.12,91.62-77.12-91.62-77.12-91.62,77.12Z"/></g><g><polygon class="cls-9" points="1655 721.17 1559.57 801.48 1655 881.8 1750.42 801.48 1655 721.17"/><path class="cls-11" d="m1655,884.99l-99.22-83.51,99.22-83.51,99.22,83.51-99.22,83.51Zm-91.62-83.51l91.62,77.12,91.62-77.12-91.62-77.12-91.62,77.12Z"/></g><g><polygon class="cls-21" points="1655 560.56 1559.57 640.87 1655 721.18 1750.42 640.87 1655 560.56"/><path class="cls-11" d="m1655,724.38l-99.22-83.51,99.22-83.51,99.22,83.51-99.22,83.51Zm-91.62-83.51l91.62,77.12,91.62-77.12-91.62-77.12-91.62,77.12Z"/></g><g><polygon class="cls-9" points="1655 399.89 1559.57 480.2 1655 560.52 1750.42 480.2 1655 399.89"/><path class="cls-11" d="m1655,563.71l-99.22-83.51,99.22-83.51,99.22,83.51-99.22,83.51Zm-91.62-83.51l91.62,77.12,91.62-77.12-91.62-77.12-91.62,77.12Z"/></g><g><polygon class="cls-21" points="1655 239.28 1559.57 319.59 1655 399.91 1750.42 319.59 1655 239.28"/><path class="cls-11" d="m1655,403.1l-99.22-83.51,99.22-83.51,99.22,83.51-99.22,83.51Zm-91.62-83.51l91.62,77.12,91.62-77.12-91.62-77.12-91.62,77.12Z"/></g></g><g><g><polygon class="cls-21" points="1940.74 801.42 1845.32 881.73 1940.74 962.04 2036.16 881.73 1940.74 801.42"/><path class="cls-11" d="m1940.74,965.24l-99.22-83.51,99.22-83.51,99.22,83.51-99.22,83.51Zm-91.62-83.51l91.62,77.12,91.62-77.12-91.62-77.12-91.62,77.12Z"/></g><g><polygon class="cls-21" points="1940.74 962.04 1845.32 1042.36 1940.74 1122.67 2036.16 1042.36 1940.74 962.04"/><path class="cls-11" d="m1940.74,1125.87l-99.22-83.51,99.22-83.51,99.22,83.51-99.22,83.51Zm-91.62-83.51l91.62,77.12,91.62-77.12-91.62-77.12-91.62,77.12Z"/></g><g><polygon class="cls-9" points="1940.74 640.85 1845.32 721.17 1940.74 801.48 2036.16 721.17 1940.74 640.85"/><path class="cls-11" d="m1940.74,804.68l-99.22-83.51,99.22-83.51,99.22,83.51-99.22,83.51Zm-91.62-83.51l91.62,77.12,91.62-77.12-91.62-77.12-91.62,77.12Z"/></g><g><polygon class="cls-21" points="1940.74 480.24 1845.32 560.56 1940.74 640.87 2036.16 560.56 1940.74 480.24"/><path class="cls-11" d="m1940.74,644.07l-99.22-83.51,99.22-83.51,99.22,83.51-99.22,83.51Zm-91.62-83.51l91.62,77.12,91.62-77.12-91.62-77.12-91.62,77.12Z"/></g><g><polygon class="cls-17" points="1940.74 319.58 1845.32 399.89 1940.74 480.2 2036.16 399.89 1940.74 319.58"/><path class="cls-11" d="m1940.74,483.4l-99.22-83.51,99.22-83.51,99.22,83.51-99.22,83.51Zm-91.62-83.51l91.62,77.12,91.62-77.12-91.62-77.12-91.62,77.12Z"/></g><g><polygon class="cls-21" points="1940.74 158.97 1845.32 239.28 1940.74 319.59 2036.16 239.28 1940.74 158.97"/><path class="cls-11" d="m1940.74,322.79l-99.22-83.51,99.22-83.51,99.22,83.51-99.22,83.51Zm-91.62-83.51l91.62,77.12,91.62-77.12-91.62-77.12-91.62,77.12Z"/></g></g><g><g><polygon class="cls-17" points="1845.32 881.73 1749.89 962.04 1845.32 1042.36 1940.74 962.04 1845.32 881.73"/><path class="cls-11" d="m1845.32,1045.55l-99.22-83.51,99.22-83.51,99.22,83.51-99.22,83.51Zm-91.62-83.51l91.62,77.12,91.62-77.12-91.62-77.12-91.62,77.12Z"/></g><g><polygon class="cls-21" points="1845.32 1042.36 1749.89 1122.67 1845.32 1202.99 1940.74 1122.67 1845.32 1042.36"/><path class="cls-11" d="m1845.32,1206.18l-99.22-83.51,99.22-83.51,99.22,83.51-99.22,83.51Zm-91.62-83.51l91.62,77.12,91.62-77.12-91.62-77.12-91.62,77.12Z"/></g><g><polygon class="cls-11" points="1845.32 721.17 1749.89 801.48 1845.32 881.8 1940.74 801.48 1845.32 721.17"/><path class="cls-11" d="m1845.32,884.99l-99.22-83.51,99.22-83.51,99.22,83.51-99.22,83.51Zm-91.62-83.51l91.62,77.12,91.62-77.12-91.62-77.12-91.62,77.12Z"/></g><g><polygon class="cls-22" points="1845.32 560.56 1749.89 640.87 1845.32 721.18 1940.74 640.87 1845.32 560.56"/><path class="cls-11" d="m1845.32,724.38l-99.22-83.51,99.22-83.51,99.22,83.51-99.22,83.51Zm-91.62-83.51l91.62,77.12,91.62-77.12-91.62-77.12-91.62,77.12Z"/></g><g><polygon class="cls-21" points="1845.32 399.89 1749.89 480.2 1845.32 560.52 1940.74 480.2 1845.32 399.89"/><path class="cls-11" d="m1845.32,563.71l-99.22-83.51,99.22-83.51,99.22,83.51-99.22,83.51Zm-91.62-83.51l91.62,77.12,91.62-77.12-91.62-77.12-91.62,77.12Z"/></g><g><polygon class="cls-21" points="1845.32 239.28 1749.89 319.59 1845.32 399.91 1940.74 319.59 1845.32 239.28"/><path class="cls-11" d="m1845.32,403.1l-99.22-83.51,99.22-83.51,99.22,83.51-99.22,83.51Zm-91.62-83.51l91.62,77.12,91.62-77.12-91.62-77.12-91.62,77.12Z"/></g></g><g><g><polygon class="cls-21" points="2131.06 801.42 2035.64 881.73 2131.06 962.04 2226.48 881.73 2131.06 801.42"/><path class="cls-11" d="m2131.06,965.24l-99.22-83.51,99.22-83.51,99.22,83.51-99.22,83.51Zm-91.62-83.51l91.62,77.12,91.62-77.12-91.62-77.12-91.62,77.12Z"/></g><g><polygon class="cls-21" points="2131.06 962.04 2035.64 1042.36 2131.06 1122.67 2226.48 1042.36 2131.06 962.04"/><path class="cls-11" d="m2131.06,1125.87l-99.22-83.51,99.22-83.51,99.22,83.51-99.22,83.51Zm-91.62-83.51l91.62,77.12,91.62-77.12-91.62-77.12-91.62,77.12Z"/></g><g><polygon class="cls-9" points="2131.06 640.85 2035.64 721.17 2131.06 801.48 2226.48 721.17 2131.06 640.85"/><path class="cls-11" d="m2131.06,804.68l-99.22-83.51,99.22-83.51,99.22,83.51-99.22,83.51Zm-91.62-83.51l91.62,77.12,91.62-77.12-91.62-77.12-91.62,77.12Z"/></g><g><polygon class="cls-21" points="2131.06 480.24 2035.64 560.56 2131.06 640.87 2226.48 560.56 2131.06 480.24"/><path class="cls-11" d="m2131.06,644.07l-99.22-83.51,99.22-83.51,99.22,83.51-99.22,83.51Zm-91.62-83.51l91.62,77.12,91.62-77.12-91.62-77.12-91.62,77.12Z"/></g><g><polygon class="cls-21" points="2131.06 319.58 2035.64 399.89 2131.06 480.2 2226.48 399.89 2131.06 319.58"/><path class="cls-11" d="m2131.06,483.4l-99.22-83.51,99.22-83.51,99.22,83.51-99.22,83.51Zm-91.62-83.51l91.62,77.12,91.62-77.12-91.62-77.12-91.62,77.12Z"/></g><g><polygon class="cls-21" points="2131.06 158.97 2035.64 239.28 2131.06 319.59 2226.48 239.28 2131.06 158.97"/><path class="cls-11" d="m2131.06,322.79l-99.22-83.51,99.22-83.51,99.22,83.51-99.22,83.51Zm-91.62-83.51l91.62,77.12,91.62-77.12-91.62-77.12-91.62,77.12Z"/></g></g><g><g><polygon class="cls-22" points="2035.64 881.73 1940.22 962.04 2035.64 1042.36 2131.06 962.04 2035.64 881.73"/><path class="cls-11" d="m2035.64,1045.55l-99.22-83.51,99.22-83.51,99.22,83.51-99.22,83.51Zm-91.62-83.51l91.62,77.12,91.62-77.12-91.62-77.12-91.62,77.12Z"/></g><g><polygon class="cls-21" points="2035.64 1042.36 1940.22 1122.67 2035.64 1202.99 2131.06 1122.67 2035.64 1042.36"/><path class="cls-11" d="m2035.64,1206.18l-99.22-83.51,99.22-83.51,99.22,83.51-99.22,83.51Zm-91.62-83.51l91.62,77.12,91.62-77.12-91.62-77.12-91.62,77.12Z"/></g><g><polygon class="cls-17" points="2035.64 721.17 1940.22 801.48 2035.64 881.8 2131.06 801.48 2035.64 721.17"/><path class="cls-11" d="m2035.64,884.99l-99.22-83.51,99.22-83.51,99.22,83.51-99.22,83.51Zm-91.62-83.51l91.62,77.12,91.62-77.12-91.62-77.12-91.62,77.12Z"/></g><g><polygon class="cls-21" points="2035.64 560.56 1940.22 640.87 2035.64 721.18 2131.06 640.87 2035.64 560.56"/><path class="cls-11" d="m2035.64,724.38l-99.22-83.51,99.22-83.51,99.22,83.51-99.22,83.51Zm-91.62-83.51l91.62,77.12,91.62-77.12-91.62-77.12-91.62,77.12Z"/></g><g><polygon class="cls-9" points="2035.64 399.89 1940.22 480.2 2035.64 560.52 2131.06 480.2 2035.64 399.89"/><path class="cls-11" d="m2035.64,563.71l-99.22-83.51,99.22-83.51,99.22,83.51-99.22,83.51Zm-91.62-83.51l91.62,77.12,91.62-77.12-91.62-77.12-91.62,77.12Z"/></g><g><polygon class="cls-21" points="2035.64 239.28 1940.22 319.59 2035.64 399.91 2131.06 319.59 2035.64 239.28"/><path class="cls-11" d="m2035.64,403.1l-99.22-83.51,99.22-83.51,99.22,83.51-99.22,83.51Zm-91.62-83.51l91.62,77.12,91.62-77.12-91.62-77.12-91.62,77.12Z"/></g></g><g><g><polygon class="cls-21" points="2321.38 801.42 2225.96 881.73 2321.38 962.04 2416.8 881.73 2321.38 801.42"/><path class="cls-11" d="m2321.38,965.24l-99.22-83.51,99.22-83.51,99.22,83.51-99.22,83.51Zm-91.62-83.51l91.62,77.12,91.62-77.12-91.62-77.12-91.62,77.12Z"/></g><g><polygon class="cls-21" points="2321.38 962.04 2225.96 1042.36 2321.38 1122.67 2416.8 1042.36 2321.38 962.04"/><path class="cls-11" d="m2321.38,1125.87l-99.22-83.51,99.22-83.51,99.22,83.51-99.22,83.51Zm-91.62-83.51l91.62,77.12,91.62-77.12-91.62-77.12-91.62,77.12Z"/></g><g><polygon class="cls-21" points="2321.38 640.85 2225.96 721.17 2321.38 801.48 2416.8 721.17 2321.38 640.85"/><path class="cls-11" d="m2321.38,804.68l-99.22-83.51,99.22-83.51,99.22,83.51-99.22,83.51Zm-91.62-83.51l91.62,77.12,91.62-77.12-91.62-77.12-91.62,77.12Z"/></g><g><polygon class="cls-21" points="2321.38 480.24 2225.96 560.56 2321.38 640.87 2416.8 560.56 2321.38 480.24"/><path class="cls-11" d="m2321.38,644.07l-99.22-83.51,99.22-83.51,99.22,83.51-99.22,83.51Zm-91.62-83.51l91.62,77.12,91.62-77.12-91.62-77.12-91.62,77.12Z"/></g><g><polygon class="cls-21" points="2321.38 319.58 2225.96 399.89 2321.38 480.2 2416.8 399.89 2321.38 319.58"/><path class="cls-11" d="m2321.38,483.4l-99.22-83.51,99.22-83.51,99.22,83.51-99.22,83.51Zm-91.62-83.51l91.62,77.12,91.62-77.12-91.62-77.12-91.62,77.12Z"/></g><g><polygon class="cls-21" points="2321.38 158.97 2225.96 239.28 2321.38 319.59 2416.8 239.28 2321.38 158.97"/><path class="cls-11" d="m2321.38,322.79l-99.22-83.51,99.22-83.51,99.22,83.51-99.22,83.51Zm-91.62-83.51l91.62,77.12,91.62-77.12-91.62-77.12-91.62,77.12Z"/></g></g><g><g><polygon class="cls-17" points="2225.96 881.73 2130.54 962.04 2225.96 1042.36 2321.38 962.04 2225.96 881.73"/><path class="cls-11" d="m2225.96,1045.55l-99.22-83.51,99.22-83.51,99.22,83.51-99.22,83.51Zm-91.63-83.51l91.63,77.12,91.62-77.12-91.62-77.12-91.63,77.12Z"/></g><g><polygon class="cls-21" points="2225.96 1042.36 2130.54 1122.67 2225.96 1202.99 2321.38 1122.67 2225.96 1042.36"/><path class="cls-11" d="m2225.96,1206.18l-99.22-83.51,99.22-83.51,99.22,83.51-99.22,83.51Zm-91.63-83.51l91.63,77.12,91.62-77.12-91.62-77.12-91.63,77.12Z"/></g><g><polygon class="cls-21" points="2225.96 721.17 2130.54 801.48 2225.96 881.8 2321.38 801.48 2225.96 721.17"/><path class="cls-11" d="m2225.96,884.99l-99.22-83.51,99.22-83.51,99.22,83.51-99.22,83.51Zm-91.63-83.51l91.63,77.12,91.62-77.12-91.62-77.12-91.63,77.12Z"/></g><g><polygon class="cls-21" points="2225.96 560.56 2130.54 640.87 2225.96 721.18 2321.38 640.87 2225.96 560.56"/><path class="cls-11" d="m2225.96,724.38l-99.22-83.51,99.22-83.51,99.22,83.51-99.22,83.51Zm-91.63-83.51l91.63,77.12,91.62-77.12-91.62-77.12-91.63,77.12Z"/></g><g><polygon class="cls-21" points="2225.96 399.89 2130.54 480.2 2225.96 560.52 2321.38 480.2 2225.96 399.89"/><path class="cls-11" d="m2225.96,563.71l-99.22-83.51,99.22-83.51,99.22,83.51-99.22,83.51Zm-91.63-83.51l91.63,77.12,91.62-77.12-91.62-77.12-91.63,77.12Z"/></g><g><polygon class="cls-21" points="2225.96 239.28 2130.54 319.59 2225.96 399.91 2321.38 319.59 2225.96 239.28"/><path class="cls-11" d="m2225.96,403.1l-99.22-83.51,99.22-83.51,99.22,83.51-99.22,83.51Zm-91.63-83.51l91.63,77.12,91.62-77.12-91.62-77.12-91.63,77.12Z"/></g></g><g><g><polygon class="cls-21" points="2511.7 801.42 2416.28 881.73 2511.7 962.04 2607.12 881.73 2511.7 801.42"/><path class="cls-11" d="m2511.7,965.24l-99.22-83.51,99.22-83.51,99.22,83.51-99.22,83.51Zm-91.62-83.51l91.62,77.12,91.62-77.12-91.62-77.12-91.62,77.12Z"/></g><g><polygon class="cls-17" points="2511.7 962.04 2416.28 1042.36 2511.7 1122.67 2607.12 1042.36 2511.7 962.04"/><path class="cls-11" d="m2511.7,1125.87l-99.22-83.51,99.22-83.51,99.22,83.51-99.22,83.51Zm-91.62-83.51l91.62,77.12,91.62-77.12-91.62-77.12-91.62,77.12Z"/></g><g><polygon class="cls-21" points="2511.7 640.85 2416.28 721.17 2511.7 801.48 2607.12 721.17 2511.7 640.85"/><path class="cls-11" d="m2511.7,804.68l-99.22-83.51,99.22-83.51,99.22,83.51-99.22,83.51Zm-91.62-83.51l91.62,77.12,91.62-77.12-91.62-77.12-91.62,77.12Z"/></g><g><polygon class="cls-21" points="2511.7 480.24 2416.28 560.56 2511.7 640.87 2607.12 560.56 2511.7 480.24"/><path class="cls-11" d="m2511.7,644.07l-99.22-83.51,99.22-83.51,99.22,83.51-99.22,83.51Zm-91.62-83.51l91.62,77.12,91.62-77.12-91.62-77.12-91.62,77.12Z"/></g><g><polygon class="cls-21" points="2511.7 319.58 2416.28 399.89 2511.7 480.2 2607.12 399.89 2511.7 319.58"/><path class="cls-11" d="m2511.7,483.4l-99.22-83.51,99.22-83.51,99.22,83.51-99.22,83.51Zm-91.62-83.51l91.62,77.12,91.62-77.12-91.62-77.12-91.62,77.12Z"/></g><g><polygon class="cls-21" points="2511.7 158.97 2416.28 239.28 2511.7 319.59 2607.12 239.28 2511.7 158.97"/><path class="cls-11" d="m2511.7,322.79l-99.22-83.51,99.22-83.51,99.22,83.51-99.22,83.51Zm-91.62-83.51l91.62,77.12,91.62-77.12-91.62-77.12-91.62,77.12Z"/></g></g><g><g><polygon class="cls-21" points="2416.28 881.73 2320.86 962.04 2416.28 1042.36 2511.7 962.04 2416.28 881.73"/><path class="cls-11" d="m2416.28,1045.55l-99.22-83.51,99.22-83.51,99.22,83.51-99.22,83.51Zm-91.63-83.51l91.63,77.12,91.62-77.12-91.62-77.12-91.63,77.12Z"/></g><g><polygon class="cls-21" points="2416.28 1042.36 2320.86 1122.67 2416.28 1202.99 2511.7 1122.67 2416.28 1042.36"/><path class="cls-11" d="m2416.28,1206.18l-99.22-83.51,99.22-83.51,99.22,83.51-99.22,83.51Zm-91.63-83.51l91.63,77.12,91.62-77.12-91.62-77.12-91.63,77.12Z"/></g><g><polygon class="cls-21" points="2416.28 721.17 2320.86 801.48 2416.28 881.8 2511.7 801.48 2416.28 721.17"/><path class="cls-11" d="m2416.28,884.99l-99.22-83.51,99.22-83.51,99.22,83.51-99.22,83.51Zm-91.63-83.51l91.63,77.12,91.62-77.12-91.62-77.12-91.63,77.12Z"/></g><g><polygon class="cls-21" points="2416.28 560.56 2320.86 640.87 2416.28 721.18 2511.7 640.87 2416.28 560.56"/><path class="cls-11" d="m2416.28,724.38l-99.22-83.51,99.22-83.51,99.22,83.51-99.22,83.51Zm-91.63-83.51l91.63,77.12,91.62-77.12-91.62-77.12-91.63,77.12Z"/></g><g><polygon class="cls-22" points="2416.28 399.89 2320.86 480.2 2416.28 560.52 2511.7 480.2 2416.28 399.89"/><path class="cls-11" d="m2416.28,563.71l-99.22-83.51,99.22-83.51,99.22,83.51-99.22,83.51Zm-91.63-83.51l91.63,77.12,91.62-77.12-91.62-77.12-91.63,77.12Z"/></g><g><polygon class="cls-21" points="2416.28 239.28 2320.86 319.59 2416.28 399.91 2511.7 319.59 2416.28 239.28"/><path class="cls-11" d="m2416.28,403.1l-99.22-83.51,99.22-83.51,99.22,83.51-99.22,83.51Zm-91.63-83.51l91.63,77.12,91.62-77.12-91.62-77.12-91.63,77.12Z"/></g></g><g><g><polygon class="cls-21" points="2702.02 801.42 2606.6 881.73 2702.02 962.04 2797.44 881.73 2702.02 801.42"/><path class="cls-11" d="m2702.02,965.24l-99.22-83.51,99.22-83.51,99.22,83.51-99.22,83.51Zm-91.62-83.51l91.62,77.12,91.62-77.12-91.62-77.12-91.62,77.12Z"/></g><g><polygon class="cls-21" points="2702.02 962.04 2606.6 1042.36 2702.02 1122.67 2797.44 1042.36 2702.02 962.04"/><path class="cls-11" d="m2702.02,1125.87l-99.22-83.51,99.22-83.51,99.22,83.51-99.22,83.51Zm-91.62-83.51l91.62,77.12,91.62-77.12-91.62-77.12-91.62,77.12Z"/></g><g><polygon class="cls-21" points="2702.02 640.85 2606.6 721.17 2702.02 801.48 2797.44 721.17 2702.02 640.85"/><path class="cls-11" d="m2702.02,804.68l-99.22-83.51,99.22-83.51,99.22,83.51-99.22,83.51Zm-91.62-83.51l91.62,77.12,91.62-77.12-91.62-77.12-91.62,77.12Z"/></g><g><polygon class="cls-21" points="2702.02 480.24 2606.6 560.56 2702.02 640.87 2797.44 560.56 2702.02 480.24"/><path class="cls-11" d="m2702.02,644.07l-99.22-83.51,99.22-83.51,99.22,83.51-99.22,83.51Zm-91.62-83.51l91.62,77.12,91.62-77.12-91.62-77.12-91.62,77.12Z"/></g><g><polygon class="cls-21" points="2702.02 319.58 2606.6 399.89 2702.02 480.2 2797.44 399.89 2702.02 319.58"/><path class="cls-11" d="m2702.02,483.4l-99.22-83.51,99.22-83.51,99.22,83.51-99.22,83.51Zm-91.62-83.51l91.62,77.12,91.62-77.12-91.62-77.12-91.62,77.12Z"/></g><g><polygon class="cls-21" points="2702.02 158.97 2606.6 239.28 2702.02 319.59 2797.44 239.28 2702.02 158.97"/><path class="cls-11" d="m2702.02,322.79l-99.22-83.51,99.22-83.51,99.22,83.51-99.22,83.51Zm-91.62-83.51l91.62,77.12,91.62-77.12-91.62-77.12-91.62,77.12Z"/></g></g><g><g><polygon class="cls-21" points="2606.6 881.73 2511.18 962.04 2606.6 1042.36 2702.02 962.04 2606.6 881.73"/><path class="cls-11" d="m2606.6,1045.55l-99.22-83.51,99.22-83.51,99.22,83.51-99.22,83.51Zm-91.63-83.51l91.63,77.12,91.62-77.12-91.62-77.12-91.63,77.12Z"/></g><g><polygon class="cls-21" points="2606.6 1042.36 2511.18 1122.67 2606.6 1202.99 2702.02 1122.67 2606.6 1042.36"/><path class="cls-11" d="m2606.6,1206.18l-99.22-83.51,99.22-83.51,99.22,83.51-99.22,83.51Zm-91.63-83.51l91.63,77.12,91.62-77.12-91.62-77.12-91.63,77.12Z"/></g><g><polygon class="cls-21" points="2606.6 721.17 2511.18 801.48 2606.6 881.8 2702.02 801.48 2606.6 721.17"/><path class="cls-11" d="m2606.6,884.99l-99.22-83.51,99.22-83.51,99.22,83.51-99.22,83.51Zm-91.63-83.51l91.63,77.12,91.62-77.12-91.62-77.12-91.63,77.12Z"/></g><g><polygon class="cls-21" points="2606.6 560.56 2511.18 640.87 2606.6 721.18 2702.02 640.87 2606.6 560.56"/><path class="cls-11" d="m2606.6,724.38l-99.22-83.51,99.22-83.51,99.22,83.51-99.22,83.51Zm-91.63-83.51l91.63,77.12,91.62-77.12-91.62-77.12-91.63,77.12Z"/></g><g><polygon class="cls-21" points="2606.6 399.89 2511.18 480.2 2606.6 560.52 2702.02 480.2 2606.6 399.89"/><path class="cls-11" d="m2606.6,563.71l-99.22-83.51,99.22-83.51,99.22,83.51-99.22,83.51Zm-91.63-83.51l91.63,77.12,91.62-77.12-91.62-77.12-91.63,77.12Z"/></g><g><polygon class="cls-21" points="2606.6 239.28 2511.18 319.59 2606.6 399.91 2702.02 319.59 2606.6 239.28"/><path class="cls-11" d="m2606.6,403.1l-99.22-83.51,99.22-83.51,99.22,83.51-99.22,83.51Zm-91.63-83.51l91.63,77.12,91.62-77.12-91.62-77.12-91.63,77.12Z"/></g></g></g></g><g><g><rect class="cls-22" x="2087.13" y="755.72" width="149.61" height="212" rx="74.81" ry="74.81"/><rect class="cls-22" x="2153.55" y="874.37" width="16.78" height="161.41"/></g><g><rect class="cls-21" x="2019.27" y="819.06" width="115.77" height="164.05" rx="57.89" ry="57.89"/><rect class="cls-21" x="2070.67" y="910.87" width="12.99" height="124.9"/></g></g><g><polygon class="cls-21" points="1245.27 1042.03 993.65 1042.03 993.65 840.3 1051.45 771.57 1166.53 771.16 1245.27 840.3 1245.27 1042.03"/><polygon class="cls-9" points="1130.19 1042.03 972.71 1042.03 972.71 840.3 1051.45 771.57 1130.19 840.3 1130.19 1042.03"/><polyline class="cls-5" points="1051.45 771.57 1166.53 771.16 1245.27 840.3 1130.19 840.3 1051.45 771.57"/><g><rect class="cls-5" x="983.81" y="856.02" width="10.05" height="9.22"/><rect class="cls-5" x="1007.2" y="856.02" width="10.05" height="9.22"/><rect class="cls-5" x="1030.59" y="856.02" width="10.05" height="9.22"/><rect class="cls-5" x="1053.98" y="856.02" width="10.05" height="9.22"/><rect class="cls-5" x="1077.38" y="856.02" width="10.05" height="9.22"/><rect class="cls-5" x="1100.77" y="856.02" width="10.05" height="9.22"/><rect class="cls-5" x="983.81" y="876.41" width="10.05" height="9.22"/><rect class="cls-5" x="1007.2" y="876.41" width="10.05" height="9.22"/><rect class="cls-5" x="1030.59" y="876.41" width="10.05" height="9.22"/><rect class="cls-5" x="1053.98" y="876.41" width="10.05" height="9.22"/><rect class="cls-5" x="1077.38" y="876.41" width="10.05" height="9.22"/><rect class="cls-5" x="1100.77" y="876.41" width="10.05" height="9.22"/><rect class="cls-5" x="983.81" y="896.8" width="10.05" height="9.22"/><rect class="cls-5" x="1007.2" y="896.8" width="10.05" height="9.22"/><rect class="cls-5" x="1030.59" y="896.8" width="10.05" height="9.22"/><rect class="cls-5" x="1053.98" y="896.8" width="10.05" height="9.22"/><rect class="cls-5" x="1077.38" y="896.8" width="10.05" height="9.22"/><rect class="cls-5" x="1100.77" y="896.8" width="10.05" height="9.22"/></g></g><g><rect class="cls-4" x="1301.9" y="185.26" width="154.26" height="175.48"/><polygon class="cls-21" points="1285.44 419.14 1285.44 501.81 1285.44 1042.03 1472.47 1042.03 1472.47 501.81 1472.47 419.14 1285.44 419.14"/><g><rect class="cls-23" x="1362.58" y="0" width="32.9" height="179.84" rx="16.45" ry="16.45"/><g><ellipse class="cls-4" cx="1379.03" cy="182.55" rx="77.18" ry="81.96"/><polygon class="cls-4" points="1472.47 419.14 1456.09 354.08 1301.83 354.08 1301.83 354.08 1301.83 354.08 1285.44 419.14 1285.44 419.14 1285.44 419.14 1472.47 419.14"/><g><g><g><rect class="cls-23" x="1326.1" y="185.26" width="14.91" height="168.82"/><rect class="cls-23" x="1416.91" y="185.26" width="14.91" height="168.82"/></g><rect class="cls-23" x="1359.79" y="185.26" width="38.34" height="168.82"/></g><rect class="cls-3" x="1315.26" y="217.84" width="127.4" height="20.23"/></g><rect class="cls-11" x="1327.46" y="549.2" width="103" height="492.83"/><g><circle class="cls-5" cx="1379.39" cy="576.5" r="72.2"/><path class="cls-9" d="m1379.39,659.99c-46.04,0-83.5-37.46-83.5-83.5s37.46-83.5,83.5-83.5,83.5,37.46,83.5,83.5-37.46,83.5-83.5,83.5Zm0-144.4c-33.58,0-60.91,27.32-60.91,60.91s27.32,60.91,60.91,60.91,60.91-27.32,60.91-60.91-27.32-60.91-60.91-60.91Z"/></g><polygon class="cls-4" points="1480.67 1042.03 1277.25 1042.03 1285.44 1000.68 1472.47 1000.68 1480.67 1042.03"/><rect class="cls-11" x="1326.1" y="444.24" width="105.69" height="39.3"/></g><g><rect class="cls-21" x="1373.46" y="524.85" width="11.86" height="63.48" rx="5.93" ry="5.93"/><rect class="cls-21" x="1361.29" y="543" width="11.86" height="49.76" rx="5.93" ry="5.93" transform="translate(-45.5 1010.6) rotate(-39.96)"/></g></g></g><g><rect class="cls-4" x="2397.55" y="398.24" width="277.57" height="371.92"/><g><rect class="cls-8" x="2421.73" y="428.25" width="23.13" height="34.12"/><rect class="cls-8" x="2461.16" y="428.25" width="23.13" height="34.12"/><rect class="cls-8" x="2500.59" y="428.25" width="23.13" height="34.12"/><rect class="cls-8" x="2540.01" y="428.25" width="23.13" height="34.12"/><rect class="cls-8" x="2579.44" y="428.25" width="23.13" height="34.12"/><rect class="cls-8" x="2618.87" y="428.25" width="23.13" height="34.12"/><rect class="cls-8" x="2421.73" y="476.02" width="23.13" height="34.12"/><rect class="cls-8" x="2461.16" y="476.02" width="23.13" height="34.12"/><rect class="cls-8" x="2500.59" y="476.02" width="23.13" height="34.12"/><rect class="cls-8" x="2421.73" y="526.94" width="23.13" height="34.12"/><rect class="cls-8" x="2461.16" y="526.94" width="23.13" height="34.12"/><rect class="cls-8" x="2500.59" y="526.94" width="23.13" height="34.12"/><rect class="cls-8" x="2421.73" y="577.86" width="23.13" height="34.12"/><rect class="cls-8" x="2461.16" y="577.86" width="23.13" height="34.12"/><rect class="cls-8" x="2500.59" y="577.86" width="23.13" height="34.12"/><rect class="cls-8" x="2540.01" y="476.02" width="23.13" height="34.12"/><rect class="cls-8" x="2579.44" y="476.02" width="23.13" height="34.12"/><rect class="cls-8" x="2618.87" y="476.02" width="23.13" height="34.12"/><rect class="cls-8" x="2540.01" y="526.94" width="23.13" height="34.12"/><rect class="cls-8" x="2579.44" y="526.94" width="23.13" height="34.12"/><rect class="cls-8" x="2618.87" y="526.94" width="23.13" height="34.12"/><rect class="cls-8" x="2540.01" y="577.86" width="23.13" height="34.12"/><rect class="cls-8" x="2579.44" y="577.86" width="23.13" height="34.12"/><rect class="cls-8" x="2618.87" y="577.86" width="23.13" height="34.12"/></g></g><g><g><g><rect class="cls-14" x="2350.73" y="613.77" width="5.22" height="68.71" rx="2.61" ry="2.61" transform="translate(-86.58 577.08) rotate(-13.73)"/><rect class="cls-14" x="2336.59" y="614.39" width="4.07" height="24.16" rx="2.04" ry="2.04" transform="translate(-81.86 572.97) rotate(-13.73)"/><rect class="cls-14" x="2328.67" y="614.39" width="4.07" height="24.16" rx="2.04" ry="2.04" transform="translate(-82.09 571.09) rotate(-13.73)"/><rect class="cls-14" x="2320.75" y="614.39" width="4.07" height="24.16" rx="2.04" ry="2.04" transform="translate(-82.32 569.21) rotate(-13.73)"/><rect class="cls-14" x="2370.99" y="614.39" width="4.07" height="24.16" rx="2.04" ry="2.04" transform="translate(-80.88 581.14) rotate(-13.73)"/><rect class="cls-14" x="2363.07" y="614.39" width="4.07" height="24.16" rx="2.04" ry="2.04" transform="translate(-81.11 579.26) rotate(-13.73)"/><rect class="cls-14" x="2355.15" y="614.39" width="4.07" height="24.16" rx="2.04" ry="2.04" transform="translate(-81.33 577.38) rotate(-13.73)"/><rect class="cls-14" x="2322.92" y="624.19" width="49.91" height="3.18"/></g><g><rect class="cls-14" x="2492.71" y="614.97" width="5.22" height="68.71" rx="2.61" ry="2.61" transform="translate(-82.81 610.82) rotate(-13.73)"/><rect class="cls-14" x="2487" y="625.04" width="4.07" height="29.68" rx="2.04" ry="2.04" transform="translate(3119.8 -1851.49) rotate(89.79)"/><rect class="cls-14" x="2489.28" y="617.33" width="4.07" height="29.68" rx="2.04" ry="2.04" transform="translate(3114.37 -1861.45) rotate(89.79)"/><rect class="cls-14" x="2491.57" y="609.63" width="4.07" height="29.68" rx="2.04" ry="2.04" transform="translate(3108.94 -1871.4) rotate(89.79)"/></g><g><path class="cls-14" d="m2449.12,641.9v8.97h1.41v-8.97h-1.41Zm-8.21,8.97h1.41v-8.97h-1.41v8.97Zm4.11,0h1.41v-8.97h-1.41v8.97Z"/><rect class="cls-14" x="2439.72" y="648.57" width="12" height="30.9" rx="2.86" ry="2.86"/><path class="cls-14" d="m2444.54,633.42l-7.16,6.25c-1.25,1.09-.48,3.14,1.18,3.14h14.32c1.66,0,2.42-2.05,1.18-3.14l-7.16-6.25c-.67-.59-1.68-.59-2.36,0Z"/></g><rect class="cls-11" x="2275.6" y="688.78" width="299.6" height="349.1"/><rect class="cls-17" x="2275.6" y="910.61" width="299.6" height="127.27"/><rect class="cls-21" x="2486.52" y="688.78" width="88.68" height="349.1"/><rect class="cls-21" x="2486.52" y="910.61" width="88.68" height="127.27"/><g><rect class="cls-21" x="2274.1" y="907.79" width="302.61" height="9.92"/><rect class="cls-21" x="2269.8" y="903.78" width="311.2" height="4.02"/></g><g><rect class="cls-21" x="2274.1" y="791.92" width="302.61" height="9.92"/><rect class="cls-21" x="2269.8" y="787.91" width="311.2" height="4.02"/></g><g><rect class="cls-21" x="2274.1" y="672.69" width="302.61" height="17.7"/><rect class="cls-21" x="2266.58" y="660.63" width="317.64" height="17.43"/></g><g><rect class="cls-11" x="2488.83" y="907.79" width="93.08" height="9.92"/><rect class="cls-11" x="2491.5" y="903.78" width="91.78" height="4.02"/></g><g><rect class="cls-11" x="2488.83" y="791.92" width="93.08" height="9.92"/><rect class="cls-11" x="2491.5" y="787.91" width="91.78" height="4.02"/></g><g><rect class="cls-11" x="2488.83" y="677.93" width="93.08" height="12.46"/><rect class="cls-11" x="2490.54" y="660.63" width="93.68" height="17.43"/></g><path class="cls-11" d="m2455.41,706.23c0,.53.43.97.97.97h10.47c.53,0,.96-.43.96-.97v-5.11c0-.53-.44-.97-.96-.97h-10.47c-.53,0-.97.44-.97.97v5.11Zm13.83,0c0,.53.44.97.96.97h10.47c.53,0,.96-.43.96-.97v-5.11c0-.53-.44-.97-.96-.97h-10.47c-.53,0-.96.44-.96.97v5.11Z"/><path class="cls-11" d="m2464.14,826.79c0,.53.44.97.96.97h10.47c.53,0,.96-.43.96-.97v-5.11c0-.53-.44-.97-.96-.97h-10.47c-.53,0-.96.43-.96.97v5.11Zm-27.66,0c0,.53.44.97.97.97h10.47c.53,0,.97-.43.97-.97v-5.11c0-.53-.43-.97-.97-.97h-10.47c-.53,0-.97.43-.97.97v5.11Zm7.12-8.58c0,.53.43.97.97.97h10.47c.53,0,.97-.44.97-.97v-5.11c0-.53-.44-.97-.97-.97h-10.47c-.53,0-.97.44-.97.97v5.11Zm27.66,0c0,.53.43.97.96.97h10.47c.53,0,.96-.44.96-.97v-5.11c0-.53-.43-.97-.96-.97h-10.47c-.53,0-.96.44-.96.97v5.11Zm-13.83,0c0,.53.44.97.97.97h10.47c.53,0,.97-.44.97-.97v-5.11c0-.53-.44-.97-.97-.97h-10.47c-.53,0-.97.44-.97.97v5.11Z"/><path class="cls-11" d="m2299.91,887.66c0-.53-.44-.96-.96-.96h-10.47c-.53,0-.96.43-.96.96v5.11c0,.53.44.97.96.97h10.47c.53,0,.96-.44.96-.97v-5.11Zm13.83,0c0-.53-.44-.96-.97-.96h-10.47c-.53,0-.96.43-.96.96v5.11c0,.53.43.97.96.97h10.47c.53,0,.97-.44.97-.97v-5.11Zm13.83,0c0-.53-.44-.96-.97-.96h-10.47c-.53,0-.97.43-.97.96v5.11c0,.53.44.97.97.97h10.47c.53,0,.97-.44.97-.97v-5.11Zm-7.12,8.58c0-.53-.44-.97-.97-.97h-10.47c-.53,0-.97.43-.97.97v5.11c0,.53.43.97.97.97h10.47c.53,0,.97-.43.97-.97v-5.11Zm-27.66,0c0-.53-.44-.97-.96-.97h-10.47c-.53,0-.96.43-.96.97v5.11c0,.53.43.97.96.97h10.47c.53,0,.96-.43.96-.97v-5.11Zm13.83,0c0-.53-.43-.97-.97-.97h-10.47c-.53,0-.97.43-.97.97v5.11c0,.53.44.97.97.97h10.47c.53,0,.97-.43.97-.97v-5.11Z"/><path class="cls-11" d="m2300.86,697.9c0-.53-.44-.97-.97-.97h-10.47c-.53,0-.97.44-.97.97v5.11c0,.53.44.97.97.97h10.47c.53,0,.97-.44.97-.97v-5.11Zm13.83,0c0-.53-.43-.97-.97-.97h-10.47c-.53,0-.97.44-.97.97v5.11c0,.53.44.97.97.97h10.47c.53,0,.97-.44.97-.97v-5.11Zm-20.95,8.58c0-.53-.44-.97-.97-.97h-10.47c-.53,0-.97.43-.97.97v5.11c0,.53.43.97.97.97h10.47c.53,0,.97-.43.97-.97v-5.11Z"/><path class="cls-11" d="m2468.59,894.28h-10.47c-.53,0-.97.44-.97.97v5.11c0,.53.43.97.97.97h10.47c.53,0,.96-.43.96-.97v-5.11c0-.53-.43-.97-.96-.97Zm13.83,0h-10.47c-.53,0-.97.44-.97.97v5.11c0,.53.44.97.97.97h10.47c.53,0,.96-.43.96-.97v-5.11c0-.53-.44-.97-.96-.97Zm-17.6-1.54h10.47c.53,0,.96-.44.96-.97v-5.11c0-.53-.44-.97-.96-.97h-10.47c-.53,0-.96.43-.96.97v5.11c0,.53.44.97.96.97Z"/><g><rect class="cls-9" x="2361.98" y="963.47" width="43.27" height="74.81"/><path class="cls-21" d="m2367.2,1016.02h32.42v-44.26h-32.42v44.26Z"/></g><path class="cls-11" d="m2325.62,777.33h10.47c.53,0,.97-.44.97-.97v-5.11c0-.53-.44-.97-.97-.97h-10.47c-.53,0-.97.43-.97.97v5.11c0,.53.43.97.97.97Zm13.83,0h10.47c.53,0,.96-.44.96-.97v-5.11c0-.53-.43-.97-.96-.97h-10.47c-.53,0-.97.43-.97.97v5.11c0,.53.44.97.97.97Zm17.18,1.54h-10.47c-.53,0-.96.43-.96.97v5.11c0,.53.44.97.96.97h10.47c.53,0,.96-.43.96-.97v-5.11c0-.53-.44-.97-.96-.97Zm-13.83,0h-10.47c-.53,0-.96.43-.96.97v5.11c0,.53.43.97.96.97h10.47c.53,0,.96-.43.96-.97v-5.11c0-.53-.43-.97-.96-.97Z"/><g><rect class="cls-21" x="2290.55" y="839.44" width="51.22" height="23.2" transform="translate(3167.19 -1465.12) rotate(90)"/><rect class="cls-14" x="2308.49" y="857.37" width="15.34" height="23.2" transform="translate(3185.13 -1447.19) rotate(90)"/><rect class="cls-11" x="2302.47" y="858.4" width="26.58" height="2.9"/></g><g><rect class="cls-11" x="2292.38" y="964.96" width="51.22" height="23.2" transform="translate(3294.55 -1341.42) rotate(90)"/><rect class="cls-17" x="2302.47" y="983.93" width="26.58" height="2.9"/></g><g><rect class="cls-11" x="2486.2" y="969.27" width="51.22" height="14.57" transform="translate(3488.37 -1535.25) rotate(90)"/><rect class="cls-21" x="2503.21" y="983.93" width="16.7" height="2.9"/></g><g><rect class="cls-11" x="2527.17" y="969.27" width="51.22" height="14.58" transform="translate(3529.34 -1576.22) rotate(90)"/><rect class="cls-21" x="2544.17" y="983.93" width="16.7" height="2.9"/></g><g><rect class="cls-21" x="2355.49" y="839.44" width="51.22" height="23.19" transform="translate(3232.13 -1530.06) rotate(90)"/><rect class="cls-14" x="2364.59" y="848.54" width="33.02" height="23.19" transform="translate(3241.23 -1520.96) rotate(90)"/><rect class="cls-11" x="2367.41" y="841.33" width="26.57" height="2.9"/></g><g><rect class="cls-11" x="2418.79" y="964.97" width="51.22" height="23.19" transform="translate(3420.96 -1467.83) rotate(90)"/><rect class="cls-17" x="2430.71" y="990.39" width="26.57" height="2.9"/></g><g><rect class="cls-21" x="2418.79" y="839.44" width="51.22" height="23.19" transform="translate(3295.43 -1593.36) rotate(90)"/><rect class="cls-14" x="2433.22" y="853.87" width="22.36" height="23.19" transform="translate(3309.86 -1578.93) rotate(90)"/><rect class="cls-11" x="2430.71" y="851.79" width="26.57" height="2.9"/></g><g><rect class="cls-21" x="2290.55" y="725.18" width="51.22" height="23.2" transform="translate(3052.93 -1579.38) rotate(90)"/><rect class="cls-14" x="2295.05" y="729.68" width="42.21" height="23.2" transform="translate(3057.44 -1574.88) rotate(90)"/><rect class="cls-11" x="2302.47" y="718.39" width="26.58" height="2.9"/></g><g><rect class="cls-21" x="2355.49" y="725.18" width="51.22" height="23.19" transform="translate(3117.87 -1644.32) rotate(90)"/><rect class="cls-14" x="2374.21" y="743.9" width="13.78" height="23.19" transform="translate(3136.59 -1625.6) rotate(90)"/><rect class="cls-11" x="2367.41" y="746.92" width="26.57" height="2.9"/></g><g><rect class="cls-11" x="2527.17" y="843.19" width="51.22" height="15.68" transform="translate(3403.81 -1701.74) rotate(90)"/><rect class="cls-11" x="2545.89" y="861.91" width="13.78" height="15.68" transform="translate(3422.53 -1683.02) rotate(90)"/><rect class="cls-21" x="2543.52" y="861.18" width="17.97" height="2.9"/></g><g><rect class="cls-21" x="2418.79" y="725.18" width="51.22" height="23.19" transform="translate(3181.17 -1707.62) rotate(90)"/><rect class="cls-14" x="2430.2" y="736.59" width="28.39" height="23.19" transform="translate(3192.58 -1696.21) rotate(90)"/><rect class="cls-11" x="2430.71" y="732.5" width="26.57" height="2.9"/></g><g><rect class="cls-14" x="2527.17" y="731.62" width="51.22" height="15.68" transform="translate(3292.23 -1813.32) rotate(90)"/><rect class="cls-14" x="2545.11" y="749.55" width="15.34" height="15.68" transform="translate(3310.17 -1795.38) rotate(90)"/><rect class="cls-21" x="2543.52" y="746.82" width="17.97" height="2.9"/></g><rect class="cls-14" x="2501.35" y="709.98" width="20.91" height="77.78"/><g><rect class="cls-11" x="2486.2" y="847.48" width="51.22" height="15.68" transform="translate(3367.13 -1656.48) rotate(90)"/><rect class="cls-11" x="2497.34" y="858.23" width="28.93" height="17.02" transform="translate(3378.55 -1645.07) rotate(90)"/><rect class="cls-21" x="2502.55" y="851.05" width="17.97" height="2.9"/></g><path class="cls-21" d="m2420.67,941.19h-55.79l-17.21,13.9c-1.57.6-1.14,2.93.54,2.93h55.26c.24,0,.49-.06.7-.17l16.5-16.66Z"/><polygon class="cls-11" points="2420.67 941.19 2403.84 958.02 2419.6 958.02 2420.67 941.19"/><g><rect class="cls-11" x="2494.17" y="876.41" width="44.26" height="2.28"/><rect class="cls-11" x="2507.64" y="876.41" width="30.78" height="2.28"/><rect class="cls-11" x="2495.04" y="878.42" width="1.61" height="21.46"/><rect class="cls-11" x="2499.87" y="878.42" width="1.61" height="21.46"/><rect class="cls-11" x="2504.69" y="878.42" width="1.61" height="21.46"/><rect class="cls-11" x="2510.26" y="878.42" width="1.61" height="21.46"/><rect class="cls-11" x="2516.23" y="878.42" width="1.61" height="21.46"/><rect class="cls-11" x="2522.2" y="878.42" width="1.61" height="21.46"/><rect class="cls-11" x="2528.17" y="878.42" width="1.61" height="21.46"/><rect class="cls-11" x="2534.13" y="878.42" width="1.61" height="21.46"/><rect class="cls-11" x="2491.5" y="899.76" width="46.39" height="4.02"/><rect class="cls-11" x="2491.5" y="899.76" width="13.67" height="4.02"/></g><g><rect class="cls-11" x="2494.17" y="760.54" width="44.26" height="2.28"/><rect class="cls-11" x="2507.64" y="760.54" width="30.78" height="2.28"/><rect class="cls-11" x="2495.04" y="762.55" width="1.61" height="21.46"/><rect class="cls-11" x="2499.87" y="762.55" width="1.61" height="21.46"/><rect class="cls-11" x="2504.69" y="762.55" width="1.61" height="21.46"/><rect class="cls-11" x="2510.26" y="762.55" width="1.61" height="21.46"/><rect class="cls-11" x="2516.23" y="762.55" width="1.61" height="21.46"/><rect class="cls-11" x="2522.2" y="762.55" width="1.61" height="21.46"/><rect class="cls-11" x="2528.17" y="762.55" width="1.61" height="21.46"/><rect class="cls-11" x="2534.13" y="762.55" width="1.61" height="21.46"/><rect class="cls-11" x="2491.5" y="783.89" width="46.39" height="4.02"/><rect class="cls-11" x="2491.5" y="783.89" width="13.67" height="4.02"/></g></g><g><g><rect class="cls-14" x="2608.53" y="613.77" width="5.22" height="68.71" rx="2.61" ry="2.61" transform="translate(-79.22 638.27) rotate(-13.73)"/><rect class="cls-14" x="2594.39" y="614.39" width="4.07" height="24.16" rx="2.04" ry="2.04" transform="translate(-74.5 634.16) rotate(-13.73)"/><rect class="cls-14" x="2586.47" y="614.39" width="4.07" height="24.16" rx="2.04" ry="2.04" transform="translate(-74.72 632.28) rotate(-13.73)"/><rect class="cls-14" x="2578.55" y="614.39" width="4.07" height="24.16" rx="2.04" ry="2.04" transform="translate(-74.95 630.4) rotate(-13.73)"/><rect class="cls-14" x="2628.79" y="614.39" width="4.07" height="24.16" rx="2.04" ry="2.04" transform="translate(-73.52 642.32) rotate(-13.73)"/><rect class="cls-14" x="2620.87" y="614.39" width="4.07" height="24.16" rx="2.04" ry="2.04" transform="translate(-73.74 640.44) rotate(-13.73)"/><rect class="cls-14" x="2612.95" y="614.39" width="4.07" height="24.16" rx="2.04" ry="2.04" transform="translate(-73.97 638.56) rotate(-13.73)"/><rect class="cls-14" x="2580.72" y="624.19" width="49.91" height="3.18"/></g><g><rect class="cls-14" x="2750.51" y="614.97" width="5.22" height="68.71" rx="2.61" ry="2.61" transform="translate(-75.44 672) rotate(-13.73)"/><rect class="cls-14" x="2744.8" y="625.04" width="4.07" height="29.68" rx="2.04" ry="2.04" transform="translate(3376.65 -2109.29) rotate(89.79)"/><rect class="cls-14" x="2747.08" y="617.33" width="4.07" height="29.68" rx="2.04" ry="2.04" transform="translate(3371.22 -2119.24) rotate(89.79)"/><rect class="cls-14" x="2749.36" y="609.63" width="4.07" height="29.68" rx="2.04" ry="2.04" transform="translate(3365.79 -2129.2) rotate(89.79)"/></g><g><path class="cls-14" d="m2706.92,641.9v8.97h1.41v-8.97h-1.41Zm-8.21,8.97h1.41v-8.97h-1.41v8.97Zm4.11,0h1.41v-8.97h-1.41v8.97Z"/><rect class="cls-14" x="2697.52" y="648.57" width="12" height="30.9" rx="2.86" ry="2.86"/><path class="cls-14" d="m2702.34,633.42l-7.16,6.25c-1.25,1.09-.48,3.14,1.18,3.14h14.32c1.66,0,2.42-2.05,1.18-3.14l-7.16-6.25c-.67-.59-1.68-.59-2.36,0Z"/></g><rect class="cls-9" x="2533.4" y="688.78" width="299.6" height="349.1"/><rect class="cls-9" x="2533.4" y="910.61" width="299.6" height="127.27"/><rect class="cls-21" x="2744.32" y="688.78" width="88.68" height="349.1"/><rect class="cls-21" x="2744.32" y="910.61" width="88.68" height="127.27"/><g><rect class="cls-21" x="2531.89" y="907.79" width="302.61" height="9.92"/><rect class="cls-21" x="2527.6" y="903.78" width="311.2" height="4.02"/></g><g><rect class="cls-21" x="2531.89" y="791.92" width="302.61" height="9.92"/><rect class="cls-21" x="2527.6" y="787.91" width="311.2" height="4.02"/></g><g><rect class="cls-21" x="2531.89" y="672.69" width="302.61" height="17.7"/><rect class="cls-21" x="2524.38" y="660.63" width="317.64" height="17.43"/></g><g><rect class="cls-9" x="2746.63" y="907.79" width="93.08" height="9.92"/><rect class="cls-9" x="2749.29" y="903.78" width="91.78" height="4.02"/></g><g><rect class="cls-9" x="2746.63" y="791.92" width="93.08" height="9.92"/><rect class="cls-9" x="2749.29" y="787.91" width="91.78" height="4.02"/></g><g><rect class="cls-9" x="2746.63" y="677.93" width="93.08" height="12.46"/><rect class="cls-9" x="2748.34" y="660.63" width="93.68" height="17.43"/></g><path class="cls-11" d="m2713.2,706.23c0,.53.43.97.97.97h10.47c.53,0,.96-.43.96-.97v-5.11c0-.53-.44-.97-.96-.97h-10.47c-.53,0-.97.44-.97.97v5.11Zm13.83,0c0,.53.44.97.96.97h10.47c.53,0,.96-.43.96-.97v-5.11c0-.53-.44-.97-.96-.97h-10.47c-.53,0-.96.44-.96.97v5.11Z"/><path class="cls-11" d="m2721.94,826.79c0,.53.44.97.96.97h10.47c.53,0,.96-.43.96-.97v-5.11c0-.53-.44-.97-.96-.97h-10.47c-.53,0-.96.43-.96.97v5.11Zm-27.66,0c0,.53.44.97.97.97h10.47c.53,0,.97-.43.97-.97v-5.11c0-.53-.43-.97-.97-.97h-10.47c-.53,0-.97.43-.97.97v5.11Zm7.12-8.58c0,.53.43.97.97.97h10.47c.53,0,.97-.44.97-.97v-5.11c0-.53-.44-.97-.97-.97h-10.47c-.53,0-.97.44-.97.97v5.11Zm27.66,0c0,.53.43.97.96.97h10.47c.53,0,.96-.44.96-.97v-5.11c0-.53-.43-.97-.96-.97h-10.47c-.53,0-.96.44-.96.97v5.11Zm-13.83,0c0,.53.44.97.97.97h10.47c.53,0,.97-.44.97-.97v-5.11c0-.53-.44-.97-.97-.97h-10.47c-.53,0-.97.44-.97.97v5.11Z"/><path class="cls-11" d="m2557.7,887.66c0-.53-.44-.96-.96-.96h-10.47c-.53,0-.96.43-.96.96v5.11c0,.53.44.97.96.97h10.47c.53,0,.96-.44.96-.97v-5.11Zm13.83,0c0-.53-.44-.96-.97-.96h-10.47c-.53,0-.96.43-.96.96v5.11c0,.53.43.97.96.97h10.47c.53,0,.97-.44.97-.97v-5.11Zm13.83,0c0-.53-.44-.96-.97-.96h-10.47c-.53,0-.97.43-.97.96v5.11c0,.53.44.97.97.97h10.47c.53,0,.97-.44.97-.97v-5.11Zm-7.12,8.58c0-.53-.44-.97-.97-.97h-10.47c-.53,0-.97.43-.97.97v5.11c0,.53.43.97.97.97h10.47c.53,0,.97-.43.97-.97v-5.11Zm-27.66,0c0-.53-.44-.97-.96-.97h-10.47c-.53,0-.96.43-.96.97v5.11c0,.53.43.97.96.97h10.47c.53,0,.96-.43.96-.97v-5.11Zm13.83,0c0-.53-.43-.97-.97-.97h-10.47c-.53,0-.97.43-.97.97v5.11c0,.53.44.97.97.97h10.47c.53,0,.97-.43.97-.97v-5.11Z"/><path class="cls-11" d="m2558.66,697.9c0-.53-.44-.97-.97-.97h-10.47c-.53,0-.97.44-.97.97v5.11c0,.53.44.97.97.97h10.47c.53,0,.97-.44.97-.97v-5.11Zm13.83,0c0-.53-.43-.97-.97-.97h-10.47c-.53,0-.97.44-.97.97v5.11c0,.53.44.97.97.97h10.47c.53,0,.97-.44.97-.97v-5.11Zm-20.95,8.58c0-.53-.44-.97-.97-.97h-10.47c-.53,0-.97.43-.97.97v5.11c0,.53.43.97.97.97h10.47c.53,0,.97-.43.97-.97v-5.11Z"/><path class="cls-11" d="m2726.39,894.28h-10.47c-.53,0-.97.44-.97.97v5.11c0,.53.43.97.97.97h10.47c.53,0,.96-.43.96-.97v-5.11c0-.53-.43-.97-.96-.97Zm13.83,0h-10.47c-.53,0-.97.44-.97.97v5.11c0,.53.44.97.97.97h10.47c.53,0,.96-.43.96-.97v-5.11c0-.53-.44-.97-.96-.97Zm-17.6-1.54h10.47c.53,0,.96-.44.96-.97v-5.11c0-.53-.44-.97-.96-.97h-10.47c-.53,0-.96.43-.96.97v5.11c0,.53.44.97.96.97Z"/><g><rect class="cls-11" x="2619.78" y="963.47" width="43.27" height="74.81"/><path class="cls-21" d="m2625,1016.02h32.42v-44.26h-32.42v44.26Z"/></g><path class="cls-11" d="m2583.41,777.33h10.47c.53,0,.97-.44.97-.97v-5.11c0-.53-.44-.97-.97-.97h-10.47c-.53,0-.97.43-.97.97v5.11c0,.53.43.97.97.97Zm13.83,0h10.47c.53,0,.96-.44.96-.97v-5.11c0-.53-.43-.97-.96-.97h-10.47c-.53,0-.97.43-.97.97v5.11c0,.53.44.97.97.97Zm17.18,1.54h-10.47c-.53,0-.96.43-.96.97v5.11c0,.53.44.97.96.97h10.47c.53,0,.96-.43.96-.97v-5.11c0-.53-.44-.97-.96-.97Zm-13.83,0h-10.47c-.53,0-.96.43-.96.97v5.11c0,.53.43.97.96.97h10.47c.53,0,.96-.43.96-.97v-5.11c0-.53-.43-.97-.96-.97Z"/><g><rect class="cls-21" x="2548.35" y="839.44" width="51.22" height="23.2" transform="translate(3424.99 -1722.92) rotate(90)"/><rect class="cls-14" x="2566.29" y="857.37" width="15.34" height="23.2" transform="translate(3442.93 -1704.98) rotate(90)"/><rect class="cls-9" x="2560.27" y="858.4" width="26.58" height="2.9"/></g><g><rect class="cls-11" x="2550.17" y="964.96" width="51.22" height="23.2" transform="translate(3552.34 -1599.22) rotate(90)"/><rect class="cls-9" x="2562.59" y="984.22" width="26.58" height="2.9"/></g><g><rect class="cls-11" x="2744" y="969.27" width="51.22" height="14.57" transform="translate(3746.17 -1793.05) rotate(90)"/><rect class="cls-21" x="2761" y="983.93" width="16.7" height="2.9"/></g><g><rect class="cls-11" x="2784.97" y="969.27" width="51.22" height="14.58" transform="translate(3787.14 -1834.01) rotate(90)"/><rect class="cls-21" x="2801.97" y="983.93" width="16.7" height="2.9"/></g><g><rect class="cls-21" x="2613.28" y="839.44" width="51.22" height="23.19" transform="translate(3489.93 -1787.86) rotate(90)"/><rect class="cls-14" x="2622.38" y="848.54" width="33.02" height="23.19" transform="translate(3499.03 -1778.76) rotate(90)"/><rect class="cls-9" x="2625.2" y="841.33" width="26.57" height="2.9"/></g><g><rect class="cls-11" x="2676.58" y="964.97" width="51.22" height="23.19" transform="translate(3678.75 -1725.63) rotate(90)"/><rect class="cls-9" x="2688.5" y="990.39" width="26.57" height="2.9"/></g><g><rect class="cls-21" x="2676.58" y="839.44" width="51.22" height="23.19" transform="translate(3553.23 -1851.16) rotate(90)"/><rect class="cls-14" x="2691.01" y="853.87" width="22.36" height="23.19" transform="translate(3567.66 -1836.73) rotate(90)"/><rect class="cls-9" x="2688.5" y="851.79" width="26.57" height="2.9"/></g><g><rect class="cls-21" x="2548.35" y="725.18" width="51.22" height="23.2" transform="translate(3310.73 -1837.18) rotate(90)"/><rect class="cls-14" x="2552.85" y="729.68" width="42.21" height="23.2" transform="translate(3315.23 -1832.68) rotate(90)"/><rect class="cls-9" x="2560.27" y="718.39" width="26.58" height="2.9"/></g><g><rect class="cls-21" x="2613.28" y="725.18" width="51.22" height="23.19" transform="translate(3375.67 -1902.12) rotate(90)"/><rect class="cls-14" x="2632.01" y="743.9" width="13.78" height="23.19" transform="translate(3394.39 -1883.4) rotate(90)"/><rect class="cls-9" x="2625.2" y="746.92" width="26.57" height="2.9"/></g><g><rect class="cls-14" x="2784.97" y="843.19" width="51.22" height="15.68" transform="translate(3661.61 -1959.54) rotate(90)"/><rect class="cls-14" x="2803.69" y="861.91" width="13.78" height="15.68" transform="translate(3680.33 -1940.82) rotate(90)"/><rect class="cls-21" x="2801.32" y="861.18" width="17.97" height="2.9"/></g><g><rect class="cls-21" x="2676.58" y="725.18" width="51.22" height="23.19" transform="translate(3438.97 -1965.42) rotate(90)"/><rect class="cls-14" x="2688" y="736.59" width="28.39" height="23.19" transform="translate(3450.38 -1954.01) rotate(90)"/><rect class="cls-9" x="2688.5" y="732.5" width="26.57" height="2.9"/></g><g><rect class="cls-14" x="2784.97" y="731.62" width="51.22" height="15.68" transform="translate(3550.03 -2071.12) rotate(90)"/><rect class="cls-14" x="2802.91" y="749.55" width="15.34" height="15.68" transform="translate(3567.97 -2053.18) rotate(90)"/><rect class="cls-21" x="2801.32" y="746.82" width="17.97" height="2.9"/></g><rect class="cls-14" x="2759.15" y="709.98" width="20.91" height="77.78"/><g><rect class="cls-14" x="2744" y="847.48" width="51.22" height="15.68" transform="translate(3624.93 -1914.28) rotate(90)"/><rect class="cls-14" x="2755.14" y="858.23" width="28.93" height="17.02" transform="translate(3636.34 -1902.87) rotate(90)"/><rect class="cls-21" x="2760.35" y="851.05" width="17.97" height="2.9"/></g><path class="cls-21" d="m2678.47,941.19h-55.79l-17.21,13.9c-1.57.6-1.14,2.93.54,2.93h55.26c.24,0,.49-.06.7-.17l16.5-16.66Z"/><polygon class="cls-11" points="2678.47 941.19 2661.64 958.02 2677.4 958.02 2678.47 941.19"/><g><rect class="cls-11" x="2751.96" y="876.41" width="44.26" height="2.28"/><rect class="cls-11" x="2765.44" y="876.41" width="30.78" height="2.28"/><rect class="cls-11" x="2752.84" y="878.42" width="1.61" height="21.46"/><rect class="cls-11" x="2757.66" y="878.42" width="1.61" height="21.46"/><rect class="cls-11" x="2762.49" y="878.42" width="1.61" height="21.46"/><rect class="cls-11" x="2768.06" y="878.42" width="1.61" height="21.46"/><rect class="cls-11" x="2774.03" y="878.42" width="1.61" height="21.46"/><rect class="cls-11" x="2779.99" y="878.42" width="1.61" height="21.46"/><rect class="cls-11" x="2785.96" y="878.42" width="1.61" height="21.46"/><rect class="cls-11" x="2791.93" y="878.42" width="1.61" height="21.46"/><rect class="cls-11" x="2749.29" y="899.76" width="46.39" height="4.02"/><rect class="cls-11" x="2749.29" y="899.76" width="13.67" height="4.02"/></g><g><rect class="cls-11" x="2751.96" y="760.54" width="44.26" height="2.28"/><rect class="cls-11" x="2765.44" y="760.54" width="30.78" height="2.28"/><rect class="cls-11" x="2752.84" y="762.55" width="1.61" height="21.46"/><rect class="cls-11" x="2757.66" y="762.55" width="1.61" height="21.46"/><rect class="cls-11" x="2762.49" y="762.55" width="1.61" height="21.46"/><rect class="cls-11" x="2768.06" y="762.55" width="1.61" height="21.46"/><rect class="cls-11" x="2774.03" y="762.55" width="1.61" height="21.46"/><rect class="cls-11" x="2779.99" y="762.55" width="1.61" height="21.46"/><rect class="cls-11" x="2785.96" y="762.55" width="1.61" height="21.46"/><rect class="cls-11" x="2791.93" y="762.55" width="1.61" height="21.46"/><rect class="cls-11" x="2749.29" y="783.89" width="46.39" height="4.02"/><rect class="cls-11" x="2749.29" y="783.89" width="13.67" height="4.02"/></g></g></g><g><polygon class="cls-11" points="2837.68 934.39 2690.77 934.39 2764.22 653.89 2837.68 934.39"/><rect class="cls-11" x="2755.83" y="903.37" width="16.78" height="133.51"/></g><g><polygon class="cls-21" points="2882.41 961.56 2761.76 961.56 2822.08 731.2 2882.41 961.56"/><rect class="cls-21" x="2813.69" y="903.37" width="16.78" height="133.51"/></g><g><g><path class="cls-15" d="m2230.14,691.15c-.25,0-.49-.08-.7-.25-.48-.39-.55-1.09-.17-1.57l16.82-20.79c.39-.48,1.09-.55,1.57-.17.48.39.55,1.09.17,1.57l-16.82,20.79c-.22.27-.54.41-.87.41Z"/><path class="cls-15" d="m2235.84,691.02c-.25,0-.5-.08-.71-.26-.47-.39-.54-1.1-.14-1.57l10.28-12.3c.39-.47,1.1-.54,1.57-.14.47.39.54,1.1.14,1.57l-10.28,12.3c-.22.26-.54.4-.85.4Z"/><path class="cls-15" d="m2241.99,691.16c-.27,0-.53-.09-.75-.29-.46-.41-.49-1.12-.08-1.57l4.04-4.48c.41-.46,1.12-.49,1.57-.08.46.41.49,1.12.08,1.57l-4.04,4.48c-.22.24-.52.37-.83.37Z"/></g><g><path class="cls-15" d="m2249.98,905.51c-.23,0-.47-.07-.67-.22-.49-.37-.59-1.07-.22-1.56l21.39-28.58c.37-.49,1.07-.59,1.56-.22.49.37.59,1.07.22,1.56l-21.39,28.58c-.22.29-.55.45-.89.45Z"/><path class="cls-15" d="m2249.98,897.49c-.22,0-.45-.07-.64-.2-.5-.35-.62-1.05-.27-1.55l10.7-15.12c.36-.5,1.05-.62,1.55-.27.5.35.62,1.05.27,1.55l-10.7,15.12c-.22.31-.56.47-.91.47Z"/><path class="cls-15" d="m2249.98,888.25c-.23,0-.46-.07-.66-.21-.5-.36-.6-1.06-.24-1.56l4.95-6.76c.36-.5,1.06-.6,1.56-.24.5.36.6,1.06.24,1.56l-4.95,6.76c-.22.3-.56.46-.9.46Z"/></g><rect class="cls-20" x="2245.79" y="659.12" width="29.77" height="223.43" rx="2.23" ry="2.23"/><rect class="cls-8" x="2170.1" y="690.04" width="80.62" height="67.58"/><rect class="cls-8" x="2170.1" y="757.62" width="80.62" height="67.58"/><rect class="cls-8" x="2170.1" y="825.19" width="80.62" height="67.58"/><rect class="cls-8" x="2170.1" y="892.77" width="80.62" height="67.58"/><g><g><rect class="cls-21" x="2174.15" y="693.63" width="71.64" height="60.33"/><path class="cls-11" d="m2248.23,756.4h-76.53v-65.22h76.53v65.22Zm-71.64-4.89h66.75v-55.44h-66.75v55.44Z"/></g><g><rect class="cls-21" x="2174.15" y="761.28" width="71.64" height="60.33"/><path class="cls-11" d="m2248.23,824.05h-76.53v-65.22h76.53v65.22Zm-71.64-4.89h66.75v-55.44h-66.75v55.44Z"/></g><g><rect class="cls-21" x="2174.15" y="828.82" width="71.64" height="60.33"/><path class="cls-11" d="m2248.23,891.59h-76.53v-65.22h76.53v65.22Zm-71.64-4.89h66.75v-55.44h-66.75v55.44Z"/></g><g><rect class="cls-21" x="2174.15" y="896.39" width="71.64" height="60.33"/><path class="cls-11" d="m2248.23,959.17h-76.53v-65.22h76.53v65.22Zm-71.64-4.89h66.75v-55.44h-66.75v55.44Z"/></g></g><path class="cls-4" d="m2237.4,739.25s-6.08-35.41-6.59-37.16c-.53-1.83-1.94-2.93-3.68-3.12-1.75-.19-3.52-.19-5.07,0-1.64.2-2.95,1.27-3.58,2.7-.52,1.19-5.58,18.7-7.33,24.75-.59,2.04-.59,5.29-.59,5.29,0,0,0-3.25-.59-5.29-1.74-6.05-6.8-23.56-7.33-24.75-.63-1.43-1.94-2.5-3.58-2.7-1.55-.19-3.33-.19-5.07,0-1.74.19-3.15,1.29-3.68,3.12-.52,1.76-6.59,37.16-6.59,37.16-.37,2.06.99,4.04,3.01,4.41,2.03.37,3.97-1,4.34-3.06,0,0,4.99-28.15,5.35-30.19.36-2.04.25-4.21.25-4.21,0,0,.13,2.12.72,4.16,8.61,29.61,8.62,29.52,9.07,30.66.54,1.41,2.04,2.54,3.58,2.7.16.02.33.02.51.03.18,0,.36-.01.52-.03,1.53-.16,3.03-1.3,3.58-2.7.44-1.14.45-1.05,9.06-30.66.59-2.04.73-4.16.73-4.16,0,0-.12,2.17.24,4.21.37,2.04,5.36,30.19,5.36,30.19.37,2.06,2.32,3.43,4.34,3.06,2.04-.37,3.39-2.34,3.02-4.41Z"/><path class="cls-4" d="m2210.57,816.1c-12.7,0-20.59-8.89-20.59-23.18s7.89-23.18,20.59-23.18,20.6,8.88,20.6,23.18-7.89,23.18-20.6,23.18Zm0-38.78c-11.42,0-13.13,9.78-13.13,15.6s1.71,15.59,13.13,15.59,13.12-9.77,13.12-15.59-1.7-15.6-13.12-15.6Z"/><path class="cls-4" d="m2210.57,882.16c-12.71,0-20.6-8.89-20.6-23.18s7.89-23.18,20.6-23.18,20.6,8.88,20.6,23.18-7.89,23.18-20.6,23.18Zm0-38.78c-11.42,0-13.13,9.78-13.13,15.6s1.71,15.59,13.13,15.59,13.13-9.77,13.13-15.59-1.71-15.6-13.13-15.6Z"/><path class="cls-4" d="m2227.72,908.02c-1.93-.76-4.09.23-4.82,2.19,0,0-9.75,25.88-11.88,31.63-.44,1.2-.42,2.43-.44,2.48-.02-.05,0-1.28-.44-2.49-2.12-5.76-11.88-31.62-11.88-31.62-.74-1.96-2.9-2.95-4.82-2.19-1.93.74-2.9,2.93-2.16,4.9,0,0,13.32,35.82,13.96,37.16.66,1.38,2.07,2.28,3.49,2.44.34.04,1.27.11,1.86.11s1.52-.07,1.86-.11c1.42-.17,2.84-1.06,3.49-2.44.64-1.34,13.96-37.16,13.96-37.16.73-1.96-.23-4.15-2.16-4.9Z"/></g></g></g></g></g></svg>