<?xml version="1.0" encoding="UTF-8"?><svg id="Layer_2" xmlns="http://www.w3.org/2000/svg" viewBox="0 0 6484.95 804.29"><defs><style>.cls-1{fill:#e6e7e8;}.cls-2{fill:#fff;}.cls-3{fill:#f1f2f2;}.cls-4{fill:#ffd686;}.cls-5{fill:#9ed5e9;}.cls-6{fill:#84a2d4;}.cls-7{fill:#8fcff1;}.cls-8{fill:#105661;}.cls-9{fill:#224090;}.cls-10{fill:#6d6e71;}.cls-11{fill:#808285;}.cls-12{fill:#283e51;}.cls-13{fill:#2c4fa1;}.cls-14{fill:#2d83aa;}.cls-15{fill:#5a595c;}.cls-16{fill:#59c1ac;}.cls-17{fill:#3b5eaa;}.cls-18{fill:#44ade2;}</style></defs><g id="_ÎÓÈ_1"><g><path class="cls-5" d="m6484.95,484.28h-3296.34v320.01h3296.34v-320.01Z"/><rect class="cls-8" x="3234.3" y="536.35" width="3250.65" height="59.36"/><g><rect class="cls-8" x="3234.3" y="480.31" width="1631.47" height="14.25"/><g><path class="cls-8" d="m3242.47,473.59h0c4.51,0,8.17,3.66,8.17,8.17v60.16h-16.34v-60.16c0-4.51,3.66-8.17,8.17-8.17Z"/><path class="cls-8" d="m3357.92,473.59h0c4.51,0,8.17,3.66,8.17,8.17v60.16h-16.34v-60.16c0-4.51,3.66-8.17,8.17-8.17Z"/><rect class="cls-8" x="3261.1" y="491.27" width="11.32" height="50.66"/><rect class="cls-8" x="3283.52" y="491.27" width="11.32" height="50.66"/><rect class="cls-8" x="3305.94" y="491.27" width="11.32" height="50.66"/><rect class="cls-8" x="3328.35" y="491.27" width="11.32" height="50.66"/></g><g><path class="cls-8" d="m3357.92,473.59h0c4.51,0,8.17,3.66,8.17,8.17v60.16h-16.34v-60.16c0-4.51,3.66-8.17,8.17-8.17Z"/><path class="cls-8" d="m3473.37,473.59h0c4.51,0,8.17,3.66,8.17,8.17v60.16h-16.34v-60.16c0-4.51,3.66-8.17,8.17-8.17Z"/><rect class="cls-8" x="3376.55" y="491.27" width="11.32" height="50.66"/><rect class="cls-8" x="3398.97" y="491.27" width="11.32" height="50.66"/><rect class="cls-8" x="3421.39" y="491.27" width="11.32" height="50.66"/><rect class="cls-8" x="3443.8" y="491.27" width="11.32" height="50.66"/></g><g><path class="cls-8" d="m3473.44,473.59h0c4.51,0,8.17,3.66,8.17,8.17v60.16h-16.34v-60.16c0-4.51,3.66-8.17,8.17-8.17Z"/><path class="cls-8" d="m3588.89,473.59h0c4.51,0,8.17,3.66,8.17,8.17v60.16h-16.34v-60.16c0-4.51,3.66-8.17,8.17-8.17Z"/><rect class="cls-8" x="3492.06" y="491.27" width="11.32" height="50.66"/><rect class="cls-8" x="3514.48" y="491.27" width="11.32" height="50.66"/><rect class="cls-8" x="3536.9" y="491.27" width="11.32" height="50.66"/><rect class="cls-8" x="3559.32" y="491.27" width="11.32" height="50.66"/></g><g><path class="cls-8" d="m3588.95,473.59h0c4.51,0,8.17,3.66,8.17,8.17v60.16h-16.34v-60.16c0-4.51,3.66-8.17,8.17-8.17Z"/><path class="cls-8" d="m3704.4,473.59h0c4.51,0,8.17,3.66,8.17,8.17v60.16h-16.34v-60.16c0-4.51,3.66-8.17,8.17-8.17Z"/><rect class="cls-8" x="3607.58" y="491.27" width="11.32" height="50.66"/><rect class="cls-8" x="3629.99" y="491.27" width="11.32" height="50.66"/><rect class="cls-8" x="3652.41" y="491.27" width="11.32" height="50.66"/><rect class="cls-8" x="3674.83" y="491.27" width="11.32" height="50.66"/></g><g><path class="cls-8" d="m3704.46,473.59h0c4.51,0,8.17,3.66,8.17,8.17v60.16h-16.34v-60.16c0-4.51,3.66-8.17,8.17-8.17Z"/><path class="cls-8" d="m3819.91,473.59h0c4.51,0,8.17,3.66,8.17,8.17v60.16h-16.34v-60.16c0-4.51,3.66-8.17,8.17-8.17Z"/><rect class="cls-8" x="3723.09" y="491.27" width="11.32" height="50.66"/><rect class="cls-8" x="3745.51" y="491.27" width="11.32" height="50.66"/><rect class="cls-8" x="3767.92" y="491.27" width="11.32" height="50.66"/><rect class="cls-8" x="3790.34" y="491.27" width="11.32" height="50.66"/></g><g><path class="cls-8" d="m3819.98,473.59h0c4.51,0,8.17,3.66,8.17,8.17v60.16h-16.34v-60.16c0-4.51,3.66-8.17,8.17-8.17Z"/><path class="cls-8" d="m3935.43,473.59h0c4.51,0,8.17,3.66,8.17,8.17v60.16h-16.34v-60.16c0-4.51,3.66-8.17,8.17-8.17Z"/><rect class="cls-8" x="3838.6" y="491.27" width="11.32" height="50.66"/><rect class="cls-8" x="3861.02" y="491.27" width="11.32" height="50.66"/><rect class="cls-8" x="3883.44" y="491.27" width="11.32" height="50.66"/><rect class="cls-8" x="3905.86" y="491.27" width="11.32" height="50.66"/></g><g><path class="cls-8" d="m3935.49,473.59h0c4.51,0,8.17,3.66,8.17,8.17v60.16h-16.34v-60.16c0-4.51,3.66-8.17,8.17-8.17Z"/><path class="cls-8" d="m4050.94,473.59h0c4.51,0,8.17,3.66,8.17,8.17v60.16h-16.34v-60.16c0-4.51,3.66-8.17,8.17-8.17Z"/><rect class="cls-8" x="3954.11" y="491.27" width="11.32" height="50.66"/><rect class="cls-8" x="3976.53" y="491.27" width="11.32" height="50.66"/><rect class="cls-8" x="3998.95" y="491.27" width="11.32" height="50.66"/><rect class="cls-8" x="4021.37" y="491.27" width="11.32" height="50.66"/></g><g><path class="cls-8" d="m4051,473.59h0c4.51,0,8.17,3.66,8.17,8.17v60.16h-16.34v-60.16c0-4.51,3.66-8.17,8.17-8.17Z"/><path class="cls-8" d="m4166.45,473.59h0c4.51,0,8.17,3.66,8.17,8.17v60.16h-16.34v-60.16c0-4.51,3.66-8.17,8.17-8.17Z"/><rect class="cls-8" x="4069.63" y="491.27" width="11.32" height="50.66"/><rect class="cls-8" x="4092.04" y="491.27" width="11.32" height="50.66"/><rect class="cls-8" x="4114.46" y="491.27" width="11.32" height="50.66"/><rect class="cls-8" x="4136.88" y="491.27" width="11.32" height="50.66"/></g><g><path class="cls-8" d="m4166.51,473.59h0c4.51,0,8.17,3.66,8.17,8.17v60.16h-16.34v-60.16c0-4.51,3.66-8.17,8.17-8.17Z"/><path class="cls-8" d="m4281.96,473.59h0c4.51,0,8.17,3.66,8.17,8.17v60.16h-16.34v-60.16c0-4.51,3.66-8.17,8.17-8.17Z"/><rect class="cls-8" x="4185.14" y="491.27" width="11.32" height="50.66"/><rect class="cls-8" x="4207.56" y="491.27" width="11.32" height="50.66"/><rect class="cls-8" x="4229.98" y="491.27" width="11.32" height="50.66"/><rect class="cls-8" x="4252.39" y="491.27" width="11.32" height="50.66"/></g><g><path class="cls-8" d="m4282.03,473.59h0c4.51,0,8.17,3.66,8.17,8.17v60.16h-16.34v-60.16c0-4.51,3.66-8.17,8.17-8.17Z"/><path class="cls-8" d="m4397.48,473.59h0c4.51,0,8.17,3.66,8.17,8.17v60.16h-16.34v-60.16c0-4.51,3.66-8.17,8.17-8.17Z"/><rect class="cls-8" x="4300.65" y="491.27" width="11.32" height="50.66"/><rect class="cls-8" x="4323.07" y="491.27" width="11.32" height="50.66"/><rect class="cls-8" x="4345.49" y="491.27" width="11.32" height="50.66"/><rect class="cls-8" x="4367.91" y="491.27" width="11.32" height="50.66"/></g><g><path class="cls-8" d="m4397.54,473.59h0c4.51,0,8.17,3.66,8.17,8.17v60.16h-16.34v-60.16c0-4.51,3.66-8.17,8.17-8.17Z"/><path class="cls-8" d="m4512.99,473.59h0c4.51,0,8.17,3.66,8.17,8.17v60.16h-16.34v-60.16c0-4.51,3.66-8.17,8.17-8.17Z"/><rect class="cls-8" x="4416.16" y="491.27" width="11.32" height="50.66"/><rect class="cls-8" x="4438.58" y="491.27" width="11.32" height="50.66"/><rect class="cls-8" x="4461" y="491.27" width="11.32" height="50.66"/><rect class="cls-8" x="4483.42" y="491.27" width="11.32" height="50.66"/></g><g><path class="cls-8" d="m4513.05,473.59h0c4.51,0,8.17,3.66,8.17,8.17v60.16h-16.34v-60.16c0-4.51,3.66-8.17,8.17-8.17Z"/><path class="cls-8" d="m4628.5,473.59h0c4.51,0,8.17,3.66,8.17,8.17v60.16h-16.34v-60.16c0-4.51,3.66-8.17,8.17-8.17Z"/><rect class="cls-8" x="4531.68" y="491.27" width="11.32" height="50.66"/><rect class="cls-8" x="4554.1" y="491.27" width="11.32" height="50.66"/><rect class="cls-8" x="4576.51" y="491.27" width="11.32" height="50.66"/><rect class="cls-8" x="4598.93" y="491.27" width="11.32" height="50.66"/></g><g><path class="cls-8" d="m4628.56,473.59h0c4.51,0,8.17,3.66,8.17,8.17v60.16h-16.34v-60.16c0-4.51,3.66-8.17,8.17-8.17Z"/><path class="cls-8" d="m4744.02,473.59h0c4.51,0,8.17,3.66,8.17,8.17v60.16h-16.34v-60.16c0-4.51,3.66-8.17,8.17-8.17Z"/><rect class="cls-8" x="4647.19" y="491.27" width="11.32" height="50.66"/><rect class="cls-8" x="4669.61" y="491.27" width="11.32" height="50.66"/><rect class="cls-8" x="4692.03" y="491.27" width="11.32" height="50.66"/><rect class="cls-8" x="4714.45" y="491.27" width="11.32" height="50.66"/></g><g><path class="cls-8" d="m4744.08,473.59h0c4.51,0,8.17,3.66,8.17,8.17v60.16h-16.34v-60.16c0-4.51,3.66-8.17,8.17-8.17Z"/><path class="cls-8" d="m4859.53,473.59h0c4.51,0,8.17,3.66,8.17,8.17v60.16h-16.34v-60.16c0-4.51,3.66-8.17,8.17-8.17Z"/><rect class="cls-8" x="4762.7" y="491.27" width="11.32" height="50.66"/><rect class="cls-8" x="4785.12" y="491.27" width="11.32" height="50.66"/><rect class="cls-8" x="4807.54" y="491.27" width="11.32" height="50.66"/><rect class="cls-8" x="4829.96" y="491.27" width="11.32" height="50.66"/></g></g><g><rect class="cls-8" x="4851.55" y="480.31" width="1631.47" height="14.25"/><g><path class="cls-8" d="m4859.72,473.59h0c4.51,0,8.17,3.66,8.17,8.17v60.16h-16.34v-60.16c0-4.51,3.66-8.17,8.17-8.17Z"/><path class="cls-8" d="m4975.17,473.59h0c4.51,0,8.17,3.66,8.17,8.17v60.16h-16.34v-60.16c0-4.51,3.66-8.17,8.17-8.17Z"/><rect class="cls-8" x="4878.35" y="491.27" width="11.32" height="50.66"/><rect class="cls-8" x="4900.77" y="491.27" width="11.32" height="50.66"/><rect class="cls-8" x="4923.18" y="491.27" width="11.32" height="50.66"/><rect class="cls-8" x="4945.6" y="491.27" width="11.32" height="50.66"/></g><g><path class="cls-8" d="m4975.17,473.59h0c4.51,0,8.17,3.66,8.17,8.17v60.16h-16.34v-60.16c0-4.51,3.66-8.17,8.17-8.17Z"/><path class="cls-8" d="m5090.62,473.59h0c4.51,0,8.17,3.66,8.17,8.17v60.16h-16.34v-60.16c0-4.51,3.66-8.17,8.17-8.17Z"/><rect class="cls-8" x="4993.8" y="491.27" width="11.32" height="50.66"/><rect class="cls-8" x="5016.22" y="491.27" width="11.32" height="50.66"/><rect class="cls-8" x="5038.63" y="491.27" width="11.32" height="50.66"/><rect class="cls-8" x="5061.05" y="491.27" width="11.32" height="50.66"/></g><g><path class="cls-8" d="m5090.68,473.59h0c4.51,0,8.17,3.66,8.17,8.17v60.16h-16.34v-60.16c0-4.51,3.66-8.17,8.17-8.17Z"/><path class="cls-8" d="m5206.13,473.59h0c4.51,0,8.17,3.66,8.17,8.17v60.16h-16.34v-60.16c0-4.51,3.66-8.17,8.17-8.17Z"/><rect class="cls-8" x="5109.31" y="491.27" width="11.32" height="50.66"/><rect class="cls-8" x="5131.73" y="491.27" width="11.32" height="50.66"/><rect class="cls-8" x="5154.15" y="491.27" width="11.32" height="50.66"/><rect class="cls-8" x="5176.57" y="491.27" width="11.32" height="50.66"/></g><g><path class="cls-8" d="m5206.2,473.59h0c4.51,0,8.17,3.66,8.17,8.17v60.16h-16.34v-60.16c0-4.51,3.66-8.17,8.17-8.17Z"/><path class="cls-8" d="m5321.65,473.59h0c4.51,0,8.17,3.66,8.17,8.17v60.16h-16.34v-60.16c0-4.51,3.66-8.17,8.17-8.17Z"/><rect class="cls-8" x="5224.82" y="491.27" width="11.32" height="50.66"/><rect class="cls-8" x="5247.24" y="491.27" width="11.32" height="50.66"/><rect class="cls-8" x="5269.66" y="491.27" width="11.32" height="50.66"/><rect class="cls-8" x="5292.08" y="491.27" width="11.32" height="50.66"/></g><g><path class="cls-8" d="m5321.71,473.59h0c4.51,0,8.17,3.66,8.17,8.17v60.16h-16.34v-60.16c0-4.51,3.66-8.17,8.17-8.17Z"/><path class="cls-8" d="m5437.16,473.59h0c4.51,0,8.17,3.66,8.17,8.17v60.16h-16.34v-60.16c0-4.51,3.66-8.17,8.17-8.17Z"/><rect class="cls-8" x="5340.34" y="491.27" width="11.32" height="50.66"/><rect class="cls-8" x="5362.75" y="491.27" width="11.32" height="50.66"/><rect class="cls-8" x="5385.17" y="491.27" width="11.32" height="50.66"/><rect class="cls-8" x="5407.59" y="491.27" width="11.32" height="50.66"/></g><g><path class="cls-8" d="m5437.22,473.59h0c4.51,0,8.17,3.66,8.17,8.17v60.16h-16.34v-60.16c0-4.51,3.66-8.17,8.17-8.17Z"/><path class="cls-8" d="m5552.67,473.59h0c4.51,0,8.17,3.66,8.17,8.17v60.16h-16.34v-60.16c0-4.51,3.66-8.17,8.17-8.17Z"/><rect class="cls-8" x="5455.85" y="491.27" width="11.32" height="50.66"/><rect class="cls-8" x="5478.27" y="491.27" width="11.32" height="50.66"/><rect class="cls-8" x="5500.69" y="491.27" width="11.32" height="50.66"/><rect class="cls-8" x="5523.1" y="491.27" width="11.32" height="50.66"/></g><g><path class="cls-8" d="m5552.74,473.59h0c4.51,0,8.17,3.66,8.17,8.17v60.16h-16.34v-60.16c0-4.51,3.66-8.17,8.17-8.17Z"/><path class="cls-8" d="m5668.19,473.59h0c4.51,0,8.17,3.66,8.17,8.17v60.16h-16.34v-60.16c0-4.51,3.66-8.17,8.17-8.17Z"/><rect class="cls-8" x="5571.36" y="491.27" width="11.32" height="50.66"/><rect class="cls-8" x="5593.78" y="491.27" width="11.32" height="50.66"/><rect class="cls-8" x="5616.2" y="491.27" width="11.32" height="50.66"/><rect class="cls-8" x="5638.62" y="491.27" width="11.32" height="50.66"/></g><g><path class="cls-8" d="m5668.25,473.59h0c4.51,0,8.17,3.66,8.17,8.17v60.16h-16.34v-60.16c0-4.51,3.66-8.17,8.17-8.17Z"/><path class="cls-8" d="m5783.7,473.59h0c4.51,0,8.17,3.66,8.17,8.17v60.16h-16.34v-60.16c0-4.51,3.66-8.17,8.17-8.17Z"/><rect class="cls-8" x="5686.87" y="491.27" width="11.32" height="50.66"/><rect class="cls-8" x="5709.29" y="491.27" width="11.32" height="50.66"/><rect class="cls-8" x="5731.71" y="491.27" width="11.32" height="50.66"/><rect class="cls-8" x="5754.13" y="491.27" width="11.32" height="50.66"/></g><g><path class="cls-8" d="m5783.76,473.59h0c4.51,0,8.17,3.66,8.17,8.17v60.16h-16.34v-60.16c0-4.51,3.66-8.17,8.17-8.17Z"/><path class="cls-8" d="m5899.21,473.59h0c4.51,0,8.17,3.66,8.17,8.17v60.16h-16.34v-60.16c0-4.51,3.66-8.17,8.17-8.17Z"/><rect class="cls-8" x="5802.39" y="491.27" width="11.32" height="50.66"/><rect class="cls-8" x="5824.81" y="491.27" width="11.32" height="50.66"/><rect class="cls-8" x="5847.22" y="491.27" width="11.32" height="50.66"/><rect class="cls-8" x="5869.64" y="491.27" width="11.32" height="50.66"/></g><g><path class="cls-8" d="m5899.27,473.59h0c4.51,0,8.17,3.66,8.17,8.17v60.16h-16.34v-60.16c0-4.51,3.66-8.17,8.17-8.17Z"/><path class="cls-8" d="m6014.72,473.59h0c4.51,0,8.17,3.66,8.17,8.17v60.16h-16.34v-60.16c0-4.51,3.66-8.17,8.17-8.17Z"/><rect class="cls-8" x="5917.9" y="491.27" width="11.32" height="50.66"/><rect class="cls-8" x="5940.32" y="491.27" width="11.32" height="50.66"/><rect class="cls-8" x="5962.74" y="491.27" width="11.32" height="50.66"/><rect class="cls-8" x="5985.15" y="491.27" width="11.32" height="50.66"/></g><g><path class="cls-8" d="m6014.79,473.59h0c4.51,0,8.17,3.66,8.17,8.17v60.16h-16.34v-60.16c0-4.51,3.66-8.17,8.17-8.17Z"/><path class="cls-8" d="m6130.24,473.59h0c4.51,0,8.17,3.66,8.17,8.17v60.16h-16.34v-60.16c0-4.51,3.66-8.17,8.17-8.17Z"/><rect class="cls-8" x="6033.41" y="491.27" width="11.32" height="50.66"/><rect class="cls-8" x="6055.83" y="491.27" width="11.32" height="50.66"/><rect class="cls-8" x="6078.25" y="491.27" width="11.32" height="50.66"/><rect class="cls-8" x="6100.67" y="491.27" width="11.32" height="50.66"/></g><g><path class="cls-8" d="m6130.3,473.59h0c4.51,0,8.17,3.66,8.17,8.17v60.16h-16.34v-60.16c0-4.51,3.66-8.17,8.17-8.17Z"/><path class="cls-8" d="m6245.75,473.59h0c4.51,0,8.17,3.66,8.17,8.17v60.16h-16.34v-60.16c0-4.51,3.66-8.17,8.17-8.17Z"/><rect class="cls-8" x="6148.93" y="491.27" width="11.32" height="50.66"/><rect class="cls-8" x="6171.34" y="491.27" width="11.32" height="50.66"/><rect class="cls-8" x="6193.76" y="491.27" width="11.32" height="50.66"/><rect class="cls-8" x="6216.18" y="491.27" width="11.32" height="50.66"/></g><g><path class="cls-8" d="m6245.81,473.59h0c4.51,0,8.17,3.66,8.17,8.17v60.16h-16.34v-60.16c0-4.51,3.66-8.17,8.17-8.17Z"/><path class="cls-8" d="m6361.26,473.59h0c4.51,0,8.17,3.66,8.17,8.17v60.16h-16.34v-60.16c0-4.51,3.66-8.17,8.17-8.17Z"/><rect class="cls-8" x="6264.44" y="491.27" width="11.32" height="50.66"/><rect class="cls-8" x="6286.86" y="491.27" width="11.32" height="50.66"/><rect class="cls-8" x="6309.27" y="491.27" width="11.32" height="50.66"/><rect class="cls-8" x="6331.69" y="491.27" width="11.32" height="50.66"/></g><g><path class="cls-8" d="m6361.32,473.59h0c4.51,0,8.17,3.66,8.17,8.17v60.16h-16.34v-60.16c0-4.51,3.66-8.17,8.17-8.17Z"/><path class="cls-8" d="m6476.78,473.59h0c4.51,0,8.17,3.66,8.17,8.17v60.16h-16.34v-60.16c0-4.51,3.66-8.17,8.17-8.17Z"/><rect class="cls-8" x="6379.95" y="491.27" width="11.32" height="50.66"/><rect class="cls-8" x="6402.37" y="491.27" width="11.32" height="50.66"/><rect class="cls-8" x="6424.79" y="491.27" width="11.32" height="50.66"/><rect class="cls-8" x="6447.21" y="491.27" width="11.32" height="50.66"/></g></g><g><g><path class="cls-2" d="m6161.55,650.56h30.5c1.46,0,2.64-1.18,2.64-2.64s-1.18-2.64-2.64-2.64h-30.5c-1.46,0-2.64,1.18-2.64,2.64s1.18,2.64,2.64,2.64Z"/><path class="cls-2" d="m6192.05,658.56h-30.5c-5.87,0-10.64-4.77-10.64-10.64s4.77-10.64,10.64-10.64h30.5c5.87,0,10.64,4.77,10.64,10.64s-4.77,10.64-10.64,10.64Z"/></g><g><path class="cls-2" d="m4527.85,656.18h133.46c1.46,0,2.64-.59,2.64-1.32s-1.18-1.32-2.64-1.32h-133.46c-1.46,0-2.64.59-2.64,1.32s1.18,1.32,2.64,1.32Z"/><path class="cls-2" d="m4661.31,664.18h-133.46c-6.07,0-10.64-4.01-10.64-9.32s4.57-9.32,10.64-9.32h133.46c6.07,0,10.64,4.01,10.64,9.32s-4.57,9.32-10.64,9.32Z"/></g><g><path class="cls-2" d="m5041.69,771.31h100.81c1.46,0,2.64-1.18,2.64-2.64s-1.18-2.64-2.64-2.64h-100.81c-1.46,0-2.65,1.18-2.65,2.64s1.19,2.64,2.65,2.64Z"/><path class="cls-2" d="m5142.5,779.31h-100.81c-5.87,0-10.65-4.77-10.65-10.64s4.78-10.64,10.65-10.64h100.81c5.87,0,10.64,4.77,10.64,10.64s-4.77,10.64-10.64,10.64Z"/></g><g><path class="cls-2" d="m5115.39,756.66h77.33c1.46,0,2.65-1.18,2.65-2.64s-1.19-2.64-2.65-2.64h-77.33c-1.46,0-2.65,1.18-2.65,2.64s1.19,2.64,2.65,2.64Z"/><path class="cls-2" d="m5192.72,764.67h-77.33c-5.87,0-10.65-4.77-10.65-10.64s4.78-10.64,10.65-10.64h77.33c5.87,0,10.65,4.77,10.65,10.64s-4.78,10.64-10.65,10.64Z"/></g><g><path class="cls-2" d="m5194.94,765.13h41.57c1.46,0,2.64-1.18,2.64-2.64s-1.18-2.64-2.64-2.64h-41.57c-1.46,0-2.65,1.18-2.65,2.64s1.19,2.64,2.65,2.64Z"/><path class="cls-2" d="m5236.51,773.13h-41.57c-5.87,0-10.65-4.77-10.65-10.64s4.78-10.64,10.65-10.64h41.57c5.87,0,10.64,4.77,10.64,10.64s-4.77,10.64-10.64,10.64Z"/></g><g><path class="cls-2" d="m3611.59,665.3h100.81c1.46,0,2.64-1.18,2.64-2.64s-1.18-2.64-2.64-2.64h-100.81c-1.46,0-2.65,1.18-2.65,2.64s1.19,2.64,2.65,2.64Z"/><path class="cls-2" d="m3712.4,673.3h-100.81c-5.87,0-10.65-4.77-10.65-10.64s4.78-10.64,10.65-10.64h100.81c5.87,0,10.64,4.77,10.64,10.64s-4.77,10.64-10.64,10.64Z"/></g><g><path class="cls-2" d="m3709.72,636.76h77.33c1.46,0,2.65-1.18,2.65-2.64s-1.19-2.64-2.65-2.64h-77.33c-1.46,0-2.65,1.18-2.65,2.64s1.19,2.64,2.65,2.64Z"/><path class="cls-2" d="m3787.05,644.76h-77.33c-5.87,0-10.65-4.77-10.65-10.64s4.78-10.64,10.65-10.64h77.33c5.87,0,10.65,4.77,10.65,10.64s-4.78,10.64-10.65,10.64Z"/></g><g><path class="cls-2" d="m3737.93,665.3h41.57c1.46,0,2.64-1.18,2.64-2.64s-1.18-2.64-2.64-2.64h-41.57c-1.46,0-2.65,1.18-2.65,2.64s1.19,2.64,2.65,2.64Z"/><path class="cls-2" d="m3779.5,673.3h-41.57c-5.87,0-10.65-4.77-10.65-10.64s4.78-10.64,10.65-10.64h41.57c5.87,0,10.64,4.77,10.64,10.64s-4.77,10.64-10.64,10.64Z"/></g><g><path class="cls-2" d="m4046.7,781.22h41.57c1.46,0,2.64-1.18,2.64-2.64s-1.18-2.64-2.64-2.64h-41.57c-1.46,0-2.65,1.18-2.65,2.64s1.19,2.64,2.65,2.64Z"/><path class="cls-2" d="m4088.27,789.22h-41.57c-5.87,0-10.65-4.77-10.65-10.64s4.78-10.64,10.65-10.64h41.57c5.87,0,10.64,4.77,10.64,10.64s-4.77,10.64-10.64,10.64Z"/></g><g><path class="cls-2" d="m5557.03,642.96h179.22c1.96,0,3.56-1.58,3.56-3.55s-1.6-3.55-3.56-3.55h-179.22c-1.96,0-3.56,1.58-3.56,3.55s1.6,3.55,3.56,3.55Z"/><path class="cls-2" d="m5736.25,653.7h-179.22c-7.89,0-14.3-6.41-14.3-14.29s6.42-14.29,14.3-14.29h179.22c7.89,0,14.3,6.41,14.3,14.29s-6.42,14.29-14.3,14.29Z"/></g><g><path class="cls-2" d="m5997.35,650.56h133.45c1.46,0,2.65-1.18,2.65-2.64s-1.19-2.64-2.65-2.64h-133.45c-1.46,0-2.65,1.18-2.65,2.64s1.19,2.64,2.65,2.64Z"/><path class="cls-2" d="m6130.8,658.56h-133.45c-5.87,0-10.65-4.77-10.65-10.64s4.78-10.64,10.65-10.64h133.45c5.87,0,10.65,4.77,10.65,10.64s-4.78,10.64-10.65,10.64Z"/></g><g><path class="cls-2" d="m4315.99,715.4h376.33c1.46,0,2.64-1.18,2.64-2.64s-1.18-2.64-2.64-2.64h-376.33c-1.46,0-2.64,1.18-2.64,2.64s1.18,2.64,2.64,2.64Z"/><path class="cls-2" d="m4692.32,723.4h-376.33c-5.87,0-10.64-4.77-10.64-10.64s4.77-10.64,10.64-10.64h376.33c5.87,0,10.64,4.77,10.64,10.64s-4.77,10.64-10.64,10.64Z"/></g><g><path class="cls-2" d="m4793.34,715.4h71.5c1.46,0,2.64-1.18,2.64-2.64s-1.18-2.64-2.64-2.64h-71.5c-1.46,0-2.64,1.18-2.64,2.64s1.18,2.64,2.64,2.64Z"/><path class="cls-2" d="m4864.84,723.4h-71.5c-5.87,0-10.64-4.77-10.64-10.64s4.77-10.64,10.64-10.64h71.5c5.87,0,10.64,4.77,10.64,10.64s-4.77,10.64-10.64,10.64Z"/></g><g><path class="cls-2" d="m5474.09,718.48h211.86c1.46,0,2.64-1.18,2.64-2.64s-1.18-2.64-2.64-2.64h-211.86c-1.46,0-2.65,1.19-2.65,2.64s1.19,2.64,2.65,2.64h0Z"/><path class="cls-2" d="m5685.95,726.48h-211.86c-5.87,0-10.65-4.77-10.65-10.64s4.78-10.64,10.65-10.64h211.86c5.87,0,10.64,4.77,10.64,10.64s-4.77,10.64-10.64,10.64Z"/></g><g><path class="cls-2" d="m5682.76,654.96h132.17c1.46,0,2.65-1.18,2.65-2.64s-1.19-2.64-2.65-2.64h-132.17c-1.46,0-2.65,1.19-2.65,2.64s1.19,2.64,2.65,2.64Z"/><path class="cls-2" d="m5814.93,662.96h-132.17c-5.87,0-10.65-4.77-10.65-10.64s4.78-10.64,10.65-10.64h132.17c5.87,0,10.65,4.77,10.65,10.64s-4.78,10.64-10.65,10.64Z"/></g><g><path class="cls-2" d="m5566.56,728.61h30.49c1.46,0,2.64-1.18,2.64-2.64s-1.18-2.64-2.64-2.64h-30.49c-1.46,0-2.65,1.19-2.65,2.64s1.19,2.64,2.65,2.64Z"/><path class="cls-2" d="m5597.05,736.61h-30.49c-5.87,0-10.65-4.77-10.65-10.64s4.78-10.64,10.65-10.64h30.49c5.87,0,10.64,4.77,10.64,10.64s-4.77,10.64-10.64,10.64Z"/></g></g><path class="cls-5" d="m3250.65,484.28H0v320.01h3250.65v-320.01Z"/><rect class="cls-8" y="536.35" width="3250.65" height="59.36"/><g><rect class="cls-8" y="480.31" width="1631.47" height="14.25"/><g><path class="cls-8" d="m8.17,473.59h0c4.51,0,8.17,3.66,8.17,8.17v60.16H0v-60.16C0,477.25,3.66,473.59,8.17,473.59Z"/><path class="cls-8" d="m123.62,473.59h0c4.51,0,8.17,3.66,8.17,8.17v60.16h-16.34v-60.16c0-4.51,3.66-8.17,8.17-8.17Z"/><rect class="cls-8" x="26.8" y="491.27" width="11.32" height="50.66"/><rect class="cls-8" x="49.22" y="491.27" width="11.32" height="50.66"/><rect class="cls-8" x="71.63" y="491.27" width="11.32" height="50.66"/><rect class="cls-8" x="94.05" y="491.27" width="11.32" height="50.66"/></g><g><path class="cls-8" d="m123.62,473.59h0c4.51,0,8.17,3.66,8.17,8.17v60.16h-16.34v-60.16c0-4.51,3.66-8.17,8.17-8.17Z"/><path class="cls-8" d="m239.07,473.59h0c4.51,0,8.17,3.66,8.17,8.17v60.16h-16.34v-60.16c0-4.51,3.66-8.17,8.17-8.17Z"/><rect class="cls-8" x="142.25" y="491.27" width="11.32" height="50.66"/><rect class="cls-8" x="164.67" y="491.27" width="11.32" height="50.66"/><rect class="cls-8" x="187.08" y="491.27" width="11.32" height="50.66"/><rect class="cls-8" x="209.5" y="491.27" width="11.32" height="50.66"/></g><g><path class="cls-8" d="m239.13,473.59h0c4.51,0,8.17,3.66,8.17,8.17v60.16h-16.34v-60.16c0-4.51,3.66-8.17,8.17-8.17Z"/><path class="cls-8" d="m354.59,473.59h0c4.51,0,8.17,3.66,8.17,8.17v60.16h-16.34v-60.16c0-4.51,3.66-8.17,8.17-8.17Z"/><rect class="cls-8" x="257.76" y="491.27" width="11.32" height="50.66"/><rect class="cls-8" x="280.18" y="491.27" width="11.32" height="50.66"/><rect class="cls-8" x="302.6" y="491.27" width="11.32" height="50.66"/><rect class="cls-8" x="325.02" y="491.27" width="11.32" height="50.66"/></g><g><path class="cls-8" d="m354.65,473.59h0c4.51,0,8.17,3.66,8.17,8.17v60.16h-16.34v-60.16c0-4.51,3.66-8.17,8.17-8.17Z"/><path class="cls-8" d="m470.1,473.59h0c4.51,0,8.17,3.66,8.17,8.17v60.16h-16.34v-60.16c0-4.51,3.66-8.17,8.17-8.17Z"/><rect class="cls-8" x="373.27" y="491.27" width="11.32" height="50.66"/><rect class="cls-8" x="395.69" y="491.27" width="11.32" height="50.66"/><rect class="cls-8" x="418.11" y="491.27" width="11.32" height="50.66"/><rect class="cls-8" x="440.53" y="491.27" width="11.32" height="50.66"/></g><g><path class="cls-8" d="m470.16,473.59h0c4.51,0,8.17,3.66,8.17,8.17v60.16h-16.34v-60.16c0-4.51,3.66-8.17,8.17-8.17Z"/><path class="cls-8" d="m585.61,473.59h0c4.51,0,8.17,3.66,8.17,8.17v60.16h-16.34v-60.16c0-4.51,3.66-8.17,8.17-8.17Z"/><rect class="cls-8" x="488.79" y="491.27" width="11.32" height="50.66"/><rect class="cls-8" x="511.2" y="491.27" width="11.32" height="50.66"/><rect class="cls-8" x="533.62" y="491.27" width="11.32" height="50.66"/><rect class="cls-8" x="556.04" y="491.27" width="11.32" height="50.66"/></g><g><path class="cls-8" d="m585.67,473.59h0c4.51,0,8.17,3.66,8.17,8.17v60.16h-16.34v-60.16c0-4.51,3.66-8.17,8.17-8.17Z"/><path class="cls-8" d="m701.12,473.59h0c4.51,0,8.17,3.66,8.17,8.17v60.16h-16.34v-60.16c0-4.51,3.66-8.17,8.17-8.17Z"/><rect class="cls-8" x="604.3" y="491.27" width="11.32" height="50.66"/><rect class="cls-8" x="626.72" y="491.27" width="11.32" height="50.66"/><rect class="cls-8" x="649.14" y="491.27" width="11.32" height="50.66"/><rect class="cls-8" x="671.55" y="491.27" width="11.32" height="50.66"/></g><g><path class="cls-8" d="m701.19,473.59h0c4.51,0,8.17,3.66,8.17,8.17v60.16h-16.34v-60.16c0-4.51,3.66-8.17,8.17-8.17Z"/><path class="cls-8" d="m816.64,473.59h0c4.51,0,8.17,3.66,8.17,8.17v60.16h-16.34v-60.16c0-4.51,3.66-8.17,8.17-8.17Z"/><rect class="cls-8" x="719.81" y="491.27" width="11.32" height="50.66"/><rect class="cls-8" x="742.23" y="491.27" width="11.32" height="50.66"/><rect class="cls-8" x="764.65" y="491.27" width="11.32" height="50.66"/><rect class="cls-8" x="787.07" y="491.27" width="11.32" height="50.66"/></g><g><path class="cls-8" d="m816.7,473.59h0c4.51,0,8.17,3.66,8.17,8.17v60.16h-16.34v-60.16c0-4.51,3.66-8.17,8.17-8.17Z"/><path class="cls-8" d="m932.15,473.59h0c4.51,0,8.17,3.66,8.17,8.17v60.16h-16.34v-60.16c0-4.51,3.66-8.17,8.17-8.17Z"/><rect class="cls-8" x="835.32" y="491.27" width="11.32" height="50.66"/><rect class="cls-8" x="857.74" y="491.27" width="11.32" height="50.66"/><rect class="cls-8" x="880.16" y="491.27" width="11.32" height="50.66"/><rect class="cls-8" x="902.58" y="491.27" width="11.32" height="50.66"/></g><g><path class="cls-8" d="m932.21,473.59h0c4.51,0,8.17,3.66,8.17,8.17v60.16h-16.34v-60.16c0-4.51,3.66-8.17,8.17-8.17Z"/><path class="cls-8" d="m1047.66,473.59h0c4.51,0,8.17,3.66,8.17,8.17v60.16h-16.34v-60.16c0-4.51,3.66-8.17,8.17-8.17Z"/><rect class="cls-8" x="950.84" y="491.27" width="11.32" height="50.66"/><rect class="cls-8" x="973.26" y="491.27" width="11.32" height="50.66"/><rect class="cls-8" x="995.67" y="491.27" width="11.32" height="50.66"/><rect class="cls-8" x="1018.09" y="491.27" width="11.32" height="50.66"/></g><g><path class="cls-8" d="m1047.72,473.59h0c4.51,0,8.17,3.66,8.17,8.17v60.16h-16.34v-60.16c0-4.51,3.66-8.17,8.17-8.17Z"/><path class="cls-8" d="m1163.17,473.59h0c4.51,0,8.17,3.66,8.17,8.17v60.16h-16.34v-60.16c0-4.51,3.66-8.17,8.17-8.17Z"/><rect class="cls-8" x="1066.35" y="491.27" width="11.32" height="50.66"/><rect class="cls-8" x="1088.77" y="491.27" width="11.32" height="50.66"/><rect class="cls-8" x="1111.19" y="491.27" width="11.32" height="50.66"/><rect class="cls-8" x="1133.61" y="491.27" width="11.32" height="50.66"/></g><g><path class="cls-8" d="m1163.24,473.59h0c4.51,0,8.17,3.66,8.17,8.17v60.16h-16.34v-60.16c0-4.51,3.66-8.17,8.17-8.17Z"/><path class="cls-8" d="m1278.69,473.59h0c4.51,0,8.17,3.66,8.17,8.17v60.16h-16.34v-60.16c0-4.51,3.66-8.17,8.17-8.17Z"/><rect class="cls-8" x="1181.86" y="491.27" width="11.32" height="50.66"/><rect class="cls-8" x="1204.28" y="491.27" width="11.32" height="50.66"/><rect class="cls-8" x="1226.7" y="491.27" width="11.32" height="50.66"/><rect class="cls-8" x="1249.12" y="491.27" width="11.32" height="50.66"/></g><g><path class="cls-8" d="m1278.75,473.59h0c4.51,0,8.17,3.66,8.17,8.17v60.16h-16.34v-60.16c0-4.51,3.66-8.17,8.17-8.17Z"/><path class="cls-8" d="m1394.2,473.59h0c4.51,0,8.17,3.66,8.17,8.17v60.16h-16.34v-60.16c0-4.51,3.66-8.17,8.17-8.17Z"/><rect class="cls-8" x="1297.38" y="491.27" width="11.32" height="50.66"/><rect class="cls-8" x="1319.79" y="491.27" width="11.32" height="50.66"/><rect class="cls-8" x="1342.21" y="491.27" width="11.32" height="50.66"/><rect class="cls-8" x="1364.63" y="491.27" width="11.32" height="50.66"/></g><g><path class="cls-8" d="m1394.26,473.59h0c4.51,0,8.17,3.66,8.17,8.17v60.16h-16.34v-60.16c0-4.51,3.66-8.17,8.17-8.17Z"/><path class="cls-8" d="m1509.71,473.59h0c4.51,0,8.17,3.66,8.17,8.17v60.16h-16.34v-60.16c0-4.51,3.66-8.17,8.17-8.17Z"/><rect class="cls-8" x="1412.89" y="491.27" width="11.32" height="50.66"/><rect class="cls-8" x="1435.31" y="491.27" width="11.32" height="50.66"/><rect class="cls-8" x="1457.73" y="491.27" width="11.32" height="50.66"/><rect class="cls-8" x="1480.14" y="491.27" width="11.32" height="50.66"/></g><g><path class="cls-8" d="m1509.78,473.59h0c4.51,0,8.17,3.66,8.17,8.17v60.16h-16.34v-60.16c0-4.51,3.66-8.17,8.17-8.17Z"/><path class="cls-8" d="m1625.23,473.59h0c4.51,0,8.17,3.66,8.17,8.17v60.16h-16.34v-60.16c0-4.51,3.66-8.17,8.17-8.17Z"/><rect class="cls-8" x="1528.4" y="491.27" width="11.32" height="50.66"/><rect class="cls-8" x="1550.82" y="491.27" width="11.32" height="50.66"/><rect class="cls-8" x="1573.24" y="491.27" width="11.32" height="50.66"/><rect class="cls-8" x="1595.66" y="491.27" width="11.32" height="50.66"/></g></g><g><rect class="cls-8" x="1617.25" y="480.31" width="1631.47" height="14.25"/><g><path class="cls-8" d="m1625.42,473.59h0c4.51,0,8.17,3.66,8.17,8.17v60.16h-16.34v-60.16c0-4.51,3.66-8.17,8.17-8.17Z"/><path class="cls-8" d="m1740.87,473.59h0c4.51,0,8.17,3.66,8.17,8.17v60.16h-16.34v-60.16c0-4.51,3.66-8.17,8.17-8.17Z"/><rect class="cls-8" x="1644.05" y="491.27" width="11.32" height="50.66"/><rect class="cls-8" x="1666.46" y="491.27" width="11.32" height="50.66"/><rect class="cls-8" x="1688.88" y="491.27" width="11.32" height="50.66"/><rect class="cls-8" x="1711.3" y="491.27" width="11.32" height="50.66"/></g><g><path class="cls-8" d="m1740.87,473.59h0c4.51,0,8.17,3.66,8.17,8.17v60.16h-16.34v-60.16c0-4.51,3.66-8.17,8.17-8.17Z"/><path class="cls-8" d="m1856.32,473.59h0c4.51,0,8.17,3.66,8.17,8.17v60.16h-16.34v-60.16c0-4.51,3.66-8.17,8.17-8.17Z"/><rect class="cls-8" x="1759.5" y="491.27" width="11.32" height="50.66"/><rect class="cls-8" x="1781.91" y="491.27" width="11.32" height="50.66"/><rect class="cls-8" x="1804.33" y="491.27" width="11.32" height="50.66"/><rect class="cls-8" x="1826.75" y="491.27" width="11.32" height="50.66"/></g><g><path class="cls-8" d="m1856.38,473.59h0c4.51,0,8.17,3.66,8.17,8.17v60.16h-16.34v-60.16c0-4.51,3.66-8.17,8.17-8.17Z"/><path class="cls-8" d="m1971.83,473.59h0c4.51,0,8.17,3.66,8.17,8.17v60.16h-16.34v-60.16c0-4.51,3.66-8.17,8.17-8.17Z"/><rect class="cls-8" x="1875.01" y="491.27" width="11.32" height="50.66"/><rect class="cls-8" x="1897.43" y="491.27" width="11.32" height="50.66"/><rect class="cls-8" x="1919.85" y="491.27" width="11.32" height="50.66"/><rect class="cls-8" x="1942.26" y="491.27" width="11.32" height="50.66"/></g><g><path class="cls-8" d="m1971.9,473.59h0c4.51,0,8.17,3.66,8.17,8.17v60.16h-16.34v-60.16c0-4.51,3.66-8.17,8.17-8.17Z"/><path class="cls-8" d="m2087.35,473.59h0c4.51,0,8.17,3.66,8.17,8.17v60.16h-16.34v-60.16c0-4.51,3.66-8.17,8.17-8.17Z"/><rect class="cls-8" x="1990.52" y="491.27" width="11.32" height="50.66"/><rect class="cls-8" x="2012.94" y="491.27" width="11.32" height="50.66"/><rect class="cls-8" x="2035.36" y="491.27" width="11.32" height="50.66"/><rect class="cls-8" x="2057.78" y="491.27" width="11.32" height="50.66"/></g><g><path class="cls-8" d="m2087.41,473.59h0c4.51,0,8.17,3.66,8.17,8.17v60.16h-16.34v-60.16c0-4.51,3.66-8.17,8.17-8.17Z"/><path class="cls-8" d="m2202.86,473.59h0c4.51,0,8.17,3.66,8.17,8.17v60.16h-16.34v-60.16c0-4.51,3.66-8.17,8.17-8.17Z"/><rect class="cls-8" x="2106.03" y="491.27" width="11.32" height="50.66"/><rect class="cls-8" x="2128.45" y="491.27" width="11.32" height="50.66"/><rect class="cls-8" x="2150.87" y="491.27" width="11.32" height="50.66"/><rect class="cls-8" x="2173.29" y="491.27" width="11.32" height="50.66"/></g><g><path class="cls-8" d="m2202.92,473.59h0c4.51,0,8.17,3.66,8.17,8.17v60.16h-16.34v-60.16c0-4.51,3.66-8.17,8.17-8.17Z"/><path class="cls-8" d="m2318.37,473.59h0c4.51,0,8.17,3.66,8.17,8.17v60.16h-16.34v-60.16c0-4.51,3.66-8.17,8.17-8.17Z"/><rect class="cls-8" x="2221.55" y="491.27" width="11.32" height="50.66"/><rect class="cls-8" x="2243.97" y="491.27" width="11.32" height="50.66"/><rect class="cls-8" x="2266.38" y="491.27" width="11.32" height="50.66"/><rect class="cls-8" x="2288.8" y="491.27" width="11.32" height="50.66"/></g><g><path class="cls-8" d="m2318.43,473.59h0c4.51,0,8.17,3.66,8.17,8.17v60.16h-16.34v-60.16c0-4.51,3.66-8.17,8.17-8.17Z"/><path class="cls-8" d="m2433.88,473.59h0c4.51,0,8.17,3.66,8.17,8.17v60.16h-16.34v-60.16c0-4.51,3.66-8.17,8.17-8.17Z"/><rect class="cls-8" x="2337.06" y="491.27" width="11.32" height="50.66"/><rect class="cls-8" x="2359.48" y="491.27" width="11.32" height="50.66"/><rect class="cls-8" x="2381.9" y="491.27" width="11.32" height="50.66"/><rect class="cls-8" x="2404.31" y="491.27" width="11.32" height="50.66"/></g><g><path class="cls-8" d="m2433.95,473.59h0c4.51,0,8.17,3.66,8.17,8.17v60.16h-16.34v-60.16c0-4.51,3.66-8.17,8.17-8.17Z"/><path class="cls-8" d="m2549.4,473.59h0c4.51,0,8.17,3.66,8.17,8.17v60.16h-16.34v-60.16c0-4.51,3.66-8.17,8.17-8.17Z"/><rect class="cls-8" x="2452.57" y="491.27" width="11.32" height="50.66"/><rect class="cls-8" x="2474.99" y="491.27" width="11.32" height="50.66"/><rect class="cls-8" x="2497.41" y="491.27" width="11.32" height="50.66"/><rect class="cls-8" x="2519.83" y="491.27" width="11.32" height="50.66"/></g><g><path class="cls-8" d="m2549.46,473.59h0c4.51,0,8.17,3.66,8.17,8.17v60.16h-16.34v-60.16c0-4.51,3.66-8.17,8.17-8.17Z"/><path class="cls-8" d="m2664.91,473.59h0c4.51,0,8.17,3.66,8.17,8.17v60.16h-16.34v-60.16c0-4.51,3.66-8.17,8.17-8.17Z"/><rect class="cls-8" x="2568.09" y="491.27" width="11.32" height="50.66"/><rect class="cls-8" x="2590.5" y="491.27" width="11.32" height="50.66"/><rect class="cls-8" x="2612.92" y="491.27" width="11.32" height="50.66"/><rect class="cls-8" x="2635.34" y="491.27" width="11.32" height="50.66"/></g><g><path class="cls-8" d="m2664.97,473.59h0c4.51,0,8.17,3.66,8.17,8.17v60.16h-16.34v-60.16c0-4.51,3.66-8.17,8.17-8.17Z"/><path class="cls-8" d="m2780.42,473.59h0c4.51,0,8.17,3.66,8.17,8.17v60.16h-16.34v-60.16c0-4.51,3.66-8.17,8.17-8.17Z"/><rect class="cls-8" x="2683.6" y="491.27" width="11.32" height="50.66"/><rect class="cls-8" x="2706.02" y="491.27" width="11.32" height="50.66"/><rect class="cls-8" x="2728.43" y="491.27" width="11.32" height="50.66"/><rect class="cls-8" x="2750.85" y="491.27" width="11.32" height="50.66"/></g><g><path class="cls-8" d="m2780.48,473.59h0c4.51,0,8.17,3.66,8.17,8.17v60.16h-16.34v-60.16c0-4.51,3.66-8.17,8.17-8.17Z"/><path class="cls-8" d="m2895.94,473.59h0c4.51,0,8.17,3.66,8.17,8.17v60.16h-16.34v-60.16c0-4.51,3.66-8.17,8.17-8.17Z"/><rect class="cls-8" x="2799.11" y="491.27" width="11.32" height="50.66"/><rect class="cls-8" x="2821.53" y="491.27" width="11.32" height="50.66"/><rect class="cls-8" x="2843.95" y="491.27" width="11.32" height="50.66"/><rect class="cls-8" x="2866.37" y="491.27" width="11.32" height="50.66"/></g><g><path class="cls-8" d="m2896,473.59h0c4.51,0,8.17,3.66,8.17,8.17v60.16h-16.34v-60.16c0-4.51,3.66-8.17,8.17-8.17Z"/><path class="cls-8" d="m3011.45,473.59h0c4.51,0,8.17,3.66,8.17,8.17v60.16h-16.34v-60.16c0-4.51,3.66-8.17,8.17-8.17Z"/><rect class="cls-8" x="2914.62" y="491.27" width="11.32" height="50.66"/><rect class="cls-8" x="2937.04" y="491.27" width="11.32" height="50.66"/><rect class="cls-8" x="2959.46" y="491.27" width="11.32" height="50.66"/><rect class="cls-8" x="2981.88" y="491.27" width="11.32" height="50.66"/></g><g><path class="cls-8" d="m3011.51,473.59h0c4.51,0,8.17,3.66,8.17,8.17v60.16h-16.34v-60.16c0-4.51,3.66-8.17,8.17-8.17Z"/><path class="cls-8" d="m3126.96,473.59h0c4.51,0,8.17,3.66,8.17,8.17v60.16h-16.34v-60.16c0-4.51,3.66-8.17,8.17-8.17Z"/><rect class="cls-8" x="3030.14" y="491.27" width="11.32" height="50.66"/><rect class="cls-8" x="3052.55" y="491.27" width="11.32" height="50.66"/><rect class="cls-8" x="3074.97" y="491.27" width="11.32" height="50.66"/><rect class="cls-8" x="3097.39" y="491.27" width="11.32" height="50.66"/></g><g><path class="cls-8" d="m3127.02,473.59h0c4.51,0,8.17,3.66,8.17,8.17v60.16h-16.34v-60.16c0-4.51,3.66-8.17,8.17-8.17Z"/><path class="cls-8" d="m3242.47,473.59h0c4.51,0,8.17,3.66,8.17,8.17v60.16h-16.34v-60.16c0-4.51,3.66-8.17,8.17-8.17Z"/><rect class="cls-8" x="3145.65" y="491.27" width="11.32" height="50.66"/><rect class="cls-8" x="3168.07" y="491.27" width="11.32" height="50.66"/><rect class="cls-8" x="3190.49" y="491.27" width="11.32" height="50.66"/><rect class="cls-8" x="3212.9" y="491.27" width="11.32" height="50.66"/></g></g><g><g><path class="cls-2" d="m2927.25,650.56h30.5c1.46,0,2.64-1.18,2.64-2.64s-1.18-2.64-2.64-2.64h-30.5c-1.46,0-2.64,1.18-2.64,2.64s1.18,2.64,2.64,2.64Z"/><path class="cls-2" d="m2957.75,658.56h-30.5c-5.87,0-10.64-4.77-10.64-10.64s4.77-10.64,10.64-10.64h30.5c5.87,0,10.64,4.77,10.64,10.64s-4.77,10.64-10.64,10.64Z"/></g><g><path class="cls-2" d="m1293.55,656.18h133.46c1.46,0,2.64-.59,2.64-1.32s-1.18-1.32-2.64-1.32h-133.46c-1.46,0-2.64.59-2.64,1.32s1.18,1.32,2.64,1.32Z"/><path class="cls-2" d="m1427.01,664.18h-133.46c-6.07,0-10.64-4.01-10.64-9.32s4.57-9.32,10.64-9.32h133.46c6.07,0,10.64,4.01,10.64,9.32s-4.57,9.32-10.64,9.32Z"/></g><g><path class="cls-2" d="m1807.39,771.31h100.81c1.46,0,2.64-1.18,2.64-2.64s-1.18-2.64-2.64-2.64h-100.81c-1.46,0-2.65,1.18-2.65,2.64s1.19,2.64,2.65,2.64Z"/><path class="cls-2" d="m1908.2,779.31h-100.81c-5.87,0-10.65-4.77-10.65-10.64s4.78-10.64,10.65-10.64h100.81c5.87,0,10.64,4.77,10.64,10.64s-4.77,10.64-10.64,10.64Z"/></g><g><path class="cls-2" d="m1881.09,756.66h77.33c1.46,0,2.65-1.18,2.65-2.64s-1.19-2.64-2.65-2.64h-77.33c-1.46,0-2.65,1.18-2.65,2.64s1.19,2.64,2.65,2.64Z"/><path class="cls-2" d="m1958.42,764.67h-77.33c-5.87,0-10.65-4.77-10.65-10.64s4.78-10.64,10.65-10.64h77.33c5.87,0,10.65,4.77,10.65,10.64s-4.78,10.64-10.65,10.64Z"/></g><g><path class="cls-2" d="m1960.64,765.13h41.57c1.46,0,2.64-1.18,2.64-2.64s-1.18-2.64-2.64-2.64h-41.57c-1.46,0-2.65,1.18-2.65,2.64s1.19,2.64,2.65,2.64Z"/><path class="cls-2" d="m2002.21,773.13h-41.57c-5.87,0-10.65-4.77-10.65-10.64s4.78-10.64,10.65-10.64h41.57c5.87,0,10.64,4.77,10.64,10.64s-4.77,10.64-10.64,10.64Z"/></g><g><path class="cls-2" d="m377.28,665.3h100.81c1.46,0,2.64-1.18,2.64-2.64s-1.18-2.64-2.64-2.64h-100.81c-1.46,0-2.65,1.18-2.65,2.64s1.19,2.64,2.65,2.64Z"/><path class="cls-2" d="m478.09,673.3h-100.81c-5.87,0-10.65-4.77-10.65-10.64s4.78-10.64,10.65-10.64h100.81c5.87,0,10.64,4.77,10.64,10.64s-4.77,10.64-10.64,10.64Z"/></g><g><path class="cls-2" d="m475.41,636.76h77.33c1.46,0,2.65-1.18,2.65-2.64s-1.19-2.64-2.65-2.64h-77.33c-1.46,0-2.65,1.18-2.65,2.64s1.19,2.64,2.65,2.64Z"/><path class="cls-2" d="m552.75,644.76h-77.33c-5.87,0-10.65-4.77-10.65-10.64s4.78-10.64,10.65-10.64h77.33c5.87,0,10.65,4.77,10.65,10.64s-4.78,10.64-10.65,10.64Z"/></g><g><path class="cls-2" d="m503.62,665.3h41.57c1.46,0,2.64-1.18,2.64-2.64s-1.18-2.64-2.64-2.64h-41.57c-1.46,0-2.65,1.18-2.65,2.64s1.19,2.64,2.65,2.64Z"/><path class="cls-2" d="m545.19,673.3h-41.57c-5.87,0-10.65-4.77-10.65-10.64s4.78-10.64,10.65-10.64h41.57c5.87,0,10.64,4.77,10.64,10.64s-4.77,10.64-10.64,10.64Z"/></g><g><path class="cls-2" d="m812.39,781.22h41.57c1.46,0,2.64-1.18,2.64-2.64s-1.18-2.64-2.64-2.64h-41.57c-1.46,0-2.65,1.18-2.65,2.64s1.19,2.64,2.65,2.64Z"/><path class="cls-2" d="m853.96,789.22h-41.57c-5.87,0-10.65-4.77-10.65-10.64s4.78-10.64,10.65-10.64h41.57c5.87,0,10.64,4.77,10.64,10.64s-4.77,10.64-10.64,10.64Z"/></g><g><path class="cls-2" d="m2322.72,642.96h179.22c1.96,0,3.56-1.58,3.56-3.55s-1.6-3.55-3.56-3.55h-179.22c-1.96,0-3.56,1.58-3.56,3.55s1.6,3.55,3.56,3.55Z"/><path class="cls-2" d="m2501.94,653.7h-179.22c-7.89,0-14.3-6.41-14.3-14.29s6.42-14.29,14.3-14.29h179.22c7.89,0,14.3,6.41,14.3,14.29s-6.42,14.29-14.3,14.29Z"/></g><g><path class="cls-2" d="m2763.05,650.56h133.45c1.46,0,2.65-1.18,2.65-2.64s-1.19-2.64-2.65-2.64h-133.45c-1.46,0-2.65,1.18-2.65,2.64s1.19,2.64,2.65,2.64Z"/><path class="cls-2" d="m2896.5,658.56h-133.45c-5.87,0-10.65-4.77-10.65-10.64s4.78-10.64,10.65-10.64h133.45c5.87,0,10.65,4.77,10.65,10.64s-4.78,10.64-10.65,10.64Z"/></g><g><path class="cls-2" d="m1081.69,715.4h376.33c1.46,0,2.64-1.18,2.64-2.64s-1.18-2.64-2.64-2.64h-376.33c-1.46,0-2.64,1.18-2.64,2.64s1.18,2.64,2.64,2.64Z"/><path class="cls-2" d="m1458.02,723.4h-376.33c-5.87,0-10.64-4.77-10.64-10.64s4.77-10.64,10.64-10.64h376.33c5.87,0,10.64,4.77,10.64,10.64s-4.77,10.64-10.64,10.64Z"/></g><g><path class="cls-2" d="m1559.04,715.4h71.5c1.46,0,2.64-1.18,2.64-2.64s-1.18-2.64-2.64-2.64h-71.5c-1.46,0-2.64,1.18-2.64,2.64s1.18,2.64,2.64,2.64Z"/><path class="cls-2" d="m1630.54,723.4h-71.5c-5.87,0-10.64-4.77-10.64-10.64s4.77-10.64,10.64-10.64h71.5c5.87,0,10.64,4.77,10.64,10.64s-4.77,10.64-10.64,10.64Z"/></g><g><path class="cls-2" d="m2239.79,718.48h211.86c1.46,0,2.64-1.18,2.64-2.64s-1.18-2.64-2.64-2.64h-211.86c-1.46,0-2.65,1.19-2.65,2.64s1.19,2.64,2.65,2.64h0Z"/><path class="cls-2" d="m2451.65,726.48h-211.86c-5.87,0-10.65-4.77-10.65-10.64s4.78-10.64,10.65-10.64h211.86c5.87,0,10.64,4.77,10.64,10.64s-4.77,10.64-10.64,10.64Z"/></g><g><path class="cls-2" d="m2448.45,654.96h132.17c1.46,0,2.65-1.18,2.65-2.64s-1.19-2.64-2.65-2.64h-132.17c-1.46,0-2.65,1.19-2.65,2.64s1.19,2.64,2.65,2.64Z"/><path class="cls-2" d="m2580.62,662.96h-132.17c-5.87,0-10.65-4.77-10.65-10.64s4.78-10.64,10.65-10.64h132.17c5.87,0,10.65,4.77,10.65,10.64s-4.78,10.64-10.65,10.64Z"/></g><g><path class="cls-2" d="m2332.26,728.61h30.49c1.46,0,2.64-1.18,2.64-2.64s-1.18-2.64-2.64-2.64h-30.49c-1.46,0-2.65,1.19-2.65,2.64s1.19,2.64,2.65,2.64Z"/><path class="cls-2" d="m2362.75,736.61h-30.49c-5.87,0-10.65-4.77-10.65-10.64s4.78-10.64,10.65-10.64h30.49c5.87,0,10.64,4.77,10.64,10.64s-4.77,10.64-10.64,10.64Z"/></g></g><g><g><path class="cls-14" d="m4681.07,590.24h-1179.62v105.51h.03c0,.07-.03.14-.03.21,0,25.63,194.79,108.05,589.81,108.05s589.81-82.43,589.81-108.05c0-.07-.03-.14-.03-.21h.04v-105.51Z"/><path class="cls-6" d="m4681.07,590.34c0,25.63-264.07,91.44-589.81,91.44s-589.81-65.82-589.81-91.44,264.07-46.4,589.81-46.4,589.81,20.78,589.81,46.4Z"/><g><ellipse class="cls-6" cx="4091.26" cy="445.93" rx="536.55" ry="59.39"/><ellipse class="cls-6" cx="4091.26" cy="608.6" rx="536.55" ry="59.39"/><rect class="cls-6" x="3554.71" y="445.81" width="1073.1" height="162.53"/></g><g><g><path class="cls-7" d="m4198.43,542.88c-28.91.65-58.66,1.04-89.05,1.15v74.11c30.39-.11,60.14-.5,89.05-1.15v-74.11Z"/><path class="cls-7" d="m4109.37,622.78c-1.23,0-2.4-.49-3.27-1.35-.87-.87-1.36-2.05-1.36-3.29v-74.11c0-2.55,2.07-4.63,4.62-4.64,29.76-.11,59.69-.49,88.97-1.15,1.26-.03,2.45.45,3.35,1.32.89.87,1.4,2.07,1.4,3.32v74.11c0,2.52-2.01,4.58-4.53,4.64-29.33.66-59.32,1.04-89.14,1.15h-.02Zm4.64-74.13v64.83c26.69-.12,53.48-.47,79.78-1.03v-64.83c-26.3.56-53.09.91-79.78,1.03Z"/></g><g><path class="cls-7" d="m4081.43,544.04c-30.37-.06-60.12-.4-89.05-1v74.11c28.93.6,58.68.94,89.05,1v-74.11Z"/><path class="cls-7" d="m4081.43,622.79h0c-30-.06-59.99-.4-89.14-1-2.52-.05-4.54-2.11-4.54-4.64v-74.11c0-1.25.5-2.44,1.39-3.31.89-.87,2.1-1.31,3.34-1.32,29.13.6,59.06.94,88.97,1,2.56,0,4.63,2.08,4.63,4.64v74.11c0,1.23-.49,2.41-1.36,3.28-.87.87-2.05,1.36-3.28,1.36Zm-84.42-10.19c26.15.52,52.94.82,79.78.9v-64.83c-26.8-.08-53.6-.38-79.78-.9v64.83Z"/></g><g><path class="cls-7" d="m3758.4,605.32c27.61,2.43,57.42,4.56,89.05,6.35v-74.11c-31.63-1.79-61.45-3.92-89.05-6.35v74.11Z"/><path class="cls-7" d="m3847.45,616.31c-.09,0-.18,0-.26,0-31.45-1.78-61.46-3.92-89.2-6.36-2.4-.21-4.23-2.22-4.23-4.62v-74.11c0-1.3.55-2.54,1.51-3.42.96-.88,2.24-1.32,3.54-1.2,27.61,2.43,57.52,4.56,88.91,6.34,2.46.14,4.38,2.17,4.38,4.63v74.11c0,1.28-.53,2.5-1.45,3.37-.86.82-2,1.27-3.19,1.27Zm-84.42-15.24c25,2.15,51.79,4.06,79.78,5.69v-64.82c-28-1.62-54.79-3.53-79.78-5.67v64.8Z"/></g><g><path class="cls-7" d="m3964.44,542.37c-30.81-.83-60.59-1.95-89.05-3.34v74.11c28.47,1.39,58.25,2.51,89.05,3.34v-74.11Z"/><path class="cls-7" d="m3964.44,621.12s-.08,0-.12,0c-30.64-.83-60.64-1.95-89.15-3.34-2.47-.12-4.41-2.16-4.41-4.63v-74.11c0-1.27.52-2.48,1.44-3.36.92-.88,2.16-1.34,3.43-1.27,28.4,1.39,58.33,2.51,88.95,3.34,2.51.07,4.51,2.12,4.51,4.64v74.11c0,1.25-.51,2.45-1.4,3.32-.87.84-2.03,1.32-3.24,1.32Zm-84.42-12.4c25.64,1.22,52.43,2.23,79.78,2.99v-64.83c-27.38-.77-54.17-1.77-79.78-2.99v64.82Z"/></g><g><path class="cls-7" d="m4315.42,538.66c-28.44,1.45-58.2,2.63-89.05,3.51v74.11c30.86-.88,60.62-2.07,89.05-3.51v-74.11Z"/><path class="cls-7" d="m4226.36,620.92c-1.21,0-2.37-.47-3.23-1.31-.9-.87-1.41-2.07-1.41-3.33v-74.11c0-2.51,2-4.56,4.51-4.64,30.31-.87,60.24-2.05,88.95-3.51,1.27-.08,2.51.39,3.43,1.27s1.44,2.09,1.44,3.36v74.11c0,2.47-1.94,4.51-4.4,4.63-28.78,1.46-58.78,2.65-89.16,3.52-.04,0-.09,0-.13,0Zm4.64-74.24v64.83c27.13-.81,53.93-1.86,79.78-3.15v-64.82c-25.86,1.28-52.65,2.33-79.78,3.14Z"/></g><g><path class="cls-7" d="m4460.35,527.82v74.11c32.08-3.36,60.42-7.15,84.24-11.29v-74.11c-23.83,4.14-52.16,7.93-84.24,11.29Z"/><path class="cls-7" d="m4460.35,606.57c-1.14,0-2.25-.42-3.1-1.19-.98-.88-1.53-2.13-1.53-3.45v-74.11c0-2.38,1.79-4.37,4.16-4.61,32.07-3.36,60.31-7.14,83.93-11.25,1.35-.24,2.73.14,3.78,1.02,1.05.88,1.65,2.18,1.65,3.55v74.11c0,2.25-1.62,4.18-3.84,4.57-23.84,4.14-52.29,7.96-84.55,11.34-.16.02-.32.03-.48.03Zm4.64-74.58v64.78c28.25-3.04,53.43-6.41,74.97-10.05v-64.7c-21.62,3.61-46.79,6.96-74.97,9.97Z"/></g><g><path class="cls-7" d="m3730.46,528.57c-35.11-3.54-66-7.59-91.63-12.04v74.11c25.63,4.46,56.52,8.5,91.63,12.04v-74.11Z"/><path class="cls-7" d="m3730.46,607.32c-.15,0-.31,0-.47-.02-35.44-3.58-66.38-7.64-91.96-12.09-2.22-.39-3.84-2.31-3.84-4.57v-74.11c0-1.37.6-2.67,1.65-3.55,1.05-.88,2.43-1.25,3.78-1.02,25.35,4.41,56.07,8.44,91.3,12,2.37.24,4.17,2.23,4.17,4.62v74.11c0,1.31-.55,2.56-1.53,3.44-.86.77-1.97,1.2-3.11,1.2Zm-87-20.59c23.35,3.94,51.01,7.57,82.36,10.82v-64.78c-31.26-3.22-58.92-6.83-82.36-10.74v64.7Z"/></g><g><path class="cls-7" d="m3612.53,510.17c-15.76-3.54-29.62-7.59-41.13-12.04v74.11c11.5,4.46,25.37,8.5,41.13,12.04v-74.11Z"/><path class="cls-7" d="m3612.53,588.92c-.34,0-.68-.04-1.02-.11-16.08-3.61-30.14-7.73-41.79-12.24-1.79-.69-2.96-2.41-2.96-4.33v-74.11c0-1.53.75-2.96,2.02-3.83,1.26-.86,2.87-1.05,4.3-.5,11.22,4.34,24.83,8.33,40.47,11.84,2.12.48,3.62,2.36,3.62,4.53v74.11c0,1.41-.64,2.74-1.74,3.62-.83.67-1.85,1.02-2.9,1.02Zm-36.49-19.89c9.2,3.39,19.88,6.54,31.85,9.41v-64.58c-11.83-2.77-22.5-5.81-31.85-9.09v64.25Z"/></g><g><path class="cls-7" d="m4569.99,510.17c15.76-3.54,29.62-7.59,41.13-12.04v74.11c-11.5,4.46-25.37,8.5-41.13,12.04v-74.11Z"/><path class="cls-7" d="m4569.99,588.92c-1.04,0-2.07-.35-2.9-1.02-1.1-.88-1.74-2.21-1.74-3.62v-74.11c0-2.17,1.5-4.05,3.62-4.53,15.64-3.51,29.25-7.5,40.47-11.84,1.43-.55,3.03-.37,4.3.5,1.26.86,2.02,2.3,2.02,3.83v74.11c0,1.92-1.18,3.63-2.96,4.33-11.65,4.51-25.71,8.63-41.79,12.24-.34.08-.68.11-1.02.11Zm4.64-75.05v64.58c11.97-2.87,22.65-6.03,31.85-9.41v-64.25c-9.35,3.28-20.02,6.32-31.85,9.09Z"/></g><g><path class="cls-7" d="m4432.41,530.54c-27.52,2.51-57.34,4.72-89.05,6.59v74.11c31.71-1.87,61.53-4.08,89.05-6.59v-74.11Z"/><path class="cls-7" d="m4343.36,615.88c-1.18,0-2.32-.45-3.18-1.26-.93-.88-1.46-2.1-1.46-3.38v-74.11c0-2.46,1.91-4.49,4.37-4.63,31.4-1.85,61.31-4.06,88.9-6.58,1.3-.12,2.59.31,3.55,1.19s1.51,2.12,1.51,3.43v74.11c0,2.4-1.83,4.4-4.22,4.62-27.66,2.52-57.67,4.74-89.2,6.6-.09,0-.18,0-.27,0Zm4.64-74.38v64.82c28.05-1.69,54.84-3.68,79.78-5.9v-64.8c-24.98,2.22-51.77,4.2-79.78,5.88Z"/></g></g><g><path class="cls-3" d="m4627.81,283.89h-1073.1v162.53h.03c0,.09-.03.18-.03.27,0,32.8,240.22,59.39,536.55,59.39s536.55-26.59,536.55-59.39c0-.09-.03-.18-.03-.27h.04v-162.53Z"/><ellipse class="cls-2" cx="4091.26" cy="284.01" rx="536.55" ry="59.39"/></g><g><g><path class="cls-11" d="m4197.98,391.42c-28.91.65-58.66,1.04-89.05,1.15v74.11c30.39-.11,60.14-.5,89.05-1.15v-74.11Z"/><path class="cls-11" d="m4108.92,471.32c-1.23,0-2.4-.49-3.27-1.35-.87-.87-1.36-2.05-1.36-3.29v-74.11c0-2.56,2.07-4.63,4.62-4.64,29.75-.11,59.69-.49,88.97-1.15,1.26-.01,2.45.45,3.35,1.32.89.87,1.4,2.07,1.4,3.32v74.11c0,2.52-2.01,4.58-4.53,4.64-29.33.66-59.32,1.04-89.14,1.15h-.02Zm4.64-74.13v64.83c26.69-.12,53.48-.47,79.78-1.03v-64.83c-26.31.56-53.1.9-79.78,1.03Z"/></g><g><path class="cls-11" d="m4080.99,392.59c-30.37-.06-60.12-.4-89.05-1v74.11c28.93.6,58.68.94,89.05,1v-74.11Z"/><path class="cls-11" d="m4080.99,471.33h0c-30-.06-59.99-.4-89.14-1-2.52-.05-4.54-2.11-4.54-4.64v-74.11c0-1.25.5-2.44,1.39-3.31s2.1-1.34,3.34-1.32c29.09.6,59.03.94,88.97,1,2.56,0,4.63,2.08,4.63,4.64v74.11c0,1.23-.49,2.41-1.36,3.28-.87.87-2.05,1.36-3.28,1.36Zm-84.42-10.19c26.15.52,52.94.82,79.78.9v-64.83c-26.83-.08-53.62-.38-79.78-.9v64.83Z"/></g><g><path class="cls-11" d="m3757.95,453.86c27.61,2.43,57.42,4.56,89.05,6.35v-74.11c-31.63-1.79-61.45-3.92-89.05-6.35v74.11Z"/><path class="cls-11" d="m3847,464.85c-.09,0-.18,0-.26,0-31.45-1.78-61.46-3.92-89.2-6.36-2.4-.21-4.23-2.22-4.23-4.62v-74.11c0-1.3.55-2.54,1.51-3.42.96-.88,2.24-1.31,3.54-1.2,27.62,2.43,57.54,4.56,88.91,6.34,2.46.14,4.38,2.17,4.38,4.63v74.11c0,1.28-.53,2.5-1.45,3.37-.86.82-2,1.27-3.19,1.27Zm-84.42-15.24c25,2.15,51.79,4.06,79.78,5.69v-64.82c-27.98-1.62-54.77-3.53-79.78-5.67v64.8Z"/></g><g><path class="cls-11" d="m3963.99,390.92c-30.81-.83-60.59-1.95-89.05-3.34v74.11c28.47,1.39,58.25,2.51,89.05,3.34v-74.11Z"/><path class="cls-11" d="m3963.99,469.66s-.08,0-.12,0c-30.64-.83-60.64-1.95-89.15-3.34-2.47-.12-4.41-2.16-4.41-4.63v-74.11c0-1.27.52-2.48,1.44-3.36.92-.88,2.16-1.33,3.43-1.27,28.43,1.39,58.35,2.51,88.95,3.34,2.51.07,4.51,2.12,4.51,4.64v74.11c0,1.25-.51,2.45-1.4,3.32-.87.84-2.03,1.32-3.24,1.32Zm-84.42-12.4c25.64,1.22,52.43,2.23,79.78,2.99v-64.83c-27.36-.76-54.15-1.77-79.78-2.99v64.82Z"/></g><g><path class="cls-11" d="m4314.97,387.2c-28.44,1.45-58.2,2.63-89.05,3.51v74.11c30.86-.88,60.62-2.07,89.05-3.51v-74.11Z"/><path class="cls-11" d="m4225.92,469.46c-1.21,0-2.37-.47-3.23-1.31-.9-.87-1.41-2.07-1.41-3.33v-74.11c0-2.51,2-4.56,4.51-4.64,30.31-.87,60.24-2.05,88.95-3.51,1.27-.07,2.51.4,3.43,1.27s1.44,2.09,1.44,3.36v74.11c0,2.47-1.94,4.51-4.4,4.63-28.74,1.46-58.74,2.64-89.16,3.52-.04,0-.09,0-.13,0Zm4.64-74.24v64.83c27.17-.81,53.96-1.87,79.78-3.15v-64.82c-25.86,1.28-52.65,2.33-79.78,3.14Z"/></g><g><path class="cls-11" d="m4459.9,376.36v74.11c32.08-3.36,60.42-7.15,84.24-11.29v-74.11c-23.83,4.14-52.16,7.93-84.24,11.29Z"/><path class="cls-11" d="m4459.9,455.11c-1.14,0-2.25-.42-3.1-1.19-.98-.88-1.53-2.13-1.53-3.45v-74.11c0-2.37,1.79-4.37,4.16-4.61,32.06-3.36,60.3-7.14,83.93-11.25,1.35-.24,2.73.14,3.78,1.02,1.05.88,1.65,2.18,1.65,3.55v74.11c0,2.25-1.62,4.18-3.84,4.57-23.84,4.14-52.29,7.96-84.55,11.34-.16.02-.32.03-.48.03Zm4.64-74.57v64.78c28.25-3.04,53.43-6.41,74.97-10.05v-64.7c-21.63,3.61-46.8,6.96-74.97,9.97Z"/></g><g><path class="cls-11" d="m3730.01,377.12c-35.11-3.54-66-7.59-91.63-12.04v74.11c25.63,4.46,56.52,8.5,91.63,12.04v-74.11Z"/><path class="cls-11" d="m3730.01,455.86c-.15,0-.31,0-.47-.02-35.44-3.58-66.38-7.64-91.96-12.09-2.22-.39-3.84-2.31-3.84-4.57v-74.11c0-1.37.6-2.67,1.65-3.55,1.05-.88,2.43-1.25,3.78-1.02,25.36,4.41,56.08,8.45,91.3,12,2.37.24,4.17,2.23,4.17,4.61v74.11c0,1.31-.55,2.56-1.53,3.44-.86.77-1.97,1.2-3.11,1.2Zm-87-20.59c23.35,3.94,51.01,7.57,82.36,10.82v-64.78c-31.26-3.22-58.91-6.83-82.36-10.74v64.7Z"/></g><g><path class="cls-11" d="m4431.96,379.09c-27.52,2.51-57.34,4.72-89.05,6.59v74.11c31.71-1.87,61.53-4.08,89.05-6.59v-74.11Z"/><path class="cls-11" d="m4342.91,464.42c-1.18,0-2.32-.45-3.18-1.26-.93-.88-1.46-2.1-1.46-3.38v-74.11c0-2.46,1.91-4.49,4.37-4.63,31.42-1.85,61.33-4.06,88.91-6.57,1.3-.12,2.59.31,3.55,1.19s1.51,2.12,1.51,3.43v74.11c0,2.4-1.83,4.4-4.22,4.62-27.69,2.52-57.7,4.74-89.2,6.6-.09,0-.18,0-.27,0Zm4.64-74.38v64.82c28.03-1.69,54.82-3.67,79.78-5.9v-64.79c-24.97,2.22-51.76,4.19-79.78,5.88Z"/></g></g><g><g><circle class="cls-4" cx="3742.94" cy="672.86" r="57.35"/><circle class="cls-14" cx="3742.94" cy="672.86" r="27.75"/></g><g><circle class="cls-4" cx="3882.78" cy="685.67" r="57.35"/><circle class="cls-14" cx="3882.78" cy="685.67" r="27.75"/></g></g><g><g><circle class="cls-4" cx="4420.76" cy="672.86" r="57.35"/><circle class="cls-14" cx="4420.76" cy="672.86" r="27.75"/></g><g><circle class="cls-4" cx="4280.93" cy="685.67" r="57.35"/><circle class="cls-14" cx="4280.93" cy="685.67" r="27.75"/></g></g></g><g><g><g><rect class="cls-11" x="3770.8" y="0" width="39.43" height="281.89" rx="18.56" ry="18.56"/><rect class="cls-11" x="3746.9" y="123.48" width="24" height="158.41" rx="10.86" ry="10.86" transform="translate(261.34 -1189.24) rotate(18.61)"/><rect class="cls-11" x="3809.75" y="123.48" width="24" height="158.41" rx="10.86" ry="10.86" transform="translate(7508.27 -825.13) rotate(161.39)"/></g><g><rect class="cls-11" x="4349.65" y="0" width="39.43" height="281.89" rx="18.56" ry="18.56"/><rect class="cls-11" x="4325.75" y="123.48" width="24" height="158.41" rx="10.86" ry="10.86" transform="translate(291.62 -1374.01) rotate(18.61)"/><rect class="cls-11" x="4388.6" y="123.48" width="24" height="158.41" rx="10.86" ry="10.86" transform="translate(8635.69 -1009.9) rotate(161.39)"/></g></g><path class="cls-11" d="m4079.75,119.31c-60.44,0-119.82-7.32-171.73-21.18-50.76-13.55-93.39-33.03-123.28-56.33l9.5-12.19c58.76,45.8,168.16,74.24,285.5,74.24s232.78-29.95,290.35-78.16l9.93,11.85c-60.22,50.43-175.28,81.76-300.27,81.76Z"/></g><rect class="cls-2" x="3702.27" y="260.63" width="761.42" height="31.94"/><g><g><ellipse class="cls-1" cx="4091.26" cy="239.01" rx="179.75" ry="28.95"/><polygon class="cls-1" points="4271.01 237.7 3911.51 237.7 3954.19 170.71 4228.33 170.71 4271.01 237.7"/></g><ellipse class="cls-2" cx="4091.26" cy="170.78" rx="137.07" ry="22.07"/></g><g><g><circle class="cls-4" cx="4039.3" cy="226.68" r="15.34"/><path class="cls-10" d="m4039.3,246.66c-11.02,0-19.98-8.96-19.98-19.98s8.96-19.98,19.98-19.98,19.98,8.96,19.98,19.98-8.96,19.98-19.98,19.98Zm0-30.69c-5.9,0-10.71,4.8-10.71,10.71s4.8,10.71,10.71,10.71,10.71-4.8,10.71-10.71-4.8-10.71-10.71-10.71Z"/></g><g><circle class="cls-4" cx="4143.22" cy="226.68" r="15.34"/><path class="cls-10" d="m4143.22,246.66c-11.02,0-19.98-8.96-19.98-19.98s8.96-19.98,19.98-19.98,19.98,8.96,19.98,19.98-8.96,19.98-19.98,19.98Zm0-30.69c-5.9,0-10.71,4.8-10.71,10.71s4.8,10.71,10.71,10.71,10.71-4.8,10.71-10.71-4.8-10.71-10.71-10.71Z"/></g></g></g><g><g><rect class="cls-12" x="5844.13" y="99.83" width="30.4" height="460.14"/><g><g><rect class="cls-12" x="5864.74" y="180.15" width="64.3" height="10.83" rx="4.74" ry="4.74"/><rect class="cls-12" x="5864.74" y="426.96" width="64.3" height="10.83" rx="4.74" ry="4.74"/></g><path class="cls-12" d="m6095.73,99.83h-146.77c-11,0-19.92,8.92-19.92,19.92v378.45c0,11,8.92,19.92,19.92,19.92h146.77c11,0,19.92-8.92,19.92-19.92V119.74c0-11-8.92-19.92-19.92-19.92Zm5.94,397.98c0,3.5-2.84,6.33-6.33,6.33h-145.98c-3.5,0-6.33-2.84-6.33-6.33V120.14c0-3.5,2.84-6.33,6.33-6.33h145.98c3.5,0,6.33,2.84,6.33,6.33v377.67Z"/><rect class="cls-16" x="5919.72" y="105.05" width="181.95" height="407.85" rx="17.43" ry="17.43"/><path class="cls-12" d="m6084.08,99.83h-146.77c-11,0-19.92,8.92-19.92,19.92v378.45c0,11,8.92,19.92,19.92,19.92h146.77c11,0,19.92-8.92,19.92-19.92V119.74c0-11-8.92-19.92-19.92-19.92Zm5.94,397.98c0,3.5-2.84,6.33-6.33,6.33h-145.98c-3.5,0-6.33-2.84-6.33-6.33V120.14c0-3.5,2.84-6.33,6.33-6.33h145.98c3.5,0,6.33,2.84,6.33,6.33v377.67Z"/></g></g><g><g><path class="cls-2" d="m5968.75,503.58c-2.06-21.56,12.71-50.83,12.71-50.83l49.5,6.46s11.2,29.14,10.65,44.37"/><path d="m5968.75,505.2c-.82,0-1.52-.62-1.6-1.46-2.08-21.77,12.26-50.5,12.88-51.71.31-.61.97-.96,1.65-.87l49.5,6.46c.59.08,1.08.47,1.3,1.02.46,1.2,11.31,29.62,10.75,45.01-.03.89-.78,1.59-1.67,1.55-.89-.03-1.59-.78-1.55-1.67.48-13.25-8.35-37.85-10.2-42.84l-47.39-6.18c-2.54,5.33-13.83,30.31-12.05,48.92.08.89-.56,1.67-1.45,1.76-.05,0-.1,0-.16,0Z"/></g><circle class="cls-2" cx="6030.56" cy="469.66" r="13.55" transform="translate(1753.87 4747.3) rotate(-49.46)"/><g><g><path d="m6034.11,409.2c3.78-4.34,9.44-7.09,16.34-7.93,6.3-.78,13.26,1.71,19,7.69,8.3,8.62,9.49,28.53,1.63,37.32-3.96,4.43-10.72,7.98-16.16,8.64-1.13.14-2.22.32-3.28.41-6.2.5-11.24-.72-15-3.65-4.72-3.67-7.45-10.03-8.11-18.91-.02-.27-.09-1.1-.11-1.36-.8-9.48,1.1-16.95,5.67-22.2Z"/><path d="m6010.72,357.55c17.13-1.36,35.23,5.84,46.26,22.74,4.9,7.51,10.38,20.48,11.1,30.8.05.67-43.63-2.99-43.63-2.99-1.15.03-2.11-.73-2.3-1.8l-13.73-38.6c-.12-.7-5.33-9.55,2.29-10.15Z"/><g><path class="cls-2" d="m5994.52,467.1c-14.57-2.05-32.47-10.66-36.16-27.01-1.92-8.49-2.95-29.54,4.35-47.29,7.59-18.47,23.24-29.14,45.59-30.07,18.49-.77,35.44,8.53,44.61,22.92,10.96,17.2,15.79,45.84,10.18,60.64-3.31,8.73-11.28,14.02-20.71,17.33"/><path d="m5994.53,468.68c-.07,0-.15,0-.22-.02-8.27-1.17-16.37-4.14-22.81-8.39-7.83-5.16-12.9-12.02-14.67-19.83-2.11-9.35-2.78-30.71,4.43-48.24,7.96-19.36,24.2-30.1,46.98-31.04,18.59-.78,36.22,8.28,46.01,23.65,11.31,17.74,16.13,46.73,10.33,62.04-3.09,8.15-10.38,14.29-21.66,18.25-.82.29-1.72-.14-2.01-.96-.29-.82.14-1.72.96-2.01,10.51-3.69,16.98-9.05,19.76-16.4,5.41-14.27.63-42.5-10.04-59.23-9.19-14.42-25.75-22.92-43.22-22.2-21.46.89-36.74,10.95-44.2,29.1-6.93,16.86-6.3,37.38-4.27,46.35,3.36,14.9,19.92,23.69,34.84,25.8.86.12,1.46.92,1.34,1.78-.11.79-.78,1.35-1.56,1.35Z"/></g><path d="m5945.11,434.98c-.63-9.88,2.36-17.34,5.13-20.73,3.31-4.04,7.4-6.24,12.05-6.39,5.64-.19,10.51,1.74,14.1,5.55,4.27,4.52,7.87,13.41,7.86,24.17-.01,8.81-3.24,16.23-9.09,19.85-7.29,4.51-15.21,1.33-19.99-2.06-5.29-3.74-9.47-11.2-10.06-20.4Z"/><path d="m5962.4,390.35c3.93-9.78,14.29-27.29,40.71-32.11,12.28-2.24,26.35.47,32.54,3.68,16.65,8.63,24.11,26.31,24.34,26.87.4.92.01,16.62.01,16.62,0,0-3.06-12.32-13.14-21.56-9.99-9.16-21.92-10.04-32.57-8.82-11.11,1.28-26.02,6.63-32.36,21.2-5.04,11.6-5.35,25.08-5.35,25.08l-20.34-.98s.4-15.64,6.17-29.98Z"/><path class="cls-15" d="m5948.97,444.36c.05-.91.12-1.83.18-2.71.3-3.92.78-7.87,1.43-11.76l.14-.86c.39-2.35.79-4.77,1.42-7.08.3-1.08,1.03-2.23,2.17-2.29.75-.03,1.42.07,2.02.3.59.23,1.34.86,1.58,2.53.16,1.13.25,2.33.34,3.48.07,1,.16,2.02.28,3.01.26,2.07.54,3.97.85,5.77.36-1.81.77-3.68,1.24-5.58.07-.26.12-.52.19-.78.44-1.81.89-3.67,1.56-5.43.32-.85,1.11-1.86,2.25-1.92.71-.04,1.46.07,2.31.32,1.05.32,1.81,1.46,1.95,2.88.06.68.09,1.38.12,2.05.02.38.03.74.06,1.12.44,7.26,1.63,14.23,2.62,19.49.25,1.32.04,3.52-1.61,3.8-.17.02-.34.03-.5.01-.35-.04-.69-.18-1-.41-.82-.62-1.29-1.81-1.45-2.65-.89-4.77-1.8-9.84-2.33-14.95-.7,3.23-1.28,6.51-1.74,9.8-.09.62-.16,1.24-.24,1.85-.1.78-.2,1.57-.31,2.35-.03.23-.07.42-.1.6-.2,1.06-.93,2.21-2.06,2.23-.08,0-.18,0-.28,0-.03,0-.05,0-.07,0-.1-.02-.2-.03-.31-.06-1.15-.33-1.87-1.54-2.18-2.56-.8-2.72-1.51-5.87-2.17-9.59-.28-1.61-.52-3.21-.74-4.78-.51,3.81-.87,7.51-1.07,11.05-.03.69-.07,1.4-.1,2.15-.02.82-.36,1.85-1.06,2.32-.44.3-.98.32-1.51.11-1.36-.58-1.99-2.35-1.9-3.79Z"/></g><g><path d="m6039.93,430.62c.27,2.93,2.75,5.09,5.54,4.82,2.79-.27,4.83-2.86,4.56-5.8-.27-2.93-2.75-5.08-5.54-4.81-2.79.27-4.83,2.86-4.56,5.79Z"/><path d="m6027.14,441.34c.17,2.13,3.22,4.83,5.6,4.63,2.38-.19,5-3.09,4.81-5.48-.19-2.38-2.86-2.75-5.44-2.54-2.58.22-5.14,1.26-4.97,3.39Z"/><path d="m6004.48,417.38c-.31,0-.62-.08-.9-.24-.86-.5-1.16-1.59-.66-2.45.1-.17,2.41-4.12,7.16-4.47,5.03-.38,8.04,3.15,8.17,3.3.64.77.54,1.91-.23,2.55-.76.64-1.9.54-2.54-.22-.1-.11-2-2.26-5.14-2.03-2.8.21-4.24,2.57-4.3,2.67-.34.57-.94.89-1.56.89Z"/><path d="m6040.31,415.29c-.29,0-.58-.07-.85-.21-.88-.47-1.21-1.55-.75-2.43.09-.17,2.24-4.16,6.76-4.49,4.78-.35,7.61,3.24,7.73,3.39.61.79.47,1.92-.32,2.54-.79.61-1.92.47-2.53-.31-.09-.11-1.84-2.19-4.62-2.01-2.49.18-3.77,2.48-3.83,2.58-.33.6-.95.95-1.6.95Z"/><g><path d="m6028.01,453.51c-1.93,0-3.63-1.05-4.4-2.82-.25-.58.01-1.25.59-1.5.58-.25,1.25.01,1.5.59.42.96,1.55,1.75,3.13,1.34,1.7-.43,2.77-2.15,2.62-4.17l-.09-2.29c-.02-.63.47-1.16,1.1-1.18.62,0,1.16.47,1.18,1.1l.08,2.24c.24,3.1-1.54,5.79-4.33,6.51-.47.12-.94.18-1.39.18Z"/><path d="m6035.86,452.7c-.09,0-.17,0-.26,0-2.27-.14-3.85-2.36-4.11-5.79l-.18-2.44c-.05-.63.42-1.18,1.05-1.22.63-.04,1.18.42,1.22,1.05l.18,2.44c.14,1.78.8,3.62,1.97,3.69.49.01,1.83-.18,2-1.48.08-.63.65-1.07,1.27-.99.63.08,1.07.65.99,1.27-.29,2.31-2.3,3.49-4.15,3.49Z"/></g></g><g><path class="cls-2" d="m6006.78,433.15s5.19-2.94,9.74-.06"/><path d="m6006.79,434.67c-.53,0-1.05-.28-1.33-.77-.41-.73-.15-1.65.57-2.07.24-.14,6.05-3.35,11.3-.02.71.45.92,1.39.47,2.1-.45.71-1.39.92-2.1.47-3.7-2.34-8.14.08-8.18.1-.23.13-.49.19-.74.19Z"/></g></g><g><path class="cls-2" d="m6036.54,474.98c1.6-6.49-1.14-11.39-5.41-12.13-2.98-.51-7.39,1.62-7.73,12.14-.34,10.52,4.31,13.89,8.02,15.62,3.22,1.5,10.98,2.6,14.49-3.35,2.55-4.33,2.12-15.38-3.07-23.43"/><path d="m6037.22,493.34c-2.57,0-4.96-.62-6.46-1.32-4-1.86-9.29-5.66-8.92-17.08.19-5.92,1.63-10.02,4.28-12.19,1.53-1.25,3.4-1.76,5.27-1.43,2.2.38,4.13,1.67,5.41,3.64,1.78,2.72,2.22,6.42,1.24,10.39-.21.83-1.05,1.35-1.88,1.14-.83-.21-1.34-1.05-1.14-1.88.76-3.08.46-5.98-.82-7.94-.82-1.26-1.97-2.04-3.34-2.28-.68-.11-1.72-.08-2.77.78-1.87,1.52-2.98,5.03-3.14,9.87-.3,9.47,3.64,12.54,7.12,14.15,2.67,1.25,9.54,2.29,12.49-2.73,2.14-3.64,2.02-13.94-3.04-21.8-.47-.72-.26-1.69.47-2.15.72-.47,1.69-.26,2.15.46,5.34,8.3,6.05,20.08,3.11,25.07-2.39,4.05-6.39,5.29-10.03,5.3Z"/></g><g><path class="cls-2" d="m5980.5,473.21c-.57,2.96-.45,7.07,3.69,11.48,9.59,10.22,28.33,9.85,35.37,6.49,6.83-3.26,8.17-10.34,8.8-15.87.63-5.53-.9-10.37-5.22-11.41-9.46-2.3-11.02,11.25-11.02,11.25,0,0-4.72-.26-8.56-2.82"/><path d="m6007.58,494.85c-8.34,0-18.2-2.34-24.52-9.08-3.61-3.85-4.98-8.17-4.09-12.84.16-.84.98-1.4,1.82-1.24.84.16,1.4.98,1.24,1.82-.45,2.36-.6,5.97,3.3,10.13,8.91,9.5,26.79,9.38,33.57,6.15,5.81-2.77,7.25-8.67,7.93-14.64.23-2,.61-8.6-4.04-9.72-1.83-.45-3.36-.21-4.68.7-3.6,2.51-4.42,9.15-4.42,9.21-.1.82-.82,1.43-1.63,1.38-.21-.01-5.19-.31-9.33-3.08-.72-.48-.91-1.44-.43-2.16.48-.71,1.44-.91,2.16-.43,2.23,1.49,4.85,2.12,6.41,2.38.52-2.51,1.95-7.4,5.47-9.86,2.07-1.44,4.49-1.84,7.2-1.18,4.74,1.15,7.19,6.17,6.4,13.1-.75,6.53-2.48,13.66-9.68,17.1-2.78,1.33-7.42,2.25-12.65,2.25Z"/></g></g><g><path d="m5941.93,164.03c0-3.49,1.74-6.49,5.22-8.98,3.49-2.49,5.25-4.61,5.26-6.35v-7.61c0-1.75-.8-2.63-2.41-2.63h-.04c-1.62,0-2.43.88-2.43,2.63v5.2h-5.6v-5.2c0-5.45,2.68-8.17,8.03-8.17s8.05,2.72,8.05,8.17v7.75c0,3.56-1.75,6.59-5.24,9.1-3.49,2.49-5.24,4.68-5.24,6.57v2.33h10.48v5.52h-16.08v-8.33Z"/><path d="m5979.03,164.82c0,5.43-2.68,8.15-8.05,8.15s-8.03-2.72-8.03-8.15v-23.73c0-5.45,2.68-8.17,8.03-8.17s8.05,2.72,8.05,8.17v23.73Zm-5.6-23.73c0-1.75-.81-2.63-2.43-2.63h-.04c-1.61,0-2.41.88-2.41,2.63v23.73c0,1.75.81,2.63,2.43,2.63s2.45-.88,2.45-2.63v-23.73Z"/><path d="m5983.98,164.03c0-3.49,1.74-6.49,5.22-8.98,3.49-2.49,5.25-4.61,5.26-6.35v-7.61c0-1.75-.8-2.63-2.41-2.63h-.04c-1.62,0-2.43.88-2.43,2.63v5.2h-5.6v-5.2c0-5.45,2.68-8.17,8.03-8.17s8.05,2.72,8.05,8.17v7.75c0,3.56-1.75,6.59-5.24,9.1-3.49,2.49-5.24,4.68-5.24,6.57v2.33h10.48v5.52h-16.08v-8.33Z"/><path d="m6005.2,164.03c0-3.49,1.74-6.49,5.22-8.98,3.49-2.49,5.25-4.61,5.26-6.35v-7.61c0-1.75-.8-2.63-2.41-2.63h-.04c-1.62,0-2.43.88-2.43,2.63v5.2h-5.6v-5.2c0-5.45,2.68-8.17,8.03-8.17s8.05,2.72,8.05,8.17v7.75c0,3.56-1.75,6.59-5.24,9.1-3.49,2.49-5.24,4.68-5.24,6.57v2.33h10.48v5.52h-16.08v-8.33Z"/><path d="m5954.12,208.74l6.51-26.58h5.6v38.8h-5.36v-21.77l-4.79,21.77h-3.8l-4.92-21.77v21.77h-5.42v-38.8h5.6l6.59,26.58Z"/><path d="m5987.04,213.43c0,5.43-2.68,8.15-8.05,8.17-5.35,0-8.03-2.72-8.03-8.17v-23.73c0-5.43,2.68-8.15,8.03-8.15s8.05,2.72,8.05,8.15v23.73Zm-5.6-23.73c0-1.74-.81-2.62-2.43-2.63h-.04c-1.61,0-2.41.88-2.41,2.63v23.73c0,1.75.81,2.63,2.43,2.63s2.45-.88,2.45-2.63v-23.73Z"/><path d="m6007.47,213.43c0,5.43-2.68,8.15-8.05,8.17-5.35,0-8.03-2.72-8.03-8.17v-23.73c0-5.43,2.68-8.15,8.03-8.15s8.05,2.72,8.05,8.15v23.73Zm-5.6-23.73c0-1.74-.81-2.62-2.43-2.63h-.04c-1.61,0-2.41.88-2.41,2.63v23.73c0,1.75.81,2.63,2.43,2.63s2.45-.88,2.45-2.63v-23.73Z"/><path d="m6023.89,220.96h-7.67l-3.96-25.08-1.82-13.73h5.66l3.94,29.9,3.96-29.9h5.66l-1.82,13.76-3.94,25.04Z"/><path d="m5954.12,257.34l6.51-26.58h5.6v38.8h-5.36v-21.77l-4.79,21.77h-3.8l-4.92-21.77v21.77h-5.42v-38.8h5.6l6.59,26.58Z"/><path d="m5987.24,262.98c0,4.8-2.68,7.21-8.05,7.22-5.35,0-8.03-2.41-8.03-7.22v-27.65h5.6v27.65c0,1.54.81,2.31,2.43,2.31s2.45-.77,2.45-2.31v-27.65h5.6v27.65Z"/><path d="m5991.79,242c0-4.8,2.68-7.2,8.03-7.2s8.05,2.4,8.05,7.2v4.61h-5.6v-4.61c0-1.54-.81-2.31-2.43-2.31h-.04c-1.61,0-2.41.77-2.41,2.31v3.1c0,1.53,1.75,3.4,5.24,5.62,3.49,2.2,5.24,4.85,5.24,7.93v4.33c0,4.81-2.68,7.22-8.03,7.22-5.37-.01-8.05-2.42-8.05-7.22v-4.61h5.6v4.61c0,1.54.82,2.31,2.45,2.31s2.43-.77,2.43-2.31v-3.92c0-1.66-1.75-3.6-5.24-5.81-3.49-2.2-5.24-4.88-5.24-8.03v-3.22Z"/><path d="m6012.71,235.27h5.6v34.29h-5.6v-34.29Z"/><path d="m6039.23,262.98c0,4.8-2.68,7.21-8.05,7.22-5.35,0-8.03-2.41-8.03-7.22v-20.98c0-4.8,2.68-7.2,8.03-7.2s8.05,2.4,8.05,7.2v4.61h-5.6v-4.61c0-1.54-.81-2.31-2.43-2.31h-.04c-1.61,0-2.41.77-2.41,2.31v20.98c0,1.54.81,2.31,2.43,2.31s2.45-.77,2.45-2.31v-4.61h5.6v4.61Z"/><path d="m5939.96,305.41h5.6v5.22c0,1.75.82,2.63,2.45,2.63s2.43-.88,2.43-2.63v-31.27h5.6v31.27c0,5.45-2.68,8.17-8.03,8.17-5.37-.01-8.05-2.74-8.05-8.17v-5.22Z"/><path d="m5976.86,311.58c0,4.8-2.68,7.21-8.05,7.22-5.35,0-8.03-2.41-8.03-7.22v-20.98c0-4.8,2.68-7.2,8.03-7.2s8.05,2.4,8.05,7.2v20.98Zm-5.6-20.98c0-1.54-.81-2.31-2.43-2.31h-.04c-1.61,0-2.41.77-2.41,2.31v20.98c0,1.54.81,2.31,2.43,2.31s2.45-.77,2.45-2.31v-20.98Z"/><path d="m5997.49,311.58c0,4.8-2.68,7.21-8.05,7.22-5.35,0-8.03-2.41-8.03-7.22v-27.65h5.6v27.65c0,1.54.81,2.31,2.43,2.31s2.45-.77,2.45-2.31v-27.65h5.6v27.65Z"/><path d="m6002.43,283.88h8.15c4.97,0,7.46,2.41,7.46,7.22v5.14c0,3.02-1.47,5.01-4.41,5.97l6.29,15.96h-6.13l-5.04-15.09-.71.1v14.99h-5.6v-34.29Zm5.6,4.87v9.83h1.29c.78,0,1.31-.05,1.6-.14,1.02-.36,1.52-1.09,1.52-2.2v-5.14c0-1.57-.81-2.35-2.43-2.35h-1.98Z"/><path d="m6023.08,283.88h5.6l5.3,19.9v-19.9h5.18v34.29h-5.6l-5.1-19.26v19.26h-5.38v-34.29Z"/><path d="m6044.3,283.88h14.52v4.87h-8.92v9.83h7.67v4.9h-7.67v9.81h8.92v4.88h-14.52v-34.29Z"/><path d="m6067.12,283.88l3.82,13.37,3.82-13.37h5.93l-6.78,19.44-.16.44v14.42h-5.6v-14.42l-.18-.44-6.78-19.44h5.93Z"/></g></g><g><g><g><rect class="cls-13" x="4735.22" y="164.28" width="25.41" height="6.23" rx="2.73" ry="2.73"/><rect class="cls-13" x="4735.22" y="306.29" width="25.41" height="6.23" rx="2.73" ry="2.73"/></g><path class="cls-13" d="m4850.72,356.68h-84.17c-6.49,0-11.77-5.28-11.77-11.77v-213.03c0-6.49,5.28-11.77,11.77-11.77h84.17c6.49,0,11.77,5.28,11.77,11.77v213.03c0,6.49-5.28,11.77-11.77,11.77Zm-84.17-230.13c-2.94,0-5.33,2.39-5.33,5.33v213.03c0,2.94,2.39,5.33,5.33,5.33h84.17c2.94,0,5.33-2.39,5.33-5.33v-213.03c0-2.94-2.39-5.33-5.33-5.33h-84.17Z"/><rect class="cls-18" x="4704.29" y="198.49" width="208.68" height="79.83" transform="translate(5047.03 -4570.23) rotate(90)"/><path class="cls-9" d="m4770.06,342.14c-.1,0-.21-.03-.3-.09l-9.65-6.46c-.15-.1-.24-.27-.24-.45s.09-.35.24-.45l8.98-6-8.98-6c-.15-.1-.24-.27-.24-.45s.09-.35.24-.45l8.98-6-8.98-6c-.15-.1-.24-.27-.24-.45s.09-.35.24-.45l8.98-6-8.98-6c-.15-.1-.24-.27-.24-.45s.09-.35.24-.45l8.98-6-8.98-6c-.15-.1-.24-.27-.24-.45s.09-.35.24-.45l8.98-6-8.98-6c-.15-.1-.24-.27-.24-.45s.09-.35.24-.45l8.98-6-8.98-6c-.15-.1-.24-.27-.24-.45s.09-.35.24-.45l8.98-6-8.98-6c-.15-.1-.24-.27-.24-.45s.09-.35.24-.45l8.98-6-8.98-6c-.15-.1-.24-.27-.24-.45s.09-.35.24-.45l8.98-6-8.98-6c-.15-.1-.24-.27-.24-.45s.09-.35.24-.45l8.98-6-8.98-6c-.15-.1-.24-.27-.24-.45s.09-.35.24-.45l8.98-6-8.98-6c-.15-.1-.24-.27-.24-.45s.09-.35.24-.45l8.98-6-8.98-6c-.15-.1-.24-.27-.24-.45s.09-.35.24-.45l8.98-6-8.98-6c-.15-.1-.24-.27-.24-.45s.09-.35.24-.45l8.98-6-8.98-6c-.15-.1-.24-.27-.24-.45s.09-.35.24-.45l8.98-6-8.98-6c-.15-.1-.24-.27-.24-.45s.09-.35.24-.45l9.65-6.45c.25-.17.59-.1.75.15.17.25.1.59-.15.75l-8.98,6,8.98,6c.15.1.24.27.24.45s-.09.35-.24.45l-8.98,6,8.98,6c.15.1.24.27.24.45s-.09.35-.24.45l-8.98,6,8.98,6c.15.1.24.27.24.45s-.09.35-.24.45l-8.98,6,8.98,6c.15.1.24.27.24.45s-.09.35-.24.45l-8.98,6,8.98,6c.15.1.24.27.24.45s-.09.35-.24.45l-8.98,6,8.98,6c.15.1.24.27.24.45s-.09.35-.24.45l-8.98,6,8.98,6c.15.1.24.27.24.45s-.09.35-.24.45l-8.98,6,8.98,6c.15.1.24.27.24.45s-.09.35-.24.45l-8.98,6,8.98,6c.15.1.24.27.24.45s-.09.35-.24.45l-8.98,6,8.98,6c.15.1.24.27.24.45s-.09.35-.24.45l-8.98,6,8.98,6c.15.1.24.27.24.45s-.09.35-.24.45l-8.98,6,8.98,6c.15.1.24.27.24.45s-.09.35-.24.45l-8.98,6,8.98,6c.15.1.24.27.24.45s-.09.35-.24.45l-8.98,6,8.98,6c.15.1.24.27.24.45s-.09.35-.24.45l-8.98,6,8.98,6c.15.1.24.27.24.45s-.09.35-.24.45l-8.98,6,8.98,6c.25.17.32.5.15.75-.11.16-.28.24-.45.24Z"/><path class="cls-9" d="m4847.45,342.14c-.18,0-.35-.08-.45-.24-.17-.25-.1-.59.15-.75l8.98-6-8.98-6c-.15-.1-.24-.27-.24-.45s.09-.35.24-.45l8.98-6-8.98-6c-.15-.1-.24-.27-.24-.45s.09-.35.24-.45l8.98-6-8.98-6c-.15-.1-.24-.27-.24-.45s.09-.35.24-.45l8.98-6-8.98-6c-.15-.1-.24-.27-.24-.45s.09-.35.24-.45l8.98-6-8.98-6c-.15-.1-.24-.27-.24-.45s.09-.35.24-.45l8.98-6-8.98-6c-.15-.1-.24-.27-.24-.45s.09-.35.24-.45l8.98-6-8.98-6c-.15-.1-.24-.27-.24-.45s.09-.35.24-.45l8.98-6-8.98-6c-.15-.1-.24-.27-.24-.45s.09-.35.24-.45l8.98-6-8.98-6c-.15-.1-.24-.27-.24-.45s.09-.35.24-.45l8.98-6-8.98-6c-.15-.1-.24-.27-.24-.45s.09-.35.24-.45l8.98-6-8.98-6c-.15-.1-.24-.27-.24-.45s.09-.35.24-.45l8.98-6-8.98-6c-.15-.1-.24-.27-.24-.45s.09-.35.24-.45l8.98-6-8.98-6c-.15-.1-.24-.27-.24-.45s.09-.35.24-.45l8.98-6-8.98-6c-.15-.1-.24-.27-.24-.45s.09-.35.24-.45l8.98-6-8.98-6c-.15-.1-.24-.27-.24-.45s.09-.35.24-.45l8.98-6-8.98-6c-.25-.17-.32-.5-.15-.75.17-.25.5-.32.75-.15l9.65,6.45c.15.1.24.27.24.45s-.09.35-.24.45l-8.98,6,8.98,6c.15.1.24.27.24.45s-.09.35-.24.45l-8.98,6,8.98,6c.15.1.24.27.24.45s-.09.35-.24.45l-8.98,6,8.98,6c.15.1.24.27.24.45s-.09.35-.24.45l-8.98,6,8.98,6c.15.1.24.27.24.45s-.09.35-.24.45l-8.98,6,8.98,6c.15.1.24.27.24.45s-.09.35-.24.45l-8.98,6,8.98,6c.15.1.24.27.24.45s-.09.35-.24.45l-8.98,6,8.98,6c.15.1.24.27.24.45s-.09.35-.24.45l-8.98,6,8.98,6c.15.1.24.27.24.45s-.09.35-.24.45l-8.98,6,8.98,6c.15.1.24.27.24.45s-.09.35-.24.45l-8.98,6,8.98,6c.15.1.24.27.24.45s-.09.35-.24.45l-8.98,6,8.98,6c.15.1.24.27.24.45s-.09.35-.24.45l-8.98,6,8.98,6c.15.1.24.27.24.45s-.09.35-.24.45l-8.98,6,8.98,6c.15.1.24.27.24.45s-.09.35-.24.45l-8.98,6,8.98,6c.15.1.24.27.24.45s-.09.35-.24.45l-8.98,6,8.98,6c.15.1.24.27.24.45s-.09.35-.24.45l-9.65,6.45c-.09.06-.2.09-.3.09Z"/><path class="cls-9" d="m4847.47,135.74c-.18,0-.35-.08-.45-.24l-6-8.98-6,8.98c-.2.3-.7.3-.9,0l-6-8.98-6,8.98c-.2.3-.7.3-.9,0l-6-8.98-6,8.98c-.2.3-.7.3-.9,0l-6-8.98-6,8.98c-.2.3-.7.3-.9,0l-6-8.98-6,8.98c-.1.15-.27.24-.45.24h0c-.18,0-.35-.09-.45-.24l-6-8.98-6,8.98c-.17.25-.5.31-.75.15-.25-.17-.32-.5-.15-.75l6.46-9.65c.1-.15.27-.24.45-.24h0c.18,0,.35.09.45.24l6,8.98,6-8.98c.1-.15.27-.24.45-.24h0c.18,0,.35.09.45.24l6,8.98,6-8.98c.2-.3.7-.3.9,0l6,8.98,6-8.98c.2-.3.7-.3.9,0l6,8.98,6-8.98c.1-.15.27-.24.45-.24h0c.18,0,.35.09.45.24l6,8.98,6-8.98c.2-.3.7-.3.9,0l6.45,9.65c.17.25.1.59-.15.75-.09.06-.2.09-.3.09Z"/><path class="cls-9" d="m4841.02,351.79h0c-.18,0-.35-.09-.45-.24l-6-8.98-6,8.98c-.1.15-.27.24-.45.24h0c-.18,0-.35-.09-.45-.24l-6-8.98-6,8.98c-.2.3-.7.3-.9,0l-6-8.98-6,8.98c-.2.3-.7.3-.9,0l-6-8.98-6,8.98c-.2.3-.7.3-.9,0l-6-8.98-6,8.98c-.2.3-.7.3-.9,0l-6.45-9.65c-.17-.25-.1-.59.15-.75.25-.17.59-.1.75.15l6,8.98,6-8.98c.2-.3.7-.3.9,0l6,8.98,6-8.98c.1-.15.27-.24.45-.24h0c.18,0,.35.09.45.24l6,8.98,6-8.98c.2-.3.7-.3.9,0l6,8.98,6-8.98c.2-.3.7-.3.9,0l6,8.98,6-8.98c.1-.15.27-.24.45-.24h0c.18,0,.35.09.45.24l6,8.98,6-8.98c.17-.25.5-.32.75-.15.25.17.32.5.15.75l-6.46,9.65c-.1.15-.27.24-.45.24Z"/></g><g><path class="cls-17" d="m4731.87,234.1h5.61v-88.81c0-13.44,3.63-26.65,10.48-38.2,13.42-22.61,38.08-36.65,64.37-36.65h13.42v-5.61h-13.42c-13.93,0-27.7,3.64-39.81,10.54-12.11,6.89-22.27,16.87-29.38,28.86-7.37,12.42-11.27,26.62-11.27,41.07v88.81Z"/><path class="cls-13" d="m4814.09,55.78h54.67v2.26c0,9.71-7.88,17.6-17.6,17.6h-19.47c-9.71,0-17.6-7.88-17.6-17.6v-2.26h0Z" transform="translate(9682.85 131.41) rotate(180)"/><rect class="cls-17" x="4719.86" y="219.43" width="26.86" height="320.7" rx="13.43" ry="13.43"/></g><g><path d="m4781.46,160.62l5.27-21.52h4.53v31.42h-4.34v-17.63l-3.88,17.63h-3.07l-3.99-17.63v17.63h-4.39v-31.42h4.53l5.33,21.52Z"/><path d="m4808.12,164.41c0,4.4-2.17,6.6-6.52,6.61-4.33,0-6.5-2.2-6.5-6.61v-19.22c0-4.4,2.17-6.6,6.5-6.6s6.52,2.2,6.52,6.6v19.22Zm-4.53-19.22c0-1.41-.66-2.12-1.97-2.13h-.03c-1.3,0-1.95.71-1.95,2.13v19.22c0,1.42.66,2.13,1.97,2.13s1.99-.71,1.99-2.13v-19.22Z"/><path d="m4824.66,164.41c0,4.4-2.17,6.6-6.52,6.61-4.33,0-6.5-2.2-6.5-6.61v-19.22c0-4.4,2.17-6.6,6.5-6.6s6.52,2.2,6.52,6.6v19.22Zm-4.53-19.22c0-1.41-.66-2.12-1.97-2.13h-.03c-1.3,0-1.95.71-1.95,2.13v19.22c0,1.42.66,2.13,1.97,2.13s1.99-.71,1.99-2.13v-19.22Z"/><path d="m4837.96,170.51h-6.21l-3.2-20.3-1.47-11.11h4.58l3.19,24.21,3.2-24.21h4.58l-1.47,11.15-3.19,20.27Z"/><path d="m4781.46,199.97l5.27-21.52h4.53v31.42h-4.34v-17.63l-3.88,17.63h-3.07l-3.99-17.63v17.63h-4.39v-31.42h4.53l5.33,21.52Z"/><path d="m4808.12,203.76c0,4.4-2.17,6.6-6.52,6.61-4.33,0-6.5-2.2-6.5-6.61v-19.22c0-4.4,2.17-6.6,6.5-6.6s6.52,2.2,6.52,6.6v19.22Zm-4.53-19.22c0-1.41-.66-2.12-1.97-2.13h-.03c-1.3,0-1.95.71-1.95,2.13v19.22c0,1.42.66,2.13,1.97,2.13s1.99-.71,1.99-2.13v-19.22Z"/><path d="m4824.66,203.76c0,4.4-2.17,6.6-6.52,6.61-4.33,0-6.5-2.2-6.5-6.61v-19.22c0-4.4,2.17-6.6,6.5-6.6s6.52,2.2,6.52,6.6v19.22Zm-4.53-19.22c0-1.41-.66-2.12-1.97-2.13h-.03c-1.3,0-1.95.71-1.95,2.13v19.22c0,1.42.66,2.13,1.97,2.13s1.99-.71,1.99-2.13v-19.22Z"/><path d="m4837.96,209.86h-6.21l-3.2-20.3-1.47-11.11h4.58l3.19,24.21,3.2-24.21h4.58l-1.47,11.15-3.19,20.27Z"/><path d="m4781.46,239.32l5.27-21.52h4.53v31.42h-4.34v-17.63l-3.88,17.63h-3.07l-3.99-17.63v17.63h-4.39v-31.42h4.53l5.33,21.52Z"/><path d="m4808.12,243.12c0,4.4-2.17,6.6-6.52,6.61-4.33,0-6.5-2.2-6.5-6.61v-19.22c0-4.4,2.17-6.6,6.5-6.6s6.52,2.2,6.52,6.6v19.22Zm-4.53-19.22c0-1.41-.66-2.12-1.97-2.13h-.03c-1.3,0-1.95.71-1.95,2.13v19.22c0,1.42.66,2.13,1.97,2.13s1.99-.71,1.99-2.13v-19.22Z"/><path d="m4824.66,243.12c0,4.4-2.17,6.6-6.52,6.61-4.33,0-6.5-2.2-6.5-6.61v-19.22c0-4.4,2.17-6.6,6.5-6.6s6.52,2.2,6.52,6.6v19.22Zm-4.53-19.22c0-1.41-.66-2.12-1.97-2.13h-.03c-1.3,0-1.95.71-1.95,2.13v19.22c0,1.42.66,2.13,1.97,2.13s1.99-.71,1.99-2.13v-19.22Z"/><path d="m4837.96,249.22h-6.21l-3.2-20.3-1.47-11.11h4.58l3.19,24.21,3.2-24.21h4.58l-1.47,11.15-3.19,20.27Z"/><path d="m4781.46,278.67l5.27-21.52h4.53v31.42h-4.34v-17.63l-3.88,17.63h-3.07l-3.99-17.63v17.63h-4.39v-31.42h4.53l5.33,21.52Z"/><path d="m4808.12,282.47c0,4.4-2.17,6.6-6.52,6.61-4.33,0-6.5-2.2-6.5-6.61v-19.22c0-4.4,2.17-6.6,6.5-6.6s6.52,2.2,6.52,6.6v19.22Zm-4.53-19.22c0-1.41-.66-2.12-1.97-2.13h-.03c-1.3,0-1.95.71-1.95,2.13v19.22c0,1.42.66,2.13,1.97,2.13s1.99-.71,1.99-2.13v-19.22Z"/><path d="m4824.66,282.47c0,4.4-2.17,6.6-6.52,6.61-4.33,0-6.5-2.2-6.5-6.61v-19.22c0-4.4,2.17-6.6,6.5-6.6s6.52,2.2,6.52,6.6v19.22Zm-4.53-19.22c0-1.41-.66-2.12-1.97-2.13h-.03c-1.3,0-1.95.71-1.95,2.13v19.22c0,1.42.66,2.13,1.97,2.13s1.99-.71,1.99-2.13v-19.22Z"/><path d="m4837.96,288.57h-6.21l-3.2-20.3-1.47-11.11h4.58l3.19,24.21,3.2-24.21h4.58l-1.47,11.15-3.19,20.27Z"/><path d="m4781.46,318.03l5.27-21.52h4.53v31.42h-4.34v-17.63l-3.88,17.63h-3.07l-3.99-17.63v17.63h-4.39v-31.42h4.53l5.33,21.52Z"/><path d="m4808.12,321.82c0,4.4-2.17,6.6-6.52,6.61-4.33,0-6.5-2.2-6.5-6.61v-19.22c0-4.4,2.17-6.6,6.5-6.6s6.52,2.2,6.52,6.6v19.22Zm-4.53-19.22c0-1.41-.66-2.12-1.97-2.13h-.03c-1.3,0-1.95.71-1.95,2.13v19.22c0,1.42.66,2.13,1.97,2.13s1.99-.71,1.99-2.13v-19.22Z"/><path d="m4824.66,321.82c0,4.4-2.17,6.6-6.52,6.61-4.33,0-6.5-2.2-6.5-6.61v-19.22c0-4.4,2.17-6.6,6.5-6.6s6.52,2.2,6.52,6.6v19.22Zm-4.53-19.22c0-1.41-.66-2.12-1.97-2.13h-.03c-1.3,0-1.95.71-1.95,2.13v19.22c0,1.42.66,2.13,1.97,2.13s1.99-.71,1.99-2.13v-19.22Z"/><path d="m4837.96,327.92h-6.21l-3.2-20.3-1.47-11.11h4.58l3.19,24.21,3.2-24.21h4.58l-1.47,11.15-3.19,20.27Z"/></g></g></g></g></svg>