<?xml version="1.0" encoding="utf-8"?>
<!-- Generator: Adobe Illustrator 27.1.1, SVG Export Plug-In . SVG Version: 6.00 Build 0)  -->
<svg version="1.1" id="Layer_2_00000106849931758286826240000004569585188054463122_"
	 xmlns="http://www.w3.org/2000/svg" xmlns:xlink="http://www.w3.org/1999/xlink" x="0px" y="0px" viewBox="0 0 6486.5 588.8"
	 style="enable-background:new 0 0 6486.5 588.8;" xml:space="preserve">
<style type="text/css">
	.st0{fill:#595959;}
	.st1{fill:#1CA5CB;}
	.st2{fill:#FFD686;}
	.st3{fill:#8FCFF1;}
	.st4{fill:#00608B;}
	.st5{fill:#172327;}
	.st6{fill:#FFDA88;}
	.st7{fill:#911D22;}
	.st8{fill:#7F1C24;}
	.st9{fill:#CD5257;}
	.st10{fill:#ED1C24;}
	.st11{opacity:0.58;fill:#FFFFFF;enable-background:new    ;}
	.st12{fill:#0B5463;}
	.st13{fill:#84A2D4;}
	.st14{fill:#EFE6DD;}
	.st15{fill:#E3E3E3;}
	.st16{fill:#FFFFFF;}
	.st17{fill:#FB3B51;}
	.st18{fill:#FF647B;}
	.st19{fill:#666666;}
	.st20{fill:#B3B3B3;}
	.st21{fill:#4D4D4D;}
	.st22{fill:#E22440;}
	.st23{fill:#FFEF94;}
	.st24{fill:#917D6D;}
	.st25{fill:#CCCCCC;}
	.st26{fill:#E6E6E6;}
	.st27{fill:#AAE9FA;}
	.st28{fill:#FFCF64;}
	.st29{fill:#FFF2E1;}
	.st30{opacity:0.69;fill:#FFFFFF;enable-background:new    ;}
	.st31{opacity:0.58;}
	.st32{fill:#6CCBD8;}
	.st33{fill:#998675;}
	.st34{fill:#999999;}
	.st35{fill:#808080;}
	.st36{fill:#FBB03B;}
	.st37{fill:#FFC764;}
	.st38{fill:#333333;}
	.st39{fill:#5EA7AA;}
	.st40{opacity:0.6;}
	.st41{fill:#FFF200;}
</style>
<g id="_ÎÓÈ_1">
	<g>
		<path class="st0" d="M6486.5,502.2h-449.6c-7.2,0-14.1,3.2-18.8,8.8l-8,9.6h476.4V502.2L6486.5,502.2z"/>
		<g>
			<path class="st1" d="M3995.1,240.8c1,0,2,0,3.1,0c0.4,0,0.8-0.1,1.1-0.2c0.4-0.1,0.7-0.3,0.9-0.6c0.3-0.3,0.5-0.6,0.6-0.9
				c0.2-0.4,0.3-0.7,0.2-1.1l-0.1-0.8c-0.1-0.5-0.4-0.9-0.8-1.3c-0.6-0.5-1.3-0.9-2.1-0.9c-1,0-2,0-3.1,0c-0.4,0-0.8,0.1-1.1,0.2
				c-0.4,0.1-0.7,0.3-0.9,0.6c-0.3,0.3-0.5,0.6-0.6,0.9c-0.2,0.4-0.3,0.7-0.2,1.1l0.1,0.8c0.1,0.5,0.4,0.9,0.8,1.3
				C3993.6,240.4,3994.3,240.8,3995.1,240.8L3995.1,240.8z"/>
			<g>
				<rect x="6329.5" y="0" class="st2" width="157" height="62.2"/>
				<g>
					<polygon class="st3" points="6486.5,476.2 6081.4,476.2 6081.7,170.9 6486.5,161.3 					"/>
					<polygon class="st4" points="6486.5,506.8 6073.9,506.2 6073.9,471.9 6486.5,471.9 					"/>
					<polygon class="st5" points="6486.5,506.2 6275.5,506.2 6275.5,480.6 6486.5,480.6 					"/>
					<rect x="6319.7" y="463.7" class="st5" width="166.9" height="16.4"/>
				</g>
				<path class="st6" d="M6292.4,299.6c0-0.4,1.1-31-18.9-51.9c-12.7-13.2-31.2-20-55.1-20c-0.4,0-0.8,0-1.2,0
					c-2.2,59.3-27.5,117-63.4,163.2c9.2,15.2,20.3,28.9,31.6,42.4H6293L6292.4,299.6L6292.4,299.6z"/>
				<path class="st5" d="M6301.8,299.8c0.1-2.7,0.9-35.2-21.5-58.6c-14.5-15.2-35.4-23-62-23c-43.1,0-64.2,22.2-74.4,40.8
					c-10.9,19.9-11.6,39.6-11.6,40.5v143.2h170.2L6301.8,299.8L6301.8,299.8z M6141.8,299.8c0-1.2,1-19,10.6-36.5
					c13-23.6,35.2-35.6,65.9-35.6c23.9,0,42.4,9.1,55.1,22.3c20,20.9,18.9,49.1,18.9,49.4c0,0.1,0.7,133.8,0.7,133.8h-151.2V299.8
					L6141.8,299.8z"/>
				<g>
					<path class="st7" d="M6141.8,316.4v117c0.3-0.2,10.5-9.3,25.5-22.6c-4.8-6.4-9.3-12.9-13.5-19.8
						c32.6-41.9,56.4-93.4,62.2-146.9c-3.3,0.2-6.7,0.6-10.1,1.3C6170.2,252.7,6149.4,283.2,6141.8,316.4L6141.8,316.4z"/>
					<path class="st8" d="M6152.4,263.4c-9.6,17.5-10.6,35.3-10.6,36.5v16.5c7.7-33.1,28.5-63.7,64.1-71c3.4-0.7,6.8-1.1,10.1-1.3
						c0.6-5.4,1-10.8,1.2-16.3C6187,228.1,6165.2,240.1,6152.4,263.4L6152.4,263.4z"/>
					<path class="st7" d="M6219.1,243.9c3.6,33,14,65.3,29.2,95.1c25.1-22.2,44.8-39.6,44.8-39.5v133.6h0.2V299.6
						c0-0.5-0.2-3.4-0.9-7.8C6279.7,263.9,6251,243.3,6219.1,243.9L6219.1,243.9z"/>
					<path class="st8" d="M6217.9,227.6c0.2,5.5,0.6,10.9,1.2,16.3c31.9-0.6,60.6,20,73.2,47.9c-1.2-7.1-3.8-17.9-9.7-28.7
						C6269.8,239.9,6248,227.9,6217.9,227.6L6217.9,227.6z"/>
					<path class="st9" d="M6141.8,433.3l43.6,0c-6.2-7.4-12.3-14.9-18.1-22.6C6152.2,424,6142,433.1,6141.8,433.3L6141.8,433.3z"/>
				</g>
				<rect x="6141.8" y="429.6" class="st5" width="151.2" height="4.5"/>
				<rect x="6473.1" y="179.7" class="st4" width="13.4" height="284.1"/>
				<rect x="6326.4" y="179.7" class="st4" width="13.4" height="284.1"/>
				<polygon class="st5" points="6486.5,180.5 6066.2,180.5 6058.9,161.3 6486.5,161.3 				"/>
				<rect x="6155.5" y="58.8" class="st4" width="331" height="29"/>
				<polygon class="st5" points="6486.5,161.3 6083.9,161.3 6133.9,83.8 6486.5,83.8 				"/>
				<g>
					<path class="st5" d="M6448,463.7h-83.2V308.5c0-3.8,2.4-48.4,39.4-48.4s43.8,35.2,43.8,48.4V463.7z"/>
					<rect x="6375.1" y="313" class="st6" width="62.7" height="56.5"/>
					<rect x="6375.1" y="379.2" class="st6" width="62.7" height="72.5"/>
					<path class="st6" d="M6437.4,303.1c-1.2-9.4-5.4-18.1-12-23.8c-4.9-4.2-11.6-7.3-20.6-7.3c-17,0-24.9,14.5-28,22.7
						c-1,2.6-1.5,5.5-1.6,8.4H6437.4L6437.4,303.1z"/>
					<rect x="6391.1" y="330.5" class="st10" width="30.2" height="20.7"/>
				</g>
				<path class="st11" d="M6239.5,381.5h-2.4c-0.9,0-1.8-0.5-2.2-1.3c-0.9-1.9-0.8-3.8,0.3-5.7c3.3-0.5,5.7-2.7,5.7-8
					c0-1.6-0.4-4-0.8-6.3h-13c-0.4,2.3-0.8,4.8-0.8,6.3c0,5.2,2.4,7.4,5.7,8c1.2,2,1.2,4.1,0,6.2c-0.3,0.5-0.9,0.9-1.6,0.9h-2.4
					c0,0-1.6,0.2-1.6,1h14.3C6240.8,382.6,6240.7,381.5,6239.5,381.5L6239.5,381.5z"/>
				<path class="st12" d="M6486.5,45.2c-94,2.9-188.4,0.6-281.9-6.9V118c93.6-7.6,187.9-9.9,281.9-6.9V45.2z"/>
				<path class="st2" d="M6486.5,33.6c-97.4,2.9-195,0.4-291.9-7.4v83.6c96.9-7.8,194.5-10.3,291.9-7.4V33.6z"/>
				<g>
					<g>
						<path class="st12" d="M6275.9,71.4l-2-0.1v18.9h-6.1v-40h10.1c2.1,0,3.6,0.4,4.7,1.3c1,0.8,1.7,2,2,3.5
							c0.3,1.5,0.5,3.5,0.5,5.9s-0.3,4.3-0.8,5.6c-0.5,1.3-1.5,2.1-2.9,2.6c1.4,0.2,2.3,1.2,2.9,2.8c0.5,1.6,0.8,5,0.8,10.1
							s0.1,7.9,0.2,8.3h-6.1c-0.1-0.3-0.2-5.1-0.2-14.3c0-1.8-0.2-2.9-0.6-3.5C6278.1,71.7,6277.2,71.4,6275.9,71.4L6275.9,71.4z
							 M6274,66.6h2.4c0.8,0,1.3-0.2,1.7-0.5c0.4-0.3,0.6-0.9,0.8-1.8c0.1-0.8,0.2-2.1,0.2-3.9v-0.2c0-2.2-0.2-3.6-0.5-4.2
							c-0.4-0.7-1.2-1-2.5-1h-2.1L6274,66.6L6274,66.6z"/>
						<path class="st12" d="M6299.2,90.2v-40h13.4v5.2h-7.3v11.6h7v5.1h-7v12.7h7.6v5.2H6299.2L6299.2,90.2z"/>
						<path class="st12" d="M6325.2,78.9v-3.6h5.8v4c0,2.2,0.2,3.8,0.6,4.7s1.1,1.3,2.1,1.3s1.7-0.4,2.1-1.1s0.5-1.9,0.5-3.6
							s-0.3-3.2-0.9-4.4c-0.6-1.2-1.6-2.6-2.9-3.9l-3-3.1c-1.4-1.4-2.5-2.9-3.2-4.5c-0.8-1.5-1.1-3.3-1.1-5.4c0-3.3,0.6-5.8,1.9-7.4
							c1.3-1.6,3.5-2.4,6.6-2.4s5.2,0.9,6.3,2.8c1.1,1.9,1.6,4.6,1.6,8.2v2.5h-5.6v-2.9c0-1.9-0.2-3.3-0.5-4.2
							c-0.3-0.8-1-1.3-1.9-1.3s-1.6,0.3-2,1c-0.4,0.6-0.6,1.6-0.6,2.9s0.2,2.3,0.6,3c0.4,0.8,1.2,1.7,2.3,2.9l3.3,3.6
							c1.6,1.8,2.9,3.6,3.7,5.4c0.8,1.8,1.3,3.8,1.3,6c0,3.7-0.6,6.5-1.9,8.3c-1.3,1.8-3.5,2.7-6.6,2.7s-5.3-1-6.6-3
							C6325.9,85.7,6325.3,82.8,6325.2,78.9L6325.2,78.9z"/>
						<path class="st12" d="M6357,90.2V55.5h-4.7v-5.3h15.2v5.3h-4.5v34.7H6357L6357,90.2z"/>
						<path class="st12" d="M6377.4,90.2l5.7-40h8l6.1,40h-5.7l-1-7.1h-6.5l-0.9,7.1H6377.4z M6390,78.2l-2.7-20.1
							c-0.1,0-2.5,20.1-2.5,20.1H6390z"/>
						<path class="st12" d="M6425.1,88c-1.4,1.7-3.6,2.6-6.7,2.6s-5.3-0.9-6.7-2.6c-1.4-1.7-2.1-4.4-2.1-8.1V50.2h6.1v29.6
							c0,2.1,0.1,3.4,0.3,3.8c0.2,0.4,0.4,0.9,0.7,1.2c0.3,0.4,0.9,0.6,1.7,0.6s1.5-0.3,1.9-0.8c0.4-0.5,0.6-1.2,0.7-1.9
							s0.1-1.8,0.1-2.9V50.2h6.1v29.7C6427.2,83.6,6426.5,86.3,6425.1,88L6425.1,88z"/>
						<path class="st12" d="M6449.3,71.4l-2-0.1v18.9h-6.1v-40h10.1c2.1,0,3.6,0.4,4.7,1.3c1,0.8,1.7,2,2,3.5
							c0.3,1.5,0.5,3.5,0.5,5.9s-0.3,4.3-0.8,5.6c-0.5,1.3-1.5,2.1-2.9,2.6c1.4,0.2,2.3,1.2,2.9,2.8c0.5,1.6,0.8,5,0.8,10.1
							s0.1,7.9,0.2,8.3h-6.1c-0.1-0.3-0.2-5.1-0.2-14.3c0-1.8-0.2-2.9-0.6-3.5C6451.5,71.7,6450.6,71.4,6449.3,71.4L6449.3,71.4z
							 M6447.4,66.6h2.4c0.8,0,1.3-0.2,1.7-0.5c0.4-0.3,0.6-0.9,0.8-1.8c0.1-0.8,0.2-2.1,0.2-3.9v-0.2c0-2.2-0.2-3.6-0.5-4.2
							c-0.4-0.7-1.2-1-2.5-1h-2.1L6447.4,66.6L6447.4,66.6z"/>
					</g>
					<polygon class="st12" points="6247.4,61.3 6250.3,67.1 6256.8,68.1 6252.1,72.6 6253.2,79 6247.4,76 6241.6,79 6242.8,72.6 
						6238.1,68.1 6244.5,67.1 					"/>
				</g>
				<g>
					<g>
						<path class="st12" d="M6399.6,37.5c-6.9,0-11.2-4.8-11.2-12.5s4.3-12.4,11.2-12.4s11.2,4.8,11.2,12.4S6406.5,37.5,6399.6,37.5
							z M6399.6,16.7c-6.2,0-7.1,5.2-7.1,8.4s0.9,8.4,7.1,8.4s7.1-5.2,7.1-8.4S6405.8,16.7,6399.6,16.7z"/>
						<path class="st12" d="M6425.6,37.5c-6.9,0-11.2-4.8-11.2-12.5s4.3-12.4,11.2-12.4s11.2,4.8,11.2,12.4S6432.5,37.5,6425.6,37.5
							z M6425.6,16.7c-6.2,0-7.1,5.2-7.1,8.4s0.9,8.4,7.1,8.4s7.1-5.2,7.1-8.4S6431.8,16.7,6425.6,16.7z"/>
					</g>
					<path class="st12" d="M6385.8,34.7c0,0-3.3-19-3.6-20c-0.3-1-1.1-1.6-2-1.7c-1-0.1-1.9-0.1-2.8,0c-0.9,0.1-1.6,0.7-2,1.4
						c-0.3,0.6-3,10-4,13.3c-0.3,1.1-0.3,2.8-0.3,2.8s0-1.7-0.3-2.8c-1-3.2-3.7-12.6-4-13.3c-0.3-0.8-1.1-1.3-2-1.4
						c-0.8-0.1-1.8-0.1-2.8,0c-1,0.1-1.7,0.7-2,1.7c-0.3,0.9-3.6,20-3.6,20c-0.2,1.1,0.5,2.2,1.6,2.4c1.1,0.2,2.2-0.5,2.4-1.6
						c0,0,2.7-15.1,2.9-16.2c0.2-1.1,0.1-2.3,0.1-2.3s0.1,1.1,0.4,2.2c4.7,15.9,4.7,15.8,4.9,16.5c0.3,0.8,1.1,1.4,2,1.5
						c0.1,0,0.2,0,0.3,0c0.1,0,0.2,0,0.3,0c0.8-0.1,1.6-0.7,2-1.5c0.2-0.6,0.2-0.6,4.9-16.5c0.3-1.1,0.4-2.2,0.4-2.2
						s-0.1,1.2,0.1,2.3c0.2,1.1,2.9,16.2,2.9,16.2c0.2,1.1,1.3,1.8,2.4,1.6C6385.3,36.8,6386,35.8,6385.8,34.7L6385.8,34.7z"/>
					<path class="st12" d="M6458.2,13.1c-1-0.4-2.2,0.1-2.6,1.2c0,0-5.3,13.9-6.5,17c-0.2,0.6-0.2,1.3-0.2,1.3c0,0,0-0.7-0.2-1.3
						c-1.2-3.1-6.5-17-6.5-17c-0.4-1.1-1.6-1.6-2.6-1.2s-1.6,1.6-1.2,2.6c0,0,7.2,19.2,7.6,20c0.4,0.7,1.1,1.2,1.9,1.3
						c0.2,0,0.7,0.1,1,0.1s0.8,0,1-0.1c0.8-0.1,1.5-0.6,1.9-1.3c0.4-0.7,7.6-20,7.6-20C6459.7,14.6,6459.2,13.5,6458.2,13.1
						L6458.2,13.1z"/>
				</g>
				<path class="st12" d="M6486.5,63.2l-2-13h-8l-5.7,40h5.9l0.9-7.1h6.5l1,7.1h1.6V63.2z M6478.1,78.2c0,0,2.5-20.1,2.5-20.1
					l2.7,20.1H6478.1z"/>
			</g>
			<g>
				<g>
					<g>
						<polygon class="st4" points="4903.4,106.4 4253.5,109 4253.5,209.9 4903.4,207.2 						"/>
						<rect x="4264.3" y="207.7" class="st5" width="623.2" height="312.3"/>
						<rect x="4264.3" y="276.6" class="st4" width="623.2" height="196.5"/>
						<rect x="4264.3" y="276.6" class="st4" width="623.2" height="15.4"/>
						<rect x="4419" y="503.7" class="st13" width="317.4" height="15.7"/>
						<rect x="4448.9" y="488" class="st13" width="254" height="15.7"/>
						<rect x="4491.3" y="473.1" class="st13" width="169.4" height="15.7"/>
						<rect x="4264.3" y="121.6" class="st4" width="623.8" height="68.7"/>
						<rect x="4612.4" y="444.6" class="st14" width="275.2" height="28.5"/>
						<rect x="4264.3" y="444.6" class="st14" width="273.2" height="28.5"/>
						<rect x="4612.4" y="248.1" class="st4" width="275.2" height="28.5"/>
						<rect x="4264.3" y="248.1" class="st4" width="356.1" height="28.5"/>
						<rect x="4264.3" y="248.1" class="st15" width="10.1" height="225"/>
						<rect x="4878" y="248.1" class="st15" width="10.1" height="225"/>
						<path class="st16" d="M4448.4,273.9h-177.2v171.9H4535V273.9L4448.4,273.9L4448.4,273.9z M4357.8,441.9h-82.5V277.8h82.5
							V441.9z M4444.5,441.9h-82.7V277.8h82.7V441.9z M4531.1,441.9h-82.7V277.8h82.7V441.9z"/>
						<path class="st16" d="M4794,273.9h-177.2v171.9h263.9V273.9L4794,273.9L4794,273.9z M4703.4,441.9h-82.7V277.8h82.7V441.9z
							 M4790.1,441.9h-82.7V277.8h82.7V441.9z M4876.7,441.9H4794V277.8h82.7V441.9z"/>
						<rect x="4534.4" y="273.9" class="st16" width="82.4" height="199.2"/>
						<rect x="4543.9" y="285.5" class="st6" width="63.3" height="175.9"/>
						<rect x="4273.5" y="128.5" class="st5" width="606.8" height="55"/>
						<g>
							<g>
								<polygon class="st17" points="4448.1,413.9 4448.1,441.9 4449.7,441.9 4468.5,413.9 								"/>
								<polygon class="st17" points="4361.7,413.9 4361.7,441.9 4364.8,441.9 4383.9,413.9 								"/>
								<polygon class="st17" points="4275.3,413.9 4275.3,441.9 4278.5,441.9 4297.3,413.9 								"/>
							</g>
							<g>
								<polygon class="st18" points="4449.7,441.9 4531.1,441.9 4531.1,413.9 4467.3,413.9 								"/>
								<polygon class="st18" points="4363.9,441.9 4444.5,441.9 4444.5,413.9 4382.7,413.9 								"/>
								<polygon class="st18" points="4277.2,441.9 4357.8,441.9 4357.8,413.9 4296,413.9 								"/>
							</g>
							<g>
								<polygon class="st17" points="4793.8,413.9 4793.8,441.9 4795.3,441.9 4814.1,413.9 								"/>
								<polygon class="st17" points="4707.3,413.9 4707.3,441.9 4710.4,441.9 4729.5,413.9 								"/>
								<polygon class="st17" points="4620.9,413.9 4620.9,441.9 4624.1,441.9 4642.9,413.9 								"/>
							</g>
							<g>
								<polygon class="st18" points="4795.3,441.9 4876.7,441.9 4876.7,413.9 4812.9,413.9 								"/>
								<polygon class="st18" points="4709.5,441.9 4790.1,441.9 4790.1,413.9 4728.3,413.9 								"/>
								<polygon class="st18" points="4622.8,441.9 4703.4,441.9 4703.4,413.9 4641.6,413.9 								"/>
							</g>
						</g>
						<rect x="4554" y="341" class="st16" width="43.5" height="33.9"/>
						<rect x="4554" y="341" class="st19" width="43.5" height="13.7"/>
						<g>
							<path class="st20" d="M4591.7,367.5h-32c-0.4,0-0.6-0.3-0.6-0.6s0.3-0.6,0.6-0.6h32c0.4,0,0.6,0.3,0.6,0.6
								S4592,367.5,4591.7,367.5z"/>
							<path class="st20" d="M4591.7,364.8h-32c-0.4,0-0.6-0.3-0.6-0.6s0.3-0.6,0.6-0.6h32c0.4,0,0.6,0.3,0.6,0.6
								S4592,364.8,4591.7,364.8z"/>
							<path class="st20" d="M4591.7,362h-32c-0.4,0-0.6-0.3-0.6-0.6s0.3-0.6,0.6-0.6h32c0.4,0,0.6,0.3,0.6,0.6S4592,362,4591.7,362
								z"/>
							<path class="st20" d="M4591.7,359.2h-32c-0.4,0-0.6-0.3-0.6-0.6s0.3-0.6,0.6-0.6h32c0.4,0,0.6,0.3,0.6,0.6
								S4592,359.2,4591.7,359.2z"/>
						</g>
						<g>
							<path class="st18" d="M4560.9,349.9v-0.6h1v0.7c0,0.4,0,0.7,0.1,0.9c0.1,0.2,0.2,0.2,0.4,0.2s0.3-0.1,0.4-0.2
								c0.1-0.1,0.1-0.4,0.1-0.7s-0.1-0.6-0.2-0.8c-0.1-0.2-0.3-0.5-0.5-0.7l-0.5-0.5c-0.2-0.3-0.4-0.5-0.6-0.8s-0.2-0.6-0.2-1
								c0-0.6,0.1-1,0.3-1.3c0.2-0.3,0.6-0.4,1.2-0.4s0.9,0.2,1.1,0.5s0.3,0.8,0.3,1.5v0.5h-1v-0.5c0-0.4,0-0.6-0.1-0.8
								s-0.2-0.2-0.3-0.2s-0.3,0.1-0.4,0.2c-0.1,0.1-0.1,0.3-0.1,0.5s0,0.4,0.1,0.5c0.1,0.1,0.2,0.3,0.4,0.5l0.6,0.6
								c0.3,0.3,0.5,0.6,0.7,1c0.1,0.3,0.2,0.7,0.2,1.1c0,0.7-0.1,1.2-0.3,1.5s-0.6,0.5-1.2,0.5s-1-0.2-1.2-0.5
								C4561,351.1,4560.9,350.6,4560.9,349.9L4560.9,349.9z"/>
							<path class="st18" d="M4568.1,351.9v-6.3h-0.9v-1h2.8v1h-0.8v6.3H4568.1L4568.1,351.9z"/>
							<path class="st18" d="M4576.4,351.5c-0.2,0.4-0.7,0.5-1.2,0.5s-1-0.2-1.2-0.5c-0.3-0.4-0.4-0.9-0.4-1.6v-3.3
								c0-1.3,0.5-2,1.6-2c0.6,0,1,0.2,1.2,0.5c0.2,0.3,0.4,0.8,0.4,1.5v3.3C4576.8,350.6,4576.7,351.2,4576.4,351.5L4576.4,351.5z
								 M4574.8,350.8c0.1,0.2,0.2,0.2,0.4,0.2s0.3-0.1,0.4-0.3c0.1-0.2,0.1-0.5,0.1-0.9v-3.4c0-0.3,0-0.6-0.1-0.8
								c-0.1-0.2-0.2-0.2-0.4-0.2s-0.3,0.1-0.4,0.2c-0.1,0.2-0.1,0.4-0.1,0.7v3.4C4574.7,350.3,4574.7,350.6,4574.8,350.8
								L4574.8,350.8z"/>
							<path class="st18" d="M4582.2,348.5l-0.4,0v3.4h-1.1v-7.2h1.8c0.4,0,0.7,0.1,0.9,0.2c0.2,0.1,0.3,0.4,0.4,0.6
								c0.1,0.3,0.1,0.6,0.1,1.1s0,0.8-0.1,1c-0.1,0.2-0.3,0.4-0.5,0.5c0.2,0,0.4,0.2,0.5,0.5c0.1,0.3,0.1,0.9,0.1,1.8s0,1.4,0,1.5
								h-1.1c0,0,0-0.9,0-2.6c0-0.3,0-0.5-0.1-0.6C4582.6,348.6,4582.5,348.6,4582.2,348.5L4582.2,348.5z M4581.9,347.7h0.4
								c0.1,0,0.2,0,0.3-0.1c0.1-0.1,0.1-0.2,0.1-0.3c0-0.1,0-0.4,0-0.7c0-0.4,0-0.7-0.1-0.8c-0.1-0.1-0.2-0.2-0.5-0.2h-0.4V347.7
								L4581.9,347.7z"/>
							<path class="st18" d="M4588,351.9v-7.2h2.4v1h-1.3v2.1h1.2v0.9h-1.2v2.3h1.4v1L4588,351.9L4588,351.9z"/>
						</g>
					</g>
					<g>
						<polygon class="st2" points="4352.8,183.5 4335.8,183.5 4353.7,128.5 4370.6,128.5 						"/>
						<polygon class="st2" points="4322.8,183.5 4305.8,183.5 4323.7,128.5 4340.6,128.5 						"/>
						<polygon class="st2" points="4292.8,183.5 4275.8,183.5 4293.7,128.5 4310.6,128.5 						"/>
					</g>
					<g>
						<polygon class="st2" points="4857.8,183.5 4840.9,183.5 4858.7,128.5 4875.7,128.5 						"/>
						<polygon class="st2" points="4827.8,183.5 4810.9,183.5 4828.7,128.5 4845.7,128.5 						"/>
						<polygon class="st2" points="4797.8,183.5 4780.9,183.5 4798.7,128.5 4815.7,128.5 						"/>
					</g>
					<g>
						<polygon class="st21" points="4837.2,518.3 4841,518.1 4834.8,381.1 4831,381.3 						"/>
						<polygon class="st13" points="4829.5,520 4762.6,520 4775.2,376.5 4842,376.5 						"/>
						<polygon class="st22" points="4839.8,401.7 4773,401.7 4775.2,376.5 4842,376.5 						"/>
						<g>
							<path class="st23" d="M4790.2,398.2c-1.8,0-3.1-0.4-3.8-1.2c-0.7-0.8-1-2.1-0.8-3.9l0.1-1.8h3.9l-0.1,1.6
								c-0.1,1.1,0.2,1.7,0.8,1.7c0.3,0,0.5-0.1,0.7-0.3c0.2-0.2,0.3-0.5,0.3-0.9c0-0.5,0-0.9-0.1-1.2c-0.1-0.3-0.3-0.6-0.5-0.9
								c-0.2-0.3-0.6-0.7-1.2-1.2l-1.5-1.4c-1.2-1.2-1.8-2.5-1.7-3.9c0.1-1.6,0.6-2.8,1.5-3.5c0.9-0.8,2-1.2,3.4-1.2h0.7
								c0.4,0,0.8,0.1,1.4,0.2c0.6,0.2,1,0.5,1.5,0.8c0.4,0.4,0.7,0.9,0.9,1.6c0.2,0.7,0.2,1.5,0.1,2.6h-4l0.1-1.1
								c0-0.2-0.1-0.4-0.2-0.5s-0.3-0.2-0.5-0.2c-0.3,0-0.5,0.1-0.7,0.2c-0.2,0.2-0.3,0.4-0.3,0.6c0,0.5,0.3,1.1,1,1.7l2.2,1.9
								c0.4,0.3,0.7,0.6,0.9,1c0.3,0.3,0.5,0.6,0.6,1c0.1,0.3,0.2,0.6,0.3,0.9c0.1,0.3,0.1,0.5,0.1,0.8c0,0.3,0,0.5,0,0.7
								c0,0.1,0,0.4,0,0.6c0,0.6-0.1,1.2-0.3,1.7c-0.1,0.5-0.3,1-0.6,1.5s-0.6,0.9-0.9,1.2s-0.8,0.6-1.4,0.8
								C4791.5,398.1,4790.9,398.2,4790.2,398.2L4790.2,398.2z"/>
							<path class="st23" d="M4805.2,380.1l0.4,17.9h-3.8l0-2.7h-2l-0.5,2.7h-3.8l3.6-17.9H4805.2L4805.2,380.1z M4802,383.5h-0.4
								l-1.3,8.6h1.4L4802,383.5L4802,383.5z"/>
							<path class="st23" d="M4806.8,398l1.6-17.9h3.9l-1.3,14.4h4l-0.3,3.5L4806.8,398L4806.8,398z"/>
							<path class="st23" d="M4815.9,398l1.6-17.9h7.9l-0.3,3.5h-3.9l-0.3,3.5h3.7l-0.3,3.4h-3.7l-0.4,4.1h4.1l-0.3,3.5L4815.9,398
								L4815.9,398z"/>
						</g>
					</g>
					<g>
						<polygon class="st21" points="4315.7,517.5 4311.9,517.2 4318.1,380.2 4321.9,380.4 						"/>
						<polygon class="st13" points="4392.9,520 4326,520 4313.5,376.5 4380.3,376.5 						"/>
						<polygon class="st22" points="4382.5,401.7 4315.7,401.7 4313.5,376.5 4380.3,376.5 						"/>
						<g>
							<path class="st23" d="M4332.1,397.8c-1.8,0-3.2-0.4-4-1.2c-0.9-0.8-1.4-2.1-1.5-3.9l-0.2-1.8h3.9l0.1,1.6
								c0.1,1.1,0.5,1.7,1.1,1.7c0.3,0,0.5-0.1,0.7-0.3c0.1-0.2,0.2-0.5,0.2-0.9c0-0.5-0.1-0.9-0.3-1.2c-0.2-0.3-0.4-0.6-0.7-0.9
								c-0.3-0.3-0.8-0.7-1.4-1.2l-1.8-1.4c-1.5-1.2-2.2-2.5-2.4-3.9c-0.1-1.6,0.2-2.8,0.9-3.5c0.7-0.8,1.8-1.2,3.2-1.2h0.7
								c0.4,0,0.9,0.1,1.4,0.2s1.1,0.5,1.6,0.8c0.5,0.4,0.9,0.9,1.1,1.6s0.5,1.5,0.6,2.6h-4l-0.1-1.1c0-0.2-0.1-0.4-0.3-0.5
								c-0.2-0.2-0.4-0.2-0.6-0.2c-0.3,0-0.5,0.1-0.6,0.2c-0.2,0.2-0.2,0.4-0.2,0.6c0,0.5,0.5,1.1,1.3,1.7l2.6,1.9
								c0.4,0.3,0.8,0.6,1.1,1c0.3,0.3,0.6,0.6,0.8,1s0.4,0.6,0.5,0.9c0.1,0.3,0.2,0.5,0.3,0.8c0.1,0.3,0.1,0.5,0.1,0.7
								c0,0.1,0,0.4,0.1,0.6c0.1,0.6,0.1,1.2,0,1.7c0,0.5-0.1,1-0.3,1.5c-0.2,0.5-0.4,0.9-0.7,1.2s-0.7,0.6-1.2,0.8
								C4333.5,397.7,4332.8,397.8,4332.1,397.8L4332.1,397.8z"/>
							<path class="st23" d="M4343.9,379.8l3.6,17.9h-3.8l-0.5-2.7h-2v2.7h-3.8l0.4-17.9H4343.9z M4341.3,383.1h-0.4l0.2,8.6h1.4
								L4341.3,383.1L4341.3,383.1z"/>
							<path class="st23" d="M4348.7,397.6l-1.6-17.9h3.9l1.3,14.4h4l0.3,3.5L4348.7,397.6L4348.7,397.6z"/>
							<path class="st23" d="M4357.7,397.6l-1.6-17.9h7.9l0.3,3.5h-3.9l0.3,3.5h3.7l0.3,3.4h-3.7l0.4,4.1h4.1l0.3,3.5L4357.7,397.6
								L4357.7,397.6z"/>
						</g>
					</g>
				</g>
				<g>
					<g>
						<rect x="3390.7" y="142.2" class="st5" width="464.7" height="360"/>
						<rect x="3409.6" y="80.8" class="st5" width="426.9" height="421.3"/>
						<rect x="3390.7" y="414.3" class="st24" width="464.7" height="87.8"/>
						<rect x="3574.8" y="272.8" class="st5" width="96.3" height="210.3"/>
						<rect x="3588.1" y="285.5" class="st2" width="70" height="128.8"/>
						<rect x="3546.9" y="482.5" class="st25" width="151.1" height="19.9"/>
						<rect x="3544.6" y="481.4" class="st26" width="157" height="4.5"/>
						<g>
							<g>
								<rect x="3416.9" y="222.5" class="st5" width="125.8" height="213.9"/>
								<rect x="3424.8" y="256.4" class="st27" width="108" height="171.2"/>
								<rect x="3411.5" y="436.3" class="st26" width="136.6" height="11.6"/>
							</g>
							<g>
								<rect x="3703.4" y="221.5" class="st5" width="125.8" height="213.9"/>
								<rect x="3711.3" y="255.4" class="st27" width="108" height="171.2"/>
								<rect x="3698" y="435.4" class="st26" width="136.6" height="11.6"/>
							</g>
						</g>
						<path class="st28" d="M3429.9,105h384.3c2.8,0,5.1,2.3,5.1,5.1v72.7c0,2.8-2.3,5.1-5.1,5.1h-384.3c-2.8,0-5.1-2.3-5.1-5.1
							v-72.7C3424.8,107.3,3427.1,105,3429.9,105z"/>
						<path class="st4" d="M3429.9,95.5h384.3c2.8,0,5.1,2.3,5.1,5.1v72.7c0,2.8-2.3,5.1-5.1,5.1h-384.3c-2.8,0-5.1-2.3-5.1-5.1
							v-72.7C3424.8,97.8,3427.1,95.5,3429.9,95.5z"/>
						<g>
							<path class="st29" d="M3409.6,238.3V249H3550v-10.7c0-0.4,0-0.9,0-1.3h-140.3C3409.6,237.4,3409.6,237.9,3409.6,238.3z"/>
							<path class="st29" d="M3696.1,237c0,0.1,0,0.2,0,0.3v10.7h140.4v-10.7c0-0.1,0-0.2,0-0.3H3696.1L3696.1,237z"/>
						</g>
						<path class="st28" d="M3671,342.2c-0.9,0-1.6-0.7-1.6-1.6v-12.7c0-0.9,0.7-1.6,1.6-1.6s1.6,0.7,1.6,1.6v12.7
							C3672.7,341.4,3671.9,342.2,3671,342.2z"/>
						<path class="st28" d="M3671,450.1c-0.9,0-1.6-0.7-1.6-1.6v-12.7c0-0.9,0.7-1.6,1.6-1.6s1.6,0.7,1.6,1.6v12.7
							C3672.7,449.4,3671.9,450.1,3671,450.1z"/>
						<path class="st30" d="M3789.5,357.6c-2.2-3.6-6.9-5.1-11-3.6c-1.8,0.6-3.2,1.8-4.1,3.1c0,0-2.1-4.1-5.1-9.8l3.5-6.1
							c1.4-2.6,6.1-12.3,6.9-15.1l2.5-12.4c-2.5,3.4-9.9,17-15.8,28.1c-5.9-11.1-13.2-24.7-15.8-28.1l2.5,12.4
							c0.7,2.8,5.4,12.6,6.9,15.1l3.5,6.1c-3,5.7-5.1,9.8-5.1,9.8c-1-1.4-2.4-2.5-4.1-3.1c-4.1-1.5-8.8,0-11,3.6
							c-2.7,4.3-0.9,9.8,3.8,11.9c6.3,2.9,10.7-1.6,10.9-2.2l8.5-14.9l8.5,14.9c0.1,0.6,4.6,5.2,10.9,2.2
							C3790.3,367.4,3792.1,361.9,3789.5,357.6z M3755.8,364.3c-1.3,2.6-4.7,3.6-7.4,2.4c-2.7-1.3-3.9-4.4-2.5-7
							c1.3-2.6,4.7-3.6,7.4-2.4C3756.1,358.6,3757.2,361.7,3755.8,364.3z M3784.2,366.7c-2.7,1.3-6,0.2-7.4-2.4
							c-1.3-2.6-0.2-5.7,2.5-7s6-0.2,7.4,2.4C3788,362.2,3786.9,365.4,3784.2,366.7z"/>
						<path class="st28" d="M3586.4,395.8c0,2.7-2.2,4.9-4.9,4.9s-4.9-2.2-4.9-4.9s2.2-4.9,4.9-4.9S3586.4,393.1,3586.4,395.8z"/>
						<rect x="3588.1" y="423" class="st5" width="70" height="49.9"/>
					</g>
					<path class="st0" d="M3904.2,520h-562.3l7.7-9.2c4.5-5.4,11.1-8.5,18.1-8.5h502.6c10.5,0,20.5,4.2,27.9,11.6L3904.2,520
						L3904.2,520z"/>
				</g>
				<g>
					<g>
						<rect x="3852.8" y="209.4" class="st4" width="413" height="295.8"/>
						<rect x="3852.8" y="209.4" class="st5" width="413" height="19.2"/>
						<rect x="3852.8" y="471.4" class="st5" width="413" height="32.4"/>
						<g>
							<path class="st4" d="M3831.8,170.4h455.1c2.5,0,4.5,2,4.5,4.5v31.7c0,2.5-2,4.5-4.5,4.5h-455.1c-2.5,0-4.5-2-4.5-4.5v-31.7
								C3827.3,172.4,3829.3,170.4,3831.8,170.4z"/>
							<path class="st5" d="M3862.3,71.1h390.1c7.4,0,13.5,6,13.5,13.5v85.9h-414.1V81.6C3851.7,75.8,3856.4,71.1,3862.3,71.1
								L3862.3,71.1z"/>
							<rect x="3892.7" y="284.6" class="st5" width="90.6" height="190"/>
							<rect x="4016.5" y="261.6" class="st5" width="216.3" height="185"/>
							<rect x="4026.5" y="269.7" class="st27" width="197.4" height="168.9"/>
							<polygon class="st4" points="4254.5,295.7 3999.1,295.7 4003.9,284.6 4018.6,253.2 4232.7,253.2 							"/>
							<rect x="3879.4" y="474.6" class="st4" width="119.7" height="15"/>
							<rect x="3866.2" y="489.6" class="st4" width="145" height="13.8"/>
							<rect x="4007.1" y="446.6" class="st4" width="234.9" height="10.1"/>
						</g>
						<g>
							<rect x="3904.2" y="403.6" class="st6" width="65.9" height="40.2"/>
							<rect x="3904.2" y="351" class="st6" width="65.9" height="40.2"/>
							<rect x="3904.2" y="298.5" class="st6" width="65.9" height="40.2"/>
						</g>
						<g class="st31">
							<path class="st16" d="M4138.8,340.7c-2.8-0.6-5.7-0.9-8.7-0.8c-3.1-0.1-6,0.2-8.8,0.8c-2.3,0.5-3.7,3.2-3,5.7
								c1.8,6.7,3.5,13.4,4.8,20.2c0.5,2.4,2.4,4.1,4.5,3.9c0.8-0.1,1.6-0.1,2.4-0.1c0.9,0,1.7,0,2.5,0.1c2.1,0.2,4-1.5,4.5-3.9
								c1.3-6.8,3-13.5,4.8-20.2C4142.5,343.9,4141.1,341.2,4138.8,340.7L4138.8,340.7z"/>
							<path class="st16" d="M4163.5,358.7c-3.1-5-7.6-9.8-13.2-13.3c-2-1.2-4.5-0.1-5.2,2.4c-1.8,6.6-3.4,13.3-4.7,20.1
								c-0.4,2.1,0.6,4.1,2.4,4.8c1.7,0.7,3.4,1.5,5,2.4c1.3,0.7,2.8,0.6,3.9-0.5c3.7-3.4,7.4-6.9,11.1-10.2
								C4164.3,363.1,4164.6,360.6,4163.5,358.7L4163.5,358.7z"/>
							<path class="st16" d="M4168.3,369.9c-0.5-2-2.7-2.8-4.1-1.5c-2.9,2.5-5.7,5.2-8.5,7.8c-1.3,1.2-1.3,3.6,0.1,4.8
								c3.9,3.3,7.1,6.4,9.8,5.7C4168.1,386.4,4170.6,379.2,4168.3,369.9z"/>
							<path class="st16" d="M4115.1,347.9c-0.7-2.5-3.2-3.7-5.2-2.4c-5.6,3.5-10.1,8.4-13.2,13.3c-1.1,1.8-0.9,4.4,0.7,5.7
								c3.8,3.3,7.5,6.8,11.1,10.2c1.1,1,2.6,1.2,3.9,0.5c1.6-0.9,3.3-1.7,5-2.4c1.7-0.7,2.8-2.8,2.4-4.8
								C4118.5,361.2,4116.8,354.5,4115.1,347.9L4115.1,347.9z"/>
							<path class="st16" d="M4096,368.4c-1.5-1.3-3.6-0.5-4.1,1.5c-2.3,9.3,0.2,16.5,2.8,16.8c2.7,0.7,5.9-2.4,9.8-5.7
								c1.4-1.2,1.4-3.5,0.1-4.8C4101.7,373.6,4098.9,370.9,4096,368.4z"/>
						</g>
						<path class="st4" d="M4179.9,150.1h-242.2c-13.8,0-25-11.2-25-25s11.2-25,25-25h242.2c13.7,0,25,11.2,25,25
							S4193.6,150.1,4179.9,150.1z"/>
						<g>
							<path class="st2" d="M4020.2,116.6c0,3.8-1,6.1-3.1,7c2.5,0.8,3.8,3.6,3.8,8.3v0.9c0,3.5-0.6,6.1-1.8,7.6
								c-1.2,1.6-3.2,2.3-5.9,2.3h-7.8v-35.1h7.6c2.6,0,4.5,0.6,5.6,1.8c1.1,1.2,1.6,3.2,1.7,6.1L4020.2,116.6L4020.2,116.6z
								 M4010.8,121.8h2c0.9,0,1.5-0.3,1.8-0.9c0.3-0.6,0.4-1.8,0.4-3.6v-2.1c0-1.4-0.2-2.3-0.6-2.7s-1-0.7-1.9-0.7h-1.8
								L4010.8,121.8L4010.8,121.8z M4010.8,138.6h1.9c1.1,0,1.8-0.4,2.2-1.1c0.4-0.7,0.6-2,0.6-3.9v-2.8c0-1.8-0.2-3-0.5-3.8
								s-1-1.1-2-1.1h-2.2L4010.8,138.6L4010.8,138.6z"/>
							<path class="st2" d="M4025.9,142.7l5-35.1h7.1l5.3,35.1h-5l-0.8-6.3h-5.7l-0.8,6.3H4025.9L4025.9,142.7z M4036.9,132.1
								l-2.4-17.6c-0.1,0-2.2,17.6-2.2,17.6H4036.9L4036.9,132.1z"/>
							<path class="st2" d="M4047.8,142.7v-35.1h5.4v16.2l5.3-16.2h5.5l-5.8,17.3l6.3,17.8h-5.6l-5.6-16.4v16.4L4047.8,142.7
								L4047.8,142.7z"/>
							<path class="st2" d="M4071.6,142.7v-35.1h11.8v4.6h-6.4v10.2h6.1v4.5h-6.1v11.2h6.7v4.6L4071.6,142.7L4071.6,142.7z"/>
							<path class="st2" d="M4098.4,126.2l-1.7-0.1v16.6h-5.4v-35.1h8.8c1.8,0,3.2,0.4,4.1,1.1c0.9,0.7,1.5,1.8,1.8,3.1
								c0.3,1.3,0.4,3.1,0.4,5.2s-0.2,3.8-0.7,4.9c-0.5,1.1-1.3,1.9-2.5,2.2c1.2,0.2,2,1,2.5,2.4s0.7,4.4,0.7,8.9s0.1,6.9,0.2,7.2
								h-5.3c-0.1-0.3-0.2-4.5-0.2-12.6c0-1.6-0.2-2.6-0.6-3.1S4099.6,126.2,4098.4,126.2L4098.4,126.2z M4096.7,122h2.1
								c0.7,0,1.2-0.2,1.5-0.5c0.3-0.3,0.5-0.8,0.7-1.6c0.1-0.7,0.2-1.9,0.2-3.4v-0.2c0-1.9-0.2-3.2-0.5-3.7
								c-0.3-0.6-1.1-0.9-2.2-0.9h-1.8L4096.7,122L4096.7,122z"/>
							<path class="st2" d="M4118,142.7v-14l-5.9-21.1h5.1l3.5,13.1c0.1,0,3.2-13.1,3.2-13.1h5.1l-5.6,21.1v14H4118L4118,142.7z"/>
						</g>
					</g>
					<path class="st0" d="M4340.5,520h-562.3l7.7-9.2c4.5-5.4,11.1-8.5,18.1-8.5h502.6c10.5,0,20.5,4.2,27.9,11.6L4340.5,520
						L4340.5,520z"/>
				</g>
				<g>
					<rect x="5402.2" y="68.2" class="st5" width="705.5" height="106"/>
					<rect x="5427" y="174.2" class="st3" width="655.4" height="328.4"/>
					<rect x="5427" y="246.7" class="st4" width="655.4" height="206.6"/>
					<rect x="5427" y="246.7" class="st32" width="655.4" height="16.2"/>
					<path class="st33" d="M5402.2,172.9l696.8,0.8L5402.2,172.9z"/>
					<rect x="5589.6" y="485.5" class="st20" width="333.7" height="16.5"/>
					<rect x="5621.1" y="469" class="st34" width="267.1" height="16.5"/>
					<rect x="5665.6" y="453.3" class="st35" width="178.1" height="16.5"/>
					<rect x="5427" y="83.7" class="st12" width="655.9" height="72.2"/>
					<rect x="5793" y="423.4" class="st4" width="289.4" height="30"/>
					<rect x="5427" y="423.4" class="st4" width="287.3" height="30"/>
					<rect x="5793" y="216.7" class="st4" width="289.4" height="29.9"/>
					<rect x="5427" y="216.7" class="st4" width="374.5" height="29.9"/>
					<rect x="5427" y="216.7" class="st15" width="10.6" height="236.6"/>
					<rect x="6072.3" y="216.7" class="st15" width="10.6" height="236.6"/>
					<path class="st16" d="M5620.5,243.8h-186.4v180.8h277.5V243.8H5620.5z M5525.3,420.5h-86.8V247.9h86.8V420.5z M5616.4,420.5
						h-87V247.9h87V420.5z M5707.5,420.5h-87V247.9h87V420.5z"/>
					<path class="st16" d="M5984,243.8h-186.4v180.8h277.5V243.8H5984z M5888.7,420.5h-87V247.9h87V420.5z M5979.8,420.5h-87V247.9
						h87V420.5z M6071,420.5h-87V247.9h87V420.5z"/>
					<rect x="5711" y="243.8" class="st16" width="86.6" height="209.5"/>
					<rect x="5721" y="256.1" class="st6" width="66.6" height="185"/>
					<rect x="5434.2" y="90.9" class="st2" width="116.1" height="57.8"/>
					<rect x="5958.9" y="90.9" class="st2" width="116.1" height="57.8"/>
					<g>
						<g>
							<polygon class="st36" points="5620.3,391.1 5620.3,420.5 5621.9,420.5 5641.7,391.1 							"/>
							<polygon class="st36" points="5529.4,391.1 5529.4,420.5 5532.6,420.5 5552.7,391.1 							"/>
							<polygon class="st36" points="5438.5,391.1 5438.5,420.5 5441.9,420.5 5461.6,391.1 							"/>
						</g>
						<g>
							<polygon class="st37" points="5621.9,420.5 5707.5,420.5 5707.5,391.1 5640.5,391.1 							"/>
							<polygon class="st37" points="5531.7,420.5 5616.4,420.5 5616.4,391.1 5551.5,391.1 							"/>
							<polygon class="st37" points="5440.5,420.5 5525.3,420.5 5525.3,391.1 5460.3,391.1 							"/>
						</g>
						<g>
							<polygon class="st36" points="5983.7,391.1 5983.7,420.5 5985.4,420.5 6005.1,391.1 							"/>
							<polygon class="st36" points="5892.8,391.1 5892.8,420.5 5896,420.5 5916.1,391.1 							"/>
							<polygon class="st36" points="5801.9,391.1 5801.9,420.5 5805.4,420.5 5825.1,391.1 							"/>
						</g>
						<g>
							<polygon class="st37" points="5985.4,420.5 6071,420.5 6071,391.1 6003.9,391.1 							"/>
							<polygon class="st37" points="5895.1,420.5 5979.9,420.5 5979.9,391.1 5914.9,391.1 							"/>
							<polygon class="st37" points="5804,420.5 5888.7,420.5 5888.7,391.1 5823.7,391.1 							"/>
						</g>
					</g>
					<g>
						<path class="st2" d="M5650.1,127.7v-3.8h6.2v4.3c0,2.4,0.2,4.1,0.6,5c0.4,1,1.2,1.4,2.3,1.4s1.9-0.4,2.2-1.2
							c0.4-0.8,0.5-2.1,0.5-3.9s-0.3-3.4-1-4.7c-0.6-1.3-1.7-2.7-3.1-4.2l-3.2-3.3c-1.5-1.5-2.6-3.1-3.4-4.8
							c-0.8-1.7-1.2-3.6-1.2-5.7c0-3.5,0.7-6.2,2-7.9c1.4-1.7,3.7-2.6,7-2.6s5.6,1,6.8,3s1.8,4.9,1.8,8.8v2.7h-6v-3.1
							c0-2.1-0.2-3.6-0.5-4.5c-0.4-0.9-1-1.3-2.1-1.3s-1.7,0.3-2.2,1c-0.5,0.7-0.7,1.7-0.7,3.1s0.2,2.4,0.7,3.3
							c0.5,0.8,1.3,1.8,2.5,3.1l3.5,3.8c1.8,1.9,3.1,3.8,4,5.8c0.9,2,1.4,4.1,1.4,6.4c0,4-0.7,7-2,8.9s-3.7,2.9-7.1,2.9
							s-5.7-1.1-7-3.2C5650.8,134.9,5650.1,131.8,5650.1,127.7L5650.1,127.7z"/>
						<path class="st2" d="M5693,139.8v-37.2h-5v-5.7h16.3v5.7h-4.8v37.2H5693L5693,139.8z"/>
						<path class="st2" d="M5742,137.1c-1.5,2.1-3.9,3.1-7.2,3.1s-5.7-1-7.2-3.1c-1.5-2.1-2.3-5.2-2.3-9.3v-19.6
							c0-7.8,3.2-11.8,9.6-11.8c3.3,0,5.7,1,7.1,3s2.2,4.9,2.2,8.8v19.6C5744.2,132,5743.5,135.1,5742,137.1L5742,137.1z
							 M5732.4,133.1c0.4,1,1.2,1.5,2.4,1.5s2-0.5,2.3-1.5c0.4-1,0.6-2.8,0.6-5.2v-19.9c0-2-0.2-3.5-0.6-4.4s-1.1-1.4-2.2-1.4
							s-1.9,0.5-2.3,1.4c-0.5,0.9-0.7,2.4-0.7,4.4v20C5731.9,130.4,5732,132.1,5732.4,133.1L5732.4,133.1z"/>
						<path class="st2" d="M5776.6,119.6l-2.1-0.1v20.2h-6.5V96.9h10.8c2.2,0,3.9,0.4,5,1.3c1.1,0.9,1.8,2.2,2.2,3.8
							c0.4,1.6,0.5,3.7,0.5,6.3s-0.3,4.6-0.8,5.9c-0.5,1.4-1.6,2.3-3.1,2.8c1.5,0.3,2.5,1.3,3.1,3c0.6,1.7,0.9,5.3,0.9,10.8
							s0.1,8.4,0.2,8.9h-6.5c-0.2-0.3-0.2-5.4-0.2-15.4c0-1.9-0.2-3.2-0.7-3.8C5778.9,120,5778,119.7,5776.6,119.6L5776.6,119.6z
							 M5774.5,114.5h2.6c0.8,0,1.4-0.2,1.8-0.6c0.4-0.4,0.7-1,0.8-1.9c0.1-0.9,0.2-2.3,0.2-4.2v-0.3c0-2.3-0.2-3.8-0.6-4.6
							c-0.4-0.7-1.3-1.1-2.7-1.1h-2.2L5774.5,114.5L5774.5,114.5z"/>
						<path class="st2" d="M5810.4,139.8V96.9h14.4v5.6h-7.8V115h7.5v5.5h-7.5v13.6h8.1v5.6H5810.4z"/>
					</g>
					<rect x="5731.5" y="314.3" class="st16" width="45.7" height="35.7"/>
					<rect x="5731.5" y="314.3" class="st19" width="45.7" height="14.4"/>
					<g>
						<path class="st20" d="M5771.2,342.3h-33.6c-0.4,0-0.7-0.3-0.7-0.7s0.3-0.7,0.7-0.7h33.6c0.4,0,0.7,0.3,0.7,0.7
							S5771.6,342.3,5771.2,342.3z"/>
						<path class="st20" d="M5771.2,339.4h-33.6c-0.4,0-0.7-0.3-0.7-0.7s0.3-0.7,0.7-0.7h33.6c0.4,0,0.7,0.3,0.7,0.7
							S5771.6,339.4,5771.2,339.4z"/>
						<path class="st20" d="M5771.2,336.4h-33.6c-0.4,0-0.7-0.3-0.7-0.7s0.3-0.7,0.7-0.7h33.6c0.4,0,0.7,0.3,0.7,0.7
							S5771.6,336.4,5771.2,336.4z"/>
						<path class="st20" d="M5771.2,333.5h-33.6c-0.4,0-0.7-0.3-0.7-0.7s0.3-0.7,0.7-0.7h33.6c0.4,0,0.7,0.3,0.7,0.7
							S5771.6,333.5,5771.2,333.5z"/>
					</g>
					<g>
						<path class="st37" d="M5738.9,323.7v-0.7h1.1v0.8c0,0.4,0,0.7,0.1,0.9s0.2,0.3,0.4,0.3s0.3-0.1,0.4-0.2
							c0.1-0.1,0.1-0.4,0.1-0.7s-0.1-0.6-0.2-0.8c-0.1-0.2-0.3-0.5-0.5-0.8l-0.6-0.6c-0.3-0.3-0.5-0.6-0.6-0.9
							c-0.1-0.3-0.2-0.6-0.2-1c0-0.6,0.1-1.1,0.4-1.4c0.2-0.3,0.7-0.5,1.2-0.5s1,0.2,1.2,0.5s0.3,0.9,0.3,1.5v0.5h-1.1v-0.5
							c0-0.4,0-0.6-0.1-0.8c-0.1-0.2-0.2-0.2-0.4-0.2s-0.3,0.1-0.4,0.2s-0.1,0.3-0.1,0.5s0,0.4,0.1,0.6c0.1,0.1,0.2,0.3,0.4,0.5
							l0.6,0.7c0.3,0.3,0.5,0.7,0.7,1s0.2,0.7,0.2,1.1c0,0.7-0.1,1.2-0.4,1.6c-0.2,0.3-0.7,0.5-1.2,0.5s-1-0.2-1.2-0.6
							C5739,325,5738.9,324.5,5738.9,323.7L5738.9,323.7z"/>
						<path class="st37" d="M5746.5,325.9v-6.6h-0.9v-1h2.9v1h-0.9v6.6H5746.5L5746.5,325.9z"/>
						<path class="st37" d="M5755.2,325.4c-0.3,0.4-0.7,0.5-1.3,0.5s-1-0.2-1.3-0.5s-0.4-0.9-0.4-1.7v-3.5c0-1.4,0.6-2.1,1.7-2.1
							c0.6,0,1,0.2,1.3,0.5c0.2,0.4,0.4,0.9,0.4,1.5v3.5C5755.6,324.5,5755.4,325,5755.2,325.4L5755.2,325.4z M5753.5,324.7
							c0.1,0.2,0.2,0.3,0.4,0.3s0.4-0.1,0.4-0.3s0.1-0.5,0.1-0.9v-3.5c0-0.4,0-0.6-0.1-0.8c-0.1-0.2-0.2-0.2-0.4-0.2
							s-0.3,0.1-0.4,0.2c-0.1,0.2-0.1,0.4-0.1,0.8v3.5C5753.4,324.2,5753.4,324.5,5753.5,324.7L5753.5,324.7z"/>
						<path class="st37" d="M5761.3,322.3l-0.4,0v3.6h-1.2v-7.6h1.9c0.4,0,0.7,0.1,0.9,0.2c0.2,0.2,0.3,0.4,0.4,0.7
							c0.1,0.3,0.1,0.7,0.1,1.1s0,0.8-0.1,1.1c-0.1,0.2-0.3,0.4-0.5,0.5c0.3,0,0.5,0.2,0.5,0.5c0.1,0.3,0.2,1,0.2,1.9s0,1.5,0,1.6
							h-1.2c0-0.1,0-1,0-2.7c0-0.3,0-0.6-0.1-0.7C5761.7,322.4,5761.5,322.3,5761.3,322.3L5761.3,322.3z M5760.9,321.4h0.5
							c0.1,0,0.3,0,0.3-0.1c0.1-0.1,0.1-0.2,0.1-0.3c0-0.2,0-0.4,0-0.7c0-0.5,0-0.7-0.1-0.9c-0.1-0.1-0.2-0.2-0.5-0.2h-0.4
							L5760.9,321.4L5760.9,321.4z"/>
						<path class="st37" d="M5767.3,325.9v-7.6h2.5v1h-1.4v2.2h1.3v1h-1.3v2.4h1.4v1H5767.3L5767.3,325.9z"/>
					</g>
					<path class="st0" d="M6153.7,520h-797.4l10.9-9.2c6.4-5.4,15.8-8.5,25.7-8.5h712.8c14.8,0,29.1,4.2,39.5,11.6L6153.7,520
						L6153.7,520z"/>
				</g>
				<g>
					<g>
						<polygon class="st4" points="5419.5,499.4 4902.9,498.6 4903.1,96 5419.5,94.9 						"/>
						<polygon class="st4" points="5439.6,509.2 4879.6,509.2 4879.6,422.8 5439.8,422.8 						"/>
						<polygon class="st5" points="5439.6,214.2 4886.6,214.8 4886.6,164.1 5439.6,163.6 						"/>
						<path class="st4" d="M5061,86.8h208.3c8.8,0,15.9,7.1,15.9,15.9v85.1c0,8.8-7.1,15.9-15.9,15.9H5061
							c-8.8,0-15.9-7.1-15.9-15.9v-85.1C5045,93.9,5052.2,86.8,5061,86.8z"/>
						<path class="st5" d="M5078.9,101.4h172.9c1.9,0,3.4,1.5,3.4,3.4v76c0,1.9-1.5,3.4-3.4,3.4h-172.9c-1.9,0-3.4-1.5-3.4-3.4v-76
							C5075.5,102.9,5077,101.4,5078.9,101.4z"/>
						<g>
							<g>
								<rect x="4994.6" y="388.3" class="st27" width="68.9" height="71.5"/>
								<rect x="4922.1" y="309.1" class="st27" width="65.3" height="71.5"/>
								<rect x="4922.1" y="229.9" class="st27" width="65.3" height="71.5"/>
								<rect x="4922.1" y="388.3" class="st27" width="65.3" height="71.5"/>
								<rect x="4994.6" y="309.1" class="st27" width="68.9" height="71.5"/>
								<rect x="4994.6" y="229.9" class="st27" width="68.9" height="71.5"/>
								<path class="st38" d="M4915,222.1v245.5h155.6V222.1L4915,222.1L4915,222.1z M4987.4,459.8h-65.3v-71.5h65.3V459.8z
									 M4987.4,380.6h-65.3v-71.5h65.3V380.6z M4987.4,301.4h-65.3v-71.5h65.3V301.4z M5063.5,459.8h-68.9v-71.5h68.9V459.8z
									 M5063.5,380.6h-68.9v-71.5h68.9V380.6z M5063.5,301.4h-68.9v-71.5h68.9V301.4z"/>
							</g>
							<g>
								<rect x="5330.5" y="388.3" class="st27" width="68.9" height="71.5"/>
								<rect x="5258" y="309.1" class="st27" width="65.3" height="71.5"/>
								<rect x="5258" y="229.9" class="st27" width="65.3" height="71.5"/>
								<rect x="5258" y="388.3" class="st27" width="65.3" height="71.5"/>
								<rect x="5330.5" y="309.1" class="st27" width="68.9" height="71.5"/>
								<rect x="5330.5" y="229.9" class="st27" width="68.9" height="71.5"/>
								<path class="st38" d="M5250.9,222.1v245.5h155.6V222.1L5250.9,222.1L5250.9,222.1z M5323.3,459.8H5258v-71.5h65.3V459.8z
									 M5323.3,380.6H5258v-71.5h65.3V380.6z M5323.3,301.4H5258v-71.5h65.3V301.4z M5399.3,459.8h-68.9v-71.5h68.9V459.8z
									 M5399.3,380.6h-68.9v-71.5h68.9V380.6z M5399.3,301.4h-68.9v-71.5h68.9V301.4z"/>
							</g>
						</g>
						<polygon class="st39" points="5197.2,344 5134.5,420.2 5197.2,420.2 						"/>
						<g>
							<path class="st2" d="M5099.5,174.5v-31.8h9.5c2.5,0,4.3,0.6,5.5,1.6c1.2,1.1,1.8,3,1.8,5.6v1.4c0,0.2,0,0.6-0.1,1.1
								s-0.1,0.9-0.2,1.1c-0.1,0.3-0.2,0.6-0.4,1c-0.2,0.4-0.4,0.7-0.6,1c-0.2,0.2-0.6,0.5-1,0.7c-0.4,0.2-0.8,0.4-1.3,0.5
								c0.7,0.2,1.4,0.5,1.9,0.9c0.5,0.4,0.9,0.9,1.2,1.4c0.3,0.5,0.5,1.1,0.6,1.8s0.2,1.3,0.3,1.7s0,1,0,1.7c0,1.7-0.1,3.1-0.4,4.3
								s-0.6,2.3-1.2,3.2s-1.4,1.6-2.4,2.1c-1,0.5-2.3,0.7-3.8,0.7L5099.5,174.5L5099.5,174.5z M5106.4,154.7h1.4
								c0.4,0,0.6-0.1,0.9-0.2c0.2-0.1,0.4-0.4,0.5-0.6c0.1-0.3,0.1-0.5,0.2-0.7c0-0.2,0-0.5,0-0.8v-3.1c0-1-0.5-1.5-1.5-1.5h-1.5
								L5106.4,154.7L5106.4,154.7z M5106.4,159.7v9.2c0.3,0,0.5,0,0.7,0c1.8,0,2.7-0.8,2.7-2.4v-4c0-1-0.2-1.8-0.5-2.2
								s-0.9-0.7-1.6-0.7L5106.4,159.7L5106.4,159.7z"/>
							<path class="st2" d="M5128.4,166v-15.1c0-2.6,0.7-4.7,2.1-6.1c1.4-1.5,3.6-2.2,6.5-2.2c3,0,5.1,0.8,6.6,2.2
								c1.4,1.5,2.1,3.5,2.1,6.1V166c0,1.3-0.2,2.5-0.5,3.5s-0.8,2-1.5,2.8c-0.7,0.8-1.6,1.5-2.7,1.9c-1.1,0.4-2.4,0.7-3.9,0.6
								c-1.5,0-2.9-0.2-4-0.6s-2-1.1-2.7-1.9s-1.2-1.8-1.5-2.8C5128.5,168.4,5128.3,167.3,5128.4,166L5128.4,166z M5137,168.6
								c0.2,0,0.5-0.1,0.7-0.1c0.2-0.1,0.4-0.2,0.5-0.5s0.2-0.4,0.3-0.6c0.1-0.2,0.1-0.4,0.1-0.8c0-0.3,0-0.6,0-0.7
								c0-0.2,0-0.4,0-0.7v-12.9c0-0.1,0-0.2,0-0.5c0-0.2,0-0.4,0-0.5s0-0.3,0-0.5s0-0.4-0.1-0.5c0-0.1-0.1-0.3-0.1-0.5
								c0-0.2-0.1-0.3-0.2-0.4s-0.2-0.2-0.3-0.3s-0.2-0.2-0.4-0.2c-0.2-0.1-0.3-0.1-0.5-0.1c-0.3,0-0.5,0.1-0.7,0.1
								s-0.4,0.2-0.5,0.4c-0.1,0.2-0.2,0.4-0.3,0.6c-0.1,0.2-0.1,0.4-0.2,0.7c0,0.3,0,0.6,0,0.7V165c0,0.3,0,0.5,0,0.7
								c0,0.2,0,0.4,0,0.8s0.1,0.6,0.1,0.8c0.1,0.2,0.2,0.4,0.3,0.6s0.3,0.4,0.5,0.5C5136.5,168.5,5136.7,168.6,5137,168.6
								L5137,168.6z"/>
							<path class="st2" d="M5157.9,166v-15.1c0-2.6,0.7-4.7,2.1-6.1c1.4-1.5,3.6-2.2,6.5-2.2c3,0,5.1,0.8,6.6,2.2
								c1.4,1.5,2.1,3.5,2.1,6.1V166c0,1.3-0.2,2.5-0.5,3.5s-0.8,2-1.5,2.8c-0.7,0.8-1.6,1.5-2.7,1.9c-1.1,0.4-2.4,0.7-3.9,0.6
								c-1.5,0-2.9-0.2-4-0.6s-2-1.1-2.7-1.9s-1.2-1.8-1.5-2.8C5158,168.4,5157.9,167.3,5157.9,166L5157.9,166z M5166.5,168.6
								c0.2,0,0.5-0.1,0.7-0.1c0.2-0.1,0.4-0.2,0.5-0.5s0.2-0.4,0.3-0.6c0.1-0.2,0.1-0.4,0.1-0.8c0-0.3,0-0.6,0-0.7
								c0-0.2,0-0.4,0-0.7v-12.9c0-0.1,0-0.2,0-0.5c0-0.2,0-0.4,0-0.5s0-0.3,0-0.5s0-0.4-0.1-0.5c0-0.1-0.1-0.3-0.1-0.5
								c0-0.2-0.1-0.3-0.2-0.4s-0.2-0.2-0.3-0.3s-0.2-0.2-0.4-0.2c-0.2-0.1-0.3-0.1-0.5-0.1c-0.3,0-0.5,0.1-0.7,0.1
								s-0.4,0.2-0.5,0.4c-0.1,0.2-0.2,0.4-0.3,0.6c-0.1,0.2-0.1,0.4-0.2,0.7c0,0.3,0,0.6,0,0.7V165c0,0.3,0,0.5,0,0.7
								c0,0.2,0,0.4,0,0.8s0.1,0.6,0.1,0.8c0.1,0.2,0.2,0.4,0.3,0.6s0.3,0.4,0.5,0.5C5166,168.5,5166.2,168.6,5166.5,168.6
								L5166.5,168.6z"/>
							<path class="st2" d="M5198,142.8h7.1l-3.9,14.5l4.7,17.2h-7.3l-3.8-15.4v15.4h-7v-31.8h6.9v12.7L5198,142.8L5198,142.8z"/>
							<path class="st2" d="M5225.2,174.9c-3.3,0-5.6-0.7-7-2.2c-1.4-1.5-2.1-3.8-2.1-6.9v-3.1h6.9v2.9c0,2.1,0.6,3.1,1.7,3.1
								c0.5,0,0.9-0.2,1.2-0.6c0.3-0.4,0.5-0.9,0.5-1.6c0-0.9-0.1-1.6-0.4-2.2c-0.2-0.6-0.6-1.1-1.1-1.7c-0.5-0.5-1.2-1.2-2.3-2.2
								l-3-2.6c-2.4-2.1-3.6-4.4-3.6-7c0-2.8,0.7-4.9,2.2-6.3c1.4-1.4,3.4-2.1,6-2.1h1.2c0.6,0,1.5,0.1,2.5,0.4
								c1,0.3,1.9,0.8,2.7,1.5c0.8,0.7,1.4,1.7,1.8,2.9s0.6,2.8,0.6,4.6h-7.1l0-1.9c0-0.4-0.2-0.7-0.5-1c-0.3-0.3-0.6-0.4-1-0.4
								c-0.5,0-0.9,0.1-1.2,0.4s-0.5,0.6-0.5,1.1c0,0.9,0.7,1.9,2,2.9l4.2,3.4c0.7,0.6,1.3,1.1,1.8,1.7c0.5,0.6,0.9,1.1,1.2,1.7
								c0.3,0.6,0.5,1.1,0.7,1.5c0.2,0.5,0.3,1,0.4,1.5c0.1,0.5,0.1,0.9,0.1,1.2c0,0.3,0,0.6,0,1.1c0,1.1-0.1,2.1-0.2,3
								c-0.1,0.9-0.4,1.8-0.8,2.6c-0.4,0.9-0.9,1.6-1.5,2.1c-0.6,0.6-1.4,1-2.4,1.4C5227.6,174.7,5226.5,174.9,5225.2,174.9
								L5225.2,174.9z"/>
						</g>
						<g>
							<rect x="5082.3" y="472.4" class="st5" width="160.2" height="13.1"/>
							<rect x="5062.3" y="490.2" class="st5" width="199.4" height="20.2"/>
							<rect x="5079.2" y="467.6" class="st26" width="166.4" height="4.8"/>
							<rect x="5059.1" y="485.5" class="st26" width="206.2" height="4.8"/>
							<g>
								<rect x="5114.1" y="257.3" class="st38" width="96.3" height="210.3"/>
								<rect x="5127.4" y="270" class="st27" width="70" height="128.8"/>
								<rect x="5127.4" y="407.5" class="st27" width="70" height="49.9"/>
							</g>
						</g>
						<g>
							<g>
								<path class="st2" d="M5159.3,137.1c-6.9,0-11.2-4.8-11.2-12.4s4.3-12.4,11.2-12.4s11.2,4.8,11.2,12.4
									S5166.3,137.1,5159.3,137.1z M5159.3,116.3c-6.2,0-7.1,5.2-7.1,8.4s0.9,8.4,7.1,8.4s7.1-5.2,7.1-8.4
									S5165.5,116.3,5159.3,116.3z"/>
								<path class="st2" d="M5185.3,137.1c-6.9,0-11.2-4.8-11.2-12.4s4.3-12.4,11.2-12.4s11.2,4.8,11.2,12.4
									S5192.3,137.1,5185.3,137.1z M5185.3,116.3c-6.2,0-7.1,5.2-7.1,8.4s0.9,8.4,7.1,8.4s7.1-5.2,7.1-8.4
									S5191.5,116.3,5185.3,116.3z"/>
							</g>
							<path class="st2" d="M5145.5,134.3c0,0-3.3-19-3.6-20c-0.3-1-1.1-1.6-2-1.7c-1-0.1-1.9-0.1-2.8,0c-0.9,0.1-1.6,0.7-2,1.4
								c-0.3,0.6-3,10-4,13.3c-0.3,1.1-0.3,2.8-0.3,2.8s0-1.7-0.3-2.8c-1-3.2-3.7-12.7-4-13.3c-0.3-0.8-1.1-1.3-2-1.4
								c-0.8-0.1-1.8-0.1-2.8,0c-1,0.1-1.7,0.7-2,1.7c-0.3,0.9-3.6,20-3.6,20c-0.2,1.1,0.5,2.2,1.6,2.4c1.1,0.2,2.2-0.5,2.4-1.6
								c0,0,2.7-15.1,2.9-16.2c0.2-1.1,0.1-2.3,0.1-2.3s0.1,1.1,0.4,2.2c4.7,15.9,4.7,15.8,4.9,16.5c0.3,0.8,1.1,1.4,2,1.4
								c0.1,0,0.2,0,0.3,0c0.1,0,0.2,0,0.3,0c0.8-0.1,1.6-0.7,2-1.4c0.2-0.6,0.2-0.6,4.9-16.5c0.3-1.1,0.4-2.2,0.4-2.2
								s-0.1,1.2,0.1,2.3c0.2,1.1,2.9,16.2,2.9,16.2c0.2,1.1,1.3,1.8,2.4,1.6C5145,136.4,5145.7,135.4,5145.5,134.3L5145.5,134.3z"
								/>
							<path class="st2" d="M5217.9,112.7c-1-0.4-2.2,0.1-2.6,1.2c0,0-5.3,13.9-6.5,17c-0.2,0.6-0.2,1.3-0.2,1.3c0,0,0-0.7-0.2-1.3
								c-1.2-3.1-6.5-17-6.5-17c-0.4-1.1-1.6-1.6-2.6-1.2s-1.6,1.6-1.2,2.6c0,0,7.2,19.2,7.6,19.9c0.4,0.7,1.1,1.2,1.9,1.3
								c0.2,0,0.7,0.1,1,0.1s0.8,0,1-0.1c0.8-0.1,1.5-0.6,1.9-1.3c0.4-0.7,7.6-19.9,7.6-19.9
								C5219.5,114.2,5218.9,113.1,5217.9,112.7L5217.9,112.7z"/>
						</g>
					</g>
					<circle class="st27" cx="5120.5" cy="394.8" r="4.1"/>
					<path class="st0" d="M5533.1,520h-746.8l10.2-9.2c6-5.4,14.8-8.5,24-8.5h667.5c13.9,0,27.2,4.2,37,11.6L5533.1,520L5533.1,520z
						"/>
				</g>
			</g>
		</g>
		<g>
			<path class="st1" d="M653.1,240.8c1,0,2,0,3.1,0c0.4,0,0.8-0.1,1.1-0.2c0.4-0.1,0.7-0.3,0.9-0.6c0.3-0.3,0.5-0.6,0.6-0.9
				c0.2-0.4,0.3-0.7,0.2-1.1l-0.1-0.8c-0.1-0.5-0.4-0.9-0.8-1.3c-0.6-0.5-1.3-0.9-2-0.9c-1,0-2,0-3.1,0c-0.4,0-0.8,0.1-1.1,0.2
				c-0.4,0.1-0.7,0.3-0.9,0.6c-0.3,0.3-0.5,0.6-0.6,0.9c-0.2,0.4-0.3,0.7-0.2,1.1l0.1,0.8c0.1,0.5,0.4,0.9,0.8,1.3
				C651.7,240.4,652.4,240.8,653.1,240.8L653.1,240.8z"/>
			<g>
				<rect x="2987.6" y="0" class="st2" width="157" height="62.2"/>
				<g>
					<polygon class="st3" points="3389.6,476.2 2739.4,476.2 2739.9,170.9 3390.2,161.3 					"/>
					<polygon class="st4" points="3398.7,506.8 2731.9,506.2 2731.9,471.9 3398.7,471.9 					"/>
					<g>
						<path class="st6" d="M3326.2,300.8c0-0.4,1.1-31-18.9-51.9c-12.7-13.2-31.2-20-55.1-20c-0.4,0-0.8,0-1.2,0
							c-2.2,59.3-27.4,117-63.4,163.2c9.2,15.2,20.3,28.9,31.6,42.4h107.6L3326.2,300.8L3326.2,300.8z"/>
						<path class="st5" d="M3335.7,301c0.1-2.7,0.9-35.2-21.5-58.6c-14.6-15.2-35.4-23-62-23c-43.1,0-64.2,22.2-74.4,40.8
							c-10.9,19.9-11.6,39.6-11.6,40.5v143.2h170.2L3335.7,301L3335.7,301z M3175.6,301c0.1-1.2,1-19,10.6-36.5
							c13-23.6,35.2-35.6,65.9-35.6c23.9,0,42.4,9.1,55.1,22.3c20,20.9,18.9,49.1,18.9,49.4c0,0.1,0.7,133.8,0.7,133.8h-151.2V301
							L3175.6,301z"/>
						<g>
							<path class="st7" d="M3175.6,317.5v117c0.3-0.2,10.5-9.3,25.5-22.6c-4.8-6.4-9.3-12.9-13.5-19.8
								c32.6-41.9,56.4-93.4,62.2-146.9c-3.3,0.2-6.7,0.6-10.1,1.3C3204.1,253.8,3183.3,284.4,3175.6,317.5L3175.6,317.5z"/>
							<path class="st8" d="M3186.3,264.5c-9.6,17.5-10.6,35.3-10.6,36.5v16.5c7.7-33.1,28.5-63.7,64.1-71c3.4-0.7,6.8-1.1,10.1-1.3
								c0.6-5.4,1-10.8,1.2-16.3C3220.9,229.2,3199.1,241.2,3186.3,264.5L3186.3,264.5z"/>
							<path class="st7" d="M3252.9,245.1c3.6,33.1,14,65.3,29.2,95.1c25.1-22.2,44.8-39.6,44.8-39.5v133.6h0.2V300.8
								c0-0.5-0.2-3.4-0.9-7.8C3313.6,265,3284.8,244.5,3252.9,245.1L3252.9,245.1z"/>
							<path class="st8" d="M3251.7,228.7c0.2,5.5,0.6,10.9,1.2,16.3c31.9-0.6,60.6,20,73.2,47.9c-1.2-7.1-3.8-17.9-9.7-28.7
								C3303.6,241,3281.9,229,3251.7,228.7L3251.7,228.7z"/>
							<path class="st9" d="M3175.6,434.5l43.6,0c-6.2-7.4-12.3-14.9-18.1-22.6C3186.1,425.2,3175.9,434.2,3175.6,434.5
								L3175.6,434.5z"/>
							<path class="st9" d="M3282.1,340.1c9.4,18.4,20.5,35.8,33,51.8c-9.2,15.2-20.3,28.9-31.6,42.4h43.4V300.7
								C3326.9,300.6,3307.2,317.9,3282.1,340.1L3282.1,340.1z"/>
						</g>
					</g>
					<polygon class="st5" points="3198.6,506.2 2933.5,506.2 2933.6,480.6 3198.6,480.6 					"/>
					<rect x="2977.8" y="463.7" class="st5" width="176.7" height="16.4"/>
				</g>
				<rect x="3175.6" y="430.8" class="st5" width="151.2" height="4.5"/>
				<path class="st6" d="M2950.4,299.6c0-0.4,1.1-31-18.9-51.9c-12.7-13.2-31.2-20-55.1-20c-0.4,0-0.8,0-1.2,0
					c-2.2,59.3-27.4,117-63.4,163.2c9.2,15.2,20.3,28.9,31.6,42.4h107.6L2950.4,299.6L2950.4,299.6z"/>
				<path class="st5" d="M2959.9,299.8c0.1-2.7,0.9-35.2-21.5-58.6c-14.6-15.2-35.4-23-62-23c-43.1,0-64.2,22.2-74.4,40.8
					c-10.9,19.9-11.6,39.6-11.6,40.5v143.2h170.2L2959.9,299.8L2959.9,299.8z M2799.9,299.8c0.1-1.2,1-19,10.6-36.5
					c13-23.6,35.2-35.6,65.9-35.6c23.9,0,42.4,9.1,55.1,22.3c20,20.9,18.9,49.1,18.9,49.4c0,0.1,0.7,133.8,0.7,133.8h-151.2V299.8
					L2799.9,299.8z"/>
				<g>
					<path class="st7" d="M2799.9,316.4v117c0.3-0.2,10.5-9.3,25.5-22.6c-4.8-6.4-9.3-12.9-13.5-19.8
						c32.6-41.9,56.4-93.4,62.2-146.9c-3.3,0.2-6.7,0.6-10.1,1.3C2828.3,252.7,2807.5,283.2,2799.9,316.4L2799.9,316.4z"/>
					<path class="st8" d="M2810.5,263.4c-9.6,17.5-10.6,35.3-10.6,36.5v16.5c7.7-33.1,28.5-63.7,64.1-71c3.4-0.7,6.8-1.1,10.1-1.3
						c0.6-5.4,1-10.8,1.2-16.3C2845.1,228.1,2823.3,240.1,2810.5,263.4L2810.5,263.4z"/>
					<path class="st7" d="M2877.2,243.9c3.6,33,14,65.3,29.2,95.1c25.1-22.2,44.8-39.6,44.8-39.5v133.6h0.2V299.6
						c0-0.5-0.2-3.4-0.9-7.8C2937.8,263.9,2909.1,243.3,2877.2,243.9L2877.2,243.9z"/>
					<path class="st8" d="M2876,227.6c0.2,5.5,0.6,10.9,1.2,16.3c31.9-0.6,60.6,20,73.2,47.9c-1.2-7.1-3.8-17.9-9.7-28.7
						C2927.9,239.9,2906.1,227.9,2876,227.6L2876,227.6z"/>
					<path class="st9" d="M2799.9,433.3l43.6,0c-6.2-7.4-12.3-14.9-18.1-22.6C2810.3,424,2800.1,433.1,2799.9,433.3z"/>
				</g>
				<rect x="2799.8" y="429.6" class="st5" width="151.2" height="4.5"/>
				<rect x="3131.2" y="179.7" class="st4" width="13.4" height="284.1"/>
				<rect x="2984.4" y="179.7" class="st4" width="13.4" height="284.1"/>
				<polygon class="st5" points="3404.9,180.5 2727.3,180.5 2716.9,161.3 3415.3,161.3 				"/>
				<rect x="2813.6" y="58.8" class="st4" width="505" height="29"/>
				<polygon class="st5" points="3390.2,161.3 2741.9,161.3 2813.6,83.8 3318.6,83.8 				"/>
				<path class="st12" d="M3268.4,118c-134.7-10.9-271.1-10.9-405.8,0V38.3c134.7,10.9,271.1,10.9,405.8,0V118z"/>
				<path class="st2" d="M3279.4,109.8c-141.7-11.4-285-11.4-426.7,0V26.2c141.7,11.4,285,11.4,426.7,0V109.8z"/>
				<g>
					<path class="st5" d="M3106.1,463.7h-83.2V308.5c0-3.8,2.4-48.4,39.4-48.4s43.8,35.2,43.8,48.4L3106.1,463.7L3106.1,463.7z"/>
					<rect x="3033.2" y="313" class="st6" width="62.7" height="56.5"/>
					<rect x="3033.2" y="379.2" class="st6" width="62.7" height="72.5"/>
					<path class="st6" d="M3095.5,303.1c-1.2-9.4-5.4-18.1-12-23.8c-4.9-4.2-11.6-7.3-20.6-7.3c-17,0-24.9,14.5-28,22.7
						c-1,2.6-1.5,5.5-1.6,8.4H3095.5L3095.5,303.1z"/>
					<rect x="3049.2" y="330.5" class="st10" width="30.2" height="20.7"/>
				</g>
				<g class="st31">
					<path class="st16" d="M3276.7,373.7h-50.9c1.6,4.9,9.4,9.2,16.9,11.2c-0.2,0-0.2,1-0.2,1h17.5v-1
						C3267.3,382.9,3275.1,378.6,3276.7,373.7L3276.7,373.7z"/>
				</g>
				<g class="st40">
					<path class="st16" d="M3252.2,334.5c2.1,6.2-3.8,12.4-4.8,17.9c-0.9,5,1,15,5.1,15.9c-1.6-6,2.2-8.3,3.8-13.4
						C3258.7,347.3,3255.7,337.3,3252.2,334.5z"/>
					<path class="st16" d="M3260.7,344.2c1.5,4.4-2.7,8.8-3.4,12.8c-0.7,3.6,0.7,10.7,3.6,11.4c-1.1-4.2,1.6-5.9,2.7-9.5
						C3265.4,353.3,3263.3,346.2,3260.7,344.2L3260.7,344.2z"/>
					<path class="st16" d="M3242.1,344.2c1.5,4.4-2.7,8.8-3.4,12.8c-0.7,3.6,0.7,10.7,3.6,11.4c-1.1-4.2,1.6-5.9,2.7-9.5
						C3246.7,353.3,3244.6,346.2,3242.1,344.2L3242.1,344.2z"/>
				</g>
				<path class="st11" d="M2897.6,381.5h-2.4c-0.9,0-1.8-0.5-2.2-1.3c-0.9-1.9-0.8-3.8,0.3-5.7c3.3-0.5,5.7-2.7,5.7-8
					c0-1.6-0.4-4-0.8-6.3h-13c-0.4,2.3-0.8,4.8-0.8,6.3c0,5.2,2.4,7.4,5.7,8c1.2,2,1.2,4.1,0,6.2c-0.3,0.5-0.9,0.9-1.6,0.9h-2.4
					c0,0-1.6,0.2-1.6,1h14.3C2898.8,382.6,2898.7,381.5,2897.6,381.5L2897.6,381.5z"/>
				<g>
					<g>
						<path class="st12" d="M2934,71.4l-2-0.1v18.9h-6.1v-40h10.1c2.1,0,3.6,0.4,4.7,1.3s1.7,2,2,3.5c0.3,1.5,0.5,3.5,0.5,5.9
							s-0.3,4.3-0.8,5.6c-0.5,1.3-1.5,2.1-2.9,2.6c1.4,0.2,2.3,1.2,2.9,2.8c0.5,1.6,0.8,5,0.8,10.1s0.1,7.9,0.2,8.3h-6.1
							c-0.1-0.3-0.2-5.1-0.2-14.3c0-1.8-0.2-2.9-0.6-3.5C2936.2,71.7,2935.3,71.4,2934,71.4L2934,71.4z M2932.1,66.6h2.4
							c0.8,0,1.3-0.2,1.7-0.5c0.4-0.3,0.6-0.9,0.8-1.8c0.1-0.8,0.2-2.1,0.2-3.9v-0.2c0-2.2-0.2-3.6-0.6-4.2c-0.4-0.7-1.2-1-2.5-1
							h-2.1L2932.1,66.6L2932.1,66.6z"/>
						<path class="st12" d="M2957.2,90.2v-40h13.4v5.2h-7.3v11.6h6.9v5.1h-6.9v12.7h7.6v5.2H2957.2L2957.2,90.2z"/>
						<path class="st12" d="M2983.3,78.9v-3.6h5.8v4c0,2.2,0.2,3.8,0.6,4.7c0.4,0.9,1.1,1.3,2.1,1.3s1.7-0.4,2.1-1.1
							s0.5-1.9,0.5-3.6s-0.3-3.2-0.9-4.4c-0.6-1.2-1.6-2.6-2.9-3.9l-2.9-3.1c-1.4-1.4-2.4-2.9-3.2-4.5c-0.8-1.5-1.1-3.3-1.1-5.4
							c0-3.3,0.6-5.8,1.9-7.4c1.3-1.6,3.5-2.4,6.6-2.4s5.2,0.9,6.3,2.8c1.1,1.9,1.6,4.6,1.6,8.2v2.5h-5.6v-2.9
							c0-1.9-0.2-3.3-0.5-4.2c-0.3-0.8-1-1.3-1.9-1.3s-1.6,0.3-2,1c-0.4,0.6-0.6,1.6-0.6,2.9s0.2,2.3,0.6,3c0.4,0.8,1.2,1.7,2.3,2.9
							l3.3,3.6c1.6,1.8,2.9,3.6,3.7,5.4s1.3,3.8,1.3,6c0,3.7-0.6,6.5-1.9,8.3c-1.3,1.8-3.5,2.7-6.6,2.7s-5.3-1-6.6-3
							S2983.4,82.8,2983.3,78.9L2983.3,78.9z"/>
						<path class="st12" d="M3015.1,90.2V55.5h-4.7v-5.3h15.2v5.3h-4.5v34.7H3015.1L3015.1,90.2z"/>
						<path class="st12" d="M3035.5,90.2l5.7-40h8l6.1,40h-5.7l-1-7.1h-6.4l-0.9,7.1H3035.5z M3048.1,78.2l-2.7-20.1
							c-0.1,0-2.6,20.1-2.6,20.1H3048.1z"/>
						<path class="st12" d="M3083.2,88c-1.4,1.7-3.6,2.6-6.7,2.6s-5.3-0.9-6.7-2.6c-1.4-1.7-2.1-4.4-2.1-8.1V50.2h6.1v29.6
							c0,2.1,0.1,3.4,0.3,3.8c0.2,0.4,0.4,0.9,0.7,1.2c0.3,0.4,0.9,0.6,1.7,0.6s1.5-0.3,1.9-0.8c0.4-0.5,0.6-1.2,0.7-1.9
							c0.1-0.8,0.1-1.8,0.1-2.9V50.2h6.1v29.7C3085.3,83.6,3084.6,86.3,3083.2,88L3083.2,88z"/>
						<path class="st12" d="M3107.4,71.4l-2-0.1v18.9h-6.1v-40h10.1c2.1,0,3.6,0.4,4.7,1.3s1.7,2,2,3.5c0.3,1.5,0.5,3.5,0.5,5.9
							s-0.3,4.3-0.8,5.6c-0.5,1.3-1.5,2.1-2.9,2.6c1.4,0.2,2.3,1.2,2.9,2.8c0.5,1.6,0.8,5,0.8,10.1s0.1,7.9,0.2,8.3h-6.1
							c-0.1-0.3-0.2-5.1-0.2-14.3c0-1.8-0.2-2.9-0.6-3.5C3109.5,71.7,3108.7,71.4,3107.4,71.4L3107.4,71.4z M3105.5,66.6h2.4
							c0.8,0,1.3-0.2,1.7-0.5c0.4-0.3,0.6-0.9,0.8-1.8c0.1-0.8,0.2-2.1,0.2-3.9v-0.2c0-2.2-0.2-3.6-0.6-4.2c-0.4-0.7-1.2-1-2.5-1
							h-2.1L3105.5,66.6L3105.5,66.6z"/>
						<path class="st12" d="M3128.8,90.2l5.7-40h8l6.1,40h-5.7l-0.9-7.1h-6.5l-0.9,7.1H3128.8z M3141.4,78.2l-2.7-20.1
							c-0.1,0-2.6,20.1-2.6,20.1H3141.4z"/>
						<path class="st12" d="M3161.2,90.2v-40h4.8l8.5,24l-0.4-10.9V50.2h5.5v40h-4.3l-8.7-24.8l0.3,10.5v14.3L3161.2,90.2
							L3161.2,90.2z"/>
						<path class="st12" d="M3195.8,90.2V55.5h-4.7v-5.3h15.2v5.3h-4.5v34.7H3195.8L3195.8,90.2z"/>
					</g>
					<polygon class="st12" points="3226.7,61.3 3229.6,67.1 3236,68.1 3231.4,72.6 3232.4,79 3226.7,76 3220.9,79 3222,72.6 
						3217.4,68.1 3223.8,67.1 					"/>
					<polygon class="st12" points="2905.5,61.3 2908.4,67.1 2914.8,68.1 2910.2,72.6 2911.3,79 2905.5,76 2899.7,79 2900.8,72.6 
						2896.2,68.1 2902.6,67.1 					"/>
				</g>
				<path class="st0" d="M3464,520.6h-795.7l10.9-9.6c6.3-5.6,15.7-8.8,25.6-8.8H3416c14.8,0,29,4.4,39.4,12.1L3464,520.6
					L3464,520.6z"/>
				<g>
					<g>
						<path class="st12" d="M3057.7,37.5c-6.9,0-11.2-4.8-11.2-12.5s4.3-12.4,11.2-12.4s11.2,4.8,11.2,12.4S3064.6,37.5,3057.7,37.5
							z M3057.7,16.7c-6.2,0-7.1,5.2-7.1,8.4s0.9,8.4,7.1,8.4s7.1-5.2,7.1-8.4S3063.9,16.7,3057.7,16.7z"/>
						<path class="st12" d="M3083.7,37.5c-6.9,0-11.2-4.8-11.2-12.5s4.3-12.4,11.2-12.4s11.2,4.8,11.2,12.4S3090.6,37.5,3083.7,37.5
							z M3083.7,16.7c-6.2,0-7.1,5.2-7.1,8.4s0.9,8.4,7.1,8.4s7.1-5.2,7.1-8.4S3089.9,16.7,3083.7,16.7z"/>
					</g>
					<path class="st12" d="M3043.9,34.7c0,0-3.3-19-3.6-20c-0.3-1-1.1-1.6-2-1.7c-0.9-0.1-1.9-0.1-2.8,0c-0.9,0.1-1.6,0.7-1.9,1.4
						c-0.3,0.6-3,10-4,13.3c-0.3,1.1-0.3,2.8-0.3,2.8s0-1.7-0.3-2.8c-0.9-3.2-3.7-12.6-4-13.3c-0.3-0.8-1.1-1.3-1.9-1.4
						c-0.8-0.1-1.8-0.1-2.8,0s-1.7,0.7-2,1.7c-0.3,0.9-3.6,20-3.6,20c-0.2,1.1,0.5,2.2,1.6,2.4c1.1,0.2,2.2-0.5,2.4-1.6
						c0,0,2.7-15.1,2.9-16.2c0.2-1.1,0.1-2.3,0.1-2.3s0.1,1.1,0.4,2.2c4.7,15.9,4.7,15.8,4.9,16.5c0.3,0.8,1.1,1.4,1.9,1.5
						c0.1,0,0.2,0,0.3,0c0.1,0,0.2,0,0.3,0c0.8-0.1,1.6-0.7,1.9-1.5c0.2-0.6,0.2-0.6,4.9-16.5c0.3-1.1,0.4-2.2,0.4-2.2
						s-0.1,1.2,0.1,2.3s2.9,16.2,2.9,16.2c0.2,1.1,1.3,1.8,2.4,1.6S3044.1,35.8,3043.9,34.7L3043.9,34.7z"/>
					<path class="st12" d="M3116.3,13.1c-1.1-0.4-2.2,0.1-2.6,1.2c0,0-5.3,13.9-6.5,17c-0.2,0.6-0.2,1.3-0.2,1.3c0,0,0-0.7-0.2-1.3
						c-1.2-3.1-6.5-17-6.5-17c-0.4-1.1-1.6-1.6-2.6-1.2c-1.1,0.4-1.6,1.6-1.2,2.6c0,0,7.2,19.2,7.6,20c0.4,0.7,1.1,1.2,1.9,1.3
						c0.2,0,0.7,0.1,1,0.1s0.8,0,1-0.1c0.8-0.1,1.5-0.6,1.9-1.3c0.4-0.7,7.6-20,7.6-20C3117.8,14.6,3117.3,13.5,3116.3,13.1
						L3116.3,13.1z"/>
				</g>
			</g>
			<g>
				<g>
					<g>
						<polygon class="st4" points="1561.5,106.4 911.6,109 911.6,209.9 1561.5,207.2 						"/>
						<rect x="922.4" y="207.7" class="st5" width="623.2" height="312.3"/>
						<rect x="922.4" y="276.6" class="st4" width="623.2" height="196.5"/>
						<rect x="922.4" y="276.6" class="st4" width="623.2" height="15.4"/>
						<rect x="1077" y="503.7" class="st13" width="317.4" height="15.7"/>
						<rect x="1107" y="488" class="st13" width="254" height="15.7"/>
						<rect x="1149.3" y="473.1" class="st13" width="169.4" height="15.7"/>
						<rect x="922.4" y="121.6" class="st4" width="623.7" height="68.7"/>
						<rect x="1270.5" y="444.6" class="st14" width="275.2" height="28.5"/>
						<rect x="922.4" y="444.6" class="st14" width="273.2" height="28.5"/>
						<rect x="1270.5" y="248.1" class="st4" width="275.2" height="28.5"/>
						<rect x="922.4" y="248.1" class="st4" width="356.1" height="28.5"/>
						<rect x="922.4" y="248.1" class="st15" width="10.1" height="225"/>
						<rect x="1536.1" y="248.1" class="st15" width="10.1" height="225"/>
						<path class="st16" d="M1106.5,273.9H929.2v171.9h263.9V273.9L1106.5,273.9L1106.5,273.9z M1015.9,441.9h-82.5V277.8h82.5
							L1015.9,441.9L1015.9,441.9z M1102.5,441.9h-82.7V277.8h82.7V441.9z M1189.2,441.9h-82.7V277.8h82.7V441.9z"/>
						<path class="st16" d="M1452.1,273.9h-177.2v171.9h263.9V273.9L1452.1,273.9L1452.1,273.9z M1361.5,441.9h-82.7V277.8h82.7
							V441.9z M1448.2,441.9h-82.7V277.8h82.7V441.9z M1534.8,441.9h-82.7V277.8h82.7V441.9z"/>
						<rect x="1192.4" y="273.9" class="st16" width="82.4" height="199.2"/>
						<rect x="1202" y="285.5" class="st6" width="63.3" height="175.9"/>
						<rect x="931.5" y="128.5" class="st5" width="606.8" height="55"/>
						<g>
							<g>
								<polygon class="st17" points="1106.2,413.9 1106.2,441.9 1107.8,441.9 1126.6,413.9 								"/>
								<polygon class="st17" points="1019.8,413.9 1019.8,441.9 1022.9,441.9 1041.9,413.9 								"/>
								<polygon class="st17" points="933.4,413.9 933.4,441.9 936.6,441.9 955.4,413.9 								"/>
							</g>
							<g>
								<polygon class="st18" points="1107.8,441.9 1189.2,441.9 1189.2,413.9 1125.4,413.9 								"/>
								<polygon class="st18" points="1022,441.9 1102.6,441.9 1102.6,413.9 1040.8,413.9 								"/>
								<polygon class="st18" points="935.3,441.9 1015.9,441.9 1015.9,413.9 954.1,413.9 								"/>
							</g>
							<g>
								<polygon class="st17" points="1451.8,413.9 1451.8,441.9 1453.4,441.9 1472.2,413.9 								"/>
								<polygon class="st17" points="1365.4,413.9 1365.4,441.9 1368.5,441.9 1387.6,413.9 								"/>
								<polygon class="st17" points="1279,413.9 1279,441.9 1282.2,441.9 1301,413.9 								"/>
							</g>
							<g>
								<polygon class="st18" points="1453.4,441.9 1534.8,441.9 1534.8,413.9 1471,413.9 								"/>
								<polygon class="st18" points="1367.6,441.9 1448.2,441.9 1448.2,413.9 1386.4,413.9 								"/>
								<polygon class="st18" points="1280.9,441.9 1361.5,441.9 1361.5,413.9 1299.7,413.9 								"/>
							</g>
						</g>
						<rect x="1212" y="341" class="st16" width="43.5" height="33.9"/>
						<rect x="1212" y="341" class="st19" width="43.5" height="13.7"/>
						<g>
							<path class="st20" d="M1249.7,367.5h-31.9c-0.4,0-0.7-0.3-0.7-0.6s0.3-0.6,0.7-0.6h31.9c0.4,0,0.7,0.3,0.7,0.6
								S1250.1,367.5,1249.7,367.5z"/>
							<path class="st20" d="M1249.7,364.8h-31.9c-0.4,0-0.7-0.3-0.7-0.6s0.3-0.6,0.7-0.6h31.9c0.4,0,0.7,0.3,0.7,0.6
								S1250.1,364.8,1249.7,364.8z"/>
							<path class="st20" d="M1249.7,362h-31.9c-0.4,0-0.7-0.3-0.7-0.6s0.3-0.6,0.7-0.6h31.9c0.4,0,0.7,0.3,0.7,0.6
								S1250.1,362,1249.7,362z"/>
							<path class="st20" d="M1249.7,359.2h-31.9c-0.4,0-0.7-0.3-0.7-0.6s0.3-0.6,0.7-0.6h31.9c0.4,0,0.7,0.3,0.7,0.6
								S1250.1,359.2,1249.7,359.2z"/>
						</g>
						<g>
							<path class="st18" d="M1219,349.9v-0.6h1v0.7c0,0.4,0,0.7,0.1,0.9s0.2,0.2,0.4,0.2s0.3-0.1,0.4-0.2c0.1-0.1,0.1-0.4,0.1-0.7
								s-0.1-0.6-0.2-0.8c-0.1-0.2-0.3-0.5-0.5-0.7l-0.5-0.5c-0.2-0.3-0.4-0.5-0.6-0.8s-0.2-0.6-0.2-1c0-0.6,0.1-1,0.3-1.3
								c0.2-0.3,0.6-0.4,1.2-0.4s0.9,0.2,1.1,0.5c0.2,0.3,0.3,0.8,0.3,1.5v0.5h-1v-0.5c0-0.4,0-0.6-0.1-0.8
								c-0.1-0.1-0.2-0.2-0.3-0.2s-0.3,0.1-0.4,0.2c-0.1,0.1-0.1,0.3-0.1,0.5s0,0.4,0.1,0.5c0.1,0.1,0.2,0.3,0.4,0.5l0.6,0.6
								c0.3,0.3,0.5,0.6,0.7,1c0.2,0.3,0.2,0.7,0.2,1.1c0,0.7-0.1,1.2-0.3,1.5s-0.6,0.5-1.2,0.5s-1-0.2-1.2-0.5
								C1219.1,351.1,1219,350.6,1219,349.9L1219,349.9z"/>
							<path class="st18" d="M1226.2,351.9v-6.3h-0.8v-1h2.8v1h-0.8v6.3H1226.2L1226.2,351.9z"/>
							<path class="st18" d="M1234.5,351.5c-0.2,0.4-0.7,0.5-1.2,0.5s-1-0.2-1.2-0.5c-0.3-0.4-0.4-0.9-0.4-1.6v-3.3
								c0-1.3,0.5-2,1.6-2c0.6,0,1,0.2,1.2,0.5c0.2,0.3,0.4,0.8,0.4,1.5v3.3C1234.9,350.6,1234.7,351.2,1234.5,351.5L1234.5,351.5z
								 M1232.9,350.8c0.1,0.2,0.2,0.2,0.4,0.2s0.3-0.1,0.4-0.3c0.1-0.2,0.1-0.5,0.1-0.9v-3.4c0-0.3,0-0.6-0.1-0.8s-0.2-0.2-0.4-0.2
								s-0.3,0.1-0.4,0.2c-0.1,0.2-0.1,0.4-0.1,0.7v3.4C1232.8,350.3,1232.8,350.6,1232.9,350.8L1232.9,350.8z"/>
							<path class="st18" d="M1240.3,348.5l-0.3,0v3.4h-1.1v-7.2h1.8c0.4,0,0.7,0.1,0.8,0.2c0.2,0.1,0.3,0.4,0.4,0.6
								c0.1,0.3,0.1,0.6,0.1,1.1s-0.1,0.8-0.1,1s-0.3,0.4-0.5,0.5c0.2,0,0.4,0.2,0.5,0.5c0.1,0.3,0.2,0.9,0.2,1.8s0,1.4,0,1.5h-1.1
								c0,0,0-0.9,0-2.6c0-0.3,0-0.5-0.1-0.6C1240.7,348.6,1240.6,348.6,1240.3,348.5L1240.3,348.5z M1240,347.7h0.4
								c0.1,0,0.2,0,0.3-0.1c0.1-0.1,0.1-0.2,0.1-0.3c0-0.1,0-0.4,0-0.7c0-0.4,0-0.7-0.1-0.8s-0.2-0.2-0.5-0.2h-0.4L1240,347.7
								L1240,347.7z"/>
							<path class="st18" d="M1246,351.9v-7.2h2.4v1h-1.3v2.1h1.2v0.9h-1.2v2.3h1.4v1L1246,351.9L1246,351.9z"/>
						</g>
					</g>
					<g>
						<polygon class="st2" points="1010.9,183.5 993.9,183.5 1011.8,128.5 1028.7,128.5 						"/>
						<polygon class="st2" points="980.9,183.5 963.9,183.5 981.8,128.5 998.7,128.5 						"/>
						<polygon class="st2" points="950.9,183.5 933.9,183.5 951.8,128.5 968.7,128.5 						"/>
					</g>
					<g>
						<polygon class="st2" points="1515.9,183.5 1499,183.5 1516.8,128.5 1533.8,128.5 						"/>
						<polygon class="st2" points="1485.9,183.5 1469,183.5 1486.8,128.5 1503.8,128.5 						"/>
						<polygon class="st2" points="1455.9,183.5 1439,183.5 1456.8,128.5 1473.8,128.5 						"/>
					</g>
					<g>
						<polygon class="st21" points="1495.3,518.3 1499.1,518.1 1492.9,381.1 1489.1,381.3 						"/>
						<polygon class="st13" points="1487.6,520 1420.7,520 1433.3,376.5 1500.1,376.5 						"/>
						<polygon class="st22" points="1497.9,401.7 1431.1,401.7 1433.3,376.5 1500.1,376.5 						"/>
						<g>
							<path class="st23" d="M1448.3,398.2c-1.8,0-3.1-0.4-3.8-1.2c-0.7-0.8-1-2.1-0.8-3.9l0.2-1.8h3.9l-0.1,1.6
								c-0.1,1.1,0.2,1.7,0.8,1.7c0.3,0,0.5-0.1,0.7-0.3c0.2-0.2,0.3-0.5,0.3-0.9c0-0.5,0-0.9-0.1-1.2s-0.3-0.6-0.5-0.9
								c-0.2-0.3-0.6-0.7-1.2-1.2l-1.5-1.4c-1.2-1.2-1.8-2.5-1.7-3.9c0.1-1.6,0.7-2.8,1.5-3.5c0.9-0.8,2-1.2,3.4-1.2h0.7
								c0.4,0,0.8,0.1,1.4,0.2c0.6,0.2,1.1,0.5,1.5,0.8c0.4,0.4,0.7,0.9,0.9,1.6s0.2,1.5,0.1,2.6h-4l0.1-1.1c0-0.2-0.1-0.4-0.2-0.5
								c-0.2-0.2-0.3-0.2-0.5-0.2c-0.3,0-0.5,0.1-0.7,0.2s-0.3,0.4-0.3,0.6c-0.1,0.5,0.3,1.1,1,1.7l2.2,1.9c0.4,0.3,0.7,0.6,0.9,1
								c0.3,0.3,0.5,0.6,0.6,1c0.1,0.3,0.2,0.6,0.3,0.9c0.1,0.3,0.1,0.5,0.1,0.8c0,0.3,0,0.5,0,0.7c0,0.1,0,0.4,0,0.6
								c-0.1,0.6-0.2,1.2-0.3,1.7c-0.1,0.5-0.3,1-0.6,1.5s-0.6,0.9-0.9,1.2s-0.8,0.6-1.4,0.8C1449.6,398.1,1449,398.2,1448.3,398.2
								L1448.3,398.2z"/>
							<path class="st23" d="M1463.3,380.1l0.4,17.9h-3.8l-0.1-2.7h-2l-0.5,2.7h-3.8l3.6-17.9H1463.3L1463.3,380.1z M1460.1,383.5
								h-0.4l-1.3,8.6h1.4L1460.1,383.5z"/>
							<path class="st23" d="M1464.9,398l1.6-17.9h3.9l-1.3,14.4h4.1l-0.3,3.5L1464.9,398L1464.9,398z"/>
							<path class="st23" d="M1474,398l1.6-17.9h7.9l-0.3,3.5h-3.9l-0.3,3.5h3.7l-0.3,3.4h-3.7l-0.4,4.1h4.1l-0.3,3.5L1474,398
								L1474,398z"/>
						</g>
					</g>
					<g>
						<polygon class="st21" points="973.8,517.5 970,517.2 976.2,380.2 980,380.4 						"/>
						<polygon class="st13" points="1051,520 984.1,520 971.5,376.5 1038.4,376.5 						"/>
						<polygon class="st22" points="1040.6,401.7 973.8,401.7 971.5,376.5 1038.4,376.5 						"/>
						<g>
							<path class="st23" d="M990.2,397.8c-1.8,0-3.2-0.4-4-1.2c-0.9-0.8-1.4-2.1-1.5-3.9l-0.2-1.8h3.9l0.1,1.6
								c0.1,1.1,0.5,1.7,1.1,1.7c0.3,0,0.5-0.1,0.7-0.3c0.1-0.2,0.2-0.5,0.2-0.9c0-0.5-0.1-0.9-0.3-1.2s-0.4-0.6-0.7-0.9
								c-0.3-0.3-0.8-0.7-1.4-1.2l-1.8-1.4c-1.5-1.2-2.2-2.5-2.4-3.9c-0.1-1.6,0.2-2.8,0.9-3.5c0.7-0.8,1.8-1.2,3.2-1.2h0.7
								c0.4,0,0.8,0.1,1.4,0.2s1.1,0.5,1.6,0.8c0.5,0.4,0.9,0.9,1.2,1.6c0.3,0.7,0.5,1.5,0.6,2.6h-4l-0.1-1.1c0-0.2-0.1-0.4-0.3-0.5
								s-0.4-0.2-0.6-0.2c-0.3,0-0.5,0.1-0.6,0.2c-0.2,0.2-0.2,0.4-0.2,0.6c0,0.5,0.5,1.1,1.3,1.7l2.6,1.9c0.4,0.3,0.8,0.6,1.1,1
								c0.3,0.3,0.6,0.6,0.8,1s0.4,0.6,0.5,0.9c0.1,0.3,0.2,0.5,0.3,0.8c0.1,0.3,0.1,0.5,0.1,0.7c0,0.1,0,0.4,0.1,0.6
								c0.1,0.6,0.1,1.2,0,1.7c0,0.5-0.1,1-0.3,1.5c-0.2,0.5-0.4,0.9-0.7,1.2s-0.7,0.6-1.2,0.8C991.5,397.7,990.9,397.8,990.2,397.8
								L990.2,397.8z"/>
							<path class="st23" d="M1002,379.8l3.6,17.9h-3.8l-0.5-2.7h-2v2.7h-3.8l0.4-17.9H1002L1002,379.8z M999.3,383.1H999l0.2,8.6
								h1.4L999.3,383.1z"/>
							<path class="st23" d="M1006.8,397.6l-1.6-17.9h3.9l1.3,14.4h4l0.3,3.5L1006.8,397.6L1006.8,397.6z"/>
							<path class="st23" d="M1015.8,397.6l-1.6-17.9h7.9l0.3,3.5h-3.9l0.3,3.5h3.7l0.3,3.4h-3.7l0.4,4.1h4.1l0.3,3.5L1015.8,397.6
								L1015.8,397.6z"/>
						</g>
					</g>
				</g>
				<g>
					<g>
						<rect x="48.8" y="142.2" class="st5" width="464.7" height="360"/>
						<rect x="67.7" y="80.8" class="st5" width="426.9" height="421.3"/>
						<rect x="48.8" y="414.3" class="st24" width="464.7" height="87.8"/>
						<rect x="232.8" y="272.8" class="st5" width="96.3" height="210.3"/>
						<rect x="246.1" y="285.5" class="st2" width="70" height="128.8"/>
						<rect x="204.9" y="482.5" class="st25" width="151.1" height="19.9"/>
						<rect x="202.7" y="481.4" class="st26" width="157" height="4.5"/>
						<g>
							<g>
								<rect x="75" y="222.5" class="st5" width="125.8" height="213.9"/>
								<rect x="82.9" y="256.4" class="st27" width="108" height="171.2"/>
								<rect x="69.6" y="436.3" class="st26" width="136.6" height="11.6"/>
							</g>
							<g>
								<rect x="361.5" y="221.5" class="st5" width="125.8" height="213.9"/>
								<rect x="369.4" y="255.4" class="st27" width="108" height="171.2"/>
								<rect x="356.1" y="435.4" class="st26" width="136.6" height="11.6"/>
							</g>
						</g>
						<path class="st28" d="M88,105h384.3c2.8,0,5.1,2.3,5.1,5.1v72.7c0,2.8-2.3,5.1-5.1,5.1H88c-2.8,0-5.1-2.3-5.1-5.1v-72.7
							C82.9,107.3,85.2,105,88,105z"/>
						<path class="st4" d="M88,95.5h384.3c2.8,0,5.1,2.3,5.1,5.1v72.7c0,2.8-2.3,5.1-5.1,5.1H88c-2.8,0-5.1-2.3-5.1-5.1v-72.7
							C82.9,97.8,85.2,95.5,88,95.5z"/>
						<g>
							<path class="st29" d="M67.7,238.3V249h140.4v-10.7c0-0.4,0-0.9,0-1.3H67.8C67.7,237.4,67.7,237.9,67.7,238.3z"/>
							<path class="st29" d="M354.2,237c0,0.1,0,0.2,0,0.3v10.7h140.4v-10.7c0-0.1,0-0.2,0-0.3H354.2L354.2,237z"/>
						</g>
						<path class="st28" d="M329.1,342.2c-0.9,0-1.6-0.7-1.6-1.6v-12.7c0-0.9,0.7-1.6,1.6-1.6s1.6,0.7,1.6,1.6v12.7
							C330.7,341.4,330,342.2,329.1,342.2z"/>
						<path class="st28" d="M329.1,450.1c-0.9,0-1.6-0.7-1.6-1.6v-12.7c0-0.9,0.7-1.6,1.6-1.6s1.6,0.7,1.6,1.6v12.7
							C330.7,449.4,330,450.1,329.1,450.1z"/>
						<path class="st30" d="M447.5,357.6c-2.2-3.6-6.9-5.1-11-3.6c-1.8,0.6-3.2,1.8-4.1,3.1c0,0-2.1-4.1-5.1-9.8l3.5-6.1
							c1.4-2.6,6.1-12.3,6.9-15.1l2.5-12.4c-2.5,3.4-9.9,17-15.8,28.1c-5.9-11.1-13.2-24.7-15.8-28.1l2.5,12.4
							c0.7,2.8,5.4,12.6,6.9,15.1l3.5,6.1c-3,5.7-5.1,9.8-5.1,9.8c-1-1.4-2.4-2.5-4.1-3.1c-4.1-1.5-8.8,0-11,3.6
							c-2.7,4.3-0.9,9.8,3.8,11.9c6.3,2.9,10.7-1.6,10.9-2.2l8.5-14.9l8.5,14.9c0.1,0.6,4.6,5.2,10.9,2.2
							C448.4,367.4,450.2,361.9,447.5,357.6L447.5,357.6z M413.9,364.3c-1.3,2.6-4.7,3.6-7.4,2.4c-2.7-1.3-3.9-4.4-2.5-7
							c1.3-2.6,4.7-3.6,7.4-2.4C414.1,358.6,415.3,361.7,413.9,364.3z M442.3,366.7c-2.7,1.3-6,0.2-7.4-2.4s-0.2-5.7,2.5-7
							s6-0.2,7.4,2.4S445,365.4,442.3,366.7z"/>
						<path class="st28" d="M244.5,395.8c0,2.7-2.2,4.9-4.9,4.9s-4.9-2.2-4.9-4.9s2.2-4.9,4.9-4.9S244.5,393.1,244.5,395.8z"/>
						<rect x="246.1" y="423" class="st5" width="70" height="49.9"/>
					</g>
					<path class="st0" d="M562.3,520H0l7.7-9.2c4.5-5.4,11.1-8.5,18.1-8.5h502.6c10.5,0,20.5,4.2,27.9,11.6L562.3,520L562.3,520z"/>
				</g>
				<g>
					<g>
						<rect x="510.9" y="209.4" class="st4" width="413" height="295.8"/>
						<rect x="510.9" y="209.4" class="st5" width="413" height="19.2"/>
						<rect x="510.9" y="471.4" class="st5" width="413" height="32.4"/>
						<g>
							<path class="st4" d="M489.9,170.4H945c2.5,0,4.5,2,4.5,4.5v31.7c0,2.5-2,4.5-4.5,4.5H489.9c-2.5,0-4.5-2-4.5-4.5v-31.7
								C485.4,172.4,487.4,170.4,489.9,170.4z"/>
							<path class="st5" d="M520.4,71.1h390.1c7.4,0,13.5,6,13.5,13.5v85.9H509.8V81.6C509.8,75.8,514.5,71.1,520.4,71.1z"/>
							<rect x="550.8" y="284.6" class="st5" width="90.6" height="190"/>
							<rect x="674.6" y="261.6" class="st5" width="216.3" height="185"/>
							<rect x="684.6" y="269.7" class="st27" width="197.4" height="168.9"/>
							<polygon class="st4" points="912.6,295.7 657.2,295.7 662,284.6 676.7,253.2 890.8,253.2 							"/>
							<rect x="537.5" y="474.6" class="st4" width="119.7" height="15"/>
							<rect x="524.3" y="489.6" class="st4" width="145" height="13.8"/>
							<rect x="665.2" y="446.6" class="st4" width="234.9" height="10.1"/>
						</g>
						<g>
							<rect x="562.3" y="403.6" class="st6" width="65.9" height="40.2"/>
							<rect x="562.3" y="351" class="st6" width="65.9" height="40.2"/>
							<rect x="562.3" y="298.5" class="st6" width="65.9" height="40.2"/>
						</g>
						<g class="st31">
							<path class="st16" d="M796.9,340.7c-2.8-0.6-5.7-0.9-8.7-0.8c-3.1-0.1-6,0.2-8.8,0.8c-2.3,0.5-3.7,3.2-3,5.7
								c1.8,6.7,3.5,13.4,4.8,20.2c0.5,2.4,2.3,4.1,4.5,3.9c0.8-0.1,1.6-0.1,2.4-0.1c0.9,0,1.7,0,2.5,0.1c2.1,0.2,4-1.5,4.5-3.9
								c1.3-6.8,3-13.5,4.8-20.2C800.5,343.9,799.2,341.2,796.9,340.7L796.9,340.7z"/>
							<path class="st16" d="M821.6,358.7c-3.1-5-7.6-9.8-13.2-13.3c-2-1.2-4.5-0.1-5.2,2.4c-1.8,6.6-3.4,13.3-4.7,20.1
								c-0.4,2.1,0.6,4.1,2.4,4.8c1.7,0.7,3.4,1.5,5,2.4c1.3,0.7,2.8,0.6,3.9-0.5c3.7-3.4,7.4-6.9,11.2-10.2
								C822.4,363.1,822.7,360.6,821.6,358.7L821.6,358.7z"/>
							<path class="st16" d="M826.4,369.9c-0.5-2-2.7-2.8-4.2-1.5c-2.9,2.5-5.7,5.2-8.5,7.8c-1.3,1.2-1.3,3.6,0.1,4.8
								c3.9,3.3,7.1,6.4,9.8,5.7C826.2,386.4,828.7,379.2,826.4,369.9L826.4,369.9z"/>
							<path class="st16" d="M773.2,347.9c-0.7-2.5-3.2-3.7-5.2-2.4c-5.6,3.5-10.1,8.4-13.2,13.3c-1.1,1.8-0.8,4.4,0.7,5.7
								c3.8,3.3,7.5,6.8,11.2,10.2c1.1,1,2.6,1.2,3.9,0.5c1.6-0.9,3.3-1.7,5-2.4c1.7-0.7,2.8-2.8,2.4-4.8
								C776.6,361.2,774.9,354.5,773.2,347.9L773.2,347.9z"/>
							<path class="st16" d="M754.1,368.4c-1.5-1.3-3.6-0.5-4.2,1.5c-2.3,9.3,0.2,16.5,2.8,16.8c2.7,0.7,5.9-2.4,9.8-5.7
								c1.4-1.2,1.4-3.5,0.1-4.8C759.8,373.6,756.9,370.9,754.1,368.4L754.1,368.4z"/>
						</g>
						<path class="st4" d="M837.9,150.1H595.8c-13.8,0-25-11.2-25-25s11.2-25,25-25h242.2c13.7,0,25,11.2,25,25
							S851.7,150.1,837.9,150.1z"/>
						<g>
							<path class="st2" d="M678.3,116.6c0,3.8-1,6.1-3.1,7c2.5,0.8,3.8,3.6,3.8,8.3v0.9c0,3.5-0.6,6.1-1.8,7.6s-3.2,2.3-5.9,2.3
								h-7.8v-35.1h7.6c2.6,0,4.5,0.6,5.6,1.8c1.1,1.2,1.6,3.2,1.7,6.1L678.3,116.6L678.3,116.6z M668.9,121.8h2
								c0.9,0,1.5-0.3,1.8-0.9c0.3-0.6,0.4-1.8,0.4-3.6v-2.1c0-1.4-0.2-2.3-0.6-2.7s-1-0.7-1.8-0.7h-1.8V121.8z M668.9,138.6h1.9
								c1.1,0,1.8-0.4,2.2-1.1c0.4-0.7,0.6-2,0.6-3.9v-2.8c0-1.8-0.2-3-0.5-3.8c-0.3-0.7-1-1.1-2-1.1h-2.2L668.9,138.6L668.9,138.6z
								"/>
							<path class="st2" d="M684,142.7l5-35.1h7.1l5.3,35.1h-5l-0.8-6.3h-5.7l-0.8,6.3H684z M695,132.1l-2.3-17.6
								c-0.1,0-2.2,17.6-2.2,17.6H695L695,132.1z"/>
							<path class="st2" d="M705.9,142.7v-35.1h5.3v16.2l5.3-16.2h5.5l-5.8,17.3l6.3,17.8h-5.7l-5.6-16.4v16.4L705.9,142.7
								L705.9,142.7z"/>
							<path class="st2" d="M729.7,142.7v-35.1h11.8v4.6H735v10.2h6.1v4.5H735v11.2h6.7v4.6L729.7,142.7L729.7,142.7z"/>
							<path class="st2" d="M756.5,126.2l-1.7-0.1v16.6h-5.3v-35.1h8.8c1.8,0,3.2,0.4,4.1,1.1c0.9,0.7,1.5,1.8,1.8,3.1
								c0.3,1.3,0.4,3.1,0.4,5.2s-0.2,3.8-0.7,4.9c-0.5,1.1-1.3,1.9-2.5,2.2c1.2,0.2,2,1,2.5,2.4c0.5,1.4,0.7,4.4,0.7,8.9
								s0.1,6.9,0.2,7.2h-5.3c-0.1-0.3-0.2-4.5-0.2-12.6c0-1.6-0.2-2.6-0.6-3.1S757.7,126.2,756.5,126.2L756.5,126.2z M754.8,122
								h2.1c0.7,0,1.2-0.2,1.5-0.5s0.5-0.8,0.7-1.6c0.1-0.7,0.2-1.9,0.2-3.4v-0.2c0-1.9-0.2-3.2-0.5-3.7c-0.3-0.6-1.1-0.9-2.2-0.9
								h-1.8L754.8,122L754.8,122z"/>
							<path class="st2" d="M776.1,142.7v-14l-5.9-21.1h5.1l3.5,13.1c0.1,0,3.2-13.1,3.2-13.1h5.1l-5.6,21.1v14H776.1L776.1,142.7z"
								/>
						</g>
					</g>
					<path class="st0" d="M998.6,520H436.3l7.7-9.2c4.5-5.4,11.1-8.5,18.1-8.5h502.6c10.5,0,20.5,4.2,27.9,11.6L998.6,520L998.6,520
						z"/>
				</g>
				<g>
					<rect x="2060.3" y="68.2" class="st5" width="705.5" height="106"/>
					<rect x="2085.1" y="174.2" class="st3" width="655.4" height="328.4"/>
					<rect x="2085.1" y="246.7" class="st4" width="655.4" height="206.6"/>
					<rect x="2085.1" y="246.7" class="st32" width="655.4" height="16.2"/>
					<path class="st33" d="M2060.3,172.9l696.8,0.8L2060.3,172.9z"/>
					<rect x="2247.7" y="485.5" class="st20" width="333.7" height="16.5"/>
					<rect x="2279.2" y="469" class="st34" width="267.1" height="16.5"/>
					<rect x="2323.7" y="453.3" class="st35" width="178.1" height="16.5"/>
					<rect x="2085.1" y="83.7" class="st12" width="655.9" height="72.2"/>
					<rect x="2451.1" y="423.4" class="st4" width="289.4" height="30"/>
					<rect x="2085.1" y="423.4" class="st4" width="287.3" height="30"/>
					<rect x="2451.1" y="216.7" class="st4" width="289.4" height="29.9"/>
					<rect x="2085.1" y="216.7" class="st4" width="374.5" height="29.9"/>
					<rect x="2085.1" y="216.7" class="st15" width="10.6" height="236.6"/>
					<rect x="2730.4" y="216.7" class="st15" width="10.6" height="236.6"/>
					<path class="st16" d="M2278.6,243.8h-186.4v180.8h277.5V243.8H2278.6L2278.6,243.8z M2183.4,420.5h-86.8V247.9h86.8V420.5z
						 M2274.5,420.5h-87V247.9h87V420.5z M2365.6,420.5h-87V247.9h87V420.5z"/>
					<path class="st16" d="M2642,243.8h-186.4v180.8h277.5V243.8H2642L2642,243.8z M2546.8,420.5h-87V247.9h87V420.5z M2637.9,420.5
						h-87V247.9h87V420.5z M2729,420.5h-87V247.9h87V420.5z"/>
					<rect x="2369" y="243.8" class="st16" width="86.6" height="209.5"/>
					<rect x="2379.1" y="256.1" class="st6" width="66.6" height="185"/>
					<rect x="2092.3" y="90.9" class="st2" width="116.1" height="57.8"/>
					<rect x="2617" y="90.9" class="st2" width="116.1" height="57.8"/>
					<g>
						<g>
							<polygon class="st36" points="2278.4,391.1 2278.4,420.5 2280,420.5 2299.8,391.1 							"/>
							<polygon class="st36" points="2187.5,391.1 2187.5,420.5 2190.7,420.5 2210.8,391.1 							"/>
							<polygon class="st36" points="2096.6,391.1 2096.6,420.5 2100,420.5 2119.7,391.1 							"/>
						</g>
						<g>
							<polygon class="st37" points="2280,420.5 2365.6,420.5 2365.6,391.1 2298.5,391.1 							"/>
							<polygon class="st37" points="2189.8,420.5 2274.5,420.5 2274.5,391.1 2209.5,391.1 							"/>
							<polygon class="st37" points="2098.6,420.5 2183.4,420.5 2183.4,391.1 2118.4,391.1 							"/>
						</g>
						<g>
							<polygon class="st36" points="2641.8,391.1 2641.8,420.5 2643.4,420.5 2663.2,391.1 							"/>
							<polygon class="st36" points="2550.9,391.1 2550.9,420.5 2554.1,420.5 2574.2,391.1 							"/>
							<polygon class="st36" points="2460,391.1 2460,420.5 2463.4,420.5 2483.2,391.1 							"/>
						</g>
						<g>
							<polygon class="st37" points="2643.4,420.5 2729,420.5 2729,391.1 2662,391.1 							"/>
							<polygon class="st37" points="2553.2,420.5 2637.9,420.5 2637.9,391.1 2573,391.1 							"/>
							<polygon class="st37" points="2462,420.5 2546.8,420.5 2546.8,391.1 2481.8,391.1 							"/>
						</g>
					</g>
					<g>
						<path class="st2" d="M2308.2,127.7v-3.8h6.2v4.3c0,2.4,0.2,4.1,0.6,5c0.4,1,1.2,1.4,2.3,1.4s1.9-0.4,2.2-1.2
							c0.4-0.8,0.6-2.1,0.6-3.9s-0.3-3.4-1-4.7s-1.7-2.7-3.1-4.2l-3.2-3.3c-1.5-1.5-2.6-3.1-3.4-4.8c-0.8-1.7-1.2-3.6-1.2-5.7
							c0-3.5,0.7-6.2,2.1-7.9c1.4-1.7,3.7-2.6,7-2.6s5.6,1,6.8,3s1.8,4.9,1.8,8.8v2.7h-6v-3.1c0-2.1-0.2-3.6-0.5-4.5
							c-0.4-0.9-1-1.3-2.1-1.3s-1.7,0.3-2.2,1s-0.7,1.7-0.7,3.1s0.2,2.4,0.7,3.3c0.5,0.8,1.3,1.8,2.5,3.1l3.5,3.8
							c1.8,1.9,3.1,3.8,4,5.8c0.9,2,1.4,4.1,1.4,6.4c0,4-0.7,7-2,8.9s-3.7,2.9-7.1,2.9s-5.7-1.1-7-3.2
							C2308.9,134.9,2308.2,131.8,2308.2,127.7L2308.2,127.7z"/>
						<path class="st2" d="M2351.1,139.8v-37.2h-5v-5.7h16.3v5.7h-4.8v37.2H2351.1z"/>
						<path class="st2" d="M2400.1,137.1c-1.5,2.1-3.9,3.1-7.2,3.1s-5.7-1-7.2-3.1c-1.5-2.1-2.3-5.2-2.3-9.3v-19.6
							c0-7.8,3.2-11.8,9.6-11.8c3.3,0,5.7,1,7.1,3s2.2,4.9,2.2,8.8v19.6C2402.3,132,2401.5,135.1,2400.1,137.1L2400.1,137.1z
							 M2390.5,133.1c0.4,1,1.2,1.5,2.4,1.5s2-0.5,2.3-1.5c0.4-1,0.6-2.8,0.6-5.2v-19.9c0-2-0.2-3.5-0.6-4.4
							c-0.4-0.9-1.1-1.4-2.2-1.4s-1.9,0.5-2.3,1.4c-0.4,0.9-0.7,2.4-0.7,4.4v20C2389.9,130.4,2390.1,132.1,2390.5,133.1
							L2390.5,133.1z"/>
						<path class="st2" d="M2434.7,119.6l-2.1-0.1v20.2h-6.5V96.9h10.8c2.2,0,3.9,0.4,5,1.3s1.8,2.2,2.2,3.8
							c0.4,1.6,0.5,3.7,0.5,6.3s-0.3,4.6-0.8,5.9s-1.6,2.3-3.1,2.8c1.5,0.3,2.5,1.3,3.1,3c0.6,1.7,0.9,5.3,0.9,10.8s0.1,8.4,0.2,8.9
							h-6.5c-0.2-0.3-0.2-5.4-0.2-15.4c0-1.9-0.2-3.2-0.7-3.8C2437,120,2436.1,119.7,2434.7,119.6L2434.7,119.6z M2432.6,114.5h2.6
							c0.8,0,1.4-0.2,1.8-0.6c0.4-0.4,0.7-1,0.8-1.9c0.1-0.9,0.2-2.3,0.2-4.2v-0.3c0-2.3-0.2-3.8-0.6-4.6c-0.4-0.7-1.3-1.1-2.7-1.1
							h-2.2L2432.6,114.5L2432.6,114.5z"/>
						<path class="st2" d="M2468.5,139.8V96.9h14.4v5.6h-7.8V115h7.4v5.5h-7.4v13.6h8.1v5.6H2468.5z"/>
					</g>
					<rect x="2389.6" y="314.3" class="st16" width="45.7" height="35.7"/>
					<rect x="2389.6" y="314.3" class="st19" width="45.7" height="14.4"/>
					<g>
						<path class="st20" d="M2429.3,342.3h-33.6c-0.4,0-0.7-0.3-0.7-0.7s0.3-0.7,0.7-0.7h33.6c0.4,0,0.7,0.3,0.7,0.7
							S2429.7,342.3,2429.3,342.3z"/>
						<path class="st20" d="M2429.3,339.4h-33.6c-0.4,0-0.7-0.3-0.7-0.7s0.3-0.7,0.7-0.7h33.6c0.4,0,0.7,0.3,0.7,0.7
							S2429.7,339.4,2429.3,339.4z"/>
						<path class="st20" d="M2429.3,336.4h-33.6c-0.4,0-0.7-0.3-0.7-0.7s0.3-0.7,0.7-0.7h33.6c0.4,0,0.7,0.3,0.7,0.7
							S2429.7,336.4,2429.3,336.4z"/>
						<path class="st20" d="M2429.3,333.5h-33.6c-0.4,0-0.7-0.3-0.7-0.7s0.3-0.7,0.7-0.7h33.6c0.4,0,0.7,0.3,0.7,0.7
							S2429.7,333.5,2429.3,333.5z"/>
					</g>
					<g>
						<path class="st37" d="M2396.9,323.7v-0.7h1.1v0.8c0,0.4,0,0.7,0.1,0.9s0.2,0.3,0.4,0.3s0.3-0.1,0.4-0.2
							c0.1-0.1,0.1-0.4,0.1-0.7s-0.1-0.6-0.2-0.8c-0.1-0.2-0.3-0.5-0.6-0.8l-0.6-0.6c-0.3-0.3-0.5-0.6-0.6-0.9
							c-0.1-0.3-0.2-0.6-0.2-1c0-0.6,0.1-1.1,0.4-1.4c0.2-0.3,0.7-0.5,1.2-0.5s1,0.2,1.2,0.5s0.3,0.9,0.3,1.5v0.5h-1.1v-0.5
							c0-0.4,0-0.6-0.1-0.8c-0.1-0.2-0.2-0.2-0.4-0.2s-0.3,0.1-0.4,0.2c-0.1,0.1-0.1,0.3-0.1,0.5s0,0.4,0.1,0.6
							c0.1,0.1,0.2,0.3,0.4,0.5l0.6,0.7c0.3,0.3,0.6,0.7,0.7,1s0.2,0.7,0.2,1.1c0,0.7-0.1,1.2-0.4,1.6c-0.2,0.3-0.7,0.5-1.2,0.5
							s-1-0.2-1.2-0.6C2397.1,325,2396.9,324.5,2396.9,323.7L2396.9,323.7z"/>
						<path class="st37" d="M2404.6,325.9v-6.6h-0.9v-1h2.9v1h-0.9v6.6H2404.6L2404.6,325.9z"/>
						<path class="st37" d="M2413.2,325.4c-0.3,0.4-0.7,0.5-1.3,0.5s-1-0.2-1.3-0.5s-0.4-0.9-0.4-1.7v-3.5c0-1.4,0.6-2.1,1.7-2.1
							c0.6,0,1,0.2,1.3,0.5c0.2,0.4,0.4,0.9,0.4,1.5v3.5C2413.6,324.5,2413.5,325,2413.2,325.4L2413.2,325.4z M2411.5,324.7
							c0.1,0.2,0.2,0.3,0.4,0.3s0.4-0.1,0.4-0.3c0.1-0.2,0.1-0.5,0.1-0.9v-3.5c0-0.4,0-0.6-0.1-0.8c-0.1-0.2-0.2-0.2-0.4-0.2
							s-0.3,0.1-0.4,0.2c-0.1,0.2-0.1,0.4-0.1,0.8v3.5C2411.4,324.2,2411.5,324.5,2411.5,324.7L2411.5,324.7z"/>
						<path class="st37" d="M2419.4,322.3l-0.4,0v3.6h-1.2v-7.6h1.9c0.4,0,0.7,0.1,0.9,0.2c0.2,0.2,0.3,0.4,0.4,0.7
							c0.1,0.3,0.1,0.7,0.1,1.1s-0.1,0.8-0.1,1.1c-0.1,0.2-0.3,0.4-0.5,0.5c0.3,0,0.4,0.2,0.6,0.5c0.1,0.3,0.2,1,0.2,1.9
							s0,1.5,0,1.6h-1.2c0-0.1,0-1,0-2.7c0-0.3,0-0.6-0.1-0.7C2419.8,322.4,2419.6,322.3,2419.4,322.3L2419.4,322.3z M2419,321.4
							h0.5c0.1,0,0.3,0,0.3-0.1c0.1-0.1,0.1-0.2,0.1-0.3c0-0.2,0-0.4,0-0.7c0-0.5,0-0.7-0.1-0.9c-0.1-0.1-0.2-0.2-0.5-0.2h-0.4
							L2419,321.4L2419,321.4z"/>
						<path class="st37" d="M2425.4,325.9v-7.6h2.6v1h-1.4v2.2h1.3v1h-1.3v2.4h1.4v1H2425.4z"/>
					</g>
					<path class="st0" d="M2811.8,520h-797.4l10.9-9.2c6.3-5.4,15.8-8.5,25.7-8.5h712.8c14.8,0,29.1,4.2,39.5,11.6L2811.8,520
						L2811.8,520z"/>
				</g>
				<g>
					<g>
						<polygon class="st4" points="2077.6,499.4 1561,498.6 1561.2,96 2077.6,94.9 						"/>
						<polygon class="st4" points="2097.7,509.2 1537.7,509.2 1537.7,422.8 2097.9,422.8 						"/>
						<polygon class="st5" points="2097.7,214.2 1544.7,214.8 1544.7,164.1 2097.7,163.6 						"/>
						<path class="st4" d="M1719.1,86.8h208.3c8.8,0,15.9,7.1,15.9,15.9v85.1c0,8.8-7.1,15.9-15.9,15.9h-208.3
							c-8.8,0-15.9-7.1-15.9-15.9v-85.1C1703.1,93.9,1710.3,86.8,1719.1,86.8z"/>
						<path class="st5" d="M1737,101.4h172.9c1.9,0,3.4,1.5,3.4,3.4v76c0,1.9-1.5,3.4-3.4,3.4H1737c-1.9,0-3.4-1.5-3.4-3.4v-76
							C1733.6,102.9,1735.1,101.4,1737,101.4z"/>
						<g>
							<g>
								<rect x="1652.7" y="388.3" class="st27" width="68.9" height="71.5"/>
								<rect x="1580.2" y="309.1" class="st27" width="65.3" height="71.5"/>
								<rect x="1580.2" y="229.9" class="st27" width="65.3" height="71.5"/>
								<rect x="1580.2" y="388.3" class="st27" width="65.3" height="71.5"/>
								<rect x="1652.7" y="309.1" class="st27" width="68.9" height="71.5"/>
								<rect x="1652.7" y="229.9" class="st27" width="68.9" height="71.5"/>
								<path class="st38" d="M1573.1,222.1v245.5h155.6V222.1L1573.1,222.1L1573.1,222.1z M1645.5,459.8h-65.3v-71.5h65.3V459.8z
									 M1645.5,380.6h-65.3v-71.5h65.3V380.6z M1645.5,301.4h-65.3v-71.5h65.3V301.4z M1721.5,459.8h-68.9v-71.5h68.9V459.8z
									 M1721.5,380.6h-68.9v-71.5h68.9V380.6z M1721.5,301.4h-68.9v-71.5h68.9V301.4z"/>
							</g>
							<g>
								<rect x="1988.6" y="388.3" class="st27" width="68.9" height="71.5"/>
								<rect x="1916.1" y="309.1" class="st27" width="65.3" height="71.5"/>
								<rect x="1916.1" y="229.9" class="st27" width="65.3" height="71.5"/>
								<rect x="1916.1" y="388.3" class="st27" width="65.3" height="71.5"/>
								<rect x="1988.6" y="309.1" class="st27" width="68.9" height="71.5"/>
								<rect x="1988.6" y="229.9" class="st27" width="68.9" height="71.5"/>
								<path class="st38" d="M1909,222.1v245.5h155.6V222.1L1909,222.1L1909,222.1z M1981.4,459.8h-65.3v-71.5h65.3V459.8z
									 M1981.4,380.6h-65.3v-71.5h65.3V380.6z M1981.4,301.4h-65.3v-71.5h65.3V301.4z M2057.4,459.8h-68.9v-71.5h68.9V459.8z
									 M2057.4,380.6h-68.9v-71.5h68.9V380.6z M2057.4,301.4h-68.9v-71.5h68.9V301.4z"/>
							</g>
						</g>
						<polygon class="st39" points="1855.3,344 1792.5,420.2 1855.3,420.2 						"/>
						<g>
							<path class="st2" d="M1757.6,174.5v-31.8h9.5c2.5,0,4.3,0.6,5.5,1.6c1.2,1.1,1.8,3,1.8,5.6v1.4c0,0.2,0,0.6-0.1,1.1
								c-0.1,0.5-0.1,0.9-0.2,1.1c-0.1,0.3-0.2,0.6-0.4,1c-0.2,0.4-0.4,0.7-0.6,1c-0.2,0.2-0.6,0.5-0.9,0.7
								c-0.4,0.2-0.8,0.4-1.3,0.5c0.7,0.2,1.4,0.5,1.9,0.9c0.5,0.4,0.9,0.9,1.2,1.4c0.3,0.5,0.5,1.1,0.6,1.8s0.2,1.3,0.3,1.7
								s0,1,0,1.7c0,1.7-0.1,3.1-0.3,4.3s-0.6,2.3-1.2,3.2s-1.4,1.6-2.4,2.1c-1,0.5-2.3,0.7-3.8,0.7L1757.6,174.5L1757.6,174.5z
								 M1764.4,154.7h1.4c0.3,0,0.6-0.1,0.8-0.2c0.2-0.1,0.4-0.4,0.5-0.6c0.1-0.3,0.2-0.5,0.2-0.7s0-0.5,0-0.8v-3.1
								c0-1-0.5-1.5-1.5-1.5h-1.5L1764.4,154.7L1764.4,154.7z M1764.4,159.7v9.2c0.3,0,0.6,0,0.7,0c1.8,0,2.7-0.8,2.7-2.4v-4
								c0-1-0.2-1.8-0.5-2.2s-0.9-0.7-1.6-0.7L1764.4,159.7L1764.4,159.7z"/>
							<path class="st2" d="M1786.4,166v-15.1c0-2.6,0.7-4.7,2.1-6.1c1.4-1.5,3.6-2.2,6.4-2.2c2.9,0,5.1,0.8,6.6,2.2
								c1.4,1.5,2.1,3.5,2.1,6.1V166c0,1.3-0.2,2.5-0.5,3.5s-0.8,2-1.5,2.8c-0.7,0.8-1.6,1.5-2.7,1.9c-1.1,0.4-2.4,0.7-3.9,0.6
								c-1.6,0-2.9-0.2-4-0.6s-2-1.1-2.7-1.9c-0.7-0.8-1.2-1.8-1.5-2.8C1786.6,168.4,1786.4,167.3,1786.4,166L1786.4,166z
								 M1795.1,168.6c0.2,0,0.5-0.1,0.7-0.1c0.2-0.1,0.3-0.2,0.5-0.5s0.2-0.4,0.3-0.6c0.1-0.2,0.1-0.4,0.1-0.8c0-0.3,0-0.6,0.1-0.7
								c0-0.2,0-0.4,0-0.7v-12.9c0-0.1,0-0.2,0-0.5c0-0.2,0-0.4,0-0.5s0-0.3,0-0.5s0-0.4-0.1-0.5c0-0.1-0.1-0.3-0.1-0.5
								c0-0.2-0.1-0.3-0.2-0.4s-0.2-0.2-0.3-0.3s-0.2-0.2-0.4-0.2s-0.3-0.1-0.5-0.1c-0.3,0-0.5,0.1-0.7,0.1s-0.4,0.2-0.5,0.4
								c-0.1,0.2-0.2,0.4-0.3,0.6c-0.1,0.2-0.1,0.4-0.2,0.7s0,0.6,0,0.7V165c0,0.3,0,0.5,0,0.7c0,0.2,0,0.4,0.1,0.8s0.1,0.6,0.2,0.8
								c0.1,0.2,0.2,0.4,0.3,0.6s0.3,0.4,0.5,0.5C1794.6,168.5,1794.8,168.6,1795.1,168.6L1795.1,168.6z"/>
							<path class="st2" d="M1816,166v-15.1c0-2.6,0.7-4.7,2.1-6.1c1.4-1.5,3.6-2.2,6.4-2.2c2.9,0,5.1,0.8,6.6,2.2
								c1.4,1.5,2.1,3.5,2.1,6.1V166c0,1.3-0.2,2.5-0.5,3.5s-0.8,2-1.5,2.8c-0.7,0.8-1.6,1.5-2.7,1.9c-1.1,0.4-2.4,0.7-3.9,0.6
								c-1.6,0-2.9-0.2-4-0.6s-2-1.1-2.7-1.9c-0.7-0.8-1.2-1.8-1.5-2.8C1816.1,168.4,1815.9,167.3,1816,166L1816,166z M1824.6,168.6
								c0.2,0,0.5-0.1,0.7-0.1c0.2-0.1,0.3-0.2,0.5-0.5s0.2-0.4,0.3-0.6c0.1-0.2,0.1-0.4,0.1-0.8c0-0.3,0-0.6,0.1-0.7
								c0-0.2,0-0.4,0-0.7v-12.9c0-0.1,0-0.2,0-0.5c0-0.2,0-0.4,0-0.5s0-0.3,0-0.5s0-0.4-0.1-0.5c0-0.1-0.1-0.3-0.1-0.5
								c0-0.2-0.1-0.3-0.2-0.4s-0.2-0.2-0.3-0.3s-0.2-0.2-0.4-0.2s-0.3-0.1-0.5-0.1c-0.3,0-0.5,0.1-0.7,0.1s-0.4,0.2-0.5,0.4
								c-0.1,0.2-0.2,0.4-0.3,0.6c-0.1,0.2-0.1,0.4-0.2,0.7s0,0.6,0,0.7V165c0,0.3,0,0.5,0,0.7c0,0.2,0,0.4,0.1,0.8s0.1,0.6,0.2,0.8
								c0.1,0.2,0.2,0.4,0.3,0.6s0.3,0.4,0.5,0.5C1824.1,168.5,1824.3,168.6,1824.6,168.6L1824.6,168.6z"/>
							<path class="st2" d="M1856.1,142.8h7.1l-3.9,14.5l4.7,17.2h-7.3l-3.8-15.4v15.4h-7v-31.8h6.9v12.7L1856.1,142.8L1856.1,142.8
								z"/>
							<path class="st2" d="M1883.3,174.9c-3.3,0-5.6-0.7-7-2.2c-1.4-1.5-2.1-3.8-2.1-6.9v-3.1h6.9v2.9c0,2.1,0.6,3.1,1.7,3.1
								c0.5,0,0.9-0.2,1.2-0.6c0.3-0.4,0.4-0.9,0.4-1.6c0-0.9-0.1-1.6-0.3-2.2c-0.2-0.6-0.6-1.1-1.1-1.7c-0.5-0.5-1.2-1.2-2.3-2.2
								l-3-2.6c-2.4-2.1-3.6-4.4-3.6-7c0-2.8,0.7-4.9,2.2-6.3c1.4-1.4,3.4-2.1,5.9-2.1h1.2c0.7,0,1.5,0.1,2.5,0.4s1.9,0.8,2.7,1.5
								c0.8,0.7,1.4,1.7,1.8,2.9s0.6,2.8,0.6,4.6h-7.1l0-1.9c0-0.4-0.2-0.7-0.5-1c-0.3-0.3-0.6-0.4-1-0.4c-0.5,0-0.9,0.1-1.2,0.4
								s-0.5,0.6-0.5,1.1c0,0.9,0.7,1.9,2,2.9l4.2,3.4c0.7,0.6,1.3,1.1,1.8,1.7c0.5,0.6,0.9,1.1,1.2,1.7c0.3,0.6,0.5,1.1,0.7,1.5
								c0.2,0.5,0.3,1,0.4,1.5c0.1,0.5,0.1,0.9,0.1,1.2c0,0.3,0,0.6,0,1.1c0,1.1-0.1,2.1-0.2,3c-0.2,0.9-0.4,1.8-0.8,2.6
								c-0.4,0.9-0.9,1.6-1.5,2.1c-0.6,0.6-1.4,1-2.4,1.4C1885.7,174.7,1884.6,174.9,1883.3,174.9L1883.3,174.9z"/>
						</g>
						<g>
							<rect x="1740.4" y="472.4" class="st5" width="160.2" height="13.1"/>
							<rect x="1720.3" y="490.2" class="st5" width="199.3" height="20.2"/>
							<rect x="1737.2" y="467.6" class="st26" width="166.4" height="4.8"/>
							<rect x="1717.2" y="485.5" class="st26" width="206.2" height="4.8"/>
							<g>
								<rect x="1772.2" y="257.3" class="st38" width="96.3" height="210.3"/>
								<rect x="1785.5" y="270" class="st27" width="70" height="128.8"/>
								<rect x="1785.5" y="407.5" class="st27" width="70" height="49.9"/>
							</g>
						</g>
						<g>
							<g>
								<path class="st2" d="M1817.4,137.1c-6.9,0-11.2-4.8-11.2-12.4s4.3-12.4,11.2-12.4s11.2,4.8,11.2,12.4
									S1824.3,137.1,1817.4,137.1z M1817.4,116.3c-6.2,0-7.2,5.2-7.2,8.4s0.9,8.4,7.2,8.4s7.2-5.2,7.2-8.4
									S1823.6,116.3,1817.4,116.3z"/>
								<path class="st2" d="M1843.4,137.1c-6.9,0-11.2-4.8-11.2-12.4s4.3-12.4,11.2-12.4s11.2,4.8,11.2,12.4
									S1850.3,137.1,1843.4,137.1z M1843.4,116.3c-6.2,0-7.2,5.2-7.2,8.4s0.9,8.4,7.2,8.4s7.2-5.2,7.2-8.4
									S1849.6,116.3,1843.4,116.3z"/>
							</g>
							<path class="st2" d="M1803.6,134.3c0,0-3.3-19-3.6-20c-0.3-1-1.1-1.6-2-1.7c-0.9-0.1-1.9-0.1-2.8,0c-0.9,0.1-1.6,0.7-1.9,1.4
								c-0.3,0.6-3,10-4,13.3c-0.3,1.1-0.3,2.8-0.3,2.8s0-1.7-0.3-2.8c-0.9-3.2-3.7-12.7-4-13.3c-0.3-0.8-1.1-1.3-1.9-1.4
								c-0.8-0.1-1.8-0.1-2.8,0s-1.7,0.7-2,1.7c-0.3,0.9-3.6,20-3.6,20c-0.2,1.1,0.5,2.2,1.6,2.4c1.1,0.2,2.2-0.5,2.4-1.6
								c0,0,2.7-15.1,2.9-16.2c0.2-1.1,0.1-2.3,0.1-2.3s0.1,1.1,0.4,2.2c4.7,15.9,4.7,15.8,4.9,16.5c0.3,0.8,1.1,1.4,1.9,1.4
								c0.1,0,0.2,0,0.3,0c0.1,0,0.2,0,0.3,0c0.8-0.1,1.7-0.7,1.9-1.4c0.2-0.6,0.2-0.6,4.9-16.5c0.3-1.1,0.4-2.2,0.4-2.2
								s-0.1,1.2,0.1,2.3c0.2,1.1,2.9,16.2,2.9,16.2c0.2,1.1,1.3,1.8,2.4,1.6S1803.8,135.4,1803.6,134.3L1803.6,134.3z"/>
							<path class="st2" d="M1876,112.7c-1.1-0.4-2.2,0.1-2.6,1.2c0,0-5.3,13.9-6.5,17c-0.2,0.6-0.2,1.3-0.2,1.3c0,0,0-0.7-0.2-1.3
								c-1.2-3.1-6.5-17-6.5-17c-0.4-1.1-1.6-1.6-2.6-1.2s-1.6,1.6-1.2,2.6c0,0,7.2,19.2,7.6,19.9c0.4,0.7,1.1,1.2,1.9,1.3
								c0.2,0,0.7,0.1,1,0.1s0.8,0,1-0.1c0.8-0.1,1.5-0.6,1.9-1.3c0.3-0.7,7.6-19.9,7.6-19.9C1877.6,114.2,1877,113.1,1876,112.7
								L1876,112.7z"/>
						</g>
					</g>
					<circle class="st27" cx="1778.6" cy="394.8" r="4.1"/>
					<path class="st0" d="M2191.2,520h-746.8l10.2-9.2c5.9-5.4,14.8-8.5,24-8.5h667.5c13.9,0,27.2,4.2,37,11.6L2191.2,520
						L2191.2,520z"/>
				</g>
			</g>
		</g>
		<g>
			<rect x="49.7" y="504.3" class="st5" width="6436.8" height="84.5"/>
			<path class="st41" d="M48.8,588.8v-85h6437.7v85H48.8z M50.6,588.3h6435.9v-84H50.6L50.6,588.3L50.6,588.3z"/>
		</g>
		<g>
			<g>
				<path class="st2" d="M3678.5,107.8h4.8c2,0,3.4,0.5,4.1,1.4s1.1,2.4,1.1,4.6v0.6c0,1.6-0.1,2.8-0.4,3.7s-0.8,1.6-1.6,1.9
					c1.6,0.7,2.4,2.8,2.4,6.4v0.6c0,2.7-0.4,4.6-1.2,5.7s-2.1,1.7-4,1.7h-5.2L3678.5,107.8L3678.5,107.8z M3685.4,113.8
					c0-1.9-0.3-2.9-0.9-3.2c-0.3-0.2-0.7-0.2-1.3-0.2h-1.5v8.6h1.8c0.6,0,1-0.1,1.3-0.3c0.3-0.2,0.4-0.6,0.6-1.2s0.2-1.5,0.2-2.9
					C3685.4,114.6,3685.4,113.8,3685.4,113.8z M3685.8,125.9c0-1.7-0.1-2.9-0.4-3.6c-0.3-0.7-0.8-1-1.7-1h-2.1v10.6h1.9
					c0.9,0,1.5-0.4,1.8-1c0.3-0.7,0.5-2,0.5-4C3685.8,126.9,3685.8,126,3685.8,125.9z"/>
				<path class="st2" d="M3703.1,107.8h3.8l4.4,26.6h-2.9l-0.8-5.1h-4.8l-0.7,5.1h-3C3699.1,134.4,3703.1,107.8,3703.1,107.8z
					 M3703.1,126.8h4.1l-2.1-14.1L3703.1,126.8z"/>
				<path class="st2" d="M3722.1,107.8h5.6c1.6,0,2.7,0.3,3.4,1c0.7,0.7,1.1,1.8,1.2,3.3c0.1,0.7,0.1,1.7,0.1,3s-0.2,2.5-0.5,3.4
					s-1,1.5-1.9,1.8c0.7,0.1,1.2,0.5,1.5,1.1c0.3,0.6,0.6,1.5,0.7,2.8s0.2,3.2,0.2,5.7s0.1,4,0.2,4.4h-3.1c-0.2-0.3-0.2-3.3-0.2-9
					c0-1.9-0.2-3-0.6-3.3s-0.9-0.5-1.7-0.5l-1.9-0.1v12.8h-3.1V107.8L3722.1,107.8z M3729.3,114.3c0-2.1-0.2-3.2-0.6-3.6
					s-0.9-0.5-1.6-0.5h-2v9h2c0.6,0,1.1-0.1,1.3-0.3c0.3-0.2,0.5-0.7,0.6-1.3c0.1-0.7,0.2-1.7,0.2-3.1V114.3L3729.3,114.3z"/>
				<path class="st2" d="M3744.3,107.8h4.8c2,0,3.4,0.5,4.1,1.4s1.1,2.4,1.1,4.6v0.6c0,1.6-0.1,2.8-0.4,3.7s-0.8,1.6-1.6,1.9
					c1.6,0.7,2.4,2.8,2.4,6.4v0.6c0,2.7-0.4,4.6-1.2,5.7s-2.1,1.7-4,1.7h-5.2L3744.3,107.8L3744.3,107.8z M3751.2,113.8
					c0-1.9-0.3-2.9-0.9-3.2c-0.3-0.2-0.7-0.2-1.3-0.2h-1.5v8.6h1.8c0.6,0,1-0.1,1.3-0.3c0.3-0.2,0.4-0.6,0.6-1.2s0.2-1.5,0.2-2.9
					C3751.2,114.6,3751.2,113.8,3751.2,113.8z M3751.6,125.9c0-1.7-0.1-2.9-0.4-3.6c-0.3-0.7-0.8-1-1.7-1h-2.1v10.6h1.9
					c0.9,0,1.5-0.4,1.8-1c0.3-0.7,0.5-2,0.5-4C3751.6,126.9,3751.6,126,3751.6,125.9z"/>
				<path class="st2" d="M3766.1,107.8h7.9v2.6h-4.8v9.1h4.6v2.6h-4.6v9.7h4.9v2.6h-8L3766.1,107.8L3766.1,107.8z"/>
				<path class="st2" d="M3785.3,107.8h5.6c1.6,0,2.7,0.3,3.4,1c0.7,0.7,1.1,1.8,1.2,3.3c0.1,0.7,0.1,1.7,0.1,3s-0.2,2.5-0.5,3.4
					s-1,1.5-1.9,1.8c0.7,0.1,1.2,0.5,1.5,1.1c0.3,0.6,0.6,1.5,0.7,2.8s0.2,3.2,0.2,5.7s0.1,4,0.2,4.4h-3.1c-0.2-0.3-0.2-3.3-0.2-9
					c0-1.9-0.2-3-0.6-3.3s-0.9-0.5-1.7-0.5l-1.9-0.1v12.8h-3.1V107.8L3785.3,107.8z M3792.6,114.3c0-2.1-0.2-3.2-0.6-3.6
					s-0.9-0.5-1.6-0.5h-2v9h2c0.6,0,1.1-0.1,1.3-0.3c0.3-0.2,0.5-0.7,0.6-1.3c0.1-0.7,0.2-1.7,0.2-3.1V114.3L3792.6,114.3z"/>
				<g>
					<path class="st2" d="M3678.8,150.6c-0.2-0.6-0.3-1.4-0.3-2.3c0-1.9,0.4-3.4,1.1-4.6c0.7-1.1,2.1-1.7,4.1-1.7
						c2.6,0,4.1,1.2,4.6,3.7c0.2,1.1,0.3,2.4,0.3,4v1.6h-3v-1.8c0-1.7-0.1-2.8-0.3-3.4c-0.2-0.6-0.4-1-0.6-1.2s-0.6-0.3-1-0.3
						c-0.8,0-1.3,0.3-1.6,0.8c-0.3,0.6-0.5,1.4-0.5,2.5s0.1,1.9,0.4,2.4c0.3,0.5,0.7,1,1.1,1.4c0.4,0.5,0.7,0.7,0.7,0.8l1.8,1.9
						c2.2,2.3,3.3,4.8,3.3,7.6c0,2.3-0.4,4.1-1.1,5.3c-0.7,1.2-2.1,1.8-4.1,1.8c-2.4,0-3.9-1.1-4.6-3.2c-0.4-1.2-0.6-2.8-0.6-4.7
						v-2.7h3v2.7c0,1.9,0.1,3.3,0.4,4.1s0.8,1.1,1.6,1.1s1.3-0.2,1.6-0.5s0.5-0.9,0.5-1.6s0.1-1.6,0.1-2.5c0-1.9-0.8-3.6-2.4-5.2
						l-1.7-1.7C3680.1,153.4,3679.2,152,3678.8,150.6L3678.8,150.6z"/>
					<path class="st2" d="M3707.3,142.4h3.1V169h-3.1v-12.9h-4.3V169h-3.1v-26.6h3.1v11.2h4.3V142.4z"/>
					<path class="st2" d="M3722.1,149.6c0-3,0.5-5.1,1.6-6.2c0.9-0.9,2.1-1.3,3.7-1.3c2.4,0,3.9,1,4.6,2.9c0.4,1.2,0.6,2.7,0.6,4.6
						v11.7c0,2.8-0.4,4.8-1.2,6.1c-0.8,1.3-2.1,1.9-4.1,1.9s-3.3-0.6-4.1-1.9c-0.8-1.3-1.2-3.3-1.2-6.1L3722.1,149.6L3722.1,149.6z
						 M3729.5,149.4c0-1.7-0.1-2.9-0.4-3.6c-0.3-0.7-0.8-1.1-1.6-1.1s-1.4,0.4-1.7,1.1s-0.5,1.9-0.5,3.6v12c0,2,0.1,3.4,0.4,4.1
						c0.3,0.7,0.9,1.1,1.7,1.1s1.4-0.4,1.7-1.1s0.4-2.1,0.4-4.1L3729.5,149.4L3729.5,149.4z"/>
					<path class="st2" d="M3744.2,142.4h5.4c2.4,0,3.8,1,4.4,2.9c0.4,1.2,0.6,2.7,0.6,4.3s-0.1,2.9-0.1,3.7c-0.2,1.8-0.7,3.1-1.4,4
						c-0.8,0.8-1.9,1.2-3.4,1.2h-2.2V169h-3.1L3744.2,142.4L3744.2,142.4z M3751.5,149.9c0-1.8-0.1-3.1-0.4-3.9
						c-0.3-0.8-0.9-1.1-1.7-1.1h-2v11.1h1.9c0.9,0,1.5-0.4,1.8-1.2c0.3-0.8,0.4-2.2,0.4-4.4V149.9L3751.5,149.9z"/>
				</g>
			</g>
			<g>
				<g>
					<path class="st2" d="M3530.4,160.8c-12.9,0-20.9-8.9-20.9-23.2s8-23.2,20.9-23.2s20.9,8.9,20.9,23.2S3543.3,160.8,3530.4,160.8
						z M3530.4,122.1c-11.6,0-13.3,9.8-13.3,15.6s1.7,15.6,13.3,15.6s13.3-9.8,13.3-15.6S3542,122.1,3530.4,122.1z"/>
					<path class="st2" d="M3578.9,160.8c-12.9,0-20.9-8.9-20.9-23.2s8-23.2,20.9-23.2s20.9,8.9,20.9,23.2S3591.8,160.8,3578.9,160.8
						z M3578.9,122.1c-11.6,0-13.3,9.8-13.3,15.6s1.7,15.6,13.3,15.6s13.3-9.8,13.3-15.6S3590.4,122.1,3578.9,122.1z"/>
				</g>
				<path class="st2" d="M3504.7,155.6c0,0-6.2-35.4-6.7-37.2c-0.5-1.8-2-2.9-3.7-3.1c-1.8-0.2-3.6-0.2-5.1,0
					c-1.7,0.2-3,1.3-3.6,2.7c-0.5,1.2-5.7,18.7-7.4,24.8c-0.6,2-0.6,5.3-0.6,5.3s0-3.2-0.6-5.3c-1.8-6.1-6.9-23.6-7.4-24.8
					c-0.6-1.4-2-2.5-3.6-2.7c-1.6-0.2-3.4-0.2-5.1,0c-1.8,0.2-3.2,1.3-3.7,3.1c-0.5,1.8-6.7,37.2-6.7,37.2c-0.4,2.1,1,4,3.1,4.4
					s4-1,4.4-3.1c0,0,5.1-28.1,5.4-30.2c0.4-2,0.2-4.2,0.2-4.2s0.1,2.1,0.7,4.2c8.7,29.6,8.8,29.5,9.2,30.6c0.6,1.4,2.1,2.6,3.6,2.7
					c0.2,0,0.3,0,0.5,0c0.2,0,0.4,0,0.5,0c1.6-0.1,3.1-1.3,3.6-2.7c0.4-1.1,0.5-1.1,9.2-30.7c0.6-2,0.7-4.2,0.7-4.2
					s-0.1,2.2,0.2,4.2c0.4,2,5.4,30.2,5.4,30.2c0.4,2.1,2.4,3.4,4.4,3.1C3503.7,159.6,3505,157.6,3504.7,155.6L3504.7,155.6z"/>
				<path class="st2" d="M3639.5,115.3c-2-0.8-4.1,0.2-4.9,2.2c0,0-9.9,25.9-12.1,31.6c-0.4,1.2-0.4,2.4-0.4,2.5
					c0-0.1,0-1.3-0.4-2.5c-2.1-5.8-12.1-31.6-12.1-31.6c-0.7-2-2.9-2.9-4.9-2.2c-2,0.8-2.9,2.9-2.2,4.9c0,0,13.5,35.8,14.2,37.2
					c0.7,1.4,2.1,2.3,3.6,2.4c0.3,0,1.3,0.1,1.9,0.1s1.5-0.1,1.9-0.1c1.4-0.2,2.9-1.1,3.5-2.4c0.6-1.4,14.2-37.2,14.2-37.2
					C3642.5,118.2,3641.5,116,3639.5,115.3L3639.5,115.3z"/>
			</g>
		</g>
	</g>
</g>
</svg>
