<svg width="6291" height="596" viewBox="0 0 6291 596" fill="none" xmlns="http://www.w3.org/2000/svg">
<path d="M6176 148C6188.75 82.4105 6217.5 0.5 6290.5 0.5V595H0C0 521 565.6 499 956 499C1444 499 1593 333.667 1857 363C2037 383 2248 291 2380 271C2512 251 2534 345 2674 345C2814 345 2902 281 3042 205C3244.68 94.9753 3429.64 331.778 3620 413C3770 477 3910 394 4076 408C4266.32 424.051 4310.88 508.356 4446 557C4546 593 4960 605 5182 477C5430.08 333.966 5581.96 488.686 5756 513C5892 532 5818 344 5870 280C5922 216 5979.82 377.274 6049 359C6102 345 6162 220 6176 148Z" fill="#1EB6DF"/>
<path d="M6163 264C6207 164 6211 24 6291 12V596H1251C1340.33 528 1566.2 392 1755 392C1991 392 2215 340 2327 264C2439 188 2415 392 2647 340C2879 288 2977.11 186.665 3027 160C3056 144.5 3163 116 3251 264C3339 412 3559 316 3651 340C3743 364 3731 440 3767 464C3803 488 3811 400 3887 392C3963 384 4391 560 4591 560C4791 560 4971 512 5147 440C5323 368 5503 508 5595 512C5687 516 5775 464 5843 364C5911 264 5947 264 6003 340C6059 416 6119 364 6163 264Z" fill="#060D33"/>
</svg>
