<?xml version="1.0" encoding="UTF-8"?><svg id="Layer_2" xmlns="http://www.w3.org/2000/svg" viewBox="0 0 345.07 283.6"><defs><style>.cls-1{fill:#fff;}</style></defs><g id="_ÎÓÈ_1"><g><rect class="cls-1" x="35.53" y="237.16" width="274.08" height="3.78"/><g><path class="cls-1" d="m177.49,79.64c-1.27.28-2.26.14-2.99-.46-.94-.77-1.57-2.32-1.71-4.26h.14c1.44-1.19,3.43-2.99,3.76-3.76.84-2.18-.84-3.2-2.46-3.48-.93-.14-1.84-.21-2.79-.21-.95,0-1.86.07-2.77.21-1.6.32-3.31,1.3-2.47,3.48.28.81,2.33,2.56,3.76,3.76h.16c-.19,1.93-.78,3.51-1.73,4.25-.75.6-1.72.74-3,.46-.69-.15-1.37.28-1.51.95-.14.67.29,1.37.96,1.51.63.14,1.18.21,1.68.21,1.62,0,2.72-.56,3.45-1.16.64-.49,1.09-1.09,1.49-1.76.38.67.83,1.27,1.46,1.76.7.56,1.83,1.16,3.46,1.16.53,0,1.09-.07,1.68-.21.67-.14,1.12-.84.96-1.51-.14-.67-.85-1.12-1.52-.95h0Z"/><path class="cls-1" d="m196.98,63.71c-.36-1.12-.7-2.85-2.39-6.79-4.36-10.13-12.53-16.21-23.17-16.21-10.66,0-18.82,6.08-23.17,16.21-1.69,3.94-2.04,5.66-2.4,6.83-2.52,2.04-5.65,5.69-5.66,11.57,0,13.5,14.82,14.77,13.36,6.61-1.46-8.2-1.46-17.8.65-24.16.95-3.02,2.48-5.87,4.82-8.09,2.84-2.7,6.84-4.43,12.38-4.43,5.52,0,9.55,1.76,12.36,4.44,2.33,2.21,3.87,5.06,4.82,8.09,2.12,6.36,2.12,15.96.64,24.16-1.48,8.19,13.37,6.93,13.36-6.61,0-5.87-3.13-9.53-5.66-11.61h.08Z"/></g><path class="cls-1" d="m0,283.36L.14,79.14l89.38.06C91.6,35.16,128.11-.03,172.66,0c44.54.03,81.01,35.27,83.03,79.33l89.38.06-.14,204.21-344.92-.24ZM7.95,86.96l-.13,188.59,329.3.23.13-188.59-89.29-.06v-3.9c.03-41.55-33.75-75.38-75.31-75.42-41.55-.03-75.39,33.75-75.42,75.31v3.9s-89.29-.06-89.29-.06Z"/><path class="cls-1" d="m19.1,264.54v-1.5s.12-164.54.12-164.54l87.57.06v-15.44c.02-17.55,6.89-34.06,19.34-46.5s28.98-19.28,46.53-19.26c17.56.02,34.06,6.88,46.5,19.33,12.44,12.45,19.28,28.98,19.26,46.53v15.44s87.39.06,87.39.06v1.5s-.12,164.54-.12,164.54l-306.59-.22Zm3.11-163.04l-.11,160.05,300.61.21.11-160.05-87.4-.06v-18.43c.02-16.75-6.51-32.52-18.38-44.41-11.87-11.89-27.63-18.44-44.38-18.45-16.75-.01-32.52,6.52-44.41,18.39-11.89,11.87-18.44,27.63-18.45,44.38v18.43s-87.58-.06-87.58-.06Z"/></g><g><path class="cls-1" d="m92.85,155.84h-21.27c-1.39,0-2.3-.24-2.83-.96-.38-.53-.58-1.25-.58-2.3v-4.42c0-.77.19-1.49.62-2.21.48-.86,1.3-1.58,2.21-2.11l15.79-8.98v-10.27h-12.39v7.87c0,.58-.19.82-.77.82h-4.66c-.43,0-.58-.24-.58-.77v-7.54c0-1.44.53-2.59,1.58-3.31.72-.48,1.73-.77,2.93-.77h15.51c1.49,0,2.64.38,3.41,1.15.67.67,1.01,1.68,1.01,2.93v9.12c0,1.25-.19,2.21-.58,3.07-.48,1.01-1.3,1.82-2.59,2.54l-15.46,8.78v3.5h18.63c.53,0,.77.34.77.72v2.35c0,.48-.1.77-.77.77Z"/><path class="cls-1" d="m122.32,154.64c-.72.77-1.82,1.15-3.31,1.15h-15.7c-1.44,0-2.54-.34-3.31-1.06-.77-.72-1.1-1.78-1.1-3.26v-26.55c0-1.15.29-2.11.91-2.78.77-.82,1.97-1.25,3.5-1.25h15.65c1.44,0,2.78.48,3.55,1.34.58.67.86,1.49.86,2.69v26.55c0,1.39-.38,2.45-1.06,3.17Zm-5.04-30h-12.38v27.41h12.38v-27.41Z"/><path class="cls-1" d="m153.33,155.84h-21.27c-1.39,0-2.3-.24-2.83-.96-.38-.53-.58-1.25-.58-2.3v-4.42c0-.77.19-1.49.62-2.21.48-.86,1.3-1.58,2.21-2.11l15.79-8.98v-10.27h-12.39v7.87c0,.58-.19.82-.77.82h-4.66c-.43,0-.58-.24-.58-.77v-7.54c0-1.44.53-2.59,1.58-3.31.72-.48,1.73-.77,2.93-.77h15.51c1.49,0,2.64.38,3.41,1.15.67.67,1.01,1.68,1.01,2.93v9.12c0,1.25-.19,2.21-.58,3.07-.48,1.01-1.3,1.82-2.59,2.54l-15.46,8.78v3.5h18.63c.53,0,.77.34.77.72v2.35c0,.48-.1.77-.77.77Z"/><path class="cls-1" d="m183.57,155.84h-21.27c-1.39,0-2.3-.24-2.83-.96-.38-.53-.58-1.25-.58-2.3v-4.42c0-.77.19-1.49.62-2.21.48-.86,1.3-1.58,2.21-2.11l15.79-8.98v-10.27h-12.39v7.87c0,.58-.19.82-.77.82h-4.66c-.43,0-.58-.24-.58-.77v-7.54c0-1.44.53-2.59,1.58-3.31.72-.48,1.73-.77,2.93-.77h15.51c1.49,0,2.64.38,3.41,1.15.67.67,1.01,1.68,1.01,2.93v9.12c0,1.25-.19,2.21-.58,3.07-.48,1.01-1.3,1.82-2.59,2.54l-15.46,8.78v3.5h18.63c.53,0,.77.34.77.72v2.35c0,.48-.1.77-.77.77Z"/><path class="cls-1" d="m232.05,148.11h-16.23v10.51c0,.34-.24.62-.53.62h-5.23c-.34,0-.53-.34-.53-.62v-10.51h-19.39c-.29,0-.53-.24-.53-.48v-2.88c0-.29.19-.48.48-.48h4.51v-9.36c0-1.15.43-2.06,1.15-2.69.72-.67,1.73-1.01,2.78-1.01h10.99v-6.62h-9.46l-3.55,6.19c-.19.34-.43.53-.72.53h-6.29c-.29,0-.48-.34-.34-.58l7.49-13.01c.19-.29.58-.62.86-.62h6.1c.34,0,.48.43.34.72l-1.68,2.93h28.9c.34,0,.62.19.62.62v2.54c0,.43-.34.67-.62.67h-15.36v6.62h13.63c.34,0,.53.19.53.48v2.83c0,.34-.1.53-.53.53h-13.63v9.22h16.23c.34,0,.62.24.62.67v2.45c0,.43-.34.72-.62.72Zm-22.51-13.06h-8.64v9.22h8.64v-9.22Z"/><path class="cls-1" d="m276.21,148.4h-41.86c-.29,0-.62-.24-.62-.48v-2.78c0-.29.29-.48.58-.48h2.02v-22.95c0-1.01.24-1.73.72-2.26.62-.67,1.73-.96,3.26-.96h1.54l.38-1.06c.1-.19.43-.34.67-.34h4.18c.24,0,.53.34.48.53l-.86,2.98c-.19.58-.38,1.01-.72,1.25-.34.29-.77.38-1.44.38h-2.59v4.85h4.94c.34,0,.67.24.67.53v2.54c0,.43-.34.67-.62.67h-4.99v5.09h4.8c.34,0,.67.24.67.53v2.54c0,.43-.34.67-.62.67h-4.85v4.99h6.58v-10.13c0-.29.19-.62.48-.62h4.61c.24,0,.53.29.53.58v10.18h2.06v-12.67h-4.22c-1.44,0-2.26-.19-2.78-.77-.38-.48-.53-1.25-.53-2.5v-11.14c0-.29.24-.62.48-.62h4.61c.24,0,.53.34.53.62v3.02h6.96c.34,0,.67.24.67.53v2.54c0,.43-.34.67-.62.67h-7.01v3.89h3.65c1.54,0,2.5.34,3.12,1.06.58.72.77,1.73.77,3.12v12.24h6.67v-5.09h-4.94c-.29,0-.62-.24-.62-.48v-2.78c0-.29.29-.48.58-.48h4.99v-4.99h-4.94c-.29,0-.62-.24-.62-.48v-2.78c0-.29.29-.48.58-.48h4.99v-4.99h-5.04c-.29,0-.62-.24-.62-.48v-2.78c0-.29.29-.48.58-.48h7.1c1.39,0,2.35.19,2.93.82.43.48.67,1.25.67,2.5v22.99h2.06c.34,0,.67.24.67.53v2.54c0,.43-.34.67-.62.67Zm-33.94,10.51c-.19.14-.43.24-.77.24h-7.25c-.29,0-.53-.38-.29-.58l10.51-8.02c.38-.29,1.01-.58,1.44-.58h6.29c.43,0,.82.53.48.77l-10.42,8.16Zm34.13.24h-7.25c-.34,0-.58-.1-.77-.24l-9.94-8.16c-.29-.24.05-.77.48-.77h6.48c.43,0,.86.29,1.25.58l10.03,8.02c.24.19,0,.58-.29.58Z"/><path class="cls-1" d="m71.03,211.84h-4.99c-.38,0-.58-.29-.58-.72v-26.55l-10.8,26.35c-.29.67-.72.91-1.3.91h-3.7c-.62,0-1.15-.29-1.39-.91l-10.9-26.35v26.55c0,.43-.29.72-.72.72h-4.7c-.34,0-.62-.24-.62-.72v-32.64c0-.67.77-1.58,1.68-1.58h5.23c1.3,0,1.92.62,2.35,1.63l10.8,25.68,10.75-26.02c.19-.43.43-.77.72-.96.34-.24.82-.34,1.3-.34h5.81c.48,0,.82.14,1.1.43.24.24.43.58.43,1.01v32.93c0,.29-.19.58-.48.58Z"/><path class="cls-1" d="m105.4,210.79c-.72.72-1.78,1.06-3.22,1.06h-22.9c-1.54,0-2.64-.38-3.41-1.15-.67-.72-1.01-1.73-1.01-3.17v-26.55c0-1.3.38-2.35,1.15-3.02.77-.67,1.87-1.01,3.26-1.01h22.85c1.2,0,2.26.29,3.02.86.86.67,1.39,1.68,1.39,3.17v26.55c0,1.44-.38,2.54-1.15,3.26Zm-5.09-30.1h-19.3v27.41h19.3v-27.41Z"/><path class="cls-1" d="m140.34,210.79c-.72.72-1.78,1.06-3.22,1.06h-22.9c-1.54,0-2.64-.38-3.41-1.15-.67-.72-1.01-1.73-1.01-3.17v-26.55c0-1.3.38-2.35,1.15-3.02.77-.67,1.87-1.01,3.26-1.01h22.85c1.2,0,2.26.29,3.02.86.86.67,1.39,1.68,1.39,3.17v26.55c0,1.44-.38,2.54-1.15,3.26Zm-5.09-30.1h-19.3v27.41h19.3v-27.41Z"/><path class="cls-1" d="m163.67,211.27c-.14.38-.58.62-1.15.62h-4.66c-.62,0-1.06-.19-1.25-.77l-12.82-33.46c-.19-.48.1-.72.58-.72h5.14c.62,0,1.06.24,1.2.62l9.7,25.97,10.42-25.87c.19-.48.58-.72,1.2-.72h4.99c.48,0,.86.29.67.77l-14.02,33.55Z"/><path class="cls-1" d="m199.81,214.53c-.43.43-.96.72-1.78.72h-13.78c-.62,0-1.1-.19-1.54-.48-.53-.38-.86-1.06-.86-1.87v-31.2c0-.67.29-1.3.77-1.78.48-.53,1.2-.86,1.92-.86h2.21l1.68-5.57c.1-.24.43-.38.67-.38h5.23c.24,0,.53.34.48.58l-1.63,5.38h4.61c.77,0,1.49.34,1.97.86s.77,1.2.77,1.97v30.77c0,.77-.29,1.44-.72,1.87Zm-5.14-31.78h-6.96v11.81h6.96v-11.81Zm0,15.41h-6.96v13.39h6.96v-13.39Zm27.51,16.47c-.62.53-1.34.86-2.35.86h-8.59c-.38,0-.82-.24-.91-.58l-.91-2.54c-.14-.34.19-.72.67-.72h7.1v-29.14h-7.92l-1.82,6.14c-.05.19-.34.29-.58.29h-5.33c-.29,0-.38-.29-.34-.58l4.32-14.64c.14-.43.67-.67,1.15-.67h4.56c.43,0,.77.29.62.77l-1.44,4.8,8.78.05c1.34,0,2.5.48,3.22,1.39.58.72.91,1.68.91,2.83v29.23c0,1.1-.43,1.92-1.15,2.5Zm-7.68-7.97h-5.47c-.24,0-.48-.1-.58-.29l-5.14-15.07c-.14-.48.19-.77.62-.77h4.7c.48,0,1.01.29,1.15.67l5.04,14.88c.1.29-.05.58-.34.58Z"/><path class="cls-1" d="m266.2,214.29c-.62.62-1.54.91-2.74.91h-33.12c-1.1,0-2.06-.38-2.69-1.1-.48-.58-.77-1.34-.77-2.26v-34.66c0-.96.34-1.78.91-2.4.62-.67,1.54-1.15,2.54-1.15h33.12c.86,0,1.78.34,2.45.91.67.53,1.15,1.25,1.15,2.16v35.23c0,1.01-.29,1.78-.86,2.35Zm-5.23-36.72h-28.08v33.79h28.08v-33.79Zm-4.22,28.08c-.43.48-1.06.77-1.82.77h-15.89c-.58,0-1.1-.14-1.54-.43-.53-.43-.86-1.06-.86-1.87v-19.2c0-.67.34-1.3.77-1.78.53-.53,1.2-.86,1.92-.86h15.36c.77,0,1.49.34,1.97.86.48.53.77,1.49.77,2.26v18.48c0,.72-.24,1.34-.67,1.78Zm-4.9-19.49h-9.6v16.37h9.6v-16.37Z"/><path class="cls-1" d="m272.63,194.75c0,.24-.34.48-.53.48h-1.82c-.29,0-.53-.34-.53-.58l1.1-13.15c0-.19.24-.58.53-.58h1.73c.34,0,.53.48.53.72l-1.01,13.11Zm7.54,20.5h-4.61c-.38,0-.77-.38-.77-.67v-40.9c0-.29.38-.58.67-.58h4.66c.24,0,.53.29.53.58v40.9c0,.34-.19.67-.48.67Zm31.83-27.94h-27.12l.34,2.35c0,.24-.14.58-.43.58h-1.68c-.24,0-.53-.24-.53-.48l-1.01-8.26c-.05-.24.19-.72.53-.72h1.44c.29,0,.62.38.62.58l.34,2.59h5.33l-1.54-4.37h-3.07c-.24,0-.58-.24-.58-.48v-2.4c0-.29.29-.48.58-.48h9.5l-1.44-2.45c-.1-.24.14-.62.38-.62h5.66c.29,0,.53.14.62.38l1.68,2.69h9.31c.34,0,.67.24.67.53v2.3c0,.34-.38.53-.67.53h-2.59l-1.49,4.37h5.04c.34,0,.62.24.62.53v2.3c0,.29-.29.53-.53.53Zm-24.34,27.17c-.05.19-.34.38-.58.38h-5.09c-.24,0-.38-.29-.29-.58l2.5-7.97c.1-.19.53-.29.72-.29h4.75c.24,0,.48.43.43.53l-2.45,7.92Zm22.51-11.19c-.43.43-1.06.67-1.78.67h-21.27c-.58,0-1.1-.14-1.49-.43-.58-.38-.91-1.06-.91-1.87v-9.65c0-.67.34-1.3.77-1.78.53-.53,1.2-.86,1.92-.86h20.74c.77,0,1.49.34,1.97.86.48.53.77,1.2.77,1.97v9.22c0,.77-.29,1.39-.72,1.87Zm-5.04-10.51h-14.4v2.21h14.4v-2.21Zm0,5.57h-14.4v2.26h14.4v-2.26Zm-1.34,16.51c-.1.14-.29.34-.43.34h-9.36c-.82,0-1.54-.38-2.06-.91-.58-.62-.91-1.39-.91-2.4v-5.71c0-.29.19-.62.48-.62h5.04c.24,0,.53.34.53.62v5.62h7.58c.24,0,.38.34.34.48l-1.2,2.59Zm-9.36-35.28l1.39,4.37h5.04l1.34-4.37h-7.78Zm9.79,31.2h-4.03c-.24,0-.53-.05-.58-.24l-1.44-5.09c-.05-.14.19-.53.43-.53h3.89c.19,0,.48.05.58.29l1.44,4.99c.1.29-.05.58-.29.58Zm8.78,4.08h-5.09c-.24,0-.53-.14-.58-.34l-2.26-7.97c-.05-.24.1-.53.43-.53h4.9c.24,0,.58.14.62.34l2.26,7.92c.1.29-.05.58-.29.58Z"/></g></g></svg>