<?xml version="1.0" encoding="UTF-8"?><svg id="Layer_2" xmlns="http://www.w3.org/2000/svg" viewBox="0 0 329.96 329.96"><defs><style>.cls-1{fill:#fff;}</style></defs><g id="_ÎÓÈ_1"><g><path class="cls-1" d="m202.72,325.65c-12.24,2.85-24.9,4.31-37.78,4.31-44.07-.01-85.49-17.18-116.65-48.35C17.14,250.44-.01,209.01,0,164.94.02,73.97,74.04-.02,165.02,0c44.07.01,85.49,17.18,116.65,48.35s48.3,72.6,48.29,116.67c-.01,44.07-17.18,85.49-48.35,116.65-22.06,22.04-49.26,37.08-78.89,43.98ZM129.38,12.16C59.97,28.32,8.1,90.68,8.08,164.94c-.01,41.91,16.3,81.31,45.93,110.96,29.63,29.64,69.02,45.97,110.93,45.98s81.31-16.3,110.95-45.93c29.64-29.63,45.97-69.02,45.98-110.93.01-41.91-16.3-81.31-45.93-110.96-29.63-29.64-69.02-45.97-110.93-45.98-12.25,0-24.19,1.41-35.64,4.07Z"/><path class="cls-1" d="m196.87,301.86c-10.26,2.39-20.95,3.65-31.92,3.65-37.54,0-72.82-14.64-99.36-41.19-26.54-26.55-41.14-61.84-41.13-99.38.02-60.76,38.76-114.38,96.4-133.43l1.07,3.23C65.67,53.34,27.87,105.66,27.86,164.94c0,36.63,14.25,71.06,40.14,96.97,25.89,25.91,60.32,40.18,96.95,40.19,10.71,0,21.14-1.23,31.15-3.56,60.66-14.12,105.99-68.63,106.01-133.53.01-58.75-37.31-110.94-92.89-129.87l1.1-3.22c56.95,19.4,95.21,72.88,95.19,133.09-.02,66.51-46.48,122.37-108.64,136.84Z"/><g><path class="cls-1" d="m173.26,73.98c-1.84.41-3.27.21-4.33-.66-1.36-1.12-2.28-3.36-2.49-6.17h.2c2.09-1.73,4.97-4.33,5.45-5.45,1.22-3.16-1.22-4.64-3.56-5.04-1.34-.2-2.66-.3-4.04-.3-1.38,0-2.7.1-4.02.3-2.31.47-4.8,1.89-3.58,5.05.4,1.17,3.38,3.72,5.45,5.45h.23c-.28,2.8-1.13,5.09-2.5,6.16-1.08.87-2.49,1.07-4.35.67-1-.21-1.98.41-2.18,1.37-.2.97.42,1.98,1.39,2.19.92.2,1.72.31,2.43.31,2.35,0,3.94-.82,5-1.68.93-.72,1.58-1.58,2.15-2.55.55.97,1.21,1.84,2.12,2.55,1.02.82,2.66,1.68,5.01,1.68.77,0,1.58-.1,2.44-.31.98-.21,1.62-1.22,1.39-2.2-.2-.97-1.24-1.63-2.2-1.37h0Z"/><path class="cls-1" d="m201.49,50.89c-.52-1.63-1.02-4.13-3.47-9.83-6.32-14.68-18.17-23.48-33.59-23.48-15.45,0-27.27,8.83-33.57,23.5-2.45,5.71-2.96,8.21-3.48,9.89-3.65,2.95-8.19,8.26-8.2,16.77,0,19.57,21.48,21.39,19.37,9.57-2.13-11.88-2.13-25.79.92-35.02,1.37-4.38,3.59-8.51,6.97-11.72,4.11-3.92,9.92-6.42,17.94-6.43,8,0,13.84,2.55,17.92,6.42,3.38,3.21,5.61,7.34,6.99,11.72,3.08,9.22,3.08,23.13.94,35.01-2.15,11.88,19.38,10.03,19.36-9.59,0-8.51-4.54-13.81-8.21-16.82h.11Z"/></g><g><g><rect class="cls-1" x="58.11" y="125.12" width="47.44" height="3.4"/><rect class="cls-1" x="224.43" y="125.16" width="48.8" height="3.4"/></g><rect class="cls-1" x="56.86" y="219.29" width="216.34" height="3.4"/></g><g><polygon class="cls-1" points="225.33 238.63 230.04 248.18 240.58 249.71 232.95 257.14 234.75 267.63 225.33 262.67 215.9 267.62 217.71 257.13 210.09 249.7 220.62 248.17 225.33 238.63"/><polygon class="cls-1" points="164.96 247.34 169.67 256.88 180.2 258.42 172.58 265.84 174.37 276.34 164.95 271.38 155.53 276.33 157.33 265.84 149.71 258.41 160.25 256.88 164.96 247.34"/><polygon class="cls-1" points="104.59 238.6 109.3 248.14 119.83 249.68 112.21 257.11 114 267.6 104.58 262.64 95.16 267.59 96.96 257.1 89.34 249.67 99.87 248.14 104.59 238.6"/></g></g><g><path class="cls-1" d="m164.69,124.41h-6.3c-.59,0-.97-.16-1.24-.59l-2.32-3.77h-11.09v8.45h16.64c.38,0,.7.27.7.75v2.75c0,.48-.38.81-.7.81h-16.64v10.55h19.92c.43,0,.7.27.7.75v2.75c0,.48-.27.81-.7.81h-46.63c-.32,0-.65-.27-.65-.54v-3.23c0-.32.27-.54.59-.54h19.71v-10.55h-16.85c-.32,0-.65-.27-.65-.54v-3.23c0-.32.27-.54.59-.54h16.91v-8.45h-11.04l-2.37,3.88c-.22.38-.65.65-.92.65h-6.35c-.32,0-.54-.38-.38-.65l11.15-18.52h-5.65c-.22,0-.54-.22-.54-.48v-3.34c0-.27.22-.54.54-.54h26.6c1.13,0,1.99.16,2.69.54.86.43,1.51,1.24,2.21,2.37l12.33,19.92c.16.27,0,.54-.27.54Zm-18.95-19.01h-11.31l-6.19,10.34h23.91l-6.41-10.34Z"/><path class="cls-1" d="m213.79,135.23h-18.2v11.79c0,.38-.27.7-.59.7h-5.87c-.38,0-.59-.38-.59-.7v-11.79h-21.75c-.32,0-.59-.27-.59-.54v-3.23c0-.32.22-.54.54-.54h5.06v-10.5c0-1.29.48-2.32,1.29-3.02.81-.75,1.94-1.13,3.12-1.13h12.33v-7.43h-10.61l-3.98,6.95c-.22.38-.48.59-.81.59h-7.05c-.32,0-.54-.38-.38-.65l8.4-14.59c.22-.32.65-.7.97-.7h6.84c.38,0,.54.48.38.81l-1.88,3.28h32.41c.38,0,.7.22.7.7v2.85c0,.49-.38.75-.7.75h-17.23v7.43h15.29c.38,0,.59.22.59.54v3.18c0,.38-.11.59-.59.59h-15.29v10.34h18.2c.38,0,.7.27.7.75v2.75c0,.48-.38.81-.7.81Zm-25.25-14.65h-9.69v10.34h9.69v-10.34Z"/><path class="cls-1" d="m89.49,180.68h-24.02v15.72l2.26-.16c.38,0,.7.27.7.59v2.58c0,.32-.27.59-.59.59l-2.37.16v4.31c0,.38-.27.75-.59.75h-5.65c-.38,0-.65-.43-.65-.75v-3.82l-16.37,1.08c-.27,0-.7-.27-.7-.54v-2.58c0-.32.32-.65.65-.65l2.37-.16v-17.12h-2.42c-.32,0-.65-.27-.65-.54v-2.69c0-.32.32-.54.65-.54h47.28c.38,0,.7.27.7.59v2.58c0,.32-.27.59-.59.59Zm-3.77-6.84c-.59.59-1.35,1.02-2.21,1.02h-35.48c-.97,0-1.83-.38-2.48-1.02-.59-.59-.92-1.45-.92-2.42v-9.37c0-1.02.32-1.83.86-2.42.65-.65,1.56-1.02,2.75-1.02h34.89c1.08,0,1.99.27,2.64.92.59.59.92,1.51.92,2.48v9.42c0,.92-.38,1.78-.97,2.42Zm-27.14,6.84h-7.16v2.85h7.16v-2.85Zm0,6.46h-7.16v2.91h7.16v-2.91Zm0,6.52h-7.16v3.66l7.16-.48v-3.18Zm21.05-31.23h-27.95v2.37h27.95v-2.37Zm0,6.14h-27.95v2.48h27.95v-2.48Zm10.02,36.67h-6.41c-.38,0-.7-.05-.97-.38l-4.31-4.42-3.71,4.42c-.27.32-.7.38-1.13.38h-5.55c-.38,0-.65-.59-.38-.92l6.73-7.97-6.14-6.3c-.22-.22-.11-.75.22-.75h6.25c.54,0,.97.11,1.35.48l2.05,2.1,3.82-4.52h-13.08c-.32,0-.65-.27-.65-.65v-2.48c0-.32.32-.65.65-.65h18.85c.54,0,.75.38.75.86v3.39c0,.48-.22.92-.43,1.18l-5.87,7,8.24,8.4c.27.27.11.81-.27.81Z"/><path class="cls-1" d="m139.03,165.06h-20.19v2.69h17.07c.38,0,.59.27.59.59v2.42c0,.32-.27.59-.59.59h-40.87c-.32,0-.65-.27-.65-.54v-2.53c0-.32.32-.54.65-.54h16.91v-2.69h-20.14c-.32,0-.65-.27-.65-.54v-2.53c0-.32.32-.54.65-.54h20.14v-2.8c0-.32.32-.65.65-.65h5.6c.27,0,.65.32.65.65v2.8h20.19c.38,0,.59.27.59.59v2.42c0,.32-.27.59-.59.59Zm-.27,26.33h-46.79c-.32,0-.7-.27-.7-.54v-2.53c0-.32.32-.54.65-.54h10.45l-1.67-3.28h-3.12c-.81,0-1.51-.27-2.1-.75-.65-.54-1.08-1.35-1.08-2.37v-4.85c0-.75.32-1.45.86-1.94.59-.59,1.4-.92,2.32-.92h35.27c.86,0,1.67.27,2.32.81.65.54,1.08,1.35,1.08,2.42v4.47c0,1.02-.38,1.78-.97,2.32s-1.45.81-2.42.81h-2.75l-1.67,3.28h10.34c.38,0,.59.27.59.59v2.42c0,.32-.27.59-.59.59Zm-3.12,12.87c-.59.7-1.51.97-2.75.97h-35.65c-.75,0-1.45-.27-1.94-.7-.59-.54-.92-1.24-.92-2.1v-6.25c0-.7.27-1.24.7-1.72.54-.54,1.4-.92,2.26-.92h35.54c.97,0,1.78.22,2.32.65.7.48,1.02,1.29,1.02,2.48v5.6c0,.86-.22,1.51-.59,1.99Zm-6.19-26.92h-28.27v3.5h28.27v-3.5Zm-.27,19.87h-27.73v4.36h27.73v-4.36Zm-20.68-12.71l1.78,3.28h10.23l1.78-3.28h-13.78Z"/><path class="cls-1" d="m189.91,205.18h-11.04c-.54,0-.97-.05-1.51-.27l-9.1-3.45-8.13,3.45c-.54.22-.97.32-1.51.32h-10.55c-.27,0-.38-.38-.16-.48l13.52-5.82-9.1-3.39-3.82,6.89c-.16.32-.7.7-1.13.7h-5.33c-.38,0-.7-.54-.54-.86l8.51-15.4c.22-.38.48-.65.86-.65h5.6c.38,0,.7.48.48.86l-.75,1.4h27.84c.38,0,.75.43.75.7v4.42c0,.48-.32.97-.97,1.24l-9.42,4.04,15.72,5.71c.32.11.11.59-.22.59Zm-1.56-43.99c-.22.75-.7,1.4-1.35,1.83-.75.54-1.72.81-2.91.81h-41.51c-.32,0-.7-.27-.7-.54v-3.12c0-.32.38-.54.7-.54h38.23l.27-1.02c.11-.27.43-.65.7-.65h6.78c.27,0,.59.32.48.65l-.7,2.58Zm-.32,16.53h-3.66l3.88,6.25c.22.32-.16.86-.54.86h-5.55c-.43,0-.75-.16-.97-.48l-4.42-7.16c-.22-.38.11-.86.65-.86h4.42v-3.02h-33.17v3.18h5.33c.54,0,.92.48.65.81l-5.38,7.11c-.22.32-.7.7-1.13.7h-5.33c-.38,0-.75-.54-.54-.86l4.9-6.52h-4.58c-.38,0-.7-.43-.7-.75v-4.9c0-.7.27-1.35.7-1.88.65-.7,1.67-1.13,2.64-1.13h3.66l-1.67-3.02c-.22-.38.11-.81.65-.81h5.87c.43,0,.7.22.92.59l1.78,3.23h6.08l-1.67-3.02c-.22-.38.11-.81.65-.81h5.87c.43,0,.7.22.92.59l1.78,3.23h5.55l1.83-3.23c.16-.38.43-.59.86-.59h5.87c.54,0,.86.43.65.81l-1.67,3.02h2.15c.81,0,1.67.32,2.26.86.65.54,1.08,1.18,1.08,2.15v4.9c0,.43-.27.75-.59.75Zm-34.14,14.97l-.92,1.72h8.67c.38,0,.81.11,1.13.22l4.74,1.72,8.51-3.66h-22.13Zm22.51-6.89c-.22.43-.65.65-1.13.65h-16.42c-.86,0-1.67-.38-2.26-.97-.59-.59-.97-1.45-.97-2.37v-7.43c0-.38.38-.81.81-.81h5.06c.48,0,.92.38.92.81v6.57h14.86c.32,0,.59.32.43.65l-1.29,2.91Zm-1.94-5.06h-5.6c-.43,0-1.08-.38-1.24-.7l-2.8-4.47c-.22-.32.11-.81.65-.81h5.49c.43,0,1.02.22,1.24.59l2.8,4.52c.16.32-.16.86-.54.86Z"/><path class="cls-1" d="m217.81,184.61h-1.72v16.58c0,1.24-.32,2.26-1.02,3.02-.65.7-1.56,1.08-2.75,1.08h-6.57c-.22,0-.48-.16-.54-.32l-1.51-3.28h-9.15c-.75,0-1.29-.16-1.67-.54-.43-.38-.59-.97-.59-1.72v-9.48c0-.7.22-1.29.59-1.72.38-.43.97-.65,1.67-.65h10.07c.7,0,1.35.16,1.78.59.43.38.65.92.65,1.62v9.91c0,.54-.16.97-.43,1.29h2.69v-16.37h-17.5c-.27,0-.65-.27-.65-.54v-2.69c0-.32.27-.54.59-.54h25.95c.38,0,.7.27.7.59v2.58c0,.32-.27.59-.59.59Zm-.32-22.24h-1.45v16.32c0,.38-.22.75-.54.75h-5.6c-.38,0-.65-.43-.65-.75v-16.32h-17.28c-.27,0-.65-.22-.65-.54v-2.69c0-.32.27-.54.59-.54h25.47c.38,0,.7.27.7.59v2.58c0,.32-.27.59-.59.59Zm-11.04,15.29c-.38.43-.92.65-1.62.65h-10.45c-.75,0-1.29-.22-1.67-.54-.32-.38-.48-.92-.48-1.67v-8.24c0-.7.22-1.35.59-1.78.38-.48.97-.75,1.72-.75h10.02c.81,0,1.4.27,1.83.7.38.43.59,1.08.59,1.83v8.18c0,.65-.16,1.24-.54,1.62Zm-5.22-8.51h-3.28v5.49h3.28v-5.49Zm.05,22.24h-3.28v6.62h3.28v-6.62Zm37.91,13.89h-5.28c-.38,0-.7-.27-.81-.65l-4.74-15.94-4.9,15.99c-.11.22-.43.59-.7.59h-5.33c-.38,0-.65-.43-.54-.7l9.26-29.18c.11-.43.43-.65.81-.65h4.58v-5.28h-5.76l-2.21,8.99c-.11.32-.43.59-.7.59h-5.33c-.32,0-.59-.48-.48-.86l5.12-19.65c.11-.43.48-.59.86-.59h5.12c.27,0,.43.32.38.54l-1.67,6.78h7.81c1.18,0,2.15.38,2.75,1.02.59.59.92,1.4.92,2.42v7.32c0,.43-.32.7-.65.7h-5.6l-2.26,7.32h3.02c.43,0,.7.27.81.65l6.08,19.76c.16.43-.11.81-.54.81Z"/><path class="cls-1" d="m287.91,199.9h-19.76v4.58c0,.38-.22.75-.54.75h-5.6c-.38,0-.65-.43-.65-.75v-4.58h-19.6c-.32,0-.7-.27-.7-.54v-2.53c0-.32.27-.7.75-.7h19.55v-3.02h-14.7c-.65,0-1.24-.22-1.67-.54-.65-.43-.97-1.18-.97-2.1v-13.46c0-.75.32-1.56.81-2.1.59-.59,1.35-.97,2.21-.97h35.43c.86,0,1.67.38,2.21.97.54.59.86,1.45.86,2.32v12.98c0,.86-.32,1.62-.81,2.1s-1.18.81-1.99.81h-14.59v3.02h19.76c.38,0,.7.27.7.59v2.37c0,.54-.38.81-.7.81Zm-25.25-29.35c-.48.54-1.18.81-1.94.81h-15.18c-.7,0-1.29-.16-1.72-.54-.65-.43-.97-1.18-.97-2.1v-7.22c0-.75.32-1.45.81-1.99.59-.59,1.35-.97,2.21-.97h14.54c.92,0,1.67.38,2.21.97.54.59.86,1.35.86,2.21v6.78c0,.81-.27,1.56-.81,2.05Zm-5.82-8.18h-7.38v5.17h7.38v-5.17Zm4.52,15.35h-10.55v3.88h10.55v-3.88Zm0,7.65h-10.55v3.93h10.55v-3.93Zm24.5-14.81c-.48.54-1.18.81-1.99.81h-15.18c-.65,0-1.24-.16-1.72-.54-.59-.43-.97-1.18-.97-2.1v-7.22c0-.75.38-1.45.86-1.99.59-.59,1.35-.97,2.15-.97h14.59c.86,0,1.67.38,2.21.97.54.59.86,1.35.86,2.21v6.78c0,.81-.32,1.56-.81,2.05Zm-7.11,7.16h-10.61v3.88h10.61v-3.88Zm0,7.65h-10.61v3.93h10.61v-3.93Zm1.29-22.99h-7.38v5.17h7.38v-5.17Z"/></g></g></svg>