<svg width="260" height="156" viewBox="0 0 260 156" fill="none" xmlns="http://www.w3.org/2000/svg">
<g clip-path="url(#clip0_1091_31984)">
<path d="M29.8822 3.43251C31.6912 2.77382 32.9225 3.11014 34.1491 3.40142C38.1322 4.34555 42.1124 5.36971 46.1133 6.26641C51.8529 7.55951 57.6167 8.75894 63.3539 10.0295C67.7733 11.0071 72.1726 12.0096 76.5766 13.0572C77.6745 13.3165 78.8778 13.4964 79.8805 14.7907C79.945 15.3988 80.0216 16.3358 80.142 17.2568C80.6909 21.2524 82.6063 24.0669 86.6442 25.3127C90.6471 26.5508 94.1027 25.9567 97.0183 22.8463C97.2333 22.6185 97.4595 22.3896 97.6371 22.1316C98.9112 20.186 100.629 20.0608 102.624 20.8399C106.556 22.3702 110.697 23.1951 114.786 24.1736C126.235 26.8996 137.678 29.6832 149.16 32.292C158.494 34.4109 167.77 36.7297 176.991 39.2821C185.802 41.7298 194.58 44.2949 203.395 46.7765C209.169 48.3961 214.966 49.8996 220.731 51.5429C229.631 54.0724 238.511 56.6381 247.379 59.2962C249.567 59.9524 251.869 60.5055 253.638 62.0487C254.293 63.0724 254.21 64.1174 253.945 65.159C253.141 68.4213 252.396 71.7114 251.462 74.9305C250.319 78.8664 249.013 82.7627 247.753 86.6654C245.267 94.3649 242.76 102.078 240.25 109.768C237.613 117.871 234.975 125.962 232.291 134.047C230.704 138.839 229.046 143.603 227.4 148.378C227.025 149.466 226.702 150.605 225.228 151.307C223.54 150.849 221.601 150.394 219.707 149.82C214.482 148.222 209.283 146.553 204.047 144.967C196.4 142.647 188.752 140.326 181.08 138.099C170.378 134.998 159.801 131.473 149.295 127.759C135.81 123.006 122.304 118.277 108.749 113.725C91.2041 107.842 73.4633 102.583 55.6527 97.5252C48.0679 95.3688 40.5748 92.8951 33.0663 90.4915C27.5617 88.7294 22.08 86.8623 16.6198 84.9816C15.1305 84.4677 13.7021 83.7765 12.2963 83.0829C11.5516 82.7178 10.8702 82.1979 10.2012 81.6881C9.00027 80.7792 8.52753 79.5425 8.75876 78.0718C8.93334 76.926 9.18912 75.7943 9.4461 74.6739C11.4146 66.1753 13.3356 57.659 15.9123 49.3123C17.3361 44.6976 18.2654 39.9303 19.5119 35.2546C21.1201 29.2653 22.7396 23.2747 24.5352 17.3338C25.7253 13.4157 27.1965 9.57027 28.6102 5.71955C28.9284 4.85455 29.5199 4.09721 29.8958 3.45383L29.8822 3.43251Z" fill="#58A2B8"/>
<path d="M86.5577 25.3565C87.0268 25.5915 87.3091 25.8918 87.3956 26.6C87.5512 27.745 86.8236 28.9381 86.4363 30.1178C85.5587 32.7958 84.6349 35.4672 83.6987 38.1286C83.4527 38.8152 83.1616 39.5065 82.7335 40.0871C82.4552 40.4696 81.8954 40.8819 81.4829 40.8573C80.9565 40.8334 80.4524 40.3745 80.042 40.1561C80.0304 39.7246 79.9716 39.4917 80.0325 39.3144C81.3779 35.3571 82.7233 31.3997 84.1263 27.4476C84.3965 26.6674 84.5778 25.6917 85.2679 25.22C85.618 24.9779 86.1961 25.1671 86.569 25.3553L86.5577 25.3565Z" fill="#402625"/>
<path d="M246.445 128.655C243.718 128.89 241.163 129.104 238.596 129.318C234.351 129.681 230.116 130.109 225.86 130.387C221.411 130.687 216.941 130.804 212.492 131.104C208.439 131.371 204.397 131.756 200.344 132.098C197.478 132.344 194.612 132.579 191.756 132.857C188.206 133.189 184.656 133.552 181.105 133.905C180.913 133.927 180.709 133.97 180.517 133.98C176.453 134.205 172.389 134.387 168.336 134.675C164.487 134.953 160.637 135.328 156.787 135.67C156.488 135.691 156.199 135.766 155.899 135.777C151.536 136.001 147.184 136.205 142.821 136.44C141.045 136.536 139.27 136.75 137.495 136.878C136.404 136.953 135.313 136.975 134.223 137.007C131.645 137.092 129.057 136.857 126.502 137.499C125.839 137.67 125.122 137.584 124.427 137.595C121.454 137.67 118.47 137.456 115.519 138.108C114.567 138.322 113.54 138.172 112.546 138.204C109.776 138.29 106.985 138.044 104.237 138.707C103.574 138.867 102.846 138.825 102.151 138.782C97.5636 138.493 93.04 139.263 88.4843 139.477C86.5166 139.573 84.5596 140.022 82.6026 140.343C80.7312 140.653 78.8704 140.846 76.8493 140.226C76.4964 139.627 76.0793 138.964 75.6943 138.29C75.0099 137.082 74.411 135.82 73.6411 134.665C71.9193 132.087 68.4545 131.285 65.781 132.922C63.0326 134.611 60.8297 136.889 59.2149 139.702C58.9154 140.215 58.7443 140.803 58.4235 141.295C57.7284 142.343 56.7766 143.049 55.4613 142.995C50.9056 142.813 46.3179 143.338 41.7729 142.589C41.1955 142.493 40.5859 142.514 39.9977 142.546C37.8269 142.664 35.6453 142.91 33.4744 142.931C27.4109 142.985 21.3474 142.985 15.2839 142.931C13.5087 142.91 11.7335 142.568 9.95828 142.461C7.89434 142.332 7.04951 141.006 6.56828 139.252C6.51481 139.06 6.49342 138.857 6.48273 138.664C6.26885 135.403 6.07636 132.13 5.8304 128.869C5.71276 127.286 5.40264 125.724 5.31708 124.142C5.06043 119.383 4.79308 114.624 4.68614 109.865C4.5792 104.593 4.68614 99.3317 4.62197 94.0595C4.5792 90.3915 4.87863 86.7021 4.13005 83.0554C3.99103 82.3817 4.07658 81.6652 4.07658 80.9701C4.07658 68.6399 4.07658 56.3097 4.07658 43.9902C4.07658 42.3968 4.01242 40.782 5.49888 39.4025C6.77147 39.1672 8.21516 38.7822 9.68024 38.6432C12.835 38.3438 16.0111 38.2048 19.1658 37.9374C20.8448 37.7984 22.513 37.5524 24.1813 37.3278C28.106 36.7931 32.0307 36.2371 35.9661 35.7024C36.5543 35.6275 37.1531 35.6382 37.752 35.5847C41.2062 35.2532 44.6496 34.9003 48.1038 34.5795C49.1946 34.4832 50.2854 34.4832 51.3762 34.4191C53.1514 34.3121 54.948 34.248 56.7125 34.0448C57.9102 33.9058 58.8513 34.2159 59.8993 35.3174C60.6372 39.488 62.6156 43.0812 67.1177 44.3752C69.556 44.311 71.1387 43.2523 72.1653 41.3702C73.0208 39.8088 73.8015 38.2048 74.5821 36.6113C74.9243 35.9055 75.181 35.157 75.5553 34.2373C76.2825 34.0876 77.0311 33.8416 77.7903 33.8095C79.373 33.7454 80.9772 33.8309 82.5599 33.7774C83.9394 33.724 85.3189 33.5636 86.7091 33.4459C87.1048 33.4138 87.5112 33.2641 87.8855 33.3176C92.8368 34.0876 97.7667 32.9326 102.718 33.1893C105.873 33.3497 109.081 33.4887 112.214 32.708C112.407 32.6653 112.61 32.676 112.813 32.676C120.556 32.6118 128.309 32.7401 136.03 32.0664C136.917 31.9915 137.816 32.0664 138.714 32.045C144.959 31.8418 151.226 31.8204 157.45 31.3285C160.615 31.0718 163.824 31.1788 166.946 30.751C172.005 30.0559 177.063 30.4302 182.121 30.2377C183.308 30.1949 184.484 30.0238 185.671 29.9169C186.655 29.8313 187.65 29.7137 188.634 29.703C191.81 29.6602 194.997 29.703 198.173 29.6282C199.659 29.5961 201.135 29.3822 202.611 29.2646C203.498 29.1897 204.397 29.0935 205.284 29.1148C209.551 29.2111 213.807 28.9651 218.074 29.5426C221.101 29.949 224.223 29.6282 227.314 29.6602C229.795 29.6923 232.255 29.6816 234.736 30.1094C236.671 30.4409 238.703 30.227 240.692 30.2805C243.59 30.366 244.328 30.9435 245.066 33.7347C245.291 34.6009 245.536 35.4778 245.601 36.3547C245.868 40.012 246.028 43.6801 246.296 47.3374C246.617 51.6899 247.002 56.0317 247.344 60.3734C247.419 61.368 247.461 62.3625 247.461 63.3464C247.483 68.1159 247.472 72.8854 247.493 77.6656C247.504 80.3391 247.344 83.034 247.953 85.6861C248.124 86.4454 248.05 87.2688 248.05 88.0602C248.05 98.7007 248.103 109.331 248.039 119.971C248.028 122.238 247.633 124.516 247.333 126.772C247.258 127.318 246.852 127.821 246.445 128.687V128.655Z" fill="#FDEEE5"/>
<path d="M58.097 68.7371C58.3135 73.9422 56.7745 78.6832 53.9592 82.9757C51.9638 86.0152 49.2182 88.3277 46.024 90.1065C43.0773 91.7539 39.8908 92.5505 36.5728 92.7903C35.2348 92.8908 33.8504 92.6898 32.5047 92.4809C28.7072 91.9086 25.0799 90.849 21.847 88.668C17.3534 85.6362 14.0819 81.6531 12.4887 76.4248C12.0092 74.8548 11.7926 73.2074 11.4678 71.591C11.4291 71.3821 11.4059 71.1579 11.4368 70.949C11.8313 68.1879 11.8777 65.3572 12.7671 62.6812C14.051 58.8373 15.8608 55.2178 18.6451 52.2478C20.9808 49.7497 23.8888 48.0482 27.199 47.0582C31.0042 45.9213 34.8249 45.9136 38.6997 46.6483C40.7493 47.035 42.7679 47.5145 44.7246 48.2338C49.1254 49.8425 52.714 52.5495 55.0729 56.579C56.8131 59.5566 57.9501 62.8359 58.0815 66.3704C58.1125 67.1593 58.0815 67.9482 58.0815 68.7448L58.097 68.7371ZM31.2672 89.859C31.3987 89.9519 31.5224 90.0369 31.3291 89.8977C31.5611 89.9673 31.4064 89.9209 31.2517 89.8745C30.285 88.7067 28.916 88.0957 27.7714 87.3145C26.8819 87.2836 26.1394 87.3687 25.5052 87.9487C26.9902 88.931 29.2795 89.6812 31.2672 89.859ZM27.8178 49.3166C27.5316 49.3475 27.23 49.3166 26.967 49.4094C24.1595 50.4226 21.731 51.9849 19.8284 54.3129C19.7588 54.3979 19.8206 54.5758 19.8206 54.7924C20.4394 55.473 21.3365 55.2951 22.1022 55.5194C22.9762 54.4211 23.7109 53.3616 24.5849 52.4257C25.5981 51.3275 26.7272 50.3375 27.8023 49.3011L27.9183 49.1851L27.81 49.3166H27.8178ZM23.2933 58.0794C23.0535 58.5744 22.8756 58.8837 22.7442 59.2163C21.731 61.7763 21.352 64.4833 21.0426 67.1902C20.9266 68.2111 20.741 69.3249 21.3133 70.2916C23.6491 70.5469 31.3677 69.8198 33.5875 69.1315C33.6339 68.8299 33.7499 68.4818 33.7189 68.1415C33.4792 65.0711 33.2162 62.0006 32.9532 58.9301C32.93 58.6672 32.7986 58.4042 32.698 58.0794H23.301H23.2933ZM21.7464 72.8207C22.0713 76.9121 24.8943 82.0398 28.3127 84.6617C29.1712 84.4761 30.169 84.3523 31.0971 84.0352C32.087 83.6949 33.2858 84.0043 34.2371 82.9757C34.3067 79.3329 34.299 75.5895 33.5875 71.9158C31.4838 71.4672 29.6044 72.171 27.6863 72.2561C25.6986 72.3489 23.7264 72.6273 21.7464 72.8207ZM36.2093 71.6374C36.2093 73.014 36.1784 74.236 36.2171 75.4503C36.248 76.448 36.3949 77.4457 36.4413 78.4512C36.4955 79.6035 36.4723 80.7482 36.511 81.9006C36.5264 82.295 36.6424 82.6818 36.7198 83.1071C39.1251 82.7591 41.4376 83.169 43.696 82.79C43.8971 82.5039 44.0827 82.2796 44.2219 82.0321C45.6914 79.4489 46.6118 76.6414 47.4161 73.8107C47.741 72.666 47.7564 71.4131 47.3465 70.2375C47.0603 70.1833 46.8438 70.0905 46.6427 70.106C43.6496 70.4076 40.6487 70.7247 37.6556 71.0496C37.3772 71.0805 37.0987 71.1888 36.8281 71.2893C36.6347 71.3667 36.4568 71.4904 36.2016 71.6374H36.2093ZM47.0526 67.7471C47.4161 65.249 46.3875 63.3077 45.6218 61.3277C44.9567 59.5953 42.9148 56.9193 41.6928 55.9912C39.651 56.7104 37.4391 57.0043 35.3122 57.7546C35.2812 58.2805 35.2194 58.7059 35.2426 59.1235C35.3895 61.8459 35.5365 64.5606 35.7375 67.2753C35.784 67.894 35.8458 68.5669 36.4413 68.9768C38.1738 68.8144 39.883 68.6829 41.5923 68.4818C43.3634 68.2807 45.1268 68.01 47.0604 67.7471H47.0526ZM55.6143 66.5406C55.8464 64.8004 55.9237 64.607 55.305 62.8514C54.5238 60.6317 53.9051 58.3114 52.3505 56.4475C51.2136 55.0863 50.1308 53.6477 48.3984 52.8279C47.3078 53.4002 46.2251 53.9493 45.1577 54.5294C44.8716 54.6841 44.6396 54.9471 44.3611 55.1791C44.6086 55.5967 44.7478 55.9293 44.9721 56.2C47.4471 59.139 48.7464 62.5884 49.427 66.3163C49.4889 66.6488 49.6281 66.9737 49.7209 67.2598C51.8169 67.4764 52.977 67.3372 55.6143 66.5406ZM49.7132 84.4838C53.7349 80.8333 56.5734 73.3466 55.6143 69.0542C53.7195 69.2166 51.8478 69.5491 49.9297 69.9204C49.891 70.5933 49.8214 71.1579 49.8369 71.7224C49.8911 73.1069 49.5817 74.4217 49.1795 75.7287C48.468 78.0567 47.594 80.3306 46.4725 82.4961C46.3256 82.7746 46.3024 83.1226 46.2096 83.4938C47.4393 83.8419 48.5376 84.1512 49.7054 84.4838H49.7132ZM22.7674 86.4251C23.7419 86.224 24.7009 86.077 25.5052 85.3268C23.9816 83.3933 22.5276 81.5448 21.4371 79.4334C20.3543 77.3374 19.9135 75.0095 19.0318 72.8594C17.3612 72.9754 15.8221 73.0837 14.3139 73.1842C13.7957 76.5718 18.3048 84.159 22.7674 86.4251ZM18.3434 56.6718C14.863 61.1189 13.8112 66.5792 13.935 70.8098C15.4663 70.8253 17.0054 71.0418 18.56 70.6242C18.7379 68.9072 18.9699 67.2908 19.0704 65.6589C19.2174 63.2767 19.751 60.9952 20.5245 58.7523C20.6559 58.3733 20.6637 57.9634 20.741 57.5148C20.2306 57.3214 19.8438 57.1668 19.4417 57.0198C19.1091 56.9038 18.7688 56.8033 18.3512 56.6718H18.3434ZM32.4815 49.2934C30.0529 49.9585 26.8665 52.7196 25.1031 55.6741C27.3383 55.9989 29.5425 55.7205 31.7312 55.7591C32.0638 55.7591 32.3964 55.6277 32.7599 55.5503C33.2007 53.3693 32.4351 51.3661 32.4815 49.2934ZM34.9951 49.7884C34.562 51.8147 35.0801 53.4853 35.4514 55.3183C36.8899 54.978 38.197 54.6841 39.4963 54.3438C39.7206 54.2896 39.8908 54.0499 40.2156 53.7947C38.5682 52.3252 37.0601 50.9485 35.0028 49.7884H34.9951ZM46.3024 51.4357C43.5336 49.9508 40.2543 49.015 38.5064 49.1387C39.3185 50.1596 41.8475 52.3948 43.0463 53.1063C43.9976 52.6191 45.0031 52.1009 46.3024 51.4357ZM36.9827 89.1166C38.8699 88.7376 39.4113 88.0261 41.0354 86.2704C41.2675 86.0229 41.5536 85.7522 41.2211 85.2495C39.8057 85.1799 38.3208 85.0484 36.743 85.4506C36.8281 86.719 36.9054 87.9023 36.9827 89.1088V89.1166ZM44.2838 85.729C43.7037 86.3787 43.1237 87.0129 42.5745 87.6625C42.0486 88.2813 41.5459 88.9232 40.8808 89.743C42.3038 89.542 43.3093 89.0083 44.3147 88.4978C45.1423 88.0802 45.9389 87.6084 46.7201 87.1134C46.9985 86.9355 47.1918 86.6262 47.5167 86.2781C46.4571 85.7986 45.5445 85.4892 44.2838 85.7213V85.729ZM30.7026 86.4173C31.9787 87.709 33.0074 88.4128 34.6316 89.0702C34.6857 87.9255 34.8481 86.8195 34.2371 85.5357C33.1157 86.1467 31.8395 85.7986 30.7026 86.4096V86.4173Z" fill="#58A2B8"/>
<path d="M57.4931 104.604C57.0012 104.924 56.5628 105.438 56.0708 105.502C55.0977 105.609 54.0604 105.63 53.1193 105.406C51.1623 104.946 49.1839 104.967 47.2055 104.924C45.0239 104.882 42.8637 104.882 40.6929 104.55C38.8535 104.272 36.9393 104.454 35.0464 104.465C31.5816 104.486 28.1274 104.358 24.6625 104.775C21.8286 105.117 18.9199 104.903 16.0432 104.914C15.7544 104.914 15.4764 104.785 15.2625 104.743C14.5353 104.186 14.4391 103.588 14.931 102.796C15.7117 102.026 16.7918 101.919 17.8932 101.898C20.6737 101.855 23.4434 101.855 26.2239 101.78C27.9028 101.738 29.5818 101.566 31.2607 101.492C31.8489 101.459 32.4371 101.524 33.0253 101.566C33.9129 101.631 34.8218 101.866 35.6774 101.759C40.1261 101.181 44.5534 101.994 49.0021 101.909C51.1623 101.866 53.3332 102.294 55.4934 102.572C56.4237 102.689 57.1616 103.171 57.5145 104.604H57.4931Z" fill="#DA8E25"/>
<path d="M55.0549 113.212C54.6913 114.314 53.9213 114.592 53.1086 114.442C47.7829 113.448 42.4146 114.111 37.0676 114.004C30.5228 113.875 23.9674 113.961 17.4227 113.929C16.8452 113.929 16.2677 113.811 15.8507 113.769C15.0807 113.073 15.0272 112.475 15.5298 111.833C15.7116 111.715 15.8507 111.555 16.0325 111.501C17.7542 110.999 19.5187 110.838 21.3153 110.838C30.0523 110.87 38.7786 110.817 47.5156 110.87C49.3871 110.881 51.2585 111.181 53.1193 111.427C54.0603 111.544 54.7554 112.09 55.0442 113.202L55.0549 113.212Z" fill="#DA8E25"/>
<path d="M50.7238 123.051C51.615 123.728 51.7825 124.612 51.2264 125.703C49.8041 125.917 48.2535 126.323 46.7029 126.355C42.3397 126.451 37.9765 126.409 33.6241 126.387C32.9397 126.387 32.2232 126.312 31.6029 126.056C31.2286 125.895 30.9185 125.371 30.7795 124.944C30.6084 124.43 31.1217 123.757 31.7099 123.618C32.2766 123.489 32.8755 123.404 33.4637 123.393C37.1317 123.35 40.7998 123.361 44.4678 123.297C46.4355 123.265 48.4139 123.136 50.7238 123.04V123.051Z" fill="#DA8E25"/>
<g opacity="0.14">
<path d="M158.579 46.2776C159.798 45.2189 161.007 45.1975 162.194 45.1441C167.252 44.9302 172.321 44.9195 177.358 44.4597C182.02 44.0319 186.704 44.2672 191.335 43.8501C195.997 43.4223 200.671 43.6576 205.312 43.2512C210.274 42.8235 215.247 43.0908 220.187 42.6417C224.262 42.2674 228.315 42.1818 232.378 42.2567C232.87 42.2567 233.352 42.3316 233.694 42.3636C235.031 43.1443 235.266 44.3099 235.373 45.5184C235.437 46.2135 235.373 46.9086 235.416 47.6037C235.651 52.5657 235.651 57.5491 236.196 62.4684C236.72 67.2379 236.506 71.9967 236.71 76.7449C236.784 78.4238 236.955 80.1028 237.073 81.7817C237.127 82.4768 237.18 83.172 237.18 83.8671C237.234 93.0104 237.266 102.165 237.308 111.308C237.308 111.511 237.308 111.704 237.308 111.907C237.255 114.773 236.752 115.318 233.929 115.725C230.197 116.259 226.475 116.805 222.743 117.35C222.347 117.403 221.952 117.425 221.556 117.468C215.418 118.045 209.258 117.97 203.109 118.216C198.66 118.398 194.201 118.633 189.763 119.104C186.811 119.414 183.806 119.264 180.823 119.371C179.336 119.425 177.86 119.639 176.374 119.671C172.203 119.756 168.033 119.799 163.851 119.81C162.493 119.81 161.595 118.954 161.221 117.735C160.761 116.227 160.365 114.666 160.183 113.104C159.723 108.966 159.328 104.827 159.039 100.667C158.74 96.4111 158.526 92.1442 158.408 87.888C158.28 82.9153 158.312 77.9426 158.28 72.9806C158.28 72.4886 158.312 71.9753 158.248 71.4941C157.317 64.265 157.852 57.0037 157.788 49.7639C157.788 49.272 157.798 48.7587 157.916 48.2881C158.076 47.6144 158.333 46.9728 158.558 46.3097L158.579 46.2776ZM164.087 116.655C164.739 116.73 165.135 116.826 165.52 116.815C171.177 116.666 176.823 116.965 182.48 116.323C186.416 115.874 190.394 115.842 194.351 115.628C197.815 115.436 201.28 115.179 204.745 115.061C208.221 114.944 211.696 114.965 215.172 114.922C215.471 114.922 215.771 114.901 216.059 114.869C219.706 114.505 223.353 114.163 226.999 113.757C229.534 113.468 232.058 113.04 234.624 112.238C234.624 109.65 234.87 107.148 234.56 104.71C234.218 102.025 234.229 99.3627 234.186 96.6892C234.143 93.4061 234.132 90.1338 234.068 86.8507C234.057 86.1877 233.886 85.5246 233.769 84.744C232.742 84.7226 231.865 84.637 230.988 84.6905C228.518 84.8295 226.048 85.1076 223.577 85.1824C219.706 85.3001 215.824 85.3001 211.953 85.3535C211.162 85.3535 210.338 85.2573 209.579 85.4177C206.83 86.0059 204.039 85.8241 201.27 85.9524C200.778 85.9738 200.264 85.9203 199.783 86.0379C197.238 86.6368 194.65 86.4657 192.073 86.5513C191.281 86.5833 190.479 86.5513 189.688 86.6154C185.742 86.9362 181.796 87.4068 177.839 87.5886C172.984 87.8131 168.118 87.7597 163.284 88.2516C162.728 88.3051 162.194 88.5297 161.552 88.6901C161.552 89.9092 161.488 91 161.573 92.0908C161.648 93.1709 161.937 94.2509 162.001 95.331C162.258 99.8867 162.44 104.442 162.728 108.998C162.857 111.073 163.156 113.137 163.445 115.19C163.509 115.65 163.83 116.077 164.097 116.666L164.087 116.655ZM161.188 63.2276C161.456 63.2276 161.745 63.249 162.023 63.2276C166.364 62.8106 170.695 62.201 175.048 61.9978C180.897 61.7198 186.726 61.0781 192.597 61.2279C193.484 61.2492 194.383 61.1316 195.27 61.0675C196.554 60.9712 197.837 60.8215 199.12 60.768C200.607 60.7039 202.104 60.7466 203.59 60.6825C207.654 60.5007 211.718 60.1157 215.781 60.1478C221.053 60.1798 226.283 59.5489 231.544 59.5275C231.919 59.5275 232.282 59.3671 232.785 59.2495C233.02 56.8968 232.924 54.651 232.689 52.3946C232.453 50.1489 232.293 47.9031 232.09 45.636C230.774 45.1975 229.577 45.2831 228.4 45.3045C225.427 45.358 222.454 45.5932 219.492 45.775C212.755 46.1707 206.007 46.2776 199.259 46.5236C196.489 46.6305 193.688 46.406 190.95 47.0262C190.565 47.1118 190.159 47.0583 189.763 47.069C186.875 47.1118 183.999 47.1439 181.111 47.1866C180.224 47.1973 179.325 47.2508 178.438 47.3257C177.058 47.4326 175.679 47.6251 174.289 47.6572C170.909 47.7427 167.53 47.7427 164.151 47.7855C163.071 47.7962 161.948 47.6892 161.167 48.641C160.707 51.8278 160.718 60.5969 161.188 63.249V63.2276ZM212.605 63.6661C211.301 63.11 210.285 63.1528 209.344 63.3667C207.376 63.8051 205.397 63.7196 203.419 63.7623C200.842 63.8265 198.254 63.8265 195.677 63.9334C193.602 64.019 191.527 64.2543 189.453 64.3505C187.763 64.4361 186.073 64.404 184.394 64.4574C183.817 64.4788 183.25 64.5751 182.619 64.6392C182.491 65.1526 182.309 65.5269 182.309 65.8904C182.32 71.3444 182.352 76.809 182.395 82.263C182.395 82.7335 182.544 83.204 182.651 83.8457C183.635 83.8778 184.512 84.0061 185.368 83.9205C189.421 83.5249 193.474 83.3538 197.537 83.2896C197.837 83.2896 198.147 83.311 198.425 83.2468C201.259 82.6159 204.157 82.8297 207.023 82.68C207.911 82.6373 208.787 82.4662 209.675 82.3485C210.531 82.2309 211.386 82.1026 212.145 81.9956C212.145 80.4236 211.942 79.012 212.188 77.6645C212.734 74.6061 212.541 71.5369 212.595 68.4677C212.627 66.8957 212.595 65.313 212.595 63.6554L212.605 63.6661ZM232.453 62.6716C229.726 62.7785 226.957 62.4363 224.187 62.9603C221.481 63.4843 218.669 62.7464 215.931 63.4843C214.808 69.3446 215.332 75.1087 215.279 80.8514C215.279 81.215 215.482 81.5785 215.621 82.0491C221.738 82.4661 227.727 81.7924 233.715 81.3647C233.672 78.5414 233.63 75.8893 233.587 73.2265C233.555 70.7455 233.523 68.2538 233.48 65.7728C233.469 64.7783 233.512 63.773 232.443 62.6716H232.453ZM161.531 84.7868C162.14 84.9792 162.418 85.161 162.686 85.1503C167.744 84.9472 172.791 84.7226 177.85 84.4873C178.224 84.4659 178.598 84.3376 179.047 84.2414C179.144 83.7922 179.293 83.4179 179.293 83.0436C179.293 77.3865 179.261 71.7187 179.219 66.0616C179.219 65.7942 179.015 65.5268 178.876 65.1739C177.315 64.7569 175.722 64.9066 174.171 65.0777C169.861 65.5589 165.498 65.5696 161.146 66.4893C160.868 67.7512 160.942 68.9062 161.092 70.0932C161.253 71.3658 161.392 72.6598 161.413 73.943C161.466 76.5203 161.424 79.1082 161.445 81.6962C161.445 82.68 161.499 83.6639 161.531 84.8081V84.7868Z" fill="#402625"/>
<path d="M168.942 96.625C168.845 95.577 170.097 95.3631 170.578 95.2241C171.615 94.946 172.706 94.7856 173.786 94.7642C179.839 94.6787 185.892 94.8391 191.934 94.5611C197.976 94.283 204.029 94.3793 210.049 93.9301C214.509 93.5879 218.957 93.6307 223.406 93.4596C224.101 93.4275 224.818 93.3954 225.47 93.5665C225.973 93.6948 226.401 94.1547 226.796 94.4113C226.753 95.6839 226.048 96.2079 225.128 96.4218C224.465 96.5822 223.748 96.5501 223.053 96.5501C219.685 96.5929 216.295 96.4325 212.937 96.7319C209.579 97.0314 206.221 97.1704 202.852 97.2239C201.066 97.2559 199.281 97.2239 197.495 97.288C189.271 97.6195 181.047 97.78 172.824 97.7586C172.128 97.7586 171.412 97.8441 170.749 97.6944C170.236 97.5768 169.006 97.6409 168.92 96.6143L168.942 96.625Z" fill="#402625"/>
<path d="M174.845 106.784C173.765 106.688 172.866 106.656 171.989 106.528C171.391 106.442 170.909 105.79 170.941 105.244C170.984 104.581 171.369 104.111 171.979 103.94C172.545 103.779 173.144 103.715 173.733 103.705C181.079 103.523 188.415 102.892 195.773 102.956C197.848 102.977 199.922 102.646 201.997 102.507C202.585 102.464 203.195 102.507 203.783 102.603C204.713 102.753 205.344 103.491 205.237 104.196C205.141 104.87 204.595 105.416 203.804 105.501C203.013 105.587 202.211 105.555 201.419 105.608C199.74 105.726 198.061 105.886 196.382 106.004C195.591 106.057 194.8 106.089 193.998 106.089C189.624 106.132 185.25 106.153 180.876 106.207C179.989 106.207 179.09 106.292 178.203 106.378C177.016 106.496 175.839 106.645 174.845 106.763V106.784Z" fill="#402625"/>
<path d="M216.305 104.571C216.113 104.421 215.846 104.271 215.664 104.036C215.493 103.811 215.418 103.512 215.289 103.202C215.418 102.945 215.482 102.571 215.696 102.464C216.209 102.197 216.776 101.897 217.332 101.876C219.61 101.79 221.877 101.726 224.133 101.352C224.893 101.223 225.716 101.352 226.486 101.491C227.085 101.608 227.534 102.047 227.609 102.721C227.684 103.351 227.149 104.089 226.422 104.207C225.641 104.335 224.85 104.357 224.059 104.378C221.588 104.453 219.118 104.506 216.305 104.571Z" fill="#402625"/>
</g>
<path d="M67.0643 64.8967C66.9039 65.1427 66.6686 65.41 66.6686 65.6667C66.6258 67.8269 66.5296 69.9978 66.6472 72.1472C66.69 72.9921 67.4065 73.4947 68.7325 73.1204C69.7805 70.757 69.7378 68.3295 69.3528 65.8806C69.2993 65.5063 69.064 65.1534 68.8502 64.8326C68.4866 64.2765 67.4599 64.3085 67.0643 64.886V64.8967Z" fill="#402625"/>
<path d="M66.8932 50.0534C67.0215 50.7165 67.7808 50.7058 68.9037 50.1069C69.2887 48.1392 68.9999 46.0967 68.9785 44.0755C68.4225 44.2466 67.8129 44.3535 67.1178 44.3749C66.797 44.2787 66.5082 44.1503 66.2088 44.0327C65.7276 46.0646 66.4868 48.0644 66.8825 50.0534H66.8932Z" fill="#402625"/>
<path d="M67.5563 127.853C67.2996 128.312 66.8184 128.794 66.7863 129.318C66.7221 130.376 66.6793 131.446 66.658 132.515C67.599 132.141 68.5829 132.045 69.5453 132.173C69.5667 131.285 69.5881 130.398 69.5774 129.521C69.556 128.312 69.1817 128.056 67.5563 127.863V127.853Z" fill="#402625"/>
<path d="M68.7112 103.545C69.2031 101.759 69.3635 99.9304 68.7112 98.0055C68.2727 97.9628 67.8771 97.8237 67.5562 97.92C66.9467 98.1018 66.6259 98.6258 66.5403 99.2353C66.3692 100.583 66.2302 101.941 66.0591 103.47C66.4441 103.855 66.8932 104.315 67.46 104.882C67.9626 104.358 68.5722 104.016 68.7005 103.545H68.7112Z" fill="#402625"/>
<path d="M68.6256 59.1114C69.3742 57.2292 69.2886 55.2829 68.6791 53.3259C67.2889 53.2618 66.7542 53.4329 66.69 54.1387C66.5724 55.4968 66.4868 56.887 66.6472 58.2238C66.7435 59.0686 67.5027 59.4964 68.6256 59.1114Z" fill="#402625"/>
<path d="M68.5615 89.2577C68.6791 89.108 68.893 88.9476 68.893 88.7979C68.893 87.044 68.9357 85.2902 68.8288 83.5471C68.786 82.8734 68.3583 82.2638 67.5776 82.082C66.7435 82.082 66.3157 82.6381 66.1446 83.3225C65.6848 85.2047 66.0163 87.0227 66.8183 88.7444C67.1391 89.4395 67.8129 89.6534 68.5615 89.2684V89.2577Z" fill="#402625"/>
<path d="M68.5935 112.987C68.1444 112.506 67.0536 112.677 66.8183 113.265C66.6472 113.704 66.5296 114.196 66.5082 114.677C66.444 116.645 66.6151 118.602 67.3102 120.473C67.3744 120.644 67.5669 120.762 67.8022 121.019C68.1658 120.997 68.6256 120.976 69.3528 120.944C69.8126 118.388 69.695 116.174 69.2138 113.961C69.1389 113.608 68.8502 113.276 68.5935 112.998V112.987Z" fill="#402625"/>
<g clip-path="url(#clip1_1091_31984)">
<path d="M99.3781 84.2542C98.8625 84.7968 98.154 85.1686 97.3144 85.2191L90.3957 85.635L91.4837 103.733C91.4946 103.915 91.2526 104.112 91.1414 104.119L87.3937 104.344C87.1763 104.357 86.9095 104.226 86.8965 104.009L85.1836 75.5139C85.142 74.8225 85.3579 74.1915 85.734 73.6928C86.1787 73.1545 86.776 72.7893 87.5397 72.7434L97.1895 72.1634C97.7357 72.1305 98.2995 72.3904 98.7251 72.8005C99.1886 73.2487 99.5189 73.8468 99.5538 74.4272L100.03 82.351C100.074 83.0777 99.8199 83.7515 99.3778 84.2491L99.3781 84.2542ZM94.9758 74.8544L89.7665 75.1675L89.9325 77.9282L95.1417 77.6151L94.9758 74.8544V74.8544ZM95.2904 80.0881L90.0811 80.4012L90.2449 83.1266L95.4542 82.8135L95.2904 80.0881ZM111.104 95.0777L108.191 95.2529L108.602 102.086C108.613 102.268 108.371 102.465 108.259 102.472L104.507 102.697C104.289 102.71 104.023 102.58 104.01 102.363L103.599 95.5289L100.139 95.7369L100.29 98.2452C100.314 98.6439 100.167 99.2353 99.8979 99.6567L97.5742 102.967C97.5101 103.082 97.4073 103.23 97.2253 103.241L92.8556 103.504C92.6027 103.519 92.4384 103.235 92.5766 103.085L95.6942 98.3746L95.5522 96.0126L92.3862 96.2029C92.1687 96.216 91.8999 96.0498 91.889 95.8681L91.7798 94.0512C91.7667 93.8342 91.9754 93.6747 92.1929 93.6617L95.3993 93.4689L95.1657 89.5827L92.728 89.7293C92.5459 89.7402 92.2842 89.6091 92.2712 89.392L92.162 87.5751C92.1489 87.3581 92.3222 87.2008 92.5397 87.1877L109.983 86.1392C110.236 86.124 110.469 86.2923 110.482 86.5093L110.587 88.2556C110.6 88.4726 110.429 88.6652 110.212 88.6783L107.81 88.8227L108.043 92.7089L110.885 92.538C111.138 92.5228 111.372 92.6911 111.385 92.9082L111.49 94.6544C111.503 94.8714 111.332 95.0641 111.114 95.0771L111.104 95.0777ZM103.217 89.0937L99.7577 89.3016L99.9913 93.1878L103.451 92.9799L103.217 89.0937ZM116.81 101.846C116.363 102.349 115.652 102.681 114.742 102.735L110.848 102.97C110.63 102.983 110.406 102.885 110.357 102.746L109.584 100.857C109.539 100.713 109.708 100.485 109.855 100.476L112.88 100.295L111.921 84.3411L104.709 84.7746C103.727 84.8336 103.055 84.6207 102.591 84.1725C102.166 83.7624 101.944 83.1173 101.892 82.2442L101.42 74.3911C101.38 73.7349 101.565 73.1768 101.905 72.7562C102.348 72.1825 103.056 71.8107 103.82 71.7648L112.959 71.2155C113.687 71.1717 114.435 71.4559 115.012 71.9329C115.513 72.3383 115.839 72.9418 115.881 73.6332L117.436 99.5091C117.493 100.453 117.288 101.271 116.81 101.846ZM111.291 73.8736L106.011 74.191L106.177 76.9517L111.457 76.6343L111.291 73.8736V73.8736ZM111.606 79.1073L106.326 79.4247L106.49 82.1501L111.77 81.8327L111.606 79.1073Z" fill="black"/>
<path d="M136.224 101.403L132.036 101.655C131.783 101.67 131.479 101.506 131.321 101.333L128.958 98.4871L127.065 101.63C126.93 101.82 126.65 101.984 126.428 101.997L122.275 102.247C122.058 102.26 121.858 101.978 121.992 101.752L126.117 94.9754L123.359 91.6412C123.041 91.2601 122.86 90.6125 122.827 90.0674L122.074 77.5257L121.052 77.5871C120.799 77.6023 120.566 77.434 120.553 77.217L120.428 75.1477C120.415 74.9307 120.62 74.7006 120.878 74.6851L121.899 74.6237L121.663 70.6921C121.652 70.5104 121.892 70.2782 122.074 70.2672L125.786 70.0441C126.003 70.031 126.196 70.2018 126.21 70.4188L126.446 74.3453L128.56 74.2182L128.324 70.2917C128.315 70.1453 128.482 69.882 128.699 69.869L132.341 69.6501C132.558 69.637 132.862 69.8011 132.875 70.0181L133.111 73.9446L134.315 73.8723C134.568 73.8571 134.801 74.0254 134.814 74.2424L134.937 76.2763C134.952 76.5287 134.783 76.7617 134.53 76.7769L133.291 76.8514L134.045 89.3881C134.071 89.8221 133.986 90.2679 133.786 90.5687L131.393 94.5063L136.487 100.8C136.609 100.975 136.411 101.387 136.229 101.398L136.224 101.403ZM128.734 77.1253L126.62 77.2524L127.361 89.5721L128.507 90.9974L129.475 89.445L128.734 77.1253V77.1253ZM154.152 83.5143L149.853 83.7727C149.671 83.7837 149.298 83.6592 149.215 83.4465L148.3 81.5665L147.68 83.4272C147.587 83.7266 147.345 83.9235 147.016 83.9433L135.728 84.6219C135.328 84.6459 134.864 84.2736 134.838 83.8345L134.755 82.4517C134.733 82.0883 134.858 81.7161 134.987 81.4145L139.821 69.4587C139.883 69.3081 140.135 69.1866 140.317 69.1757L144.469 68.9261C144.686 68.913 144.919 69.1523 144.857 69.3029L139.958 81.45L147.969 80.9684L144.433 73.8162C144.391 73.7073 144.52 73.4108 144.702 73.3998L148.961 73.1439C149.178 73.1308 149.443 73.2263 149.489 73.4059L154.342 83.0369C154.421 83.179 154.37 83.5114 154.153 83.5244L154.152 83.5143ZM153.077 99.661C152.704 100.119 152.175 100.445 151.594 100.48L139.248 101.222C138.555 101.263 137.959 101.046 137.533 100.631C137.107 100.221 136.857 99.6889 136.817 99.0328L136.26 89.7665C136.228 89.2214 136.412 88.6633 136.788 88.2405C137.233 87.7022 137.901 87.3328 138.594 87.2912L150.211 86.5929C150.828 86.5558 151.534 86.7311 152.106 87.1374C152.641 87.5054 153.003 88.0307 153.044 88.7221L153.603 98.0237C153.638 98.6041 153.456 99.1976 153.082 99.6607L153.077 99.661ZM148.491 89.6492L140.879 90.1068L141.362 98.1365L148.974 97.679L148.491 89.6492Z" fill="black"/>
<path d="M170.955 74.2581L164.036 74.6739L164.316 79.3273L168.797 79.0579C169.49 79.0163 170.056 79.3115 170.519 79.7547C170.945 80.1647 171.233 80.659 171.262 81.1334L172.206 96.8345C172.245 97.4906 172.067 98.1548 171.62 98.6578C171.244 99.0805 170.713 99.3707 169.874 99.4212L167.396 99.5702C167.102 99.5878 166.914 99.4877 166.794 99.2771L165.768 97.4038C165.686 97.2264 165.769 96.8213 166.027 96.8058L167.554 96.714L166.674 82.0677L164.489 82.199L165.253 94.9174C165.29 95.5331 165.25 96.0471 164.99 96.6098L163.801 99.305C163.639 99.644 163.393 99.7652 163.099 99.7828L158.912 100.035C158.659 100.05 158.494 99.7659 158.588 99.5425L160.642 94.7894L159.449 74.9497L157.922 75.0415C157.704 75.0546 157.436 74.8884 157.425 74.7067L157.294 72.5264C157.28 72.3094 157.525 72.1478 157.747 72.1344L161.682 71.8979L160.309 68.4804C160.265 68.3361 160.392 67.9993 160.574 67.9883L165.161 67.7126C165.378 67.6995 165.603 67.7975 165.654 67.9767L167.22 71.565L170.79 71.3504C171.043 71.3352 171.312 71.5014 171.325 71.7184L171.452 73.828C171.467 74.0804 171.183 74.2444 170.965 74.2574L170.955 74.2581ZM189.013 71.8607L177.249 72.5678L176.36 75.4274C176.264 75.6864 176.022 75.8833 175.875 75.8921L171.47 76.1569C171.253 76.17 171.126 75.9243 171.191 75.7381L173.742 67.6729C173.833 67.3382 174.184 67.0993 174.584 67.0752L178.478 66.8412C178.772 66.8235 179.004 67.0628 178.879 67.435L178.207 69.5927L188.843 68.9533C189.096 68.9381 189.329 69.1064 189.349 69.4345L189.461 71.2867C189.48 71.6148 189.24 71.847 189.018 71.8604L189.013 71.8607ZM189.034 77.112C188.885 77.6681 188.514 78.1665 188.056 78.4827C187.6 78.8394 187.027 79.0207 186.41 79.0578L177.671 79.5831L178.654 95.9353L183.752 95.6289C183.898 95.6201 184.096 95.8615 184.067 95.9746L183.11 98.2913C183.048 98.4419 182.73 98.6433 182.583 98.6522L177.01 98.9872C176.317 99.0288 175.647 98.7753 175.108 98.3367C174.494 97.8265 174.084 97.0863 174.035 96.2839L173.037 79.6793C172.994 78.9525 173.247 78.2788 173.654 77.7833C174.132 77.2075 174.805 76.8378 175.604 76.7898L183.909 76.2906L184.328 74.7357C184.388 74.5497 184.704 74.313 184.886 74.302L189.438 74.0284C189.655 74.0153 189.852 74.2567 189.79 74.4073L189.039 77.1168L189.034 77.112ZM191.687 98.1049L188.045 98.3238C187.717 98.3436 187.53 98.2839 187.37 98.0706L178.17 81.8122C178.008 81.5687 178.171 81.2297 178.499 81.2099L181.665 81.0196C181.994 80.9998 182.471 81.0826 182.637 81.3968L184.35 84.3937L185.663 80.7387C185.723 80.5528 186.002 80.2828 186.366 80.2609L189.35 80.0815C189.678 80.0618 189.845 80.381 189.749 80.6401L186.799 88.7293L191.868 97.6534C191.992 97.8637 191.894 98.0874 191.676 98.1005L191.687 98.1049Z" fill="black"/>
<path d="M206.67 67.6997C206.454 68.3306 206.076 68.794 205.623 69.11C205.165 69.4313 204.592 69.6076 203.975 69.6446L202.953 69.7061L203.222 74.1777L206.752 73.9655C207.005 73.9503 207.276 74.1518 207.289 74.3688L207.405 76.2968C207.42 76.5491 207.14 76.7888 206.923 76.8019L203.393 77.0141L204.583 96.8184C204.598 97.0708 204.361 97.3434 204.138 97.3568L200.462 97.5778C200.209 97.593 199.933 97.3158 199.92 97.0987L198.73 77.2944L194.613 77.5419C194.395 77.5549 194.163 77.3157 194.152 77.134L194.036 75.206C194.023 74.989 194.225 74.7185 194.442 74.7055L198.559 74.458L198.29 69.9864L194.502 70.2141C194.285 70.2271 194.05 69.9475 194.039 69.7658L193.925 67.8782C193.912 67.6612 194.114 67.3907 194.332 67.3777L201.544 66.9441L201.847 65.9028C201.907 65.7168 202.222 65.48 202.404 65.4691L207.027 65.1912C207.209 65.1803 207.437 65.3489 207.38 65.5702L206.664 67.6899L206.67 67.6997ZM198.262 95.0103C198.277 95.2626 198.068 95.422 197.886 95.433L196.03 95.5446C195.813 95.5576 195.615 95.3162 195.604 95.1345L195.364 80.161C195.355 80.0146 195.669 79.7425 195.886 79.7295L197.525 79.631C197.778 79.6158 198.016 79.8547 198.033 80.1475L198.267 95.015L198.262 95.0103ZM208.157 93.6151L206.336 93.7246C206.154 93.7355 205.892 93.6044 205.879 93.3873L204.441 79.7623C204.428 79.5452 204.626 79.2041 204.884 79.1886L206.522 79.0901C206.74 79.077 207.084 79.3096 207.093 79.456L208.535 93.1568C208.546 93.3385 208.379 93.6018 208.162 93.6148L208.157 93.6151ZM227.16 95.9729L208.989 97.0652C208.771 97.0783 208.541 96.8743 208.528 96.6573L208.41 94.694C208.396 94.477 208.601 94.2469 208.818 94.2339L215.52 93.831L215.227 88.9607L209.876 89.2823C209.583 89.3 209.428 89.0915 209.413 88.8341L209.299 86.9465C209.286 86.7295 209.488 86.459 209.705 86.4459L215.056 86.1243L214.816 82.1271L208.879 82.484C208.626 82.4992 208.433 82.3285 208.417 82.0761L208.299 80.1128C208.286 79.8958 208.491 79.6657 208.708 79.6526L221.018 78.9127L221.269 77.5857C221.293 77.4019 221.536 77.1341 221.718 77.1231L225.87 76.8735C226.052 76.8626 226.283 77.0665 226.225 77.2878L225.75 79.6869C225.636 80.2408 225.329 80.6239 224.947 80.9407C224.425 81.3722 223.743 81.5955 222.979 81.6414L219.484 81.8515L219.725 85.8487L225.48 85.5028C225.733 85.4876 226.004 85.6891 226.017 85.9061L226.128 87.7583C226.144 88.0107 225.868 88.321 225.65 88.3341L219.895 88.6801L220.188 93.5504L227 93.1409C227.294 93.1233 227.524 93.3272 227.537 93.5443L227.648 95.3965C227.664 95.6488 227.388 95.9592 227.17 95.9723L227.16 95.9729ZM224.865 75.4296C224.556 75.7774 224.134 76.0206 223.552 76.0555L210.367 76.8481C209.892 76.8767 209.483 76.7543 209.182 76.5547C208.765 76.2859 208.477 75.7968 208.439 75.176L207.981 67.55C207.95 67.0402 208.175 66.5557 208.482 66.1725C208.822 65.7519 209.353 65.4617 209.899 65.4289L222.679 64.6606C223.296 64.6235 223.822 64.8452 224.211 65.227C224.599 65.6039 224.847 66.1005 224.882 66.6809L225.321 73.9839C225.356 74.5643 225.169 75.0871 224.86 75.4349L224.865 75.4296ZM220.308 67.6802L212.661 68.1399L213.001 73.8076L220.648 73.348L220.308 67.6802V67.6802Z" fill="black"/>
</g>
</g>
<defs>
<clipPath id="clip0_1091_31984">
<rect width="260" height="156" fill="white"/>
</clipPath>
<clipPath id="clip1_1091_31984">
<rect width="141" height="32" fill="white" transform="translate(85 72.4604) rotate(-3.44)"/>
</clipPath>
</defs>
</svg>
