<svg width="311" height="587" viewBox="0 0 311 587" fill="none" xmlns="http://www.w3.org/2000/svg">
<path d="M266.305 167.8C273.938 148.354 276.396 126.247 272.074 103.191C263.813 58.9119 237.07 15.4488 193.152 5.55656C118.359 -11.3455 43.0743 51.4086 41.8105 123.811C41.5818 136.915 43.5159 149.559 47.3702 161.406C57.4324 192.692 52.378 225.871 33.0199 252.329C10.774 282.802 -0.351697 321.932 5.95828 364.02C15.0139 424.49 61.7944 474.585 121.493 487.325C217.192 507.744 302.564 436.063 304.184 343.259C304.739 311.494 295.31 281.879 278.915 257.285C261.064 230.675 254.596 197.627 266.222 167.798L266.305 167.8Z" fill="#AC2F2B"/>
<path d="M143.92 578.724C143.86 582.149 146.529 584.918 149.955 584.978C153.381 585.038 156.145 582.364 156.205 578.939L163.615 154.393C163.675 150.968 161.006 148.199 157.58 148.14C154.154 148.08 151.39 150.754 151.331 154.179L143.92 578.724Z" fill="#AC4F3F" stroke="#AC4F3F" stroke-width="4"/>
<path d="M148.711 416.673C149.856 417.966 151.471 418.586 153.026 418.613L153.108 418.614C154.64 418.641 156.235 418.038 157.455 416.859C159.935 414.462 160.002 410.626 157.607 408.144L80.2722 327.982C77.8767 325.499 74.041 325.432 71.5603 327.83C69.0807 330.227 69.0137 334.063 71.4082 336.545L148.711 416.673Z" fill="#AC4F3F" stroke="#AC4F3F" stroke-width="4"/>
<path d="M151.028 293.182C152.174 294.477 153.79 295.098 155.346 295.125L155.429 295.126C156.96 295.153 158.556 294.55 159.776 293.371L204.455 250.182C206.935 247.785 207.001 243.949 204.607 241.467C202.211 238.984 198.376 238.917 195.895 241.315L151.216 284.504C148.749 286.889 148.67 290.699 151.028 293.182Z" fill="#AC4F3F" stroke="#AC4F3F" stroke-width="4"/>
</svg>
